<?xml version="1.0" encoding="utf-8"?>
<svg xmlns="http://www.w3.org/2000/svg" xmlns:xlink="http://www.w3.org/1999/xlink" width="800" height="600" viewBox="0 0 3200 2400">
<defs>
  <clipPath id="clip350">
    <rect x="0" y="0" width="3200" height="2400"/>
  </clipPath>
</defs>
<path clip-path="url(#clip350)" d="
M0 2400 L3200 2400 L3200 0 L0 0  Z
  " fill="#ffffff" fill-rule="evenodd" fill-opacity="1"/>
<defs>
  <clipPath id="clip351">
    <rect x="640" y="0" width="2241" height="2241"/>
  </clipPath>
</defs>
<path clip-path="url(#clip350)" d="
M1032.65 2133.38 L3105.51 2133.38 L3105.51 94.4882 L1032.65 94.4882  Z
  " fill="#ffffff" fill-rule="evenodd" fill-opacity="1"/>
<defs>
  <clipPath id="clip352">
    <rect x="1032" y="94" width="2074" height="2040"/>
  </clipPath>
</defs>
<polyline clip-path="url(#clip352)" style="stroke:#222255; stroke-linecap:butt; stroke-linejoin:round; stroke-width:2; stroke-opacity:0.05; fill:none" points="
  1091.32,2133.38 1091.32,94.4882 
  "/>
<polyline clip-path="url(#clip352)" style="stroke:#222255; stroke-linecap:butt; stroke-linejoin:round; stroke-width:2; stroke-opacity:0.05; fill:none" points="
  1650.04,2133.38 1650.04,94.4882 
  "/>
<polyline clip-path="url(#clip352)" style="stroke:#222255; stroke-linecap:butt; stroke-linejoin:round; stroke-width:2; stroke-opacity:0.05; fill:none" points="
  2208.76,2133.38 2208.76,94.4882 
  "/>
<polyline clip-path="url(#clip352)" style="stroke:#222255; stroke-linecap:butt; stroke-linejoin:round; stroke-width:2; stroke-opacity:0.05; fill:none" points="
  2767.48,2133.38 2767.48,94.4882 
  "/>
<polyline clip-path="url(#clip352)" style="stroke:#222255; stroke-linecap:butt; stroke-linejoin:round; stroke-width:2; stroke-opacity:0.05; fill:none" points="
  1203.06,2133.38 1203.06,94.4882 
  "/>
<polyline clip-path="url(#clip352)" style="stroke:#222255; stroke-linecap:butt; stroke-linejoin:round; stroke-width:2; stroke-opacity:0.05; fill:none" points="
  1314.8,2133.38 1314.8,94.4882 
  "/>
<polyline clip-path="url(#clip352)" style="stroke:#222255; stroke-linecap:butt; stroke-linejoin:round; stroke-width:2; stroke-opacity:0.05; fill:none" points="
  1426.55,2133.38 1426.55,94.4882 
  "/>
<polyline clip-path="url(#clip352)" style="stroke:#222255; stroke-linecap:butt; stroke-linejoin:round; stroke-width:2; stroke-opacity:0.05; fill:none" points="
  1538.29,2133.38 1538.29,94.4882 
  "/>
<polyline clip-path="url(#clip352)" style="stroke:#222255; stroke-linecap:butt; stroke-linejoin:round; stroke-width:2; stroke-opacity:0.05; fill:none" points="
  1761.78,2133.38 1761.78,94.4882 
  "/>
<polyline clip-path="url(#clip352)" style="stroke:#222255; stroke-linecap:butt; stroke-linejoin:round; stroke-width:2; stroke-opacity:0.05; fill:none" points="
  1873.53,2133.38 1873.53,94.4882 
  "/>
<polyline clip-path="url(#clip352)" style="stroke:#222255; stroke-linecap:butt; stroke-linejoin:round; stroke-width:2; stroke-opacity:0.05; fill:none" points="
  1985.27,2133.38 1985.27,94.4882 
  "/>
<polyline clip-path="url(#clip352)" style="stroke:#222255; stroke-linecap:butt; stroke-linejoin:round; stroke-width:2; stroke-opacity:0.05; fill:none" points="
  2097.02,2133.38 2097.02,94.4882 
  "/>
<polyline clip-path="url(#clip352)" style="stroke:#222255; stroke-linecap:butt; stroke-linejoin:round; stroke-width:2; stroke-opacity:0.05; fill:none" points="
  2320.51,2133.38 2320.51,94.4882 
  "/>
<polyline clip-path="url(#clip352)" style="stroke:#222255; stroke-linecap:butt; stroke-linejoin:round; stroke-width:2; stroke-opacity:0.05; fill:none" points="
  2432.25,2133.38 2432.25,94.4882 
  "/>
<polyline clip-path="url(#clip352)" style="stroke:#222255; stroke-linecap:butt; stroke-linejoin:round; stroke-width:2; stroke-opacity:0.05; fill:none" points="
  2544,2133.38 2544,94.4882 
  "/>
<polyline clip-path="url(#clip352)" style="stroke:#222255; stroke-linecap:butt; stroke-linejoin:round; stroke-width:2; stroke-opacity:0.05; fill:none" points="
  2655.74,2133.38 2655.74,94.4882 
  "/>
<polyline clip-path="url(#clip352)" style="stroke:#222255; stroke-linecap:butt; stroke-linejoin:round; stroke-width:2; stroke-opacity:0.05; fill:none" points="
  2879.23,2133.38 2879.23,94.4882 
  "/>
<polyline clip-path="url(#clip352)" style="stroke:#222255; stroke-linecap:butt; stroke-linejoin:round; stroke-width:2; stroke-opacity:0.05; fill:none" points="
  2990.97,2133.38 2990.97,94.4882 
  "/>
<polyline clip-path="url(#clip352)" style="stroke:#222255; stroke-linecap:butt; stroke-linejoin:round; stroke-width:2; stroke-opacity:0.05; fill:none" points="
  3102.72,2133.38 3102.72,94.4882 
  "/>
<polyline clip-path="url(#clip350)" style="stroke:#000000; stroke-linecap:butt; stroke-linejoin:round; stroke-width:4; stroke-opacity:1; fill:none" points="
  1032.65,2133.38 3105.51,2133.38 
  "/>
<polyline clip-path="url(#clip350)" style="stroke:#000000; stroke-linecap:butt; stroke-linejoin:round; stroke-width:4; stroke-opacity:1; fill:none" points="
  1032.65,94.4882 3105.51,94.4882 
  "/>
<polyline clip-path="url(#clip350)" style="stroke:#000000; stroke-linecap:butt; stroke-linejoin:round; stroke-width:4; stroke-opacity:1; fill:none" points="
  1091.32,2133.38 1091.32,2114.48 
  "/>
<polyline clip-path="url(#clip350)" style="stroke:#000000; stroke-linecap:butt; stroke-linejoin:round; stroke-width:4; stroke-opacity:1; fill:none" points="
  1650.04,2133.38 1650.04,2114.48 
  "/>
<polyline clip-path="url(#clip350)" style="stroke:#000000; stroke-linecap:butt; stroke-linejoin:round; stroke-width:4; stroke-opacity:1; fill:none" points="
  2208.76,2133.38 2208.76,2114.48 
  "/>
<polyline clip-path="url(#clip350)" style="stroke:#000000; stroke-linecap:butt; stroke-linejoin:round; stroke-width:4; stroke-opacity:1; fill:none" points="
  2767.48,2133.38 2767.48,2114.48 
  "/>
<polyline clip-path="url(#clip350)" style="stroke:#000000; stroke-linecap:butt; stroke-linejoin:round; stroke-width:4; stroke-opacity:1; fill:none" points="
  1203.06,2133.38 1203.06,2123.93 
  "/>
<polyline clip-path="url(#clip350)" style="stroke:#000000; stroke-linecap:butt; stroke-linejoin:round; stroke-width:4; stroke-opacity:1; fill:none" points="
  1314.8,2133.38 1314.8,2123.93 
  "/>
<polyline clip-path="url(#clip350)" style="stroke:#000000; stroke-linecap:butt; stroke-linejoin:round; stroke-width:4; stroke-opacity:1; fill:none" points="
  1426.55,2133.38 1426.55,2123.93 
  "/>
<polyline clip-path="url(#clip350)" style="stroke:#000000; stroke-linecap:butt; stroke-linejoin:round; stroke-width:4; stroke-opacity:1; fill:none" points="
  1538.29,2133.38 1538.29,2123.93 
  "/>
<polyline clip-path="url(#clip350)" style="stroke:#000000; stroke-linecap:butt; stroke-linejoin:round; stroke-width:4; stroke-opacity:1; fill:none" points="
  1761.78,2133.38 1761.78,2123.93 
  "/>
<polyline clip-path="url(#clip350)" style="stroke:#000000; stroke-linecap:butt; stroke-linejoin:round; stroke-width:4; stroke-opacity:1; fill:none" points="
  1873.53,2133.38 1873.53,2123.93 
  "/>
<polyline clip-path="url(#clip350)" style="stroke:#000000; stroke-linecap:butt; stroke-linejoin:round; stroke-width:4; stroke-opacity:1; fill:none" points="
  1985.27,2133.38 1985.27,2123.93 
  "/>
<polyline clip-path="url(#clip350)" style="stroke:#000000; stroke-linecap:butt; stroke-linejoin:round; stroke-width:4; stroke-opacity:1; fill:none" points="
  2097.02,2133.38 2097.02,2123.93 
  "/>
<polyline clip-path="url(#clip350)" style="stroke:#000000; stroke-linecap:butt; stroke-linejoin:round; stroke-width:4; stroke-opacity:1; fill:none" points="
  2320.51,2133.38 2320.51,2123.93 
  "/>
<polyline clip-path="url(#clip350)" style="stroke:#000000; stroke-linecap:butt; stroke-linejoin:round; stroke-width:4; stroke-opacity:1; fill:none" points="
  2432.25,2133.38 2432.25,2123.93 
  "/>
<polyline clip-path="url(#clip350)" style="stroke:#000000; stroke-linecap:butt; stroke-linejoin:round; stroke-width:4; stroke-opacity:1; fill:none" points="
  2544,2133.38 2544,2123.93 
  "/>
<polyline clip-path="url(#clip350)" style="stroke:#000000; stroke-linecap:butt; stroke-linejoin:round; stroke-width:4; stroke-opacity:1; fill:none" points="
  2655.74,2133.38 2655.74,2123.93 
  "/>
<polyline clip-path="url(#clip350)" style="stroke:#000000; stroke-linecap:butt; stroke-linejoin:round; stroke-width:4; stroke-opacity:1; fill:none" points="
  2879.23,2133.38 2879.23,2123.93 
  "/>
<polyline clip-path="url(#clip350)" style="stroke:#000000; stroke-linecap:butt; stroke-linejoin:round; stroke-width:4; stroke-opacity:1; fill:none" points="
  2990.97,2133.38 2990.97,2123.93 
  "/>
<polyline clip-path="url(#clip350)" style="stroke:#000000; stroke-linecap:butt; stroke-linejoin:round; stroke-width:4; stroke-opacity:1; fill:none" points="
  3102.72,2133.38 3102.72,2123.93 
  "/>
<path clip-path="url(#clip350)" d="M1091.32 2176.55 Q1085.9 2176.55 1083.16 2181.9 Q1080.45 2187.21 1080.45 2197.91 Q1080.45 2208.57 1083.16 2213.91 Q1085.9 2219.23 1091.32 2219.23 Q1096.77 2219.23 1099.48 2213.91 Q1102.22 2208.57 1102.22 2197.91 Q1102.22 2187.21 1099.48 2181.9 Q1096.77 2176.55 1091.32 2176.55 M1091.32 2171 Q1100.03 2171 1104.61 2177.91 Q1109.23 2184.78 1109.23 2197.91 Q1109.23 2211 1104.61 2217.91 Q1100.03 2224.78 1091.32 2224.78 Q1082.6 2224.78 1077.98 2217.91 Q1073.4 2211 1073.4 2197.91 Q1073.4 2184.78 1077.98 2177.91 Q1082.6 2171 1091.32 2171 Z" fill="#000000" fill-rule="evenodd" fill-opacity="1" /><path clip-path="url(#clip350)" d="M1612.09 2171.94 L1639.62 2171.94 L1639.62 2177.84 L1618.51 2177.84 L1618.51 2190.55 Q1620.04 2190.03 1621.57 2189.78 Q1623.09 2189.51 1624.62 2189.51 Q1633.3 2189.51 1638.37 2194.26 Q1643.44 2199.02 1643.44 2207.14 Q1643.44 2215.51 1638.23 2220.16 Q1633.02 2224.78 1623.55 2224.78 Q1620.28 2224.78 1616.88 2224.23 Q1613.51 2223.67 1609.9 2222.56 L1609.9 2215.51 Q1613.02 2217.21 1616.36 2218.05 Q1619.69 2218.88 1623.41 2218.88 Q1629.41 2218.88 1632.92 2215.72 Q1636.43 2212.56 1636.43 2207.14 Q1636.43 2201.73 1632.92 2198.57 Q1629.41 2195.41 1623.41 2195.41 Q1620.59 2195.41 1617.78 2196.03 Q1615 2196.66 1612.09 2197.98 L1612.09 2171.94 Z" fill="#000000" fill-rule="evenodd" fill-opacity="1" /><path clip-path="url(#clip350)" d="M1672.26 2176.55 Q1666.84 2176.55 1664.1 2181.9 Q1661.39 2187.21 1661.39 2197.91 Q1661.39 2208.57 1664.1 2213.91 Q1666.84 2219.23 1672.26 2219.23 Q1677.71 2219.23 1680.42 2213.91 Q1683.16 2208.57 1683.16 2197.91 Q1683.16 2187.21 1680.42 2181.9 Q1677.71 2176.55 1672.26 2176.55 M1672.26 2171 Q1680.98 2171 1685.56 2177.91 Q1690.18 2184.78 1690.18 2197.91 Q1690.18 2211 1685.56 2217.91 Q1680.98 2224.78 1672.26 2224.78 Q1663.55 2224.78 1658.93 2217.91 Q1654.34 2211 1654.34 2197.91 Q1654.34 2184.78 1658.93 2177.91 Q1663.55 2171 1672.26 2171 Z" fill="#000000" fill-rule="evenodd" fill-opacity="1" /><path clip-path="url(#clip350)" d="M2148.17 2217.87 L2159.63 2217.87 L2159.63 2178.32 L2147.16 2180.82 L2147.16 2174.44 L2159.56 2171.94 L2166.57 2171.94 L2166.57 2217.87 L2178.03 2217.87 L2178.03 2223.78 L2148.17 2223.78 L2148.17 2217.87 Z" fill="#000000" fill-rule="evenodd" fill-opacity="1" /><path clip-path="url(#clip350)" d="M2207.2 2176.55 Q2201.78 2176.55 2199.04 2181.9 Q2196.33 2187.21 2196.33 2197.91 Q2196.33 2208.57 2199.04 2213.91 Q2201.78 2219.23 2207.2 2219.23 Q2212.65 2219.23 2215.36 2213.91 Q2218.1 2208.57 2218.1 2197.91 Q2218.1 2187.21 2215.36 2181.9 Q2212.65 2176.55 2207.2 2176.55 M2207.2 2171 Q2215.91 2171 2220.5 2177.91 Q2225.12 2184.78 2225.12 2197.91 Q2225.12 2211 2220.5 2217.91 Q2215.91 2224.78 2207.2 2224.78 Q2198.48 2224.78 2193.87 2217.91 Q2189.28 2211 2189.28 2197.91 Q2189.28 2184.78 2193.87 2177.91 Q2198.48 2171 2207.2 2171 Z" fill="#000000" fill-rule="evenodd" fill-opacity="1" /><path clip-path="url(#clip350)" d="M2252.44 2176.55 Q2247.03 2176.55 2244.28 2181.9 Q2241.57 2187.21 2241.57 2197.91 Q2241.57 2208.57 2244.28 2213.91 Q2247.03 2219.23 2252.44 2219.23 Q2257.89 2219.23 2260.6 2213.91 Q2263.34 2208.57 2263.34 2197.91 Q2263.34 2187.21 2260.6 2181.9 Q2257.89 2176.55 2252.44 2176.55 M2252.44 2171 Q2261.16 2171 2265.74 2177.91 Q2270.36 2184.78 2270.36 2197.91 Q2270.36 2211 2265.74 2217.91 Q2261.16 2224.78 2252.44 2224.78 Q2243.73 2224.78 2239.11 2217.91 Q2234.53 2211 2234.53 2197.91 Q2234.53 2184.78 2239.11 2177.91 Q2243.73 2171 2252.44 2171 Z" fill="#000000" fill-rule="evenodd" fill-opacity="1" /><path clip-path="url(#clip350)" d="M2706.89 2217.87 L2718.35 2217.87 L2718.35 2178.32 L2705.89 2180.82 L2705.89 2174.44 L2718.28 2171.94 L2725.3 2171.94 L2725.3 2217.87 L2736.76 2217.87 L2736.76 2223.78 L2706.89 2223.78 L2706.89 2217.87 Z" fill="#000000" fill-rule="evenodd" fill-opacity="1" /><path clip-path="url(#clip350)" d="M2750.99 2171.94 L2778.53 2171.94 L2778.53 2177.84 L2757.42 2177.84 L2757.42 2190.55 Q2758.94 2190.03 2760.47 2189.78 Q2762 2189.51 2763.53 2189.51 Q2772.21 2189.51 2777.28 2194.26 Q2782.35 2199.02 2782.35 2207.14 Q2782.35 2215.51 2777.14 2220.16 Q2771.93 2224.78 2762.45 2224.78 Q2759.19 2224.78 2755.78 2224.23 Q2752.42 2223.67 2748.8 2222.56 L2748.8 2215.51 Q2751.93 2217.21 2755.26 2218.05 Q2758.6 2218.88 2762.31 2218.88 Q2768.32 2218.88 2771.82 2215.72 Q2775.33 2212.56 2775.33 2207.14 Q2775.33 2201.73 2771.82 2198.57 Q2768.32 2195.41 2762.31 2195.41 Q2759.5 2195.41 2756.69 2196.03 Q2753.91 2196.66 2750.99 2197.98 L2750.99 2171.94 Z" fill="#000000" fill-rule="evenodd" fill-opacity="1" /><path clip-path="url(#clip350)" d="M2811.16 2176.55 Q2805.75 2176.55 2803.01 2181.9 Q2800.3 2187.21 2800.3 2197.91 Q2800.3 2208.57 2803.01 2213.91 Q2805.75 2219.23 2811.16 2219.23 Q2816.62 2219.23 2819.32 2213.91 Q2822.07 2208.57 2822.07 2197.91 Q2822.07 2187.21 2819.32 2181.9 Q2816.62 2176.55 2811.16 2176.55 M2811.16 2171 Q2819.88 2171 2824.46 2177.91 Q2829.08 2184.78 2829.08 2197.91 Q2829.08 2211 2824.46 2217.91 Q2819.88 2224.78 2811.16 2224.78 Q2802.45 2224.78 2797.83 2217.91 Q2793.25 2211 2793.25 2197.91 Q2793.25 2184.78 2797.83 2177.91 Q2802.45 2171 2811.16 2171 Z" fill="#000000" fill-rule="evenodd" fill-opacity="1" /><path clip-path="url(#clip350)" d="M2055.43 2288.36 L2055.43 2267.32 L2061.82 2267.32 L2061.82 2321.34 L2055.43 2321.34 L2055.43 2315.51 Q2053.42 2318.98 2050.33 2320.68 Q2047.28 2322.35 2042.97 2322.35 Q2035.92 2322.35 2031.48 2316.73 Q2027.07 2311.1 2027.07 2301.93 Q2027.07 2292.77 2031.48 2287.14 Q2035.92 2281.52 2042.97 2281.52 Q2047.28 2281.52 2050.33 2283.22 Q2053.42 2284.89 2055.43 2288.36 M2033.66 2301.93 Q2033.66 2308.98 2036.55 2313.01 Q2039.46 2317 2044.53 2317 Q2049.6 2317 2052.52 2313.01 Q2055.43 2308.98 2055.43 2301.93 Q2055.43 2294.89 2052.52 2290.89 Q2049.6 2286.86 2044.53 2286.86 Q2039.46 2286.86 2036.55 2290.89 Q2033.66 2294.89 2033.66 2301.93 Z" fill="#000000" fill-rule="evenodd" fill-opacity="1" /><path clip-path="url(#clip350)" d="M2094.81 2267.32 L2094.81 2281.66 Q2101.72 2281.66 2106.34 2286.97 Q2111.09 2292.39 2111.09 2301.93 Q2111.09 2311.48 2106.34 2316.9 Q2101.72 2322.21 2094.81 2322.21 L2094.81 2336.14 L2088.46 2336.14 L2088.46 2322.21 Q2081.55 2322.21 2076.89 2316.9 Q2072.17 2311.48 2072.17 2301.93 Q2072.17 2292.39 2076.89 2286.97 Q2081.55 2281.66 2088.46 2281.66 L2088.46 2267.32 L2094.81 2267.32 M2094.81 2316.52 Q2098.73 2316.52 2101.41 2312.94 Q2104.32 2308.95 2104.36 2301.93 Q2104.39 2294.99 2101.41 2290.93 Q2098.73 2287.35 2094.81 2287.35 L2094.81 2316.52 M2088.46 2316.52 L2088.46 2287.35 Q2084.53 2287.35 2081.89 2290.93 Q2078.87 2294.99 2078.91 2301.93 Q2078.94 2308.95 2081.89 2312.94 Q2084.53 2316.52 2088.46 2316.52 Z" fill="#000000" fill-rule="evenodd" fill-opacity="1" /><polyline clip-path="url(#clip352)" style="stroke:#222255; stroke-linecap:butt; stroke-linejoin:round; stroke-width:2; stroke-opacity:0.05; fill:none" points="
  1032.65,2075.67 3105.51,2075.67 
  "/>
<polyline clip-path="url(#clip352)" style="stroke:#222255; stroke-linecap:butt; stroke-linejoin:round; stroke-width:2; stroke-opacity:0.05; fill:none" points="
  1032.65,1690.98 3105.51,1690.98 
  "/>
<polyline clip-path="url(#clip352)" style="stroke:#222255; stroke-linecap:butt; stroke-linejoin:round; stroke-width:2; stroke-opacity:0.05; fill:none" points="
  1032.65,1306.28 3105.51,1306.28 
  "/>
<polyline clip-path="url(#clip352)" style="stroke:#222255; stroke-linecap:butt; stroke-linejoin:round; stroke-width:2; stroke-opacity:0.05; fill:none" points="
  1032.65,921.584 3105.51,921.584 
  "/>
<polyline clip-path="url(#clip352)" style="stroke:#222255; stroke-linecap:butt; stroke-linejoin:round; stroke-width:2; stroke-opacity:0.05; fill:none" points="
  1032.65,536.888 3105.51,536.888 
  "/>
<polyline clip-path="url(#clip352)" style="stroke:#222255; stroke-linecap:butt; stroke-linejoin:round; stroke-width:2; stroke-opacity:0.05; fill:none" points="
  1032.65,152.193 3105.51,152.193 
  "/>
<polyline clip-path="url(#clip352)" style="stroke:#222255; stroke-linecap:butt; stroke-linejoin:round; stroke-width:2; stroke-opacity:0.05; fill:none" points="
  1032.65,1998.73 3105.51,1998.73 
  "/>
<polyline clip-path="url(#clip352)" style="stroke:#222255; stroke-linecap:butt; stroke-linejoin:round; stroke-width:2; stroke-opacity:0.05; fill:none" points="
  1032.65,1921.79 3105.51,1921.79 
  "/>
<polyline clip-path="url(#clip352)" style="stroke:#222255; stroke-linecap:butt; stroke-linejoin:round; stroke-width:2; stroke-opacity:0.05; fill:none" points="
  1032.65,1844.85 3105.51,1844.85 
  "/>
<polyline clip-path="url(#clip352)" style="stroke:#222255; stroke-linecap:butt; stroke-linejoin:round; stroke-width:2; stroke-opacity:0.05; fill:none" points="
  1032.65,1767.91 3105.51,1767.91 
  "/>
<polyline clip-path="url(#clip352)" style="stroke:#222255; stroke-linecap:butt; stroke-linejoin:round; stroke-width:2; stroke-opacity:0.05; fill:none" points="
  1032.65,1614.04 3105.51,1614.04 
  "/>
<polyline clip-path="url(#clip352)" style="stroke:#222255; stroke-linecap:butt; stroke-linejoin:round; stroke-width:2; stroke-opacity:0.05; fill:none" points="
  1032.65,1537.1 3105.51,1537.1 
  "/>
<polyline clip-path="url(#clip352)" style="stroke:#222255; stroke-linecap:butt; stroke-linejoin:round; stroke-width:2; stroke-opacity:0.05; fill:none" points="
  1032.65,1460.16 3105.51,1460.16 
  "/>
<polyline clip-path="url(#clip352)" style="stroke:#222255; stroke-linecap:butt; stroke-linejoin:round; stroke-width:2; stroke-opacity:0.05; fill:none" points="
  1032.65,1383.22 3105.51,1383.22 
  "/>
<polyline clip-path="url(#clip352)" style="stroke:#222255; stroke-linecap:butt; stroke-linejoin:round; stroke-width:2; stroke-opacity:0.05; fill:none" points="
  1032.65,1229.34 3105.51,1229.34 
  "/>
<polyline clip-path="url(#clip352)" style="stroke:#222255; stroke-linecap:butt; stroke-linejoin:round; stroke-width:2; stroke-opacity:0.05; fill:none" points="
  1032.65,1152.4 3105.51,1152.4 
  "/>
<polyline clip-path="url(#clip352)" style="stroke:#222255; stroke-linecap:butt; stroke-linejoin:round; stroke-width:2; stroke-opacity:0.05; fill:none" points="
  1032.65,1075.46 3105.51,1075.46 
  "/>
<polyline clip-path="url(#clip352)" style="stroke:#222255; stroke-linecap:butt; stroke-linejoin:round; stroke-width:2; stroke-opacity:0.05; fill:none" points="
  1032.65,998.523 3105.51,998.523 
  "/>
<polyline clip-path="url(#clip352)" style="stroke:#222255; stroke-linecap:butt; stroke-linejoin:round; stroke-width:2; stroke-opacity:0.05; fill:none" points="
  1032.65,844.645 3105.51,844.645 
  "/>
<polyline clip-path="url(#clip352)" style="stroke:#222255; stroke-linecap:butt; stroke-linejoin:round; stroke-width:2; stroke-opacity:0.05; fill:none" points="
  1032.65,767.706 3105.51,767.706 
  "/>
<polyline clip-path="url(#clip352)" style="stroke:#222255; stroke-linecap:butt; stroke-linejoin:round; stroke-width:2; stroke-opacity:0.05; fill:none" points="
  1032.65,690.767 3105.51,690.767 
  "/>
<polyline clip-path="url(#clip352)" style="stroke:#222255; stroke-linecap:butt; stroke-linejoin:round; stroke-width:2; stroke-opacity:0.05; fill:none" points="
  1032.65,613.827 3105.51,613.827 
  "/>
<polyline clip-path="url(#clip352)" style="stroke:#222255; stroke-linecap:butt; stroke-linejoin:round; stroke-width:2; stroke-opacity:0.05; fill:none" points="
  1032.65,459.949 3105.51,459.949 
  "/>
<polyline clip-path="url(#clip352)" style="stroke:#222255; stroke-linecap:butt; stroke-linejoin:round; stroke-width:2; stroke-opacity:0.05; fill:none" points="
  1032.65,383.01 3105.51,383.01 
  "/>
<polyline clip-path="url(#clip352)" style="stroke:#222255; stroke-linecap:butt; stroke-linejoin:round; stroke-width:2; stroke-opacity:0.05; fill:none" points="
  1032.65,306.071 3105.51,306.071 
  "/>
<polyline clip-path="url(#clip352)" style="stroke:#222255; stroke-linecap:butt; stroke-linejoin:round; stroke-width:2; stroke-opacity:0.05; fill:none" points="
  1032.65,229.132 3105.51,229.132 
  "/>
<polyline clip-path="url(#clip350)" style="stroke:#000000; stroke-linecap:butt; stroke-linejoin:round; stroke-width:4; stroke-opacity:1; fill:none" points="
  1032.65,2133.38 1032.65,94.4882 
  "/>
<polyline clip-path="url(#clip350)" style="stroke:#000000; stroke-linecap:butt; stroke-linejoin:round; stroke-width:4; stroke-opacity:1; fill:none" points="
  3105.51,2133.38 3105.51,94.4882 
  "/>
<polyline clip-path="url(#clip350)" style="stroke:#000000; stroke-linecap:butt; stroke-linejoin:round; stroke-width:4; stroke-opacity:1; fill:none" points="
  1032.65,2075.67 1046.89,2075.67 
  "/>
<polyline clip-path="url(#clip350)" style="stroke:#000000; stroke-linecap:butt; stroke-linejoin:round; stroke-width:4; stroke-opacity:1; fill:none" points="
  1032.65,1690.98 1046.89,1690.98 
  "/>
<polyline clip-path="url(#clip350)" style="stroke:#000000; stroke-linecap:butt; stroke-linejoin:round; stroke-width:4; stroke-opacity:1; fill:none" points="
  1032.65,1306.28 1046.89,1306.28 
  "/>
<polyline clip-path="url(#clip350)" style="stroke:#000000; stroke-linecap:butt; stroke-linejoin:round; stroke-width:4; stroke-opacity:1; fill:none" points="
  1032.65,921.584 1046.89,921.584 
  "/>
<polyline clip-path="url(#clip350)" style="stroke:#000000; stroke-linecap:butt; stroke-linejoin:round; stroke-width:4; stroke-opacity:1; fill:none" points="
  1032.65,536.888 1046.89,536.888 
  "/>
<polyline clip-path="url(#clip350)" style="stroke:#000000; stroke-linecap:butt; stroke-linejoin:round; stroke-width:4; stroke-opacity:1; fill:none" points="
  1032.65,152.193 1046.89,152.193 
  "/>
<polyline clip-path="url(#clip350)" style="stroke:#000000; stroke-linecap:butt; stroke-linejoin:round; stroke-width:4; stroke-opacity:1; fill:none" points="
  1032.65,1998.73 1039.77,1998.73 
  "/>
<polyline clip-path="url(#clip350)" style="stroke:#000000; stroke-linecap:butt; stroke-linejoin:round; stroke-width:4; stroke-opacity:1; fill:none" points="
  1032.65,1921.79 1039.77,1921.79 
  "/>
<polyline clip-path="url(#clip350)" style="stroke:#000000; stroke-linecap:butt; stroke-linejoin:round; stroke-width:4; stroke-opacity:1; fill:none" points="
  1032.65,1844.85 1039.77,1844.85 
  "/>
<polyline clip-path="url(#clip350)" style="stroke:#000000; stroke-linecap:butt; stroke-linejoin:round; stroke-width:4; stroke-opacity:1; fill:none" points="
  1032.65,1767.91 1039.77,1767.91 
  "/>
<polyline clip-path="url(#clip350)" style="stroke:#000000; stroke-linecap:butt; stroke-linejoin:round; stroke-width:4; stroke-opacity:1; fill:none" points="
  1032.65,1614.04 1039.77,1614.04 
  "/>
<polyline clip-path="url(#clip350)" style="stroke:#000000; stroke-linecap:butt; stroke-linejoin:round; stroke-width:4; stroke-opacity:1; fill:none" points="
  1032.65,1537.1 1039.77,1537.1 
  "/>
<polyline clip-path="url(#clip350)" style="stroke:#000000; stroke-linecap:butt; stroke-linejoin:round; stroke-width:4; stroke-opacity:1; fill:none" points="
  1032.65,1460.16 1039.77,1460.16 
  "/>
<polyline clip-path="url(#clip350)" style="stroke:#000000; stroke-linecap:butt; stroke-linejoin:round; stroke-width:4; stroke-opacity:1; fill:none" points="
  1032.65,1383.22 1039.77,1383.22 
  "/>
<polyline clip-path="url(#clip350)" style="stroke:#000000; stroke-linecap:butt; stroke-linejoin:round; stroke-width:4; stroke-opacity:1; fill:none" points="
  1032.65,1229.34 1039.77,1229.34 
  "/>
<polyline clip-path="url(#clip350)" style="stroke:#000000; stroke-linecap:butt; stroke-linejoin:round; stroke-width:4; stroke-opacity:1; fill:none" points="
  1032.65,1152.4 1039.77,1152.4 
  "/>
<polyline clip-path="url(#clip350)" style="stroke:#000000; stroke-linecap:butt; stroke-linejoin:round; stroke-width:4; stroke-opacity:1; fill:none" points="
  1032.65,1075.46 1039.77,1075.46 
  "/>
<polyline clip-path="url(#clip350)" style="stroke:#000000; stroke-linecap:butt; stroke-linejoin:round; stroke-width:4; stroke-opacity:1; fill:none" points="
  1032.65,998.523 1039.77,998.523 
  "/>
<polyline clip-path="url(#clip350)" style="stroke:#000000; stroke-linecap:butt; stroke-linejoin:round; stroke-width:4; stroke-opacity:1; fill:none" points="
  1032.65,844.645 1039.77,844.645 
  "/>
<polyline clip-path="url(#clip350)" style="stroke:#000000; stroke-linecap:butt; stroke-linejoin:round; stroke-width:4; stroke-opacity:1; fill:none" points="
  1032.65,767.706 1039.77,767.706 
  "/>
<polyline clip-path="url(#clip350)" style="stroke:#000000; stroke-linecap:butt; stroke-linejoin:round; stroke-width:4; stroke-opacity:1; fill:none" points="
  1032.65,690.767 1039.77,690.767 
  "/>
<polyline clip-path="url(#clip350)" style="stroke:#000000; stroke-linecap:butt; stroke-linejoin:round; stroke-width:4; stroke-opacity:1; fill:none" points="
  1032.65,613.827 1039.77,613.827 
  "/>
<polyline clip-path="url(#clip350)" style="stroke:#000000; stroke-linecap:butt; stroke-linejoin:round; stroke-width:4; stroke-opacity:1; fill:none" points="
  1032.65,459.949 1039.77,459.949 
  "/>
<polyline clip-path="url(#clip350)" style="stroke:#000000; stroke-linecap:butt; stroke-linejoin:round; stroke-width:4; stroke-opacity:1; fill:none" points="
  1032.65,383.01 1039.77,383.01 
  "/>
<polyline clip-path="url(#clip350)" style="stroke:#000000; stroke-linecap:butt; stroke-linejoin:round; stroke-width:4; stroke-opacity:1; fill:none" points="
  1032.65,306.071 1039.77,306.071 
  "/>
<polyline clip-path="url(#clip350)" style="stroke:#000000; stroke-linecap:butt; stroke-linejoin:round; stroke-width:4; stroke-opacity:1; fill:none" points="
  1032.65,229.132 1039.77,229.132 
  "/>
<path clip-path="url(#clip350)" d="M846.838 2076.35 L891.351 2076.35 L891.351 2082.25 L846.838 2082.25 L846.838 2076.35 Z" fill="#000000" fill-rule="evenodd" fill-opacity="1" /><path clip-path="url(#clip350)" d="M927.74 2073.64 Q932.775 2074.72 935.587 2078.12 Q938.434 2081.52 938.434 2086.52 Q938.434 2094.2 933.157 2098.4 Q927.879 2102.6 918.157 2102.6 Q914.893 2102.6 911.421 2101.94 Q907.983 2101.31 904.303 2100.03 L904.303 2093.26 Q907.219 2094.96 910.692 2095.83 Q914.164 2096.7 917.948 2096.7 Q924.546 2096.7 927.983 2094.09 Q931.455 2091.49 931.455 2086.52 Q931.455 2081.94 928.226 2079.37 Q925.032 2076.77 919.303 2076.77 L913.261 2076.77 L913.261 2071 L919.58 2071 Q924.754 2071 927.497 2068.95 Q930.24 2066.87 930.24 2062.98 Q930.24 2058.99 927.393 2056.87 Q924.58 2054.72 919.303 2054.72 Q916.421 2054.72 913.122 2055.34 Q909.823 2055.97 905.865 2057.29 L905.865 2051.04 Q909.858 2049.92 913.33 2049.37 Q916.837 2048.81 919.928 2048.81 Q927.914 2048.81 932.566 2052.46 Q937.219 2056.07 937.219 2062.25 Q937.219 2066.56 934.754 2069.54 Q932.289 2072.49 927.74 2073.64 Z" fill="#000000" fill-rule="evenodd" fill-opacity="1" /><path clip-path="url(#clip350)" d="M966.733 2054.37 Q961.316 2054.37 958.573 2059.72 Q955.865 2065.03 955.865 2075.72 Q955.865 2086.38 958.573 2091.73 Q961.316 2097.04 966.733 2097.04 Q972.184 2097.04 974.893 2091.73 Q977.636 2086.38 977.636 2075.72 Q977.636 2065.03 974.893 2059.72 Q972.184 2054.37 966.733 2054.37 M966.733 2048.81 Q975.448 2048.81 980.031 2055.72 Q984.649 2062.6 984.649 2075.72 Q984.649 2088.81 980.031 2095.72 Q975.448 2102.6 966.733 2102.6 Q958.018 2102.6 953.4 2095.72 Q948.816 2088.81 948.816 2075.72 Q948.816 2062.6 953.4 2055.72 Q958.018 2048.81 966.733 2048.81 Z" fill="#000000" fill-rule="evenodd" fill-opacity="1" /><path clip-path="url(#clip350)" d="M846.838 1691.65 L891.351 1691.65 L891.351 1697.56 L846.838 1697.56 L846.838 1691.65 Z" fill="#000000" fill-rule="evenodd" fill-opacity="1" /><path clip-path="url(#clip350)" d="M912.532 1710.99 L937.011 1710.99 L937.011 1716.9 L904.094 1716.9 L904.094 1710.99 Q908.087 1706.86 914.962 1699.92 Q921.872 1692.94 923.643 1690.92 Q927.011 1687.14 928.33 1684.53 Q929.684 1681.9 929.684 1679.36 Q929.684 1675.23 926.768 1672.63 Q923.886 1670.02 919.233 1670.02 Q915.935 1670.02 912.254 1671.17 Q908.608 1672.31 904.442 1674.64 L904.442 1667.56 Q908.678 1665.85 912.358 1664.99 Q916.039 1664.12 919.094 1664.12 Q927.15 1664.12 931.941 1668.15 Q936.733 1672.17 936.733 1678.91 Q936.733 1682.1 935.518 1684.99 Q934.337 1687.83 931.178 1691.72 Q930.309 1692.73 925.657 1697.56 Q921.004 1702.35 912.532 1710.99 Z" fill="#000000" fill-rule="evenodd" fill-opacity="1" /><path clip-path="url(#clip350)" d="M966.733 1669.67 Q961.316 1669.67 958.573 1675.02 Q955.865 1680.33 955.865 1691.03 Q955.865 1701.69 958.573 1707.03 Q961.316 1712.35 966.733 1712.35 Q972.184 1712.35 974.893 1707.03 Q977.636 1701.69 977.636 1691.03 Q977.636 1680.33 974.893 1675.02 Q972.184 1669.67 966.733 1669.67 M966.733 1664.12 Q975.448 1664.12 980.031 1671.03 Q984.649 1677.9 984.649 1691.03 Q984.649 1704.12 980.031 1711.03 Q975.448 1717.9 966.733 1717.9 Q958.018 1717.9 953.4 1711.03 Q948.816 1704.12 948.816 1691.03 Q948.816 1677.9 953.4 1671.03 Q958.018 1664.12 966.733 1664.12 Z" fill="#000000" fill-rule="evenodd" fill-opacity="1" /><path clip-path="url(#clip350)" d="M846.838 1306.96 L891.351 1306.96 L891.351 1312.86 L846.838 1312.86 L846.838 1306.96 Z" fill="#000000" fill-rule="evenodd" fill-opacity="1" /><path clip-path="url(#clip350)" d="M907.705 1326.3 L919.164 1326.3 L919.164 1286.75 L906.698 1289.25 L906.698 1282.86 L919.094 1280.36 L926.108 1280.36 L926.108 1326.3 L937.566 1326.3 L937.566 1332.2 L907.705 1332.2 L907.705 1326.3 Z" fill="#000000" fill-rule="evenodd" fill-opacity="1" /><path clip-path="url(#clip350)" d="M966.733 1284.98 Q961.316 1284.98 958.573 1290.33 Q955.865 1295.64 955.865 1306.33 Q955.865 1316.99 958.573 1322.34 Q961.316 1327.65 966.733 1327.65 Q972.184 1327.65 974.893 1322.34 Q977.636 1316.99 977.636 1306.33 Q977.636 1295.64 974.893 1290.33 Q972.184 1284.98 966.733 1284.98 M966.733 1279.42 Q975.448 1279.42 980.031 1286.33 Q984.649 1293.21 984.649 1306.33 Q984.649 1319.42 980.031 1326.33 Q975.448 1333.21 966.733 1333.21 Q958.018 1333.21 953.4 1326.33 Q948.816 1319.42 948.816 1306.33 Q948.816 1293.21 953.4 1286.33 Q958.018 1279.42 966.733 1279.42 Z" fill="#000000" fill-rule="evenodd" fill-opacity="1" /><path clip-path="url(#clip350)" d="M966.733 900.282 Q961.316 900.282 958.573 905.629 Q955.865 910.942 955.865 921.636 Q955.865 932.296 958.573 937.643 Q961.316 942.955 966.733 942.955 Q972.184 942.955 974.893 937.643 Q977.636 932.296 977.636 921.636 Q977.636 910.942 974.893 905.629 Q972.184 900.282 966.733 900.282 M966.733 894.727 Q975.448 894.727 980.031 901.636 Q984.649 908.511 984.649 921.636 Q984.649 934.726 980.031 941.636 Q975.448 948.511 966.733 948.511 Q958.018 948.511 953.4 941.636 Q948.816 934.726 948.816 921.636 Q948.816 908.511 953.4 901.636 Q958.018 894.727 966.733 894.727 Z" fill="#000000" fill-rule="evenodd" fill-opacity="1" /><path clip-path="url(#clip350)" d="M907.705 556.906 L919.164 556.906 L919.164 517.357 L906.698 519.857 L906.698 513.468 L919.094 510.968 L926.108 510.968 L926.108 556.906 L937.566 556.906 L937.566 562.808 L907.705 562.808 L907.705 556.906 Z" fill="#000000" fill-rule="evenodd" fill-opacity="1" /><path clip-path="url(#clip350)" d="M966.733 515.586 Q961.316 515.586 958.573 520.934 Q955.865 526.246 955.865 536.94 Q955.865 547.6 958.573 552.947 Q961.316 558.26 966.733 558.26 Q972.184 558.26 974.893 552.947 Q977.636 547.6 977.636 536.94 Q977.636 526.246 974.893 520.934 Q972.184 515.586 966.733 515.586 M966.733 510.031 Q975.448 510.031 980.031 516.941 Q984.649 523.815 984.649 536.94 Q984.649 550.031 980.031 556.94 Q975.448 563.815 966.733 563.815 Q958.018 563.815 953.4 556.94 Q948.816 550.031 948.816 536.94 Q948.816 523.815 953.4 516.941 Q958.018 510.031 966.733 510.031 Z" fill="#000000" fill-rule="evenodd" fill-opacity="1" /><path clip-path="url(#clip350)" d="M912.532 172.21 L937.011 172.21 L937.011 178.113 L904.094 178.113 L904.094 172.21 Q908.087 168.078 914.962 161.133 Q921.872 154.154 923.643 152.14 Q927.011 148.356 928.33 145.752 Q929.684 143.113 929.684 140.578 Q929.684 136.446 926.768 133.842 Q923.886 131.238 919.233 131.238 Q915.935 131.238 912.254 132.384 Q908.608 133.529 904.442 135.856 L904.442 128.773 Q908.678 127.071 912.358 126.203 Q916.039 125.335 919.094 125.335 Q927.15 125.335 931.941 129.363 Q936.733 133.391 936.733 140.127 Q936.733 143.321 935.518 146.203 Q934.337 149.05 931.178 152.939 Q930.309 153.946 925.657 158.772 Q921.004 163.564 912.532 172.21 Z" fill="#000000" fill-rule="evenodd" fill-opacity="1" /><path clip-path="url(#clip350)" d="M966.733 130.891 Q961.316 130.891 958.573 136.238 Q955.865 141.55 955.865 152.245 Q955.865 162.904 958.573 168.251 Q961.316 173.564 966.733 173.564 Q972.184 173.564 974.893 168.251 Q977.636 162.904 977.636 152.245 Q977.636 141.55 974.893 136.238 Q972.184 130.891 966.733 130.891 M966.733 125.335 Q975.448 125.335 980.031 132.245 Q984.649 139.12 984.649 152.245 Q984.649 165.335 980.031 172.245 Q975.448 179.119 966.733 179.119 Q958.018 179.119 953.4 172.245 Q948.816 165.335 948.816 152.245 Q948.816 139.12 953.4 132.245 Q958.018 125.335 966.733 125.335 Z" fill="#000000" fill-rule="evenodd" fill-opacity="1" /><path clip-path="url(#clip350)" d="M731.446 1266.67 L731.446 1239.14 L737.348 1239.14 L737.348 1260.25 L750.057 1260.25 Q749.536 1258.72 749.293 1257.2 Q749.015 1255.67 749.015 1254.14 Q749.015 1245.46 753.772 1240.39 Q758.529 1235.32 766.654 1235.32 Q775.022 1235.32 779.675 1240.53 Q784.293 1245.74 784.293 1255.22 Q784.293 1258.48 783.737 1261.88 Q783.182 1265.25 782.07 1268.86 L775.022 1268.86 Q776.723 1265.74 777.557 1262.4 Q778.39 1259.07 778.39 1255.35 Q778.39 1249.35 775.23 1245.84 Q772.07 1242.33 766.654 1242.33 Q761.237 1242.33 758.077 1245.84 Q754.918 1249.35 754.918 1255.35 Q754.918 1258.17 755.543 1260.98 Q756.168 1263.76 757.487 1266.67 L731.446 1266.67 Z" fill="#000000" fill-rule="evenodd" fill-opacity="1" /><path clip-path="url(#clip350)" d="M736.064 1206.5 Q736.064 1211.92 741.411 1214.66 Q746.723 1217.37 757.418 1217.37 Q768.077 1217.37 773.425 1214.66 Q778.737 1211.92 778.737 1206.5 Q778.737 1201.05 773.425 1198.34 Q768.077 1195.6 757.418 1195.6 Q746.723 1195.6 741.411 1198.34 Q736.064 1201.05 736.064 1206.5 M730.508 1206.5 Q730.508 1197.79 737.418 1193.2 Q744.293 1188.58 757.418 1188.58 Q770.508 1188.58 777.418 1193.2 Q784.293 1197.79 784.293 1206.5 Q784.293 1215.22 777.418 1219.83 Q770.508 1224.42 757.418 1224.42 Q744.293 1224.42 737.418 1219.83 Q730.508 1215.22 730.508 1206.5 Z" fill="#000000" fill-rule="evenodd" fill-opacity="1" /><path clip-path="url(#clip350)" d="M760.473 1132.16 Q760.473 1135.18 763.043 1136.92 Q765.612 1138.62 770.195 1138.62 Q774.709 1138.62 777.314 1136.92 Q779.883 1135.18 779.883 1132.16 Q779.883 1129.21 777.314 1127.51 Q774.709 1125.77 770.195 1125.77 Q765.647 1125.77 763.077 1127.51 Q760.473 1129.21 760.473 1132.16 M756.064 1132.16 Q756.064 1126.67 759.883 1123.45 Q763.702 1120.22 770.195 1120.22 Q776.689 1120.22 780.508 1123.48 Q784.293 1126.71 784.293 1132.16 Q784.293 1137.72 780.508 1140.95 Q776.689 1144.17 770.195 1144.17 Q763.668 1144.17 759.883 1140.95 Q756.064 1137.68 756.064 1132.16 M734.918 1167.99 Q734.918 1170.98 737.522 1172.72 Q740.091 1174.42 744.605 1174.42 Q749.189 1174.42 751.758 1172.72 Q754.328 1171.01 754.328 1167.99 Q754.328 1164.97 751.758 1163.27 Q749.189 1161.54 744.605 1161.54 Q740.126 1161.54 737.522 1163.27 Q734.918 1165.01 734.918 1167.99 M730.508 1136.64 L730.508 1131.08 L784.293 1163.52 L784.293 1169.07 L730.508 1136.64 M730.508 1167.99 Q730.508 1162.51 734.328 1159.24 Q738.112 1155.98 744.605 1155.98 Q751.168 1155.98 754.953 1159.24 Q758.737 1162.47 758.737 1167.99 Q758.737 1173.51 754.953 1176.74 Q751.133 1179.94 744.605 1179.94 Q738.147 1179.94 734.328 1176.71 Q730.508 1173.48 730.508 1167.99 Z" fill="#000000" fill-rule="evenodd" fill-opacity="1" /><path clip-path="url(#clip350)" d="M745.543 1062.2 L751.584 1062.2 Q750.196 1064.9 749.501 1067.82 Q748.807 1070.74 748.807 1073.86 Q748.807 1078.62 750.265 1081.02 Q751.723 1083.38 754.64 1083.38 Q756.862 1083.38 758.147 1081.68 Q759.397 1079.97 760.543 1074.83 L761.029 1072.65 Q762.487 1065.84 765.161 1062.99 Q767.8 1060.11 772.557 1060.11 Q777.973 1060.11 781.133 1064.42 Q784.293 1068.69 784.293 1076.19 Q784.293 1079.31 783.668 1082.72 Q783.077 1086.08 781.862 1089.83 L775.265 1089.83 Q777.105 1086.29 778.043 1082.86 Q778.945 1079.42 778.945 1076.05 Q778.945 1071.54 777.418 1069.11 Q775.855 1066.68 773.043 1066.68 Q770.439 1066.68 769.05 1068.45 Q767.661 1070.18 766.376 1076.12 L765.855 1078.34 Q764.605 1084.28 762.036 1086.92 Q759.432 1089.56 754.918 1089.56 Q749.432 1089.56 746.446 1085.67 Q743.46 1081.78 743.46 1074.63 Q743.46 1071.08 743.98 1067.96 Q744.501 1064.84 745.543 1062.2 Z" fill="#000000" fill-rule="evenodd" fill-opacity="1" /><path clip-path="url(#clip350)" d="M733.355 1043.62 L744.397 1043.62 L744.397 1030.46 L749.362 1030.46 L749.362 1043.62 L770.473 1043.62 Q775.23 1043.62 776.584 1042.34 Q777.939 1041.02 777.939 1037.02 L777.939 1030.46 L783.286 1030.46 L783.286 1037.02 Q783.286 1044.42 780.543 1047.23 Q777.765 1050.04 770.473 1050.04 L749.362 1050.04 L749.362 1054.73 L744.397 1054.73 L744.397 1050.04 L733.355 1050.04 L733.355 1043.62 Z" fill="#000000" fill-rule="evenodd" fill-opacity="1" /><path clip-path="url(#clip350)" d="M763.737 1004.38 Q763.737 1012.13 765.508 1015.11 Q767.279 1018.1 771.55 1018.1 Q774.952 1018.1 776.966 1015.88 Q778.945 1013.62 778.945 1009.77 Q778.945 1004.45 775.195 1001.26 Q771.411 998.03 765.161 998.03 L763.737 998.03 L763.737 1004.38 M761.098 991.641 L783.286 991.641 L783.286 998.03 L777.383 998.03 Q780.925 1000.22 782.626 1003.48 Q784.293 1006.75 784.293 1011.47 Q784.293 1017.44 780.959 1020.98 Q777.591 1024.49 771.966 1024.49 Q765.404 1024.49 762.071 1020.11 Q758.737 1015.7 758.737 1006.99 L758.737 998.03 L758.112 998.03 Q753.703 998.03 751.307 1000.95 Q748.876 1003.83 748.876 1009.07 Q748.876 1012.4 749.675 1015.56 Q750.473 1018.72 752.071 1021.64 L746.168 1021.64 Q744.814 1018.13 744.154 1014.84 Q743.46 1011.54 743.46 1008.41 Q743.46 999.974 747.834 995.808 Q752.209 991.641 761.098 991.641 Z" fill="#000000" fill-rule="evenodd" fill-opacity="1" /><path clip-path="url(#clip350)" d="M733.355 972.162 L744.397 972.162 L744.397 959.002 L749.362 959.002 L749.362 972.162 L770.473 972.162 Q775.23 972.162 776.584 970.877 Q777.939 969.558 777.939 965.565 L777.939 959.002 L783.286 959.002 L783.286 965.565 Q783.286 972.961 780.543 975.773 Q777.765 978.585 770.473 978.585 L749.362 978.585 L749.362 983.273 L744.397 983.273 L744.397 978.585 L733.355 978.585 L733.355 972.162 Z" fill="#000000" fill-rule="evenodd" fill-opacity="1" /><circle clip-path="url(#clip352)" cx="1091.32" cy="152.193" r="21.6" fill="#ee7733" fill-rule="evenodd" fill-opacity="1" stroke="#000000" stroke-opacity="1" stroke-width="0"/>
<circle clip-path="url(#clip352)" cx="1147.19" cy="344.54" r="21.6" fill="#ee7733" fill-rule="evenodd" fill-opacity="1" stroke="#000000" stroke-opacity="1" stroke-width="0"/>
<circle clip-path="url(#clip352)" cx="1203.06" cy="536.888" r="21.6" fill="#ee7733" fill-rule="evenodd" fill-opacity="1" stroke="#000000" stroke-opacity="1" stroke-width="0"/>
<circle clip-path="url(#clip352)" cx="1258.93" cy="536.888" r="21.6" fill="#ee7733" fill-rule="evenodd" fill-opacity="1" stroke="#000000" stroke-opacity="1" stroke-width="0"/>
<circle clip-path="url(#clip352)" cx="1314.8" cy="729.236" r="21.6" fill="#ee7733" fill-rule="evenodd" fill-opacity="1" stroke="#000000" stroke-opacity="1" stroke-width="0"/>
<circle clip-path="url(#clip352)" cx="1370.68" cy="729.236" r="21.6" fill="#ee7733" fill-rule="evenodd" fill-opacity="1" stroke="#000000" stroke-opacity="1" stroke-width="0"/>
<circle clip-path="url(#clip352)" cx="1426.55" cy="729.236" r="21.6" fill="#ee7733" fill-rule="evenodd" fill-opacity="1" stroke="#000000" stroke-opacity="1" stroke-width="0"/>
<circle clip-path="url(#clip352)" cx="1482.42" cy="729.236" r="21.6" fill="#ee7733" fill-rule="evenodd" fill-opacity="1" stroke="#000000" stroke-opacity="1" stroke-width="0"/>
<circle clip-path="url(#clip352)" cx="1538.29" cy="729.236" r="21.6" fill="#ee7733" fill-rule="evenodd" fill-opacity="1" stroke="#000000" stroke-opacity="1" stroke-width="0"/>
<circle clip-path="url(#clip352)" cx="1594.17" cy="729.236" r="21.6" fill="#ee7733" fill-rule="evenodd" fill-opacity="1" stroke="#000000" stroke-opacity="1" stroke-width="0"/>
<circle clip-path="url(#clip352)" cx="1650.04" cy="729.236" r="21.6" fill="#ee7733" fill-rule="evenodd" fill-opacity="1" stroke="#000000" stroke-opacity="1" stroke-width="0"/>
<circle clip-path="url(#clip352)" cx="1705.91" cy="729.236" r="21.6" fill="#ee7733" fill-rule="evenodd" fill-opacity="1" stroke="#000000" stroke-opacity="1" stroke-width="0"/>
<circle clip-path="url(#clip352)" cx="1761.78" cy="729.236" r="21.6" fill="#ee7733" fill-rule="evenodd" fill-opacity="1" stroke="#000000" stroke-opacity="1" stroke-width="0"/>
<circle clip-path="url(#clip352)" cx="1817.66" cy="729.236" r="21.6" fill="#ee7733" fill-rule="evenodd" fill-opacity="1" stroke="#000000" stroke-opacity="1" stroke-width="0"/>
<circle clip-path="url(#clip352)" cx="1873.53" cy="921.584" r="21.6" fill="#ee7733" fill-rule="evenodd" fill-opacity="1" stroke="#000000" stroke-opacity="1" stroke-width="0"/>
<circle clip-path="url(#clip352)" cx="1929.4" cy="921.584" r="21.6" fill="#ee7733" fill-rule="evenodd" fill-opacity="1" stroke="#000000" stroke-opacity="1" stroke-width="0"/>
<circle clip-path="url(#clip352)" cx="1985.27" cy="921.584" r="21.6" fill="#ee7733" fill-rule="evenodd" fill-opacity="1" stroke="#000000" stroke-opacity="1" stroke-width="0"/>
<circle clip-path="url(#clip352)" cx="2041.14" cy="921.584" r="21.6" fill="#ee7733" fill-rule="evenodd" fill-opacity="1" stroke="#000000" stroke-opacity="1" stroke-width="0"/>
<circle clip-path="url(#clip352)" cx="2097.02" cy="921.584" r="21.6" fill="#ee7733" fill-rule="evenodd" fill-opacity="1" stroke="#000000" stroke-opacity="1" stroke-width="0"/>
<circle clip-path="url(#clip352)" cx="2152.89" cy="1113.93" r="21.6" fill="#ee7733" fill-rule="evenodd" fill-opacity="1" stroke="#000000" stroke-opacity="1" stroke-width="0"/>
<circle clip-path="url(#clip352)" cx="2208.76" cy="1113.93" r="21.6" fill="#ee7733" fill-rule="evenodd" fill-opacity="1" stroke="#000000" stroke-opacity="1" stroke-width="0"/>
<circle clip-path="url(#clip352)" cx="2264.63" cy="1113.93" r="21.6" fill="#ee7733" fill-rule="evenodd" fill-opacity="1" stroke="#000000" stroke-opacity="1" stroke-width="0"/>
<circle clip-path="url(#clip352)" cx="2320.51" cy="1113.93" r="21.6" fill="#ee7733" fill-rule="evenodd" fill-opacity="1" stroke="#000000" stroke-opacity="1" stroke-width="0"/>
<circle clip-path="url(#clip352)" cx="2376.38" cy="1306.28" r="21.6" fill="#ee7733" fill-rule="evenodd" fill-opacity="1" stroke="#000000" stroke-opacity="1" stroke-width="0"/>
<circle clip-path="url(#clip352)" cx="2432.25" cy="1306.28" r="21.6" fill="#ee7733" fill-rule="evenodd" fill-opacity="1" stroke="#000000" stroke-opacity="1" stroke-width="0"/>
<circle clip-path="url(#clip352)" cx="2488.12" cy="1306.28" r="21.6" fill="#ee7733" fill-rule="evenodd" fill-opacity="1" stroke="#000000" stroke-opacity="1" stroke-width="0"/>
<circle clip-path="url(#clip352)" cx="2544" cy="1306.28" r="21.6" fill="#ee7733" fill-rule="evenodd" fill-opacity="1" stroke="#000000" stroke-opacity="1" stroke-width="0"/>
<circle clip-path="url(#clip352)" cx="2599.87" cy="1306.28" r="21.6" fill="#ee7733" fill-rule="evenodd" fill-opacity="1" stroke="#000000" stroke-opacity="1" stroke-width="0"/>
<circle clip-path="url(#clip352)" cx="2655.74" cy="1306.28" r="21.6" fill="#ee7733" fill-rule="evenodd" fill-opacity="1" stroke="#000000" stroke-opacity="1" stroke-width="0"/>
<circle clip-path="url(#clip352)" cx="2711.61" cy="1306.28" r="21.6" fill="#ee7733" fill-rule="evenodd" fill-opacity="1" stroke="#000000" stroke-opacity="1" stroke-width="0"/>
<circle clip-path="url(#clip352)" cx="2767.48" cy="1498.63" r="21.6" fill="#ee7733" fill-rule="evenodd" fill-opacity="1" stroke="#000000" stroke-opacity="1" stroke-width="0"/>
<circle clip-path="url(#clip352)" cx="2823.36" cy="1498.63" r="21.6" fill="#ee7733" fill-rule="evenodd" fill-opacity="1" stroke="#000000" stroke-opacity="1" stroke-width="0"/>
<circle clip-path="url(#clip352)" cx="2879.23" cy="1690.98" r="21.6" fill="#ee7733" fill-rule="evenodd" fill-opacity="1" stroke="#000000" stroke-opacity="1" stroke-width="0"/>
<circle clip-path="url(#clip352)" cx="2935.1" cy="1690.98" r="21.6" fill="#ee7733" fill-rule="evenodd" fill-opacity="1" stroke="#000000" stroke-opacity="1" stroke-width="0"/>
<circle clip-path="url(#clip352)" cx="2990.97" cy="1883.32" r="21.6" fill="#ee7733" fill-rule="evenodd" fill-opacity="1" stroke="#000000" stroke-opacity="1" stroke-width="0"/>
<circle clip-path="url(#clip352)" cx="3046.85" cy="2075.67" r="21.6" fill="#ee7733" fill-rule="evenodd" fill-opacity="1" stroke="#000000" stroke-opacity="1" stroke-width="0"/>
<path clip-path="url(#clip350)" d="
M262.403 292.051 L633.651 292.051 L633.651 162.451 L262.403 162.451  Z
  " fill="#ffffff" fill-rule="evenodd" fill-opacity="0.9"/>
<polyline clip-path="url(#clip350)" style="stroke:#222255; stroke-linecap:butt; stroke-linejoin:round; stroke-width:4; stroke-opacity:0.1; fill:none" points="
  262.403,292.051 633.651,292.051 633.651,162.451 262.403,162.451 262.403,292.051 
  "/>
<circle clip-path="url(#clip350)" cx="384.687" cy="227.251" r="28.8" fill="#ee7733" fill-rule="evenodd" fill-opacity="1" stroke="#000000" stroke-opacity="1" stroke-width="0"/>
<path clip-path="url(#clip350)" d="M524.274 251.86 Q522.018 257.647 519.876 259.412 Q517.735 261.177 514.147 261.177 L509.894 261.177 L509.894 256.721 L513.019 256.721 Q515.218 256.721 516.433 255.68 Q517.648 254.638 519.124 250.761 L520.079 248.33 L506.971 216.444 L512.614 216.444 L522.741 241.791 L532.868 216.444 L538.511 216.444 L524.274 251.86 Z" fill="#000000" fill-rule="evenodd" fill-opacity="1" /><path clip-path="url(#clip350)" d="M547.625 243.932 L557.174 243.932 L557.174 210.975 L546.786 213.058 L546.786 207.734 L557.116 205.651 L562.961 205.651 L562.961 243.932 L572.509 243.932 L572.509 248.851 L547.625 248.851 L547.625 243.932 Z" fill="#000000" fill-rule="evenodd" fill-opacity="1" /></svg>
