<?xml version="1.0" encoding="utf-8"?>
<svg xmlns="http://www.w3.org/2000/svg" xmlns:xlink="http://www.w3.org/1999/xlink" width="800" height="600" viewBox="0 0 3200 2400">
<defs>
  <clipPath id="clip210">
    <rect x="0" y="0" width="3200" height="2400"/>
  </clipPath>
</defs>
<path clip-path="url(#clip210)" d="
M0 2400 L3200 2400 L3200 0 L0 0  Z
  " fill="#ffffff" fill-rule="evenodd" fill-opacity="1"/>
<defs>
  <clipPath id="clip211">
    <rect x="640" y="0" width="2241" height="2241"/>
  </clipPath>
</defs>
<path clip-path="url(#clip210)" d="
M498.521 2133.38 L3105.51 2133.38 L3105.51 94.4882 L498.521 94.4882  Z
  " fill="#ffffff" fill-rule="evenodd" fill-opacity="1"/>
<defs>
  <clipPath id="clip212">
    <rect x="498" y="94" width="2608" height="2040"/>
  </clipPath>
</defs>
<polyline clip-path="url(#clip212)" style="stroke:#222255; stroke-linecap:butt; stroke-linejoin:round; stroke-width:2; stroke-opacity:0.05; fill:none" points="
  709.701,2133.38 709.701,94.4882 
  "/>
<polyline clip-path="url(#clip212)" style="stroke:#222255; stroke-linecap:butt; stroke-linejoin:round; stroke-width:2; stroke-opacity:0.05; fill:none" points="
  1073.81,2133.38 1073.81,94.4882 
  "/>
<polyline clip-path="url(#clip212)" style="stroke:#222255; stroke-linecap:butt; stroke-linejoin:round; stroke-width:2; stroke-opacity:0.05; fill:none" points="
  1437.91,2133.38 1437.91,94.4882 
  "/>
<polyline clip-path="url(#clip212)" style="stroke:#222255; stroke-linecap:butt; stroke-linejoin:round; stroke-width:2; stroke-opacity:0.05; fill:none" points="
  1802.02,2133.38 1802.02,94.4882 
  "/>
<polyline clip-path="url(#clip212)" style="stroke:#222255; stroke-linecap:butt; stroke-linejoin:round; stroke-width:2; stroke-opacity:0.05; fill:none" points="
  2166.12,2133.38 2166.12,94.4882 
  "/>
<polyline clip-path="url(#clip212)" style="stroke:#222255; stroke-linecap:butt; stroke-linejoin:round; stroke-width:2; stroke-opacity:0.05; fill:none" points="
  2530.23,2133.38 2530.23,94.4882 
  "/>
<polyline clip-path="url(#clip212)" style="stroke:#222255; stroke-linecap:butt; stroke-linejoin:round; stroke-width:2; stroke-opacity:0.05; fill:none" points="
  2894.33,2133.38 2894.33,94.4882 
  "/>
<polyline clip-path="url(#clip212)" style="stroke:#222255; stroke-linecap:butt; stroke-linejoin:round; stroke-width:2; stroke-opacity:0.05; fill:none" points="
  564.06,2133.38 564.06,94.4882 
  "/>
<polyline clip-path="url(#clip212)" style="stroke:#222255; stroke-linecap:butt; stroke-linejoin:round; stroke-width:2; stroke-opacity:0.05; fill:none" points="
  636.88,2133.38 636.88,94.4882 
  "/>
<polyline clip-path="url(#clip212)" style="stroke:#222255; stroke-linecap:butt; stroke-linejoin:round; stroke-width:2; stroke-opacity:0.05; fill:none" points="
  782.522,2133.38 782.522,94.4882 
  "/>
<polyline clip-path="url(#clip212)" style="stroke:#222255; stroke-linecap:butt; stroke-linejoin:round; stroke-width:2; stroke-opacity:0.05; fill:none" points="
  855.343,2133.38 855.343,94.4882 
  "/>
<polyline clip-path="url(#clip212)" style="stroke:#222255; stroke-linecap:butt; stroke-linejoin:round; stroke-width:2; stroke-opacity:0.05; fill:none" points="
  928.164,2133.38 928.164,94.4882 
  "/>
<polyline clip-path="url(#clip212)" style="stroke:#222255; stroke-linecap:butt; stroke-linejoin:round; stroke-width:2; stroke-opacity:0.05; fill:none" points="
  1000.99,2133.38 1000.99,94.4882 
  "/>
<polyline clip-path="url(#clip212)" style="stroke:#222255; stroke-linecap:butt; stroke-linejoin:round; stroke-width:2; stroke-opacity:0.05; fill:none" points="
  1146.63,2133.38 1146.63,94.4882 
  "/>
<polyline clip-path="url(#clip212)" style="stroke:#222255; stroke-linecap:butt; stroke-linejoin:round; stroke-width:2; stroke-opacity:0.05; fill:none" points="
  1219.45,2133.38 1219.45,94.4882 
  "/>
<polyline clip-path="url(#clip212)" style="stroke:#222255; stroke-linecap:butt; stroke-linejoin:round; stroke-width:2; stroke-opacity:0.05; fill:none" points="
  1292.27,2133.38 1292.27,94.4882 
  "/>
<polyline clip-path="url(#clip212)" style="stroke:#222255; stroke-linecap:butt; stroke-linejoin:round; stroke-width:2; stroke-opacity:0.05; fill:none" points="
  1365.09,2133.38 1365.09,94.4882 
  "/>
<polyline clip-path="url(#clip212)" style="stroke:#222255; stroke-linecap:butt; stroke-linejoin:round; stroke-width:2; stroke-opacity:0.05; fill:none" points="
  1510.73,2133.38 1510.73,94.4882 
  "/>
<polyline clip-path="url(#clip212)" style="stroke:#222255; stroke-linecap:butt; stroke-linejoin:round; stroke-width:2; stroke-opacity:0.05; fill:none" points="
  1583.55,2133.38 1583.55,94.4882 
  "/>
<polyline clip-path="url(#clip212)" style="stroke:#222255; stroke-linecap:butt; stroke-linejoin:round; stroke-width:2; stroke-opacity:0.05; fill:none" points="
  1656.37,2133.38 1656.37,94.4882 
  "/>
<polyline clip-path="url(#clip212)" style="stroke:#222255; stroke-linecap:butt; stroke-linejoin:round; stroke-width:2; stroke-opacity:0.05; fill:none" points="
  1729.2,2133.38 1729.2,94.4882 
  "/>
<polyline clip-path="url(#clip212)" style="stroke:#222255; stroke-linecap:butt; stroke-linejoin:round; stroke-width:2; stroke-opacity:0.05; fill:none" points="
  1874.84,2133.38 1874.84,94.4882 
  "/>
<polyline clip-path="url(#clip212)" style="stroke:#222255; stroke-linecap:butt; stroke-linejoin:round; stroke-width:2; stroke-opacity:0.05; fill:none" points="
  1947.66,2133.38 1947.66,94.4882 
  "/>
<polyline clip-path="url(#clip212)" style="stroke:#222255; stroke-linecap:butt; stroke-linejoin:round; stroke-width:2; stroke-opacity:0.05; fill:none" points="
  2020.48,2133.38 2020.48,94.4882 
  "/>
<polyline clip-path="url(#clip212)" style="stroke:#222255; stroke-linecap:butt; stroke-linejoin:round; stroke-width:2; stroke-opacity:0.05; fill:none" points="
  2093.3,2133.38 2093.3,94.4882 
  "/>
<polyline clip-path="url(#clip212)" style="stroke:#222255; stroke-linecap:butt; stroke-linejoin:round; stroke-width:2; stroke-opacity:0.05; fill:none" points="
  2238.94,2133.38 2238.94,94.4882 
  "/>
<polyline clip-path="url(#clip212)" style="stroke:#222255; stroke-linecap:butt; stroke-linejoin:round; stroke-width:2; stroke-opacity:0.05; fill:none" points="
  2311.76,2133.38 2311.76,94.4882 
  "/>
<polyline clip-path="url(#clip212)" style="stroke:#222255; stroke-linecap:butt; stroke-linejoin:round; stroke-width:2; stroke-opacity:0.05; fill:none" points="
  2384.58,2133.38 2384.58,94.4882 
  "/>
<polyline clip-path="url(#clip212)" style="stroke:#222255; stroke-linecap:butt; stroke-linejoin:round; stroke-width:2; stroke-opacity:0.05; fill:none" points="
  2457.41,2133.38 2457.41,94.4882 
  "/>
<polyline clip-path="url(#clip212)" style="stroke:#222255; stroke-linecap:butt; stroke-linejoin:round; stroke-width:2; stroke-opacity:0.05; fill:none" points="
  2603.05,2133.38 2603.05,94.4882 
  "/>
<polyline clip-path="url(#clip212)" style="stroke:#222255; stroke-linecap:butt; stroke-linejoin:round; stroke-width:2; stroke-opacity:0.05; fill:none" points="
  2675.87,2133.38 2675.87,94.4882 
  "/>
<polyline clip-path="url(#clip212)" style="stroke:#222255; stroke-linecap:butt; stroke-linejoin:round; stroke-width:2; stroke-opacity:0.05; fill:none" points="
  2748.69,2133.38 2748.69,94.4882 
  "/>
<polyline clip-path="url(#clip212)" style="stroke:#222255; stroke-linecap:butt; stroke-linejoin:round; stroke-width:2; stroke-opacity:0.05; fill:none" points="
  2821.51,2133.38 2821.51,94.4882 
  "/>
<polyline clip-path="url(#clip212)" style="stroke:#222255; stroke-linecap:butt; stroke-linejoin:round; stroke-width:2; stroke-opacity:0.05; fill:none" points="
  2967.15,2133.38 2967.15,94.4882 
  "/>
<polyline clip-path="url(#clip212)" style="stroke:#222255; stroke-linecap:butt; stroke-linejoin:round; stroke-width:2; stroke-opacity:0.05; fill:none" points="
  3039.97,2133.38 3039.97,94.4882 
  "/>
<polyline clip-path="url(#clip210)" style="stroke:#000000; stroke-linecap:butt; stroke-linejoin:round; stroke-width:4; stroke-opacity:1; fill:none" points="
  498.521,2133.38 3105.51,2133.38 
  "/>
<polyline clip-path="url(#clip210)" style="stroke:#000000; stroke-linecap:butt; stroke-linejoin:round; stroke-width:4; stroke-opacity:1; fill:none" points="
  498.521,94.4882 3105.51,94.4882 
  "/>
<polyline clip-path="url(#clip210)" style="stroke:#000000; stroke-linecap:butt; stroke-linejoin:round; stroke-width:4; stroke-opacity:1; fill:none" points="
  709.701,2133.38 709.701,2114.48 
  "/>
<polyline clip-path="url(#clip210)" style="stroke:#000000; stroke-linecap:butt; stroke-linejoin:round; stroke-width:4; stroke-opacity:1; fill:none" points="
  1073.81,2133.38 1073.81,2114.48 
  "/>
<polyline clip-path="url(#clip210)" style="stroke:#000000; stroke-linecap:butt; stroke-linejoin:round; stroke-width:4; stroke-opacity:1; fill:none" points="
  1437.91,2133.38 1437.91,2114.48 
  "/>
<polyline clip-path="url(#clip210)" style="stroke:#000000; stroke-linecap:butt; stroke-linejoin:round; stroke-width:4; stroke-opacity:1; fill:none" points="
  1802.02,2133.38 1802.02,2114.48 
  "/>
<polyline clip-path="url(#clip210)" style="stroke:#000000; stroke-linecap:butt; stroke-linejoin:round; stroke-width:4; stroke-opacity:1; fill:none" points="
  2166.12,2133.38 2166.12,2114.48 
  "/>
<polyline clip-path="url(#clip210)" style="stroke:#000000; stroke-linecap:butt; stroke-linejoin:round; stroke-width:4; stroke-opacity:1; fill:none" points="
  2530.23,2133.38 2530.23,2114.48 
  "/>
<polyline clip-path="url(#clip210)" style="stroke:#000000; stroke-linecap:butt; stroke-linejoin:round; stroke-width:4; stroke-opacity:1; fill:none" points="
  2894.33,2133.38 2894.33,2114.48 
  "/>
<polyline clip-path="url(#clip210)" style="stroke:#000000; stroke-linecap:butt; stroke-linejoin:round; stroke-width:4; stroke-opacity:1; fill:none" points="
  564.06,2133.38 564.06,2123.93 
  "/>
<polyline clip-path="url(#clip210)" style="stroke:#000000; stroke-linecap:butt; stroke-linejoin:round; stroke-width:4; stroke-opacity:1; fill:none" points="
  636.88,2133.38 636.88,2123.93 
  "/>
<polyline clip-path="url(#clip210)" style="stroke:#000000; stroke-linecap:butt; stroke-linejoin:round; stroke-width:4; stroke-opacity:1; fill:none" points="
  782.522,2133.38 782.522,2123.93 
  "/>
<polyline clip-path="url(#clip210)" style="stroke:#000000; stroke-linecap:butt; stroke-linejoin:round; stroke-width:4; stroke-opacity:1; fill:none" points="
  855.343,2133.38 855.343,2123.93 
  "/>
<polyline clip-path="url(#clip210)" style="stroke:#000000; stroke-linecap:butt; stroke-linejoin:round; stroke-width:4; stroke-opacity:1; fill:none" points="
  928.164,2133.38 928.164,2123.93 
  "/>
<polyline clip-path="url(#clip210)" style="stroke:#000000; stroke-linecap:butt; stroke-linejoin:round; stroke-width:4; stroke-opacity:1; fill:none" points="
  1000.99,2133.38 1000.99,2123.93 
  "/>
<polyline clip-path="url(#clip210)" style="stroke:#000000; stroke-linecap:butt; stroke-linejoin:round; stroke-width:4; stroke-opacity:1; fill:none" points="
  1146.63,2133.38 1146.63,2123.93 
  "/>
<polyline clip-path="url(#clip210)" style="stroke:#000000; stroke-linecap:butt; stroke-linejoin:round; stroke-width:4; stroke-opacity:1; fill:none" points="
  1219.45,2133.38 1219.45,2123.93 
  "/>
<polyline clip-path="url(#clip210)" style="stroke:#000000; stroke-linecap:butt; stroke-linejoin:round; stroke-width:4; stroke-opacity:1; fill:none" points="
  1292.27,2133.38 1292.27,2123.93 
  "/>
<polyline clip-path="url(#clip210)" style="stroke:#000000; stroke-linecap:butt; stroke-linejoin:round; stroke-width:4; stroke-opacity:1; fill:none" points="
  1365.09,2133.38 1365.09,2123.93 
  "/>
<polyline clip-path="url(#clip210)" style="stroke:#000000; stroke-linecap:butt; stroke-linejoin:round; stroke-width:4; stroke-opacity:1; fill:none" points="
  1510.73,2133.38 1510.73,2123.93 
  "/>
<polyline clip-path="url(#clip210)" style="stroke:#000000; stroke-linecap:butt; stroke-linejoin:round; stroke-width:4; stroke-opacity:1; fill:none" points="
  1583.55,2133.38 1583.55,2123.93 
  "/>
<polyline clip-path="url(#clip210)" style="stroke:#000000; stroke-linecap:butt; stroke-linejoin:round; stroke-width:4; stroke-opacity:1; fill:none" points="
  1656.37,2133.38 1656.37,2123.93 
  "/>
<polyline clip-path="url(#clip210)" style="stroke:#000000; stroke-linecap:butt; stroke-linejoin:round; stroke-width:4; stroke-opacity:1; fill:none" points="
  1729.2,2133.38 1729.2,2123.93 
  "/>
<polyline clip-path="url(#clip210)" style="stroke:#000000; stroke-linecap:butt; stroke-linejoin:round; stroke-width:4; stroke-opacity:1; fill:none" points="
  1874.84,2133.38 1874.84,2123.93 
  "/>
<polyline clip-path="url(#clip210)" style="stroke:#000000; stroke-linecap:butt; stroke-linejoin:round; stroke-width:4; stroke-opacity:1; fill:none" points="
  1947.66,2133.38 1947.66,2123.93 
  "/>
<polyline clip-path="url(#clip210)" style="stroke:#000000; stroke-linecap:butt; stroke-linejoin:round; stroke-width:4; stroke-opacity:1; fill:none" points="
  2020.48,2133.38 2020.48,2123.93 
  "/>
<polyline clip-path="url(#clip210)" style="stroke:#000000; stroke-linecap:butt; stroke-linejoin:round; stroke-width:4; stroke-opacity:1; fill:none" points="
  2093.3,2133.38 2093.3,2123.93 
  "/>
<polyline clip-path="url(#clip210)" style="stroke:#000000; stroke-linecap:butt; stroke-linejoin:round; stroke-width:4; stroke-opacity:1; fill:none" points="
  2238.94,2133.38 2238.94,2123.93 
  "/>
<polyline clip-path="url(#clip210)" style="stroke:#000000; stroke-linecap:butt; stroke-linejoin:round; stroke-width:4; stroke-opacity:1; fill:none" points="
  2311.76,2133.38 2311.76,2123.93 
  "/>
<polyline clip-path="url(#clip210)" style="stroke:#000000; stroke-linecap:butt; stroke-linejoin:round; stroke-width:4; stroke-opacity:1; fill:none" points="
  2384.58,2133.38 2384.58,2123.93 
  "/>
<polyline clip-path="url(#clip210)" style="stroke:#000000; stroke-linecap:butt; stroke-linejoin:round; stroke-width:4; stroke-opacity:1; fill:none" points="
  2457.41,2133.38 2457.41,2123.93 
  "/>
<polyline clip-path="url(#clip210)" style="stroke:#000000; stroke-linecap:butt; stroke-linejoin:round; stroke-width:4; stroke-opacity:1; fill:none" points="
  2603.05,2133.38 2603.05,2123.93 
  "/>
<polyline clip-path="url(#clip210)" style="stroke:#000000; stroke-linecap:butt; stroke-linejoin:round; stroke-width:4; stroke-opacity:1; fill:none" points="
  2675.87,2133.38 2675.87,2123.93 
  "/>
<polyline clip-path="url(#clip210)" style="stroke:#000000; stroke-linecap:butt; stroke-linejoin:round; stroke-width:4; stroke-opacity:1; fill:none" points="
  2748.69,2133.38 2748.69,2123.93 
  "/>
<polyline clip-path="url(#clip210)" style="stroke:#000000; stroke-linecap:butt; stroke-linejoin:round; stroke-width:4; stroke-opacity:1; fill:none" points="
  2821.51,2133.38 2821.51,2123.93 
  "/>
<polyline clip-path="url(#clip210)" style="stroke:#000000; stroke-linecap:butt; stroke-linejoin:round; stroke-width:4; stroke-opacity:1; fill:none" points="
  2967.15,2133.38 2967.15,2123.93 
  "/>
<polyline clip-path="url(#clip210)" style="stroke:#000000; stroke-linecap:butt; stroke-linejoin:round; stroke-width:4; stroke-opacity:1; fill:none" points="
  3039.97,2133.38 3039.97,2123.93 
  "/>
<path clip-path="url(#clip210)" d="M618.174 2198.53 L662.688 2198.53 L662.688 2204.44 L618.174 2204.44 L618.174 2198.53 Z" fill="#000000" fill-rule="evenodd" fill-opacity="1" /><path clip-path="url(#clip210)" d="M679.042 2217.87 L690.5 2217.87 L690.5 2178.32 L678.035 2180.82 L678.035 2174.44 L690.431 2171.94 L697.445 2171.94 L697.445 2217.87 L708.903 2217.87 L708.903 2223.78 L679.042 2223.78 L679.042 2217.87 Z" fill="#000000" fill-rule="evenodd" fill-opacity="1" /><path clip-path="url(#clip210)" d="M723.139 2171.94 L750.673 2171.94 L750.673 2177.84 L729.562 2177.84 L729.562 2190.55 Q731.09 2190.03 732.618 2189.78 Q734.146 2189.51 735.674 2189.51 Q744.354 2189.51 749.423 2194.26 Q754.493 2199.02 754.493 2207.14 Q754.493 2215.51 749.285 2220.16 Q744.076 2224.78 734.597 2224.78 Q731.333 2224.78 727.931 2224.23 Q724.563 2223.67 720.951 2222.56 L720.951 2215.51 Q724.076 2217.21 727.41 2218.05 Q730.743 2218.88 734.458 2218.88 Q740.465 2218.88 743.972 2215.72 Q747.479 2212.56 747.479 2207.14 Q747.479 2201.73 743.972 2198.57 Q740.465 2195.41 734.458 2195.41 Q731.646 2195.41 728.833 2196.03 Q726.056 2196.66 723.139 2197.98 L723.139 2171.94 Z" fill="#000000" fill-rule="evenodd" fill-opacity="1" /><path clip-path="url(#clip210)" d="M783.312 2176.55 Q777.896 2176.55 775.153 2181.9 Q772.444 2187.21 772.444 2197.91 Q772.444 2208.57 775.153 2213.91 Q777.896 2219.23 783.312 2219.23 Q788.764 2219.23 791.472 2213.91 Q794.215 2208.57 794.215 2197.91 Q794.215 2187.21 791.472 2181.9 Q788.764 2176.55 783.312 2176.55 M783.312 2171 Q792.027 2171 796.611 2177.91 Q801.229 2184.78 801.229 2197.91 Q801.229 2211 796.611 2217.91 Q792.027 2224.78 783.312 2224.78 Q774.597 2224.78 769.979 2217.91 Q765.396 2211 765.396 2197.91 Q765.396 2184.78 769.979 2177.91 Q774.597 2171 783.312 2171 Z" fill="#000000" fill-rule="evenodd" fill-opacity="1" /><path clip-path="url(#clip210)" d="M982.279 2198.53 L1026.79 2198.53 L1026.79 2204.44 L982.279 2204.44 L982.279 2198.53 Z" fill="#000000" fill-rule="evenodd" fill-opacity="1" /><path clip-path="url(#clip210)" d="M1043.15 2217.87 L1054.61 2217.87 L1054.61 2178.32 L1042.14 2180.82 L1042.14 2174.44 L1054.54 2171.94 L1061.55 2171.94 L1061.55 2217.87 L1073.01 2217.87 L1073.01 2223.78 L1043.15 2223.78 L1043.15 2217.87 Z" fill="#000000" fill-rule="evenodd" fill-opacity="1" /><path clip-path="url(#clip210)" d="M1102.17 2176.55 Q1096.76 2176.55 1094.01 2181.9 Q1091.31 2187.21 1091.31 2197.91 Q1091.31 2208.57 1094.01 2213.91 Q1096.76 2219.23 1102.17 2219.23 Q1107.63 2219.23 1110.33 2213.91 Q1113.08 2208.57 1113.08 2197.91 Q1113.08 2187.21 1110.33 2181.9 Q1107.63 2176.55 1102.17 2176.55 M1102.17 2171 Q1110.89 2171 1115.47 2177.91 Q1120.09 2184.78 1120.09 2197.91 Q1120.09 2211 1115.47 2217.91 Q1110.89 2224.78 1102.17 2224.78 Q1093.46 2224.78 1088.84 2217.91 Q1084.26 2211 1084.26 2197.91 Q1084.26 2184.78 1088.84 2177.91 Q1093.46 2171 1102.17 2171 Z" fill="#000000" fill-rule="evenodd" fill-opacity="1" /><path clip-path="url(#clip210)" d="M1147.42 2176.55 Q1142 2176.55 1139.26 2181.9 Q1136.55 2187.21 1136.55 2197.91 Q1136.55 2208.57 1139.26 2213.91 Q1142 2219.23 1147.42 2219.23 Q1152.87 2219.23 1155.58 2213.91 Q1158.32 2208.57 1158.32 2197.91 Q1158.32 2187.21 1155.58 2181.9 Q1152.87 2176.55 1147.42 2176.55 M1147.42 2171 Q1156.13 2171 1160.72 2177.91 Q1165.33 2184.78 1165.33 2197.91 Q1165.33 2211 1160.72 2217.91 Q1156.13 2224.78 1147.42 2224.78 Q1138.7 2224.78 1134.08 2217.91 Q1129.5 2211 1129.5 2197.91 Q1129.5 2184.78 1134.08 2177.91 Q1138.7 2171 1147.42 2171 Z" fill="#000000" fill-rule="evenodd" fill-opacity="1" /><path clip-path="url(#clip210)" d="M1369.01 2198.53 L1413.52 2198.53 L1413.52 2204.44 L1369.01 2204.44 L1369.01 2198.53 Z" fill="#000000" fill-rule="evenodd" fill-opacity="1" /><path clip-path="url(#clip210)" d="M1428.73 2171.94 L1456.26 2171.94 L1456.26 2177.84 L1435.15 2177.84 L1435.15 2190.55 Q1436.68 2190.03 1438.21 2189.78 Q1439.73 2189.51 1441.26 2189.51 Q1449.94 2189.51 1455.01 2194.26 Q1460.08 2199.02 1460.08 2207.14 Q1460.08 2215.51 1454.87 2220.16 Q1449.66 2224.78 1440.19 2224.78 Q1436.92 2224.78 1433.52 2224.23 Q1430.15 2223.67 1426.54 2222.56 L1426.54 2215.51 Q1429.66 2217.21 1433 2218.05 Q1436.33 2218.88 1440.05 2218.88 Q1446.05 2218.88 1449.56 2215.72 Q1453.07 2212.56 1453.07 2207.14 Q1453.07 2201.73 1449.56 2198.57 Q1446.05 2195.41 1440.05 2195.41 Q1437.23 2195.41 1434.42 2196.03 Q1431.64 2196.66 1428.73 2197.98 L1428.73 2171.94 Z" fill="#000000" fill-rule="evenodd" fill-opacity="1" /><path clip-path="url(#clip210)" d="M1488.9 2176.55 Q1483.48 2176.55 1480.74 2181.9 Q1478.03 2187.21 1478.03 2197.91 Q1478.03 2208.57 1480.74 2213.91 Q1483.48 2219.23 1488.9 2219.23 Q1494.35 2219.23 1497.06 2213.91 Q1499.8 2208.57 1499.8 2197.91 Q1499.8 2187.21 1497.06 2181.9 Q1494.35 2176.55 1488.9 2176.55 M1488.9 2171 Q1497.62 2171 1502.2 2177.91 Q1506.82 2184.78 1506.82 2197.91 Q1506.82 2211 1502.2 2217.91 Q1497.62 2224.78 1488.9 2224.78 Q1480.19 2224.78 1475.57 2217.91 Q1470.98 2211 1470.98 2197.91 Q1470.98 2184.78 1475.57 2177.91 Q1480.19 2171 1488.9 2171 Z" fill="#000000" fill-rule="evenodd" fill-opacity="1" /><path clip-path="url(#clip210)" d="M1802.02 2176.55 Q1796.6 2176.55 1793.86 2181.9 Q1791.15 2187.21 1791.15 2197.91 Q1791.15 2208.57 1793.86 2213.91 Q1796.6 2219.23 1802.02 2219.23 Q1807.47 2219.23 1810.18 2213.91 Q1812.92 2208.57 1812.92 2197.91 Q1812.92 2187.21 1810.18 2181.9 Q1807.47 2176.55 1802.02 2176.55 M1802.02 2171 Q1810.73 2171 1815.31 2177.91 Q1819.93 2184.78 1819.93 2197.91 Q1819.93 2211 1815.31 2217.91 Q1810.73 2224.78 1802.02 2224.78 Q1793.3 2224.78 1788.68 2217.91 Q1784.1 2211 1784.1 2197.91 Q1784.1 2184.78 1788.68 2177.91 Q1793.3 2171 1802.02 2171 Z" fill="#000000" fill-rule="evenodd" fill-opacity="1" /><path clip-path="url(#clip210)" d="M2128.17 2171.94 L2155.7 2171.94 L2155.7 2177.84 L2134.59 2177.84 L2134.59 2190.55 Q2136.12 2190.03 2137.65 2189.78 Q2139.18 2189.51 2140.7 2189.51 Q2149.39 2189.51 2154.45 2194.26 Q2159.52 2199.02 2159.52 2207.14 Q2159.52 2215.51 2154.32 2220.16 Q2149.11 2224.78 2139.63 2224.78 Q2136.36 2224.78 2132.96 2224.23 Q2129.59 2223.67 2125.98 2222.56 L2125.98 2215.51 Q2129.11 2217.21 2132.44 2218.05 Q2135.77 2218.88 2139.49 2218.88 Q2145.5 2218.88 2149 2215.72 Q2152.51 2212.56 2152.51 2207.14 Q2152.51 2201.73 2149 2198.57 Q2145.5 2195.41 2139.49 2195.41 Q2136.68 2195.41 2133.86 2196.03 Q2131.09 2196.66 2128.17 2197.98 L2128.17 2171.94 Z" fill="#000000" fill-rule="evenodd" fill-opacity="1" /><path clip-path="url(#clip210)" d="M2188.34 2176.55 Q2182.93 2176.55 2180.18 2181.9 Q2177.48 2187.21 2177.48 2197.91 Q2177.48 2208.57 2180.18 2213.91 Q2182.93 2219.23 2188.34 2219.23 Q2193.79 2219.23 2196.5 2213.91 Q2199.25 2208.57 2199.25 2197.91 Q2199.25 2187.21 2196.5 2181.9 Q2193.79 2176.55 2188.34 2176.55 M2188.34 2171 Q2197.06 2171 2201.64 2177.91 Q2206.26 2184.78 2206.26 2197.91 Q2206.26 2211 2201.64 2217.91 Q2197.06 2224.78 2188.34 2224.78 Q2179.63 2224.78 2175.01 2217.91 Q2170.43 2211 2170.43 2197.91 Q2170.43 2184.78 2175.01 2177.91 Q2179.63 2171 2188.34 2171 Z" fill="#000000" fill-rule="evenodd" fill-opacity="1" /><path clip-path="url(#clip210)" d="M2469.64 2217.87 L2481.09 2217.87 L2481.09 2178.32 L2468.63 2180.82 L2468.63 2174.44 L2481.02 2171.94 L2488.04 2171.94 L2488.04 2217.87 L2499.5 2217.87 L2499.5 2223.78 L2469.64 2223.78 L2469.64 2217.87 Z" fill="#000000" fill-rule="evenodd" fill-opacity="1" /><path clip-path="url(#clip210)" d="M2528.66 2176.55 Q2523.25 2176.55 2520.5 2181.9 Q2517.8 2187.21 2517.8 2197.91 Q2517.8 2208.57 2520.5 2213.91 Q2523.25 2219.23 2528.66 2219.23 Q2534.11 2219.23 2536.82 2213.91 Q2539.57 2208.57 2539.57 2197.91 Q2539.57 2187.21 2536.82 2181.9 Q2534.11 2176.55 2528.66 2176.55 M2528.66 2171 Q2537.38 2171 2541.96 2177.91 Q2546.58 2184.78 2546.58 2197.91 Q2546.58 2211 2541.96 2217.91 Q2537.38 2224.78 2528.66 2224.78 Q2519.95 2224.78 2515.33 2217.91 Q2510.75 2211 2510.75 2197.91 Q2510.75 2184.78 2515.33 2177.91 Q2519.95 2171 2528.66 2171 Z" fill="#000000" fill-rule="evenodd" fill-opacity="1" /><path clip-path="url(#clip210)" d="M2573.91 2176.55 Q2568.49 2176.55 2565.75 2181.9 Q2563.04 2187.21 2563.04 2197.91 Q2563.04 2208.57 2565.75 2213.91 Q2568.49 2219.23 2573.91 2219.23 Q2579.36 2219.23 2582.07 2213.91 Q2584.81 2208.57 2584.81 2197.91 Q2584.81 2187.21 2582.07 2181.9 Q2579.36 2176.55 2573.91 2176.55 M2573.91 2171 Q2582.62 2171 2587.2 2177.91 Q2591.82 2184.78 2591.82 2197.91 Q2591.82 2211 2587.2 2217.91 Q2582.62 2224.78 2573.91 2224.78 Q2565.19 2224.78 2560.57 2217.91 Q2555.99 2211 2555.99 2197.91 Q2555.99 2184.78 2560.57 2177.91 Q2565.19 2171 2573.91 2171 Z" fill="#000000" fill-rule="evenodd" fill-opacity="1" /><path clip-path="url(#clip210)" d="M2833.74 2217.87 L2845.2 2217.87 L2845.2 2178.32 L2832.73 2180.82 L2832.73 2174.44 L2845.13 2171.94 L2852.14 2171.94 L2852.14 2217.87 L2863.6 2217.87 L2863.6 2223.78 L2833.74 2223.78 L2833.74 2217.87 Z" fill="#000000" fill-rule="evenodd" fill-opacity="1" /><path clip-path="url(#clip210)" d="M2877.84 2171.94 L2905.37 2171.94 L2905.37 2177.84 L2884.26 2177.84 L2884.26 2190.55 Q2885.79 2190.03 2887.32 2189.78 Q2888.84 2189.51 2890.37 2189.51 Q2899.05 2189.51 2904.12 2194.26 Q2909.19 2199.02 2909.19 2207.14 Q2909.19 2215.51 2903.98 2220.16 Q2898.78 2224.78 2889.3 2224.78 Q2886.03 2224.78 2882.63 2224.23 Q2879.26 2223.67 2875.65 2222.56 L2875.65 2215.51 Q2878.78 2217.21 2882.11 2218.05 Q2885.44 2218.88 2889.16 2218.88 Q2895.16 2218.88 2898.67 2215.72 Q2902.18 2212.56 2902.18 2207.14 Q2902.18 2201.73 2898.67 2198.57 Q2895.16 2195.41 2889.16 2195.41 Q2886.34 2195.41 2883.53 2196.03 Q2880.75 2196.66 2877.84 2197.98 L2877.84 2171.94 Z" fill="#000000" fill-rule="evenodd" fill-opacity="1" /><path clip-path="url(#clip210)" d="M2938.01 2176.55 Q2932.59 2176.55 2929.85 2181.9 Q2927.14 2187.21 2927.14 2197.91 Q2927.14 2208.57 2929.85 2213.91 Q2932.59 2219.23 2938.01 2219.23 Q2943.46 2219.23 2946.17 2213.91 Q2948.91 2208.57 2948.91 2197.91 Q2948.91 2187.21 2946.17 2181.9 Q2943.46 2176.55 2938.01 2176.55 M2938.01 2171 Q2946.73 2171 2951.31 2177.91 Q2955.93 2184.78 2955.93 2197.91 Q2955.93 2211 2951.31 2217.91 Q2946.73 2224.78 2938.01 2224.78 Q2929.3 2224.78 2924.68 2217.91 Q2920.09 2211 2920.09 2197.91 Q2920.09 2184.78 2924.68 2177.91 Q2929.3 2171 2938.01 2171 Z" fill="#000000" fill-rule="evenodd" fill-opacity="1" /><path clip-path="url(#clip210)" d="M1667.66 2267.32 L1674.08 2267.32 L1674.08 2299.23 L1693.15 2282.46 L1701.3 2282.46 L1680.68 2300.65 L1702.17 2321.34 L1693.84 2321.34 L1674.08 2302.35 L1674.08 2321.34 L1667.66 2321.34 L1667.66 2267.32 Z" fill="#000000" fill-rule="evenodd" fill-opacity="1" /><path clip-path="url(#clip210)" d="M1705.85 2299.02 L1724.57 2299.02 L1724.57 2304.71 L1705.85 2304.71 L1705.85 2299.02 Z" fill="#000000" fill-rule="evenodd" fill-opacity="1" /><path clip-path="url(#clip210)" d="M1754.43 2267.32 L1754.43 2272.63 L1748.32 2272.63 Q1744.88 2272.63 1743.53 2274.02 Q1742.21 2275.41 1742.21 2279.02 L1742.21 2282.46 L1752.73 2282.46 L1752.73 2287.42 L1742.21 2287.42 L1742.21 2321.34 L1735.78 2321.34 L1735.78 2287.42 L1729.67 2287.42 L1729.67 2282.46 L1735.78 2282.46 L1735.78 2279.75 Q1735.78 2273.25 1738.8 2270.3 Q1741.83 2267.32 1748.39 2267.32 L1754.43 2267.32 Z" fill="#000000" fill-rule="evenodd" fill-opacity="1" /><path clip-path="url(#clip210)" d="M1777.45 2301.8 Q1769.71 2301.8 1766.72 2303.57 Q1763.74 2305.34 1763.74 2309.61 Q1763.74 2313.01 1765.96 2315.02 Q1768.21 2317 1772.07 2317 Q1777.38 2317 1780.58 2313.25 Q1783.8 2309.47 1783.8 2303.22 L1783.8 2301.8 L1777.45 2301.8 M1790.19 2299.16 L1790.19 2321.34 L1783.8 2321.34 L1783.8 2315.44 Q1781.62 2318.98 1778.35 2320.68 Q1775.09 2322.35 1770.37 2322.35 Q1764.39 2322.35 1760.85 2319.02 Q1757.35 2315.65 1757.35 2310.02 Q1757.35 2303.46 1761.72 2300.13 Q1766.13 2296.8 1774.85 2296.8 L1783.8 2296.8 L1783.8 2296.17 Q1783.8 2291.76 1780.89 2289.36 Q1778.01 2286.93 1772.76 2286.93 Q1769.43 2286.93 1766.27 2287.73 Q1763.11 2288.53 1760.19 2290.13 L1760.19 2284.23 Q1763.7 2282.87 1767 2282.21 Q1770.3 2281.52 1773.42 2281.52 Q1781.86 2281.52 1786.03 2285.89 Q1790.19 2290.27 1790.19 2299.16 Z" fill="#000000" fill-rule="evenodd" fill-opacity="1" /><path clip-path="url(#clip210)" d="M1831.34 2283.95 L1831.34 2289.92 Q1828.63 2288.43 1825.89 2287.7 Q1823.18 2286.93 1820.4 2286.93 Q1814.19 2286.93 1810.75 2290.89 Q1807.31 2294.82 1807.31 2301.93 Q1807.31 2309.05 1810.75 2313.01 Q1814.19 2316.93 1820.4 2316.93 Q1823.18 2316.93 1825.89 2316.2 Q1828.63 2315.44 1831.34 2313.95 L1831.34 2319.85 Q1828.67 2321.1 1825.78 2321.73 Q1822.94 2322.35 1819.71 2322.35 Q1810.92 2322.35 1805.75 2316.83 Q1800.58 2311.31 1800.58 2301.93 Q1800.58 2292.42 1805.78 2286.97 Q1811.03 2281.52 1820.12 2281.52 Q1823.08 2281.52 1825.89 2282.14 Q1828.7 2282.73 1831.34 2283.95 Z" fill="#000000" fill-rule="evenodd" fill-opacity="1" /><path clip-path="url(#clip210)" d="M1848.77 2271.41 L1848.77 2282.46 L1861.93 2282.46 L1861.93 2287.42 L1848.77 2287.42 L1848.77 2308.53 Q1848.77 2313.29 1850.05 2314.64 Q1851.37 2316 1855.37 2316 L1861.93 2316 L1861.93 2321.34 L1855.37 2321.34 Q1847.97 2321.34 1845.16 2318.6 Q1842.35 2315.82 1842.35 2308.53 L1842.35 2287.42 L1837.66 2287.42 L1837.66 2282.46 L1842.35 2282.46 L1842.35 2271.41 L1848.77 2271.41 Z" fill="#000000" fill-rule="evenodd" fill-opacity="1" /><path clip-path="url(#clip210)" d="M1885.4 2286.93 Q1880.26 2286.93 1877.28 2290.96 Q1874.29 2294.96 1874.29 2301.93 Q1874.29 2308.91 1877.24 2312.94 Q1880.23 2316.93 1885.4 2316.93 Q1890.51 2316.93 1893.49 2312.91 Q1896.48 2308.88 1896.48 2301.93 Q1896.48 2295.02 1893.49 2291 Q1890.51 2286.93 1885.4 2286.93 M1885.4 2281.52 Q1893.73 2281.52 1898.49 2286.93 Q1903.25 2292.35 1903.25 2301.93 Q1903.25 2311.48 1898.49 2316.93 Q1893.73 2322.35 1885.4 2322.35 Q1877.03 2322.35 1872.28 2316.93 Q1867.55 2311.48 1867.55 2301.93 Q1867.55 2292.35 1872.28 2286.93 Q1877.03 2281.52 1885.4 2281.52 Z" fill="#000000" fill-rule="evenodd" fill-opacity="1" /><path clip-path="url(#clip210)" d="M1936.37 2288.43 Q1935.3 2287.8 1934.01 2287.52 Q1932.76 2287.21 1931.23 2287.21 Q1925.82 2287.21 1922.9 2290.75 Q1920.02 2294.26 1920.02 2300.86 L1920.02 2321.34 L1913.6 2321.34 L1913.6 2282.46 L1920.02 2282.46 L1920.02 2288.5 Q1922.03 2284.96 1925.26 2283.25 Q1928.49 2281.52 1933.11 2281.52 Q1933.77 2281.52 1934.57 2281.62 Q1935.37 2281.69 1936.34 2281.86 L1936.37 2288.43 Z" fill="#000000" fill-rule="evenodd" fill-opacity="1" /><polyline clip-path="url(#clip212)" style="stroke:#222255; stroke-linecap:butt; stroke-linejoin:round; stroke-width:2; stroke-opacity:0.05; fill:none" points="
  498.521,2075.74 3105.51,2075.74 
  "/>
<polyline clip-path="url(#clip212)" style="stroke:#222255; stroke-linecap:butt; stroke-linejoin:round; stroke-width:2; stroke-opacity:0.05; fill:none" points="
  498.521,1631.66 3105.51,1631.66 
  "/>
<polyline clip-path="url(#clip212)" style="stroke:#222255; stroke-linecap:butt; stroke-linejoin:round; stroke-width:2; stroke-opacity:0.05; fill:none" points="
  498.521,1187.58 3105.51,1187.58 
  "/>
<polyline clip-path="url(#clip212)" style="stroke:#222255; stroke-linecap:butt; stroke-linejoin:round; stroke-width:2; stroke-opacity:0.05; fill:none" points="
  498.521,743.498 3105.51,743.498 
  "/>
<polyline clip-path="url(#clip212)" style="stroke:#222255; stroke-linecap:butt; stroke-linejoin:round; stroke-width:2; stroke-opacity:0.05; fill:none" points="
  498.521,299.418 3105.51,299.418 
  "/>
<polyline clip-path="url(#clip212)" style="stroke:#222255; stroke-linecap:butt; stroke-linejoin:round; stroke-width:2; stroke-opacity:0.05; fill:none" points="
  498.521,1986.92 3105.51,1986.92 
  "/>
<polyline clip-path="url(#clip212)" style="stroke:#222255; stroke-linecap:butt; stroke-linejoin:round; stroke-width:2; stroke-opacity:0.05; fill:none" points="
  498.521,1898.11 3105.51,1898.11 
  "/>
<polyline clip-path="url(#clip212)" style="stroke:#222255; stroke-linecap:butt; stroke-linejoin:round; stroke-width:2; stroke-opacity:0.05; fill:none" points="
  498.521,1809.29 3105.51,1809.29 
  "/>
<polyline clip-path="url(#clip212)" style="stroke:#222255; stroke-linecap:butt; stroke-linejoin:round; stroke-width:2; stroke-opacity:0.05; fill:none" points="
  498.521,1720.47 3105.51,1720.47 
  "/>
<polyline clip-path="url(#clip212)" style="stroke:#222255; stroke-linecap:butt; stroke-linejoin:round; stroke-width:2; stroke-opacity:0.05; fill:none" points="
  498.521,1542.84 3105.51,1542.84 
  "/>
<polyline clip-path="url(#clip212)" style="stroke:#222255; stroke-linecap:butt; stroke-linejoin:round; stroke-width:2; stroke-opacity:0.05; fill:none" points="
  498.521,1454.03 3105.51,1454.03 
  "/>
<polyline clip-path="url(#clip212)" style="stroke:#222255; stroke-linecap:butt; stroke-linejoin:round; stroke-width:2; stroke-opacity:0.05; fill:none" points="
  498.521,1365.21 3105.51,1365.21 
  "/>
<polyline clip-path="url(#clip212)" style="stroke:#222255; stroke-linecap:butt; stroke-linejoin:round; stroke-width:2; stroke-opacity:0.05; fill:none" points="
  498.521,1276.39 3105.51,1276.39 
  "/>
<polyline clip-path="url(#clip212)" style="stroke:#222255; stroke-linecap:butt; stroke-linejoin:round; stroke-width:2; stroke-opacity:0.05; fill:none" points="
  498.521,1098.76 3105.51,1098.76 
  "/>
<polyline clip-path="url(#clip212)" style="stroke:#222255; stroke-linecap:butt; stroke-linejoin:round; stroke-width:2; stroke-opacity:0.05; fill:none" points="
  498.521,1009.95 3105.51,1009.95 
  "/>
<polyline clip-path="url(#clip212)" style="stroke:#222255; stroke-linecap:butt; stroke-linejoin:round; stroke-width:2; stroke-opacity:0.05; fill:none" points="
  498.521,921.13 3105.51,921.13 
  "/>
<polyline clip-path="url(#clip212)" style="stroke:#222255; stroke-linecap:butt; stroke-linejoin:round; stroke-width:2; stroke-opacity:0.05; fill:none" points="
  498.521,832.314 3105.51,832.314 
  "/>
<polyline clip-path="url(#clip212)" style="stroke:#222255; stroke-linecap:butt; stroke-linejoin:round; stroke-width:2; stroke-opacity:0.05; fill:none" points="
  498.521,654.682 3105.51,654.682 
  "/>
<polyline clip-path="url(#clip212)" style="stroke:#222255; stroke-linecap:butt; stroke-linejoin:round; stroke-width:2; stroke-opacity:0.05; fill:none" points="
  498.521,565.866 3105.51,565.866 
  "/>
<polyline clip-path="url(#clip212)" style="stroke:#222255; stroke-linecap:butt; stroke-linejoin:round; stroke-width:2; stroke-opacity:0.05; fill:none" points="
  498.521,477.05 3105.51,477.05 
  "/>
<polyline clip-path="url(#clip212)" style="stroke:#222255; stroke-linecap:butt; stroke-linejoin:round; stroke-width:2; stroke-opacity:0.05; fill:none" points="
  498.521,388.234 3105.51,388.234 
  "/>
<polyline clip-path="url(#clip212)" style="stroke:#222255; stroke-linecap:butt; stroke-linejoin:round; stroke-width:2; stroke-opacity:0.05; fill:none" points="
  498.521,210.602 3105.51,210.602 
  "/>
<polyline clip-path="url(#clip212)" style="stroke:#222255; stroke-linecap:butt; stroke-linejoin:round; stroke-width:2; stroke-opacity:0.05; fill:none" points="
  498.521,121.786 3105.51,121.786 
  "/>
<polyline clip-path="url(#clip210)" style="stroke:#000000; stroke-linecap:butt; stroke-linejoin:round; stroke-width:4; stroke-opacity:1; fill:none" points="
  498.521,2133.38 498.521,94.4882 
  "/>
<polyline clip-path="url(#clip210)" style="stroke:#000000; stroke-linecap:butt; stroke-linejoin:round; stroke-width:4; stroke-opacity:1; fill:none" points="
  3105.51,2133.38 3105.51,94.4882 
  "/>
<polyline clip-path="url(#clip210)" style="stroke:#000000; stroke-linecap:butt; stroke-linejoin:round; stroke-width:4; stroke-opacity:1; fill:none" points="
  498.521,2075.74 517.418,2075.74 
  "/>
<polyline clip-path="url(#clip210)" style="stroke:#000000; stroke-linecap:butt; stroke-linejoin:round; stroke-width:4; stroke-opacity:1; fill:none" points="
  498.521,1631.66 517.418,1631.66 
  "/>
<polyline clip-path="url(#clip210)" style="stroke:#000000; stroke-linecap:butt; stroke-linejoin:round; stroke-width:4; stroke-opacity:1; fill:none" points="
  498.521,1187.58 517.418,1187.58 
  "/>
<polyline clip-path="url(#clip210)" style="stroke:#000000; stroke-linecap:butt; stroke-linejoin:round; stroke-width:4; stroke-opacity:1; fill:none" points="
  498.521,743.498 517.418,743.498 
  "/>
<polyline clip-path="url(#clip210)" style="stroke:#000000; stroke-linecap:butt; stroke-linejoin:round; stroke-width:4; stroke-opacity:1; fill:none" points="
  498.521,299.418 517.418,299.418 
  "/>
<polyline clip-path="url(#clip210)" style="stroke:#000000; stroke-linecap:butt; stroke-linejoin:round; stroke-width:4; stroke-opacity:1; fill:none" points="
  498.521,1986.92 507.969,1986.92 
  "/>
<polyline clip-path="url(#clip210)" style="stroke:#000000; stroke-linecap:butt; stroke-linejoin:round; stroke-width:4; stroke-opacity:1; fill:none" points="
  498.521,1898.11 507.969,1898.11 
  "/>
<polyline clip-path="url(#clip210)" style="stroke:#000000; stroke-linecap:butt; stroke-linejoin:round; stroke-width:4; stroke-opacity:1; fill:none" points="
  498.521,1809.29 507.969,1809.29 
  "/>
<polyline clip-path="url(#clip210)" style="stroke:#000000; stroke-linecap:butt; stroke-linejoin:round; stroke-width:4; stroke-opacity:1; fill:none" points="
  498.521,1720.47 507.969,1720.47 
  "/>
<polyline clip-path="url(#clip210)" style="stroke:#000000; stroke-linecap:butt; stroke-linejoin:round; stroke-width:4; stroke-opacity:1; fill:none" points="
  498.521,1542.84 507.969,1542.84 
  "/>
<polyline clip-path="url(#clip210)" style="stroke:#000000; stroke-linecap:butt; stroke-linejoin:round; stroke-width:4; stroke-opacity:1; fill:none" points="
  498.521,1454.03 507.969,1454.03 
  "/>
<polyline clip-path="url(#clip210)" style="stroke:#000000; stroke-linecap:butt; stroke-linejoin:round; stroke-width:4; stroke-opacity:1; fill:none" points="
  498.521,1365.21 507.969,1365.21 
  "/>
<polyline clip-path="url(#clip210)" style="stroke:#000000; stroke-linecap:butt; stroke-linejoin:round; stroke-width:4; stroke-opacity:1; fill:none" points="
  498.521,1276.39 507.969,1276.39 
  "/>
<polyline clip-path="url(#clip210)" style="stroke:#000000; stroke-linecap:butt; stroke-linejoin:round; stroke-width:4; stroke-opacity:1; fill:none" points="
  498.521,1098.76 507.969,1098.76 
  "/>
<polyline clip-path="url(#clip210)" style="stroke:#000000; stroke-linecap:butt; stroke-linejoin:round; stroke-width:4; stroke-opacity:1; fill:none" points="
  498.521,1009.95 507.969,1009.95 
  "/>
<polyline clip-path="url(#clip210)" style="stroke:#000000; stroke-linecap:butt; stroke-linejoin:round; stroke-width:4; stroke-opacity:1; fill:none" points="
  498.521,921.13 507.969,921.13 
  "/>
<polyline clip-path="url(#clip210)" style="stroke:#000000; stroke-linecap:butt; stroke-linejoin:round; stroke-width:4; stroke-opacity:1; fill:none" points="
  498.521,832.314 507.969,832.314 
  "/>
<polyline clip-path="url(#clip210)" style="stroke:#000000; stroke-linecap:butt; stroke-linejoin:round; stroke-width:4; stroke-opacity:1; fill:none" points="
  498.521,654.682 507.969,654.682 
  "/>
<polyline clip-path="url(#clip210)" style="stroke:#000000; stroke-linecap:butt; stroke-linejoin:round; stroke-width:4; stroke-opacity:1; fill:none" points="
  498.521,565.866 507.969,565.866 
  "/>
<polyline clip-path="url(#clip210)" style="stroke:#000000; stroke-linecap:butt; stroke-linejoin:round; stroke-width:4; stroke-opacity:1; fill:none" points="
  498.521,477.05 507.969,477.05 
  "/>
<polyline clip-path="url(#clip210)" style="stroke:#000000; stroke-linecap:butt; stroke-linejoin:round; stroke-width:4; stroke-opacity:1; fill:none" points="
  498.521,388.234 507.969,388.234 
  "/>
<polyline clip-path="url(#clip210)" style="stroke:#000000; stroke-linecap:butt; stroke-linejoin:round; stroke-width:4; stroke-opacity:1; fill:none" points="
  498.521,210.602 507.969,210.602 
  "/>
<polyline clip-path="url(#clip210)" style="stroke:#000000; stroke-linecap:butt; stroke-linejoin:round; stroke-width:4; stroke-opacity:1; fill:none" points="
  498.521,121.786 507.969,121.786 
  "/>
<path clip-path="url(#clip210)" d="M432.604 2054.44 Q427.187 2054.44 424.444 2059.78 Q421.736 2065.1 421.736 2075.79 Q421.736 2086.45 424.444 2091.8 Q427.187 2097.11 432.604 2097.11 Q438.055 2097.11 440.764 2091.8 Q443.507 2086.45 443.507 2075.79 Q443.507 2065.1 440.764 2059.78 Q438.055 2054.44 432.604 2054.44 M432.604 2048.88 Q441.319 2048.88 445.903 2055.79 Q450.521 2062.67 450.521 2075.79 Q450.521 2088.88 445.903 2095.79 Q441.319 2102.66 432.604 2102.66 Q423.889 2102.66 419.271 2095.79 Q414.687 2088.88 414.687 2075.79 Q414.687 2062.67 419.271 2055.79 Q423.889 2048.88 432.604 2048.88 Z" fill="#000000" fill-rule="evenodd" fill-opacity="1" /><path clip-path="url(#clip210)" d="M178.478 1661.35 L202.957 1661.35 L202.957 1667.25 L170.04 1667.25 L170.04 1661.35 Q174.033 1657.21 180.908 1650.27 Q187.818 1643.29 189.589 1641.28 Q192.957 1637.49 194.276 1634.89 Q195.63 1632.25 195.63 1629.71 Q195.63 1625.58 192.714 1622.98 Q189.832 1620.37 185.179 1620.37 Q181.881 1620.37 178.2 1621.52 Q174.554 1622.67 170.388 1624.99 L170.388 1617.91 Q174.624 1616.21 178.304 1615.34 Q181.985 1614.47 185.04 1614.47 Q193.096 1614.47 197.887 1618.5 Q202.679 1622.53 202.679 1629.26 Q202.679 1632.46 201.464 1635.34 Q200.283 1638.19 197.124 1642.08 Q196.255 1643.08 191.603 1647.91 Q186.95 1652.7 178.478 1661.35 Z" fill="#000000" fill-rule="evenodd" fill-opacity="1" /><path clip-path="url(#clip210)" d="M217.679 1658.43 L225.005 1658.43 L225.005 1667.25 L217.679 1667.25 L217.679 1658.43 Z" fill="#000000" fill-rule="evenodd" fill-opacity="1" /><path clip-path="url(#clip210)" d="M255.283 1620.03 Q249.866 1620.03 247.123 1625.37 Q244.415 1630.69 244.415 1641.38 Q244.415 1652.04 247.123 1657.39 Q249.866 1662.7 255.283 1662.7 Q260.734 1662.7 263.443 1657.39 Q266.186 1652.04 266.186 1641.38 Q266.186 1630.69 263.443 1625.37 Q260.734 1620.03 255.283 1620.03 M255.283 1614.47 Q263.998 1614.47 268.581 1621.38 Q273.2 1628.26 273.2 1641.38 Q273.2 1654.47 268.581 1661.38 Q263.998 1668.26 255.283 1668.26 Q246.568 1668.26 241.95 1661.38 Q237.366 1654.47 237.366 1641.38 Q237.366 1628.26 241.95 1621.38 Q246.568 1614.47 255.283 1614.47 Z" fill="#000000" fill-rule="evenodd" fill-opacity="1" /><path clip-path="url(#clip210)" d="M327.783 1629.06 L311.915 1644.99 L327.783 1660.86 L323.651 1665.06 L307.713 1649.12 L291.776 1665.06 L287.679 1660.86 L303.512 1644.99 L287.679 1629.06 L291.776 1624.85 L307.713 1640.79 L323.651 1624.85 L327.783 1629.06 Z" fill="#000000" fill-rule="evenodd" fill-opacity="1" /><path clip-path="url(#clip210)" d="M346.324 1661.35 L357.782 1661.35 L357.782 1621.8 L345.317 1624.3 L345.317 1617.91 L357.713 1615.41 L364.727 1615.41 L364.727 1661.35 L376.185 1661.35 L376.185 1667.25 L346.324 1667.25 L346.324 1661.35 Z" fill="#000000" fill-rule="evenodd" fill-opacity="1" /><path clip-path="url(#clip210)" d="M405.352 1620.03 Q399.935 1620.03 397.192 1625.37 Q394.484 1630.69 394.484 1641.38 Q394.484 1652.04 397.192 1657.39 Q399.935 1662.7 405.352 1662.7 Q410.803 1662.7 413.511 1657.39 Q416.254 1652.04 416.254 1641.38 Q416.254 1630.69 413.511 1625.37 Q410.803 1620.03 405.352 1620.03 M405.352 1614.47 Q414.067 1614.47 418.65 1621.38 Q423.268 1628.26 423.268 1641.38 Q423.268 1654.47 418.65 1661.38 Q414.067 1668.26 405.352 1668.26 Q396.636 1668.26 392.018 1661.38 Q387.435 1654.47 387.435 1641.38 Q387.435 1628.26 392.018 1621.38 Q396.636 1614.47 405.352 1614.47 Z" fill="#000000" fill-rule="evenodd" fill-opacity="1" /><path clip-path="url(#clip210)" d="M425.045 1584.01 L447.417 1584.01 L447.417 1588.81 L430.265 1588.81 L430.265 1599.14 Q431.506 1598.71 432.747 1598.51 Q433.989 1598.29 435.23 1598.29 Q442.283 1598.29 446.402 1602.15 Q450.521 1606.02 450.521 1612.62 Q450.521 1619.42 446.289 1623.2 Q442.057 1626.95 434.355 1626.95 Q431.703 1626.95 428.939 1626.5 Q426.202 1626.05 423.268 1625.15 L423.268 1619.42 Q425.807 1620.8 428.516 1621.48 Q431.224 1622.16 434.242 1622.16 Q439.123 1622.16 441.972 1619.59 Q444.822 1617.02 444.822 1612.62 Q444.822 1608.22 441.972 1605.65 Q439.123 1603.08 434.242 1603.08 Q431.957 1603.08 429.672 1603.59 Q427.415 1604.1 425.045 1605.17 L425.045 1584.01 Z" fill="#000000" fill-rule="evenodd" fill-opacity="1" /><path clip-path="url(#clip210)" d="M191.707 1177.44 L173.999 1205.11 L191.707 1205.11 L191.707 1177.44 M189.867 1171.33 L198.686 1171.33 L198.686 1205.11 L206.082 1205.11 L206.082 1210.95 L198.686 1210.95 L198.686 1223.17 L191.707 1223.17 L191.707 1210.95 L168.304 1210.95 L168.304 1204.18 L189.867 1171.33 Z" fill="#000000" fill-rule="evenodd" fill-opacity="1" /><path clip-path="url(#clip210)" d="M217.679 1214.35 L225.005 1214.35 L225.005 1223.17 L217.679 1223.17 L217.679 1214.35 Z" fill="#000000" fill-rule="evenodd" fill-opacity="1" /><path clip-path="url(#clip210)" d="M255.283 1175.95 Q249.866 1175.95 247.123 1181.29 Q244.415 1186.61 244.415 1197.3 Q244.415 1207.96 247.123 1213.31 Q249.866 1218.62 255.283 1218.62 Q260.734 1218.62 263.443 1213.31 Q266.186 1207.96 266.186 1197.3 Q266.186 1186.61 263.443 1181.29 Q260.734 1175.95 255.283 1175.95 M255.283 1170.39 Q263.998 1170.39 268.581 1177.3 Q273.2 1184.18 273.2 1197.3 Q273.2 1210.39 268.581 1217.3 Q263.998 1224.18 255.283 1224.18 Q246.568 1224.18 241.95 1217.3 Q237.366 1210.39 237.366 1197.3 Q237.366 1184.18 241.95 1177.3 Q246.568 1170.39 255.283 1170.39 Z" fill="#000000" fill-rule="evenodd" fill-opacity="1" /><path clip-path="url(#clip210)" d="M327.783 1184.98 L311.915 1200.91 L327.783 1216.78 L323.651 1220.98 L307.713 1205.04 L291.776 1220.98 L287.679 1216.78 L303.512 1200.91 L287.679 1184.98 L291.776 1180.77 L307.713 1196.71 L323.651 1180.77 L327.783 1184.98 Z" fill="#000000" fill-rule="evenodd" fill-opacity="1" /><path clip-path="url(#clip210)" d="M346.324 1217.27 L357.782 1217.27 L357.782 1177.72 L345.317 1180.22 L345.317 1173.83 L357.713 1171.33 L364.727 1171.33 L364.727 1217.27 L376.185 1217.27 L376.185 1223.17 L346.324 1223.17 L346.324 1217.27 Z" fill="#000000" fill-rule="evenodd" fill-opacity="1" /><path clip-path="url(#clip210)" d="M405.352 1175.95 Q399.935 1175.95 397.192 1181.29 Q394.484 1186.61 394.484 1197.3 Q394.484 1207.96 397.192 1213.31 Q399.935 1218.62 405.352 1218.62 Q410.803 1218.62 413.511 1213.31 Q416.254 1207.96 416.254 1197.3 Q416.254 1186.61 413.511 1181.29 Q410.803 1175.95 405.352 1175.95 M405.352 1170.39 Q414.067 1170.39 418.65 1177.3 Q423.268 1184.18 423.268 1197.3 Q423.268 1210.39 418.65 1217.3 Q414.067 1224.18 405.352 1224.18 Q396.636 1224.18 392.018 1217.3 Q387.435 1210.39 387.435 1197.3 Q387.435 1184.18 392.018 1177.3 Q396.636 1170.39 405.352 1170.39 Z" fill="#000000" fill-rule="evenodd" fill-opacity="1" /><path clip-path="url(#clip210)" d="M425.045 1139.93 L447.417 1139.93 L447.417 1144.73 L430.265 1144.73 L430.265 1155.06 Q431.506 1154.63 432.747 1154.43 Q433.989 1154.21 435.23 1154.21 Q442.283 1154.21 446.402 1158.07 Q450.521 1161.94 450.521 1168.54 Q450.521 1175.34 446.289 1179.12 Q442.057 1182.87 434.355 1182.87 Q431.703 1182.87 428.939 1182.42 Q426.202 1181.97 423.268 1181.07 L423.268 1175.34 Q425.807 1176.72 428.516 1177.4 Q431.224 1178.08 434.242 1178.08 Q439.123 1178.08 441.972 1175.51 Q444.822 1172.94 444.822 1168.54 Q444.822 1164.14 441.972 1161.57 Q439.123 1159.01 434.242 1159.01 Q431.957 1159.01 429.672 1159.51 Q427.415 1160.02 425.045 1161.09 L425.045 1139.93 Z" fill="#000000" fill-rule="evenodd" fill-opacity="1" /><path clip-path="url(#clip210)" d="M188.304 750.375 Q183.582 750.375 180.804 753.604 Q178.061 756.833 178.061 762.458 Q178.061 768.048 180.804 771.312 Q183.582 774.541 188.304 774.541 Q193.026 774.541 195.769 771.312 Q198.547 768.048 198.547 762.458 Q198.547 756.833 195.769 753.604 Q193.026 750.375 188.304 750.375 M202.228 728.396 L202.228 734.784 Q199.589 733.534 196.88 732.875 Q194.207 732.215 191.568 732.215 Q184.624 732.215 180.943 736.902 Q177.297 741.59 176.776 751.069 Q178.825 748.048 181.915 746.451 Q185.006 744.819 188.721 744.819 Q196.533 744.819 201.047 749.576 Q205.596 754.298 205.596 762.458 Q205.596 770.444 200.874 775.27 Q196.151 780.097 188.304 780.097 Q179.311 780.097 174.554 773.222 Q169.797 766.312 169.797 753.222 Q169.797 740.93 175.631 733.639 Q181.464 726.312 191.29 726.312 Q193.929 726.312 196.603 726.833 Q199.311 727.354 202.228 728.396 Z" fill="#000000" fill-rule="evenodd" fill-opacity="1" /><path clip-path="url(#clip210)" d="M217.679 770.27 L225.005 770.27 L225.005 779.09 L217.679 779.09 L217.679 770.27 Z" fill="#000000" fill-rule="evenodd" fill-opacity="1" /><path clip-path="url(#clip210)" d="M255.283 731.868 Q249.866 731.868 247.123 737.215 Q244.415 742.527 244.415 753.222 Q244.415 763.881 247.123 769.229 Q249.866 774.541 255.283 774.541 Q260.734 774.541 263.443 769.229 Q266.186 763.881 266.186 753.222 Q266.186 742.527 263.443 737.215 Q260.734 731.868 255.283 731.868 M255.283 726.312 Q263.998 726.312 268.581 733.222 Q273.2 740.097 273.2 753.222 Q273.2 766.312 268.581 773.222 Q263.998 780.097 255.283 780.097 Q246.568 780.097 241.95 773.222 Q237.366 766.312 237.366 753.222 Q237.366 740.097 241.95 733.222 Q246.568 726.312 255.283 726.312 Z" fill="#000000" fill-rule="evenodd" fill-opacity="1" /><path clip-path="url(#clip210)" d="M327.783 740.895 L311.915 756.833 L327.783 772.701 L323.651 776.902 L307.713 760.965 L291.776 776.902 L287.679 772.701 L303.512 756.833 L287.679 740.895 L291.776 736.694 L307.713 752.631 L323.651 736.694 L327.783 740.895 Z" fill="#000000" fill-rule="evenodd" fill-opacity="1" /><path clip-path="url(#clip210)" d="M346.324 773.187 L357.782 773.187 L357.782 733.639 L345.317 736.139 L345.317 729.75 L357.713 727.25 L364.727 727.25 L364.727 773.187 L376.185 773.187 L376.185 779.09 L346.324 779.09 L346.324 773.187 Z" fill="#000000" fill-rule="evenodd" fill-opacity="1" /><path clip-path="url(#clip210)" d="M405.352 731.868 Q399.935 731.868 397.192 737.215 Q394.484 742.527 394.484 753.222 Q394.484 763.881 397.192 769.229 Q399.935 774.541 405.352 774.541 Q410.803 774.541 413.511 769.229 Q416.254 763.881 416.254 753.222 Q416.254 742.527 413.511 737.215 Q410.803 731.868 405.352 731.868 M405.352 726.312 Q414.067 726.312 418.65 733.222 Q423.268 740.097 423.268 753.222 Q423.268 766.312 418.65 773.222 Q414.067 780.097 405.352 780.097 Q396.636 780.097 392.018 773.222 Q387.435 766.312 387.435 753.222 Q387.435 740.097 392.018 733.222 Q396.636 726.312 405.352 726.312 Z" fill="#000000" fill-rule="evenodd" fill-opacity="1" /><path clip-path="url(#clip210)" d="M425.045 695.854 L447.417 695.854 L447.417 700.65 L430.265 700.65 L430.265 710.976 Q431.506 710.552 432.747 710.355 Q433.989 710.129 435.23 710.129 Q442.283 710.129 446.402 713.994 Q450.521 717.859 450.521 724.461 Q450.521 731.26 446.289 735.04 Q442.057 738.792 434.355 738.792 Q431.703 738.792 428.939 738.341 Q426.202 737.889 423.268 736.987 L423.268 731.26 Q425.807 732.642 428.516 733.319 Q431.224 733.996 434.242 733.996 Q439.123 733.996 441.972 731.429 Q444.822 728.862 444.822 724.461 Q444.822 720.06 441.972 717.492 Q439.123 714.925 434.242 714.925 Q431.957 714.925 429.672 715.433 Q427.415 715.941 425.045 717.013 L425.045 695.854 Z" fill="#000000" fill-rule="evenodd" fill-opacity="1" /><path clip-path="url(#clip210)" d="M187.436 310.392 Q182.436 310.392 179.554 313.065 Q176.707 315.739 176.707 320.427 Q176.707 325.114 179.554 327.788 Q182.436 330.461 187.436 330.461 Q192.436 330.461 195.318 327.788 Q198.2 325.079 198.2 320.427 Q198.2 315.739 195.318 313.065 Q192.471 310.392 187.436 310.392 M180.422 307.406 Q175.908 306.295 173.374 303.204 Q170.874 300.114 170.874 295.67 Q170.874 289.454 175.283 285.843 Q179.728 282.232 187.436 282.232 Q195.179 282.232 199.589 285.843 Q203.999 289.454 203.999 295.67 Q203.999 300.114 201.464 303.204 Q198.964 306.295 194.485 307.406 Q199.554 308.586 202.367 312.024 Q205.214 315.461 205.214 320.427 Q205.214 327.961 200.596 331.989 Q196.012 336.017 187.436 336.017 Q178.86 336.017 174.242 331.989 Q169.658 327.961 169.658 320.427 Q169.658 315.461 172.506 312.024 Q175.353 308.586 180.422 307.406 M177.853 296.329 Q177.853 300.357 180.353 302.614 Q182.888 304.871 187.436 304.871 Q191.95 304.871 194.485 302.614 Q197.054 300.357 197.054 296.329 Q197.054 292.302 194.485 290.045 Q191.95 287.788 187.436 287.788 Q182.888 287.788 180.353 290.045 Q177.853 292.302 177.853 296.329 Z" fill="#000000" fill-rule="evenodd" fill-opacity="1" /><path clip-path="url(#clip210)" d="M217.679 326.19 L225.005 326.19 L225.005 335.01 L217.679 335.01 L217.679 326.19 Z" fill="#000000" fill-rule="evenodd" fill-opacity="1" /><path clip-path="url(#clip210)" d="M255.283 287.788 Q249.866 287.788 247.123 293.135 Q244.415 298.447 244.415 309.142 Q244.415 319.802 247.123 325.149 Q249.866 330.461 255.283 330.461 Q260.734 330.461 263.443 325.149 Q266.186 319.802 266.186 309.142 Q266.186 298.447 263.443 293.135 Q260.734 287.788 255.283 287.788 M255.283 282.232 Q263.998 282.232 268.581 289.142 Q273.2 296.017 273.2 309.142 Q273.2 322.232 268.581 329.142 Q263.998 336.017 255.283 336.017 Q246.568 336.017 241.95 329.142 Q237.366 322.232 237.366 309.142 Q237.366 296.017 241.95 289.142 Q246.568 282.232 255.283 282.232 Z" fill="#000000" fill-rule="evenodd" fill-opacity="1" /><path clip-path="url(#clip210)" d="M327.783 296.816 L311.915 312.753 L327.783 328.621 L323.651 332.822 L307.713 316.885 L291.776 332.822 L287.679 328.621 L303.512 312.753 L287.679 296.816 L291.776 292.614 L307.713 308.552 L323.651 292.614 L327.783 296.816 Z" fill="#000000" fill-rule="evenodd" fill-opacity="1" /><path clip-path="url(#clip210)" d="M346.324 329.107 L357.782 329.107 L357.782 289.559 L345.317 292.059 L345.317 285.67 L357.713 283.17 L364.727 283.17 L364.727 329.107 L376.185 329.107 L376.185 335.01 L346.324 335.01 L346.324 329.107 Z" fill="#000000" fill-rule="evenodd" fill-opacity="1" /><path clip-path="url(#clip210)" d="M405.352 287.788 Q399.935 287.788 397.192 293.135 Q394.484 298.447 394.484 309.142 Q394.484 319.802 397.192 325.149 Q399.935 330.461 405.352 330.461 Q410.803 330.461 413.511 325.149 Q416.254 319.802 416.254 309.142 Q416.254 298.447 413.511 293.135 Q410.803 287.788 405.352 287.788 M405.352 282.232 Q414.067 282.232 418.65 289.142 Q423.268 296.017 423.268 309.142 Q423.268 322.232 418.65 329.142 Q414.067 336.017 405.352 336.017 Q396.636 336.017 392.018 329.142 Q387.435 322.232 387.435 309.142 Q387.435 296.017 392.018 289.142 Q396.636 282.232 405.352 282.232 Z" fill="#000000" fill-rule="evenodd" fill-opacity="1" /><path clip-path="url(#clip210)" d="M425.045 251.774 L447.417 251.774 L447.417 256.57 L430.265 256.57 L430.265 266.896 Q431.506 266.472 432.747 266.275 Q433.989 266.049 435.23 266.049 Q442.283 266.049 446.402 269.914 Q450.521 273.779 450.521 280.381 Q450.521 287.18 446.289 290.96 Q442.057 294.712 434.355 294.712 Q431.703 294.712 428.939 294.261 Q426.202 293.81 423.268 292.907 L423.268 287.18 Q425.807 288.562 428.516 289.239 Q431.224 289.916 434.242 289.916 Q439.123 289.916 441.972 287.349 Q444.822 284.782 444.822 280.381 Q444.822 275.98 441.972 273.413 Q439.123 270.845 434.242 270.845 Q431.957 270.845 429.672 271.353 Q427.415 271.861 425.045 272.933 L425.045 251.774 Z" fill="#000000" fill-rule="evenodd" fill-opacity="1" /><path clip-path="url(#clip210)" d="M84.8565 1151.45 Q77.9121 1151.45 74.0927 1154.33 Q70.2733 1157.18 70.2733 1162.35 Q70.2733 1167.49 74.0927 1170.37 Q77.9121 1173.22 84.8565 1173.22 Q91.7662 1173.22 95.5856 1170.37 Q99.4051 1167.49 99.4051 1162.35 Q99.4051 1157.18 95.5856 1154.33 Q91.7662 1151.45 84.8565 1151.45 M99.9259 1145.06 Q109.856 1145.06 114.683 1149.47 Q119.544 1153.88 119.544 1162.98 Q119.544 1166.34 119.023 1169.33 Q118.537 1172.32 117.495 1175.13 L111.28 1175.13 Q112.808 1172.32 113.537 1169.57 Q114.266 1166.83 114.266 1163.98 Q114.266 1157.7 110.967 1154.57 Q107.704 1151.45 101.072 1151.45 L97.912 1151.45 Q101.349 1153.43 103.051 1156.52 Q104.752 1159.61 104.752 1163.91 Q104.752 1171.07 99.3009 1175.44 Q93.8495 1179.82 84.8565 1179.82 Q75.8288 1179.82 70.3774 1175.44 Q64.9261 1171.07 64.9261 1163.91 Q64.9261 1159.61 66.6275 1156.52 Q68.3288 1153.43 71.7663 1151.45 L65.8636 1151.45 L65.8636 1145.06 L99.9259 1145.06 Z" fill="#000000" fill-rule="evenodd" fill-opacity="1" /><path clip-path="url(#clip210)" d="M50.7942 1116.55 Q58.7803 1121.21 66.5927 1123.46 Q74.4052 1125.72 82.426 1125.72 Q90.4468 1125.72 98.3287 1123.46 Q106.176 1121.17 114.127 1116.55 L114.127 1122.11 Q105.968 1127.32 98.0856 1129.92 Q90.2037 1132.49 82.426 1132.49 Q74.683 1132.49 66.8358 1129.92 Q58.9886 1127.35 50.7942 1122.11 L50.7942 1116.55 Z" fill="#000000" fill-rule="evenodd" fill-opacity="1" /><path clip-path="url(#clip210)" d="M50.7248 1104.4 L50.7248 1097.98 L82.6343 1097.98 L65.8636 1078.91 L65.8636 1070.76 L84.0579 1091.38 L104.752 1069.89 L104.752 1078.22 L85.7593 1097.98 L104.752 1097.98 L104.752 1104.4 L50.7248 1104.4 Z" fill="#000000" fill-rule="evenodd" fill-opacity="1" /><path clip-path="url(#clip210)" d="M50.7942 1063.98 L50.7942 1058.43 Q58.9886 1053.22 66.8358 1050.65 Q74.683 1048.05 82.426 1048.05 Q90.2037 1048.05 98.0856 1050.65 Q105.968 1053.22 114.127 1058.43 L114.127 1063.98 Q106.176 1059.37 98.3287 1057.11 Q90.4468 1054.82 82.426 1054.82 Q74.4052 1054.82 66.5927 1057.11 Q58.7803 1059.37 50.7942 1063.98 Z" fill="#000000" fill-rule="evenodd" fill-opacity="1" /><polyline clip-path="url(#clip212)" style="stroke:#ee7733; stroke-linecap:butt; stroke-linejoin:round; stroke-width:4.8; stroke-opacity:1; fill:none" points="
  3076.38,2074.9 3039.97,2072.48 3003.56,2068.61 2967.15,2062.97 2930.74,2055.71 2894.33,2046.95 2857.92,2037.27 2821.51,2025.67 2785.1,2012.07 2748.69,1997.24 
  2712.28,1980.26 2675.87,1961.63 2639.46,1941.37 2603.05,1919.32 2566.64,1896.12 2530.23,1869.66 2493.82,1841.31 2457.41,1809 2420.99,1775.48 2384.58,1736.06 
  2348.17,1693.66 2311.76,1645.05 2275.35,1589.74 2238.94,1527.15 2202.53,1457.9 2166.12,1376.44 2129.71,1281.41 2093.3,1172.59 2056.89,1049.29 2020.48,919.72 
  1984.07,777.286 1947.66,633.406 1911.25,485.654 1874.84,350.847 1838.43,220.568 1802.02,152.193 1765.61,199.203 1729.2,324.353 1692.78,471.359 1656.37,631.393 
  1619.96,796.519 1583.55,961.033 1547.14,1110.03 1510.73,1243.73 1474.32,1361.71 1437.91,1460.2 1401.5,1545.03 1365.09,1616.97 1328.68,1682.26 1292.27,1732.43 
  1255.86,1779.15 1219.45,1819.34 1183.04,1853.71 1146.63,1884.34 1110.22,1910.79 1073.81,1935.89 1037.4,1957.01 1000.99,1976.74 964.575,1992.06 928.164,2007.49 
  891.754,2021.35 855.343,2032.83 818.933,2043.07 782.522,2051.95 746.112,2059.13 709.701,2065.07 673.291,2069.59 636.88,2072.46 600.47,2074.48 564.06,2075.3 
  527.649,2075.67 
  "/>
<path clip-path="url(#clip210)" d="
M2595.38 292.051 L3018.61 292.051 L3018.61 162.451 L2595.38 162.451  Z
  " fill="#ffffff" fill-rule="evenodd" fill-opacity="0.9"/>
<polyline clip-path="url(#clip210)" style="stroke:#222255; stroke-linecap:butt; stroke-linejoin:round; stroke-width:4; stroke-opacity:0.1; fill:none" points="
  2595.38,292.051 3018.61,292.051 3018.61,162.451 2595.38,162.451 2595.38,292.051 
  "/>
<polyline clip-path="url(#clip210)" style="stroke:#ee7733; stroke-linecap:butt; stroke-linejoin:round; stroke-width:5; stroke-opacity:1; fill:none" points="
  2624.35,227.251 2798.15,227.251 
  "/>
<path clip-path="url(#clip210)" d="M2850.75 232.271 Q2850.75 226.484 2848.35 223.301 Q2845.98 220.119 2841.67 220.119 Q2837.39 220.119 2834.99 223.301 Q2832.61 226.484 2832.61 232.271 Q2832.61 238.029 2834.99 241.212 Q2837.39 244.395 2841.67 244.395 Q2845.98 244.395 2848.35 241.212 Q2850.75 238.029 2850.75 232.271 M2856.08 244.829 Q2856.08 253.105 2852.4 257.127 Q2848.73 261.177 2841.15 261.177 Q2838.34 261.177 2835.85 260.743 Q2833.36 260.338 2831.02 259.47 L2831.02 254.291 Q2833.36 255.564 2835.65 256.172 Q2837.94 256.779 2840.31 256.779 Q2845.55 256.779 2848.15 254.03 Q2850.75 251.311 2850.75 245.784 L2850.75 243.151 Q2849.11 246.015 2846.53 247.433 Q2843.96 248.851 2840.37 248.851 Q2834.41 248.851 2830.76 244.308 Q2827.11 239.766 2827.11 232.271 Q2827.11 224.748 2830.76 220.205 Q2834.41 215.663 2840.37 215.663 Q2843.96 215.663 2846.53 217.08 Q2849.11 218.498 2850.75 221.363 L2850.75 216.444 L2856.08 216.444 L2856.08 244.829 Z" fill="#000000" fill-rule="evenodd" fill-opacity="1" /><path clip-path="url(#clip210)" d="M2865.97 245.668 L2871.88 245.668 L2871.88 227.989 L2865.42 229.175 L2865.42 225.819 L2872.08 224.69 L2876.04 224.69 L2876.04 245.668 L2881.98 245.668 L2881.98 248.851 L2865.97 248.851 L2865.97 245.668 Z" fill="#000000" fill-rule="evenodd" fill-opacity="1" /><path clip-path="url(#clip210)" d="M2903.59 203.886 Q2899.71 210.541 2897.83 217.052 Q2895.95 223.562 2895.95 230.246 Q2895.95 236.93 2897.83 243.498 Q2899.74 250.037 2903.59 256.664 L2898.96 256.664 Q2894.62 249.864 2892.45 243.296 Q2890.31 236.727 2890.31 230.246 Q2890.31 223.793 2892.45 217.254 Q2894.59 210.715 2898.96 203.886 L2903.59 203.886 Z" fill="#000000" fill-rule="evenodd" fill-opacity="1" /><path clip-path="url(#clip210)" d="M2913.72 203.828 L2919.07 203.828 L2919.07 230.419 L2934.96 216.444 L2941.76 216.444 L2924.57 231.606 L2942.48 248.851 L2935.53 248.851 L2919.07 233.024 L2919.07 248.851 L2913.72 248.851 L2913.72 203.828 Z" fill="#000000" fill-rule="evenodd" fill-opacity="1" /><path clip-path="url(#clip210)" d="M2947.4 203.886 L2952.03 203.886 Q2956.37 210.715 2958.51 217.254 Q2960.68 223.793 2960.68 230.246 Q2960.68 236.727 2958.51 243.296 Q2956.37 249.864 2952.03 256.664 L2947.4 256.664 Q2951.25 250.037 2953.13 243.498 Q2955.04 236.93 2955.04 230.246 Q2955.04 223.562 2953.13 217.052 Q2951.25 210.541 2947.4 203.886 Z" fill="#000000" fill-rule="evenodd" fill-opacity="1" /></svg>
