<?xml version="1.0" encoding="utf-8"?>
<svg xmlns="http://www.w3.org/2000/svg" xmlns:xlink="http://www.w3.org/1999/xlink" width="800" height="600" viewBox="0 0 3200 2400">
<defs>
  <clipPath id="clip290">
    <rect x="0" y="0" width="3200" height="2400"/>
  </clipPath>
</defs>
<path clip-path="url(#clip290)" d="
M0 2400 L3200 2400 L3200 0 L0 0  Z
  " fill="#ffffff" fill-rule="evenodd" fill-opacity="1"/>
<defs>
  <clipPath id="clip291">
    <rect x="640" y="0" width="2241" height="2241"/>
  </clipPath>
</defs>
<path clip-path="url(#clip290)" d="
M498.521 2133.38 L3105.51 2133.38 L3105.51 94.4882 L498.521 94.4882  Z
  " fill="#ffffff" fill-rule="evenodd" fill-opacity="1"/>
<defs>
  <clipPath id="clip292">
    <rect x="498" y="94" width="2608" height="2040"/>
  </clipPath>
</defs>
<polyline clip-path="url(#clip292)" style="stroke:#222255; stroke-linecap:butt; stroke-linejoin:round; stroke-width:2; stroke-opacity:0.05; fill:none" points="
  709.701,2133.38 709.701,94.4882 
  "/>
<polyline clip-path="url(#clip292)" style="stroke:#222255; stroke-linecap:butt; stroke-linejoin:round; stroke-width:2; stroke-opacity:0.05; fill:none" points="
  1073.81,2133.38 1073.81,94.4882 
  "/>
<polyline clip-path="url(#clip292)" style="stroke:#222255; stroke-linecap:butt; stroke-linejoin:round; stroke-width:2; stroke-opacity:0.05; fill:none" points="
  1437.91,2133.38 1437.91,94.4882 
  "/>
<polyline clip-path="url(#clip292)" style="stroke:#222255; stroke-linecap:butt; stroke-linejoin:round; stroke-width:2; stroke-opacity:0.05; fill:none" points="
  1802.02,2133.38 1802.02,94.4882 
  "/>
<polyline clip-path="url(#clip292)" style="stroke:#222255; stroke-linecap:butt; stroke-linejoin:round; stroke-width:2; stroke-opacity:0.05; fill:none" points="
  2166.12,2133.38 2166.12,94.4882 
  "/>
<polyline clip-path="url(#clip292)" style="stroke:#222255; stroke-linecap:butt; stroke-linejoin:round; stroke-width:2; stroke-opacity:0.05; fill:none" points="
  2530.23,2133.38 2530.23,94.4882 
  "/>
<polyline clip-path="url(#clip292)" style="stroke:#222255; stroke-linecap:butt; stroke-linejoin:round; stroke-width:2; stroke-opacity:0.05; fill:none" points="
  2894.33,2133.38 2894.33,94.4882 
  "/>
<polyline clip-path="url(#clip292)" style="stroke:#222255; stroke-linecap:butt; stroke-linejoin:round; stroke-width:2; stroke-opacity:0.05; fill:none" points="
  564.06,2133.38 564.06,94.4882 
  "/>
<polyline clip-path="url(#clip292)" style="stroke:#222255; stroke-linecap:butt; stroke-linejoin:round; stroke-width:2; stroke-opacity:0.05; fill:none" points="
  636.88,2133.38 636.88,94.4882 
  "/>
<polyline clip-path="url(#clip292)" style="stroke:#222255; stroke-linecap:butt; stroke-linejoin:round; stroke-width:2; stroke-opacity:0.05; fill:none" points="
  782.522,2133.38 782.522,94.4882 
  "/>
<polyline clip-path="url(#clip292)" style="stroke:#222255; stroke-linecap:butt; stroke-linejoin:round; stroke-width:2; stroke-opacity:0.05; fill:none" points="
  855.343,2133.38 855.343,94.4882 
  "/>
<polyline clip-path="url(#clip292)" style="stroke:#222255; stroke-linecap:butt; stroke-linejoin:round; stroke-width:2; stroke-opacity:0.05; fill:none" points="
  928.164,2133.38 928.164,94.4882 
  "/>
<polyline clip-path="url(#clip292)" style="stroke:#222255; stroke-linecap:butt; stroke-linejoin:round; stroke-width:2; stroke-opacity:0.05; fill:none" points="
  1000.99,2133.38 1000.99,94.4882 
  "/>
<polyline clip-path="url(#clip292)" style="stroke:#222255; stroke-linecap:butt; stroke-linejoin:round; stroke-width:2; stroke-opacity:0.05; fill:none" points="
  1146.63,2133.38 1146.63,94.4882 
  "/>
<polyline clip-path="url(#clip292)" style="stroke:#222255; stroke-linecap:butt; stroke-linejoin:round; stroke-width:2; stroke-opacity:0.05; fill:none" points="
  1219.45,2133.38 1219.45,94.4882 
  "/>
<polyline clip-path="url(#clip292)" style="stroke:#222255; stroke-linecap:butt; stroke-linejoin:round; stroke-width:2; stroke-opacity:0.05; fill:none" points="
  1292.27,2133.38 1292.27,94.4882 
  "/>
<polyline clip-path="url(#clip292)" style="stroke:#222255; stroke-linecap:butt; stroke-linejoin:round; stroke-width:2; stroke-opacity:0.05; fill:none" points="
  1365.09,2133.38 1365.09,94.4882 
  "/>
<polyline clip-path="url(#clip292)" style="stroke:#222255; stroke-linecap:butt; stroke-linejoin:round; stroke-width:2; stroke-opacity:0.05; fill:none" points="
  1510.73,2133.38 1510.73,94.4882 
  "/>
<polyline clip-path="url(#clip292)" style="stroke:#222255; stroke-linecap:butt; stroke-linejoin:round; stroke-width:2; stroke-opacity:0.05; fill:none" points="
  1583.55,2133.38 1583.55,94.4882 
  "/>
<polyline clip-path="url(#clip292)" style="stroke:#222255; stroke-linecap:butt; stroke-linejoin:round; stroke-width:2; stroke-opacity:0.05; fill:none" points="
  1656.37,2133.38 1656.37,94.4882 
  "/>
<polyline clip-path="url(#clip292)" style="stroke:#222255; stroke-linecap:butt; stroke-linejoin:round; stroke-width:2; stroke-opacity:0.05; fill:none" points="
  1729.2,2133.38 1729.2,94.4882 
  "/>
<polyline clip-path="url(#clip292)" style="stroke:#222255; stroke-linecap:butt; stroke-linejoin:round; stroke-width:2; stroke-opacity:0.05; fill:none" points="
  1874.84,2133.38 1874.84,94.4882 
  "/>
<polyline clip-path="url(#clip292)" style="stroke:#222255; stroke-linecap:butt; stroke-linejoin:round; stroke-width:2; stroke-opacity:0.05; fill:none" points="
  1947.66,2133.38 1947.66,94.4882 
  "/>
<polyline clip-path="url(#clip292)" style="stroke:#222255; stroke-linecap:butt; stroke-linejoin:round; stroke-width:2; stroke-opacity:0.05; fill:none" points="
  2020.48,2133.38 2020.48,94.4882 
  "/>
<polyline clip-path="url(#clip292)" style="stroke:#222255; stroke-linecap:butt; stroke-linejoin:round; stroke-width:2; stroke-opacity:0.05; fill:none" points="
  2093.3,2133.38 2093.3,94.4882 
  "/>
<polyline clip-path="url(#clip292)" style="stroke:#222255; stroke-linecap:butt; stroke-linejoin:round; stroke-width:2; stroke-opacity:0.05; fill:none" points="
  2238.94,2133.38 2238.94,94.4882 
  "/>
<polyline clip-path="url(#clip292)" style="stroke:#222255; stroke-linecap:butt; stroke-linejoin:round; stroke-width:2; stroke-opacity:0.05; fill:none" points="
  2311.76,2133.38 2311.76,94.4882 
  "/>
<polyline clip-path="url(#clip292)" style="stroke:#222255; stroke-linecap:butt; stroke-linejoin:round; stroke-width:2; stroke-opacity:0.05; fill:none" points="
  2384.58,2133.38 2384.58,94.4882 
  "/>
<polyline clip-path="url(#clip292)" style="stroke:#222255; stroke-linecap:butt; stroke-linejoin:round; stroke-width:2; stroke-opacity:0.05; fill:none" points="
  2457.41,2133.38 2457.41,94.4882 
  "/>
<polyline clip-path="url(#clip292)" style="stroke:#222255; stroke-linecap:butt; stroke-linejoin:round; stroke-width:2; stroke-opacity:0.05; fill:none" points="
  2603.05,2133.38 2603.05,94.4882 
  "/>
<polyline clip-path="url(#clip292)" style="stroke:#222255; stroke-linecap:butt; stroke-linejoin:round; stroke-width:2; stroke-opacity:0.05; fill:none" points="
  2675.87,2133.38 2675.87,94.4882 
  "/>
<polyline clip-path="url(#clip292)" style="stroke:#222255; stroke-linecap:butt; stroke-linejoin:round; stroke-width:2; stroke-opacity:0.05; fill:none" points="
  2748.69,2133.38 2748.69,94.4882 
  "/>
<polyline clip-path="url(#clip292)" style="stroke:#222255; stroke-linecap:butt; stroke-linejoin:round; stroke-width:2; stroke-opacity:0.05; fill:none" points="
  2821.51,2133.38 2821.51,94.4882 
  "/>
<polyline clip-path="url(#clip292)" style="stroke:#222255; stroke-linecap:butt; stroke-linejoin:round; stroke-width:2; stroke-opacity:0.05; fill:none" points="
  2967.15,2133.38 2967.15,94.4882 
  "/>
<polyline clip-path="url(#clip292)" style="stroke:#222255; stroke-linecap:butt; stroke-linejoin:round; stroke-width:2; stroke-opacity:0.05; fill:none" points="
  3039.97,2133.38 3039.97,94.4882 
  "/>
<polyline clip-path="url(#clip290)" style="stroke:#000000; stroke-linecap:butt; stroke-linejoin:round; stroke-width:4; stroke-opacity:1; fill:none" points="
  498.521,2133.38 3105.51,2133.38 
  "/>
<polyline clip-path="url(#clip290)" style="stroke:#000000; stroke-linecap:butt; stroke-linejoin:round; stroke-width:4; stroke-opacity:1; fill:none" points="
  498.521,94.4882 3105.51,94.4882 
  "/>
<polyline clip-path="url(#clip290)" style="stroke:#000000; stroke-linecap:butt; stroke-linejoin:round; stroke-width:4; stroke-opacity:1; fill:none" points="
  709.701,2133.38 709.701,2114.48 
  "/>
<polyline clip-path="url(#clip290)" style="stroke:#000000; stroke-linecap:butt; stroke-linejoin:round; stroke-width:4; stroke-opacity:1; fill:none" points="
  1073.81,2133.38 1073.81,2114.48 
  "/>
<polyline clip-path="url(#clip290)" style="stroke:#000000; stroke-linecap:butt; stroke-linejoin:round; stroke-width:4; stroke-opacity:1; fill:none" points="
  1437.91,2133.38 1437.91,2114.48 
  "/>
<polyline clip-path="url(#clip290)" style="stroke:#000000; stroke-linecap:butt; stroke-linejoin:round; stroke-width:4; stroke-opacity:1; fill:none" points="
  1802.02,2133.38 1802.02,2114.48 
  "/>
<polyline clip-path="url(#clip290)" style="stroke:#000000; stroke-linecap:butt; stroke-linejoin:round; stroke-width:4; stroke-opacity:1; fill:none" points="
  2166.12,2133.38 2166.12,2114.48 
  "/>
<polyline clip-path="url(#clip290)" style="stroke:#000000; stroke-linecap:butt; stroke-linejoin:round; stroke-width:4; stroke-opacity:1; fill:none" points="
  2530.23,2133.38 2530.23,2114.48 
  "/>
<polyline clip-path="url(#clip290)" style="stroke:#000000; stroke-linecap:butt; stroke-linejoin:round; stroke-width:4; stroke-opacity:1; fill:none" points="
  2894.33,2133.38 2894.33,2114.48 
  "/>
<polyline clip-path="url(#clip290)" style="stroke:#000000; stroke-linecap:butt; stroke-linejoin:round; stroke-width:4; stroke-opacity:1; fill:none" points="
  564.06,2133.38 564.06,2123.93 
  "/>
<polyline clip-path="url(#clip290)" style="stroke:#000000; stroke-linecap:butt; stroke-linejoin:round; stroke-width:4; stroke-opacity:1; fill:none" points="
  636.88,2133.38 636.88,2123.93 
  "/>
<polyline clip-path="url(#clip290)" style="stroke:#000000; stroke-linecap:butt; stroke-linejoin:round; stroke-width:4; stroke-opacity:1; fill:none" points="
  782.522,2133.38 782.522,2123.93 
  "/>
<polyline clip-path="url(#clip290)" style="stroke:#000000; stroke-linecap:butt; stroke-linejoin:round; stroke-width:4; stroke-opacity:1; fill:none" points="
  855.343,2133.38 855.343,2123.93 
  "/>
<polyline clip-path="url(#clip290)" style="stroke:#000000; stroke-linecap:butt; stroke-linejoin:round; stroke-width:4; stroke-opacity:1; fill:none" points="
  928.164,2133.38 928.164,2123.93 
  "/>
<polyline clip-path="url(#clip290)" style="stroke:#000000; stroke-linecap:butt; stroke-linejoin:round; stroke-width:4; stroke-opacity:1; fill:none" points="
  1000.99,2133.38 1000.99,2123.93 
  "/>
<polyline clip-path="url(#clip290)" style="stroke:#000000; stroke-linecap:butt; stroke-linejoin:round; stroke-width:4; stroke-opacity:1; fill:none" points="
  1146.63,2133.38 1146.63,2123.93 
  "/>
<polyline clip-path="url(#clip290)" style="stroke:#000000; stroke-linecap:butt; stroke-linejoin:round; stroke-width:4; stroke-opacity:1; fill:none" points="
  1219.45,2133.38 1219.45,2123.93 
  "/>
<polyline clip-path="url(#clip290)" style="stroke:#000000; stroke-linecap:butt; stroke-linejoin:round; stroke-width:4; stroke-opacity:1; fill:none" points="
  1292.27,2133.38 1292.27,2123.93 
  "/>
<polyline clip-path="url(#clip290)" style="stroke:#000000; stroke-linecap:butt; stroke-linejoin:round; stroke-width:4; stroke-opacity:1; fill:none" points="
  1365.09,2133.38 1365.09,2123.93 
  "/>
<polyline clip-path="url(#clip290)" style="stroke:#000000; stroke-linecap:butt; stroke-linejoin:round; stroke-width:4; stroke-opacity:1; fill:none" points="
  1510.73,2133.38 1510.73,2123.93 
  "/>
<polyline clip-path="url(#clip290)" style="stroke:#000000; stroke-linecap:butt; stroke-linejoin:round; stroke-width:4; stroke-opacity:1; fill:none" points="
  1583.55,2133.38 1583.55,2123.93 
  "/>
<polyline clip-path="url(#clip290)" style="stroke:#000000; stroke-linecap:butt; stroke-linejoin:round; stroke-width:4; stroke-opacity:1; fill:none" points="
  1656.37,2133.38 1656.37,2123.93 
  "/>
<polyline clip-path="url(#clip290)" style="stroke:#000000; stroke-linecap:butt; stroke-linejoin:round; stroke-width:4; stroke-opacity:1; fill:none" points="
  1729.2,2133.38 1729.2,2123.93 
  "/>
<polyline clip-path="url(#clip290)" style="stroke:#000000; stroke-linecap:butt; stroke-linejoin:round; stroke-width:4; stroke-opacity:1; fill:none" points="
  1874.84,2133.38 1874.84,2123.93 
  "/>
<polyline clip-path="url(#clip290)" style="stroke:#000000; stroke-linecap:butt; stroke-linejoin:round; stroke-width:4; stroke-opacity:1; fill:none" points="
  1947.66,2133.38 1947.66,2123.93 
  "/>
<polyline clip-path="url(#clip290)" style="stroke:#000000; stroke-linecap:butt; stroke-linejoin:round; stroke-width:4; stroke-opacity:1; fill:none" points="
  2020.48,2133.38 2020.48,2123.93 
  "/>
<polyline clip-path="url(#clip290)" style="stroke:#000000; stroke-linecap:butt; stroke-linejoin:round; stroke-width:4; stroke-opacity:1; fill:none" points="
  2093.3,2133.38 2093.3,2123.93 
  "/>
<polyline clip-path="url(#clip290)" style="stroke:#000000; stroke-linecap:butt; stroke-linejoin:round; stroke-width:4; stroke-opacity:1; fill:none" points="
  2238.94,2133.38 2238.94,2123.93 
  "/>
<polyline clip-path="url(#clip290)" style="stroke:#000000; stroke-linecap:butt; stroke-linejoin:round; stroke-width:4; stroke-opacity:1; fill:none" points="
  2311.76,2133.38 2311.76,2123.93 
  "/>
<polyline clip-path="url(#clip290)" style="stroke:#000000; stroke-linecap:butt; stroke-linejoin:round; stroke-width:4; stroke-opacity:1; fill:none" points="
  2384.58,2133.38 2384.58,2123.93 
  "/>
<polyline clip-path="url(#clip290)" style="stroke:#000000; stroke-linecap:butt; stroke-linejoin:round; stroke-width:4; stroke-opacity:1; fill:none" points="
  2457.41,2133.38 2457.41,2123.93 
  "/>
<polyline clip-path="url(#clip290)" style="stroke:#000000; stroke-linecap:butt; stroke-linejoin:round; stroke-width:4; stroke-opacity:1; fill:none" points="
  2603.05,2133.38 2603.05,2123.93 
  "/>
<polyline clip-path="url(#clip290)" style="stroke:#000000; stroke-linecap:butt; stroke-linejoin:round; stroke-width:4; stroke-opacity:1; fill:none" points="
  2675.87,2133.38 2675.87,2123.93 
  "/>
<polyline clip-path="url(#clip290)" style="stroke:#000000; stroke-linecap:butt; stroke-linejoin:round; stroke-width:4; stroke-opacity:1; fill:none" points="
  2748.69,2133.38 2748.69,2123.93 
  "/>
<polyline clip-path="url(#clip290)" style="stroke:#000000; stroke-linecap:butt; stroke-linejoin:round; stroke-width:4; stroke-opacity:1; fill:none" points="
  2821.51,2133.38 2821.51,2123.93 
  "/>
<polyline clip-path="url(#clip290)" style="stroke:#000000; stroke-linecap:butt; stroke-linejoin:round; stroke-width:4; stroke-opacity:1; fill:none" points="
  2967.15,2133.38 2967.15,2123.93 
  "/>
<polyline clip-path="url(#clip290)" style="stroke:#000000; stroke-linecap:butt; stroke-linejoin:round; stroke-width:4; stroke-opacity:1; fill:none" points="
  3039.97,2133.38 3039.97,2123.93 
  "/>
<path clip-path="url(#clip290)" d="M618.174 2198.53 L662.688 2198.53 L662.688 2204.44 L618.174 2204.44 L618.174 2198.53 Z" fill="#000000" fill-rule="evenodd" fill-opacity="1" /><path clip-path="url(#clip290)" d="M679.042 2217.87 L690.5 2217.87 L690.5 2178.32 L678.035 2180.82 L678.035 2174.44 L690.431 2171.94 L697.445 2171.94 L697.445 2217.87 L708.903 2217.87 L708.903 2223.78 L679.042 2223.78 L679.042 2217.87 Z" fill="#000000" fill-rule="evenodd" fill-opacity="1" /><path clip-path="url(#clip290)" d="M723.139 2171.94 L750.673 2171.94 L750.673 2177.84 L729.562 2177.84 L729.562 2190.55 Q731.09 2190.03 732.618 2189.78 Q734.146 2189.51 735.674 2189.51 Q744.354 2189.51 749.423 2194.26 Q754.493 2199.02 754.493 2207.14 Q754.493 2215.51 749.285 2220.16 Q744.076 2224.78 734.597 2224.78 Q731.333 2224.78 727.931 2224.23 Q724.563 2223.67 720.951 2222.56 L720.951 2215.51 Q724.076 2217.21 727.41 2218.05 Q730.743 2218.88 734.458 2218.88 Q740.465 2218.88 743.972 2215.72 Q747.479 2212.56 747.479 2207.14 Q747.479 2201.73 743.972 2198.57 Q740.465 2195.41 734.458 2195.41 Q731.646 2195.41 728.833 2196.03 Q726.056 2196.66 723.139 2197.98 L723.139 2171.94 Z" fill="#000000" fill-rule="evenodd" fill-opacity="1" /><path clip-path="url(#clip290)" d="M783.312 2176.55 Q777.896 2176.55 775.153 2181.9 Q772.444 2187.21 772.444 2197.91 Q772.444 2208.57 775.153 2213.91 Q777.896 2219.23 783.312 2219.23 Q788.764 2219.23 791.472 2213.91 Q794.215 2208.57 794.215 2197.91 Q794.215 2187.21 791.472 2181.9 Q788.764 2176.55 783.312 2176.55 M783.312 2171 Q792.027 2171 796.611 2177.91 Q801.229 2184.78 801.229 2197.91 Q801.229 2211 796.611 2217.91 Q792.027 2224.78 783.312 2224.78 Q774.597 2224.78 769.979 2217.91 Q765.396 2211 765.396 2197.91 Q765.396 2184.78 769.979 2177.91 Q774.597 2171 783.312 2171 Z" fill="#000000" fill-rule="evenodd" fill-opacity="1" /><path clip-path="url(#clip290)" d="M982.279 2198.53 L1026.79 2198.53 L1026.79 2204.44 L982.279 2204.44 L982.279 2198.53 Z" fill="#000000" fill-rule="evenodd" fill-opacity="1" /><path clip-path="url(#clip290)" d="M1043.15 2217.87 L1054.61 2217.87 L1054.61 2178.32 L1042.14 2180.82 L1042.14 2174.44 L1054.54 2171.94 L1061.55 2171.94 L1061.55 2217.87 L1073.01 2217.87 L1073.01 2223.78 L1043.15 2223.78 L1043.15 2217.87 Z" fill="#000000" fill-rule="evenodd" fill-opacity="1" /><path clip-path="url(#clip290)" d="M1102.17 2176.55 Q1096.76 2176.55 1094.01 2181.9 Q1091.31 2187.21 1091.31 2197.91 Q1091.31 2208.57 1094.01 2213.91 Q1096.76 2219.23 1102.17 2219.23 Q1107.63 2219.23 1110.33 2213.91 Q1113.08 2208.57 1113.08 2197.91 Q1113.08 2187.21 1110.33 2181.9 Q1107.63 2176.55 1102.17 2176.55 M1102.17 2171 Q1110.89 2171 1115.47 2177.91 Q1120.09 2184.78 1120.09 2197.91 Q1120.09 2211 1115.47 2217.91 Q1110.89 2224.78 1102.17 2224.78 Q1093.46 2224.78 1088.84 2217.91 Q1084.26 2211 1084.26 2197.91 Q1084.26 2184.78 1088.84 2177.91 Q1093.46 2171 1102.17 2171 Z" fill="#000000" fill-rule="evenodd" fill-opacity="1" /><path clip-path="url(#clip290)" d="M1147.42 2176.55 Q1142 2176.55 1139.26 2181.9 Q1136.55 2187.21 1136.55 2197.91 Q1136.55 2208.57 1139.26 2213.91 Q1142 2219.23 1147.42 2219.23 Q1152.87 2219.23 1155.58 2213.91 Q1158.32 2208.57 1158.32 2197.91 Q1158.32 2187.21 1155.58 2181.9 Q1152.87 2176.55 1147.42 2176.55 M1147.42 2171 Q1156.13 2171 1160.72 2177.91 Q1165.33 2184.78 1165.33 2197.91 Q1165.33 2211 1160.72 2217.91 Q1156.13 2224.78 1147.42 2224.78 Q1138.7 2224.78 1134.08 2217.91 Q1129.5 2211 1129.5 2197.91 Q1129.5 2184.78 1134.08 2177.91 Q1138.7 2171 1147.42 2171 Z" fill="#000000" fill-rule="evenodd" fill-opacity="1" /><path clip-path="url(#clip290)" d="M1369.01 2198.53 L1413.52 2198.53 L1413.52 2204.44 L1369.01 2204.44 L1369.01 2198.53 Z" fill="#000000" fill-rule="evenodd" fill-opacity="1" /><path clip-path="url(#clip290)" d="M1428.73 2171.94 L1456.26 2171.94 L1456.26 2177.84 L1435.15 2177.84 L1435.15 2190.55 Q1436.68 2190.03 1438.21 2189.78 Q1439.73 2189.51 1441.26 2189.51 Q1449.94 2189.51 1455.01 2194.26 Q1460.08 2199.02 1460.08 2207.14 Q1460.08 2215.51 1454.87 2220.16 Q1449.66 2224.78 1440.19 2224.78 Q1436.92 2224.78 1433.52 2224.23 Q1430.15 2223.67 1426.54 2222.56 L1426.54 2215.51 Q1429.66 2217.21 1433 2218.05 Q1436.33 2218.88 1440.05 2218.88 Q1446.05 2218.88 1449.56 2215.72 Q1453.07 2212.56 1453.07 2207.14 Q1453.07 2201.73 1449.56 2198.57 Q1446.05 2195.41 1440.05 2195.41 Q1437.23 2195.41 1434.42 2196.03 Q1431.64 2196.66 1428.73 2197.98 L1428.73 2171.94 Z" fill="#000000" fill-rule="evenodd" fill-opacity="1" /><path clip-path="url(#clip290)" d="M1488.9 2176.55 Q1483.48 2176.55 1480.74 2181.9 Q1478.03 2187.21 1478.03 2197.91 Q1478.03 2208.57 1480.74 2213.91 Q1483.48 2219.23 1488.9 2219.23 Q1494.35 2219.23 1497.06 2213.91 Q1499.8 2208.57 1499.8 2197.91 Q1499.8 2187.21 1497.06 2181.9 Q1494.35 2176.55 1488.9 2176.55 M1488.9 2171 Q1497.62 2171 1502.2 2177.91 Q1506.82 2184.78 1506.82 2197.91 Q1506.82 2211 1502.2 2217.91 Q1497.62 2224.78 1488.9 2224.78 Q1480.19 2224.78 1475.57 2217.91 Q1470.98 2211 1470.98 2197.91 Q1470.98 2184.78 1475.57 2177.91 Q1480.19 2171 1488.9 2171 Z" fill="#000000" fill-rule="evenodd" fill-opacity="1" /><path clip-path="url(#clip290)" d="M1802.02 2176.55 Q1796.6 2176.55 1793.86 2181.9 Q1791.15 2187.21 1791.15 2197.91 Q1791.15 2208.57 1793.86 2213.91 Q1796.6 2219.23 1802.02 2219.23 Q1807.47 2219.23 1810.18 2213.91 Q1812.92 2208.57 1812.92 2197.91 Q1812.92 2187.21 1810.18 2181.9 Q1807.47 2176.55 1802.02 2176.55 M1802.02 2171 Q1810.73 2171 1815.31 2177.91 Q1819.93 2184.78 1819.93 2197.91 Q1819.93 2211 1815.31 2217.91 Q1810.73 2224.78 1802.02 2224.78 Q1793.3 2224.78 1788.68 2217.91 Q1784.1 2211 1784.1 2197.91 Q1784.1 2184.78 1788.68 2177.91 Q1793.3 2171 1802.02 2171 Z" fill="#000000" fill-rule="evenodd" fill-opacity="1" /><path clip-path="url(#clip290)" d="M2128.17 2171.94 L2155.7 2171.94 L2155.7 2177.84 L2134.59 2177.84 L2134.59 2190.55 Q2136.12 2190.03 2137.65 2189.78 Q2139.18 2189.51 2140.7 2189.51 Q2149.39 2189.51 2154.45 2194.26 Q2159.52 2199.02 2159.52 2207.14 Q2159.52 2215.51 2154.32 2220.16 Q2149.11 2224.78 2139.63 2224.78 Q2136.36 2224.78 2132.96 2224.23 Q2129.59 2223.67 2125.98 2222.56 L2125.98 2215.51 Q2129.11 2217.21 2132.44 2218.05 Q2135.77 2218.88 2139.49 2218.88 Q2145.5 2218.88 2149 2215.72 Q2152.51 2212.56 2152.51 2207.14 Q2152.51 2201.73 2149 2198.57 Q2145.5 2195.41 2139.49 2195.41 Q2136.68 2195.41 2133.86 2196.03 Q2131.09 2196.66 2128.17 2197.98 L2128.17 2171.94 Z" fill="#000000" fill-rule="evenodd" fill-opacity="1" /><path clip-path="url(#clip290)" d="M2188.34 2176.55 Q2182.93 2176.55 2180.18 2181.9 Q2177.48 2187.21 2177.48 2197.91 Q2177.48 2208.57 2180.18 2213.91 Q2182.93 2219.23 2188.34 2219.23 Q2193.79 2219.23 2196.5 2213.91 Q2199.25 2208.57 2199.25 2197.91 Q2199.25 2187.21 2196.5 2181.9 Q2193.79 2176.55 2188.34 2176.55 M2188.34 2171 Q2197.06 2171 2201.64 2177.91 Q2206.26 2184.78 2206.26 2197.91 Q2206.26 2211 2201.64 2217.91 Q2197.06 2224.78 2188.34 2224.78 Q2179.63 2224.78 2175.01 2217.91 Q2170.43 2211 2170.43 2197.91 Q2170.43 2184.78 2175.01 2177.91 Q2179.63 2171 2188.34 2171 Z" fill="#000000" fill-rule="evenodd" fill-opacity="1" /><path clip-path="url(#clip290)" d="M2469.64 2217.87 L2481.09 2217.87 L2481.09 2178.32 L2468.63 2180.82 L2468.63 2174.44 L2481.02 2171.94 L2488.04 2171.94 L2488.04 2217.87 L2499.5 2217.87 L2499.5 2223.78 L2469.64 2223.78 L2469.64 2217.87 Z" fill="#000000" fill-rule="evenodd" fill-opacity="1" /><path clip-path="url(#clip290)" d="M2528.66 2176.55 Q2523.25 2176.55 2520.5 2181.9 Q2517.8 2187.21 2517.8 2197.91 Q2517.8 2208.57 2520.5 2213.91 Q2523.25 2219.23 2528.66 2219.23 Q2534.11 2219.23 2536.82 2213.91 Q2539.57 2208.57 2539.57 2197.91 Q2539.57 2187.21 2536.82 2181.9 Q2534.11 2176.55 2528.66 2176.55 M2528.66 2171 Q2537.38 2171 2541.96 2177.91 Q2546.58 2184.78 2546.58 2197.91 Q2546.58 2211 2541.96 2217.91 Q2537.38 2224.78 2528.66 2224.78 Q2519.95 2224.78 2515.33 2217.91 Q2510.75 2211 2510.75 2197.91 Q2510.75 2184.78 2515.33 2177.91 Q2519.95 2171 2528.66 2171 Z" fill="#000000" fill-rule="evenodd" fill-opacity="1" /><path clip-path="url(#clip290)" d="M2573.91 2176.55 Q2568.49 2176.55 2565.75 2181.9 Q2563.04 2187.21 2563.04 2197.91 Q2563.04 2208.57 2565.75 2213.91 Q2568.49 2219.23 2573.91 2219.23 Q2579.36 2219.23 2582.07 2213.91 Q2584.81 2208.57 2584.81 2197.91 Q2584.81 2187.21 2582.07 2181.9 Q2579.36 2176.55 2573.91 2176.55 M2573.91 2171 Q2582.62 2171 2587.2 2177.91 Q2591.82 2184.78 2591.82 2197.91 Q2591.82 2211 2587.2 2217.91 Q2582.62 2224.78 2573.91 2224.78 Q2565.19 2224.78 2560.57 2217.91 Q2555.99 2211 2555.99 2197.91 Q2555.99 2184.78 2560.57 2177.91 Q2565.19 2171 2573.91 2171 Z" fill="#000000" fill-rule="evenodd" fill-opacity="1" /><path clip-path="url(#clip290)" d="M2833.74 2217.87 L2845.2 2217.87 L2845.2 2178.32 L2832.73 2180.82 L2832.73 2174.44 L2845.13 2171.94 L2852.14 2171.94 L2852.14 2217.87 L2863.6 2217.87 L2863.6 2223.78 L2833.74 2223.78 L2833.74 2217.87 Z" fill="#000000" fill-rule="evenodd" fill-opacity="1" /><path clip-path="url(#clip290)" d="M2877.84 2171.94 L2905.37 2171.94 L2905.37 2177.84 L2884.26 2177.84 L2884.26 2190.55 Q2885.79 2190.03 2887.32 2189.78 Q2888.84 2189.51 2890.37 2189.51 Q2899.05 2189.51 2904.12 2194.26 Q2909.19 2199.02 2909.19 2207.14 Q2909.19 2215.51 2903.98 2220.16 Q2898.78 2224.78 2889.3 2224.78 Q2886.03 2224.78 2882.63 2224.23 Q2879.26 2223.67 2875.65 2222.56 L2875.65 2215.51 Q2878.78 2217.21 2882.11 2218.05 Q2885.44 2218.88 2889.16 2218.88 Q2895.16 2218.88 2898.67 2215.72 Q2902.18 2212.56 2902.18 2207.14 Q2902.18 2201.73 2898.67 2198.57 Q2895.16 2195.41 2889.16 2195.41 Q2886.34 2195.41 2883.53 2196.03 Q2880.75 2196.66 2877.84 2197.98 L2877.84 2171.94 Z" fill="#000000" fill-rule="evenodd" fill-opacity="1" /><path clip-path="url(#clip290)" d="M2938.01 2176.55 Q2932.59 2176.55 2929.85 2181.9 Q2927.14 2187.21 2927.14 2197.91 Q2927.14 2208.57 2929.85 2213.91 Q2932.59 2219.23 2938.01 2219.23 Q2943.46 2219.23 2946.17 2213.91 Q2948.91 2208.57 2948.91 2197.91 Q2948.91 2187.21 2946.17 2181.9 Q2943.46 2176.55 2938.01 2176.55 M2938.01 2171 Q2946.73 2171 2951.31 2177.91 Q2955.93 2184.78 2955.93 2197.91 Q2955.93 2211 2951.31 2217.91 Q2946.73 2224.78 2938.01 2224.78 Q2929.3 2224.78 2924.68 2217.91 Q2920.09 2211 2920.09 2197.91 Q2920.09 2184.78 2924.68 2177.91 Q2929.3 2171 2938.01 2171 Z" fill="#000000" fill-rule="evenodd" fill-opacity="1" /><path clip-path="url(#clip290)" d="M1667.66 2267.32 L1674.08 2267.32 L1674.08 2299.23 L1693.15 2282.46 L1701.3 2282.46 L1680.68 2300.65 L1702.17 2321.34 L1693.84 2321.34 L1674.08 2302.35 L1674.08 2321.34 L1667.66 2321.34 L1667.66 2267.32 Z" fill="#000000" fill-rule="evenodd" fill-opacity="1" /><path clip-path="url(#clip290)" d="M1705.85 2299.02 L1724.57 2299.02 L1724.57 2304.71 L1705.85 2304.71 L1705.85 2299.02 Z" fill="#000000" fill-rule="evenodd" fill-opacity="1" /><path clip-path="url(#clip290)" d="M1754.43 2267.32 L1754.43 2272.63 L1748.32 2272.63 Q1744.88 2272.63 1743.53 2274.02 Q1742.21 2275.41 1742.21 2279.02 L1742.21 2282.46 L1752.73 2282.46 L1752.73 2287.42 L1742.21 2287.42 L1742.21 2321.34 L1735.78 2321.34 L1735.78 2287.42 L1729.67 2287.42 L1729.67 2282.46 L1735.78 2282.46 L1735.78 2279.75 Q1735.78 2273.25 1738.8 2270.3 Q1741.83 2267.32 1748.39 2267.32 L1754.43 2267.32 Z" fill="#000000" fill-rule="evenodd" fill-opacity="1" /><path clip-path="url(#clip290)" d="M1777.45 2301.8 Q1769.71 2301.8 1766.72 2303.57 Q1763.74 2305.34 1763.74 2309.61 Q1763.74 2313.01 1765.96 2315.02 Q1768.21 2317 1772.07 2317 Q1777.38 2317 1780.58 2313.25 Q1783.8 2309.47 1783.8 2303.22 L1783.8 2301.8 L1777.45 2301.8 M1790.19 2299.16 L1790.19 2321.34 L1783.8 2321.34 L1783.8 2315.44 Q1781.62 2318.98 1778.35 2320.68 Q1775.09 2322.35 1770.37 2322.35 Q1764.39 2322.35 1760.85 2319.02 Q1757.35 2315.65 1757.35 2310.02 Q1757.35 2303.46 1761.72 2300.13 Q1766.13 2296.8 1774.85 2296.8 L1783.8 2296.8 L1783.8 2296.17 Q1783.8 2291.76 1780.89 2289.36 Q1778.01 2286.93 1772.76 2286.93 Q1769.43 2286.93 1766.27 2287.73 Q1763.11 2288.53 1760.19 2290.13 L1760.19 2284.23 Q1763.7 2282.87 1767 2282.21 Q1770.3 2281.52 1773.42 2281.52 Q1781.86 2281.52 1786.03 2285.89 Q1790.19 2290.27 1790.19 2299.16 Z" fill="#000000" fill-rule="evenodd" fill-opacity="1" /><path clip-path="url(#clip290)" d="M1831.34 2283.95 L1831.34 2289.92 Q1828.63 2288.43 1825.89 2287.7 Q1823.18 2286.93 1820.4 2286.93 Q1814.19 2286.93 1810.75 2290.89 Q1807.31 2294.82 1807.31 2301.93 Q1807.31 2309.05 1810.75 2313.01 Q1814.19 2316.93 1820.4 2316.93 Q1823.18 2316.93 1825.89 2316.2 Q1828.63 2315.44 1831.34 2313.95 L1831.34 2319.85 Q1828.67 2321.1 1825.78 2321.73 Q1822.94 2322.35 1819.71 2322.35 Q1810.92 2322.35 1805.75 2316.83 Q1800.58 2311.31 1800.58 2301.93 Q1800.58 2292.42 1805.78 2286.97 Q1811.03 2281.52 1820.12 2281.52 Q1823.08 2281.52 1825.89 2282.14 Q1828.7 2282.73 1831.34 2283.95 Z" fill="#000000" fill-rule="evenodd" fill-opacity="1" /><path clip-path="url(#clip290)" d="M1848.77 2271.41 L1848.77 2282.46 L1861.93 2282.46 L1861.93 2287.42 L1848.77 2287.42 L1848.77 2308.53 Q1848.77 2313.29 1850.05 2314.64 Q1851.37 2316 1855.37 2316 L1861.93 2316 L1861.93 2321.34 L1855.37 2321.34 Q1847.97 2321.34 1845.16 2318.6 Q1842.35 2315.82 1842.35 2308.53 L1842.35 2287.42 L1837.66 2287.42 L1837.66 2282.46 L1842.35 2282.46 L1842.35 2271.41 L1848.77 2271.41 Z" fill="#000000" fill-rule="evenodd" fill-opacity="1" /><path clip-path="url(#clip290)" d="M1885.4 2286.93 Q1880.26 2286.93 1877.28 2290.96 Q1874.29 2294.96 1874.29 2301.93 Q1874.29 2308.91 1877.24 2312.94 Q1880.23 2316.93 1885.4 2316.93 Q1890.51 2316.93 1893.49 2312.91 Q1896.48 2308.88 1896.48 2301.93 Q1896.48 2295.02 1893.49 2291 Q1890.51 2286.93 1885.4 2286.93 M1885.4 2281.52 Q1893.73 2281.52 1898.49 2286.93 Q1903.25 2292.35 1903.25 2301.93 Q1903.25 2311.48 1898.49 2316.93 Q1893.73 2322.35 1885.4 2322.35 Q1877.03 2322.35 1872.28 2316.93 Q1867.55 2311.48 1867.55 2301.93 Q1867.55 2292.35 1872.28 2286.93 Q1877.03 2281.52 1885.4 2281.52 Z" fill="#000000" fill-rule="evenodd" fill-opacity="1" /><path clip-path="url(#clip290)" d="M1936.37 2288.43 Q1935.3 2287.8 1934.01 2287.52 Q1932.76 2287.21 1931.23 2287.21 Q1925.82 2287.21 1922.9 2290.75 Q1920.02 2294.26 1920.02 2300.86 L1920.02 2321.34 L1913.6 2321.34 L1913.6 2282.46 L1920.02 2282.46 L1920.02 2288.5 Q1922.03 2284.96 1925.26 2283.25 Q1928.49 2281.52 1933.11 2281.52 Q1933.77 2281.52 1934.57 2281.62 Q1935.37 2281.69 1936.34 2281.86 L1936.37 2288.43 Z" fill="#000000" fill-rule="evenodd" fill-opacity="1" /><polyline clip-path="url(#clip292)" style="stroke:#222255; stroke-linecap:butt; stroke-linejoin:round; stroke-width:2; stroke-opacity:0.05; fill:none" points="
  498.521,2075.69 3105.51,2075.69 
  "/>
<polyline clip-path="url(#clip292)" style="stroke:#222255; stroke-linecap:butt; stroke-linejoin:round; stroke-width:2; stroke-opacity:0.05; fill:none" points="
  498.521,1631.62 3105.51,1631.62 
  "/>
<polyline clip-path="url(#clip292)" style="stroke:#222255; stroke-linecap:butt; stroke-linejoin:round; stroke-width:2; stroke-opacity:0.05; fill:none" points="
  498.521,1187.55 3105.51,1187.55 
  "/>
<polyline clip-path="url(#clip292)" style="stroke:#222255; stroke-linecap:butt; stroke-linejoin:round; stroke-width:2; stroke-opacity:0.05; fill:none" points="
  498.521,743.483 3105.51,743.483 
  "/>
<polyline clip-path="url(#clip292)" style="stroke:#222255; stroke-linecap:butt; stroke-linejoin:round; stroke-width:2; stroke-opacity:0.05; fill:none" points="
  498.521,299.414 3105.51,299.414 
  "/>
<polyline clip-path="url(#clip292)" style="stroke:#222255; stroke-linecap:butt; stroke-linejoin:round; stroke-width:2; stroke-opacity:0.05; fill:none" points="
  498.521,1986.87 3105.51,1986.87 
  "/>
<polyline clip-path="url(#clip292)" style="stroke:#222255; stroke-linecap:butt; stroke-linejoin:round; stroke-width:2; stroke-opacity:0.05; fill:none" points="
  498.521,1898.06 3105.51,1898.06 
  "/>
<polyline clip-path="url(#clip292)" style="stroke:#222255; stroke-linecap:butt; stroke-linejoin:round; stroke-width:2; stroke-opacity:0.05; fill:none" points="
  498.521,1809.25 3105.51,1809.25 
  "/>
<polyline clip-path="url(#clip292)" style="stroke:#222255; stroke-linecap:butt; stroke-linejoin:round; stroke-width:2; stroke-opacity:0.05; fill:none" points="
  498.521,1720.43 3105.51,1720.43 
  "/>
<polyline clip-path="url(#clip292)" style="stroke:#222255; stroke-linecap:butt; stroke-linejoin:round; stroke-width:2; stroke-opacity:0.05; fill:none" points="
  498.521,1542.81 3105.51,1542.81 
  "/>
<polyline clip-path="url(#clip292)" style="stroke:#222255; stroke-linecap:butt; stroke-linejoin:round; stroke-width:2; stroke-opacity:0.05; fill:none" points="
  498.521,1453.99 3105.51,1453.99 
  "/>
<polyline clip-path="url(#clip292)" style="stroke:#222255; stroke-linecap:butt; stroke-linejoin:round; stroke-width:2; stroke-opacity:0.05; fill:none" points="
  498.521,1365.18 3105.51,1365.18 
  "/>
<polyline clip-path="url(#clip292)" style="stroke:#222255; stroke-linecap:butt; stroke-linejoin:round; stroke-width:2; stroke-opacity:0.05; fill:none" points="
  498.521,1276.36 3105.51,1276.36 
  "/>
<polyline clip-path="url(#clip292)" style="stroke:#222255; stroke-linecap:butt; stroke-linejoin:round; stroke-width:2; stroke-opacity:0.05; fill:none" points="
  498.521,1098.74 3105.51,1098.74 
  "/>
<polyline clip-path="url(#clip292)" style="stroke:#222255; stroke-linecap:butt; stroke-linejoin:round; stroke-width:2; stroke-opacity:0.05; fill:none" points="
  498.521,1009.92 3105.51,1009.92 
  "/>
<polyline clip-path="url(#clip292)" style="stroke:#222255; stroke-linecap:butt; stroke-linejoin:round; stroke-width:2; stroke-opacity:0.05; fill:none" points="
  498.521,921.11 3105.51,921.11 
  "/>
<polyline clip-path="url(#clip292)" style="stroke:#222255; stroke-linecap:butt; stroke-linejoin:round; stroke-width:2; stroke-opacity:0.05; fill:none" points="
  498.521,832.296 3105.51,832.296 
  "/>
<polyline clip-path="url(#clip292)" style="stroke:#222255; stroke-linecap:butt; stroke-linejoin:round; stroke-width:2; stroke-opacity:0.05; fill:none" points="
  498.521,654.669 3105.51,654.669 
  "/>
<polyline clip-path="url(#clip292)" style="stroke:#222255; stroke-linecap:butt; stroke-linejoin:round; stroke-width:2; stroke-opacity:0.05; fill:none" points="
  498.521,565.855 3105.51,565.855 
  "/>
<polyline clip-path="url(#clip292)" style="stroke:#222255; stroke-linecap:butt; stroke-linejoin:round; stroke-width:2; stroke-opacity:0.05; fill:none" points="
  498.521,477.042 3105.51,477.042 
  "/>
<polyline clip-path="url(#clip292)" style="stroke:#222255; stroke-linecap:butt; stroke-linejoin:round; stroke-width:2; stroke-opacity:0.05; fill:none" points="
  498.521,388.228 3105.51,388.228 
  "/>
<polyline clip-path="url(#clip292)" style="stroke:#222255; stroke-linecap:butt; stroke-linejoin:round; stroke-width:2; stroke-opacity:0.05; fill:none" points="
  498.521,210.601 3105.51,210.601 
  "/>
<polyline clip-path="url(#clip292)" style="stroke:#222255; stroke-linecap:butt; stroke-linejoin:round; stroke-width:2; stroke-opacity:0.05; fill:none" points="
  498.521,121.787 3105.51,121.787 
  "/>
<polyline clip-path="url(#clip290)" style="stroke:#000000; stroke-linecap:butt; stroke-linejoin:round; stroke-width:4; stroke-opacity:1; fill:none" points="
  498.521,2133.38 498.521,94.4882 
  "/>
<polyline clip-path="url(#clip290)" style="stroke:#000000; stroke-linecap:butt; stroke-linejoin:round; stroke-width:4; stroke-opacity:1; fill:none" points="
  3105.51,2133.38 3105.51,94.4882 
  "/>
<polyline clip-path="url(#clip290)" style="stroke:#000000; stroke-linecap:butt; stroke-linejoin:round; stroke-width:4; stroke-opacity:1; fill:none" points="
  498.521,2075.69 517.418,2075.69 
  "/>
<polyline clip-path="url(#clip290)" style="stroke:#000000; stroke-linecap:butt; stroke-linejoin:round; stroke-width:4; stroke-opacity:1; fill:none" points="
  498.521,1631.62 517.418,1631.62 
  "/>
<polyline clip-path="url(#clip290)" style="stroke:#000000; stroke-linecap:butt; stroke-linejoin:round; stroke-width:4; stroke-opacity:1; fill:none" points="
  498.521,1187.55 517.418,1187.55 
  "/>
<polyline clip-path="url(#clip290)" style="stroke:#000000; stroke-linecap:butt; stroke-linejoin:round; stroke-width:4; stroke-opacity:1; fill:none" points="
  498.521,743.483 517.418,743.483 
  "/>
<polyline clip-path="url(#clip290)" style="stroke:#000000; stroke-linecap:butt; stroke-linejoin:round; stroke-width:4; stroke-opacity:1; fill:none" points="
  498.521,299.414 517.418,299.414 
  "/>
<polyline clip-path="url(#clip290)" style="stroke:#000000; stroke-linecap:butt; stroke-linejoin:round; stroke-width:4; stroke-opacity:1; fill:none" points="
  498.521,1986.87 507.969,1986.87 
  "/>
<polyline clip-path="url(#clip290)" style="stroke:#000000; stroke-linecap:butt; stroke-linejoin:round; stroke-width:4; stroke-opacity:1; fill:none" points="
  498.521,1898.06 507.969,1898.06 
  "/>
<polyline clip-path="url(#clip290)" style="stroke:#000000; stroke-linecap:butt; stroke-linejoin:round; stroke-width:4; stroke-opacity:1; fill:none" points="
  498.521,1809.25 507.969,1809.25 
  "/>
<polyline clip-path="url(#clip290)" style="stroke:#000000; stroke-linecap:butt; stroke-linejoin:round; stroke-width:4; stroke-opacity:1; fill:none" points="
  498.521,1720.43 507.969,1720.43 
  "/>
<polyline clip-path="url(#clip290)" style="stroke:#000000; stroke-linecap:butt; stroke-linejoin:round; stroke-width:4; stroke-opacity:1; fill:none" points="
  498.521,1542.81 507.969,1542.81 
  "/>
<polyline clip-path="url(#clip290)" style="stroke:#000000; stroke-linecap:butt; stroke-linejoin:round; stroke-width:4; stroke-opacity:1; fill:none" points="
  498.521,1453.99 507.969,1453.99 
  "/>
<polyline clip-path="url(#clip290)" style="stroke:#000000; stroke-linecap:butt; stroke-linejoin:round; stroke-width:4; stroke-opacity:1; fill:none" points="
  498.521,1365.18 507.969,1365.18 
  "/>
<polyline clip-path="url(#clip290)" style="stroke:#000000; stroke-linecap:butt; stroke-linejoin:round; stroke-width:4; stroke-opacity:1; fill:none" points="
  498.521,1276.36 507.969,1276.36 
  "/>
<polyline clip-path="url(#clip290)" style="stroke:#000000; stroke-linecap:butt; stroke-linejoin:round; stroke-width:4; stroke-opacity:1; fill:none" points="
  498.521,1098.74 507.969,1098.74 
  "/>
<polyline clip-path="url(#clip290)" style="stroke:#000000; stroke-linecap:butt; stroke-linejoin:round; stroke-width:4; stroke-opacity:1; fill:none" points="
  498.521,1009.92 507.969,1009.92 
  "/>
<polyline clip-path="url(#clip290)" style="stroke:#000000; stroke-linecap:butt; stroke-linejoin:round; stroke-width:4; stroke-opacity:1; fill:none" points="
  498.521,921.11 507.969,921.11 
  "/>
<polyline clip-path="url(#clip290)" style="stroke:#000000; stroke-linecap:butt; stroke-linejoin:round; stroke-width:4; stroke-opacity:1; fill:none" points="
  498.521,832.296 507.969,832.296 
  "/>
<polyline clip-path="url(#clip290)" style="stroke:#000000; stroke-linecap:butt; stroke-linejoin:round; stroke-width:4; stroke-opacity:1; fill:none" points="
  498.521,654.669 507.969,654.669 
  "/>
<polyline clip-path="url(#clip290)" style="stroke:#000000; stroke-linecap:butt; stroke-linejoin:round; stroke-width:4; stroke-opacity:1; fill:none" points="
  498.521,565.855 507.969,565.855 
  "/>
<polyline clip-path="url(#clip290)" style="stroke:#000000; stroke-linecap:butt; stroke-linejoin:round; stroke-width:4; stroke-opacity:1; fill:none" points="
  498.521,477.042 507.969,477.042 
  "/>
<polyline clip-path="url(#clip290)" style="stroke:#000000; stroke-linecap:butt; stroke-linejoin:round; stroke-width:4; stroke-opacity:1; fill:none" points="
  498.521,388.228 507.969,388.228 
  "/>
<polyline clip-path="url(#clip290)" style="stroke:#000000; stroke-linecap:butt; stroke-linejoin:round; stroke-width:4; stroke-opacity:1; fill:none" points="
  498.521,210.601 507.969,210.601 
  "/>
<polyline clip-path="url(#clip290)" style="stroke:#000000; stroke-linecap:butt; stroke-linejoin:round; stroke-width:4; stroke-opacity:1; fill:none" points="
  498.521,121.787 507.969,121.787 
  "/>
<path clip-path="url(#clip290)" d="M432.604 2054.38 Q427.187 2054.38 424.444 2059.73 Q421.736 2065.04 421.736 2075.74 Q421.736 2086.4 424.444 2091.75 Q427.187 2097.06 432.604 2097.06 Q438.055 2097.06 440.764 2091.75 Q443.507 2086.4 443.507 2075.74 Q443.507 2065.04 440.764 2059.73 Q438.055 2054.38 432.604 2054.38 M432.604 2048.83 Q441.319 2048.83 445.903 2055.74 Q450.521 2062.61 450.521 2075.74 Q450.521 2088.83 445.903 2095.74 Q441.319 2102.61 432.604 2102.61 Q423.889 2102.61 419.271 2095.74 Q414.687 2088.83 414.687 2075.74 Q414.687 2062.61 419.271 2055.74 Q423.889 2048.83 432.604 2048.83 Z" fill="#000000" fill-rule="evenodd" fill-opacity="1" /><path clip-path="url(#clip290)" d="M178.478 1661.31 L202.957 1661.31 L202.957 1667.21 L170.04 1667.21 L170.04 1661.31 Q174.033 1657.18 180.908 1650.23 Q187.818 1643.25 189.589 1641.24 Q192.957 1637.45 194.276 1634.85 Q195.63 1632.21 195.63 1629.68 Q195.63 1625.54 192.714 1622.94 Q189.832 1620.34 185.179 1620.34 Q181.881 1620.34 178.2 1621.48 Q174.554 1622.63 170.388 1624.95 L170.388 1617.87 Q174.624 1616.17 178.304 1615.3 Q181.985 1614.43 185.04 1614.43 Q193.096 1614.43 197.887 1618.46 Q202.679 1622.49 202.679 1629.22 Q202.679 1632.42 201.464 1635.3 Q200.283 1638.15 197.124 1642.04 Q196.255 1643.04 191.603 1647.87 Q186.95 1652.66 178.478 1661.31 Z" fill="#000000" fill-rule="evenodd" fill-opacity="1" /><path clip-path="url(#clip290)" d="M217.679 1658.39 L225.005 1658.39 L225.005 1667.21 L217.679 1667.21 L217.679 1658.39 Z" fill="#000000" fill-rule="evenodd" fill-opacity="1" /><path clip-path="url(#clip290)" d="M255.283 1619.99 Q249.866 1619.99 247.123 1625.34 Q244.415 1630.65 244.415 1641.34 Q244.415 1652 247.123 1657.35 Q249.866 1662.66 255.283 1662.66 Q260.734 1662.66 263.443 1657.35 Q266.186 1652 266.186 1641.34 Q266.186 1630.65 263.443 1625.34 Q260.734 1619.99 255.283 1619.99 M255.283 1614.43 Q263.998 1614.43 268.581 1621.34 Q273.2 1628.22 273.2 1641.34 Q273.2 1654.43 268.581 1661.34 Q263.998 1668.22 255.283 1668.22 Q246.568 1668.22 241.95 1661.34 Q237.366 1654.43 237.366 1641.34 Q237.366 1628.22 241.95 1621.34 Q246.568 1614.43 255.283 1614.43 Z" fill="#000000" fill-rule="evenodd" fill-opacity="1" /><path clip-path="url(#clip290)" d="M327.783 1629.02 L311.915 1644.95 L327.783 1660.82 L323.651 1665.02 L307.713 1649.09 L291.776 1665.02 L287.679 1660.82 L303.512 1644.95 L287.679 1629.02 L291.776 1624.81 L307.713 1640.75 L323.651 1624.81 L327.783 1629.02 Z" fill="#000000" fill-rule="evenodd" fill-opacity="1" /><path clip-path="url(#clip290)" d="M346.324 1661.31 L357.782 1661.31 L357.782 1621.76 L345.317 1624.26 L345.317 1617.87 L357.713 1615.37 L364.727 1615.37 L364.727 1661.31 L376.185 1661.31 L376.185 1667.21 L346.324 1667.21 L346.324 1661.31 Z" fill="#000000" fill-rule="evenodd" fill-opacity="1" /><path clip-path="url(#clip290)" d="M405.352 1619.99 Q399.935 1619.99 397.192 1625.34 Q394.484 1630.65 394.484 1641.34 Q394.484 1652 397.192 1657.35 Q399.935 1662.66 405.352 1662.66 Q410.803 1662.66 413.511 1657.35 Q416.254 1652 416.254 1641.34 Q416.254 1630.65 413.511 1625.34 Q410.803 1619.99 405.352 1619.99 M405.352 1614.43 Q414.067 1614.43 418.65 1621.34 Q423.268 1628.22 423.268 1641.34 Q423.268 1654.43 418.65 1661.34 Q414.067 1668.22 405.352 1668.22 Q396.636 1668.22 392.018 1661.34 Q387.435 1654.43 387.435 1641.34 Q387.435 1628.22 392.018 1621.34 Q396.636 1614.43 405.352 1614.43 Z" fill="#000000" fill-rule="evenodd" fill-opacity="1" /><path clip-path="url(#clip290)" d="M425.045 1583.97 L447.417 1583.97 L447.417 1588.77 L430.265 1588.77 L430.265 1599.1 Q431.506 1598.67 432.747 1598.48 Q433.989 1598.25 435.23 1598.25 Q442.283 1598.25 446.402 1602.11 Q450.521 1605.98 450.521 1612.58 Q450.521 1619.38 446.289 1623.16 Q442.057 1626.91 434.355 1626.91 Q431.703 1626.91 428.939 1626.46 Q426.202 1626.01 423.268 1625.11 L423.268 1619.38 Q425.807 1620.76 428.516 1621.44 Q431.224 1622.12 434.242 1622.12 Q439.123 1622.12 441.972 1619.55 Q444.822 1616.98 444.822 1612.58 Q444.822 1608.18 441.972 1605.61 Q439.123 1603.05 434.242 1603.05 Q431.957 1603.05 429.672 1603.55 Q427.415 1604.06 425.045 1605.13 L425.045 1583.97 Z" fill="#000000" fill-rule="evenodd" fill-opacity="1" /><path clip-path="url(#clip290)" d="M191.707 1177.41 L173.999 1205.09 L191.707 1205.09 L191.707 1177.41 M189.867 1171.3 L198.686 1171.3 L198.686 1205.09 L206.082 1205.09 L206.082 1210.92 L198.686 1210.92 L198.686 1223.14 L191.707 1223.14 L191.707 1210.92 L168.304 1210.92 L168.304 1204.15 L189.867 1171.3 Z" fill="#000000" fill-rule="evenodd" fill-opacity="1" /><path clip-path="url(#clip290)" d="M217.679 1214.32 L225.005 1214.32 L225.005 1223.14 L217.679 1223.14 L217.679 1214.32 Z" fill="#000000" fill-rule="evenodd" fill-opacity="1" /><path clip-path="url(#clip290)" d="M255.283 1175.92 Q249.866 1175.92 247.123 1181.27 Q244.415 1186.58 244.415 1197.27 Q244.415 1207.93 247.123 1213.28 Q249.866 1218.59 255.283 1218.59 Q260.734 1218.59 263.443 1213.28 Q266.186 1207.93 266.186 1197.27 Q266.186 1186.58 263.443 1181.27 Q260.734 1175.92 255.283 1175.92 M255.283 1170.36 Q263.998 1170.36 268.581 1177.27 Q273.2 1184.15 273.2 1197.27 Q273.2 1210.36 268.581 1217.27 Q263.998 1224.15 255.283 1224.15 Q246.568 1224.15 241.95 1217.27 Q237.366 1210.36 237.366 1197.27 Q237.366 1184.15 241.95 1177.27 Q246.568 1170.36 255.283 1170.36 Z" fill="#000000" fill-rule="evenodd" fill-opacity="1" /><path clip-path="url(#clip290)" d="M327.783 1184.95 L311.915 1200.89 L327.783 1216.75 L323.651 1220.95 L307.713 1205.02 L291.776 1220.95 L287.679 1216.75 L303.512 1200.89 L287.679 1184.95 L291.776 1180.75 L307.713 1196.68 L323.651 1180.75 L327.783 1184.95 Z" fill="#000000" fill-rule="evenodd" fill-opacity="1" /><path clip-path="url(#clip290)" d="M346.324 1217.24 L357.782 1217.24 L357.782 1177.69 L345.317 1180.19 L345.317 1173.8 L357.713 1171.3 L364.727 1171.3 L364.727 1217.24 L376.185 1217.24 L376.185 1223.14 L346.324 1223.14 L346.324 1217.24 Z" fill="#000000" fill-rule="evenodd" fill-opacity="1" /><path clip-path="url(#clip290)" d="M405.352 1175.92 Q399.935 1175.92 397.192 1181.27 Q394.484 1186.58 394.484 1197.27 Q394.484 1207.93 397.192 1213.28 Q399.935 1218.59 405.352 1218.59 Q410.803 1218.59 413.511 1213.28 Q416.254 1207.93 416.254 1197.27 Q416.254 1186.58 413.511 1181.27 Q410.803 1175.92 405.352 1175.92 M405.352 1170.36 Q414.067 1170.36 418.65 1177.27 Q423.268 1184.15 423.268 1197.27 Q423.268 1210.36 418.65 1217.27 Q414.067 1224.15 405.352 1224.15 Q396.636 1224.15 392.018 1217.27 Q387.435 1210.36 387.435 1197.27 Q387.435 1184.15 392.018 1177.27 Q396.636 1170.36 405.352 1170.36 Z" fill="#000000" fill-rule="evenodd" fill-opacity="1" /><path clip-path="url(#clip290)" d="M425.045 1139.91 L447.417 1139.91 L447.417 1144.7 L430.265 1144.7 L430.265 1155.03 Q431.506 1154.6 432.747 1154.41 Q433.989 1154.18 435.23 1154.18 Q442.283 1154.18 446.402 1158.05 Q450.521 1161.91 450.521 1168.51 Q450.521 1175.31 446.289 1179.09 Q442.057 1182.84 434.355 1182.84 Q431.703 1182.84 428.939 1182.39 Q426.202 1181.94 423.268 1181.04 L423.268 1175.31 Q425.807 1176.69 428.516 1177.37 Q431.224 1178.05 434.242 1178.05 Q439.123 1178.05 441.972 1175.48 Q444.822 1172.91 444.822 1168.51 Q444.822 1164.11 441.972 1161.54 Q439.123 1158.98 434.242 1158.98 Q431.957 1158.98 429.672 1159.49 Q427.415 1159.99 425.045 1161.07 L425.045 1139.91 Z" fill="#000000" fill-rule="evenodd" fill-opacity="1" /><path clip-path="url(#clip290)" d="M188.304 750.359 Q183.582 750.359 180.804 753.588 Q178.061 756.817 178.061 762.442 Q178.061 768.032 180.804 771.296 Q183.582 774.525 188.304 774.525 Q193.026 774.525 195.769 771.296 Q198.547 768.032 198.547 762.442 Q198.547 756.817 195.769 753.588 Q193.026 750.359 188.304 750.359 M202.228 728.38 L202.228 734.769 Q199.589 733.519 196.88 732.859 Q194.207 732.199 191.568 732.199 Q184.624 732.199 180.943 736.887 Q177.297 741.574 176.776 751.053 Q178.825 748.032 181.915 746.435 Q185.006 744.803 188.721 744.803 Q196.533 744.803 201.047 749.56 Q205.596 754.282 205.596 762.442 Q205.596 770.428 200.874 775.255 Q196.151 780.081 188.304 780.081 Q179.311 780.081 174.554 773.206 Q169.797 766.296 169.797 753.206 Q169.797 740.914 175.631 733.623 Q181.464 726.296 191.29 726.296 Q193.929 726.296 196.603 726.817 Q199.311 727.338 202.228 728.38 Z" fill="#000000" fill-rule="evenodd" fill-opacity="1" /><path clip-path="url(#clip290)" d="M217.679 770.255 L225.005 770.255 L225.005 779.074 L217.679 779.074 L217.679 770.255 Z" fill="#000000" fill-rule="evenodd" fill-opacity="1" /><path clip-path="url(#clip290)" d="M255.283 731.852 Q249.866 731.852 247.123 737.199 Q244.415 742.512 244.415 753.206 Q244.415 763.866 247.123 769.213 Q249.866 774.525 255.283 774.525 Q260.734 774.525 263.443 769.213 Q266.186 763.866 266.186 753.206 Q266.186 742.512 263.443 737.199 Q260.734 731.852 255.283 731.852 M255.283 726.296 Q263.998 726.296 268.581 733.206 Q273.2 740.081 273.2 753.206 Q273.2 766.296 268.581 773.206 Q263.998 780.081 255.283 780.081 Q246.568 780.081 241.95 773.206 Q237.366 766.296 237.366 753.206 Q237.366 740.081 241.95 733.206 Q246.568 726.296 255.283 726.296 Z" fill="#000000" fill-rule="evenodd" fill-opacity="1" /><path clip-path="url(#clip290)" d="M327.783 740.88 L311.915 756.817 L327.783 772.685 L323.651 776.886 L307.713 760.949 L291.776 776.886 L287.679 772.685 L303.512 756.817 L287.679 740.88 L291.776 736.678 L307.713 752.616 L323.651 736.678 L327.783 740.88 Z" fill="#000000" fill-rule="evenodd" fill-opacity="1" /><path clip-path="url(#clip290)" d="M346.324 773.171 L357.782 773.171 L357.782 733.623 L345.317 736.123 L345.317 729.734 L357.713 727.234 L364.727 727.234 L364.727 773.171 L376.185 773.171 L376.185 779.074 L346.324 779.074 L346.324 773.171 Z" fill="#000000" fill-rule="evenodd" fill-opacity="1" /><path clip-path="url(#clip290)" d="M405.352 731.852 Q399.935 731.852 397.192 737.199 Q394.484 742.512 394.484 753.206 Q394.484 763.866 397.192 769.213 Q399.935 774.525 405.352 774.525 Q410.803 774.525 413.511 769.213 Q416.254 763.866 416.254 753.206 Q416.254 742.512 413.511 737.199 Q410.803 731.852 405.352 731.852 M405.352 726.296 Q414.067 726.296 418.65 733.206 Q423.268 740.081 423.268 753.206 Q423.268 766.296 418.65 773.206 Q414.067 780.081 405.352 780.081 Q396.636 780.081 392.018 773.206 Q387.435 766.296 387.435 753.206 Q387.435 740.081 392.018 733.206 Q396.636 726.296 405.352 726.296 Z" fill="#000000" fill-rule="evenodd" fill-opacity="1" /><path clip-path="url(#clip290)" d="M425.045 695.838 L447.417 695.838 L447.417 700.634 L430.265 700.634 L430.265 710.96 Q431.506 710.537 432.747 710.339 Q433.989 710.113 435.23 710.113 Q442.283 710.113 446.402 713.978 Q450.521 717.843 450.521 724.445 Q450.521 731.244 446.289 735.024 Q442.057 738.777 434.355 738.777 Q431.703 738.777 428.939 738.325 Q426.202 737.874 423.268 736.971 L423.268 731.244 Q425.807 732.626 428.516 733.303 Q431.224 733.981 434.242 733.981 Q439.123 733.981 441.972 731.413 Q444.822 728.846 444.822 724.445 Q444.822 720.044 441.972 717.477 Q439.123 714.909 434.242 714.909 Q431.957 714.909 429.672 715.417 Q427.415 715.925 425.045 716.997 L425.045 695.838 Z" fill="#000000" fill-rule="evenodd" fill-opacity="1" /><path clip-path="url(#clip290)" d="M187.436 310.388 Q182.436 310.388 179.554 313.062 Q176.707 315.735 176.707 320.423 Q176.707 325.11 179.554 327.784 Q182.436 330.457 187.436 330.457 Q192.436 330.457 195.318 327.784 Q198.2 325.075 198.2 320.423 Q198.2 315.735 195.318 313.062 Q192.471 310.388 187.436 310.388 M180.422 307.402 Q175.908 306.291 173.374 303.2 Q170.874 300.11 170.874 295.666 Q170.874 289.451 175.283 285.839 Q179.728 282.228 187.436 282.228 Q195.179 282.228 199.589 285.839 Q203.999 289.451 203.999 295.666 Q203.999 300.11 201.464 303.2 Q198.964 306.291 194.485 307.402 Q199.554 308.582 202.367 312.02 Q205.214 315.457 205.214 320.423 Q205.214 327.957 200.596 331.985 Q196.012 336.013 187.436 336.013 Q178.86 336.013 174.242 331.985 Q169.658 327.957 169.658 320.423 Q169.658 315.457 172.506 312.02 Q175.353 308.582 180.422 307.402 M177.853 296.326 Q177.853 300.353 180.353 302.61 Q182.888 304.867 187.436 304.867 Q191.95 304.867 194.485 302.61 Q197.054 300.353 197.054 296.326 Q197.054 292.298 194.485 290.041 Q191.95 287.784 187.436 287.784 Q182.888 287.784 180.353 290.041 Q177.853 292.298 177.853 296.326 Z" fill="#000000" fill-rule="evenodd" fill-opacity="1" /><path clip-path="url(#clip290)" d="M217.679 326.186 L225.005 326.186 L225.005 335.006 L217.679 335.006 L217.679 326.186 Z" fill="#000000" fill-rule="evenodd" fill-opacity="1" /><path clip-path="url(#clip290)" d="M255.283 287.784 Q249.866 287.784 247.123 293.131 Q244.415 298.444 244.415 309.138 Q244.415 319.798 247.123 325.145 Q249.866 330.457 255.283 330.457 Q260.734 330.457 263.443 325.145 Q266.186 319.798 266.186 309.138 Q266.186 298.444 263.443 293.131 Q260.734 287.784 255.283 287.784 M255.283 282.228 Q263.998 282.228 268.581 289.138 Q273.2 296.013 273.2 309.138 Q273.2 322.228 268.581 329.138 Q263.998 336.013 255.283 336.013 Q246.568 336.013 241.95 329.138 Q237.366 322.228 237.366 309.138 Q237.366 296.013 241.95 289.138 Q246.568 282.228 255.283 282.228 Z" fill="#000000" fill-rule="evenodd" fill-opacity="1" /><path clip-path="url(#clip290)" d="M327.783 296.812 L311.915 312.749 L327.783 328.617 L323.651 332.818 L307.713 316.881 L291.776 332.818 L287.679 328.617 L303.512 312.749 L287.679 296.812 L291.776 292.61 L307.713 308.548 L323.651 292.61 L327.783 296.812 Z" fill="#000000" fill-rule="evenodd" fill-opacity="1" /><path clip-path="url(#clip290)" d="M346.324 329.103 L357.782 329.103 L357.782 289.555 L345.317 292.055 L345.317 285.666 L357.713 283.166 L364.727 283.166 L364.727 329.103 L376.185 329.103 L376.185 335.006 L346.324 335.006 L346.324 329.103 Z" fill="#000000" fill-rule="evenodd" fill-opacity="1" /><path clip-path="url(#clip290)" d="M405.352 287.784 Q399.935 287.784 397.192 293.131 Q394.484 298.444 394.484 309.138 Q394.484 319.798 397.192 325.145 Q399.935 330.457 405.352 330.457 Q410.803 330.457 413.511 325.145 Q416.254 319.798 416.254 309.138 Q416.254 298.444 413.511 293.131 Q410.803 287.784 405.352 287.784 M405.352 282.228 Q414.067 282.228 418.65 289.138 Q423.268 296.013 423.268 309.138 Q423.268 322.228 418.65 329.138 Q414.067 336.013 405.352 336.013 Q396.636 336.013 392.018 329.138 Q387.435 322.228 387.435 309.138 Q387.435 296.013 392.018 289.138 Q396.636 282.228 405.352 282.228 Z" fill="#000000" fill-rule="evenodd" fill-opacity="1" /><path clip-path="url(#clip290)" d="M425.045 251.77 L447.417 251.77 L447.417 256.566 L430.265 256.566 L430.265 266.892 Q431.506 266.469 432.747 266.271 Q433.989 266.045 435.23 266.045 Q442.283 266.045 446.402 269.91 Q450.521 273.775 450.521 280.377 Q450.521 287.176 446.289 290.956 Q442.057 294.708 434.355 294.708 Q431.703 294.708 428.939 294.257 Q426.202 293.806 423.268 292.903 L423.268 287.176 Q425.807 288.558 428.516 289.235 Q431.224 289.912 434.242 289.912 Q439.123 289.912 441.972 287.345 Q444.822 284.778 444.822 280.377 Q444.822 275.976 441.972 273.409 Q439.123 270.841 434.242 270.841 Q431.957 270.841 429.672 271.349 Q427.415 271.857 425.045 272.929 L425.045 251.77 Z" fill="#000000" fill-rule="evenodd" fill-opacity="1" /><path clip-path="url(#clip290)" d="M84.8565 1151.45 Q77.9121 1151.45 74.0927 1154.33 Q70.2733 1157.18 70.2733 1162.35 Q70.2733 1167.49 74.0927 1170.37 Q77.9121 1173.22 84.8565 1173.22 Q91.7662 1173.22 95.5856 1170.37 Q99.4051 1167.49 99.4051 1162.35 Q99.4051 1157.18 95.5856 1154.33 Q91.7662 1151.45 84.8565 1151.45 M99.9259 1145.06 Q109.856 1145.06 114.683 1149.47 Q119.544 1153.88 119.544 1162.98 Q119.544 1166.34 119.023 1169.33 Q118.537 1172.32 117.495 1175.13 L111.28 1175.13 Q112.808 1172.32 113.537 1169.57 Q114.266 1166.83 114.266 1163.98 Q114.266 1157.7 110.967 1154.57 Q107.704 1151.45 101.072 1151.45 L97.912 1151.45 Q101.349 1153.43 103.051 1156.52 Q104.752 1159.61 104.752 1163.91 Q104.752 1171.07 99.3009 1175.44 Q93.8495 1179.82 84.8565 1179.82 Q75.8288 1179.82 70.3774 1175.44 Q64.9261 1171.07 64.9261 1163.91 Q64.9261 1159.61 66.6275 1156.52 Q68.3288 1153.43 71.7663 1151.45 L65.8636 1151.45 L65.8636 1145.06 L99.9259 1145.06 Z" fill="#000000" fill-rule="evenodd" fill-opacity="1" /><path clip-path="url(#clip290)" d="M50.7942 1116.55 Q58.7803 1121.21 66.5927 1123.46 Q74.4052 1125.72 82.426 1125.72 Q90.4468 1125.72 98.3287 1123.46 Q106.176 1121.17 114.127 1116.55 L114.127 1122.11 Q105.968 1127.32 98.0856 1129.92 Q90.2037 1132.49 82.426 1132.49 Q74.683 1132.49 66.8358 1129.92 Q58.9886 1127.35 50.7942 1122.11 L50.7942 1116.55 Z" fill="#000000" fill-rule="evenodd" fill-opacity="1" /><path clip-path="url(#clip290)" d="M50.7248 1104.4 L50.7248 1097.98 L82.6343 1097.98 L65.8636 1078.91 L65.8636 1070.76 L84.0579 1091.38 L104.752 1069.89 L104.752 1078.22 L85.7593 1097.98 L104.752 1097.98 L104.752 1104.4 L50.7248 1104.4 Z" fill="#000000" fill-rule="evenodd" fill-opacity="1" /><path clip-path="url(#clip290)" d="M50.7942 1063.98 L50.7942 1058.43 Q58.9886 1053.22 66.8358 1050.65 Q74.683 1048.05 82.426 1048.05 Q90.2037 1048.05 98.0856 1050.65 Q105.968 1053.22 114.127 1058.43 L114.127 1063.98 Q106.176 1059.37 98.3287 1057.11 Q90.4468 1054.82 82.426 1054.82 Q74.4052 1054.82 66.5927 1057.11 Q58.7803 1059.37 50.7942 1063.98 Z" fill="#000000" fill-rule="evenodd" fill-opacity="1" /><polyline clip-path="url(#clip292)" style="stroke:#ee7733; stroke-linecap:butt; stroke-linejoin:round; stroke-width:4.8; stroke-opacity:1; fill:none" points="
  3076.38,2074.85 3039.97,2072.43 3003.56,2068.56 2967.15,2062.92 2930.74,2055.66 2894.33,2046.9 2857.92,2037.22 2821.51,2025.62 2785.1,2012.02 2748.69,1997.19 
  2712.28,1980.21 2675.87,1961.59 2639.46,1941.33 2603.05,1919.27 2566.64,1896.07 2530.23,1869.62 2493.82,1841.26 2457.41,1808.96 2420.99,1775.43 2384.58,1736.02 
  2348.17,1693.62 2311.76,1645.01 2275.35,1589.71 2238.94,1527.11 2202.53,1457.86 2166.12,1376.41 2129.71,1281.38 2093.3,1172.56 2056.89,1049.26 2020.48,919.7 
  1984.07,777.269 1947.66,633.394 1911.25,485.646 1874.84,350.842 1838.43,220.566 1802.02,152.193 1765.61,199.202 1729.2,324.349 1692.78,471.351 1656.37,631.38 
  1619.96,796.502 1583.55,961.012 1547.14,1110 1510.73,1243.71 1474.32,1361.68 1437.91,1460.17 1401.5,1544.99 1365.09,1616.93 1328.68,1682.22 1292.27,1732.39 
  1255.86,1779.1 1219.45,1819.29 1183.04,1853.67 1146.63,1884.29 1110.22,1910.74 1073.81,1935.84 1037.4,1956.96 1000.99,1976.7 964.575,1992.01 928.164,2007.44 
  891.754,2021.3 855.343,2032.78 818.933,2043.02 782.522,2051.9 746.112,2059.08 709.701,2065.02 673.291,2069.54 636.88,2072.41 600.47,2074.43 564.06,2075.25 
  527.649,2075.62 
  "/>
<polyline clip-path="url(#clip292)" style="stroke:#0077bb; stroke-linecap:butt; stroke-linejoin:round; stroke-width:4.8; stroke-opacity:1; fill:none" points="
  3076.38,2075.55 3039.97,2075.08 3003.56,2074.31 2967.15,2073.16 2930.74,2071.62 2894.33,2069.76 2857.92,2067.65 2821.51,2065.36 2785.1,2062.07 2748.69,2058.47 
  2712.28,2054.23 2675.87,2049.11 2639.46,2043.76 2603.05,2037.48 2566.64,2030.37 2530.23,2022.27 2493.82,2012.57 2457.41,2001.87 2420.99,1990.99 2384.58,1977.34 
  2348.17,1963.06 2311.76,1946.28 2275.35,1927.58 2238.94,1905.45 2202.53,1880.19 2166.12,1851.48 2129.71,1814.87 2093.3,1773.51 2056.89,1722.81 2020.48,1668.81 
  1984.07,1608.23 1947.66,1543.05 1911.25,1476.6 1874.84,1414.05 1838.43,1351.88 1802.02,1317.64 1765.61,1339.25 1729.2,1401.21 1692.78,1471.08 1656.37,1543.2 
  1619.96,1615.37 1583.55,1683.26 1547.14,1747.47 1510.73,1798.84 1474.32,1843.67 1437.91,1878.73 1401.5,1908.81 1365.09,1932.62 1328.68,1954.76 1292.27,1970.91 
  1255.86,1987.33 1219.45,2000.17 1183.04,2011.29 1146.63,2021.33 1110.22,2030.01 1073.81,2038.15 1037.4,2044.04 1000.99,2049.97 964.575,2054.79 928.164,2059.04 
  891.754,2062.79 855.343,2065.95 818.933,2067.82 782.522,2070.45 746.112,2071.83 709.701,2073.4 673.291,2074.3 636.88,2074.92 600.47,2075.38 564.06,2075.57 
  527.649,2075.67 
  "/>
<path clip-path="url(#clip290)" d="
M2064.28 356.851 L3018.61 356.851 L3018.61 162.451 L2064.28 162.451  Z
  " fill="#ffffff" fill-rule="evenodd" fill-opacity="0.9"/>
<polyline clip-path="url(#clip290)" style="stroke:#222255; stroke-linecap:butt; stroke-linejoin:round; stroke-width:4; stroke-opacity:0.1; fill:none" points="
  2064.28,356.851 3018.61,356.851 3018.61,162.451 2064.28,162.451 2064.28,356.851 
  "/>
<polyline clip-path="url(#clip290)" style="stroke:#ee7733; stroke-linecap:butt; stroke-linejoin:round; stroke-width:5; stroke-opacity:1; fill:none" points="
  2093.25,227.251 2267.05,227.251 
  "/>
<path clip-path="url(#clip290)" d="M2319.65 232.271 Q2319.65 226.484 2317.25 223.301 Q2314.88 220.119 2310.57 220.119 Q2306.28 220.119 2303.88 223.301 Q2301.51 226.484 2301.51 232.271 Q2301.51 238.029 2303.88 241.212 Q2306.28 244.395 2310.57 244.395 Q2314.88 244.395 2317.25 241.212 Q2319.65 238.029 2319.65 232.271 M2324.98 244.829 Q2324.98 253.105 2321.3 257.127 Q2317.63 261.177 2310.05 261.177 Q2307.24 261.177 2304.75 260.743 Q2302.26 260.338 2299.92 259.47 L2299.92 254.291 Q2302.26 255.564 2304.55 256.172 Q2306.83 256.779 2309.21 256.779 Q2314.44 256.779 2317.05 254.03 Q2319.65 251.311 2319.65 245.784 L2319.65 243.151 Q2318 246.015 2315.43 247.433 Q2312.85 248.851 2309.26 248.851 Q2303.3 248.851 2299.66 244.308 Q2296.01 239.766 2296.01 232.271 Q2296.01 224.748 2299.66 220.205 Q2303.3 215.663 2309.26 215.663 Q2312.85 215.663 2315.43 217.08 Q2318 218.498 2319.65 221.363 L2319.65 216.444 L2324.98 216.444 L2324.98 244.829 Z" fill="#000000" fill-rule="evenodd" fill-opacity="1" /><path clip-path="url(#clip290)" d="M2334.87 245.668 L2340.77 245.668 L2340.77 227.989 L2334.32 229.175 L2334.32 225.819 L2340.98 224.69 L2344.94 224.69 L2344.94 245.668 L2350.87 245.668 L2350.87 248.851 L2334.87 248.851 L2334.87 245.668 Z" fill="#000000" fill-rule="evenodd" fill-opacity="1" /><path clip-path="url(#clip290)" d="M2372.49 203.886 Q2368.61 210.541 2366.73 217.052 Q2364.85 223.562 2364.85 230.246 Q2364.85 236.93 2366.73 243.498 Q2368.64 250.037 2372.49 256.664 L2367.86 256.664 Q2363.52 249.864 2361.35 243.296 Q2359.21 236.727 2359.21 230.246 Q2359.21 223.793 2361.35 217.254 Q2363.49 210.715 2367.86 203.886 L2372.49 203.886 Z" fill="#000000" fill-rule="evenodd" fill-opacity="1" /><path clip-path="url(#clip290)" d="M2382.61 203.828 L2387.97 203.828 L2387.97 230.419 L2403.85 216.444 L2410.65 216.444 L2393.47 231.606 L2411.38 248.851 L2404.43 248.851 L2387.97 233.024 L2387.97 248.851 L2382.61 248.851 L2382.61 203.828 Z" fill="#000000" fill-rule="evenodd" fill-opacity="1" /><path clip-path="url(#clip290)" d="M2416.3 203.886 L2420.92 203.886 Q2425.27 210.715 2427.41 217.254 Q2429.58 223.793 2429.58 230.246 Q2429.58 236.727 2427.41 243.296 Q2425.27 249.864 2420.92 256.664 L2416.3 256.664 Q2420.14 250.037 2422.02 243.498 Q2423.93 236.93 2423.93 230.246 Q2423.93 223.562 2422.02 217.052 Q2420.14 210.541 2416.3 203.886 Z" fill="#000000" fill-rule="evenodd" fill-opacity="1" /><polyline clip-path="url(#clip290)" style="stroke:#0077bb; stroke-linecap:butt; stroke-linejoin:round; stroke-width:5; stroke-opacity:1; fill:none" points="
  2093.25,292.051 2267.05,292.051 
  "/>
<path clip-path="url(#clip290)" d="M2319.65 297.071 Q2319.65 291.284 2317.25 288.101 Q2314.88 284.919 2310.57 284.919 Q2306.28 284.919 2303.88 288.101 Q2301.51 291.284 2301.51 297.071 Q2301.51 302.829 2303.88 306.012 Q2306.28 309.195 2310.57 309.195 Q2314.88 309.195 2317.25 306.012 Q2319.65 302.829 2319.65 297.071 M2324.98 309.629 Q2324.98 317.905 2321.3 321.927 Q2317.63 325.977 2310.05 325.977 Q2307.24 325.977 2304.75 325.543 Q2302.26 325.138 2299.92 324.27 L2299.92 319.091 Q2302.26 320.364 2304.55 320.972 Q2306.83 321.579 2309.21 321.579 Q2314.44 321.579 2317.05 318.83 Q2319.65 316.111 2319.65 310.584 L2319.65 307.951 Q2318 310.815 2315.43 312.233 Q2312.85 313.651 2309.26 313.651 Q2303.3 313.651 2299.66 309.108 Q2296.01 304.566 2296.01 297.071 Q2296.01 289.548 2299.66 285.005 Q2303.3 280.463 2309.26 280.463 Q2312.85 280.463 2315.43 281.88 Q2318 283.298 2319.65 286.163 L2319.65 281.244 L2324.98 281.244 L2324.98 309.629 Z" fill="#000000" fill-rule="evenodd" fill-opacity="1" /><path clip-path="url(#clip290)" d="M2338.11 310.353 L2350.38 310.353 L2350.38 313.651 L2333.08 313.651 L2333.08 310.468 Q2334.06 309.571 2335.88 307.951 Q2345.84 299.126 2345.84 296.406 Q2345.84 294.496 2344.33 293.339 Q2342.83 292.152 2340.37 292.152 Q2338.87 292.152 2337.1 292.673 Q2335.34 293.165 2333.25 294.178 L2333.25 290.619 Q2335.48 289.809 2337.39 289.404 Q2339.33 288.998 2340.98 288.998 Q2345.17 288.998 2347.69 290.908 Q2350.21 292.818 2350.21 295.943 Q2350.21 299.965 2340.63 308.182 Q2339.01 309.571 2338.11 310.353 Z" fill="#000000" fill-rule="evenodd" fill-opacity="1" /><path clip-path="url(#clip290)" d="M2372.49 268.686 Q2368.61 275.341 2366.73 281.852 Q2364.85 288.362 2364.85 295.046 Q2364.85 301.73 2366.73 308.298 Q2368.64 314.837 2372.49 321.464 L2367.86 321.464 Q2363.52 314.664 2361.35 308.096 Q2359.21 301.527 2359.21 295.046 Q2359.21 288.593 2361.35 282.054 Q2363.49 275.515 2367.86 268.686 L2372.49 268.686 Z" fill="#000000" fill-rule="evenodd" fill-opacity="1" /><path clip-path="url(#clip290)" d="M2382.61 268.628 L2387.97 268.628 L2387.97 295.219 L2403.85 281.244 L2410.65 281.244 L2393.47 296.406 L2411.38 313.651 L2404.43 313.651 L2387.97 297.824 L2387.97 313.651 L2382.61 313.651 L2382.61 268.628 Z" fill="#000000" fill-rule="evenodd" fill-opacity="1" /><path clip-path="url(#clip290)" d="M2416.3 268.686 L2420.92 268.686 Q2425.27 275.515 2427.41 282.054 Q2429.58 288.593 2429.58 295.046 Q2429.58 301.527 2427.41 308.096 Q2425.27 314.664 2420.92 321.464 L2416.3 321.464 Q2420.14 314.837 2422.02 308.298 Q2423.93 301.73 2423.93 295.046 Q2423.93 288.362 2422.02 281.852 Q2420.14 275.341 2416.3 268.686 Z" fill="#000000" fill-rule="evenodd" fill-opacity="1" /><path clip-path="url(#clip290)" d="M2441.61 306.302 L2447.72 306.302 L2447.72 311.278 L2442.97 320.538 L2439.24 320.538 L2441.61 311.278 L2441.61 306.302 Z" fill="#000000" fill-rule="evenodd" fill-opacity="1" /><path clip-path="url(#clip290)" d="M2478.16 270.451 L2505.47 270.451 L2505.47 275.37 L2484 275.37 L2484 288.159 L2504.58 288.159 L2504.58 293.078 L2484 293.078 L2484 308.732 L2505.99 308.732 L2505.99 313.651 L2478.16 313.651 L2478.16 270.451 Z" fill="#000000" fill-rule="evenodd" fill-opacity="1" /><path clip-path="url(#clip290)" d="M2538.55 295.509 Q2538.75 297.65 2540.57 301.122 Q2542.71 305.144 2546.76 307.401 Q2550.73 309.6 2555.01 309.629 L2575.18 309.629 L2575.18 314.23 L2555.01 314.23 Q2549.45 314.23 2544.3 311.365 Q2539.18 308.501 2536.43 303.408 Q2533.68 298.316 2533.68 292.905 Q2533.68 287.552 2536.43 282.459 Q2539.18 277.367 2544.3 274.473 Q2549.45 271.58 2555.01 271.58 L2575.18 271.58 L2575.18 276.18 L2555.01 276.18 Q2550.73 276.209 2546.76 278.437 Q2542.74 280.723 2540.57 284.716 Q2538.72 288.188 2538.46 290.879 L2575.18 290.879 L2575.18 295.509 L2538.55 295.509 Z" fill="#000000" fill-rule="evenodd" fill-opacity="1" /><path clip-path="url(#clip290)" d="M2617.45 268.686 Q2613.57 275.341 2611.69 281.852 Q2609.81 288.362 2609.81 295.046 Q2609.81 301.73 2611.69 308.298 Q2613.6 314.837 2617.45 321.464 L2612.82 321.464 Q2608.48 314.664 2606.31 308.096 Q2604.17 301.527 2604.17 295.046 Q2604.17 288.593 2606.31 282.054 Q2608.45 275.515 2612.82 268.686 L2617.45 268.686 Z" fill="#000000" fill-rule="evenodd" fill-opacity="1" /><path clip-path="url(#clip290)" d="M2646.24 290.358 Q2650.44 291.255 2652.78 294.091 Q2655.15 296.927 2655.15 301.093 Q2655.15 307.488 2650.76 310.989 Q2646.36 314.49 2638.26 314.49 Q2635.54 314.49 2632.64 313.94 Q2629.78 313.42 2626.71 312.349 L2626.71 306.707 Q2629.14 308.125 2632.03 308.848 Q2634.93 309.571 2638.08 309.571 Q2643.58 309.571 2646.44 307.401 Q2649.34 305.231 2649.34 301.093 Q2649.34 297.274 2646.65 295.133 Q2643.99 292.963 2639.21 292.963 L2634.18 292.963 L2634.18 288.159 L2639.44 288.159 Q2643.75 288.159 2646.04 286.452 Q2648.33 284.716 2648.33 281.475 Q2648.33 278.148 2645.95 276.383 Q2643.61 274.589 2639.21 274.589 Q2636.81 274.589 2634.06 275.11 Q2631.31 275.63 2628.01 276.73 L2628.01 271.522 Q2631.34 270.596 2634.23 270.133 Q2637.16 269.67 2639.73 269.67 Q2646.39 269.67 2650.26 272.708 Q2654.14 275.717 2654.14 280.868 Q2654.14 284.456 2652.09 286.944 Q2650.03 289.404 2646.24 290.358 Z" fill="#000000" fill-rule="evenodd" fill-opacity="1" /><path clip-path="url(#clip290)" d="M2678.74 274.299 Q2674.22 274.299 2671.94 278.755 Q2669.68 283.183 2669.68 292.095 Q2669.68 300.978 2671.94 305.434 Q2674.22 309.861 2678.74 309.861 Q2683.28 309.861 2685.54 305.434 Q2687.82 300.978 2687.82 292.095 Q2687.82 283.183 2685.54 278.755 Q2683.28 274.299 2678.74 274.299 M2678.74 269.67 Q2686 269.67 2689.82 275.428 Q2693.67 281.157 2693.67 292.095 Q2693.67 303.003 2689.82 308.761 Q2686 314.49 2678.74 314.49 Q2671.47 314.49 2667.62 308.761 Q2663.81 303.003 2663.81 292.095 Q2663.81 281.157 2667.62 275.428 Q2671.47 269.67 2678.74 269.67 Z" fill="#000000" fill-rule="evenodd" fill-opacity="1" /><path clip-path="url(#clip290)" d="M2716.44 274.299 Q2711.92 274.299 2709.64 278.755 Q2707.38 283.183 2707.38 292.095 Q2707.38 300.978 2709.64 305.434 Q2711.92 309.861 2716.44 309.861 Q2720.98 309.861 2723.24 305.434 Q2725.52 300.978 2725.52 292.095 Q2725.52 283.183 2723.24 278.755 Q2720.98 274.299 2716.44 274.299 M2716.44 269.67 Q2723.7 269.67 2727.52 275.428 Q2731.37 281.157 2731.37 292.095 Q2731.37 303.003 2727.52 308.761 Q2723.7 314.49 2716.44 314.49 Q2709.18 314.49 2705.33 308.761 Q2701.51 303.003 2701.51 292.095 Q2701.51 281.157 2705.33 275.428 Q2709.18 269.67 2716.44 269.67 Z" fill="#000000" fill-rule="evenodd" fill-opacity="1" /><path clip-path="url(#clip290)" d="M2754.14 274.299 Q2749.63 274.299 2747.34 278.755 Q2745.08 283.183 2745.08 292.095 Q2745.08 300.978 2747.34 305.434 Q2749.63 309.861 2754.14 309.861 Q2758.68 309.861 2760.94 305.434 Q2763.23 300.978 2763.23 292.095 Q2763.23 283.183 2760.94 278.755 Q2758.68 274.299 2754.14 274.299 M2754.14 269.67 Q2761.4 269.67 2765.22 275.428 Q2769.07 281.157 2769.07 292.095 Q2769.07 303.003 2765.22 308.761 Q2761.4 314.49 2754.14 314.49 Q2746.88 314.49 2743.03 308.761 Q2739.21 303.003 2739.21 292.095 Q2739.21 281.157 2743.03 275.428 Q2746.88 269.67 2754.14 269.67 Z" fill="#000000" fill-rule="evenodd" fill-opacity="1" /><path clip-path="url(#clip290)" d="M2779.95 306.302 L2786.06 306.302 L2786.06 311.278 L2781.31 320.538 L2777.58 320.538 L2779.95 311.278 L2779.95 306.302 Z" fill="#000000" fill-rule="evenodd" fill-opacity="1" /><path clip-path="url(#clip290)" d="M2815.89 290.358 Q2820.08 291.255 2822.43 294.091 Q2824.8 296.927 2824.8 301.093 Q2824.8 307.488 2820.4 310.989 Q2816 314.49 2807.9 314.49 Q2805.18 314.49 2802.29 313.94 Q2799.42 313.42 2796.36 312.349 L2796.36 306.707 Q2798.79 308.125 2801.68 308.848 Q2804.57 309.571 2807.73 309.571 Q2813.23 309.571 2816.09 307.401 Q2818.98 305.231 2818.98 301.093 Q2818.98 297.274 2816.29 295.133 Q2813.63 292.963 2808.86 292.963 L2803.82 292.963 L2803.82 288.159 L2809.09 288.159 Q2813.4 288.159 2815.69 286.452 Q2817.97 284.716 2817.97 281.475 Q2817.97 278.148 2815.6 276.383 Q2813.25 274.589 2808.86 274.589 Q2806.46 274.589 2803.71 275.11 Q2800.96 275.63 2797.66 276.73 L2797.66 271.522 Q2800.99 270.596 2803.88 270.133 Q2806.8 269.67 2809.38 269.67 Q2816.03 269.67 2819.91 272.708 Q2823.79 275.717 2823.79 280.868 Q2823.79 284.456 2821.73 286.944 Q2819.68 289.404 2815.89 290.358 Z" fill="#000000" fill-rule="evenodd" fill-opacity="1" /><path clip-path="url(#clip290)" d="M2835.94 270.451 L2858.89 270.451 L2858.89 275.37 L2841.29 275.37 L2841.29 285.96 Q2842.57 285.526 2843.84 285.324 Q2845.11 285.092 2846.39 285.092 Q2853.62 285.092 2857.84 289.056 Q2862.07 293.02 2862.07 299.791 Q2862.07 306.765 2857.73 310.642 Q2853.39 314.49 2845.49 314.49 Q2842.77 314.49 2839.93 314.027 Q2837.13 313.564 2834.12 312.638 L2834.12 306.765 Q2836.72 308.182 2839.5 308.877 Q2842.28 309.571 2845.37 309.571 Q2850.38 309.571 2853.3 306.938 Q2856.22 304.305 2856.22 299.791 Q2856.22 295.277 2853.3 292.644 Q2850.38 290.011 2845.37 290.011 Q2843.03 290.011 2840.69 290.532 Q2838.37 291.053 2835.94 292.152 L2835.94 270.451 Z" fill="#000000" fill-rule="evenodd" fill-opacity="1" /><path clip-path="url(#clip290)" d="M2886.08 274.299 Q2881.57 274.299 2879.28 278.755 Q2877.03 283.183 2877.03 292.095 Q2877.03 300.978 2879.28 305.434 Q2881.57 309.861 2886.08 309.861 Q2890.63 309.861 2892.88 305.434 Q2895.17 300.978 2895.17 292.095 Q2895.17 283.183 2892.88 278.755 Q2890.63 274.299 2886.08 274.299 M2886.08 269.67 Q2893.35 269.67 2897.17 275.428 Q2901.01 281.157 2901.01 292.095 Q2901.01 303.003 2897.17 308.761 Q2893.35 314.49 2886.08 314.49 Q2878.82 314.49 2874.97 308.761 Q2871.15 303.003 2871.15 292.095 Q2871.15 281.157 2874.97 275.428 Q2878.82 269.67 2886.08 269.67 Z" fill="#000000" fill-rule="evenodd" fill-opacity="1" /><path clip-path="url(#clip290)" d="M2923.79 274.299 Q2919.27 274.299 2916.99 278.755 Q2914.73 283.183 2914.73 292.095 Q2914.73 300.978 2916.99 305.434 Q2919.27 309.861 2923.79 309.861 Q2928.33 309.861 2930.59 305.434 Q2932.87 300.978 2932.87 292.095 Q2932.87 283.183 2930.59 278.755 Q2928.33 274.299 2923.79 274.299 M2923.79 269.67 Q2931.05 269.67 2934.87 275.428 Q2938.72 281.157 2938.72 292.095 Q2938.72 303.003 2934.87 308.761 Q2931.05 314.49 2923.79 314.49 Q2916.52 314.49 2912.68 308.761 Q2908.86 303.003 2908.86 292.095 Q2908.86 281.157 2912.68 275.428 Q2916.52 269.67 2923.79 269.67 Z" fill="#000000" fill-rule="evenodd" fill-opacity="1" /><path clip-path="url(#clip290)" d="M2947.4 268.686 L2952.03 268.686 Q2956.37 275.515 2958.51 282.054 Q2960.68 288.593 2960.68 295.046 Q2960.68 301.527 2958.51 308.096 Q2956.37 314.664 2952.03 321.464 L2947.4 321.464 Q2951.25 314.837 2953.13 308.298 Q2955.04 301.73 2955.04 295.046 Q2955.04 288.362 2953.13 281.852 Q2951.25 275.341 2947.4 268.686 Z" fill="#000000" fill-rule="evenodd" fill-opacity="1" /></svg>
