<?xml version="1.0" encoding="utf-8"?>
<svg xmlns="http://www.w3.org/2000/svg" xmlns:xlink="http://www.w3.org/1999/xlink" width="800" height="800" viewBox="0 0 3200 3200">
<defs>
  <clipPath id="clip500">
    <rect x="0" y="0" width="3200" height="3200"/>
  </clipPath>
</defs>
<path clip-path="url(#clip500)" d="
M0 3200 L3200 3200 L3200 0 L0 0  Z
  " fill="#ffffff" fill-rule="evenodd" fill-opacity="1"/>
<defs>
  <clipPath id="clip501">
    <rect x="640" y="320" width="2241" height="2241"/>
  </clipPath>
</defs>
<path clip-path="url(#clip500)" d="
M396.536 2829.08 L3011.7 2829.08 L3011.7 213.916 L396.536 213.916  Z
  " fill="#ffffff" fill-rule="evenodd" fill-opacity="1"/>
<defs>
  <clipPath id="clip502">
    <rect x="396" y="213" width="2616" height="2616"/>
  </clipPath>
</defs>
<polyline clip-path="url(#clip502)" style="stroke:#000000; stroke-linecap:butt; stroke-linejoin:round; stroke-width:2.8; stroke-opacity:0.4; fill:none" points="
  396.536,2829.08 396.536,213.916 
  "/>
<polyline clip-path="url(#clip502)" style="stroke:#000000; stroke-linecap:butt; stroke-linejoin:round; stroke-width:2.8; stroke-opacity:0.4; fill:none" points="
  832.396,2829.08 832.396,213.916 
  "/>
<polyline clip-path="url(#clip502)" style="stroke:#000000; stroke-linecap:butt; stroke-linejoin:round; stroke-width:2.8; stroke-opacity:0.4; fill:none" points="
  1268.26,2829.08 1268.26,213.916 
  "/>
<polyline clip-path="url(#clip502)" style="stroke:#000000; stroke-linecap:butt; stroke-linejoin:round; stroke-width:2.8; stroke-opacity:0.4; fill:none" points="
  1704.12,2829.08 1704.12,213.916 
  "/>
<polyline clip-path="url(#clip502)" style="stroke:#000000; stroke-linecap:butt; stroke-linejoin:round; stroke-width:2.8; stroke-opacity:0.4; fill:none" points="
  2139.98,2829.08 2139.98,213.916 
  "/>
<polyline clip-path="url(#clip502)" style="stroke:#000000; stroke-linecap:butt; stroke-linejoin:round; stroke-width:2.8; stroke-opacity:0.4; fill:none" points="
  2575.84,2829.08 2575.84,213.916 
  "/>
<polyline clip-path="url(#clip502)" style="stroke:#000000; stroke-linecap:butt; stroke-linejoin:round; stroke-width:2.8; stroke-opacity:0.4; fill:none" points="
  3011.7,2829.08 3011.7,213.916 
  "/>
<polyline clip-path="url(#clip502)" style="stroke:#000000; stroke-linecap:butt; stroke-linejoin:round; stroke-width:2; stroke-opacity:0.06; fill:none" points="
  483.708,2829.08 483.708,213.916 
  "/>
<polyline clip-path="url(#clip502)" style="stroke:#000000; stroke-linecap:butt; stroke-linejoin:round; stroke-width:2; stroke-opacity:0.06; fill:none" points="
  570.88,2829.08 570.88,213.916 
  "/>
<polyline clip-path="url(#clip502)" style="stroke:#000000; stroke-linecap:butt; stroke-linejoin:round; stroke-width:2; stroke-opacity:0.06; fill:none" points="
  658.052,2829.08 658.052,213.916 
  "/>
<polyline clip-path="url(#clip502)" style="stroke:#000000; stroke-linecap:butt; stroke-linejoin:round; stroke-width:2; stroke-opacity:0.06; fill:none" points="
  745.224,2829.08 745.224,213.916 
  "/>
<polyline clip-path="url(#clip502)" style="stroke:#000000; stroke-linecap:butt; stroke-linejoin:round; stroke-width:2; stroke-opacity:0.06; fill:none" points="
  919.568,2829.08 919.568,213.916 
  "/>
<polyline clip-path="url(#clip502)" style="stroke:#000000; stroke-linecap:butt; stroke-linejoin:round; stroke-width:2; stroke-opacity:0.06; fill:none" points="
  1006.74,2829.08 1006.74,213.916 
  "/>
<polyline clip-path="url(#clip502)" style="stroke:#000000; stroke-linecap:butt; stroke-linejoin:round; stroke-width:2; stroke-opacity:0.06; fill:none" points="
  1093.91,2829.08 1093.91,213.916 
  "/>
<polyline clip-path="url(#clip502)" style="stroke:#000000; stroke-linecap:butt; stroke-linejoin:round; stroke-width:2; stroke-opacity:0.06; fill:none" points="
  1181.08,2829.08 1181.08,213.916 
  "/>
<polyline clip-path="url(#clip502)" style="stroke:#000000; stroke-linecap:butt; stroke-linejoin:round; stroke-width:2; stroke-opacity:0.06; fill:none" points="
  1355.43,2829.08 1355.43,213.916 
  "/>
<polyline clip-path="url(#clip502)" style="stroke:#000000; stroke-linecap:butt; stroke-linejoin:round; stroke-width:2; stroke-opacity:0.06; fill:none" points="
  1442.6,2829.08 1442.6,213.916 
  "/>
<polyline clip-path="url(#clip502)" style="stroke:#000000; stroke-linecap:butt; stroke-linejoin:round; stroke-width:2; stroke-opacity:0.06; fill:none" points="
  1529.77,2829.08 1529.77,213.916 
  "/>
<polyline clip-path="url(#clip502)" style="stroke:#000000; stroke-linecap:butt; stroke-linejoin:round; stroke-width:2; stroke-opacity:0.06; fill:none" points="
  1616.95,2829.08 1616.95,213.916 
  "/>
<polyline clip-path="url(#clip502)" style="stroke:#000000; stroke-linecap:butt; stroke-linejoin:round; stroke-width:2; stroke-opacity:0.06; fill:none" points="
  1791.29,2829.08 1791.29,213.916 
  "/>
<polyline clip-path="url(#clip502)" style="stroke:#000000; stroke-linecap:butt; stroke-linejoin:round; stroke-width:2; stroke-opacity:0.06; fill:none" points="
  1878.46,2829.08 1878.46,213.916 
  "/>
<polyline clip-path="url(#clip502)" style="stroke:#000000; stroke-linecap:butt; stroke-linejoin:round; stroke-width:2; stroke-opacity:0.06; fill:none" points="
  1965.63,2829.08 1965.63,213.916 
  "/>
<polyline clip-path="url(#clip502)" style="stroke:#000000; stroke-linecap:butt; stroke-linejoin:round; stroke-width:2; stroke-opacity:0.06; fill:none" points="
  2052.81,2829.08 2052.81,213.916 
  "/>
<polyline clip-path="url(#clip502)" style="stroke:#000000; stroke-linecap:butt; stroke-linejoin:round; stroke-width:2; stroke-opacity:0.06; fill:none" points="
  2227.15,2829.08 2227.15,213.916 
  "/>
<polyline clip-path="url(#clip502)" style="stroke:#000000; stroke-linecap:butt; stroke-linejoin:round; stroke-width:2; stroke-opacity:0.06; fill:none" points="
  2314.32,2829.08 2314.32,213.916 
  "/>
<polyline clip-path="url(#clip502)" style="stroke:#000000; stroke-linecap:butt; stroke-linejoin:round; stroke-width:2; stroke-opacity:0.06; fill:none" points="
  2401.49,2829.08 2401.49,213.916 
  "/>
<polyline clip-path="url(#clip502)" style="stroke:#000000; stroke-linecap:butt; stroke-linejoin:round; stroke-width:2; stroke-opacity:0.06; fill:none" points="
  2488.67,2829.08 2488.67,213.916 
  "/>
<polyline clip-path="url(#clip502)" style="stroke:#000000; stroke-linecap:butt; stroke-linejoin:round; stroke-width:2; stroke-opacity:0.06; fill:none" points="
  2663.01,2829.08 2663.01,213.916 
  "/>
<polyline clip-path="url(#clip502)" style="stroke:#000000; stroke-linecap:butt; stroke-linejoin:round; stroke-width:2; stroke-opacity:0.06; fill:none" points="
  2750.18,2829.08 2750.18,213.916 
  "/>
<polyline clip-path="url(#clip502)" style="stroke:#000000; stroke-linecap:butt; stroke-linejoin:round; stroke-width:2; stroke-opacity:0.06; fill:none" points="
  2837.35,2829.08 2837.35,213.916 
  "/>
<polyline clip-path="url(#clip502)" style="stroke:#000000; stroke-linecap:butt; stroke-linejoin:round; stroke-width:2; stroke-opacity:0.06; fill:none" points="
  2924.53,2829.08 2924.53,213.916 
  "/>
<polyline clip-path="url(#clip500)" style="stroke:#000000; stroke-linecap:butt; stroke-linejoin:round; stroke-width:4; stroke-opacity:1; fill:none" points="
  396.536,2829.08 3011.7,2829.08 
  "/>
<polyline clip-path="url(#clip500)" style="stroke:#000000; stroke-linecap:butt; stroke-linejoin:round; stroke-width:4; stroke-opacity:1; fill:none" points="
  396.536,213.916 3011.7,213.916 
  "/>
<polyline clip-path="url(#clip500)" style="stroke:#000000; stroke-linecap:butt; stroke-linejoin:round; stroke-width:4; stroke-opacity:1; fill:none" points="
  396.536,2829.08 396.536,2810.18 
  "/>
<polyline clip-path="url(#clip500)" style="stroke:#000000; stroke-linecap:butt; stroke-linejoin:round; stroke-width:4; stroke-opacity:1; fill:none" points="
  832.396,2829.08 832.396,2810.18 
  "/>
<polyline clip-path="url(#clip500)" style="stroke:#000000; stroke-linecap:butt; stroke-linejoin:round; stroke-width:4; stroke-opacity:1; fill:none" points="
  1268.26,2829.08 1268.26,2810.18 
  "/>
<polyline clip-path="url(#clip500)" style="stroke:#000000; stroke-linecap:butt; stroke-linejoin:round; stroke-width:4; stroke-opacity:1; fill:none" points="
  1704.12,2829.08 1704.12,2810.18 
  "/>
<polyline clip-path="url(#clip500)" style="stroke:#000000; stroke-linecap:butt; stroke-linejoin:round; stroke-width:4; stroke-opacity:1; fill:none" points="
  2139.98,2829.08 2139.98,2810.18 
  "/>
<polyline clip-path="url(#clip500)" style="stroke:#000000; stroke-linecap:butt; stroke-linejoin:round; stroke-width:4; stroke-opacity:1; fill:none" points="
  2575.84,2829.08 2575.84,2810.18 
  "/>
<polyline clip-path="url(#clip500)" style="stroke:#000000; stroke-linecap:butt; stroke-linejoin:round; stroke-width:4; stroke-opacity:1; fill:none" points="
  3011.7,2829.08 3011.7,2810.18 
  "/>
<polyline clip-path="url(#clip500)" style="stroke:#000000; stroke-linecap:butt; stroke-linejoin:round; stroke-width:4; stroke-opacity:1; fill:none" points="
  483.708,2829.08 483.708,2819.63 
  "/>
<polyline clip-path="url(#clip500)" style="stroke:#000000; stroke-linecap:butt; stroke-linejoin:round; stroke-width:4; stroke-opacity:1; fill:none" points="
  570.88,2829.08 570.88,2819.63 
  "/>
<polyline clip-path="url(#clip500)" style="stroke:#000000; stroke-linecap:butt; stroke-linejoin:round; stroke-width:4; stroke-opacity:1; fill:none" points="
  658.052,2829.08 658.052,2819.63 
  "/>
<polyline clip-path="url(#clip500)" style="stroke:#000000; stroke-linecap:butt; stroke-linejoin:round; stroke-width:4; stroke-opacity:1; fill:none" points="
  745.224,2829.08 745.224,2819.63 
  "/>
<polyline clip-path="url(#clip500)" style="stroke:#000000; stroke-linecap:butt; stroke-linejoin:round; stroke-width:4; stroke-opacity:1; fill:none" points="
  919.568,2829.08 919.568,2819.63 
  "/>
<polyline clip-path="url(#clip500)" style="stroke:#000000; stroke-linecap:butt; stroke-linejoin:round; stroke-width:4; stroke-opacity:1; fill:none" points="
  1006.74,2829.08 1006.74,2819.63 
  "/>
<polyline clip-path="url(#clip500)" style="stroke:#000000; stroke-linecap:butt; stroke-linejoin:round; stroke-width:4; stroke-opacity:1; fill:none" points="
  1093.91,2829.08 1093.91,2819.63 
  "/>
<polyline clip-path="url(#clip500)" style="stroke:#000000; stroke-linecap:butt; stroke-linejoin:round; stroke-width:4; stroke-opacity:1; fill:none" points="
  1181.08,2829.08 1181.08,2819.63 
  "/>
<polyline clip-path="url(#clip500)" style="stroke:#000000; stroke-linecap:butt; stroke-linejoin:round; stroke-width:4; stroke-opacity:1; fill:none" points="
  1355.43,2829.08 1355.43,2819.63 
  "/>
<polyline clip-path="url(#clip500)" style="stroke:#000000; stroke-linecap:butt; stroke-linejoin:round; stroke-width:4; stroke-opacity:1; fill:none" points="
  1442.6,2829.08 1442.6,2819.63 
  "/>
<polyline clip-path="url(#clip500)" style="stroke:#000000; stroke-linecap:butt; stroke-linejoin:round; stroke-width:4; stroke-opacity:1; fill:none" points="
  1529.77,2829.08 1529.77,2819.63 
  "/>
<polyline clip-path="url(#clip500)" style="stroke:#000000; stroke-linecap:butt; stroke-linejoin:round; stroke-width:4; stroke-opacity:1; fill:none" points="
  1616.95,2829.08 1616.95,2819.63 
  "/>
<polyline clip-path="url(#clip500)" style="stroke:#000000; stroke-linecap:butt; stroke-linejoin:round; stroke-width:4; stroke-opacity:1; fill:none" points="
  1791.29,2829.08 1791.29,2819.63 
  "/>
<polyline clip-path="url(#clip500)" style="stroke:#000000; stroke-linecap:butt; stroke-linejoin:round; stroke-width:4; stroke-opacity:1; fill:none" points="
  1878.46,2829.08 1878.46,2819.63 
  "/>
<polyline clip-path="url(#clip500)" style="stroke:#000000; stroke-linecap:butt; stroke-linejoin:round; stroke-width:4; stroke-opacity:1; fill:none" points="
  1965.63,2829.08 1965.63,2819.63 
  "/>
<polyline clip-path="url(#clip500)" style="stroke:#000000; stroke-linecap:butt; stroke-linejoin:round; stroke-width:4; stroke-opacity:1; fill:none" points="
  2052.81,2829.08 2052.81,2819.63 
  "/>
<polyline clip-path="url(#clip500)" style="stroke:#000000; stroke-linecap:butt; stroke-linejoin:round; stroke-width:4; stroke-opacity:1; fill:none" points="
  2227.15,2829.08 2227.15,2819.63 
  "/>
<polyline clip-path="url(#clip500)" style="stroke:#000000; stroke-linecap:butt; stroke-linejoin:round; stroke-width:4; stroke-opacity:1; fill:none" points="
  2314.32,2829.08 2314.32,2819.63 
  "/>
<polyline clip-path="url(#clip500)" style="stroke:#000000; stroke-linecap:butt; stroke-linejoin:round; stroke-width:4; stroke-opacity:1; fill:none" points="
  2401.49,2829.08 2401.49,2819.63 
  "/>
<polyline clip-path="url(#clip500)" style="stroke:#000000; stroke-linecap:butt; stroke-linejoin:round; stroke-width:4; stroke-opacity:1; fill:none" points="
  2488.67,2829.08 2488.67,2819.63 
  "/>
<polyline clip-path="url(#clip500)" style="stroke:#000000; stroke-linecap:butt; stroke-linejoin:round; stroke-width:4; stroke-opacity:1; fill:none" points="
  2663.01,2829.08 2663.01,2819.63 
  "/>
<polyline clip-path="url(#clip500)" style="stroke:#000000; stroke-linecap:butt; stroke-linejoin:round; stroke-width:4; stroke-opacity:1; fill:none" points="
  2750.18,2829.08 2750.18,2819.63 
  "/>
<polyline clip-path="url(#clip500)" style="stroke:#000000; stroke-linecap:butt; stroke-linejoin:round; stroke-width:4; stroke-opacity:1; fill:none" points="
  2837.35,2829.08 2837.35,2819.63 
  "/>
<polyline clip-path="url(#clip500)" style="stroke:#000000; stroke-linecap:butt; stroke-linejoin:round; stroke-width:4; stroke-opacity:1; fill:none" points="
  2924.53,2829.08 2924.53,2819.63 
  "/>
<path clip-path="url(#clip500)" d="M380.565 2895.21 Q380.565 2884.06 383.381 2877.98 Q387.309 2868.94 396.573 2868.94 Q398.536 2868.94 400.575 2869.49 Q402.65 2870.01 405.243 2872.05 Q407.874 2874.09 409.468 2877.42 Q412.506 2883.87 412.506 2895.21 Q412.506 2906.29 409.69 2912.33 Q405.577 2921.15 396.498 2921.15 Q393.089 2921.15 389.606 2919.41 Q386.16 2917.66 383.974 2913.48 Q380.565 2907.21 380.565 2895.21 M386.864 2894.28 Q386.864 2905.73 387.679 2910.29 Q388.606 2915.22 391.125 2917.37 Q393.682 2919.48 396.498 2919.48 Q399.537 2919.48 402.057 2917.22 Q404.614 2914.92 405.392 2909.99 Q406.244 2905.14 406.207 2894.28 Q406.207 2883.72 405.466 2879.5 Q404.465 2874.57 401.797 2872.61 Q399.166 2870.6 396.498 2870.6 Q395.498 2870.6 394.423 2870.9 Q393.386 2871.2 391.867 2872.05 Q390.347 2872.9 389.162 2875.01 Q388.013 2877.13 387.457 2880.31 Q386.864 2884.43 386.864 2894.28 Z" fill="#000000" fill-rule="evenodd" fill-opacity="1" /><path clip-path="url(#clip500)" d="M797.564 2909.25 Q797.564 2906.99 798.861 2905.92 Q800.158 2904.84 801.826 2904.84 Q803.567 2904.84 804.79 2905.99 Q806.05 2907.1 806.05 2909.07 Q806.05 2911.18 804.568 2912.37 Q803.123 2913.55 801.048 2913.25 Q802.863 2916.29 806.198 2917.66 Q809.57 2919.04 812.683 2919.04 Q815.944 2919.04 818.575 2916.22 Q821.243 2913.4 821.243 2906.51 Q821.243 2900.66 818.945 2897.28 Q816.685 2893.91 812.201 2893.91 L808.866 2893.91 Q807.717 2893.91 807.384 2893.8 Q807.05 2893.69 807.05 2893.06 Q807.05 2892.32 808.199 2892.17 Q809.348 2892.17 811.164 2891.95 Q815.573 2891.8 817.908 2887.98 Q820.02 2884.43 820.02 2879.35 Q820.02 2874.72 817.796 2872.79 Q815.61 2870.83 812.757 2870.83 Q810.089 2870.83 807.162 2871.94 Q804.234 2873.05 802.641 2875.53 Q807.347 2875.53 807.347 2879.35 Q807.347 2881.02 806.272 2882.13 Q805.235 2883.2 803.493 2883.2 Q801.826 2883.2 800.714 2882.17 Q799.602 2881.09 799.602 2879.27 Q799.602 2874.94 803.456 2871.94 Q807.347 2868.94 813.053 2868.94 Q818.686 2868.94 822.836 2871.9 Q827.023 2874.87 827.023 2879.42 Q827.023 2883.91 824.059 2887.58 Q821.094 2891.24 816.388 2892.76 Q822.169 2893.91 825.615 2897.84 Q829.061 2901.73 829.061 2906.51 Q829.061 2912.44 824.392 2916.81 Q819.723 2921.15 812.905 2921.15 Q806.606 2921.15 802.085 2917.74 Q797.564 2914.33 797.564 2909.25 Z" fill="#000000" fill-rule="evenodd" fill-opacity="1" /><path clip-path="url(#clip500)" d="M835.286 2895.21 Q835.286 2884.06 838.103 2877.98 Q842.03 2868.94 851.294 2868.94 Q853.258 2868.94 855.296 2869.49 Q857.371 2870.01 859.965 2872.05 Q862.596 2874.09 864.189 2877.42 Q867.228 2883.87 867.228 2895.21 Q867.228 2906.29 864.412 2912.33 Q860.299 2921.15 851.22 2921.15 Q847.811 2921.15 844.328 2919.41 Q840.882 2917.66 838.695 2913.48 Q835.286 2907.21 835.286 2895.21 M841.586 2894.28 Q841.586 2905.73 842.401 2910.29 Q843.327 2915.22 845.847 2917.37 Q848.404 2919.48 851.22 2919.48 Q854.259 2919.48 856.778 2917.22 Q859.335 2914.92 860.113 2909.99 Q860.966 2905.14 860.928 2894.28 Q860.928 2883.72 860.187 2879.5 Q859.187 2874.57 856.519 2872.61 Q853.888 2870.6 851.22 2870.6 Q850.22 2870.6 849.145 2870.9 Q848.107 2871.2 846.588 2872.05 Q845.069 2872.9 843.883 2875.01 Q842.734 2877.13 842.179 2880.31 Q841.586 2884.43 841.586 2894.28 Z" fill="#000000" fill-rule="evenodd" fill-opacity="1" /><path clip-path="url(#clip500)" d="M1233.42 2895.51 Q1233.42 2883.57 1239.5 2876.27 Q1245.58 2868.94 1253.4 2868.94 Q1257.96 2868.94 1260.48 2871.27 Q1263.03 2873.57 1263.03 2877.13 Q1263.03 2879.09 1261.88 2879.94 Q1260.73 2880.79 1259.55 2880.79 Q1258.18 2880.79 1257.1 2879.87 Q1256.03 2878.94 1256.03 2877.27 Q1256.03 2873.86 1260.22 2873.86 Q1258.25 2870.83 1253.55 2870.83 Q1252.1 2870.83 1250.62 2871.27 Q1249.14 2871.68 1247.21 2873.09 Q1245.28 2874.49 1243.8 2876.72 Q1242.32 2878.94 1241.28 2883.13 Q1240.24 2887.32 1240.24 2892.76 L1240.24 2894.58 Q1243.36 2887.06 1249.73 2887.09 Q1256.1 2887.09 1260.51 2891.95 Q1264.92 2896.8 1264.92 2903.99 Q1264.92 2911.36 1260.33 2916.26 Q1255.73 2921.15 1249.28 2921.15 Q1246.39 2921.15 1243.76 2919.92 Q1241.17 2918.74 1238.72 2916 Q1236.32 2913.25 1234.87 2907.99 Q1233.42 2902.73 1233.42 2895.51 M1240.39 2902.32 Q1240.39 2909.77 1241.76 2913.33 Q1241.98 2913.92 1242.47 2914.74 Q1242.99 2915.55 1243.84 2916.63 Q1244.73 2917.66 1246.17 2918.37 Q1247.62 2919.04 1249.28 2919.04 Q1254.36 2919.04 1256.81 2914.11 Q1258.1 2911.36 1258.1 2903.92 Q1258.1 2896.32 1256.73 2893.54 Q1254.4 2888.84 1249.66 2888.84 Q1246.47 2888.84 1244.25 2891.02 Q1242.06 2893.21 1241.21 2896.14 Q1240.39 2899.06 1240.39 2902.32 Z" fill="#000000" fill-rule="evenodd" fill-opacity="1" /><path clip-path="url(#clip500)" d="M1271.15 2895.21 Q1271.15 2884.06 1273.96 2877.98 Q1277.89 2868.94 1287.15 2868.94 Q1289.12 2868.94 1291.16 2869.49 Q1293.23 2870.01 1295.83 2872.05 Q1298.46 2874.09 1300.05 2877.42 Q1303.09 2883.87 1303.09 2895.21 Q1303.09 2906.29 1300.27 2912.33 Q1296.16 2921.15 1287.08 2921.15 Q1283.67 2921.15 1280.19 2919.41 Q1276.74 2917.66 1274.56 2913.48 Q1271.15 2907.21 1271.15 2895.21 M1277.45 2894.28 Q1277.45 2905.73 1278.26 2910.29 Q1279.19 2915.22 1281.71 2917.37 Q1284.26 2919.48 1287.08 2919.48 Q1290.12 2919.48 1292.64 2917.22 Q1295.2 2914.92 1295.97 2909.99 Q1296.83 2905.14 1296.79 2894.28 Q1296.79 2883.72 1296.05 2879.5 Q1295.05 2874.57 1292.38 2872.61 Q1289.75 2870.6 1287.08 2870.6 Q1286.08 2870.6 1285.01 2870.9 Q1283.97 2871.2 1282.45 2872.05 Q1280.93 2872.9 1279.74 2875.01 Q1278.6 2877.13 1278.04 2880.31 Q1277.45 2884.43 1277.45 2894.28 Z" fill="#000000" fill-rule="evenodd" fill-opacity="1" /><path clip-path="url(#clip500)" d="M1669.29 2886.02 Q1669.29 2881.98 1670.47 2879.24 Q1671.66 2876.46 1674.14 2873.72 Q1678.7 2868.94 1685.29 2868.94 Q1688.11 2868.94 1690.59 2870.12 Q1693.11 2871.31 1695.48 2874.01 Q1697.89 2876.68 1699.34 2881.98 Q1700.78 2887.24 1700.78 2894.5 Q1700.78 2906.25 1695.08 2913.7 Q1689.41 2921.15 1681.74 2921.15 Q1676.88 2921.15 1674.03 2918.96 Q1671.18 2916.74 1671.18 2912.96 Q1671.18 2910.99 1672.29 2910.18 Q1673.4 2909.33 1674.66 2909.33 Q1676.03 2909.33 1677.1 2910.25 Q1678.18 2911.14 1678.18 2912.81 Q1678.18 2914.18 1677.29 2915.26 Q1676.44 2916.29 1674.21 2916.29 Q1676.4 2919.04 1681.66 2919.04 Q1683.55 2919.04 1685.44 2918.18 Q1687.33 2917.29 1689.37 2915.18 Q1691.44 2913.03 1692.7 2908.55 Q1693.96 2904.06 1693.96 2897.77 L1693.96 2895.36 Q1690.93 2902.95 1684.48 2902.95 Q1678.1 2902.95 1673.7 2898.06 Q1669.29 2893.17 1669.29 2886.02 M1676.1 2886.09 Q1676.1 2893.62 1677.47 2896.39 Q1679.81 2901.17 1684.55 2901.17 Q1689.18 2901.17 1691.48 2897.06 Q1693.82 2892.91 1693.82 2887.54 Q1693.82 2880.09 1692.59 2876.83 Q1690.33 2870.83 1685.29 2870.83 Q1680.29 2870.83 1677.7 2875.61 Q1676.1 2878.42 1676.1 2886.09 Z" fill="#000000" fill-rule="evenodd" fill-opacity="1" /><path clip-path="url(#clip500)" d="M1707.01 2895.21 Q1707.01 2884.06 1709.82 2877.98 Q1713.75 2868.94 1723.02 2868.94 Q1724.98 2868.94 1727.02 2869.49 Q1729.09 2870.01 1731.69 2872.05 Q1734.32 2874.09 1735.91 2877.42 Q1738.95 2883.87 1738.95 2895.21 Q1738.95 2906.29 1736.13 2912.33 Q1732.02 2921.15 1722.94 2921.15 Q1719.53 2921.15 1716.05 2919.41 Q1712.6 2917.66 1710.42 2913.48 Q1707.01 2907.21 1707.01 2895.21 M1713.31 2894.28 Q1713.31 2905.73 1714.12 2910.29 Q1715.05 2915.22 1717.57 2917.37 Q1720.13 2919.48 1722.94 2919.48 Q1725.98 2919.48 1728.5 2917.22 Q1731.06 2914.92 1731.83 2909.99 Q1732.69 2905.14 1732.65 2894.28 Q1732.65 2883.72 1731.91 2879.5 Q1730.91 2874.57 1728.24 2872.61 Q1725.61 2870.6 1722.94 2870.6 Q1721.94 2870.6 1720.87 2870.9 Q1719.83 2871.2 1718.31 2872.05 Q1716.79 2872.9 1715.6 2875.01 Q1714.46 2877.13 1713.9 2880.31 Q1713.31 2884.43 1713.31 2894.28 Z" fill="#000000" fill-rule="evenodd" fill-opacity="1" /><path clip-path="url(#clip500)" d="M2087.95 2876.16 L2087.95 2873.79 Q2097.07 2873.79 2101.77 2868.94 Q2103.07 2868.94 2103.29 2869.23 Q2103.52 2869.53 2103.52 2870.9 L2103.52 2913.48 Q2103.52 2915.74 2104.63 2916.44 Q2105.74 2917.15 2110.59 2917.15 L2113 2917.15 L2113 2919.48 Q2110.33 2919.26 2100.7 2919.26 Q2091.07 2919.26 2088.43 2919.48 L2088.43 2917.15 L2090.84 2917.15 Q2095.62 2917.15 2096.77 2916.48 Q2097.92 2915.77 2097.92 2913.48 L2097.92 2874.16 Q2093.96 2876.16 2087.95 2876.16 Z" fill="#000000" fill-rule="evenodd" fill-opacity="1" /><path clip-path="url(#clip500)" d="M2122.93 2919.48 Q2122.93 2918.11 2123.04 2917.7 Q2123.19 2917.29 2123.78 2916.66 L2138.35 2900.43 Q2146.31 2891.47 2146.31 2883.65 Q2146.31 2878.57 2143.65 2874.94 Q2141.02 2871.31 2136.16 2871.31 Q2132.83 2871.31 2130.01 2873.35 Q2127.19 2875.38 2125.9 2879.02 Q2126.12 2878.94 2126.9 2878.94 Q2128.79 2878.94 2129.82 2880.13 Q2130.9 2881.31 2130.9 2882.91 Q2130.9 2884.94 2129.57 2885.94 Q2128.27 2886.91 2126.97 2886.91 Q2126.45 2886.91 2125.75 2886.8 Q2125.08 2886.69 2124.01 2885.65 Q2122.93 2884.57 2122.93 2882.68 Q2122.93 2877.39 2126.93 2873.16 Q2130.97 2868.94 2137.12 2868.94 Q2144.09 2868.94 2148.65 2873.09 Q2153.24 2877.2 2153.24 2883.65 Q2153.24 2885.91 2152.54 2887.98 Q2151.87 2890.02 2150.95 2891.61 Q2150.06 2893.21 2147.61 2895.76 Q2145.17 2898.32 2143.2 2900.14 Q2141.24 2901.95 2136.83 2905.81 L2128.79 2913.62 L2142.46 2913.62 Q2149.13 2913.62 2149.65 2913.03 Q2150.39 2911.96 2151.32 2906.29 L2153.24 2906.29 L2151.09 2919.48 L2122.93 2919.48 Z" fill="#000000" fill-rule="evenodd" fill-opacity="1" /><path clip-path="url(#clip500)" d="M2160.06 2895.21 Q2160.06 2884.06 2162.88 2877.98 Q2166.81 2868.94 2176.07 2868.94 Q2178.03 2868.94 2180.07 2869.49 Q2182.15 2870.01 2184.74 2872.05 Q2187.37 2874.09 2188.96 2877.42 Q2192 2883.87 2192 2895.21 Q2192 2906.29 2189.19 2912.33 Q2185.07 2921.15 2176 2921.15 Q2172.59 2921.15 2169.1 2919.41 Q2165.66 2917.66 2163.47 2913.48 Q2160.06 2907.21 2160.06 2895.21 M2166.36 2894.28 Q2166.36 2905.73 2167.18 2910.29 Q2168.1 2915.22 2170.62 2917.37 Q2173.18 2919.48 2176 2919.48 Q2179.03 2919.48 2181.55 2917.22 Q2184.11 2914.92 2184.89 2909.99 Q2185.74 2905.14 2185.7 2894.28 Q2185.7 2883.72 2184.96 2879.5 Q2183.96 2874.57 2181.29 2872.61 Q2178.66 2870.6 2176 2870.6 Q2174.99 2870.6 2173.92 2870.9 Q2172.88 2871.2 2171.36 2872.05 Q2169.84 2872.9 2168.66 2875.01 Q2167.51 2877.13 2166.95 2880.31 Q2166.36 2884.43 2166.36 2894.28 Z" fill="#000000" fill-rule="evenodd" fill-opacity="1" /><path clip-path="url(#clip500)" d="M2523.81 2876.16 L2523.81 2873.79 Q2532.93 2873.79 2537.63 2868.94 Q2538.93 2868.94 2539.15 2869.23 Q2539.38 2869.53 2539.38 2870.9 L2539.38 2913.48 Q2539.38 2915.74 2540.49 2916.44 Q2541.6 2917.15 2546.45 2917.15 L2548.86 2917.15 L2548.86 2919.48 Q2546.19 2919.26 2536.56 2919.26 Q2526.93 2919.26 2524.29 2919.48 L2524.29 2917.15 L2526.7 2917.15 Q2531.48 2917.15 2532.63 2916.48 Q2533.78 2915.77 2533.78 2913.48 L2533.78 2874.16 Q2529.82 2876.16 2523.81 2876.16 Z" fill="#000000" fill-rule="evenodd" fill-opacity="1" /><path clip-path="url(#clip500)" d="M2558.79 2907.25 Q2558.79 2904.99 2560.02 2904.14 Q2561.24 2903.25 2562.54 2903.25 Q2564.28 2903.25 2565.28 2904.36 Q2566.32 2905.44 2566.32 2906.96 Q2566.32 2908.47 2565.28 2909.59 Q2564.28 2910.66 2562.54 2910.66 Q2561.68 2910.66 2561.24 2910.51 Q2562.24 2914 2565.28 2916.52 Q2568.35 2919.04 2572.39 2919.04 Q2577.47 2919.04 2580.51 2914.11 Q2582.32 2910.92 2582.32 2903.69 Q2582.32 2897.32 2580.95 2894.13 Q2578.84 2889.28 2574.5 2889.28 Q2568.35 2889.28 2564.72 2894.58 Q2564.28 2895.25 2563.76 2895.28 Q2563.02 2895.28 2562.83 2894.88 Q2562.68 2894.43 2562.68 2893.28 L2562.68 2870.83 Q2562.68 2869.01 2563.42 2869.01 Q2563.72 2869.01 2564.35 2869.23 Q2569.13 2871.35 2574.43 2871.38 Q2579.88 2871.38 2584.77 2869.16 Q2585.14 2868.94 2585.36 2868.94 Q2586.1 2868.94 2586.14 2869.79 Q2586.14 2870.09 2585.51 2870.97 Q2584.92 2871.83 2583.62 2872.98 Q2582.32 2874.09 2580.66 2875.16 Q2578.99 2876.24 2576.54 2876.98 Q2574.13 2877.68 2571.47 2877.68 Q2568.28 2877.68 2565.02 2876.68 L2565.02 2891.47 Q2568.95 2887.61 2574.65 2887.61 Q2580.73 2887.61 2584.92 2892.5 Q2589.1 2897.39 2589.1 2904.21 Q2589.1 2911.36 2584.14 2916.26 Q2579.21 2921.15 2572.54 2921.15 Q2566.46 2921.15 2562.61 2916.81 Q2558.79 2912.48 2558.79 2907.25 Z" fill="#000000" fill-rule="evenodd" fill-opacity="1" /><path clip-path="url(#clip500)" d="M2595.92 2895.21 Q2595.92 2884.06 2598.74 2877.98 Q2602.67 2868.94 2611.93 2868.94 Q2613.89 2868.94 2615.93 2869.49 Q2618.01 2870.01 2620.6 2872.05 Q2623.23 2874.09 2624.83 2877.42 Q2627.86 2883.87 2627.86 2895.21 Q2627.86 2906.29 2625.05 2912.33 Q2620.93 2921.15 2611.86 2921.15 Q2608.45 2921.15 2604.96 2919.41 Q2601.52 2917.66 2599.33 2913.48 Q2595.92 2907.21 2595.92 2895.21 M2602.22 2894.28 Q2602.22 2905.73 2603.04 2910.29 Q2603.96 2915.22 2606.48 2917.37 Q2609.04 2919.48 2611.86 2919.48 Q2614.89 2919.48 2617.41 2917.22 Q2619.97 2914.92 2620.75 2909.99 Q2621.6 2905.14 2621.56 2894.28 Q2621.56 2883.72 2620.82 2879.5 Q2619.82 2874.57 2617.15 2872.61 Q2614.52 2870.6 2611.86 2870.6 Q2610.86 2870.6 2609.78 2870.9 Q2608.74 2871.2 2607.22 2872.05 Q2605.7 2872.9 2604.52 2875.01 Q2603.37 2877.13 2602.81 2880.31 Q2602.22 2884.43 2602.22 2894.28 Z" fill="#000000" fill-rule="evenodd" fill-opacity="1" /><path clip-path="url(#clip500)" d="M2959.67 2876.16 L2959.67 2873.79 Q2968.79 2873.79 2973.5 2868.94 Q2974.79 2868.94 2975.01 2869.23 Q2975.24 2869.53 2975.24 2870.9 L2975.24 2913.48 Q2975.24 2915.74 2976.35 2916.44 Q2977.46 2917.15 2982.31 2917.15 L2984.72 2917.15 L2984.72 2919.48 Q2982.05 2919.26 2972.42 2919.26 Q2962.79 2919.26 2960.16 2919.48 L2960.16 2917.15 L2962.56 2917.15 Q2967.34 2917.15 2968.49 2916.48 Q2969.64 2915.77 2969.64 2913.48 L2969.64 2874.16 Q2965.68 2876.16 2959.67 2876.16 Z" fill="#000000" fill-rule="evenodd" fill-opacity="1" /><path clip-path="url(#clip500)" d="M2994.06 2908.03 Q2994.06 2899.54 3004.99 2894.06 Q3000.29 2890.87 2999.43 2889.95 Q2996.1 2886.24 2996.1 2881.61 Q2996.1 2876.31 3000.1 2872.64 Q3004.14 2868.94 3009.85 2868.94 Q3015.29 2868.94 3019.41 2872.09 Q3023.52 2875.24 3023.52 2880.24 Q3023.52 2887.28 3014.33 2892.02 Q3020.41 2895.8 3021.85 2897.39 Q3025.56 2901.51 3025.56 2906.73 Q3025.56 2912.81 3020.89 2917 Q3016.22 2921.15 3009.77 2921.15 Q3003.47 2921.15 2998.77 2917.48 Q2994.06 2913.81 2994.06 2908.03 M2997.84 2908.03 Q2997.84 2912.74 3001.36 2915.89 Q3004.92 2919.04 3009.85 2919.04 Q3014.63 2919.04 3018.18 2916.29 Q3021.78 2913.55 3021.78 2909.47 Q3021.78 2907.88 3021.22 2906.51 Q3020.7 2905.14 3019.63 2904.06 Q3018.59 2902.95 3017.92 2902.47 Q3017.29 2901.95 3016.07 2901.1 L3006.73 2895.21 Q2997.84 2900.14 2997.84 2908.03 M2999.43 2878.65 Q2999.43 2882.28 3003.25 2884.8 L3012.66 2890.87 Q3020.18 2886.46 3020.18 2880.24 Q3020.18 2876.2 3017.11 2873.53 Q3014.03 2870.83 3009.77 2870.83 Q3005.58 2870.83 3002.51 2873.05 Q2999.43 2875.24 2999.43 2878.65 Z" fill="#000000" fill-rule="evenodd" fill-opacity="1" /><path clip-path="url(#clip500)" d="M3031.78 2895.21 Q3031.78 2884.06 3034.6 2877.98 Q3038.53 2868.94 3047.79 2868.94 Q3049.75 2868.94 3051.79 2869.49 Q3053.87 2870.01 3056.46 2872.05 Q3059.09 2874.09 3060.69 2877.42 Q3063.72 2883.87 3063.72 2895.21 Q3063.72 2906.29 3060.91 2912.33 Q3056.79 2921.15 3047.72 2921.15 Q3044.31 2921.15 3040.82 2919.41 Q3037.38 2917.66 3035.19 2913.48 Q3031.78 2907.21 3031.78 2895.21 M3038.08 2894.28 Q3038.08 2905.73 3038.9 2910.29 Q3039.82 2915.22 3042.34 2917.37 Q3044.9 2919.48 3047.72 2919.48 Q3050.75 2919.48 3053.27 2917.22 Q3055.83 2914.92 3056.61 2909.99 Q3057.46 2905.14 3057.42 2894.28 Q3057.42 2883.72 3056.68 2879.5 Q3055.68 2874.57 3053.02 2872.61 Q3050.38 2870.6 3047.72 2870.6 Q3046.72 2870.6 3045.64 2870.9 Q3044.6 2871.2 3043.08 2872.05 Q3041.57 2872.9 3040.38 2875.01 Q3039.23 2877.13 3038.68 2880.31 Q3038.08 2884.43 3038.08 2894.28 Z" fill="#000000" fill-rule="evenodd" fill-opacity="1" /><path clip-path="url(#clip500)" d="M1679.12 3016.04 Q1679.12 3007.25 1685.24 3000.58 Q1691.37 2993.86 1701.89 2993.27 Q1701.6 2987.09 1701.15 2981.21 Q1700.76 2975.33 1700.51 2972.37 Q1700.26 2969.4 1700.26 2969.16 Q1700.26 2966.93 1701.45 2966.05 Q1702.68 2965.16 1704.12 2965.16 Q1705.55 2965.16 1706.74 2966.05 Q1707.97 2966.93 1707.97 2969.16 Q1707.97 2970.29 1707.67 2973.26 Q1707.43 2976.17 1706.98 2981.66 Q1706.54 2987.09 1706.24 2993.27 Q1716.57 2993.86 1722.84 3000.19 Q1729.12 3006.51 1729.12 3016.04 Q1729.12 3024.94 1722.84 3031.61 Q1716.57 3038.28 1705.75 3038.92 Q1705.95 3043.17 1706.49 3048.5 Q1707.03 3053.89 1707.48 3057.55 Q1707.97 3061.25 1707.97 3061.65 Q1707.97 3063.87 1706.74 3064.76 Q1705.55 3065.7 1704.12 3065.7 Q1702.68 3065.7 1701.45 3064.76 Q1700.26 3063.87 1700.26 3061.65 Q1700.26 3060.96 1700.66 3057.94 Q1701.05 3054.98 1701.6 3049.69 Q1702.19 3044.45 1702.49 3038.92 Q1691.86 3038.43 1685.49 3032.05 Q1679.12 3025.68 1679.12 3016.04 M1686.82 3020.79 Q1686.82 3036.15 1701.5 3036.15 L1702.59 3036.15 Q1702.78 3030.27 1702.78 3026.67 Q1702.78 3011.7 1702.09 2996.48 Q1694.68 2998.41 1690.73 3005.57 Q1686.82 3012.69 1686.82 3020.79 M1705.4 3027.26 Q1705.4 3030.08 1705.65 3035.76 Q1710.89 3034.52 1714.59 3030.47 Q1718.3 3026.37 1719.83 3021.48 Q1721.41 3016.54 1721.41 3011.25 Q1721.41 2995.89 1706.74 2995.89 L1706.14 2995.89 Q1705.4 3010.26 1705.4 3027.26 Z" fill="#000000" fill-rule="evenodd" fill-opacity="1" /><polyline clip-path="url(#clip502)" style="stroke:#000000; stroke-linecap:butt; stroke-linejoin:round; stroke-width:2.8; stroke-opacity:0.4; fill:none" points="
  396.536,2829.08 3011.7,2829.08 
  "/>
<polyline clip-path="url(#clip502)" style="stroke:#000000; stroke-linecap:butt; stroke-linejoin:round; stroke-width:2.8; stroke-opacity:0.4; fill:none" points="
  396.536,2393.22 3011.7,2393.22 
  "/>
<polyline clip-path="url(#clip502)" style="stroke:#000000; stroke-linecap:butt; stroke-linejoin:round; stroke-width:2.8; stroke-opacity:0.4; fill:none" points="
  396.536,1957.36 3011.7,1957.36 
  "/>
<polyline clip-path="url(#clip502)" style="stroke:#000000; stroke-linecap:butt; stroke-linejoin:round; stroke-width:2.8; stroke-opacity:0.4; fill:none" points="
  396.536,1521.5 3011.7,1521.5 
  "/>
<polyline clip-path="url(#clip502)" style="stroke:#000000; stroke-linecap:butt; stroke-linejoin:round; stroke-width:2.8; stroke-opacity:0.4; fill:none" points="
  396.536,1085.64 3011.7,1085.64 
  "/>
<polyline clip-path="url(#clip502)" style="stroke:#000000; stroke-linecap:butt; stroke-linejoin:round; stroke-width:2.8; stroke-opacity:0.4; fill:none" points="
  396.536,649.777 3011.7,649.777 
  "/>
<polyline clip-path="url(#clip502)" style="stroke:#000000; stroke-linecap:butt; stroke-linejoin:round; stroke-width:2.8; stroke-opacity:0.4; fill:none" points="
  396.536,213.916 3011.7,213.916 
  "/>
<polyline clip-path="url(#clip502)" style="stroke:#000000; stroke-linecap:butt; stroke-linejoin:round; stroke-width:2; stroke-opacity:0.06; fill:none" points="
  396.536,2741.91 3011.7,2741.91 
  "/>
<polyline clip-path="url(#clip502)" style="stroke:#000000; stroke-linecap:butt; stroke-linejoin:round; stroke-width:2; stroke-opacity:0.06; fill:none" points="
  396.536,2654.74 3011.7,2654.74 
  "/>
<polyline clip-path="url(#clip502)" style="stroke:#000000; stroke-linecap:butt; stroke-linejoin:round; stroke-width:2; stroke-opacity:0.06; fill:none" points="
  396.536,2567.56 3011.7,2567.56 
  "/>
<polyline clip-path="url(#clip502)" style="stroke:#000000; stroke-linecap:butt; stroke-linejoin:round; stroke-width:2; stroke-opacity:0.06; fill:none" points="
  396.536,2480.39 3011.7,2480.39 
  "/>
<polyline clip-path="url(#clip502)" style="stroke:#000000; stroke-linecap:butt; stroke-linejoin:round; stroke-width:2; stroke-opacity:0.06; fill:none" points="
  396.536,2306.05 3011.7,2306.05 
  "/>
<polyline clip-path="url(#clip502)" style="stroke:#000000; stroke-linecap:butt; stroke-linejoin:round; stroke-width:2; stroke-opacity:0.06; fill:none" points="
  396.536,2218.87 3011.7,2218.87 
  "/>
<polyline clip-path="url(#clip502)" style="stroke:#000000; stroke-linecap:butt; stroke-linejoin:round; stroke-width:2; stroke-opacity:0.06; fill:none" points="
  396.536,2131.7 3011.7,2131.7 
  "/>
<polyline clip-path="url(#clip502)" style="stroke:#000000; stroke-linecap:butt; stroke-linejoin:round; stroke-width:2; stroke-opacity:0.06; fill:none" points="
  396.536,2044.53 3011.7,2044.53 
  "/>
<polyline clip-path="url(#clip502)" style="stroke:#000000; stroke-linecap:butt; stroke-linejoin:round; stroke-width:2; stroke-opacity:0.06; fill:none" points="
  396.536,1870.19 3011.7,1870.19 
  "/>
<polyline clip-path="url(#clip502)" style="stroke:#000000; stroke-linecap:butt; stroke-linejoin:round; stroke-width:2; stroke-opacity:0.06; fill:none" points="
  396.536,1783.01 3011.7,1783.01 
  "/>
<polyline clip-path="url(#clip502)" style="stroke:#000000; stroke-linecap:butt; stroke-linejoin:round; stroke-width:2; stroke-opacity:0.06; fill:none" points="
  396.536,1695.84 3011.7,1695.84 
  "/>
<polyline clip-path="url(#clip502)" style="stroke:#000000; stroke-linecap:butt; stroke-linejoin:round; stroke-width:2; stroke-opacity:0.06; fill:none" points="
  396.536,1608.67 3011.7,1608.67 
  "/>
<polyline clip-path="url(#clip502)" style="stroke:#000000; stroke-linecap:butt; stroke-linejoin:round; stroke-width:2; stroke-opacity:0.06; fill:none" points="
  396.536,1434.33 3011.7,1434.33 
  "/>
<polyline clip-path="url(#clip502)" style="stroke:#000000; stroke-linecap:butt; stroke-linejoin:round; stroke-width:2; stroke-opacity:0.06; fill:none" points="
  396.536,1347.15 3011.7,1347.15 
  "/>
<polyline clip-path="url(#clip502)" style="stroke:#000000; stroke-linecap:butt; stroke-linejoin:round; stroke-width:2; stroke-opacity:0.06; fill:none" points="
  396.536,1259.98 3011.7,1259.98 
  "/>
<polyline clip-path="url(#clip502)" style="stroke:#000000; stroke-linecap:butt; stroke-linejoin:round; stroke-width:2; stroke-opacity:0.06; fill:none" points="
  396.536,1172.81 3011.7,1172.81 
  "/>
<polyline clip-path="url(#clip502)" style="stroke:#000000; stroke-linecap:butt; stroke-linejoin:round; stroke-width:2; stroke-opacity:0.06; fill:none" points="
  396.536,998.465 3011.7,998.465 
  "/>
<polyline clip-path="url(#clip502)" style="stroke:#000000; stroke-linecap:butt; stroke-linejoin:round; stroke-width:2; stroke-opacity:0.06; fill:none" points="
  396.536,911.293 3011.7,911.293 
  "/>
<polyline clip-path="url(#clip502)" style="stroke:#000000; stroke-linecap:butt; stroke-linejoin:round; stroke-width:2; stroke-opacity:0.06; fill:none" points="
  396.536,824.121 3011.7,824.121 
  "/>
<polyline clip-path="url(#clip502)" style="stroke:#000000; stroke-linecap:butt; stroke-linejoin:round; stroke-width:2; stroke-opacity:0.06; fill:none" points="
  396.536,736.949 3011.7,736.949 
  "/>
<polyline clip-path="url(#clip502)" style="stroke:#000000; stroke-linecap:butt; stroke-linejoin:round; stroke-width:2; stroke-opacity:0.06; fill:none" points="
  396.536,562.605 3011.7,562.605 
  "/>
<polyline clip-path="url(#clip502)" style="stroke:#000000; stroke-linecap:butt; stroke-linejoin:round; stroke-width:2; stroke-opacity:0.06; fill:none" points="
  396.536,475.433 3011.7,475.433 
  "/>
<polyline clip-path="url(#clip502)" style="stroke:#000000; stroke-linecap:butt; stroke-linejoin:round; stroke-width:2; stroke-opacity:0.06; fill:none" points="
  396.536,388.26 3011.7,388.26 
  "/>
<polyline clip-path="url(#clip502)" style="stroke:#000000; stroke-linecap:butt; stroke-linejoin:round; stroke-width:2; stroke-opacity:0.06; fill:none" points="
  396.536,301.088 3011.7,301.088 
  "/>
<polyline clip-path="url(#clip500)" style="stroke:#000000; stroke-linecap:butt; stroke-linejoin:round; stroke-width:4; stroke-opacity:1; fill:none" points="
  396.536,2829.08 396.536,213.916 
  "/>
<polyline clip-path="url(#clip500)" style="stroke:#000000; stroke-linecap:butt; stroke-linejoin:round; stroke-width:4; stroke-opacity:1; fill:none" points="
  3011.7,2829.08 3011.7,213.916 
  "/>
<polyline clip-path="url(#clip500)" style="stroke:#000000; stroke-linecap:butt; stroke-linejoin:round; stroke-width:4; stroke-opacity:1; fill:none" points="
  396.536,2829.08 414.998,2829.08 
  "/>
<polyline clip-path="url(#clip500)" style="stroke:#000000; stroke-linecap:butt; stroke-linejoin:round; stroke-width:4; stroke-opacity:1; fill:none" points="
  396.536,2393.22 414.998,2393.22 
  "/>
<polyline clip-path="url(#clip500)" style="stroke:#000000; stroke-linecap:butt; stroke-linejoin:round; stroke-width:4; stroke-opacity:1; fill:none" points="
  396.536,1957.36 414.998,1957.36 
  "/>
<polyline clip-path="url(#clip500)" style="stroke:#000000; stroke-linecap:butt; stroke-linejoin:round; stroke-width:4; stroke-opacity:1; fill:none" points="
  396.536,1521.5 414.998,1521.5 
  "/>
<polyline clip-path="url(#clip500)" style="stroke:#000000; stroke-linecap:butt; stroke-linejoin:round; stroke-width:4; stroke-opacity:1; fill:none" points="
  396.536,1085.64 414.998,1085.64 
  "/>
<polyline clip-path="url(#clip500)" style="stroke:#000000; stroke-linecap:butt; stroke-linejoin:round; stroke-width:4; stroke-opacity:1; fill:none" points="
  396.536,649.777 414.998,649.777 
  "/>
<polyline clip-path="url(#clip500)" style="stroke:#000000; stroke-linecap:butt; stroke-linejoin:round; stroke-width:4; stroke-opacity:1; fill:none" points="
  396.536,213.916 414.998,213.916 
  "/>
<polyline clip-path="url(#clip500)" style="stroke:#000000; stroke-linecap:butt; stroke-linejoin:round; stroke-width:4; stroke-opacity:1; fill:none" points="
  396.536,2741.91 405.767,2741.91 
  "/>
<polyline clip-path="url(#clip500)" style="stroke:#000000; stroke-linecap:butt; stroke-linejoin:round; stroke-width:4; stroke-opacity:1; fill:none" points="
  396.536,2654.74 405.767,2654.74 
  "/>
<polyline clip-path="url(#clip500)" style="stroke:#000000; stroke-linecap:butt; stroke-linejoin:round; stroke-width:4; stroke-opacity:1; fill:none" points="
  396.536,2567.56 405.767,2567.56 
  "/>
<polyline clip-path="url(#clip500)" style="stroke:#000000; stroke-linecap:butt; stroke-linejoin:round; stroke-width:4; stroke-opacity:1; fill:none" points="
  396.536,2480.39 405.767,2480.39 
  "/>
<polyline clip-path="url(#clip500)" style="stroke:#000000; stroke-linecap:butt; stroke-linejoin:round; stroke-width:4; stroke-opacity:1; fill:none" points="
  396.536,2306.05 405.767,2306.05 
  "/>
<polyline clip-path="url(#clip500)" style="stroke:#000000; stroke-linecap:butt; stroke-linejoin:round; stroke-width:4; stroke-opacity:1; fill:none" points="
  396.536,2218.87 405.767,2218.87 
  "/>
<polyline clip-path="url(#clip500)" style="stroke:#000000; stroke-linecap:butt; stroke-linejoin:round; stroke-width:4; stroke-opacity:1; fill:none" points="
  396.536,2131.7 405.767,2131.7 
  "/>
<polyline clip-path="url(#clip500)" style="stroke:#000000; stroke-linecap:butt; stroke-linejoin:round; stroke-width:4; stroke-opacity:1; fill:none" points="
  396.536,2044.53 405.767,2044.53 
  "/>
<polyline clip-path="url(#clip500)" style="stroke:#000000; stroke-linecap:butt; stroke-linejoin:round; stroke-width:4; stroke-opacity:1; fill:none" points="
  396.536,1870.19 405.767,1870.19 
  "/>
<polyline clip-path="url(#clip500)" style="stroke:#000000; stroke-linecap:butt; stroke-linejoin:round; stroke-width:4; stroke-opacity:1; fill:none" points="
  396.536,1783.01 405.767,1783.01 
  "/>
<polyline clip-path="url(#clip500)" style="stroke:#000000; stroke-linecap:butt; stroke-linejoin:round; stroke-width:4; stroke-opacity:1; fill:none" points="
  396.536,1695.84 405.767,1695.84 
  "/>
<polyline clip-path="url(#clip500)" style="stroke:#000000; stroke-linecap:butt; stroke-linejoin:round; stroke-width:4; stroke-opacity:1; fill:none" points="
  396.536,1608.67 405.767,1608.67 
  "/>
<polyline clip-path="url(#clip500)" style="stroke:#000000; stroke-linecap:butt; stroke-linejoin:round; stroke-width:4; stroke-opacity:1; fill:none" points="
  396.536,1434.33 405.767,1434.33 
  "/>
<polyline clip-path="url(#clip500)" style="stroke:#000000; stroke-linecap:butt; stroke-linejoin:round; stroke-width:4; stroke-opacity:1; fill:none" points="
  396.536,1347.15 405.767,1347.15 
  "/>
<polyline clip-path="url(#clip500)" style="stroke:#000000; stroke-linecap:butt; stroke-linejoin:round; stroke-width:4; stroke-opacity:1; fill:none" points="
  396.536,1259.98 405.767,1259.98 
  "/>
<polyline clip-path="url(#clip500)" style="stroke:#000000; stroke-linecap:butt; stroke-linejoin:round; stroke-width:4; stroke-opacity:1; fill:none" points="
  396.536,1172.81 405.767,1172.81 
  "/>
<polyline clip-path="url(#clip500)" style="stroke:#000000; stroke-linecap:butt; stroke-linejoin:round; stroke-width:4; stroke-opacity:1; fill:none" points="
  396.536,998.465 405.767,998.465 
  "/>
<polyline clip-path="url(#clip500)" style="stroke:#000000; stroke-linecap:butt; stroke-linejoin:round; stroke-width:4; stroke-opacity:1; fill:none" points="
  396.536,911.293 405.767,911.293 
  "/>
<polyline clip-path="url(#clip500)" style="stroke:#000000; stroke-linecap:butt; stroke-linejoin:round; stroke-width:4; stroke-opacity:1; fill:none" points="
  396.536,824.121 405.767,824.121 
  "/>
<polyline clip-path="url(#clip500)" style="stroke:#000000; stroke-linecap:butt; stroke-linejoin:round; stroke-width:4; stroke-opacity:1; fill:none" points="
  396.536,736.949 405.767,736.949 
  "/>
<polyline clip-path="url(#clip500)" style="stroke:#000000; stroke-linecap:butt; stroke-linejoin:round; stroke-width:4; stroke-opacity:1; fill:none" points="
  396.536,562.605 405.767,562.605 
  "/>
<polyline clip-path="url(#clip500)" style="stroke:#000000; stroke-linecap:butt; stroke-linejoin:round; stroke-width:4; stroke-opacity:1; fill:none" points="
  396.536,475.433 405.767,475.433 
  "/>
<polyline clip-path="url(#clip500)" style="stroke:#000000; stroke-linecap:butt; stroke-linejoin:round; stroke-width:4; stroke-opacity:1; fill:none" points="
  396.536,388.26 405.767,388.26 
  "/>
<polyline clip-path="url(#clip500)" style="stroke:#000000; stroke-linecap:butt; stroke-linejoin:round; stroke-width:4; stroke-opacity:1; fill:none" points="
  396.536,301.088 405.767,301.088 
  "/>
<path clip-path="url(#clip500)" d="M316.594 2830.73 Q316.594 2819.58 319.41 2813.5 Q323.338 2804.46 332.602 2804.46 Q334.566 2804.46 336.604 2805.01 Q338.679 2805.53 341.273 2807.57 Q343.904 2809.61 345.497 2812.94 Q348.536 2819.39 348.536 2830.73 Q348.536 2841.81 345.719 2847.85 Q341.606 2856.67 332.528 2856.67 Q329.119 2856.67 325.635 2854.93 Q322.189 2853.18 320.003 2849 Q316.594 2842.73 316.594 2830.73 M322.893 2829.8 Q322.893 2841.25 323.709 2845.81 Q324.635 2850.74 327.155 2852.89 Q329.712 2855 332.528 2855 Q335.566 2855 338.086 2852.74 Q340.643 2850.44 341.421 2845.51 Q342.273 2840.66 342.236 2829.8 Q342.236 2819.24 341.495 2815.02 Q340.495 2810.09 337.827 2808.13 Q335.196 2806.12 332.528 2806.12 Q331.527 2806.12 330.453 2806.42 Q329.415 2806.72 327.896 2807.57 Q326.377 2808.42 325.191 2810.53 Q324.042 2812.65 323.486 2815.83 Q322.893 2819.95 322.893 2829.8 Z" fill="#000000" fill-rule="evenodd" fill-opacity="1" /><path clip-path="url(#clip500)" d="M278.872 2408.91 Q278.872 2406.65 280.169 2405.58 Q281.466 2404.5 283.133 2404.5 Q284.875 2404.5 286.098 2405.65 Q287.358 2406.76 287.358 2408.73 Q287.358 2410.84 285.875 2412.02 Q284.43 2413.21 282.355 2412.91 Q284.171 2415.95 287.506 2417.32 Q290.878 2418.69 293.99 2418.69 Q297.251 2418.69 299.882 2415.88 Q302.55 2413.06 302.55 2406.17 Q302.55 2400.32 300.253 2396.94 Q297.992 2393.57 293.509 2393.57 L290.174 2393.57 Q289.025 2393.57 288.692 2393.46 Q288.358 2393.35 288.358 2392.72 Q288.358 2391.98 289.507 2391.83 Q290.656 2391.83 292.471 2391.61 Q296.881 2391.46 299.215 2387.64 Q301.327 2384.09 301.327 2379.01 Q301.327 2374.38 299.104 2372.45 Q296.918 2370.49 294.065 2370.49 Q291.397 2370.49 288.469 2371.6 Q285.542 2372.71 283.949 2375.19 Q288.655 2375.19 288.655 2379.01 Q288.655 2380.68 287.58 2381.79 Q286.542 2382.86 284.801 2382.86 Q283.133 2382.86 282.022 2381.82 Q280.91 2380.75 280.91 2378.93 Q280.91 2374.6 284.764 2371.6 Q288.655 2368.6 294.361 2368.6 Q299.993 2368.6 304.144 2371.56 Q308.331 2374.52 308.331 2379.08 Q308.331 2383.57 305.366 2387.23 Q302.402 2390.9 297.696 2392.42 Q303.477 2393.57 306.923 2397.5 Q310.369 2401.39 310.369 2406.17 Q310.369 2412.1 305.7 2416.47 Q301.031 2420.81 294.213 2420.81 Q287.913 2420.81 283.393 2417.4 Q278.872 2413.99 278.872 2408.91 Z" fill="#000000" fill-rule="evenodd" fill-opacity="1" /><path clip-path="url(#clip500)" d="M316.594 2394.87 Q316.594 2383.71 319.41 2377.64 Q323.338 2368.6 332.602 2368.6 Q334.566 2368.6 336.604 2369.15 Q338.679 2369.67 341.273 2371.71 Q343.904 2373.75 345.497 2377.08 Q348.536 2383.53 348.536 2394.87 Q348.536 2405.95 345.719 2411.99 Q341.606 2420.81 332.528 2420.81 Q329.119 2420.81 325.635 2419.06 Q322.189 2417.32 320.003 2413.14 Q316.594 2406.87 316.594 2394.87 M322.893 2393.94 Q322.893 2405.39 323.709 2409.95 Q324.635 2414.88 327.155 2417.03 Q329.712 2419.14 332.528 2419.14 Q335.566 2419.14 338.086 2416.88 Q340.643 2414.58 341.421 2409.65 Q342.273 2404.8 342.236 2393.94 Q342.236 2383.38 341.495 2379.16 Q340.495 2374.23 337.827 2372.26 Q335.196 2370.26 332.528 2370.26 Q331.527 2370.26 330.453 2370.56 Q329.415 2370.86 327.896 2371.71 Q326.377 2372.56 325.191 2374.67 Q324.042 2376.79 323.486 2379.97 Q322.893 2384.09 322.893 2393.94 Z" fill="#000000" fill-rule="evenodd" fill-opacity="1" /><path clip-path="url(#clip500)" d="M278.872 1959.3 Q278.872 1947.37 284.949 1940.07 Q291.026 1932.74 298.845 1932.74 Q303.402 1932.74 305.922 1935.07 Q308.479 1937.37 308.479 1940.92 Q308.479 1942.89 307.33 1943.74 Q306.182 1944.59 304.996 1944.59 Q303.625 1944.59 302.55 1943.67 Q301.476 1942.74 301.476 1941.07 Q301.476 1937.66 305.663 1937.66 Q303.699 1934.63 298.993 1934.63 Q297.548 1934.63 296.066 1935.07 Q294.583 1935.48 292.657 1936.89 Q290.73 1938.29 289.247 1940.52 Q287.765 1942.74 286.728 1946.93 Q285.69 1951.11 285.69 1956.56 L285.69 1958.38 Q288.803 1950.86 295.176 1950.89 Q301.55 1950.89 305.959 1955.75 Q310.369 1960.6 310.369 1967.79 Q310.369 1975.16 305.774 1980.05 Q301.179 1984.95 294.732 1984.95 Q291.841 1984.95 289.21 1983.72 Q286.617 1982.54 284.171 1979.8 Q281.762 1977.05 280.317 1971.79 Q278.872 1966.53 278.872 1959.3 M285.838 1966.12 Q285.838 1973.57 287.209 1977.13 Q287.432 1977.72 287.913 1978.54 Q288.432 1979.35 289.285 1980.43 Q290.174 1981.46 291.619 1982.17 Q293.064 1982.83 294.732 1982.83 Q299.808 1982.83 302.254 1977.91 Q303.551 1975.16 303.551 1967.72 Q303.551 1960.12 302.18 1957.34 Q299.845 1952.63 295.102 1952.63 Q291.915 1952.63 289.692 1954.82 Q287.506 1957.01 286.654 1959.93 Q285.838 1962.86 285.838 1966.12 Z" fill="#000000" fill-rule="evenodd" fill-opacity="1" /><path clip-path="url(#clip500)" d="M316.594 1959.01 Q316.594 1947.85 319.41 1941.78 Q323.338 1932.74 332.602 1932.74 Q334.566 1932.74 336.604 1933.29 Q338.679 1933.81 341.273 1935.85 Q343.904 1937.89 345.497 1941.22 Q348.536 1947.67 348.536 1959.01 Q348.536 1970.09 345.719 1976.13 Q341.606 1984.95 332.528 1984.95 Q329.119 1984.95 325.635 1983.2 Q322.189 1981.46 320.003 1977.28 Q316.594 1971.01 316.594 1959.01 M322.893 1958.08 Q322.893 1969.53 323.709 1974.09 Q324.635 1979.02 327.155 1981.17 Q329.712 1983.28 332.528 1983.28 Q335.566 1983.28 338.086 1981.02 Q340.643 1978.72 341.421 1973.79 Q342.273 1968.94 342.236 1958.08 Q342.236 1947.52 341.495 1943.3 Q340.495 1938.37 337.827 1936.4 Q335.196 1934.4 332.528 1934.4 Q331.527 1934.4 330.453 1934.7 Q329.415 1935 327.896 1935.85 Q326.377 1936.7 325.191 1938.81 Q324.042 1940.92 323.486 1944.11 Q322.893 1948.22 322.893 1958.08 Z" fill="#000000" fill-rule="evenodd" fill-opacity="1" /><path clip-path="url(#clip500)" d="M278.872 1513.96 Q278.872 1509.92 280.058 1507.18 Q281.244 1504.4 283.726 1501.65 Q288.284 1496.87 294.88 1496.87 Q297.696 1496.87 300.179 1498.06 Q302.698 1499.25 305.07 1501.95 Q307.479 1504.62 308.924 1509.92 Q310.369 1515.18 310.369 1522.44 Q310.369 1534.19 304.662 1541.64 Q298.993 1549.09 291.323 1549.09 Q286.468 1549.09 283.615 1546.9 Q280.762 1544.68 280.762 1540.9 Q280.762 1538.93 281.873 1538.12 Q282.985 1537.26 284.245 1537.26 Q285.616 1537.26 286.691 1538.19 Q287.765 1539.08 287.765 1540.75 Q287.765 1542.12 286.876 1543.19 Q286.024 1544.23 283.8 1544.23 Q285.987 1546.97 291.248 1546.97 Q293.138 1546.97 295.028 1546.12 Q296.918 1545.23 298.956 1543.12 Q301.031 1540.97 302.291 1536.49 Q303.551 1532 303.551 1525.7 L303.551 1523.3 Q300.512 1530.89 294.065 1530.89 Q287.691 1530.89 283.282 1526 Q278.872 1521.11 278.872 1513.96 M285.69 1514.03 Q285.69 1521.55 287.061 1524.33 Q289.396 1529.11 294.139 1529.11 Q298.771 1529.11 301.068 1525 Q303.402 1520.85 303.402 1515.48 Q303.402 1508.03 302.18 1504.77 Q299.919 1498.76 294.88 1498.76 Q289.877 1498.76 287.284 1503.54 Q285.69 1506.36 285.69 1514.03 Z" fill="#000000" fill-rule="evenodd" fill-opacity="1" /><path clip-path="url(#clip500)" d="M316.594 1523.15 Q316.594 1511.99 319.41 1505.92 Q323.338 1496.87 332.602 1496.87 Q334.566 1496.87 336.604 1497.43 Q338.679 1497.95 341.273 1499.99 Q343.904 1502.03 345.497 1505.36 Q348.536 1511.81 348.536 1523.15 Q348.536 1534.23 345.719 1540.27 Q341.606 1549.09 332.528 1549.09 Q329.119 1549.09 325.635 1547.34 Q322.189 1545.6 320.003 1541.42 Q316.594 1535.15 316.594 1523.15 M322.893 1522.22 Q322.893 1533.67 323.709 1538.23 Q324.635 1543.16 327.155 1545.31 Q329.712 1547.42 332.528 1547.42 Q335.566 1547.42 338.086 1545.16 Q340.643 1542.86 341.421 1537.93 Q342.273 1533.08 342.236 1522.22 Q342.236 1511.66 341.495 1507.44 Q340.495 1502.51 337.827 1500.54 Q335.196 1498.54 332.528 1498.54 Q331.527 1498.54 330.453 1498.84 Q329.415 1499.14 327.896 1499.99 Q326.377 1500.84 325.191 1502.95 Q324.042 1505.06 323.486 1508.25 Q322.893 1512.36 322.893 1522.22 Z" fill="#000000" fill-rule="evenodd" fill-opacity="1" /><path clip-path="url(#clip500)" d="M244.485 1068.24 L244.485 1065.87 Q253.601 1065.87 258.306 1061.01 Q259.603 1061.01 259.826 1061.31 Q260.048 1061.61 260.048 1062.98 L260.048 1105.55 Q260.048 1107.81 261.16 1108.52 Q262.271 1109.22 267.126 1109.22 L269.534 1109.22 L269.534 1111.56 Q266.866 1111.34 257.232 1111.34 Q247.598 1111.34 244.967 1111.56 L244.967 1109.22 L247.375 1109.22 Q252.155 1109.22 253.304 1108.56 Q254.453 1107.85 254.453 1105.55 L254.453 1066.24 Q250.488 1068.24 244.485 1068.24 Z" fill="#000000" fill-rule="evenodd" fill-opacity="1" /><path clip-path="url(#clip500)" d="M279.465 1111.56 Q279.465 1110.19 279.576 1109.78 Q279.724 1109.37 280.317 1108.74 L294.88 1092.51 Q302.847 1083.54 302.847 1075.73 Q302.847 1070.65 300.179 1067.02 Q297.548 1063.39 292.694 1063.39 Q289.359 1063.39 286.542 1065.42 Q283.726 1067.46 282.429 1071.09 Q282.652 1071.02 283.43 1071.02 Q285.32 1071.02 286.357 1072.2 Q287.432 1073.39 287.432 1074.98 Q287.432 1077.02 286.098 1078.02 Q284.801 1078.99 283.504 1078.99 Q282.985 1078.99 282.281 1078.87 Q281.614 1078.76 280.54 1077.73 Q279.465 1076.65 279.465 1074.76 Q279.465 1069.46 283.467 1065.24 Q287.506 1061.01 293.657 1061.01 Q300.623 1061.01 305.181 1065.16 Q309.776 1069.28 309.776 1075.73 Q309.776 1077.99 309.072 1080.06 Q308.405 1082.1 307.479 1083.69 Q306.589 1085.29 304.144 1087.84 Q301.698 1090.4 299.734 1092.21 Q297.77 1094.03 293.361 1097.88 L285.32 1105.7 L298.993 1105.7 Q305.663 1105.7 306.182 1105.11 Q306.923 1104.04 307.849 1098.37 L309.776 1098.37 L307.627 1111.56 L279.465 1111.56 Z" fill="#000000" fill-rule="evenodd" fill-opacity="1" /><path clip-path="url(#clip500)" d="M316.594 1087.29 Q316.594 1076.13 319.41 1070.06 Q323.338 1061.01 332.602 1061.01 Q334.566 1061.01 336.604 1061.57 Q338.679 1062.09 341.273 1064.13 Q343.904 1066.16 345.497 1069.5 Q348.536 1075.95 348.536 1087.29 Q348.536 1098.37 345.719 1104.41 Q341.606 1113.22 332.528 1113.22 Q329.119 1113.22 325.635 1111.48 Q322.189 1109.74 320.003 1105.55 Q316.594 1099.29 316.594 1087.29 M322.893 1086.36 Q322.893 1097.81 323.709 1102.37 Q324.635 1107.3 327.155 1109.45 Q329.712 1111.56 332.528 1111.56 Q335.566 1111.56 338.086 1109.3 Q340.643 1107 341.421 1102.07 Q342.273 1097.22 342.236 1086.36 Q342.236 1075.8 341.495 1071.57 Q340.495 1066.65 337.827 1064.68 Q335.196 1062.68 332.528 1062.68 Q331.527 1062.68 330.453 1062.98 Q329.415 1063.27 327.896 1064.13 Q326.377 1064.98 325.191 1067.09 Q324.042 1069.2 323.486 1072.39 Q322.893 1076.5 322.893 1086.36 Z" fill="#000000" fill-rule="evenodd" fill-opacity="1" /><path clip-path="url(#clip500)" d="M244.485 632.379 L244.485 630.008 Q253.601 630.008 258.306 625.154 Q259.603 625.154 259.826 625.45 Q260.048 625.747 260.048 627.118 L260.048 669.694 Q260.048 671.954 261.16 672.658 Q262.271 673.362 267.126 673.362 L269.534 673.362 L269.534 675.697 Q266.866 675.474 257.232 675.474 Q247.598 675.474 244.967 675.697 L244.967 673.362 L247.375 673.362 Q252.155 673.362 253.304 672.695 Q254.453 671.991 254.453 669.694 L254.453 630.378 Q250.488 632.379 244.485 632.379 Z" fill="#000000" fill-rule="evenodd" fill-opacity="1" /><path clip-path="url(#clip500)" d="M279.465 663.469 Q279.465 661.208 280.688 660.356 Q281.911 659.467 283.207 659.467 Q284.949 659.467 285.95 660.578 Q286.987 661.653 286.987 663.172 Q286.987 664.691 285.95 665.803 Q284.949 666.878 283.207 666.878 Q282.355 666.878 281.911 666.729 Q282.911 670.213 285.95 672.732 Q289.025 675.252 293.064 675.252 Q298.141 675.252 301.179 670.324 Q302.995 667.137 302.995 659.911 Q302.995 653.538 301.624 650.351 Q299.512 645.497 295.176 645.497 Q289.025 645.497 285.394 650.796 Q284.949 651.463 284.43 651.5 Q283.689 651.5 283.504 651.092 Q283.356 650.648 283.356 649.499 L283.356 627.044 Q283.356 625.228 284.097 625.228 Q284.393 625.228 285.023 625.45 Q289.803 627.562 295.102 627.599 Q300.549 627.599 305.441 625.376 Q305.811 625.154 306.033 625.154 Q306.774 625.154 306.812 626.006 Q306.812 626.302 306.182 627.192 Q305.589 628.044 304.292 629.193 Q302.995 630.304 301.327 631.379 Q299.66 632.454 297.214 633.195 Q294.806 633.899 292.138 633.899 Q288.951 633.899 285.69 632.898 L285.69 647.683 Q289.618 643.829 295.324 643.829 Q301.402 643.829 305.589 648.721 Q309.776 653.612 309.776 660.43 Q309.776 667.582 304.811 672.473 Q299.882 677.364 293.212 677.364 Q287.135 677.364 283.282 673.029 Q279.465 668.693 279.465 663.469 Z" fill="#000000" fill-rule="evenodd" fill-opacity="1" /><path clip-path="url(#clip500)" d="M316.594 651.426 Q316.594 640.272 319.41 634.195 Q323.338 625.154 332.602 625.154 Q334.566 625.154 336.604 625.71 Q338.679 626.228 341.273 628.266 Q343.904 630.304 345.497 633.639 Q348.536 640.087 348.536 651.426 Q348.536 662.505 345.719 668.545 Q341.606 677.364 332.528 677.364 Q329.119 677.364 325.635 675.623 Q322.189 673.881 320.003 669.694 Q316.594 663.432 316.594 651.426 M322.893 650.499 Q322.893 661.949 323.709 666.507 Q324.635 671.435 327.155 673.585 Q329.712 675.697 332.528 675.697 Q335.566 675.697 338.086 673.436 Q340.643 671.139 341.421 666.211 Q342.273 661.356 342.236 650.499 Q342.236 639.939 341.495 635.714 Q340.495 630.786 337.827 628.822 Q335.196 626.821 332.528 626.821 Q331.527 626.821 330.453 627.118 Q329.415 627.414 327.896 628.266 Q326.377 629.119 325.191 631.231 Q324.042 633.343 323.486 636.53 Q322.893 640.643 322.893 650.499 Z" fill="#000000" fill-rule="evenodd" fill-opacity="1" /><path clip-path="url(#clip500)" d="M244.485 196.519 L244.485 194.147 Q253.601 194.147 258.306 189.293 Q259.603 189.293 259.826 189.59 Q260.048 189.886 260.048 191.257 L260.048 233.833 Q260.048 236.094 261.16 236.798 Q262.271 237.502 267.126 237.502 L269.534 237.502 L269.534 239.836 Q266.866 239.614 257.232 239.614 Q247.598 239.614 244.967 239.836 L244.967 237.502 L247.375 237.502 Q252.155 237.502 253.304 236.835 Q254.453 236.131 254.453 233.833 L254.453 194.518 Q250.488 196.519 244.485 196.519 Z" fill="#000000" fill-rule="evenodd" fill-opacity="1" /><path clip-path="url(#clip500)" d="M278.872 228.386 Q278.872 219.901 289.803 214.416 Q285.097 211.23 284.245 210.303 Q280.91 206.598 280.91 201.966 Q280.91 196.667 284.912 192.999 Q288.951 189.293 294.657 189.293 Q300.105 189.293 304.218 192.443 Q308.331 195.593 308.331 200.595 Q308.331 207.635 299.141 212.378 Q305.218 216.158 306.663 217.751 Q310.369 221.865 310.369 227.089 Q310.369 233.166 305.7 237.354 Q301.031 241.504 294.583 241.504 Q288.284 241.504 283.578 237.835 Q278.872 234.167 278.872 228.386 M282.652 228.386 Q282.652 233.092 286.172 236.242 Q289.729 239.392 294.657 239.392 Q299.438 239.392 302.995 236.649 Q306.589 233.907 306.589 229.831 Q306.589 228.238 306.033 226.867 Q305.515 225.496 304.44 224.421 Q303.402 223.31 302.735 222.828 Q302.106 222.309 300.883 221.457 L291.545 215.565 Q282.652 220.493 282.652 228.386 M284.245 199.002 Q284.245 202.633 288.062 205.153 L297.474 211.23 Q304.996 206.82 304.996 200.595 Q304.996 196.556 301.92 193.888 Q298.845 191.183 294.583 191.183 Q290.396 191.183 287.321 193.406 Q284.245 195.593 284.245 199.002 Z" fill="#000000" fill-rule="evenodd" fill-opacity="1" /><path clip-path="url(#clip500)" d="M316.594 215.565 Q316.594 204.412 319.41 198.335 Q323.338 189.293 332.602 189.293 Q334.566 189.293 336.604 189.849 Q338.679 190.368 341.273 192.406 Q343.904 194.444 345.497 197.779 Q348.536 204.226 348.536 215.565 Q348.536 226.645 345.719 232.685 Q341.606 241.504 332.528 241.504 Q329.119 241.504 325.635 239.762 Q322.189 238.021 320.003 233.833 Q316.594 227.571 316.594 215.565 M322.893 214.639 Q322.893 226.089 323.709 230.647 Q324.635 235.575 327.155 237.724 Q329.712 239.836 332.528 239.836 Q335.566 239.836 338.086 237.576 Q340.643 235.278 341.421 230.35 Q342.273 225.496 342.236 214.639 Q342.236 204.078 341.495 199.854 Q340.495 194.926 337.827 192.962 Q335.196 190.961 332.528 190.961 Q331.527 190.961 330.453 191.257 Q329.415 191.554 327.896 192.406 Q326.377 193.258 325.191 195.37 Q324.042 197.482 323.486 200.669 Q322.893 204.782 322.893 214.639 Z" fill="#000000" fill-rule="evenodd" fill-opacity="1" /><path clip-path="url(#clip500)" d="M154.01 1557.91 Q145.216 1557.91 138.546 1551.78 Q131.826 1545.66 131.234 1535.13 Q125.058 1535.43 119.178 1535.88 Q113.299 1536.27 110.334 1536.52 Q107.37 1536.76 107.123 1536.76 Q104.9 1536.76 104.01 1535.58 Q103.121 1534.34 103.121 1532.91 Q103.121 1531.48 104.01 1530.29 Q104.9 1529.06 107.123 1529.06 Q108.259 1529.06 111.224 1529.35 Q114.139 1529.6 119.623 1530.05 Q125.058 1530.49 131.234 1530.79 Q131.826 1520.46 138.15 1514.19 Q144.475 1507.91 154.01 1507.91 Q162.903 1507.91 169.573 1514.19 Q176.243 1520.46 176.885 1531.28 Q181.134 1531.08 186.47 1530.54 Q191.856 1530 195.512 1529.55 Q199.217 1529.06 199.612 1529.06 Q201.836 1529.06 202.725 1530.29 Q203.664 1531.48 203.664 1532.91 Q203.664 1534.34 202.725 1535.58 Q201.836 1536.76 199.612 1536.76 Q198.921 1536.76 195.907 1536.37 Q192.942 1535.97 187.656 1535.43 Q182.419 1534.84 176.885 1534.54 Q176.391 1545.16 170.018 1551.54 Q163.644 1557.91 154.01 1557.91 M158.753 1550.2 Q174.119 1550.2 174.119 1535.53 L174.119 1534.44 Q168.239 1534.24 164.632 1534.24 Q149.662 1534.24 134.445 1534.94 Q136.372 1542.35 143.536 1546.3 Q150.65 1550.2 158.753 1550.2 M165.225 1531.63 Q168.042 1531.63 173.723 1531.38 Q172.488 1526.14 168.437 1522.44 Q164.336 1518.73 159.445 1517.2 Q154.504 1515.62 149.218 1515.62 Q133.852 1515.62 133.852 1530.29 L133.852 1530.89 Q148.229 1531.63 165.225 1531.63 Z" fill="#000000" fill-rule="evenodd" fill-opacity="1" /><path clip-path="url(#clip500)" d="M108.556 1494.42 Q106.036 1494.42 104.999 1492.89 Q103.912 1491.36 103.912 1489.73 Q103.912 1487.7 105.147 1486.42 Q106.333 1485.09 108.556 1485.09 Q109.544 1485.09 110.087 1485.18 L140.621 1488.54 L140.621 1490.87 L110.087 1494.32 Q109.544 1494.42 108.556 1494.42 Z" fill="#000000" fill-rule="evenodd" fill-opacity="1" /><path clip-path="url(#clip500)" d="M773.319 61.205 Q773.319 52.4106 779.446 45.7407 Q785.572 39.0214 796.096 38.4285 Q795.799 32.2527 795.355 26.3733 Q794.96 20.4939 794.712 17.5295 Q794.465 14.5651 794.465 14.3181 Q794.465 12.0948 795.651 11.2054 Q796.886 10.3161 798.319 10.3161 Q799.752 10.3161 800.938 11.2054 Q802.173 12.0948 802.173 14.3181 Q802.173 15.4544 801.876 18.4188 Q801.629 21.3338 801.185 26.818 Q800.74 32.2527 800.444 38.4285 Q810.77 39.0214 817.044 45.3455 Q823.319 51.6695 823.319 61.205 Q823.319 70.0983 817.044 76.7682 Q810.77 83.4381 799.95 84.0804 Q800.147 88.3293 800.691 93.6653 Q801.234 99.0506 801.679 102.707 Q802.173 106.412 802.173 106.807 Q802.173 109.031 800.938 109.92 Q799.752 110.859 798.319 110.859 Q796.886 110.859 795.651 109.92 Q794.465 109.031 794.465 106.807 Q794.465 106.116 794.861 103.102 Q795.256 100.138 795.799 94.851 Q796.392 89.6139 796.689 84.0804 Q786.066 83.5863 779.693 77.2128 Q773.319 70.8394 773.319 61.205 M781.027 65.9481 Q781.027 81.3136 795.701 81.3136 L796.788 81.3136 Q796.985 75.4342 796.985 71.8275 Q796.985 56.8573 796.293 41.64 Q788.882 43.5668 784.93 50.7308 Q781.027 57.8454 781.027 65.9481 M799.604 72.4204 Q799.604 75.2366 799.851 80.9183 Q805.088 79.6832 808.793 75.6318 Q812.499 71.531 814.03 66.6398 Q815.612 61.6991 815.612 56.4126 Q815.612 41.0471 800.938 41.0471 L800.345 41.0471 Q799.604 55.4245 799.604 72.4204 Z" fill="#000000" fill-rule="evenodd" fill-opacity="1" /><path clip-path="url(#clip500)" d="M836.807 15.7509 Q836.807 13.2311 838.339 12.1936 Q839.87 11.1066 841.501 11.1066 Q843.526 11.1066 844.811 12.3418 Q846.145 13.5276 846.145 15.7509 Q846.145 16.739 846.046 17.2825 L842.686 47.8158 L840.364 47.8158 L836.906 17.2825 Q836.807 16.739 836.807 15.7509 Z" fill="#000000" fill-rule="evenodd" fill-opacity="1" /><path clip-path="url(#clip500)" d="M865.661 57.6478 Q865.661 40.553 872.034 26.7686 Q874.751 20.988 878.556 16.1461 Q882.36 11.3043 884.88 9.17977 Q887.399 7.05528 888.091 7.05528 Q889.079 7.05528 889.129 8.04341 Q889.129 8.53748 887.795 9.77265 Q871.491 26.3733 871.54 57.6478 Q871.54 89.021 887.399 104.979 Q889.129 106.709 889.129 107.252 Q889.129 108.24 888.091 108.24 Q887.399 108.24 884.979 106.215 Q882.558 104.189 878.803 99.5447 Q875.048 94.9004 872.33 89.2187 Q865.661 75.4342 865.661 57.6478 Z" fill="#000000" fill-rule="evenodd" fill-opacity="1" /><path clip-path="url(#clip500)" d="M899.109 61.205 Q899.109 52.4106 905.235 45.7407 Q911.362 39.0214 921.885 38.4285 Q921.589 32.2527 921.144 26.3733 Q920.749 20.4939 920.502 17.5295 Q920.255 14.5651 920.255 14.3181 Q920.255 12.0948 921.441 11.2054 Q922.676 10.3161 924.109 10.3161 Q925.541 10.3161 926.727 11.2054 Q927.962 12.0948 927.962 14.3181 Q927.962 15.4544 927.666 18.4188 Q927.419 21.3338 926.974 26.818 Q926.53 32.2527 926.233 38.4285 Q936.559 39.0214 942.834 45.3455 Q949.108 51.6695 949.108 61.205 Q949.108 70.0983 942.834 76.7682 Q936.559 83.4381 925.739 84.0804 Q925.937 88.3293 926.48 93.6653 Q927.024 99.0506 927.468 102.707 Q927.962 106.412 927.962 106.807 Q927.962 109.031 926.727 109.92 Q925.541 110.859 924.109 110.859 Q922.676 110.859 921.441 109.92 Q920.255 109.031 920.255 106.807 Q920.255 106.116 920.65 103.102 Q921.045 100.138 921.589 94.851 Q922.182 89.6139 922.478 84.0804 Q911.856 83.5863 905.482 77.2128 Q899.109 70.8394 899.109 61.205 M906.816 65.9481 Q906.816 81.3136 921.49 81.3136 L922.577 81.3136 Q922.775 75.4342 922.775 71.8275 Q922.775 56.8573 922.083 41.64 Q914.672 43.5668 910.719 50.7308 Q906.816 57.8454 906.816 65.9481 M925.393 72.4204 Q925.393 75.2366 925.64 80.9183 Q930.877 79.6832 934.583 75.6318 Q938.288 71.531 939.82 66.6398 Q941.401 61.6991 941.401 56.4126 Q941.401 41.0471 926.727 41.0471 L926.134 41.0471 Q925.393 55.4245 925.393 72.4204 Z" fill="#000000" fill-rule="evenodd" fill-opacity="1" /><path clip-path="url(#clip500)" d="M959.089 107.252 Q959.089 106.758 960.373 105.523 Q976.677 88.9222 976.677 57.6478 Q976.677 26.2745 961.015 10.4149 Q959.089 8.58689 959.089 8.04341 Q959.089 7.05528 960.077 7.05528 Q960.768 7.05528 963.189 9.08095 Q965.66 11.1066 969.365 15.7509 Q973.12 20.3951 975.887 26.0769 Q982.557 39.8613 982.557 57.6478 Q982.557 74.7425 976.183 88.527 Q973.466 94.3075 969.662 99.1494 Q965.857 103.991 963.338 106.116 Q960.818 108.24 960.077 108.24 Q959.089 108.24 959.089 107.252 Z" fill="#000000" fill-rule="evenodd" fill-opacity="1" /><path clip-path="url(#clip500)" d="M1002.67 48.4087 Q1001.13 46.7783 1001.13 44.6538 Q1001.13 42.5293 1002.67 40.9977 Q1004.2 39.4167 1006.52 39.4167 Q1008.74 39.4167 1010.22 40.8989 Q1011.76 42.3317 1011.76 44.7032 Q1011.76 47.0253 1010.13 48.5569 Q1008.54 50.0391 1006.52 50.0391 Q1004.2 50.0391 1002.67 48.4087 M1002.67 81.3136 Q1001.23 79.6832 1001.23 77.5587 Q1001.23 75.4342 1002.62 73.8532 Q1004.05 72.2227 1006.62 72.2227 Q1009.63 72.2227 1011.36 75.1377 Q1013.09 78.0033 1013.09 82.8452 Q1013.09 88.0823 1010.97 92.9242 Q1008.84 97.8154 1006.77 100.138 Q1004.69 102.46 1003.85 102.46 Q1002.86 102.46 1002.86 101.373 Q1002.86 100.977 1003.55 100.236 Q1010.82 92.4301 1010.87 82.8452 Q1010.87 81.3136 1010.67 81.3136 L1010.42 81.5112 Q1008.69 82.944 1006.62 82.944 Q1004.1 82.944 1002.67 81.3136 Z" fill="#000000" fill-rule="evenodd" fill-opacity="1" /><path clip-path="url(#clip500)" d="M1057.56 82.944 L1057.56 79.8314 Q1062.94 79.8314 1064.18 79.1891 Q1065.41 78.4974 1065.41 75.2366 L1065.41 48.1123 Q1065.41 44.3574 1064.08 43.4186 Q1062.79 42.4799 1057.56 42.4799 L1057.56 39.3179 L1071.79 38.2309 L1071.79 48.8534 Q1076.53 38.2309 1086.76 38.2309 Q1098.61 38.2309 1100.24 48.1123 Q1101.97 44.2585 1105.58 41.2447 Q1109.24 38.2309 1114.92 38.2309 Q1122.53 38.2309 1125.54 41.9858 Q1127.76 44.5056 1128.21 47.3218 Q1128.65 50.1379 1128.65 57.4501 L1128.65 76.7682 Q1128.75 78.8926 1130.38 79.3867 Q1132.01 79.8314 1136.56 79.8314 L1136.56 82.944 Q1126.23 82.6476 1125.24 82.6476 Q1124.45 82.6476 1113.78 82.944 L1113.78 79.8314 Q1119.17 79.8314 1120.4 79.1891 Q1121.69 78.4974 1121.69 75.2366 L1121.69 51.6695 Q1121.69 46.5312 1120.11 43.5174 Q1118.52 40.4542 1114.18 40.4542 Q1108.94 40.4542 1104.74 44.8514 Q1100.54 49.2486 1100.54 56.6596 L1100.54 75.2366 Q1100.54 78.4974 1101.78 79.1891 Q1103.06 79.8314 1108.45 79.8314 L1108.45 82.944 Q1098.12 82.6476 1097.08 82.6476 Q1096.29 82.6476 1085.67 82.944 L1085.67 79.8314 Q1091.05 79.8314 1092.29 79.1891 Q1093.57 78.4974 1093.57 75.2366 L1093.57 51.6695 Q1093.57 46.5312 1091.99 43.5174 Q1090.41 40.4542 1086.06 40.4542 Q1080.83 40.4542 1076.63 44.8514 Q1072.43 49.2486 1072.43 56.6596 L1072.43 75.2366 Q1072.43 78.4974 1073.66 79.1891 Q1074.95 79.8314 1080.28 79.8314 L1080.28 82.944 Q1069.96 82.6476 1068.97 82.6476 Q1068.18 82.6476 1057.56 82.944 Z" fill="#000000" fill-rule="evenodd" fill-opacity="1" /><path clip-path="url(#clip500)" d="M1141.35 60.6616 Q1141.35 51.1261 1147.48 44.3574 Q1153.6 37.5886 1162.4 37.5886 Q1171.29 37.5886 1175.89 43.3692 Q1180.53 49.1498 1180.53 57.4501 Q1180.53 58.9817 1180.13 59.2782 Q1179.74 59.5746 1178.01 59.5746 L1149.75 59.5746 Q1149.75 69.9006 1152.81 74.7425 Q1157.06 81.5112 1164.23 81.5112 Q1165.21 81.5112 1166.4 81.3136 Q1167.58 81.116 1170.01 80.276 Q1172.43 79.3867 1174.55 77.0646 Q1176.68 74.7425 1177.91 71.0864 Q1178.21 69.6536 1179.2 69.703 Q1180.53 69.703 1180.53 70.8888 Q1180.53 71.7781 1179.54 73.8038 Q1178.6 75.78 1176.77 78.1515 Q1174.95 80.5231 1171.39 82.3017 Q1167.88 84.0804 1163.63 84.0804 Q1154.74 84.0804 1148.02 77.361 Q1141.35 70.5923 1141.35 60.6616 M1149.85 57.4501 L1173.86 57.4501 Q1173.86 55.3256 1173.46 52.9541 Q1173.12 50.5826 1172.03 47.3218 Q1170.99 44.0115 1168.52 41.9364 Q1166.05 39.8613 1162.4 39.8613 Q1160.77 39.8613 1158.99 40.553 Q1157.26 41.2447 1155.13 42.9246 Q1153.01 44.6044 1151.53 48.4087 Q1150.05 52.213 1149.85 57.4501 Z" fill="#000000" fill-rule="evenodd" fill-opacity="1" /><path clip-path="url(#clip500)" d="M1187.69 73.3097 Q1187.69 64.7129 1197.82 60.1675 Q1203.9 57.2525 1216.45 56.5114 L1216.45 52.8059 Q1216.45 46.5312 1213.14 43.221 Q1209.88 39.8613 1205.73 39.8613 Q1198.32 39.8613 1194.76 44.5056 Q1197.77 44.6044 1198.86 46.136 Q1199.95 47.6182 1199.95 49.1498 Q1199.95 51.1755 1198.66 52.5095 Q1197.43 53.794 1195.3 53.794 Q1193.28 53.794 1191.94 52.5589 Q1190.61 51.2743 1190.61 49.051 Q1190.61 44.1103 1195.06 40.8495 Q1199.55 37.5886 1205.92 37.5886 Q1214.22 37.5886 1219.76 43.1716 Q1221.49 44.9008 1222.33 47.1241 Q1223.22 49.3474 1223.32 50.8296 Q1223.41 52.2624 1223.41 55.128 L1223.41 75.3354 Q1223.41 75.9282 1223.61 76.9164 Q1223.81 77.9045 1224.7 79.1891 Q1225.64 80.4243 1227.17 80.4243 Q1230.83 80.4243 1230.78 73.952 L1230.78 68.2702 L1233.35 68.2702 L1233.35 73.952 Q1233.35 79.3373 1230.48 81.4618 Q1227.66 83.5369 1225.04 83.5369 Q1221.69 83.5369 1219.56 81.0665 Q1217.44 78.5962 1217.14 75.2366 Q1215.61 79.0903 1212.1 81.61 Q1208.64 84.0804 1203.9 84.0804 Q1200.24 84.0804 1196.78 83.1416 Q1193.38 82.2523 1190.51 79.7326 Q1187.69 77.1634 1187.69 73.3097 M1195.5 73.2109 Q1195.5 76.9658 1198.17 79.3867 Q1200.84 81.8076 1204.59 81.8076 Q1208.84 81.8076 1212.64 78.5468 Q1216.45 75.2366 1216.45 68.7643 L1216.45 58.6359 Q1205.23 59.0311 1200.34 63.5272 Q1195.5 67.9738 1195.5 73.2109 Z" fill="#000000" fill-rule="evenodd" fill-opacity="1" /><path clip-path="url(#clip500)" d="M1237.4 81.61 L1237.4 68.2702 Q1237.4 67.1338 1237.45 66.7386 Q1237.5 66.3433 1237.79 66.0469 Q1238.09 65.7505 1238.68 65.7505 Q1239.37 65.7505 1239.62 66.0469 Q1239.92 66.3433 1240.11 67.4797 Q1241.65 74.446 1244.91 78.1515 Q1248.22 81.8076 1254.19 81.8076 Q1259.88 81.8076 1262.74 79.2879 Q1265.61 76.7682 1265.61 72.618 Q1265.61 65.207 1255.08 63.3295 Q1249.01 62.0944 1246.49 61.3039 Q1243.97 60.4639 1241.74 58.6359 Q1237.4 55.0786 1237.4 50.0391 Q1237.4 44.9996 1241.2 41.2941 Q1245.05 37.5886 1253.55 37.5886 Q1259.23 37.5886 1263.09 40.4542 Q1264.22 39.5649 1264.82 38.8238 Q1266.15 37.5886 1266.84 37.5886 Q1267.63 37.5886 1267.78 38.1321 Q1267.93 38.6262 1267.93 40.059 L1267.93 50.2368 Q1267.93 51.3731 1267.88 51.7684 Q1267.83 52.1636 1267.53 52.4601 Q1267.24 52.7071 1266.6 52.7071 Q1265.46 52.7071 1265.41 51.7684 Q1264.62 39.5155 1253.55 39.5155 Q1247.57 39.5155 1244.91 41.8376 Q1242.24 44.1103 1242.24 47.2229 Q1242.24 48.9522 1243.03 50.2862 Q1243.87 51.5707 1244.91 52.3612 Q1245.99 53.1023 1247.97 53.8434 Q1249.95 54.5351 1251.13 54.7822 Q1252.37 55.0292 1254.69 55.5233 Q1262.79 57.0549 1266.2 60.3651 Q1270.45 64.6141 1270.45 69.9994 Q1270.45 75.9777 1266.4 80.029 Q1262.35 84.0804 1254.19 84.0804 Q1247.62 84.0804 1243.03 79.6832 Q1242.44 80.276 1241.99 80.8195 Q1241.55 81.3136 1241.35 81.5112 Q1241.2 81.7088 1241.15 81.8571 Q1241.1 81.9559 1241 82.0547 Q1238.98 84.0804 1238.48 84.0804 Q1237.69 84.0804 1237.54 83.5369 Q1237.4 83.0428 1237.4 81.61 Z" fill="#000000" fill-rule="evenodd" fill-opacity="1" /><path clip-path="url(#clip500)" d="M1277.12 42.4799 L1277.12 39.3179 L1291.99 38.2309 L1291.99 71.8275 Q1291.99 74.2484 1292.19 75.6812 Q1292.39 77.0646 1293.18 78.695 Q1294.02 80.3254 1295.89 81.0665 Q1297.82 81.8076 1300.88 81.8076 Q1306.37 81.8076 1309.73 77.3116 Q1313.14 72.8156 1313.14 66.1457 L1313.14 48.1123 Q1313.14 44.3574 1311.8 43.4186 Q1310.47 42.4799 1305.23 42.4799 L1305.23 39.3179 L1320.1 38.2309 L1320.1 74.1496 Q1320.1 77.9045 1321.39 78.8926 Q1322.72 79.8314 1328.01 79.8314 L1328.01 82.944 L1313.43 84.0804 L1313.43 74.9401 Q1309.18 84.0309 1300.39 84.0804 Q1295.94 84.0804 1292.88 82.944 Q1289.87 81.8076 1288.33 80.4243 Q1286.8 78.9915 1285.96 76.2741 Q1285.17 73.5567 1285.07 71.8769 Q1284.98 70.1971 1284.98 66.9362 L1284.98 51.7684 Q1284.98 44.9008 1283.99 43.7151 Q1283 42.4799 1277.12 42.4799 Z" fill="#000000" fill-rule="evenodd" fill-opacity="1" /><path clip-path="url(#clip500)" d="M1332.8 82.944 L1332.8 79.8314 Q1338.19 79.8314 1339.42 79.1891 Q1340.71 78.4974 1340.71 75.2366 L1340.71 48.1123 Q1340.71 44.3574 1339.37 43.4186 Q1338.09 42.4799 1332.8 42.4799 L1332.8 39.3179 L1346.88 38.2309 L1346.88 49.3474 Q1348.31 44.9996 1351.33 41.64 Q1354.39 38.2309 1359.33 38.2309 Q1362.59 38.2309 1364.67 40.059 Q1366.79 41.887 1366.79 44.4068 Q1366.79 46.6301 1365.41 47.7664 Q1364.08 48.8534 1362.45 48.8534 Q1360.62 48.8534 1359.33 47.717 Q1358.1 46.5312 1358.1 44.5056 Q1358.1 43.2704 1358.64 42.3317 Q1359.23 41.3435 1359.68 40.9977 Q1360.12 40.6518 1360.42 40.553 Q1360.22 40.4542 1359.33 40.4542 Q1353.75 40.4542 1350.54 46.0372 Q1347.38 51.5707 1347.38 59.4758 L1347.38 75.0389 Q1347.38 77.9539 1348.56 78.8926 Q1349.8 79.8314 1355.08 79.8314 L1357.21 79.8314 L1357.21 82.944 Q1353.16 82.6476 1344.36 82.6476 Q1343.13 82.6476 1341.2 82.697 Q1339.27 82.7464 1336.75 82.8452 Q1334.23 82.944 1332.8 82.944 Z" fill="#000000" fill-rule="evenodd" fill-opacity="1" /><path clip-path="url(#clip500)" d="M1372.33 60.6616 Q1372.33 51.1261 1378.45 44.3574 Q1384.58 37.5886 1393.37 37.5886 Q1402.27 37.5886 1406.86 43.3692 Q1411.51 49.1498 1411.51 57.4501 Q1411.51 58.9817 1411.11 59.2782 Q1410.72 59.5746 1408.99 59.5746 L1380.73 59.5746 Q1380.73 69.9006 1383.79 74.7425 Q1388.04 81.5112 1395.2 81.5112 Q1396.19 81.5112 1397.38 81.3136 Q1398.56 81.116 1400.98 80.276 Q1403.4 79.3867 1405.53 77.0646 Q1407.65 74.7425 1408.89 71.0864 Q1409.18 69.6536 1410.17 69.703 Q1411.51 69.703 1411.51 70.8888 Q1411.51 71.7781 1410.52 73.8038 Q1409.58 75.78 1407.75 78.1515 Q1405.92 80.5231 1402.37 82.3017 Q1398.86 84.0804 1394.61 84.0804 Q1385.72 84.0804 1379 77.361 Q1372.33 70.5923 1372.33 60.6616 M1380.82 57.4501 L1404.84 57.4501 Q1404.84 55.3256 1404.44 52.9541 Q1404.09 50.5826 1403.01 47.3218 Q1401.97 44.0115 1399.5 41.9364 Q1397.03 39.8613 1393.37 39.8613 Q1391.74 39.8613 1389.96 40.553 Q1388.24 41.2447 1386.11 42.9246 Q1383.99 44.6044 1382.5 48.4087 Q1381.02 52.213 1380.82 57.4501 Z" fill="#000000" fill-rule="evenodd" fill-opacity="1" /><path clip-path="url(#clip500)" d="M1417.88 61.205 Q1417.88 51.5707 1424.6 44.9008 Q1431.32 38.2309 1440.41 38.2309 Q1448.12 38.2309 1453.16 44.5056 L1453.16 22.6184 Q1453.16 18.8635 1451.82 17.9248 Q1450.54 16.986 1445.3 16.986 L1445.3 13.824 L1459.88 12.7371 L1459.88 74.1496 Q1459.88 77.9045 1461.16 78.8926 Q1462.49 79.8314 1467.73 79.8314 L1467.73 82.944 L1452.86 84.0804 L1452.86 77.361 Q1447.62 84.0309 1439.32 84.0804 Q1430.63 84.0804 1424.25 77.4104 Q1417.88 70.7405 1417.88 61.205 M1426.28 61.3039 Q1426.28 70.6911 1429.19 75.3354 Q1433.24 81.8076 1439.82 81.8076 Q1447.33 81.8076 1451.77 74.7425 Q1452.91 73.0132 1452.86 70.9876 L1452.86 50.2368 Q1452.86 48.2111 1451.77 46.5312 Q1447.62 40.4542 1440.85 40.4542 Q1433.79 40.4542 1429.39 46.9265 Q1426.28 51.7684 1426.28 61.3039 Z" fill="#000000" fill-rule="evenodd" fill-opacity="1" /><path clip-path="url(#clip500)" d="M1514.22 57.6478 Q1514.22 40.553 1520.6 26.7686 Q1523.31 20.988 1527.12 16.1461 Q1530.92 11.3043 1533.44 9.17977 Q1535.96 7.05528 1536.65 7.05528 Q1537.64 7.05528 1537.69 8.04341 Q1537.69 8.53748 1536.36 9.77265 Q1520.05 26.3733 1520.1 57.6478 Q1520.1 89.021 1535.96 104.979 Q1537.69 106.709 1537.69 107.252 Q1537.69 108.24 1536.65 108.24 Q1535.96 108.24 1533.54 106.215 Q1531.12 104.189 1527.36 99.5447 Q1523.61 94.9004 1520.89 89.2187 Q1514.22 75.4342 1514.22 57.6478 Z" fill="#000000" fill-rule="evenodd" fill-opacity="1" /><path clip-path="url(#clip500)" d="M1547.67 61.205 Q1547.67 52.4106 1553.8 45.7407 Q1559.92 39.0214 1570.45 38.4285 Q1570.15 32.2527 1569.71 26.3733 Q1569.31 20.4939 1569.06 17.5295 Q1568.82 14.5651 1568.82 14.3181 Q1568.82 12.0948 1570 11.2054 Q1571.24 10.3161 1572.67 10.3161 Q1574.1 10.3161 1575.29 11.2054 Q1576.52 12.0948 1576.52 14.3181 Q1576.52 15.4544 1576.23 18.4188 Q1575.98 21.3338 1575.54 26.818 Q1575.09 32.2527 1574.8 38.4285 Q1585.12 39.0214 1591.4 45.3455 Q1597.67 51.6695 1597.67 61.205 Q1597.67 70.0983 1591.4 76.7682 Q1585.12 83.4381 1574.3 84.0804 Q1574.5 88.3293 1575.04 93.6653 Q1575.59 99.0506 1576.03 102.707 Q1576.52 106.412 1576.52 106.807 Q1576.52 109.031 1575.29 109.92 Q1574.1 110.859 1572.67 110.859 Q1571.24 110.859 1570 109.92 Q1568.82 109.031 1568.82 106.807 Q1568.82 106.116 1569.21 103.102 Q1569.61 100.138 1570.15 94.851 Q1570.74 89.6139 1571.04 84.0804 Q1560.42 83.5863 1554.04 77.2128 Q1547.67 70.8394 1547.67 61.205 M1555.38 65.9481 Q1555.38 81.3136 1570.05 81.3136 L1571.14 81.3136 Q1571.34 75.4342 1571.34 71.8275 Q1571.34 56.8573 1570.64 41.64 Q1563.23 43.5668 1559.28 50.7308 Q1555.38 57.8454 1555.38 65.9481 M1573.96 72.4204 Q1573.96 75.2366 1574.2 80.9183 Q1579.44 79.6832 1583.14 75.6318 Q1586.85 71.531 1588.38 66.6398 Q1589.96 61.6991 1589.96 56.4126 Q1589.96 41.0471 1575.29 41.0471 L1574.7 41.0471 Q1573.96 55.4245 1573.96 72.4204 Z" fill="#000000" fill-rule="evenodd" fill-opacity="1" /><path clip-path="url(#clip500)" d="M1607.65 107.252 Q1607.65 106.758 1608.94 105.523 Q1625.24 88.9222 1625.24 57.6478 Q1625.24 26.2745 1609.58 10.4149 Q1607.65 8.58689 1607.65 8.04341 Q1607.65 7.05528 1608.64 7.05528 Q1609.33 7.05528 1611.75 9.08095 Q1614.22 11.1066 1617.93 15.7509 Q1621.68 20.3951 1624.45 26.0769 Q1631.12 39.8613 1631.12 57.6478 Q1631.12 74.7425 1624.75 88.527 Q1622.03 94.3075 1618.22 99.1494 Q1614.42 103.991 1611.9 106.116 Q1609.38 108.24 1608.64 108.24 Q1607.65 108.24 1607.65 107.252 Z" fill="#000000" fill-rule="evenodd" fill-opacity="1" /><path clip-path="url(#clip500)" d="M1676.67 42.4799 L1676.67 39.3179 Q1681.22 39.6143 1686.5 39.6143 Q1688.43 39.6143 1697.52 39.3179 L1697.52 42.4799 Q1691.74 42.4799 1691.74 45.0985 Q1691.74 45.4937 1692.33 46.8277 L1703.7 75.0389 L1714.02 49.2486 Q1714.62 47.5194 1714.62 46.8277 Q1714.62 45.0985 1713.43 43.8633 Q1712.29 42.5787 1709.77 42.4799 L1709.77 39.3179 Q1714.91 39.6143 1718.57 39.6143 Q1722.72 39.6143 1726.13 39.3179 L1726.13 42.4799 Q1723.11 42.4799 1720.99 43.8633 Q1718.87 45.1973 1718.17 46.383 Q1717.53 47.5194 1716.84 49.2486 L1703.6 82.1535 Q1702.81 84.0804 1701.47 84.0804 Q1700.58 84.0804 1700.19 83.6851 Q1699.84 83.3393 1699.35 82.1535 L1684.77 46.2348 Q1683.79 43.7151 1682.5 43.1222 Q1681.22 42.4799 1676.67 42.4799 Z" fill="#000000" fill-rule="evenodd" fill-opacity="1" /><path clip-path="url(#clip500)" d="M1731.41 81.61 L1731.41 68.2702 Q1731.41 67.1338 1731.46 66.7386 Q1731.51 66.3433 1731.81 66.0469 Q1732.11 65.7505 1732.7 65.7505 Q1733.39 65.7505 1733.64 66.0469 Q1733.93 66.3433 1734.13 67.4797 Q1735.66 74.446 1738.92 78.1515 Q1742.23 81.8076 1748.21 81.8076 Q1753.89 81.8076 1756.76 79.2879 Q1759.63 76.7682 1759.63 72.618 Q1759.63 65.207 1749.1 63.3295 Q1743.03 62.0944 1740.51 61.3039 Q1737.99 60.4639 1735.76 58.6359 Q1731.41 55.0786 1731.41 50.0391 Q1731.41 44.9996 1735.22 41.2941 Q1739.07 37.5886 1747.57 37.5886 Q1753.25 37.5886 1757.11 40.4542 Q1758.24 39.5649 1758.84 38.8238 Q1760.17 37.5886 1760.86 37.5886 Q1761.65 37.5886 1761.8 38.1321 Q1761.95 38.6262 1761.95 40.059 L1761.95 50.2368 Q1761.95 51.3731 1761.9 51.7684 Q1761.85 52.1636 1761.55 52.4601 Q1761.26 52.7071 1760.61 52.7071 Q1759.48 52.7071 1759.43 51.7684 Q1758.64 39.5155 1747.57 39.5155 Q1741.59 39.5155 1738.92 41.8376 Q1736.26 44.1103 1736.26 47.2229 Q1736.26 48.9522 1737.05 50.2862 Q1737.89 51.5707 1738.92 52.3612 Q1740.01 53.1023 1741.99 53.8434 Q1743.96 54.5351 1745.15 54.7822 Q1746.38 55.0292 1748.71 55.5233 Q1756.81 57.0549 1760.22 60.3651 Q1764.47 64.6141 1764.47 69.9994 Q1764.47 75.9777 1760.42 80.029 Q1756.36 84.0804 1748.21 84.0804 Q1741.64 84.0804 1737.05 79.6832 Q1736.45 80.276 1736.01 80.8195 Q1735.56 81.3136 1735.37 81.5112 Q1735.22 81.7088 1735.17 81.8571 Q1735.12 81.9559 1735.02 82.0547 Q1733 84.0804 1732.5 84.0804 Q1731.71 84.0804 1731.56 83.5369 Q1731.41 83.0428 1731.41 81.61 Z" fill="#000000" fill-rule="evenodd" fill-opacity="1" /><path clip-path="url(#clip500)" d="M1804.34 82.944 L1804.34 79.8314 Q1809.72 79.8314 1810.96 79.1891 Q1812.24 78.4974 1812.24 75.2366 L1812.24 48.1123 Q1812.24 44.3574 1810.91 43.4186 Q1809.63 42.4799 1804.34 42.4799 L1804.34 39.3179 L1818.42 38.2309 L1818.42 49.3474 Q1819.85 44.9996 1822.87 41.64 Q1825.93 38.2309 1830.87 38.2309 Q1834.13 38.2309 1836.21 40.059 Q1838.33 41.887 1838.33 44.4068 Q1838.33 46.6301 1836.95 47.7664 Q1835.61 48.8534 1833.98 48.8534 Q1832.15 48.8534 1830.87 47.717 Q1829.64 46.5312 1829.64 44.5056 Q1829.64 43.2704 1830.18 42.3317 Q1830.77 41.3435 1831.22 40.9977 Q1831.66 40.6518 1831.96 40.553 Q1831.76 40.4542 1830.87 40.4542 Q1825.29 40.4542 1822.08 46.0372 Q1818.91 51.5707 1818.91 59.4758 L1818.91 75.0389 Q1818.91 77.9539 1820.1 78.8926 Q1821.33 79.8314 1826.62 79.8314 L1828.75 79.8314 L1828.75 82.944 Q1824.69 82.6476 1815.9 82.6476 Q1814.66 82.6476 1812.74 82.697 Q1810.81 82.7464 1808.29 82.8452 Q1805.77 82.944 1804.34 82.944 Z" fill="#000000" fill-rule="evenodd" fill-opacity="1" /><path clip-path="url(#clip500)" d="M1843.86 60.6616 Q1843.86 51.1261 1849.99 44.3574 Q1856.12 37.5886 1864.91 37.5886 Q1873.8 37.5886 1878.4 43.3692 Q1883.04 49.1498 1883.04 57.4501 Q1883.04 58.9817 1882.65 59.2782 Q1882.25 59.5746 1880.52 59.5746 L1852.26 59.5746 Q1852.26 69.9006 1855.33 74.7425 Q1859.58 81.5112 1866.74 81.5112 Q1867.73 81.5112 1868.91 81.3136 Q1870.1 81.116 1872.52 80.276 Q1874.94 79.3867 1877.07 77.0646 Q1879.19 74.7425 1880.43 71.0864 Q1880.72 69.6536 1881.71 69.703 Q1883.04 69.703 1883.04 70.8888 Q1883.04 71.7781 1882.06 73.8038 Q1881.12 75.78 1879.29 78.1515 Q1877.46 80.5231 1873.9 82.3017 Q1870.4 84.0804 1866.15 84.0804 Q1857.25 84.0804 1850.53 77.361 Q1843.86 70.5923 1843.86 60.6616 M1852.36 57.4501 L1876.37 57.4501 Q1876.37 55.3256 1875.98 52.9541 Q1875.63 50.5826 1874.55 47.3218 Q1873.51 44.0115 1871.04 41.9364 Q1868.57 39.8613 1864.91 39.8613 Q1863.28 39.8613 1861.5 40.553 Q1859.77 41.2447 1857.65 42.9246 Q1855.52 44.6044 1854.04 48.4087 Q1852.56 52.213 1852.36 57.4501 Z" fill="#000000" fill-rule="evenodd" fill-opacity="1" /><path clip-path="url(#clip500)" d="M1888.77 99.4458 Q1894.16 99.4458 1895.4 98.7542 Q1896.68 98.1119 1896.68 94.9004 L1896.68 47.5194 Q1896.68 44.1597 1895.4 43.3198 Q1894.16 42.4799 1888.77 42.4799 L1888.77 39.3179 L1903.35 38.2309 L1903.35 44.9008 Q1909.43 38.2309 1917.53 38.2309 Q1926.13 38.2309 1932.4 44.9008 Q1938.68 51.5707 1938.68 61.1062 Q1938.68 70.7405 1932.01 77.4104 Q1925.34 84.0804 1916.1 84.0804 Q1911.06 84.0804 1907.65 81.5112 Q1904.29 78.8926 1903.65 76.9658 L1903.65 77.9045 L1903.65 94.9004 Q1903.65 98.1613 1904.93 98.8036 Q1906.22 99.4458 1911.55 99.4458 L1911.55 102.558 Q1900.93 102.262 1900.14 102.262 Q1899.15 102.262 1888.77 102.558 L1888.77 99.4458 M1903.65 71.4322 Q1903.65 72.9638 1903.84 73.5073 Q1904.09 74.0508 1905.08 75.6812 Q1909.08 81.8076 1915.6 81.8076 Q1915.65 81.8076 1915.7 81.8076 Q1921.48 81.8076 1925.88 75.9282 Q1930.28 69.9994 1930.28 61.1062 Q1930.28 52.6083 1926.27 46.6795 Q1922.27 40.7507 1916.74 40.7507 Q1912.79 40.7507 1909.33 42.8752 Q1905.87 44.9996 1903.65 48.8534 L1903.65 71.4322 Z" fill="#000000" fill-rule="evenodd" fill-opacity="1" /><path clip-path="url(#clip500)" d="M1954.39 77.5093 Q1947.72 70.8888 1947.72 61.3039 Q1947.72 51.6695 1954.24 44.6538 Q1960.81 37.5886 1970.2 37.5886 Q1979.39 37.5886 1985.96 44.6044 Q1992.58 51.5707 1992.58 61.3039 Q1992.58 70.8394 1985.91 77.4599 Q1979.29 84.0804 1970.1 84.0804 Q1961.11 84.0804 1954.39 77.5093 M1956.12 60.4639 Q1956.12 70.2959 1958.69 74.7425 Q1962.64 81.5112 1970.2 81.5112 Q1973.95 81.5112 1977.06 79.4855 Q1980.23 77.4599 1981.96 74.0508 Q1984.18 69.6042 1984.18 60.4639 Q1984.18 50.7308 1981.51 46.4324 Q1977.56 39.8613 1970.1 39.8613 Q1966.84 39.8613 1963.63 41.5906 Q1960.46 43.2704 1958.54 46.6301 Q1956.12 51.0767 1956.12 60.4639 Z" fill="#000000" fill-rule="evenodd" fill-opacity="1" /><path clip-path="url(#clip500)" d="M1998.31 82.944 L1998.31 79.8314 Q2003.69 79.8314 2004.93 79.1891 Q2006.21 78.4974 2006.21 75.2366 L2006.21 48.1123 Q2006.21 44.3574 2004.88 43.4186 Q2003.6 42.4799 1998.31 42.4799 L1998.31 39.3179 L2012.39 38.2309 L2012.39 49.3474 Q2013.82 44.9996 2016.84 41.64 Q2019.9 38.2309 2024.84 38.2309 Q2028.1 38.2309 2030.18 40.059 Q2032.3 41.887 2032.3 44.4068 Q2032.3 46.6301 2030.92 47.7664 Q2029.58 48.8534 2027.95 48.8534 Q2026.13 48.8534 2024.84 47.717 Q2023.61 46.5312 2023.61 44.5056 Q2023.61 43.2704 2024.15 42.3317 Q2024.74 41.3435 2025.19 40.9977 Q2025.63 40.6518 2025.93 40.553 Q2025.73 40.4542 2024.84 40.4542 Q2019.26 40.4542 2016.05 46.0372 Q2012.88 51.5707 2012.88 59.4758 L2012.88 75.0389 Q2012.88 77.9539 2014.07 78.8926 Q2015.31 79.8314 2020.59 79.8314 L2022.72 79.8314 L2022.72 82.944 Q2018.67 82.6476 2009.87 82.6476 Q2008.64 82.6476 2006.71 82.697 Q2004.78 82.7464 2002.26 82.8452 Q1999.74 82.944 1998.31 82.944 Z" fill="#000000" fill-rule="evenodd" fill-opacity="1" /><path clip-path="url(#clip500)" d="M2036.95 42.4799 L2036.95 40.2566 Q2041.59 40.059 2044.65 36.7981 Q2047.77 33.4879 2048.8 29.4365 Q2049.89 25.3852 2049.99 20.6915 L2052.51 20.6915 L2052.51 39.3179 L2066.98 39.3179 L2066.98 42.4799 L2052.51 42.4799 L2052.51 70.5923 Q2052.51 81.5112 2059.33 81.5112 Q2062.24 81.5112 2064.17 78.5468 Q2066.1 75.533 2066.1 70.1971 L2066.1 64.6141 L2068.62 64.6141 L2068.62 70.3947 Q2068.62 75.8788 2066.1 79.9796 Q2063.58 84.0804 2058.59 84.0804 Q2056.76 84.0804 2054.93 83.5863 Q2053.15 83.1416 2050.78 81.9559 Q2048.46 80.7207 2046.98 77.7563 Q2045.54 74.7425 2045.54 70.3947 L2045.54 42.4799 L2036.95 42.4799 Z" fill="#000000" fill-rule="evenodd" fill-opacity="1" /><path clip-path="url(#clip500)" d="M2077.06 60.6616 Q2077.06 51.1261 2083.19 44.3574 Q2089.32 37.5886 2098.11 37.5886 Q2107 37.5886 2111.6 43.3692 Q2116.24 49.1498 2116.24 57.4501 Q2116.24 58.9817 2115.85 59.2782 Q2115.45 59.5746 2113.72 59.5746 L2085.46 59.5746 Q2085.46 69.9006 2088.53 74.7425 Q2092.78 81.5112 2099.94 81.5112 Q2100.93 81.5112 2102.11 81.3136 Q2103.3 81.116 2105.72 80.276 Q2108.14 79.3867 2110.27 77.0646 Q2112.39 74.7425 2113.62 71.0864 Q2113.92 69.6536 2114.91 69.703 Q2116.24 69.703 2116.24 70.8888 Q2116.24 71.7781 2115.26 73.8038 Q2114.32 75.78 2112.49 78.1515 Q2110.66 80.5231 2107.1 82.3017 Q2103.6 84.0804 2099.35 84.0804 Q2090.45 84.0804 2083.73 77.361 Q2077.06 70.5923 2077.06 60.6616 M2085.56 57.4501 L2109.57 57.4501 Q2109.57 55.3256 2109.18 52.9541 Q2108.83 50.5826 2107.75 47.3218 Q2106.71 44.0115 2104.24 41.9364 Q2101.77 39.8613 2098.11 39.8613 Q2096.48 39.8613 2094.7 40.553 Q2092.97 41.2447 2090.85 42.9246 Q2088.72 44.6044 2087.24 48.4087 Q2085.76 52.213 2085.56 57.4501 Z" fill="#000000" fill-rule="evenodd" fill-opacity="1" /><path clip-path="url(#clip500)" d="M2122.62 61.205 Q2122.62 51.5707 2129.34 44.9008 Q2136.06 38.2309 2145.15 38.2309 Q2152.85 38.2309 2157.89 44.5056 L2157.89 22.6184 Q2157.89 18.8635 2156.56 17.9248 Q2155.27 16.986 2150.04 16.986 L2150.04 13.824 L2164.61 12.7371 L2164.61 74.1496 Q2164.61 77.9045 2165.9 78.8926 Q2167.23 79.8314 2172.47 79.8314 L2172.47 82.944 L2157.6 84.0804 L2157.6 77.361 Q2152.36 84.0309 2144.06 84.0804 Q2135.36 84.0804 2128.99 77.4104 Q2122.62 70.7405 2122.62 61.205 M2131.02 61.3039 Q2131.02 70.6911 2133.93 75.3354 Q2137.98 81.8076 2144.55 81.8076 Q2152.06 81.8076 2156.51 74.7425 Q2157.65 73.0132 2157.6 70.9876 L2157.6 50.2368 Q2157.6 48.2111 2156.51 46.5312 Q2152.36 40.4542 2145.59 40.4542 Q2138.53 40.4542 2134.13 46.9265 Q2131.02 51.7684 2131.02 61.3039 Z" fill="#000000" fill-rule="evenodd" fill-opacity="1" /><path clip-path="url(#clip500)" d="M2218.96 57.6478 Q2218.96 40.553 2225.33 26.7686 Q2228.05 20.988 2231.86 16.1461 Q2235.66 11.3043 2238.18 9.17977 Q2240.7 7.05528 2241.39 7.05528 Q2242.38 7.05528 2242.43 8.04341 Q2242.43 8.53748 2241.09 9.77265 Q2224.79 26.3733 2224.84 57.6478 Q2224.84 89.021 2240.7 104.979 Q2242.43 106.709 2242.43 107.252 Q2242.43 108.24 2241.39 108.24 Q2240.7 108.24 2238.28 106.215 Q2235.86 104.189 2232.1 99.5447 Q2228.35 94.9004 2225.63 89.2187 Q2218.96 75.4342 2218.96 57.6478 Z" fill="#000000" fill-rule="evenodd" fill-opacity="1" /><path clip-path="url(#clip500)" d="M2252.41 61.205 Q2252.41 52.4106 2258.53 45.7407 Q2264.66 39.0214 2275.18 38.4285 Q2274.89 32.2527 2274.44 26.3733 Q2274.05 20.4939 2273.8 17.5295 Q2273.55 14.5651 2273.55 14.3181 Q2273.55 12.0948 2274.74 11.2054 Q2275.98 10.3161 2277.41 10.3161 Q2278.84 10.3161 2280.03 11.2054 Q2281.26 12.0948 2281.26 14.3181 Q2281.26 15.4544 2280.97 18.4188 Q2280.72 21.3338 2280.27 26.818 Q2279.83 32.2527 2279.53 38.4285 Q2289.86 39.0214 2296.13 45.3455 Q2302.41 51.6695 2302.41 61.205 Q2302.41 70.0983 2296.13 76.7682 Q2289.86 83.4381 2279.04 84.0804 Q2279.24 88.3293 2279.78 93.6653 Q2280.32 99.0506 2280.77 102.707 Q2281.26 106.412 2281.26 106.807 Q2281.26 109.031 2280.03 109.92 Q2278.84 110.859 2277.41 110.859 Q2275.98 110.859 2274.74 109.92 Q2273.55 109.031 2273.55 106.807 Q2273.55 106.116 2273.95 103.102 Q2274.34 100.138 2274.89 94.851 Q2275.48 89.6139 2275.78 84.0804 Q2265.16 83.5863 2258.78 77.2128 Q2252.41 70.8394 2252.41 61.205 M2260.12 65.9481 Q2260.12 81.3136 2274.79 81.3136 L2275.88 81.3136 Q2276.07 75.4342 2276.07 71.8275 Q2276.07 56.8573 2275.38 41.64 Q2267.97 43.5668 2264.02 50.7308 Q2260.12 57.8454 2260.12 65.9481 M2278.69 72.4204 Q2278.69 75.2366 2278.94 80.9183 Q2284.18 79.6832 2287.88 75.6318 Q2291.59 71.531 2293.12 66.6398 Q2294.7 61.6991 2294.7 56.4126 Q2294.7 41.0471 2280.03 41.0471 L2279.43 41.0471 Q2278.69 55.4245 2278.69 72.4204 Z" fill="#000000" fill-rule="evenodd" fill-opacity="1" /><path clip-path="url(#clip500)" d="M2315.9 15.7509 Q2315.9 13.2311 2317.43 12.1936 Q2318.96 11.1066 2320.59 11.1066 Q2322.62 11.1066 2323.9 12.3418 Q2325.23 13.5276 2325.23 15.7509 Q2325.23 16.739 2325.13 17.2825 L2321.78 47.8158 L2319.45 47.8158 L2315.99 17.2825 Q2315.9 16.739 2315.9 15.7509 Z" fill="#000000" fill-rule="evenodd" fill-opacity="1" /><path clip-path="url(#clip500)" d="M2340.5 107.252 Q2340.5 106.758 2341.79 105.523 Q2358.09 88.9222 2358.09 57.6478 Q2358.09 26.2745 2342.43 10.4149 Q2340.5 8.58689 2340.5 8.04341 Q2340.5 7.05528 2341.49 7.05528 Q2342.18 7.05528 2344.6 9.08095 Q2347.07 11.1066 2350.78 15.7509 Q2354.53 20.3951 2357.3 26.0769 Q2363.97 39.8613 2363.97 57.6478 Q2363.97 74.7425 2357.6 88.527 Q2354.88 94.3075 2351.07 99.1494 Q2347.27 103.991 2344.75 106.116 Q2342.23 108.24 2341.49 108.24 Q2340.5 108.24 2340.5 107.252 Z" fill="#000000" fill-rule="evenodd" fill-opacity="1" /><path clip-path="url(#clip500)" d="M2411.84 73.3097 Q2411.84 64.7129 2421.97 60.1675 Q2428.05 57.2525 2440.6 56.5114 L2440.6 52.8059 Q2440.6 46.5312 2437.29 43.221 Q2434.03 39.8613 2429.88 39.8613 Q2422.47 39.8613 2418.91 44.5056 Q2421.92 44.6044 2423.01 46.136 Q2424.1 47.6182 2424.1 49.1498 Q2424.1 51.1755 2422.81 52.5095 Q2421.58 53.794 2419.45 53.794 Q2417.43 53.794 2416.09 52.5589 Q2414.76 51.2743 2414.76 49.051 Q2414.76 44.1103 2419.21 40.8495 Q2423.7 37.5886 2430.07 37.5886 Q2438.38 37.5886 2443.91 43.1716 Q2445.64 44.9008 2446.48 47.1241 Q2447.37 49.3474 2447.47 50.8296 Q2447.56 52.2624 2447.56 55.128 L2447.56 75.3354 Q2447.56 75.9282 2447.76 76.9164 Q2447.96 77.9045 2448.85 79.1891 Q2449.79 80.4243 2451.32 80.4243 Q2454.98 80.4243 2454.93 73.952 L2454.93 68.2702 L2457.5 68.2702 L2457.5 73.952 Q2457.5 79.3373 2454.63 81.4618 Q2451.81 83.5369 2449.2 83.5369 Q2445.84 83.5369 2443.71 81.0665 Q2441.59 78.5962 2441.29 75.2366 Q2439.76 79.0903 2436.25 81.61 Q2432.79 84.0804 2428.05 84.0804 Q2424.39 84.0804 2420.93 83.1416 Q2417.53 82.2523 2414.66 79.7326 Q2411.84 77.1634 2411.84 73.3097 M2419.65 73.2109 Q2419.65 76.9658 2422.32 79.3867 Q2424.99 81.8076 2428.74 81.8076 Q2432.99 81.8076 2436.79 78.5468 Q2440.6 75.2366 2440.6 68.7643 L2440.6 58.6359 Q2429.38 59.0311 2424.49 63.5272 Q2419.65 67.9738 2419.65 73.2109 Z" fill="#000000" fill-rule="evenodd" fill-opacity="1" /><path clip-path="url(#clip500)" d="M2461.45 82.944 L2461.45 79.8314 Q2466.83 79.8314 2468.07 79.1891 Q2469.3 78.4974 2469.3 75.2366 L2469.3 48.1123 Q2469.3 44.3574 2467.97 43.4186 Q2466.69 42.4799 2461.45 42.4799 L2461.45 39.3179 L2475.68 38.2309 L2475.68 48.8534 Q2480.42 38.2309 2490.65 38.2309 Q2498.26 38.2309 2501.27 41.9858 Q2503.49 44.5056 2503.94 47.3218 Q2504.43 50.1379 2504.43 57.4501 L2504.43 76.7682 Q2504.53 78.8926 2506.16 79.3867 Q2507.79 79.8314 2512.34 79.8314 L2512.34 82.944 Q2502.01 82.6476 2500.97 82.6476 Q2500.18 82.6476 2489.56 82.944 L2489.56 79.8314 Q2494.95 79.8314 2496.18 79.1891 Q2497.47 78.4974 2497.47 75.2366 L2497.47 51.6695 Q2497.47 46.5312 2495.88 43.5174 Q2494.3 40.4542 2489.96 40.4542 Q2484.72 40.4542 2480.52 44.8514 Q2476.32 49.2486 2476.32 56.6596 L2476.32 75.2366 Q2476.32 78.4974 2477.55 79.1891 Q2478.84 79.8314 2484.18 79.8314 L2484.18 82.944 Q2473.85 82.6476 2472.86 82.6476 Q2472.07 82.6476 2461.45 82.944 Z" fill="#000000" fill-rule="evenodd" fill-opacity="1" /><path clip-path="url(#clip500)" d="M2517.13 90.9479 Q2517.13 87.687 2519.6 84.8709 Q2522.12 82.0547 2526.47 80.8195 Q2522.02 78.0033 2522.02 71.8275 Q2522.02 67.0844 2525.13 63.4283 Q2520.39 59.4758 2520.39 53.0035 Q2520.39 47.0253 2525.13 42.6281 Q2529.88 38.2309 2536.79 38.2309 Q2542.87 38.2309 2547.51 41.887 Q2552.36 37.144 2558.24 37.0946 Q2560.85 37.0946 2562.09 38.725 Q2563.37 40.3554 2563.37 42.0846 Q2563.37 43.6163 2562.39 44.3574 Q2561.45 45.0985 2560.46 45.0985 Q2559.22 45.0985 2558.33 44.3079 Q2557.49 43.468 2557.49 42.1835 Q2557.49 40.059 2559.13 39.4167 Q2558.83 39.3179 2558.14 39.3179 Q2553.2 39.3179 2549 43.2704 Q2553.15 47.1241 2553.15 53.1023 Q2553.15 59.0806 2548.4 63.4778 Q2543.66 67.875 2536.79 67.875 Q2531.11 67.875 2526.76 64.7129 Q2525.03 66.7386 2525.03 69.5054 Q2525.03 72.0251 2526.57 74.0014 Q2528.1 75.9777 2530.42 76.2741 Q2531.11 76.3729 2537.98 76.3729 Q2542.03 76.3729 2544.25 76.4717 Q2546.48 76.5705 2549.64 77.2622 Q2552.85 77.9045 2555.37 79.1891 Q2561.94 82.8452 2561.99 90.7503 Q2561.99 96.5308 2555.32 100.138 Q2548.7 103.794 2539.51 103.794 Q2530.22 103.794 2523.65 100.088 Q2517.13 96.432 2517.13 90.9479 M2522.42 90.9479 Q2522.42 95.0981 2527.31 98.2601 Q2532.2 101.472 2539.61 101.472 Q2546.87 101.472 2551.76 98.3095 Q2556.7 95.1969 2556.7 90.9479 Q2556.7 87.9341 2554.98 86.0072 Q2553.25 84.0804 2549.69 83.2898 Q2546.18 82.5487 2543.71 82.4005 Q2541.24 82.2523 2536.69 82.2523 L2530.72 82.2523 Q2527.26 82.4499 2524.84 84.9697 Q2522.42 87.4894 2522.42 90.9479 M2527.95 53.1023 Q2527.95 65.5528 2536.79 65.5528 Q2541.24 65.5528 2543.96 61.5015 Q2545.59 58.7841 2545.59 53.0035 Q2545.59 40.553 2536.79 40.553 Q2532.35 40.553 2529.58 44.6044 Q2527.95 47.3218 2527.95 53.1023 Z" fill="#000000" fill-rule="evenodd" fill-opacity="1" /><path clip-path="url(#clip500)" d="M2568.27 82.944 L2568.27 79.8314 Q2573.65 79.8314 2574.89 79.1891 Q2576.12 78.4974 2576.12 75.2366 L2576.12 22.6184 Q2576.12 18.8635 2574.79 17.9248 Q2573.5 16.986 2568.27 16.986 L2568.27 13.824 L2582.79 12.7371 L2582.79 75.2366 Q2582.79 78.4974 2584.08 79.1891 Q2585.36 79.8314 2590.7 79.8314 L2590.7 82.944 Q2589.46 82.944 2586.89 82.8452 Q2584.32 82.7464 2582.45 82.697 Q2580.57 82.6476 2579.48 82.6476 Q2578.3 82.6476 2568.27 82.944 Z" fill="#000000" fill-rule="evenodd" fill-opacity="1" /><path clip-path="url(#clip500)" d="M2595.74 60.6616 Q2595.74 51.1261 2601.86 44.3574 Q2607.99 37.5886 2616.78 37.5886 Q2625.68 37.5886 2630.27 43.3692 Q2634.92 49.1498 2634.92 57.4501 Q2634.92 58.9817 2634.52 59.2782 Q2634.12 59.5746 2632.4 59.5746 L2604.13 59.5746 Q2604.13 69.9006 2607.2 74.7425 Q2611.45 81.5112 2618.61 81.5112 Q2619.6 81.5112 2620.78 81.3136 Q2621.97 81.116 2624.39 80.276 Q2626.81 79.3867 2628.94 77.0646 Q2631.06 74.7425 2632.3 71.0864 Q2632.59 69.6536 2633.58 69.703 Q2634.92 69.703 2634.92 70.8888 Q2634.92 71.7781 2633.93 73.8038 Q2632.99 75.78 2631.16 78.1515 Q2629.33 80.5231 2625.77 82.3017 Q2622.27 84.0804 2618.02 84.0804 Q2609.12 84.0804 2602.41 77.361 Q2595.74 70.5923 2595.74 60.6616 M2604.23 57.4501 L2628.25 57.4501 Q2628.25 55.3256 2627.85 52.9541 Q2627.5 50.5826 2626.42 47.3218 Q2625.38 44.0115 2622.91 41.9364 Q2620.44 39.8613 2616.78 39.8613 Q2615.15 39.8613 2613.37 40.553 Q2611.64 41.2447 2609.52 42.9246 Q2607.4 44.6044 2605.91 48.4087 Q2604.43 52.213 2604.23 57.4501 Z" fill="#000000" fill-rule="evenodd" fill-opacity="1" /><polyline clip-path="url(#clip502)" style="stroke:#0000ff; stroke-linecap:butt; stroke-linejoin:round; stroke-width:16; stroke-opacity:1; fill:none" points="
  396.536,2252.42 411.064,2258.94 425.593,2264.19 440.122,2268.24 454.65,2271.15 469.179,2272.98 483.708,2273.78 498.236,2273.61 512.765,2272.53 527.294,2270.59 
  541.822,2267.84 556.351,2264.32 570.88,2260.08 585.408,2255.17 599.937,2249.63 614.466,2243.5 628.994,2236.83 643.523,2229.64 658.052,2221.99 672.581,2213.89 
  687.109,2205.4 701.638,2196.53 716.167,2187.33 730.695,2177.81 745.224,2168.02 759.753,2157.97 774.281,2147.7 788.81,2137.22 803.339,2126.57 817.867,2115.76 
  832.396,2104.81 846.925,2093.75 861.453,2082.59 875.982,2071.35 890.511,2060.06 905.04,2048.72 919.568,2037.34 934.097,2025.96 948.626,2014.57 963.154,2003.18 
  977.683,1991.82 992.212,1980.49 1006.74,1969.21 1021.27,1957.97 1035.8,1946.79 1050.33,1935.67 1064.86,1924.63 1079.38,1913.67 1093.91,1902.79 1108.44,1892 
  1122.97,1881.3 1137.5,1870.7 1152.03,1860.2 1166.56,1849.8 1181.08,1839.5 1195.61,1829.31 1210.14,1819.23 1224.67,1809.25 1239.2,1799.38 1253.73,1789.62 
  1268.26,1779.96 1282.79,1770.41 1297.31,1760.96 1311.84,1751.61 1326.37,1742.36 1340.9,1733.21 1355.43,1724.16 1369.96,1715.19 1384.49,1706.32 1399.01,1697.53 
  1413.54,1688.82 1428.07,1680.19 1442.6,1671.63 1457.13,1663.15 1471.66,1654.73 1486.19,1646.37 1500.72,1638.07 1515.24,1629.82 1529.77,1621.62 1544.3,1613.46 
  1558.83,1605.34 1573.36,1597.26 1587.89,1589.21 1602.42,1581.18 1616.95,1573.17 1631.47,1565.18 1646,1557.19 1660.53,1549.22 1675.06,1541.24 1689.59,1533.27 
  1704.12,1525.29 1718.65,1517.29 1733.17,1509.28 1747.7,1501.26 1762.23,1493.2 1776.76,1485.13 1791.29,1477.02 1805.82,1468.88 1820.35,1460.7 1834.88,1452.48 
  1849.4,1444.22 1863.93,1435.92 1878.46,1427.56 1892.99,1419.16 1907.52,1410.7 1922.05,1402.19 1936.58,1393.62 1951.1,1385 1965.63,1376.32 1980.16,1367.58 
  1994.69,1358.78 2009.22,1349.92 2023.75,1341 2038.28,1332.02 2052.81,1322.99 2067.33,1313.89 2081.86,1304.74 2096.39,1295.53 2110.92,1286.26 2125.45,1276.95 
  2139.98,1267.58 2154.51,1258.16 2169.04,1248.7 2183.56,1239.2 2198.09,1229.66 2212.62,1220.08 2227.15,1210.48 2241.68,1200.84 2256.21,1191.19 2270.74,1181.52 
  2285.26,1171.83 2299.79,1162.14 2314.32,1152.45 2328.85,1142.77 2343.38,1133.09 2357.91,1123.44 2372.44,1113.81 2386.97,1104.22 2401.49,1094.66 2416.02,1085.15 
  2430.55,1075.7 2445.08,1066.32 2459.61,1057.01 2474.14,1047.78 2488.67,1038.64 2503.19,1029.6 2517.72,1020.68 2532.25,1011.88 2546.78,1003.2 2561.31,994.671 
  2575.84,986.292 2590.37,978.076 2604.9,970.035 2619.42,962.178 2633.95,954.519 2648.48,947.068 2663.01,939.839 2677.54,932.841 2692.07,926.089 2706.6,919.593 
  2721.13,913.368 2735.65,907.424 2750.18,901.776 2764.71,896.436 2779.24,891.416 2793.77,886.731 2808.3,882.392 2822.83,878.414 2837.35,874.81 2851.88,871.592 
  2866.41,868.775 2880.94,866.371 2895.47,864.394 2910,862.857 2924.53,861.774 2939.06,861.158 2953.58,861.022 2968.11,861.379 2982.64,862.243 2997.17,863.626 
  
  "/>
</svg>
