<?xml version="1.0" encoding="utf-8"?>
<svg xmlns="http://www.w3.org/2000/svg" xmlns:xlink="http://www.w3.org/1999/xlink" width="800" height="800" viewBox="0 0 3200 3200">
<defs>
  <clipPath id="clip860">
    <rect x="0" y="0" width="3200" height="3200"/>
  </clipPath>
</defs>
<path clip-path="url(#clip860)" d="
M0 3200 L3200 3200 L3200 0 L0 0  Z
  " fill="#ffffff" fill-rule="evenodd" fill-opacity="1"/>
<defs>
  <clipPath id="clip861">
    <rect x="640" y="320" width="2241" height="2241"/>
  </clipPath>
</defs>
<path clip-path="url(#clip860)" d="
M288.863 2803.16 L3042.52 2803.16 L3042.52 94.4882 L288.863 94.4882  Z
  " fill="#ffffff" fill-rule="evenodd" fill-opacity="1"/>
<defs>
  <clipPath id="clip862">
    <rect x="288" y="94" width="2755" height="2710"/>
  </clipPath>
</defs>
<polyline clip-path="url(#clip862)" style="stroke:#000000; stroke-linecap:butt; stroke-linejoin:round; stroke-width:2.8; stroke-opacity:0.4; fill:none" points="
  288.863,2803.16 288.863,94.4882 
  "/>
<polyline clip-path="url(#clip862)" style="stroke:#000000; stroke-linecap:butt; stroke-linejoin:round; stroke-width:2.8; stroke-opacity:0.4; fill:none" points="
  747.806,2803.16 747.806,94.4882 
  "/>
<polyline clip-path="url(#clip862)" style="stroke:#000000; stroke-linecap:butt; stroke-linejoin:round; stroke-width:2.8; stroke-opacity:0.4; fill:none" points="
  1206.75,2803.16 1206.75,94.4882 
  "/>
<polyline clip-path="url(#clip862)" style="stroke:#000000; stroke-linecap:butt; stroke-linejoin:round; stroke-width:2.8; stroke-opacity:0.4; fill:none" points="
  1665.69,2803.16 1665.69,94.4882 
  "/>
<polyline clip-path="url(#clip862)" style="stroke:#000000; stroke-linecap:butt; stroke-linejoin:round; stroke-width:2.8; stroke-opacity:0.4; fill:none" points="
  2124.63,2803.16 2124.63,94.4882 
  "/>
<polyline clip-path="url(#clip862)" style="stroke:#000000; stroke-linecap:butt; stroke-linejoin:round; stroke-width:2.8; stroke-opacity:0.4; fill:none" points="
  2583.58,2803.16 2583.58,94.4882 
  "/>
<polyline clip-path="url(#clip862)" style="stroke:#000000; stroke-linecap:butt; stroke-linejoin:round; stroke-width:2.8; stroke-opacity:0.4; fill:none" points="
  3042.52,2803.16 3042.52,94.4882 
  "/>
<polyline clip-path="url(#clip862)" style="stroke:#000000; stroke-linecap:butt; stroke-linejoin:round; stroke-width:2; stroke-opacity:0.06; fill:none" points="
  380.652,2803.16 380.652,94.4882 
  "/>
<polyline clip-path="url(#clip862)" style="stroke:#000000; stroke-linecap:butt; stroke-linejoin:round; stroke-width:2; stroke-opacity:0.06; fill:none" points="
  472.44,2803.16 472.44,94.4882 
  "/>
<polyline clip-path="url(#clip862)" style="stroke:#000000; stroke-linecap:butt; stroke-linejoin:round; stroke-width:2; stroke-opacity:0.06; fill:none" points="
  564.229,2803.16 564.229,94.4882 
  "/>
<polyline clip-path="url(#clip862)" style="stroke:#000000; stroke-linecap:butt; stroke-linejoin:round; stroke-width:2; stroke-opacity:0.06; fill:none" points="
  656.017,2803.16 656.017,94.4882 
  "/>
<polyline clip-path="url(#clip862)" style="stroke:#000000; stroke-linecap:butt; stroke-linejoin:round; stroke-width:2; stroke-opacity:0.06; fill:none" points="
  839.594,2803.16 839.594,94.4882 
  "/>
<polyline clip-path="url(#clip862)" style="stroke:#000000; stroke-linecap:butt; stroke-linejoin:round; stroke-width:2; stroke-opacity:0.06; fill:none" points="
  931.383,2803.16 931.383,94.4882 
  "/>
<polyline clip-path="url(#clip862)" style="stroke:#000000; stroke-linecap:butt; stroke-linejoin:round; stroke-width:2; stroke-opacity:0.06; fill:none" points="
  1023.17,2803.16 1023.17,94.4882 
  "/>
<polyline clip-path="url(#clip862)" style="stroke:#000000; stroke-linecap:butt; stroke-linejoin:round; stroke-width:2; stroke-opacity:0.06; fill:none" points="
  1114.96,2803.16 1114.96,94.4882 
  "/>
<polyline clip-path="url(#clip862)" style="stroke:#000000; stroke-linecap:butt; stroke-linejoin:round; stroke-width:2; stroke-opacity:0.06; fill:none" points="
  1298.54,2803.16 1298.54,94.4882 
  "/>
<polyline clip-path="url(#clip862)" style="stroke:#000000; stroke-linecap:butt; stroke-linejoin:round; stroke-width:2; stroke-opacity:0.06; fill:none" points="
  1390.33,2803.16 1390.33,94.4882 
  "/>
<polyline clip-path="url(#clip862)" style="stroke:#000000; stroke-linecap:butt; stroke-linejoin:round; stroke-width:2; stroke-opacity:0.06; fill:none" points="
  1482.11,2803.16 1482.11,94.4882 
  "/>
<polyline clip-path="url(#clip862)" style="stroke:#000000; stroke-linecap:butt; stroke-linejoin:round; stroke-width:2; stroke-opacity:0.06; fill:none" points="
  1573.9,2803.16 1573.9,94.4882 
  "/>
<polyline clip-path="url(#clip862)" style="stroke:#000000; stroke-linecap:butt; stroke-linejoin:round; stroke-width:2; stroke-opacity:0.06; fill:none" points="
  1757.48,2803.16 1757.48,94.4882 
  "/>
<polyline clip-path="url(#clip862)" style="stroke:#000000; stroke-linecap:butt; stroke-linejoin:round; stroke-width:2; stroke-opacity:0.06; fill:none" points="
  1849.27,2803.16 1849.27,94.4882 
  "/>
<polyline clip-path="url(#clip862)" style="stroke:#000000; stroke-linecap:butt; stroke-linejoin:round; stroke-width:2; stroke-opacity:0.06; fill:none" points="
  1941.06,2803.16 1941.06,94.4882 
  "/>
<polyline clip-path="url(#clip862)" style="stroke:#000000; stroke-linecap:butt; stroke-linejoin:round; stroke-width:2; stroke-opacity:0.06; fill:none" points="
  2032.85,2803.16 2032.85,94.4882 
  "/>
<polyline clip-path="url(#clip862)" style="stroke:#000000; stroke-linecap:butt; stroke-linejoin:round; stroke-width:2; stroke-opacity:0.06; fill:none" points="
  2216.42,2803.16 2216.42,94.4882 
  "/>
<polyline clip-path="url(#clip862)" style="stroke:#000000; stroke-linecap:butt; stroke-linejoin:round; stroke-width:2; stroke-opacity:0.06; fill:none" points="
  2308.21,2803.16 2308.21,94.4882 
  "/>
<polyline clip-path="url(#clip862)" style="stroke:#000000; stroke-linecap:butt; stroke-linejoin:round; stroke-width:2; stroke-opacity:0.06; fill:none" points="
  2400,2803.16 2400,94.4882 
  "/>
<polyline clip-path="url(#clip862)" style="stroke:#000000; stroke-linecap:butt; stroke-linejoin:round; stroke-width:2; stroke-opacity:0.06; fill:none" points="
  2491.79,2803.16 2491.79,94.4882 
  "/>
<polyline clip-path="url(#clip862)" style="stroke:#000000; stroke-linecap:butt; stroke-linejoin:round; stroke-width:2; stroke-opacity:0.06; fill:none" points="
  2675.37,2803.16 2675.37,94.4882 
  "/>
<polyline clip-path="url(#clip862)" style="stroke:#000000; stroke-linecap:butt; stroke-linejoin:round; stroke-width:2; stroke-opacity:0.06; fill:none" points="
  2767.15,2803.16 2767.15,94.4882 
  "/>
<polyline clip-path="url(#clip862)" style="stroke:#000000; stroke-linecap:butt; stroke-linejoin:round; stroke-width:2; stroke-opacity:0.06; fill:none" points="
  2858.94,2803.16 2858.94,94.4882 
  "/>
<polyline clip-path="url(#clip862)" style="stroke:#000000; stroke-linecap:butt; stroke-linejoin:round; stroke-width:2; stroke-opacity:0.06; fill:none" points="
  2950.73,2803.16 2950.73,94.4882 
  "/>
<polyline clip-path="url(#clip860)" style="stroke:#000000; stroke-linecap:butt; stroke-linejoin:round; stroke-width:4; stroke-opacity:1; fill:none" points="
  288.863,2803.16 3042.52,2803.16 
  "/>
<polyline clip-path="url(#clip860)" style="stroke:#000000; stroke-linecap:butt; stroke-linejoin:round; stroke-width:4; stroke-opacity:1; fill:none" points="
  288.863,94.4882 3042.52,94.4882 
  "/>
<polyline clip-path="url(#clip860)" style="stroke:#000000; stroke-linecap:butt; stroke-linejoin:round; stroke-width:4; stroke-opacity:1; fill:none" points="
  288.863,2803.16 288.863,2784.26 
  "/>
<polyline clip-path="url(#clip860)" style="stroke:#000000; stroke-linecap:butt; stroke-linejoin:round; stroke-width:4; stroke-opacity:1; fill:none" points="
  747.806,2803.16 747.806,2784.26 
  "/>
<polyline clip-path="url(#clip860)" style="stroke:#000000; stroke-linecap:butt; stroke-linejoin:round; stroke-width:4; stroke-opacity:1; fill:none" points="
  1206.75,2803.16 1206.75,2784.26 
  "/>
<polyline clip-path="url(#clip860)" style="stroke:#000000; stroke-linecap:butt; stroke-linejoin:round; stroke-width:4; stroke-opacity:1; fill:none" points="
  1665.69,2803.16 1665.69,2784.26 
  "/>
<polyline clip-path="url(#clip860)" style="stroke:#000000; stroke-linecap:butt; stroke-linejoin:round; stroke-width:4; stroke-opacity:1; fill:none" points="
  2124.63,2803.16 2124.63,2784.26 
  "/>
<polyline clip-path="url(#clip860)" style="stroke:#000000; stroke-linecap:butt; stroke-linejoin:round; stroke-width:4; stroke-opacity:1; fill:none" points="
  2583.58,2803.16 2583.58,2784.26 
  "/>
<polyline clip-path="url(#clip860)" style="stroke:#000000; stroke-linecap:butt; stroke-linejoin:round; stroke-width:4; stroke-opacity:1; fill:none" points="
  3042.52,2803.16 3042.52,2784.26 
  "/>
<polyline clip-path="url(#clip860)" style="stroke:#000000; stroke-linecap:butt; stroke-linejoin:round; stroke-width:4; stroke-opacity:1; fill:none" points="
  380.652,2803.16 380.652,2793.71 
  "/>
<polyline clip-path="url(#clip860)" style="stroke:#000000; stroke-linecap:butt; stroke-linejoin:round; stroke-width:4; stroke-opacity:1; fill:none" points="
  472.44,2803.16 472.44,2793.71 
  "/>
<polyline clip-path="url(#clip860)" style="stroke:#000000; stroke-linecap:butt; stroke-linejoin:round; stroke-width:4; stroke-opacity:1; fill:none" points="
  564.229,2803.16 564.229,2793.71 
  "/>
<polyline clip-path="url(#clip860)" style="stroke:#000000; stroke-linecap:butt; stroke-linejoin:round; stroke-width:4; stroke-opacity:1; fill:none" points="
  656.017,2803.16 656.017,2793.71 
  "/>
<polyline clip-path="url(#clip860)" style="stroke:#000000; stroke-linecap:butt; stroke-linejoin:round; stroke-width:4; stroke-opacity:1; fill:none" points="
  839.594,2803.16 839.594,2793.71 
  "/>
<polyline clip-path="url(#clip860)" style="stroke:#000000; stroke-linecap:butt; stroke-linejoin:round; stroke-width:4; stroke-opacity:1; fill:none" points="
  931.383,2803.16 931.383,2793.71 
  "/>
<polyline clip-path="url(#clip860)" style="stroke:#000000; stroke-linecap:butt; stroke-linejoin:round; stroke-width:4; stroke-opacity:1; fill:none" points="
  1023.17,2803.16 1023.17,2793.71 
  "/>
<polyline clip-path="url(#clip860)" style="stroke:#000000; stroke-linecap:butt; stroke-linejoin:round; stroke-width:4; stroke-opacity:1; fill:none" points="
  1114.96,2803.16 1114.96,2793.71 
  "/>
<polyline clip-path="url(#clip860)" style="stroke:#000000; stroke-linecap:butt; stroke-linejoin:round; stroke-width:4; stroke-opacity:1; fill:none" points="
  1298.54,2803.16 1298.54,2793.71 
  "/>
<polyline clip-path="url(#clip860)" style="stroke:#000000; stroke-linecap:butt; stroke-linejoin:round; stroke-width:4; stroke-opacity:1; fill:none" points="
  1390.33,2803.16 1390.33,2793.71 
  "/>
<polyline clip-path="url(#clip860)" style="stroke:#000000; stroke-linecap:butt; stroke-linejoin:round; stroke-width:4; stroke-opacity:1; fill:none" points="
  1482.11,2803.16 1482.11,2793.71 
  "/>
<polyline clip-path="url(#clip860)" style="stroke:#000000; stroke-linecap:butt; stroke-linejoin:round; stroke-width:4; stroke-opacity:1; fill:none" points="
  1573.9,2803.16 1573.9,2793.71 
  "/>
<polyline clip-path="url(#clip860)" style="stroke:#000000; stroke-linecap:butt; stroke-linejoin:round; stroke-width:4; stroke-opacity:1; fill:none" points="
  1757.48,2803.16 1757.48,2793.71 
  "/>
<polyline clip-path="url(#clip860)" style="stroke:#000000; stroke-linecap:butt; stroke-linejoin:round; stroke-width:4; stroke-opacity:1; fill:none" points="
  1849.27,2803.16 1849.27,2793.71 
  "/>
<polyline clip-path="url(#clip860)" style="stroke:#000000; stroke-linecap:butt; stroke-linejoin:round; stroke-width:4; stroke-opacity:1; fill:none" points="
  1941.06,2803.16 1941.06,2793.71 
  "/>
<polyline clip-path="url(#clip860)" style="stroke:#000000; stroke-linecap:butt; stroke-linejoin:round; stroke-width:4; stroke-opacity:1; fill:none" points="
  2032.85,2803.16 2032.85,2793.71 
  "/>
<polyline clip-path="url(#clip860)" style="stroke:#000000; stroke-linecap:butt; stroke-linejoin:round; stroke-width:4; stroke-opacity:1; fill:none" points="
  2216.42,2803.16 2216.42,2793.71 
  "/>
<polyline clip-path="url(#clip860)" style="stroke:#000000; stroke-linecap:butt; stroke-linejoin:round; stroke-width:4; stroke-opacity:1; fill:none" points="
  2308.21,2803.16 2308.21,2793.71 
  "/>
<polyline clip-path="url(#clip860)" style="stroke:#000000; stroke-linecap:butt; stroke-linejoin:round; stroke-width:4; stroke-opacity:1; fill:none" points="
  2400,2803.16 2400,2793.71 
  "/>
<polyline clip-path="url(#clip860)" style="stroke:#000000; stroke-linecap:butt; stroke-linejoin:round; stroke-width:4; stroke-opacity:1; fill:none" points="
  2491.79,2803.16 2491.79,2793.71 
  "/>
<polyline clip-path="url(#clip860)" style="stroke:#000000; stroke-linecap:butt; stroke-linejoin:round; stroke-width:4; stroke-opacity:1; fill:none" points="
  2675.37,2803.16 2675.37,2793.71 
  "/>
<polyline clip-path="url(#clip860)" style="stroke:#000000; stroke-linecap:butt; stroke-linejoin:round; stroke-width:4; stroke-opacity:1; fill:none" points="
  2767.15,2803.16 2767.15,2793.71 
  "/>
<polyline clip-path="url(#clip860)" style="stroke:#000000; stroke-linecap:butt; stroke-linejoin:round; stroke-width:4; stroke-opacity:1; fill:none" points="
  2858.94,2803.16 2858.94,2793.71 
  "/>
<polyline clip-path="url(#clip860)" style="stroke:#000000; stroke-linecap:butt; stroke-linejoin:round; stroke-width:4; stroke-opacity:1; fill:none" points="
  2950.73,2803.16 2950.73,2793.71 
  "/>
<path clip-path="url(#clip860)" d="M272.892 2869.29 Q272.892 2858.14 275.708 2852.06 Q279.636 2843.02 288.9 2843.02 Q290.864 2843.02 292.902 2843.57 Q294.977 2844.09 297.571 2846.13 Q300.202 2848.17 301.795 2851.5 Q304.834 2857.95 304.834 2869.29 Q304.834 2880.37 302.018 2886.41 Q297.904 2895.23 288.826 2895.23 Q285.417 2895.23 281.934 2893.49 Q278.488 2891.74 276.301 2887.56 Q272.892 2881.29 272.892 2869.29 M279.192 2868.36 Q279.192 2879.81 280.007 2884.37 Q280.933 2889.3 283.453 2891.45 Q286.01 2893.56 288.826 2893.56 Q291.864 2893.56 294.384 2891.3 Q296.941 2889 297.719 2884.07 Q298.571 2879.22 298.534 2868.36 Q298.534 2857.8 297.793 2853.58 Q296.793 2848.65 294.125 2846.69 Q291.494 2844.68 288.826 2844.68 Q287.825 2844.68 286.751 2844.98 Q285.713 2845.28 284.194 2846.13 Q282.675 2846.98 281.489 2849.09 Q280.34 2851.21 279.785 2854.39 Q279.192 2858.51 279.192 2868.36 Z" fill="#000000" fill-rule="evenodd" fill-opacity="1" /><path clip-path="url(#clip860)" d="M712.974 2883.33 Q712.974 2881.07 714.271 2880 Q715.568 2878.92 717.235 2878.92 Q718.977 2878.92 720.2 2880.07 Q721.46 2881.18 721.46 2883.15 Q721.46 2885.26 719.977 2886.45 Q718.532 2887.63 716.457 2887.33 Q718.273 2890.37 721.608 2891.74 Q724.98 2893.12 728.093 2893.12 Q731.353 2893.12 733.984 2890.3 Q736.652 2887.48 736.652 2880.59 Q736.652 2874.74 734.355 2871.36 Q732.094 2867.99 727.611 2867.99 L724.276 2867.99 Q723.127 2867.99 722.794 2867.88 Q722.46 2867.77 722.46 2867.14 Q722.46 2866.4 723.609 2866.25 Q724.758 2866.25 726.573 2866.03 Q730.983 2865.88 733.317 2862.06 Q735.429 2858.51 735.429 2853.43 Q735.429 2848.8 733.206 2846.87 Q731.02 2844.91 728.167 2844.91 Q725.499 2844.91 722.571 2846.02 Q719.644 2847.13 718.051 2849.61 Q722.757 2849.61 722.757 2853.43 Q722.757 2855.1 721.682 2856.21 Q720.644 2857.28 718.903 2857.28 Q717.235 2857.28 716.124 2856.25 Q715.012 2855.17 715.012 2853.35 Q715.012 2849.02 718.866 2846.02 Q722.757 2843.02 728.463 2843.02 Q734.095 2843.02 738.246 2845.98 Q742.433 2848.95 742.433 2853.5 Q742.433 2857.99 739.468 2861.66 Q736.504 2865.32 731.798 2866.84 Q737.579 2867.99 741.025 2871.92 Q744.471 2875.81 744.471 2880.59 Q744.471 2886.52 739.802 2890.89 Q735.133 2895.23 728.315 2895.23 Q722.015 2895.23 717.495 2891.82 Q712.974 2888.41 712.974 2883.33 Z" fill="#000000" fill-rule="evenodd" fill-opacity="1" /><path clip-path="url(#clip860)" d="M750.696 2869.29 Q750.696 2858.14 753.512 2852.06 Q757.44 2843.02 766.704 2843.02 Q768.668 2843.02 770.706 2843.57 Q772.781 2844.09 775.375 2846.13 Q778.006 2848.17 779.599 2851.5 Q782.638 2857.95 782.638 2869.29 Q782.638 2880.37 779.821 2886.41 Q775.708 2895.23 766.63 2895.23 Q763.221 2895.23 759.738 2893.49 Q756.291 2891.74 754.105 2887.56 Q750.696 2881.29 750.696 2869.29 M756.995 2868.36 Q756.995 2879.81 757.811 2884.37 Q758.737 2889.3 761.257 2891.45 Q763.814 2893.56 766.63 2893.56 Q769.668 2893.56 772.188 2891.3 Q774.745 2889 775.523 2884.07 Q776.375 2879.22 776.338 2868.36 Q776.338 2857.8 775.597 2853.58 Q774.597 2848.65 771.929 2846.69 Q769.298 2844.68 766.63 2844.68 Q765.629 2844.68 764.555 2844.98 Q763.517 2845.28 761.998 2846.13 Q760.479 2846.98 759.293 2849.09 Q758.144 2851.21 757.588 2854.39 Q756.995 2858.51 756.995 2868.36 Z" fill="#000000" fill-rule="evenodd" fill-opacity="1" /><path clip-path="url(#clip860)" d="M1171.92 2869.59 Q1171.92 2857.65 1177.99 2850.35 Q1184.07 2843.02 1191.89 2843.02 Q1196.45 2843.02 1198.97 2845.35 Q1201.52 2847.65 1201.52 2851.21 Q1201.52 2853.17 1200.38 2854.02 Q1199.23 2854.87 1198.04 2854.87 Q1196.67 2854.87 1195.6 2853.95 Q1194.52 2853.02 1194.52 2851.35 Q1194.52 2847.94 1198.71 2847.94 Q1196.74 2844.91 1192.04 2844.91 Q1190.59 2844.91 1189.11 2845.35 Q1187.63 2845.76 1185.7 2847.17 Q1183.77 2848.57 1182.29 2850.8 Q1180.81 2853.02 1179.77 2857.21 Q1178.73 2861.4 1178.73 2866.84 L1178.73 2868.66 Q1181.85 2861.14 1188.22 2861.17 Q1194.59 2861.17 1199 2866.03 Q1203.41 2870.88 1203.41 2878.07 Q1203.41 2885.44 1198.82 2890.34 Q1194.22 2895.23 1187.78 2895.23 Q1184.89 2895.23 1182.26 2894 Q1179.66 2892.82 1177.22 2890.08 Q1174.81 2887.33 1173.36 2882.07 Q1171.92 2876.81 1171.92 2869.59 M1178.88 2876.4 Q1178.88 2883.85 1180.25 2887.41 Q1180.48 2888 1180.96 2888.82 Q1181.48 2889.63 1182.33 2890.71 Q1183.22 2891.74 1184.66 2892.45 Q1186.11 2893.12 1187.78 2893.12 Q1192.85 2893.12 1195.3 2888.19 Q1196.6 2885.44 1196.6 2878 Q1196.6 2870.4 1195.22 2867.62 Q1192.89 2862.92 1188.15 2862.92 Q1184.96 2862.92 1182.74 2865.1 Q1180.55 2867.29 1179.7 2870.22 Q1178.88 2873.14 1178.88 2876.4 Z" fill="#000000" fill-rule="evenodd" fill-opacity="1" /><path clip-path="url(#clip860)" d="M1209.64 2869.29 Q1209.64 2858.14 1212.46 2852.06 Q1216.38 2843.02 1225.65 2843.02 Q1227.61 2843.02 1229.65 2843.57 Q1231.72 2844.09 1234.32 2846.13 Q1236.95 2848.17 1238.54 2851.5 Q1241.58 2857.95 1241.58 2869.29 Q1241.58 2880.37 1238.76 2886.41 Q1234.65 2895.23 1225.57 2895.23 Q1222.16 2895.23 1218.68 2893.49 Q1215.23 2891.74 1213.05 2887.56 Q1209.64 2881.29 1209.64 2869.29 M1215.94 2868.36 Q1215.94 2879.81 1216.75 2884.37 Q1217.68 2889.3 1220.2 2891.45 Q1222.76 2893.56 1225.57 2893.56 Q1228.61 2893.56 1231.13 2891.3 Q1233.69 2889 1234.47 2884.07 Q1235.32 2879.22 1235.28 2868.36 Q1235.28 2857.8 1234.54 2853.58 Q1233.54 2848.65 1230.87 2846.69 Q1228.24 2844.68 1225.57 2844.68 Q1224.57 2844.68 1223.5 2844.98 Q1222.46 2845.28 1220.94 2846.13 Q1219.42 2846.98 1218.24 2849.09 Q1217.09 2851.21 1216.53 2854.39 Q1215.94 2858.51 1215.94 2868.36 Z" fill="#000000" fill-rule="evenodd" fill-opacity="1" /><path clip-path="url(#clip860)" d="M1630.86 2860.1 Q1630.86 2856.06 1632.05 2853.32 Q1633.23 2850.54 1635.71 2847.8 Q1640.27 2843.02 1646.87 2843.02 Q1649.68 2843.02 1652.17 2844.2 Q1654.69 2845.39 1657.06 2848.09 Q1659.47 2850.76 1660.91 2856.06 Q1662.36 2861.32 1662.36 2868.58 Q1662.36 2880.33 1656.65 2887.78 Q1650.98 2895.23 1643.31 2895.23 Q1638.46 2895.23 1635.6 2893.04 Q1632.75 2890.82 1632.75 2887.04 Q1632.75 2885.07 1633.86 2884.26 Q1634.97 2883.41 1636.23 2883.41 Q1637.6 2883.41 1638.68 2884.33 Q1639.75 2885.22 1639.75 2886.89 Q1639.75 2888.26 1638.86 2889.34 Q1638.01 2890.37 1635.79 2890.37 Q1637.97 2893.12 1643.24 2893.12 Q1645.13 2893.12 1647.02 2892.26 Q1648.91 2891.37 1650.94 2889.26 Q1653.02 2887.11 1654.28 2882.63 Q1655.54 2878.14 1655.54 2871.85 L1655.54 2869.44 Q1652.5 2877.03 1646.05 2877.03 Q1639.68 2877.03 1635.27 2872.14 Q1630.86 2867.25 1630.86 2860.1 M1637.68 2860.17 Q1637.68 2867.7 1639.05 2870.47 Q1641.38 2875.25 1646.13 2875.25 Q1650.76 2875.25 1653.06 2871.14 Q1655.39 2866.99 1655.39 2861.62 Q1655.39 2854.17 1654.17 2850.91 Q1651.91 2844.91 1646.87 2844.91 Q1641.86 2844.91 1639.27 2849.69 Q1637.68 2852.5 1637.68 2860.17 Z" fill="#000000" fill-rule="evenodd" fill-opacity="1" /><path clip-path="url(#clip860)" d="M1668.58 2869.29 Q1668.58 2858.14 1671.4 2852.06 Q1675.33 2843.02 1684.59 2843.02 Q1686.55 2843.02 1688.59 2843.57 Q1690.67 2844.09 1693.26 2846.13 Q1695.89 2848.17 1697.48 2851.5 Q1700.52 2857.95 1700.52 2869.29 Q1700.52 2880.37 1697.71 2886.41 Q1693.59 2895.23 1684.52 2895.23 Q1681.11 2895.23 1677.62 2893.49 Q1674.18 2891.74 1671.99 2887.56 Q1668.58 2881.29 1668.58 2869.29 M1674.88 2868.36 Q1674.88 2879.81 1675.7 2884.37 Q1676.62 2889.3 1679.14 2891.45 Q1681.7 2893.56 1684.52 2893.56 Q1687.55 2893.56 1690.07 2891.3 Q1692.63 2889 1693.41 2884.07 Q1694.26 2879.22 1694.22 2868.36 Q1694.22 2857.8 1693.48 2853.58 Q1692.48 2848.65 1689.81 2846.69 Q1687.18 2844.68 1684.52 2844.68 Q1683.51 2844.68 1682.44 2844.98 Q1681.4 2845.28 1679.88 2846.13 Q1678.36 2846.98 1677.18 2849.09 Q1676.03 2851.21 1675.47 2854.39 Q1674.88 2858.51 1674.88 2868.36 Z" fill="#000000" fill-rule="evenodd" fill-opacity="1" /><path clip-path="url(#clip860)" d="M2072.61 2850.24 L2072.61 2847.87 Q2081.72 2847.87 2086.43 2843.02 Q2087.73 2843.02 2087.95 2843.31 Q2088.17 2843.61 2088.17 2844.98 L2088.17 2887.56 Q2088.17 2889.82 2089.28 2890.52 Q2090.4 2891.23 2095.25 2891.23 L2097.66 2891.23 L2097.66 2893.56 Q2094.99 2893.34 2085.36 2893.34 Q2075.72 2893.34 2073.09 2893.56 L2073.09 2891.23 L2075.5 2891.23 Q2080.28 2891.23 2081.43 2890.56 Q2082.58 2889.85 2082.58 2887.56 L2082.58 2848.24 Q2078.61 2850.24 2072.61 2850.24 Z" fill="#000000" fill-rule="evenodd" fill-opacity="1" /><path clip-path="url(#clip860)" d="M2107.59 2893.56 Q2107.59 2892.19 2107.7 2891.78 Q2107.85 2891.37 2108.44 2890.74 L2123 2874.51 Q2130.97 2865.55 2130.97 2857.73 Q2130.97 2852.65 2128.3 2849.02 Q2125.67 2845.39 2120.82 2845.39 Q2117.48 2845.39 2114.67 2847.43 Q2111.85 2849.46 2110.55 2853.1 Q2110.78 2853.02 2111.55 2853.02 Q2113.44 2853.02 2114.48 2854.21 Q2115.56 2855.39 2115.56 2856.99 Q2115.56 2859.02 2114.22 2860.02 Q2112.92 2860.99 2111.63 2860.99 Q2111.11 2860.99 2110.4 2860.88 Q2109.74 2860.77 2108.66 2859.73 Q2107.59 2858.65 2107.59 2856.76 Q2107.59 2851.47 2111.59 2847.24 Q2115.63 2843.02 2121.78 2843.02 Q2128.75 2843.02 2133.31 2847.17 Q2137.9 2851.28 2137.9 2857.73 Q2137.9 2859.99 2137.2 2862.06 Q2136.53 2864.1 2135.6 2865.69 Q2134.71 2867.29 2132.27 2869.84 Q2129.82 2872.4 2127.86 2874.22 Q2125.89 2876.03 2121.48 2879.89 L2113.44 2887.7 L2127.12 2887.7 Q2133.79 2887.7 2134.31 2887.11 Q2135.05 2886.04 2135.97 2880.37 L2137.9 2880.37 L2135.75 2893.56 L2107.59 2893.56 Z" fill="#000000" fill-rule="evenodd" fill-opacity="1" /><path clip-path="url(#clip860)" d="M2144.72 2869.29 Q2144.72 2858.14 2147.53 2852.06 Q2151.46 2843.02 2160.73 2843.02 Q2162.69 2843.02 2164.73 2843.57 Q2166.8 2844.09 2169.4 2846.13 Q2172.03 2848.17 2173.62 2851.5 Q2176.66 2857.95 2176.66 2869.29 Q2176.66 2880.37 2173.84 2886.41 Q2169.73 2895.23 2160.65 2895.23 Q2157.24 2895.23 2153.76 2893.49 Q2150.31 2891.74 2148.13 2887.56 Q2144.72 2881.29 2144.72 2869.29 M2151.02 2868.36 Q2151.02 2879.81 2151.83 2884.37 Q2152.76 2889.3 2155.28 2891.45 Q2157.84 2893.56 2160.65 2893.56 Q2163.69 2893.56 2166.21 2891.3 Q2168.77 2889 2169.54 2884.07 Q2170.4 2879.22 2170.36 2868.36 Q2170.36 2857.8 2169.62 2853.58 Q2168.62 2848.65 2165.95 2846.69 Q2163.32 2844.68 2160.65 2844.68 Q2159.65 2844.68 2158.58 2844.98 Q2157.54 2845.28 2156.02 2846.13 Q2154.5 2846.98 2153.31 2849.09 Q2152.17 2851.21 2151.61 2854.39 Q2151.02 2858.51 2151.02 2868.36 Z" fill="#000000" fill-rule="evenodd" fill-opacity="1" /><path clip-path="url(#clip860)" d="M2531.55 2850.24 L2531.55 2847.87 Q2540.67 2847.87 2545.37 2843.02 Q2546.67 2843.02 2546.89 2843.31 Q2547.11 2843.61 2547.11 2844.98 L2547.11 2887.56 Q2547.11 2889.82 2548.23 2890.52 Q2549.34 2891.23 2554.19 2891.23 L2556.6 2891.23 L2556.6 2893.56 Q2553.93 2893.34 2544.3 2893.34 Q2534.66 2893.34 2532.03 2893.56 L2532.03 2891.23 L2534.44 2891.23 Q2539.22 2891.23 2540.37 2890.56 Q2541.52 2889.85 2541.52 2887.56 L2541.52 2848.24 Q2537.55 2850.24 2531.55 2850.24 Z" fill="#000000" fill-rule="evenodd" fill-opacity="1" /><path clip-path="url(#clip860)" d="M2566.53 2881.33 Q2566.53 2879.07 2567.75 2878.22 Q2568.98 2877.33 2570.27 2877.33 Q2572.02 2877.33 2573.02 2878.44 Q2574.05 2879.52 2574.05 2881.04 Q2574.05 2882.55 2573.02 2883.67 Q2572.02 2884.74 2570.27 2884.74 Q2569.42 2884.74 2568.98 2884.59 Q2569.98 2888.08 2573.02 2890.6 Q2576.09 2893.12 2580.13 2893.12 Q2585.21 2893.12 2588.25 2888.19 Q2590.06 2885 2590.06 2877.77 Q2590.06 2871.4 2588.69 2868.21 Q2586.58 2863.36 2582.24 2863.36 Q2576.09 2863.36 2572.46 2868.66 Q2572.02 2869.33 2571.5 2869.36 Q2570.76 2869.36 2570.57 2868.96 Q2570.42 2868.51 2570.42 2867.36 L2570.42 2844.91 Q2570.42 2843.09 2571.16 2843.09 Q2571.46 2843.09 2572.09 2843.31 Q2576.87 2845.43 2582.17 2845.46 Q2587.62 2845.46 2592.51 2843.24 Q2592.88 2843.02 2593.1 2843.02 Q2593.84 2843.02 2593.88 2843.87 Q2593.88 2844.17 2593.25 2845.05 Q2592.66 2845.91 2591.36 2847.06 Q2590.06 2848.17 2588.39 2849.24 Q2586.73 2850.32 2584.28 2851.06 Q2581.87 2851.76 2579.2 2851.76 Q2576.02 2851.76 2572.76 2850.76 L2572.76 2865.55 Q2576.68 2861.69 2582.39 2861.69 Q2588.47 2861.69 2592.66 2866.58 Q2596.84 2871.47 2596.84 2878.29 Q2596.84 2885.44 2591.88 2890.34 Q2586.95 2895.23 2580.28 2895.23 Q2574.2 2895.23 2570.35 2890.89 Q2566.53 2886.56 2566.53 2881.33 Z" fill="#000000" fill-rule="evenodd" fill-opacity="1" /><path clip-path="url(#clip860)" d="M2603.66 2869.29 Q2603.66 2858.14 2606.48 2852.06 Q2610.4 2843.02 2619.67 2843.02 Q2621.63 2843.02 2623.67 2843.57 Q2625.75 2844.09 2628.34 2846.13 Q2630.97 2848.17 2632.56 2851.5 Q2635.6 2857.95 2635.6 2869.29 Q2635.6 2880.37 2632.79 2886.41 Q2628.67 2895.23 2619.59 2895.23 Q2616.19 2895.23 2612.7 2893.49 Q2609.26 2891.74 2607.07 2887.56 Q2603.66 2881.29 2603.66 2869.29 M2609.96 2868.36 Q2609.96 2879.81 2610.78 2884.37 Q2611.7 2889.3 2614.22 2891.45 Q2616.78 2893.56 2619.59 2893.56 Q2622.63 2893.56 2625.15 2891.3 Q2627.71 2889 2628.49 2884.07 Q2629.34 2879.22 2629.3 2868.36 Q2629.3 2857.8 2628.56 2853.58 Q2627.56 2848.65 2624.89 2846.69 Q2622.26 2844.68 2619.59 2844.68 Q2618.59 2844.68 2617.52 2844.98 Q2616.48 2845.28 2614.96 2846.13 Q2613.44 2846.98 2612.26 2849.09 Q2611.11 2851.21 2610.55 2854.39 Q2609.96 2858.51 2609.96 2868.36 Z" fill="#000000" fill-rule="evenodd" fill-opacity="1" /><path clip-path="url(#clip860)" d="M2990.49 2850.24 L2990.49 2847.87 Q2999.61 2847.87 3004.32 2843.02 Q3005.61 2843.02 3005.84 2843.31 Q3006.06 2843.61 3006.06 2844.98 L3006.06 2887.56 Q3006.06 2889.82 3007.17 2890.52 Q3008.28 2891.23 3013.14 2891.23 L3015.54 2891.23 L3015.54 2893.56 Q3012.88 2893.34 3003.24 2893.34 Q2993.61 2893.34 2990.98 2893.56 L2990.98 2891.23 L2993.38 2891.23 Q2998.16 2891.23 2999.31 2890.56 Q3000.46 2889.85 3000.46 2887.56 L3000.46 2848.24 Q2996.5 2850.24 2990.49 2850.24 Z" fill="#000000" fill-rule="evenodd" fill-opacity="1" /><path clip-path="url(#clip860)" d="M3024.88 2882.11 Q3024.88 2873.62 3035.81 2868.14 Q3031.11 2864.95 3030.25 2864.03 Q3026.92 2860.32 3026.92 2855.69 Q3026.92 2850.39 3030.92 2846.72 Q3034.96 2843.02 3040.67 2843.02 Q3046.11 2843.02 3050.23 2846.17 Q3054.34 2849.32 3054.34 2854.32 Q3054.34 2861.36 3045.15 2866.1 Q3051.23 2869.88 3052.67 2871.47 Q3056.38 2875.59 3056.38 2880.81 Q3056.38 2886.89 3051.71 2891.08 Q3047.04 2895.23 3040.59 2895.23 Q3034.29 2895.23 3029.59 2891.56 Q3024.88 2887.89 3024.88 2882.11 M3028.66 2882.11 Q3028.66 2886.82 3032.18 2889.97 Q3035.74 2893.12 3040.67 2893.12 Q3045.45 2893.12 3049 2890.37 Q3052.6 2887.63 3052.6 2883.55 Q3052.6 2881.96 3052.04 2880.59 Q3051.52 2879.22 3050.45 2878.14 Q3049.41 2877.03 3048.74 2876.55 Q3048.11 2876.03 3046.89 2875.18 L3037.55 2869.29 Q3028.66 2874.22 3028.66 2882.11 M3030.25 2852.73 Q3030.25 2856.36 3034.07 2858.88 L3043.48 2864.95 Q3051.01 2860.54 3051.01 2854.32 Q3051.01 2850.28 3047.93 2847.61 Q3044.85 2844.91 3040.59 2844.91 Q3036.41 2844.91 3033.33 2847.13 Q3030.25 2849.32 3030.25 2852.73 Z" fill="#000000" fill-rule="evenodd" fill-opacity="1" /><path clip-path="url(#clip860)" d="M3062.6 2869.29 Q3062.6 2858.14 3065.42 2852.06 Q3069.35 2843.02 3078.61 2843.02 Q3080.58 2843.02 3082.61 2843.57 Q3084.69 2844.09 3087.28 2846.13 Q3089.91 2848.17 3091.51 2851.5 Q3094.54 2857.95 3094.54 2869.29 Q3094.54 2880.37 3091.73 2886.41 Q3087.62 2895.23 3078.54 2895.23 Q3075.13 2895.23 3071.64 2893.49 Q3068.2 2891.74 3066.01 2887.56 Q3062.6 2881.29 3062.6 2869.29 M3068.9 2868.36 Q3068.9 2879.81 3069.72 2884.37 Q3070.64 2889.3 3073.16 2891.45 Q3075.72 2893.56 3078.54 2893.56 Q3081.58 2893.56 3084.1 2891.3 Q3086.65 2889 3087.43 2884.07 Q3088.28 2879.22 3088.25 2868.36 Q3088.25 2857.8 3087.5 2853.58 Q3086.5 2848.65 3083.84 2846.69 Q3081.21 2844.68 3078.54 2844.68 Q3077.54 2844.68 3076.46 2844.98 Q3075.42 2845.28 3073.91 2846.13 Q3072.39 2846.98 3071.2 2849.09 Q3070.05 2851.21 3069.5 2854.39 Q3068.9 2858.51 3068.9 2868.36 Z" fill="#000000" fill-rule="evenodd" fill-opacity="1" /><path clip-path="url(#clip860)" d="M1632.81 2994.43 L1632.81 2993.75 Q1632.81 2989.99 1633.11 2987.45 Q1633.42 2984.92 1634.23 2982.2 Q1635.09 2979.49 1636.94 2978.19 Q1638.86 2976.83 1641.76 2976.83 Q1647.19 2976.83 1651.95 2980.97 Q1656.71 2985.05 1656.71 2993.14 L1656.71 3010.98 Q1656.71 3013.64 1656.83 3015.55 Q1656.95 3017.41 1657.51 3020.37 Q1658.06 3023.34 1659.11 3025.31 Q1660.23 3027.29 1662.39 3028.96 Q1664.55 3030.56 1667.57 3030.93 Q1668.07 3031.06 1669.06 3031.06 Q1672.33 3031.06 1674.68 3028.28 Q1677.09 3025.5 1679.19 3018.33 Q1681.96 3008.95 1681.96 2989.37 L1681.96 2988.57 Q1655.53 2979.73 1655.53 2961.39 Q1655.53 2954.66 1659.18 2949.04 Q1662.88 2943.42 1669.61 2943.42 Q1679.37 2943.42 1685.67 2956.95 Q1691.97 2970.47 1691.97 2988.32 Q1692.46 2988.44 1693.2 2988.57 Q1694.01 2988.69 1694.44 2988.81 Q1694.87 2988.94 1695.43 2989.12 Q1696.05 2989.25 1696.42 2989.31 Q1696.79 2989.37 1697.16 2989.55 Q1697.53 2989.74 1697.71 2989.86 Q1697.9 2989.99 1698.15 2990.17 Q1698.45 2990.36 1698.52 2990.54 Q1698.58 2990.73 1698.58 2990.97 Q1698.58 2992.21 1696.91 2992.27 Q1696.66 2992.27 1691.97 2991.35 Q1691.85 3003.63 1688.57 3013.15 Q1685.3 3022.59 1681.1 3027.66 Q1676.04 3033.96 1668.69 3034.02 Q1662.88 3034.02 1658.68 3032.29 Q1654.54 3030.56 1652.38 3028.21 Q1650.22 3025.87 1648.92 3022.29 Q1647.69 3018.7 1647.44 3015.92 Q1647.19 3013.15 1647.19 3009.44 L1647.19 2993.51 Q1647.19 2979.73 1641.39 2979.73 Q1638.36 2979.73 1637.19 2983.32 Q1636.08 2986.84 1635.95 2991.47 Q1635.83 2996.04 1635.71 2996.53 Q1635.46 2997.27 1634.29 2997.34 Q1633.18 2997.34 1632.93 2996.29 Q1632.81 2995.67 1632.81 2994.43 M1658.87 2961.52 Q1658.87 2970.47 1665.48 2976.52 Q1672.15 2982.51 1681.96 2985.54 Q1681.96 2968.62 1678.75 2957.5 Q1675.54 2946.32 1669.37 2946.32 Q1665.04 2946.32 1661.95 2950.58 Q1658.87 2954.78 1658.87 2961.52 Z" fill="#000000" fill-rule="evenodd" fill-opacity="1" /><polyline clip-path="url(#clip862)" style="stroke:#000000; stroke-linecap:butt; stroke-linejoin:round; stroke-width:2.8; stroke-opacity:0.4; fill:none" points="
  288.863,2803.16 3042.52,2803.16 
  "/>
<polyline clip-path="url(#clip862)" style="stroke:#000000; stroke-linecap:butt; stroke-linejoin:round; stroke-width:2.8; stroke-opacity:0.4; fill:none" points="
  288.863,2274.91 3042.52,2274.91 
  "/>
<polyline clip-path="url(#clip862)" style="stroke:#000000; stroke-linecap:butt; stroke-linejoin:round; stroke-width:2.8; stroke-opacity:0.4; fill:none" points="
  288.863,1746.65 3042.52,1746.65 
  "/>
<polyline clip-path="url(#clip862)" style="stroke:#000000; stroke-linecap:butt; stroke-linejoin:round; stroke-width:2.8; stroke-opacity:0.4; fill:none" points="
  288.863,1218.4 3042.52,1218.4 
  "/>
<polyline clip-path="url(#clip862)" style="stroke:#000000; stroke-linecap:butt; stroke-linejoin:round; stroke-width:2.8; stroke-opacity:0.4; fill:none" points="
  288.863,690.147 3042.52,690.147 
  "/>
<polyline clip-path="url(#clip862)" style="stroke:#000000; stroke-linecap:butt; stroke-linejoin:round; stroke-width:2.8; stroke-opacity:0.4; fill:none" points="
  288.863,161.893 3042.52,161.893 
  "/>
<polyline clip-path="url(#clip862)" style="stroke:#000000; stroke-linecap:butt; stroke-linejoin:round; stroke-width:2; stroke-opacity:0.06; fill:none" points="
  288.863,2697.51 3042.52,2697.51 
  "/>
<polyline clip-path="url(#clip862)" style="stroke:#000000; stroke-linecap:butt; stroke-linejoin:round; stroke-width:2; stroke-opacity:0.06; fill:none" points="
  288.863,2591.86 3042.52,2591.86 
  "/>
<polyline clip-path="url(#clip862)" style="stroke:#000000; stroke-linecap:butt; stroke-linejoin:round; stroke-width:2; stroke-opacity:0.06; fill:none" points="
  288.863,2486.21 3042.52,2486.21 
  "/>
<polyline clip-path="url(#clip862)" style="stroke:#000000; stroke-linecap:butt; stroke-linejoin:round; stroke-width:2; stroke-opacity:0.06; fill:none" points="
  288.863,2380.56 3042.52,2380.56 
  "/>
<polyline clip-path="url(#clip862)" style="stroke:#000000; stroke-linecap:butt; stroke-linejoin:round; stroke-width:2; stroke-opacity:0.06; fill:none" points="
  288.863,2169.26 3042.52,2169.26 
  "/>
<polyline clip-path="url(#clip862)" style="stroke:#000000; stroke-linecap:butt; stroke-linejoin:round; stroke-width:2; stroke-opacity:0.06; fill:none" points="
  288.863,2063.61 3042.52,2063.61 
  "/>
<polyline clip-path="url(#clip862)" style="stroke:#000000; stroke-linecap:butt; stroke-linejoin:round; stroke-width:2; stroke-opacity:0.06; fill:none" points="
  288.863,1957.95 3042.52,1957.95 
  "/>
<polyline clip-path="url(#clip862)" style="stroke:#000000; stroke-linecap:butt; stroke-linejoin:round; stroke-width:2; stroke-opacity:0.06; fill:none" points="
  288.863,1852.3 3042.52,1852.3 
  "/>
<polyline clip-path="url(#clip862)" style="stroke:#000000; stroke-linecap:butt; stroke-linejoin:round; stroke-width:2; stroke-opacity:0.06; fill:none" points="
  288.863,1641 3042.52,1641 
  "/>
<polyline clip-path="url(#clip862)" style="stroke:#000000; stroke-linecap:butt; stroke-linejoin:round; stroke-width:2; stroke-opacity:0.06; fill:none" points="
  288.863,1535.35 3042.52,1535.35 
  "/>
<polyline clip-path="url(#clip862)" style="stroke:#000000; stroke-linecap:butt; stroke-linejoin:round; stroke-width:2; stroke-opacity:0.06; fill:none" points="
  288.863,1429.7 3042.52,1429.7 
  "/>
<polyline clip-path="url(#clip862)" style="stroke:#000000; stroke-linecap:butt; stroke-linejoin:round; stroke-width:2; stroke-opacity:0.06; fill:none" points="
  288.863,1324.05 3042.52,1324.05 
  "/>
<polyline clip-path="url(#clip862)" style="stroke:#000000; stroke-linecap:butt; stroke-linejoin:round; stroke-width:2; stroke-opacity:0.06; fill:none" points="
  288.863,1112.75 3042.52,1112.75 
  "/>
<polyline clip-path="url(#clip862)" style="stroke:#000000; stroke-linecap:butt; stroke-linejoin:round; stroke-width:2; stroke-opacity:0.06; fill:none" points="
  288.863,1007.1 3042.52,1007.1 
  "/>
<polyline clip-path="url(#clip862)" style="stroke:#000000; stroke-linecap:butt; stroke-linejoin:round; stroke-width:2; stroke-opacity:0.06; fill:none" points="
  288.863,901.448 3042.52,901.448 
  "/>
<polyline clip-path="url(#clip862)" style="stroke:#000000; stroke-linecap:butt; stroke-linejoin:round; stroke-width:2; stroke-opacity:0.06; fill:none" points="
  288.863,795.797 3042.52,795.797 
  "/>
<polyline clip-path="url(#clip862)" style="stroke:#000000; stroke-linecap:butt; stroke-linejoin:round; stroke-width:2; stroke-opacity:0.06; fill:none" points="
  288.863,584.496 3042.52,584.496 
  "/>
<polyline clip-path="url(#clip862)" style="stroke:#000000; stroke-linecap:butt; stroke-linejoin:round; stroke-width:2; stroke-opacity:0.06; fill:none" points="
  288.863,478.845 3042.52,478.845 
  "/>
<polyline clip-path="url(#clip862)" style="stroke:#000000; stroke-linecap:butt; stroke-linejoin:round; stroke-width:2; stroke-opacity:0.06; fill:none" points="
  288.863,373.195 3042.52,373.195 
  "/>
<polyline clip-path="url(#clip862)" style="stroke:#000000; stroke-linecap:butt; stroke-linejoin:round; stroke-width:2; stroke-opacity:0.06; fill:none" points="
  288.863,267.544 3042.52,267.544 
  "/>
<polyline clip-path="url(#clip860)" style="stroke:#000000; stroke-linecap:butt; stroke-linejoin:round; stroke-width:4; stroke-opacity:1; fill:none" points="
  288.863,2803.16 288.863,94.4882 
  "/>
<polyline clip-path="url(#clip860)" style="stroke:#000000; stroke-linecap:butt; stroke-linejoin:round; stroke-width:4; stroke-opacity:1; fill:none" points="
  3042.52,2803.16 3042.52,94.4882 
  "/>
<polyline clip-path="url(#clip860)" style="stroke:#000000; stroke-linecap:butt; stroke-linejoin:round; stroke-width:4; stroke-opacity:1; fill:none" points="
  288.863,2803.16 307.761,2803.16 
  "/>
<polyline clip-path="url(#clip860)" style="stroke:#000000; stroke-linecap:butt; stroke-linejoin:round; stroke-width:4; stroke-opacity:1; fill:none" points="
  288.863,2274.91 307.761,2274.91 
  "/>
<polyline clip-path="url(#clip860)" style="stroke:#000000; stroke-linecap:butt; stroke-linejoin:round; stroke-width:4; stroke-opacity:1; fill:none" points="
  288.863,1746.65 307.761,1746.65 
  "/>
<polyline clip-path="url(#clip860)" style="stroke:#000000; stroke-linecap:butt; stroke-linejoin:round; stroke-width:4; stroke-opacity:1; fill:none" points="
  288.863,1218.4 307.761,1218.4 
  "/>
<polyline clip-path="url(#clip860)" style="stroke:#000000; stroke-linecap:butt; stroke-linejoin:round; stroke-width:4; stroke-opacity:1; fill:none" points="
  288.863,690.147 307.761,690.147 
  "/>
<polyline clip-path="url(#clip860)" style="stroke:#000000; stroke-linecap:butt; stroke-linejoin:round; stroke-width:4; stroke-opacity:1; fill:none" points="
  288.863,161.893 307.761,161.893 
  "/>
<polyline clip-path="url(#clip860)" style="stroke:#000000; stroke-linecap:butt; stroke-linejoin:round; stroke-width:4; stroke-opacity:1; fill:none" points="
  288.863,2697.51 298.312,2697.51 
  "/>
<polyline clip-path="url(#clip860)" style="stroke:#000000; stroke-linecap:butt; stroke-linejoin:round; stroke-width:4; stroke-opacity:1; fill:none" points="
  288.863,2591.86 298.312,2591.86 
  "/>
<polyline clip-path="url(#clip860)" style="stroke:#000000; stroke-linecap:butt; stroke-linejoin:round; stroke-width:4; stroke-opacity:1; fill:none" points="
  288.863,2486.21 298.312,2486.21 
  "/>
<polyline clip-path="url(#clip860)" style="stroke:#000000; stroke-linecap:butt; stroke-linejoin:round; stroke-width:4; stroke-opacity:1; fill:none" points="
  288.863,2380.56 298.312,2380.56 
  "/>
<polyline clip-path="url(#clip860)" style="stroke:#000000; stroke-linecap:butt; stroke-linejoin:round; stroke-width:4; stroke-opacity:1; fill:none" points="
  288.863,2169.26 298.312,2169.26 
  "/>
<polyline clip-path="url(#clip860)" style="stroke:#000000; stroke-linecap:butt; stroke-linejoin:round; stroke-width:4; stroke-opacity:1; fill:none" points="
  288.863,2063.61 298.312,2063.61 
  "/>
<polyline clip-path="url(#clip860)" style="stroke:#000000; stroke-linecap:butt; stroke-linejoin:round; stroke-width:4; stroke-opacity:1; fill:none" points="
  288.863,1957.95 298.312,1957.95 
  "/>
<polyline clip-path="url(#clip860)" style="stroke:#000000; stroke-linecap:butt; stroke-linejoin:round; stroke-width:4; stroke-opacity:1; fill:none" points="
  288.863,1852.3 298.312,1852.3 
  "/>
<polyline clip-path="url(#clip860)" style="stroke:#000000; stroke-linecap:butt; stroke-linejoin:round; stroke-width:4; stroke-opacity:1; fill:none" points="
  288.863,1641 298.312,1641 
  "/>
<polyline clip-path="url(#clip860)" style="stroke:#000000; stroke-linecap:butt; stroke-linejoin:round; stroke-width:4; stroke-opacity:1; fill:none" points="
  288.863,1535.35 298.312,1535.35 
  "/>
<polyline clip-path="url(#clip860)" style="stroke:#000000; stroke-linecap:butt; stroke-linejoin:round; stroke-width:4; stroke-opacity:1; fill:none" points="
  288.863,1429.7 298.312,1429.7 
  "/>
<polyline clip-path="url(#clip860)" style="stroke:#000000; stroke-linecap:butt; stroke-linejoin:round; stroke-width:4; stroke-opacity:1; fill:none" points="
  288.863,1324.05 298.312,1324.05 
  "/>
<polyline clip-path="url(#clip860)" style="stroke:#000000; stroke-linecap:butt; stroke-linejoin:round; stroke-width:4; stroke-opacity:1; fill:none" points="
  288.863,1112.75 298.312,1112.75 
  "/>
<polyline clip-path="url(#clip860)" style="stroke:#000000; stroke-linecap:butt; stroke-linejoin:round; stroke-width:4; stroke-opacity:1; fill:none" points="
  288.863,1007.1 298.312,1007.1 
  "/>
<polyline clip-path="url(#clip860)" style="stroke:#000000; stroke-linecap:butt; stroke-linejoin:round; stroke-width:4; stroke-opacity:1; fill:none" points="
  288.863,901.448 298.312,901.448 
  "/>
<polyline clip-path="url(#clip860)" style="stroke:#000000; stroke-linecap:butt; stroke-linejoin:round; stroke-width:4; stroke-opacity:1; fill:none" points="
  288.863,795.797 298.312,795.797 
  "/>
<polyline clip-path="url(#clip860)" style="stroke:#000000; stroke-linecap:butt; stroke-linejoin:round; stroke-width:4; stroke-opacity:1; fill:none" points="
  288.863,584.496 298.312,584.496 
  "/>
<polyline clip-path="url(#clip860)" style="stroke:#000000; stroke-linecap:butt; stroke-linejoin:round; stroke-width:4; stroke-opacity:1; fill:none" points="
  288.863,478.845 298.312,478.845 
  "/>
<polyline clip-path="url(#clip860)" style="stroke:#000000; stroke-linecap:butt; stroke-linejoin:round; stroke-width:4; stroke-opacity:1; fill:none" points="
  288.863,373.195 298.312,373.195 
  "/>
<polyline clip-path="url(#clip860)" style="stroke:#000000; stroke-linecap:butt; stroke-linejoin:round; stroke-width:4; stroke-opacity:1; fill:none" points="
  288.863,267.544 298.312,267.544 
  "/>
<path clip-path="url(#clip860)" d="M208.922 2804.81 Q208.922 2793.66 211.738 2787.58 Q215.666 2778.54 224.929 2778.54 Q226.893 2778.54 228.931 2779.09 Q231.006 2779.61 233.6 2781.65 Q236.231 2783.69 237.824 2787.02 Q240.863 2793.47 240.863 2804.81 Q240.863 2815.89 238.047 2821.93 Q233.934 2830.75 224.855 2830.75 Q221.446 2830.75 217.963 2829.01 Q214.517 2827.26 212.331 2823.08 Q208.922 2816.81 208.922 2804.81 M215.221 2803.88 Q215.221 2815.33 216.036 2819.89 Q216.963 2824.82 219.482 2826.97 Q222.039 2829.08 224.855 2829.08 Q227.894 2829.08 230.413 2826.82 Q232.97 2824.52 233.748 2819.59 Q234.601 2814.74 234.564 2803.88 Q234.564 2793.32 233.823 2789.1 Q232.822 2784.17 230.154 2782.21 Q227.523 2780.2 224.855 2780.2 Q223.855 2780.2 222.78 2780.5 Q221.743 2780.8 220.223 2781.65 Q218.704 2782.5 217.518 2784.61 Q216.37 2786.73 215.814 2789.91 Q215.221 2794.03 215.221 2803.88 Z" fill="#000000" fill-rule="evenodd" fill-opacity="1" /><path clip-path="url(#clip860)" d="M98.8681 2257.51 L98.8681 2255.14 Q107.984 2255.14 112.69 2250.28 Q113.987 2250.28 114.209 2250.58 Q114.431 2250.88 114.431 2252.25 L114.431 2294.82 Q114.431 2297.08 115.543 2297.79 Q116.655 2298.49 121.509 2298.49 L123.917 2298.49 L123.917 2300.83 Q121.249 2300.6 111.615 2300.6 Q101.981 2300.6 99.3498 2300.83 L99.3498 2298.49 L101.758 2298.49 Q106.538 2298.49 107.687 2297.82 Q108.836 2297.12 108.836 2294.82 L108.836 2255.51 Q104.871 2257.51 98.8681 2257.51 Z" fill="#000000" fill-rule="evenodd" fill-opacity="1" /><path clip-path="url(#clip860)" d="M133.033 2276.56 Q133.033 2265.4 135.849 2259.32 Q139.777 2250.28 149.041 2250.28 Q151.005 2250.28 153.043 2250.84 Q155.118 2251.36 157.712 2253.4 Q160.342 2255.43 161.936 2258.77 Q164.974 2265.22 164.974 2276.56 Q164.974 2287.63 162.158 2293.67 Q158.045 2302.49 148.967 2302.49 Q145.557 2302.49 142.074 2300.75 Q138.628 2299.01 136.442 2294.82 Q133.033 2288.56 133.033 2276.56 M139.332 2275.63 Q139.332 2287.08 140.147 2291.64 Q141.074 2296.57 143.594 2298.71 Q146.15 2300.83 148.967 2300.83 Q152.005 2300.83 154.525 2298.57 Q157.082 2296.27 157.86 2291.34 Q158.712 2286.49 158.675 2275.63 Q158.675 2265.07 157.934 2260.84 Q156.933 2255.92 154.265 2253.95 Q151.634 2251.95 148.967 2251.95 Q147.966 2251.95 146.891 2252.25 Q145.854 2252.54 144.335 2253.4 Q142.815 2254.25 141.63 2256.36 Q140.481 2258.47 139.925 2261.66 Q139.332 2265.77 139.332 2275.63 Z" fill="#000000" fill-rule="evenodd" fill-opacity="1" /><path clip-path="url(#clip860)" d="M170.977 2276.56 Q170.977 2265.4 173.793 2259.32 Q177.721 2250.28 186.985 2250.28 Q188.949 2250.28 190.987 2250.84 Q193.062 2251.36 195.656 2253.4 Q198.287 2255.43 199.88 2258.77 Q202.919 2265.22 202.919 2276.56 Q202.919 2287.63 200.102 2293.67 Q195.989 2302.49 186.911 2302.49 Q183.502 2302.49 180.019 2300.75 Q176.573 2299.01 174.386 2294.82 Q170.977 2288.56 170.977 2276.56 M177.277 2275.63 Q177.277 2287.08 178.092 2291.64 Q179.018 2296.57 181.538 2298.71 Q184.095 2300.83 186.911 2300.83 Q189.949 2300.83 192.469 2298.57 Q195.026 2296.27 195.804 2291.34 Q196.656 2286.49 196.619 2275.63 Q196.619 2265.07 195.878 2260.84 Q194.878 2255.92 192.21 2253.95 Q189.579 2251.95 186.911 2251.95 Q185.91 2251.95 184.836 2252.25 Q183.798 2252.54 182.279 2253.4 Q180.76 2254.25 179.574 2256.36 Q178.425 2258.47 177.869 2261.66 Q177.277 2265.77 177.277 2275.63 Z" fill="#000000" fill-rule="evenodd" fill-opacity="1" /><path clip-path="url(#clip860)" d="M208.922 2276.56 Q208.922 2265.4 211.738 2259.32 Q215.666 2250.28 224.929 2250.28 Q226.893 2250.28 228.931 2250.84 Q231.006 2251.36 233.6 2253.4 Q236.231 2255.43 237.824 2258.77 Q240.863 2265.22 240.863 2276.56 Q240.863 2287.63 238.047 2293.67 Q233.934 2302.49 224.855 2302.49 Q221.446 2302.49 217.963 2300.75 Q214.517 2299.01 212.331 2294.82 Q208.922 2288.56 208.922 2276.56 M215.221 2275.63 Q215.221 2287.08 216.036 2291.64 Q216.963 2296.57 219.482 2298.71 Q222.039 2300.83 224.855 2300.83 Q227.894 2300.83 230.413 2298.57 Q232.97 2296.27 233.748 2291.34 Q234.601 2286.49 234.564 2275.63 Q234.564 2265.07 233.823 2260.84 Q232.822 2255.92 230.154 2253.95 Q227.523 2251.95 224.855 2251.95 Q223.855 2251.95 222.78 2252.25 Q221.743 2252.54 220.223 2253.4 Q218.704 2254.25 217.518 2256.36 Q216.37 2258.47 215.814 2261.66 Q215.221 2265.77 215.221 2275.63 Z" fill="#000000" fill-rule="evenodd" fill-opacity="1" /><path clip-path="url(#clip860)" d="M95.9037 1772.57 Q95.9037 1771.2 96.0149 1770.79 Q96.1631 1770.39 96.756 1769.76 L111.319 1753.53 Q119.285 1744.56 119.285 1736.74 Q119.285 1731.66 116.617 1728.03 Q113.987 1724.4 109.132 1724.4 Q105.797 1724.4 102.981 1726.44 Q100.165 1728.48 98.8681 1732.11 Q99.0904 1732.03 99.8686 1732.03 Q101.758 1732.03 102.796 1733.22 Q103.871 1734.41 103.871 1736 Q103.871 1738.04 102.537 1739.04 Q101.24 1740 99.9427 1740 Q99.4239 1740 98.7199 1739.89 Q98.0529 1739.78 96.9783 1738.74 Q95.9037 1737.67 95.9037 1735.78 Q95.9037 1730.48 99.9056 1726.25 Q103.945 1722.03 110.096 1722.03 Q117.062 1722.03 121.62 1726.18 Q126.215 1730.29 126.215 1736.74 Q126.215 1739 125.511 1741.08 Q124.844 1743.11 123.917 1744.71 Q123.028 1746.3 120.582 1748.86 Q118.137 1751.41 116.173 1753.23 Q114.209 1755.05 109.799 1758.9 L101.758 1766.72 L115.432 1766.72 Q122.102 1766.72 122.62 1766.13 Q123.361 1765.05 124.288 1759.38 L126.215 1759.38 L124.066 1772.57 L95.9037 1772.57 Z" fill="#000000" fill-rule="evenodd" fill-opacity="1" /><path clip-path="url(#clip860)" d="M133.033 1748.3 Q133.033 1737.15 135.849 1731.07 Q139.777 1722.03 149.041 1722.03 Q151.005 1722.03 153.043 1722.59 Q155.118 1723.1 157.712 1725.14 Q160.342 1727.18 161.936 1730.52 Q164.974 1736.96 164.974 1748.3 Q164.974 1759.38 162.158 1765.42 Q158.045 1774.24 148.967 1774.24 Q145.557 1774.24 142.074 1772.5 Q138.628 1770.76 136.442 1766.57 Q133.033 1760.31 133.033 1748.3 M139.332 1747.38 Q139.332 1758.83 140.147 1763.38 Q141.074 1768.31 143.594 1770.46 Q146.15 1772.57 148.967 1772.57 Q152.005 1772.57 154.525 1770.31 Q157.082 1768.02 157.86 1763.09 Q158.712 1758.23 158.675 1747.38 Q158.675 1736.82 157.934 1732.59 Q156.933 1727.66 154.265 1725.7 Q151.634 1723.7 148.967 1723.7 Q147.966 1723.7 146.891 1723.99 Q145.854 1724.29 144.335 1725.14 Q142.815 1725.99 141.63 1728.11 Q140.481 1730.22 139.925 1733.41 Q139.332 1737.52 139.332 1747.38 Z" fill="#000000" fill-rule="evenodd" fill-opacity="1" /><path clip-path="url(#clip860)" d="M170.977 1748.3 Q170.977 1737.15 173.793 1731.07 Q177.721 1722.03 186.985 1722.03 Q188.949 1722.03 190.987 1722.59 Q193.062 1723.1 195.656 1725.14 Q198.287 1727.18 199.88 1730.52 Q202.919 1736.96 202.919 1748.3 Q202.919 1759.38 200.102 1765.42 Q195.989 1774.24 186.911 1774.24 Q183.502 1774.24 180.019 1772.5 Q176.573 1770.76 174.386 1766.57 Q170.977 1760.31 170.977 1748.3 M177.277 1747.38 Q177.277 1758.83 178.092 1763.38 Q179.018 1768.31 181.538 1770.46 Q184.095 1772.57 186.911 1772.57 Q189.949 1772.57 192.469 1770.31 Q195.026 1768.02 195.804 1763.09 Q196.656 1758.23 196.619 1747.38 Q196.619 1736.82 195.878 1732.59 Q194.878 1727.66 192.21 1725.7 Q189.579 1723.7 186.911 1723.7 Q185.91 1723.7 184.836 1723.99 Q183.798 1724.29 182.279 1725.14 Q180.76 1725.99 179.574 1728.11 Q178.425 1730.22 177.869 1733.41 Q177.277 1737.52 177.277 1747.38 Z" fill="#000000" fill-rule="evenodd" fill-opacity="1" /><path clip-path="url(#clip860)" d="M208.922 1748.3 Q208.922 1737.15 211.738 1731.07 Q215.666 1722.03 224.929 1722.03 Q226.893 1722.03 228.931 1722.59 Q231.006 1723.1 233.6 1725.14 Q236.231 1727.18 237.824 1730.52 Q240.863 1736.96 240.863 1748.3 Q240.863 1759.38 238.047 1765.42 Q233.934 1774.24 224.855 1774.24 Q221.446 1774.24 217.963 1772.5 Q214.517 1770.76 212.331 1766.57 Q208.922 1760.31 208.922 1748.3 M215.221 1747.38 Q215.221 1758.83 216.036 1763.38 Q216.963 1768.31 219.482 1770.46 Q222.039 1772.57 224.855 1772.57 Q227.894 1772.57 230.413 1770.31 Q232.97 1768.02 233.748 1763.09 Q234.601 1758.23 234.564 1747.38 Q234.564 1736.82 233.823 1732.59 Q232.822 1727.66 230.154 1725.7 Q227.523 1723.7 224.855 1723.7 Q223.855 1723.7 222.78 1723.99 Q221.743 1724.29 220.223 1725.14 Q218.704 1725.99 217.518 1728.11 Q216.37 1730.22 215.814 1733.41 Q215.221 1737.52 215.221 1747.38 Z" fill="#000000" fill-rule="evenodd" fill-opacity="1" /><path clip-path="url(#clip860)" d="M95.3108 1234.09 Q95.3108 1231.83 96.6077 1230.76 Q97.9047 1229.68 99.5721 1229.68 Q101.314 1229.68 102.537 1230.83 Q103.796 1231.94 103.796 1233.91 Q103.796 1236.02 102.314 1237.21 Q100.869 1238.39 98.794 1238.09 Q100.61 1241.13 103.945 1242.5 Q107.317 1243.88 110.429 1243.88 Q113.69 1243.88 116.321 1241.06 Q118.989 1238.24 118.989 1231.35 Q118.989 1225.5 116.692 1222.12 Q114.431 1218.75 109.948 1218.75 L106.613 1218.75 Q105.464 1218.75 105.13 1218.64 Q104.797 1218.53 104.797 1217.9 Q104.797 1217.16 105.946 1217.01 Q107.094 1217.01 108.91 1216.79 Q113.32 1216.64 115.654 1212.82 Q117.766 1209.27 117.766 1204.19 Q117.766 1199.56 115.543 1197.63 Q113.357 1195.67 110.503 1195.67 Q107.835 1195.67 104.908 1196.78 Q101.981 1197.89 100.387 1200.37 Q105.093 1200.37 105.093 1204.19 Q105.093 1205.86 104.019 1206.97 Q102.981 1208.04 101.24 1208.04 Q99.5721 1208.04 98.4605 1207.01 Q97.3488 1205.93 97.3488 1204.12 Q97.3488 1199.78 101.203 1196.78 Q105.093 1193.78 110.8 1193.78 Q116.432 1193.78 120.582 1196.74 Q124.77 1199.71 124.77 1204.26 Q124.77 1208.75 121.805 1212.42 Q118.841 1216.08 114.135 1217.6 Q119.915 1218.75 123.361 1222.68 Q126.808 1226.57 126.808 1231.35 Q126.808 1237.28 122.139 1241.65 Q117.47 1245.99 110.652 1245.99 Q104.352 1245.99 99.8315 1242.58 Q95.3108 1239.17 95.3108 1234.09 Z" fill="#000000" fill-rule="evenodd" fill-opacity="1" /><path clip-path="url(#clip860)" d="M133.033 1220.05 Q133.033 1208.9 135.849 1202.82 Q139.777 1193.78 149.041 1193.78 Q151.005 1193.78 153.043 1194.33 Q155.118 1194.85 157.712 1196.89 Q160.342 1198.93 161.936 1202.26 Q164.974 1208.71 164.974 1220.05 Q164.974 1231.13 162.158 1237.17 Q158.045 1245.99 148.967 1245.99 Q145.557 1245.99 142.074 1244.25 Q138.628 1242.5 136.442 1238.32 Q133.033 1232.05 133.033 1220.05 M139.332 1219.12 Q139.332 1230.57 140.147 1235.13 Q141.074 1240.06 143.594 1242.21 Q146.15 1244.32 148.967 1244.32 Q152.005 1244.32 154.525 1242.06 Q157.082 1239.76 157.86 1234.83 Q158.712 1229.98 158.675 1219.12 Q158.675 1208.56 157.934 1204.34 Q156.933 1199.41 154.265 1197.45 Q151.634 1195.44 148.967 1195.44 Q147.966 1195.44 146.891 1195.74 Q145.854 1196.04 144.335 1196.89 Q142.815 1197.74 141.63 1199.85 Q140.481 1201.97 139.925 1205.15 Q139.332 1209.27 139.332 1219.12 Z" fill="#000000" fill-rule="evenodd" fill-opacity="1" /><path clip-path="url(#clip860)" d="M170.977 1220.05 Q170.977 1208.9 173.793 1202.82 Q177.721 1193.78 186.985 1193.78 Q188.949 1193.78 190.987 1194.33 Q193.062 1194.85 195.656 1196.89 Q198.287 1198.93 199.88 1202.26 Q202.919 1208.71 202.919 1220.05 Q202.919 1231.13 200.102 1237.17 Q195.989 1245.99 186.911 1245.99 Q183.502 1245.99 180.019 1244.25 Q176.573 1242.5 174.386 1238.32 Q170.977 1232.05 170.977 1220.05 M177.277 1219.12 Q177.277 1230.57 178.092 1235.13 Q179.018 1240.06 181.538 1242.21 Q184.095 1244.32 186.911 1244.32 Q189.949 1244.32 192.469 1242.06 Q195.026 1239.76 195.804 1234.83 Q196.656 1229.98 196.619 1219.12 Q196.619 1208.56 195.878 1204.34 Q194.878 1199.41 192.21 1197.45 Q189.579 1195.44 186.911 1195.44 Q185.91 1195.44 184.836 1195.74 Q183.798 1196.04 182.279 1196.89 Q180.76 1197.74 179.574 1199.85 Q178.425 1201.97 177.869 1205.15 Q177.277 1209.27 177.277 1219.12 Z" fill="#000000" fill-rule="evenodd" fill-opacity="1" /><path clip-path="url(#clip860)" d="M208.922 1220.05 Q208.922 1208.9 211.738 1202.82 Q215.666 1193.78 224.929 1193.78 Q226.893 1193.78 228.931 1194.33 Q231.006 1194.85 233.6 1196.89 Q236.231 1198.93 237.824 1202.26 Q240.863 1208.71 240.863 1220.05 Q240.863 1231.13 238.047 1237.17 Q233.934 1245.99 224.855 1245.99 Q221.446 1245.99 217.963 1244.25 Q214.517 1242.5 212.331 1238.32 Q208.922 1232.05 208.922 1220.05 M215.221 1219.12 Q215.221 1230.57 216.036 1235.13 Q216.963 1240.06 219.482 1242.21 Q222.039 1244.32 224.855 1244.32 Q227.894 1244.32 230.413 1242.06 Q232.97 1239.76 233.748 1234.83 Q234.601 1229.98 234.564 1219.12 Q234.564 1208.56 233.823 1204.34 Q232.822 1199.41 230.154 1197.45 Q227.523 1195.44 224.855 1195.44 Q223.855 1195.44 222.78 1195.74 Q221.743 1196.04 220.223 1196.89 Q218.704 1197.74 217.518 1199.85 Q216.37 1201.97 215.814 1205.15 Q215.221 1209.27 215.221 1219.12 Z" fill="#000000" fill-rule="evenodd" fill-opacity="1" /><path clip-path="url(#clip860)" d="M94.2362 703.542 L94.2362 701.208 L117.544 665.598 Q118.137 664.671 119.063 664.708 Q119.915 664.708 120.101 665.042 Q120.286 665.375 120.286 666.672 L120.286 701.208 L127.882 701.208 L127.882 703.542 L120.286 703.542 L120.286 710.138 Q120.286 712.324 121.175 713.028 Q122.102 713.732 126.029 713.732 L127.623 713.732 L127.623 716.067 Q124.51 715.844 117.322 715.844 Q110.17 715.844 107.057 716.067 L107.057 713.732 L108.651 713.732 Q112.578 713.732 113.505 713.065 Q114.431 712.361 114.431 710.138 L114.431 703.542 L94.2362 703.542 M96.3854 701.208 L114.876 701.208 L114.876 672.897 L96.3854 701.208 Z" fill="#000000" fill-rule="evenodd" fill-opacity="1" /><path clip-path="url(#clip860)" d="M133.033 691.796 Q133.033 680.642 135.849 674.565 Q139.777 665.524 149.041 665.524 Q151.005 665.524 153.043 666.079 Q155.118 666.598 157.712 668.636 Q160.342 670.674 161.936 674.009 Q164.974 680.457 164.974 691.796 Q164.974 702.875 162.158 708.915 Q158.045 717.734 148.967 717.734 Q145.557 717.734 142.074 715.992 Q138.628 714.251 136.442 710.064 Q133.033 703.801 133.033 691.796 M139.332 690.869 Q139.332 702.319 140.147 706.877 Q141.074 711.805 143.594 713.954 Q146.15 716.067 148.967 716.067 Q152.005 716.067 154.525 713.806 Q157.082 711.509 157.86 706.58 Q158.712 701.726 158.675 690.869 Q158.675 680.308 157.934 676.084 Q156.933 671.156 154.265 669.192 Q151.634 667.191 148.967 667.191 Q147.966 667.191 146.891 667.487 Q145.854 667.784 144.335 668.636 Q142.815 669.488 141.63 671.601 Q140.481 673.713 139.925 676.899 Q139.332 681.013 139.332 690.869 Z" fill="#000000" fill-rule="evenodd" fill-opacity="1" /><path clip-path="url(#clip860)" d="M170.977 691.796 Q170.977 680.642 173.793 674.565 Q177.721 665.524 186.985 665.524 Q188.949 665.524 190.987 666.079 Q193.062 666.598 195.656 668.636 Q198.287 670.674 199.88 674.009 Q202.919 680.457 202.919 691.796 Q202.919 702.875 200.102 708.915 Q195.989 717.734 186.911 717.734 Q183.502 717.734 180.019 715.992 Q176.573 714.251 174.386 710.064 Q170.977 703.801 170.977 691.796 M177.277 690.869 Q177.277 702.319 178.092 706.877 Q179.018 711.805 181.538 713.954 Q184.095 716.067 186.911 716.067 Q189.949 716.067 192.469 713.806 Q195.026 711.509 195.804 706.58 Q196.656 701.726 196.619 690.869 Q196.619 680.308 195.878 676.084 Q194.878 671.156 192.21 669.192 Q189.579 667.191 186.911 667.191 Q185.91 667.191 184.836 667.487 Q183.798 667.784 182.279 668.636 Q180.76 669.488 179.574 671.601 Q178.425 673.713 177.869 676.899 Q177.277 681.013 177.277 690.869 Z" fill="#000000" fill-rule="evenodd" fill-opacity="1" /><path clip-path="url(#clip860)" d="M208.922 691.796 Q208.922 680.642 211.738 674.565 Q215.666 665.524 224.929 665.524 Q226.893 665.524 228.931 666.079 Q231.006 666.598 233.6 668.636 Q236.231 670.674 237.824 674.009 Q240.863 680.457 240.863 691.796 Q240.863 702.875 238.047 708.915 Q233.934 717.734 224.855 717.734 Q221.446 717.734 217.963 715.992 Q214.517 714.251 212.331 710.064 Q208.922 703.801 208.922 691.796 M215.221 690.869 Q215.221 702.319 216.036 706.877 Q216.963 711.805 219.482 713.954 Q222.039 716.067 224.855 716.067 Q227.894 716.067 230.413 713.806 Q232.97 711.509 233.748 706.58 Q234.601 701.726 234.564 690.869 Q234.564 680.308 233.823 676.084 Q232.822 671.156 230.154 669.192 Q227.523 667.191 224.855 667.191 Q223.855 667.191 222.78 667.487 Q221.743 667.784 220.223 668.636 Q218.704 669.488 217.518 671.601 Q216.37 673.713 215.814 676.899 Q215.221 681.013 215.221 690.869 Z" fill="#000000" fill-rule="evenodd" fill-opacity="1" /><path clip-path="url(#clip860)" d="M95.9037 175.585 Q95.9037 173.325 97.1265 172.473 Q98.3493 171.583 99.6463 171.583 Q101.388 171.583 102.388 172.695 Q103.426 173.769 103.426 175.289 Q103.426 176.808 102.388 177.92 Q101.388 178.994 99.6463 178.994 Q98.794 178.994 98.3493 178.846 Q99.3498 182.329 102.388 184.849 Q105.464 187.369 109.503 187.369 Q114.579 187.369 117.618 182.44 Q119.434 179.254 119.434 172.028 Q119.434 165.654 118.063 162.468 Q115.95 157.613 111.615 157.613 Q105.464 157.613 101.833 162.912 Q101.388 163.579 100.869 163.616 Q100.128 163.616 99.9427 163.209 Q99.7945 162.764 99.7945 161.615 L99.7945 139.16 Q99.7945 137.344 100.536 137.344 Q100.832 137.344 101.462 137.567 Q106.242 139.679 111.541 139.716 Q116.988 139.716 121.879 137.493 Q122.25 137.27 122.472 137.27 Q123.213 137.27 123.25 138.122 Q123.25 138.419 122.62 139.308 Q122.027 140.161 120.731 141.309 Q119.434 142.421 117.766 143.495 Q116.099 144.57 113.653 145.311 Q111.244 146.015 108.577 146.015 Q105.39 146.015 102.129 145.015 L102.129 159.8 Q106.057 155.946 111.763 155.946 Q117.84 155.946 122.027 160.837 Q126.215 165.729 126.215 172.547 Q126.215 179.698 121.249 184.59 Q116.321 189.481 109.651 189.481 Q103.574 189.481 99.7204 185.145 Q95.9037 180.81 95.9037 175.585 Z" fill="#000000" fill-rule="evenodd" fill-opacity="1" /><path clip-path="url(#clip860)" d="M133.033 163.542 Q133.033 152.389 135.849 146.312 Q139.777 137.27 149.041 137.27 Q151.005 137.27 153.043 137.826 Q155.118 138.345 157.712 140.383 Q160.342 142.421 161.936 145.756 Q164.974 152.203 164.974 163.542 Q164.974 174.622 162.158 180.662 Q158.045 189.481 148.967 189.481 Q145.557 189.481 142.074 187.739 Q138.628 185.998 136.442 181.81 Q133.033 175.548 133.033 163.542 M139.332 162.616 Q139.332 174.066 140.147 178.624 Q141.074 183.552 143.594 185.701 Q146.15 187.813 148.967 187.813 Q152.005 187.813 154.525 185.553 Q157.082 183.256 157.86 178.327 Q158.712 173.473 158.675 162.616 Q158.675 152.055 157.934 147.831 Q156.933 142.903 154.265 140.939 Q151.634 138.938 148.967 138.938 Q147.966 138.938 146.891 139.234 Q145.854 139.531 144.335 140.383 Q142.815 141.235 141.63 143.347 Q140.481 145.459 139.925 148.646 Q139.332 152.759 139.332 162.616 Z" fill="#000000" fill-rule="evenodd" fill-opacity="1" /><path clip-path="url(#clip860)" d="M170.977 163.542 Q170.977 152.389 173.793 146.312 Q177.721 137.27 186.985 137.27 Q188.949 137.27 190.987 137.826 Q193.062 138.345 195.656 140.383 Q198.287 142.421 199.88 145.756 Q202.919 152.203 202.919 163.542 Q202.919 174.622 200.102 180.662 Q195.989 189.481 186.911 189.481 Q183.502 189.481 180.019 187.739 Q176.573 185.998 174.386 181.81 Q170.977 175.548 170.977 163.542 M177.277 162.616 Q177.277 174.066 178.092 178.624 Q179.018 183.552 181.538 185.701 Q184.095 187.813 186.911 187.813 Q189.949 187.813 192.469 185.553 Q195.026 183.256 195.804 178.327 Q196.656 173.473 196.619 162.616 Q196.619 152.055 195.878 147.831 Q194.878 142.903 192.21 140.939 Q189.579 138.938 186.911 138.938 Q185.91 138.938 184.836 139.234 Q183.798 139.531 182.279 140.383 Q180.76 141.235 179.574 143.347 Q178.425 145.459 177.869 148.646 Q177.277 152.759 177.277 162.616 Z" fill="#000000" fill-rule="evenodd" fill-opacity="1" /><path clip-path="url(#clip860)" d="M208.922 163.542 Q208.922 152.389 211.738 146.312 Q215.666 137.27 224.929 137.27 Q226.893 137.27 228.931 137.826 Q231.006 138.345 233.6 140.383 Q236.231 142.421 237.824 145.756 Q240.863 152.203 240.863 163.542 Q240.863 174.622 238.047 180.662 Q233.934 189.481 224.855 189.481 Q221.446 189.481 217.963 187.739 Q214.517 185.998 212.331 181.81 Q208.922 175.548 208.922 163.542 M215.221 162.616 Q215.221 174.066 216.036 178.624 Q216.963 183.552 219.482 185.701 Q222.039 187.813 224.855 187.813 Q227.894 187.813 230.413 185.553 Q232.97 183.256 233.748 178.327 Q234.601 173.473 234.564 162.616 Q234.564 152.055 233.823 147.831 Q232.822 142.903 230.154 140.939 Q227.523 138.938 224.855 138.938 Q223.855 138.938 222.78 139.234 Q221.743 139.531 220.223 140.383 Q218.704 141.235 217.518 143.347 Q216.37 145.459 215.814 148.646 Q215.221 152.759 215.221 162.616 Z" fill="#000000" fill-rule="evenodd" fill-opacity="1" /><polyline clip-path="url(#clip862)" style="stroke:#ffa500; stroke-linecap:butt; stroke-linejoin:round; stroke-width:16; stroke-opacity:1; fill:none" points="
  288.863,2803.16 288.863,704.938 304.161,704.938 304.161,732.407 319.459,732.407 319.459,703.881 334.757,703.881 334.757,694.373 350.055,694.373 350.055,801.08 
  365.353,801.08 365.353,755.122 380.652,755.122 380.652,672.186 395.95,672.186 395.95,718.144 411.248,718.144 411.248,665.847 426.546,665.847 426.546,654.754 
  441.844,654.754 441.844,701.768 457.142,701.768 457.142,689.618 472.44,689.618 472.44,739.802 487.738,739.802 487.738,694.901 503.036,694.901 503.036,654.225 
  518.334,654.225 518.334,597.174 533.632,597.174 533.632,643.132 548.931,643.132 548.931,557.027 564.229,557.027 564.229,582.383 579.527,582.383 579.527,601.928 
  594.825,601.928 594.825,545.933 610.123,545.933 610.123,598.231 625.421,598.231 625.421,597.174 640.719,597.174 640.719,639.963 656.017,639.963 656.017,695.429 
  671.315,695.429 671.315,740.331 686.613,740.331 686.613,796.854 701.912,796.854 701.912,820.625 717.21,820.625 717.21,863.942 732.508,863.942 732.508,1050.42 
  747.806,1050.42 747.806,1055.7 763.104,1055.7 763.104,1073.66 778.402,1073.66 778.402,1151.31 793.7,1151.31 793.7,1245.34 808.998,1245.34 808.998,1293.41 
  824.296,1293.41 824.296,1299.75 839.594,1299.75 839.594,1402.76 854.892,1402.76 854.892,1402.23 870.191,1402.23 870.191,1517.92 885.489,1517.92 885.489,1505.77 
  900.787,1505.77 900.787,1558.07 916.085,1558.07 916.085,1560.18 931.383,1560.18 931.383,1612.48 946.681,1612.48 946.681,1627.27 961.979,1627.27 961.979,1681.68 
  977.277,1681.68 977.277,1688.55 992.575,1688.55 992.575,1702.28 1007.87,1702.28 1007.87,1728.16 1023.17,1728.16 1023.17,1787.33 1038.47,1787.33 1038.47,1826.95 
  1053.77,1826.95 1053.77,1858.11 1069.07,1858.11 1069.07,1868.15 1084.36,1868.15 1084.36,1904.6 1099.66,1904.6 1099.66,1927.32 1114.96,1927.32 1114.96,1956.37 
  1130.26,1956.37 1130.26,1958.48 1145.56,1958.48 1145.56,1985.95 1160.85,1985.95 1160.85,1961.65 1176.15,1961.65 1176.15,2028.21 1191.45,2028.21 1191.45,2042.47 
  1206.75,2042.47 1206.75,2043.53 1222.05,2043.53 1222.05,2072.59 1237.34,2072.59 1237.34,2048.29 1252.64,2048.29 1252.64,2079.45 1267.94,2079.45 1267.94,2134.39 
  1283.24,2134.39 1283.24,2154.46 1298.54,2154.46 1298.54,2156.05 1313.84,2156.05 1313.84,2198.84 1329.13,2198.84 1329.13,2178.76 1344.43,2178.76 1344.43,2195.67 
  1359.73,2195.67 1359.73,2226.31 1375.03,2226.31 1375.03,2210.99 1390.33,2210.99 1390.33,2261.7 1405.62,2261.7 1405.62,2286.53 1420.92,2286.53 1420.92,2269.62 
  1436.22,2269.62 1436.22,2292.87 1451.52,2292.87 1451.52,2253.25 1466.82,2253.25 1466.82,2299.21 1482.11,2299.21 1482.11,2317.17 1497.41,2317.17 1497.41,2316.64 
  1512.71,2316.64 1512.71,2303.43 1528.01,2303.43 1528.01,2322.98 1543.31,2322.98 1543.31,2315.58 1558.6,2315.58 1558.6,2312.94 1573.9,2312.94 1573.9,2376.33 
  1589.2,2376.33 1589.2,2375.27 1604.5,2375.27 1604.5,2381.09 1619.8,2381.09 1619.8,2379.5 1635.1,2379.5 1635.1,2399.05 1650.39,2399.05 1650.39,2406.44 
  1665.69,2406.44 1665.69,2405.38 1680.99,2405.38 1680.99,2448.17 1696.29,2448.17 1696.29,2424.93 1711.59,2424.93 1711.59,2431.27 1726.88,2431.27 1726.88,2449.76 
  1742.18,2449.76 1742.18,2467.19 1757.48,2467.19 1757.48,2452.4 1772.78,2452.4 1772.78,2484.09 1788.08,2484.09 1788.08,2446.06 1803.37,2446.06 1803.37,2478.81 
  1818.67,2478.81 1818.67,2482.51 1833.97,2482.51 1833.97,2484.09 1849.27,2484.09 1849.27,2480.93 1864.57,2480.93 1864.57,2492.02 1879.86,2492.02 1879.86,2495.19 
  1895.16,2495.19 1895.16,2515.26 1910.46,2515.26 1910.46,2511.56 1925.76,2511.56 1925.76,2531.64 1941.06,2531.64 1941.06,2531.11 1956.36,2531.11 1956.36,2536.39 
  1971.65,2536.39 1971.65,2533.75 1986.95,2533.75 1986.95,2546.43 2002.25,2546.43 2002.25,2544.84 2017.55,2544.84 2017.55,2532.69 2032.85,2532.69 2032.85,2544.32 
  2048.14,2544.32 2048.14,2571.78 2063.44,2571.78 2063.44,2545.37 2078.74,2545.37 2078.74,2572.84 2094.04,2572.84 2094.04,2567.03 2109.34,2567.03 2109.34,2556.99 
  2124.63,2556.99 2124.63,2590.27 2139.93,2590.27 2139.93,2583.41 2155.23,2583.41 2155.23,2564.39 2170.53,2564.39 2170.53,2589.75 2185.83,2589.75 2185.83,2584.99 
  2201.12,2584.99 2201.12,2589.75 2216.42,2589.75 2216.42,2602.42 2231.72,2602.42 2231.72,2607.18 2247.02,2607.18 2247.02,2599.25 2262.32,2599.25 2262.32,2591.86 
  2277.62,2591.86 2277.62,2594.5 2292.91,2594.5 2292.91,2624.08 2308.21,2624.08 2308.21,2615.63 2323.51,2615.63 2323.51,2604.01 2338.81,2604.01 2338.81,2611.4 
  2354.11,2611.4 2354.11,2616.16 2369.4,2616.16 2369.4,2609.29 2384.7,2609.29 2384.7,2605.59 2400,2605.59 2400,2607.71 2415.3,2607.71 2415.3,2639.4 
  2430.6,2639.4 2430.6,2627.78 2445.89,2627.78 2445.89,2632.53 2461.19,2632.53 2461.19,2628.31 2476.49,2628.31 2476.49,2624.08 2491.79,2624.08 2491.79,2627.25 
  2507.09,2627.25 2507.09,2634.65 2522.38,2634.65 2522.38,2662.12 2537.68,2662.12 2537.68,2637.82 2552.98,2637.82 2552.98,2630.95 2568.28,2630.95 2568.28,2645.74 
  2583.58,2645.74 2583.58,2635.7 2598.87,2635.7 2598.87,2640.46 2614.17,2640.46 2614.17,2643.63 2629.47,2643.63 2629.47,2636.76 2644.77,2636.76 2644.77,2628.31 
  2660.07,2628.31 2660.07,2639.93 2675.37,2639.93 2675.37,2660 2690.66,2660 2690.66,2636.76 2705.96,2636.76 2705.96,2652.61 2721.26,2652.61 2721.26,2641.51 
  2736.56,2641.51 2736.56,2660 2751.86,2660 2751.86,2648.91 2767.15,2648.91 2767.15,2657.36 2782.45,2657.36 2782.45,2674.27 2797.75,2674.27 2797.75,2660.53 
  2813.05,2660.53 2813.05,2644.16 2828.35,2644.16 2828.35,2648.91 2843.64,2648.91 2843.64,2667.4 2858.94,2667.4 2858.94,2646.8 2874.24,2646.8 2874.24,2667.93 
  2889.54,2667.93 2889.54,2655.25 2904.84,2655.25 2904.84,2653.66 2920.13,2653.66 2920.13,2645.21 2935.43,2645.21 2935.43,2662.64 2950.73,2662.64 2950.73,2670.04 
  2966.03,2670.04 2966.03,2656.83 2981.33,2656.83 2981.33,2658.42 2996.63,2658.42 2996.63,2667.4 3011.92,2667.4 3011.92,2652.08 3027.22,2652.08 3027.22,2670.04 
  3042.52,2670.04 3042.52,2803.16 
  "/>
<path clip-path="url(#clip862)" d="
M594.825 5511.83 L594.825 -2614.18 L671.315 -2614.18 L671.315 5511.83 L594.825 5511.83  Z
  " fill="#ffa500" fill-rule="evenodd" fill-opacity="0.2"/>
<polyline clip-path="url(#clip862)" style="stroke:#000000; stroke-linecap:butt; stroke-linejoin:round; stroke-width:0; stroke-opacity:0.2; fill:none" points="
  594.825,5511.83 594.825,-2614.18 671.315,-2614.18 671.315,5511.83 594.825,5511.83 
  "/>
<polyline clip-path="url(#clip862)" style="stroke:#707070; stroke-linecap:butt; stroke-linejoin:round; stroke-width:12; stroke-opacity:1; fill:none" points="
  786.051,5511.83 786.051,-2614.18 
  "/>
<polyline clip-path="url(#clip862)" style="stroke:#21ab74; stroke-linecap:butt; stroke-linejoin:round; stroke-width:12; stroke-opacity:1; fill:none" points="
  610.123,5511.83 610.123,-2614.18 
  "/>
<polyline clip-path="url(#clip862)" style="stroke:#ba3030; stroke-linecap:butt; stroke-linejoin:round; stroke-width:12; stroke-opacity:1; fill:none" points="
  985.74,5511.83 985.74,-2614.18 
  "/>
<path clip-path="url(#clip860)" d="
M2278.89 573.577 L2950.73 573.577 L2950.73 184.777 L2278.89 184.777  Z
  " fill="#ffffff" fill-rule="evenodd" fill-opacity="1"/>
<polyline clip-path="url(#clip860)" style="stroke:#000000; stroke-linecap:butt; stroke-linejoin:round; stroke-width:4; stroke-opacity:1; fill:none" points="
  2278.89,573.577 2950.73,573.577 2950.73,184.777 2278.89,184.777 2278.89,573.577 
  "/>
<path clip-path="url(#clip860)" d="
M2309.48 293.641 L2493.06 293.641 L2493.06 231.433 L2309.48 231.433 L2309.48 293.641  Z
  " fill="#ffa500" fill-rule="evenodd" fill-opacity="0.2"/>
<polyline clip-path="url(#clip860)" style="stroke:#000000; stroke-linecap:butt; stroke-linejoin:round; stroke-width:0; stroke-opacity:1; fill:none" points="
  2309.48,293.641 2493.06,293.641 2493.06,231.433 2309.48,231.433 2309.48,293.641 
  "/>
<path clip-path="url(#clip860)" d="M2523.66 272.153 Q2523.66 265.557 2528.25 260.555 Q2532.85 255.515 2540.74 255.071 Q2540.52 250.439 2540.18 246.029 Q2539.89 241.62 2539.7 239.396 Q2539.52 237.173 2539.52 236.988 Q2539.52 235.32 2540.41 234.653 Q2541.33 233.986 2542.41 233.986 Q2543.48 233.986 2544.37 234.653 Q2545.3 235.32 2545.3 236.988 Q2545.3 237.84 2545.08 240.063 Q2544.89 242.25 2544.56 246.363 Q2544.22 250.439 2544 255.071 Q2551.75 255.515 2556.45 260.258 Q2561.16 265.001 2561.16 272.153 Q2561.16 278.823 2556.45 283.825 Q2551.75 288.828 2543.63 289.31 Q2543.78 292.496 2544.19 296.498 Q2544.59 300.537 2544.93 303.279 Q2545.3 306.058 2545.3 306.355 Q2545.3 308.022 2544.37 308.689 Q2543.48 309.393 2542.41 309.393 Q2541.33 309.393 2540.41 308.689 Q2539.52 308.022 2539.52 306.355 Q2539.52 305.836 2539.81 303.576 Q2540.11 301.352 2540.52 297.388 Q2540.96 293.46 2541.18 289.31 Q2533.22 288.939 2528.44 284.159 Q2523.66 279.379 2523.66 272.153 M2529.44 275.71 Q2529.44 287.234 2540.44 287.234 L2541.26 287.234 Q2541.41 282.825 2541.41 280.12 Q2541.41 268.892 2540.89 257.479 Q2535.33 258.924 2532.37 264.297 Q2529.44 269.633 2529.44 275.71 M2543.37 280.565 Q2543.37 282.677 2543.56 286.938 Q2547.48 286.012 2550.26 282.973 Q2553.04 279.898 2554.19 276.229 Q2555.38 272.524 2555.38 268.559 Q2555.38 257.035 2544.37 257.035 L2543.93 257.035 Q2543.37 267.818 2543.37 280.565 Z" fill="#000000" fill-rule="evenodd" fill-opacity="1" /><path clip-path="url(#clip860)" d="M2633.64 289.124 Q2634.08 289.569 2634.08 290.199 Q2634.08 290.829 2633.64 291.273 Q2633.19 291.718 2632.56 291.718 L2617.93 291.718 Q2613.4 291.718 2609.25 289.939 Q2605.14 288.198 2602.18 285.233 Q2599.21 282.269 2597.43 278.156 Q2595.69 274.006 2595.69 269.485 Q2595.69 264.964 2597.43 260.851 Q2599.21 256.701 2602.18 253.737 Q2605.14 250.772 2609.25 249.031 Q2613.4 247.252 2617.93 247.252 L2632.56 247.252 Q2633.19 247.252 2633.64 247.697 Q2634.08 248.141 2634.08 248.771 Q2634.08 249.401 2633.64 249.846 Q2633.19 250.291 2632.56 250.291 L2617.93 250.291 Q2610.4 250.291 2604.88 255.441 Q2599.36 260.555 2598.8 267.966 L2632.56 267.966 Q2633.53 267.966 2633.9 268.744 Q2634.3 269.485 2633.9 270.263 Q2633.53 271.004 2632.56 271.004 L2598.8 271.004 Q2599.36 278.415 2604.88 283.566 Q2610.4 288.68 2617.93 288.68 L2632.56 288.68 Q2633.19 288.68 2633.64 289.124 Z" fill="#000000" fill-rule="evenodd" fill-opacity="1" /><path clip-path="url(#clip860)" d="M2672.91 269.485 Q2672.91 256.664 2677.7 246.326 Q2679.73 241.99 2682.59 238.359 Q2685.44 234.727 2687.33 233.134 Q2689.22 231.541 2689.74 231.541 Q2690.48 231.541 2690.52 232.282 Q2690.52 232.652 2689.52 233.579 Q2677.29 246.029 2677.32 269.485 Q2677.32 293.015 2689.22 304.984 Q2690.52 306.281 2690.52 306.688 Q2690.52 307.429 2689.74 307.429 Q2689.22 307.429 2687.4 305.91 Q2685.59 304.391 2682.77 300.908 Q2679.96 297.425 2677.92 293.163 Q2672.91 282.825 2672.91 269.485 Z" fill="#000000" fill-rule="evenodd" fill-opacity="1" /><path clip-path="url(#clip860)" d="M2698.59 288.457 Q2698.59 287.086 2698.71 286.679 Q2698.85 286.271 2699.45 285.641 L2714.01 269.411 Q2721.98 260.444 2721.98 252.625 Q2721.98 247.548 2719.31 243.917 Q2716.68 240.286 2711.82 240.286 Q2708.49 240.286 2705.67 242.324 Q2702.86 244.362 2701.56 247.993 Q2701.78 247.919 2702.56 247.919 Q2704.45 247.919 2705.49 249.105 Q2706.56 250.291 2706.56 251.884 Q2706.56 253.922 2705.23 254.922 Q2703.93 255.886 2702.63 255.886 Q2702.11 255.886 2701.41 255.775 Q2700.74 255.664 2699.67 254.626 Q2698.59 253.551 2698.59 251.662 Q2698.59 246.363 2702.6 242.138 Q2706.64 237.914 2712.79 237.914 Q2719.75 237.914 2724.31 242.064 Q2728.91 246.177 2728.91 252.625 Q2728.91 254.885 2728.2 256.96 Q2727.53 258.998 2726.61 260.592 Q2725.72 262.185 2723.27 264.742 Q2720.83 267.299 2718.86 269.115 Q2716.9 270.93 2712.49 274.784 L2704.45 282.603 L2718.12 282.603 Q2724.79 282.603 2725.31 282.01 Q2726.05 280.935 2726.98 275.266 L2728.91 275.266 L2726.76 288.457 L2698.59 288.457 Z" fill="#000000" fill-rule="evenodd" fill-opacity="1" /><path clip-path="url(#clip860)" d="M2735.72 264.186 Q2735.72 253.033 2738.54 246.956 Q2742.47 237.914 2751.73 237.914 Q2753.69 237.914 2755.73 238.47 Q2757.81 238.989 2760.4 241.027 Q2763.03 243.065 2764.63 246.4 Q2767.66 252.847 2767.66 264.186 Q2767.66 275.266 2764.85 281.306 Q2760.74 290.125 2751.66 290.125 Q2748.25 290.125 2744.76 288.383 Q2741.32 286.642 2739.13 282.454 Q2735.72 276.192 2735.72 264.186 M2742.02 263.26 Q2742.02 274.71 2742.84 279.268 Q2743.76 284.196 2746.28 286.345 Q2748.84 288.457 2751.66 288.457 Q2754.7 288.457 2757.22 286.197 Q2759.77 283.899 2760.55 278.971 Q2761.4 274.117 2761.37 263.26 Q2761.37 252.699 2760.62 248.475 Q2759.62 243.547 2756.96 241.583 Q2754.32 239.582 2751.66 239.582 Q2750.66 239.582 2749.58 239.878 Q2748.54 240.175 2747.03 241.027 Q2745.51 241.879 2744.32 243.991 Q2743.17 246.103 2742.62 249.29 Q2742.02 253.403 2742.02 263.26 Z" fill="#000000" fill-rule="evenodd" fill-opacity="1" /><path clip-path="url(#clip860)" d="M2778.3 287.234 Q2777.22 286.012 2777.22 284.418 Q2777.22 282.825 2778.26 281.639 Q2779.34 280.416 2781.26 280.416 Q2783.52 280.416 2784.82 282.603 Q2786.12 284.752 2786.12 288.383 Q2786.12 292.311 2784.52 295.942 Q2782.93 299.611 2781.38 301.352 Q2779.82 303.094 2779.19 303.094 Q2778.45 303.094 2778.45 302.279 Q2778.45 301.982 2778.97 301.427 Q2784.41 295.572 2784.45 288.383 Q2784.45 287.234 2784.3 287.234 L2784.12 287.383 Q2782.82 288.457 2781.26 288.457 Q2779.37 288.457 2778.3 287.234 Z" fill="#000000" fill-rule="evenodd" fill-opacity="1" /><path clip-path="url(#clip860)" d="M2795.49 288.457 Q2795.49 287.086 2795.6 286.679 Q2795.75 286.271 2796.35 285.641 L2810.91 269.411 Q2818.87 260.444 2818.87 252.625 Q2818.87 247.548 2816.21 243.917 Q2813.58 240.286 2808.72 240.286 Q2805.39 240.286 2802.57 242.324 Q2799.75 244.362 2798.46 247.993 Q2798.68 247.919 2799.46 247.919 Q2801.35 247.919 2802.39 249.105 Q2803.46 250.291 2803.46 251.884 Q2803.46 253.922 2802.13 254.922 Q2800.83 255.886 2799.53 255.886 Q2799.01 255.886 2798.31 255.775 Q2797.64 255.664 2796.57 254.626 Q2795.49 253.551 2795.49 251.662 Q2795.49 246.363 2799.5 242.138 Q2803.53 237.914 2809.69 237.914 Q2816.65 237.914 2821.21 242.064 Q2825.8 246.177 2825.8 252.625 Q2825.8 254.885 2825.1 256.96 Q2824.43 258.998 2823.51 260.592 Q2822.62 262.185 2820.17 264.742 Q2817.73 267.299 2815.76 269.115 Q2813.8 270.93 2809.39 274.784 L2801.35 282.603 L2815.02 282.603 Q2821.69 282.603 2822.21 282.01 Q2822.95 280.935 2823.88 275.266 L2825.8 275.266 L2823.65 288.457 L2795.49 288.457 Z" fill="#000000" fill-rule="evenodd" fill-opacity="1" /><path clip-path="url(#clip860)" d="M2833.44 276.229 Q2833.44 273.969 2834.66 273.116 Q2835.88 272.227 2837.18 272.227 Q2838.92 272.227 2839.92 273.339 Q2840.96 274.413 2840.96 275.933 Q2840.96 277.452 2839.92 278.564 Q2838.92 279.638 2837.18 279.638 Q2836.33 279.638 2835.88 279.49 Q2836.88 282.973 2839.92 285.493 Q2843 288.013 2847.04 288.013 Q2852.11 288.013 2855.15 283.084 Q2856.97 279.898 2856.97 272.672 Q2856.97 266.298 2855.6 263.112 Q2853.48 258.257 2849.15 258.257 Q2843 258.257 2839.37 263.556 Q2838.92 264.223 2838.4 264.26 Q2837.66 264.26 2837.48 263.853 Q2837.33 263.408 2837.33 262.259 L2837.33 239.804 Q2837.33 237.988 2838.07 237.988 Q2838.37 237.988 2839 238.211 Q2843.78 240.323 2849.07 240.36 Q2854.52 240.36 2859.41 238.136 Q2859.78 237.914 2860.01 237.914 Q2860.75 237.914 2860.78 238.766 Q2860.78 239.063 2860.15 239.952 Q2859.56 240.804 2858.26 241.953 Q2856.97 243.065 2855.3 244.139 Q2853.63 245.214 2851.19 245.955 Q2848.78 246.659 2846.11 246.659 Q2842.92 246.659 2839.66 245.659 L2839.66 260.444 Q2843.59 256.59 2849.3 256.59 Q2855.37 256.59 2859.56 261.481 Q2863.75 266.372 2863.75 273.191 Q2863.75 280.342 2858.78 285.233 Q2853.85 290.125 2847.18 290.125 Q2841.11 290.125 2837.25 285.789 Q2833.44 281.454 2833.44 276.229 Z" fill="#000000" fill-rule="evenodd" fill-opacity="1" /><path clip-path="url(#clip860)" d="M2871.94 306.688 Q2871.94 306.318 2872.9 305.391 Q2885.13 292.941 2885.13 269.485 Q2885.13 245.955 2873.38 234.06 Q2871.94 232.689 2871.94 232.282 Q2871.94 231.541 2872.68 231.541 Q2873.2 231.541 2875.01 233.06 Q2876.87 234.579 2879.65 238.062 Q2882.46 241.546 2884.54 245.807 Q2889.54 256.145 2889.54 269.485 Q2889.54 282.306 2884.76 292.644 Q2882.72 296.98 2879.87 300.611 Q2877.01 304.243 2875.12 305.836 Q2873.23 307.429 2872.68 307.429 Q2871.94 307.429 2871.94 306.688 Z" fill="#000000" fill-rule="evenodd" fill-opacity="1" /><polyline clip-path="url(#clip860)" style="stroke:#707070; stroke-linecap:butt; stroke-linejoin:round; stroke-width:6; stroke-opacity:1; fill:none" points="
  2309.48,340.297 2493.06,340.297 
  "/>
<path clip-path="url(#clip860)" d="M2523.66 366.217 L2523.66 363.883 Q2527.7 363.883 2528.62 363.401 Q2529.55 362.882 2529.55 360.437 L2529.55 340.093 Q2529.55 337.277 2528.55 336.573 Q2527.59 335.869 2523.66 335.869 L2523.66 333.498 L2534.33 332.682 L2534.33 340.649 Q2537.89 332.682 2545.56 332.682 Q2554.45 332.682 2555.67 340.093 Q2556.97 337.203 2559.67 334.943 Q2562.42 332.682 2566.68 332.682 Q2572.38 332.682 2574.65 335.499 Q2576.31 337.388 2576.65 339.501 Q2576.98 341.613 2576.98 347.097 L2576.98 361.585 Q2577.05 363.179 2578.28 363.549 Q2579.5 363.883 2582.91 363.883 L2582.91 366.217 Q2575.16 365.995 2574.42 365.995 Q2573.83 365.995 2565.83 366.217 L2565.83 363.883 Q2569.86 363.883 2570.79 363.401 Q2571.75 362.882 2571.75 360.437 L2571.75 342.761 Q2571.75 338.908 2570.57 336.647 Q2569.38 334.35 2566.12 334.35 Q2562.19 334.35 2559.04 337.648 Q2555.9 340.946 2555.9 346.504 L2555.9 360.437 Q2555.9 362.882 2556.82 363.401 Q2557.78 363.883 2561.82 363.883 L2561.82 366.217 Q2554.08 365.995 2553.3 365.995 Q2552.71 365.995 2544.74 366.217 L2544.74 363.883 Q2548.78 363.883 2549.71 363.401 Q2550.67 362.882 2550.67 360.437 L2550.67 342.761 Q2550.67 338.908 2549.48 336.647 Q2548.3 334.35 2545.04 334.35 Q2541.11 334.35 2537.96 337.648 Q2534.81 340.946 2534.81 346.504 L2534.81 360.437 Q2534.81 362.882 2535.74 363.401 Q2536.7 363.883 2540.7 363.883 L2540.7 366.217 Q2532.96 365.995 2532.22 365.995 Q2531.62 365.995 2523.66 366.217 Z" fill="#000000" fill-rule="evenodd" fill-opacity="1" /><path clip-path="url(#clip860)" d="M2586.5 349.505 Q2586.5 342.354 2591.1 337.277 Q2595.69 332.201 2602.29 332.201 Q2608.96 332.201 2612.4 336.536 Q2615.89 340.872 2615.89 347.097 Q2615.89 348.246 2615.59 348.468 Q2615.29 348.69 2614 348.69 L2592.8 348.69 Q2592.8 356.435 2595.1 360.066 Q2598.29 365.143 2603.66 365.143 Q2604.4 365.143 2605.29 364.994 Q2606.18 364.846 2607.99 364.216 Q2609.81 363.549 2611.4 361.808 Q2613 360.066 2613.92 357.324 Q2614.15 356.249 2614.89 356.286 Q2615.89 356.286 2615.89 357.176 Q2615.89 357.843 2615.15 359.362 Q2614.44 360.844 2613.07 362.623 Q2611.7 364.402 2609.03 365.736 Q2606.4 367.07 2603.21 367.07 Q2596.54 367.07 2591.51 362.03 Q2586.5 356.953 2586.5 349.505 M2592.88 347.097 L2610.88 347.097 Q2610.88 345.503 2610.59 343.725 Q2610.33 341.946 2609.51 339.501 Q2608.74 337.018 2606.88 335.462 Q2605.03 333.905 2602.29 333.905 Q2601.07 333.905 2599.73 334.424 Q2598.43 334.943 2596.84 336.203 Q2595.25 337.463 2594.14 340.316 Q2593.02 343.169 2592.88 347.097 Z" fill="#000000" fill-rule="evenodd" fill-opacity="1" /><path clip-path="url(#clip860)" d="M2620.67 349.913 Q2620.67 342.687 2625.71 337.685 Q2630.75 332.682 2637.56 332.682 Q2643.35 332.682 2647.12 337.388 L2647.12 320.973 Q2647.12 318.157 2646.12 317.453 Q2645.16 316.749 2641.23 316.749 L2641.23 314.377 L2652.16 313.562 L2652.16 359.621 Q2652.16 362.438 2653.13 363.179 Q2654.13 363.883 2658.06 363.883 L2658.06 366.217 L2646.9 367.07 L2646.9 362.03 Q2642.97 367.032 2636.75 367.07 Q2630.23 367.07 2625.45 362.067 Q2620.67 357.065 2620.67 349.913 M2626.97 349.987 Q2626.97 357.028 2629.15 360.511 Q2632.19 365.365 2637.12 365.365 Q2642.75 365.365 2646.09 360.066 Q2646.94 358.769 2646.9 357.25 L2646.9 341.687 Q2646.9 340.168 2646.09 338.908 Q2642.97 334.35 2637.9 334.35 Q2632.6 334.35 2629.3 339.204 Q2626.97 342.836 2626.97 349.987 Z" fill="#000000" fill-rule="evenodd" fill-opacity="1" /><path clip-path="url(#clip860)" d="M2662.69 366.217 L2662.69 363.883 Q2666.73 363.883 2667.65 363.401 Q2668.58 362.882 2668.58 360.437 L2668.58 340.019 Q2668.58 337.203 2667.62 336.536 Q2666.69 335.869 2662.98 335.869 L2662.98 333.498 L2673.58 332.682 L2673.58 360.511 Q2673.58 362.771 2674.4 363.327 Q2675.21 363.883 2678.92 363.883 L2678.92 366.217 Q2671.17 365.995 2671.03 365.995 Q2669.99 365.995 2662.69 366.217 M2665.87 319.454 Q2665.87 317.935 2667.02 316.712 Q2668.21 315.452 2669.88 315.452 Q2671.54 315.452 2672.73 316.601 Q2673.92 317.712 2673.92 319.491 Q2673.92 321.232 2672.73 322.381 Q2671.54 323.493 2669.88 323.493 Q2668.13 323.493 2666.99 322.27 Q2665.87 321.047 2665.87 319.454 Z" fill="#000000" fill-rule="evenodd" fill-opacity="1" /><path clip-path="url(#clip860)" d="M2684.37 358.992 Q2684.37 352.544 2691.96 349.135 Q2696.52 346.949 2705.93 346.393 L2705.93 343.614 Q2705.93 338.908 2703.45 336.425 Q2701 333.905 2697.89 333.905 Q2692.33 333.905 2689.66 337.388 Q2691.92 337.463 2692.74 338.611 Q2693.55 339.723 2693.55 340.872 Q2693.55 342.391 2692.59 343.391 Q2691.66 344.355 2690.07 344.355 Q2688.55 344.355 2687.55 343.428 Q2686.55 342.465 2686.55 340.797 Q2686.55 337.092 2689.89 334.646 Q2693.26 332.201 2698.04 332.201 Q2704.26 332.201 2708.41 336.388 Q2709.71 337.685 2710.34 339.352 Q2711.01 341.02 2711.08 342.131 Q2711.16 343.206 2711.16 345.355 L2711.16 360.511 Q2711.16 360.955 2711.3 361.697 Q2711.45 362.438 2712.12 363.401 Q2712.82 364.327 2713.97 364.327 Q2716.71 364.327 2716.68 359.473 L2716.68 355.212 L2718.6 355.212 L2718.6 359.473 Q2718.6 363.512 2716.45 365.106 Q2714.34 366.662 2712.38 366.662 Q2709.86 366.662 2708.27 364.809 Q2706.67 362.956 2706.45 360.437 Q2705.3 363.327 2702.67 365.217 Q2700.08 367.07 2696.52 367.07 Q2693.78 367.07 2691.18 366.365 Q2688.63 365.698 2686.48 363.809 Q2684.37 361.882 2684.37 358.992 M2690.22 358.917 Q2690.22 361.734 2692.22 363.549 Q2694.22 365.365 2697.04 365.365 Q2700.22 365.365 2703.08 362.919 Q2705.93 360.437 2705.93 355.582 L2705.93 347.986 Q2697.52 348.283 2693.85 351.655 Q2690.22 354.99 2690.22 358.917 Z" fill="#000000" fill-rule="evenodd" fill-opacity="1" /><path clip-path="url(#clip860)" d="M2721.57 366.217 L2721.57 363.883 Q2725.61 363.883 2726.53 363.401 Q2727.46 362.882 2727.46 360.437 L2727.46 340.093 Q2727.46 337.277 2726.46 336.573 Q2725.5 335.869 2721.57 335.869 L2721.57 333.498 L2732.24 332.682 L2732.24 340.649 Q2735.8 332.682 2743.47 332.682 Q2749.17 332.682 2751.43 335.499 Q2753.1 337.388 2753.44 339.501 Q2753.81 341.613 2753.81 347.097 L2753.81 361.585 Q2753.88 363.179 2755.1 363.549 Q2756.33 363.883 2759.73 363.883 L2759.73 366.217 Q2751.99 365.995 2751.21 365.995 Q2750.62 365.995 2742.65 366.217 L2742.65 363.883 Q2746.69 363.883 2747.62 363.401 Q2748.58 362.882 2748.58 360.437 L2748.58 342.761 Q2748.58 338.908 2747.4 336.647 Q2746.21 334.35 2742.95 334.35 Q2739.02 334.35 2735.87 337.648 Q2732.72 340.946 2732.72 346.504 L2732.72 360.437 Q2732.72 362.882 2733.65 363.401 Q2734.61 363.883 2738.61 363.883 L2738.61 366.217 Q2730.87 365.995 2730.13 365.995 Q2729.54 365.995 2721.57 366.217 Z" fill="#000000" fill-rule="evenodd" fill-opacity="1" /><polyline clip-path="url(#clip860)" style="stroke:#21ab74; stroke-linecap:butt; stroke-linejoin:round; stroke-width:6; stroke-opacity:1; fill:none" points="
  2309.48,418.057 2493.06,418.057 
  "/>
<path clip-path="url(#clip860)" d="M2523.66 443.977 L2523.66 441.643 Q2527.7 441.643 2528.62 441.161 Q2529.55 440.642 2529.55 438.197 L2529.55 417.853 Q2529.55 415.037 2528.55 414.333 Q2527.59 413.629 2523.66 413.629 L2523.66 411.258 L2534.33 410.442 L2534.33 418.409 Q2537.89 410.442 2545.56 410.442 Q2554.45 410.442 2555.67 417.853 Q2556.97 414.963 2559.67 412.703 Q2562.42 410.442 2566.68 410.442 Q2572.38 410.442 2574.65 413.259 Q2576.31 415.148 2576.65 417.261 Q2576.98 419.373 2576.98 424.857 L2576.98 439.345 Q2577.05 440.939 2578.28 441.309 Q2579.5 441.643 2582.91 441.643 L2582.91 443.977 Q2575.16 443.755 2574.42 443.755 Q2573.83 443.755 2565.83 443.977 L2565.83 441.643 Q2569.86 441.643 2570.79 441.161 Q2571.75 440.642 2571.75 438.197 L2571.75 420.521 Q2571.75 416.668 2570.57 414.407 Q2569.38 412.11 2566.12 412.11 Q2562.19 412.11 2559.04 415.408 Q2555.9 418.706 2555.9 424.264 L2555.9 438.197 Q2555.9 440.642 2556.82 441.161 Q2557.78 441.643 2561.82 441.643 L2561.82 443.977 Q2554.08 443.755 2553.3 443.755 Q2552.71 443.755 2544.74 443.977 L2544.74 441.643 Q2548.78 441.643 2549.71 441.161 Q2550.67 440.642 2550.67 438.197 L2550.67 420.521 Q2550.67 416.668 2549.48 414.407 Q2548.3 412.11 2545.04 412.11 Q2541.11 412.11 2537.96 415.408 Q2534.81 418.706 2534.81 424.264 L2534.81 438.197 Q2534.81 440.642 2535.74 441.161 Q2536.7 441.643 2540.7 441.643 L2540.7 443.977 Q2532.96 443.755 2532.22 443.755 Q2531.62 443.755 2523.66 443.977 Z" fill="#000000" fill-rule="evenodd" fill-opacity="1" /><path clip-path="url(#clip860)" d="M2591.51 439.901 Q2586.5 434.936 2586.5 427.747 Q2586.5 420.521 2591.39 415.26 Q2596.32 409.961 2603.36 409.961 Q2610.25 409.961 2615.18 415.223 Q2620.15 420.447 2620.15 427.747 Q2620.15 434.899 2615.15 439.864 Q2610.18 444.83 2603.29 444.83 Q2596.54 444.83 2591.51 439.901 M2592.8 427.117 Q2592.8 434.491 2594.73 437.826 Q2597.69 442.903 2603.36 442.903 Q2606.18 442.903 2608.51 441.383 Q2610.88 439.864 2612.18 437.307 Q2613.85 433.972 2613.85 427.117 Q2613.85 419.817 2611.85 416.594 Q2608.88 411.665 2603.29 411.665 Q2600.84 411.665 2598.43 412.962 Q2596.06 414.222 2594.62 416.742 Q2592.8 420.077 2592.8 427.117 Z" fill="#000000" fill-rule="evenodd" fill-opacity="1" /><path clip-path="url(#clip860)" d="M2627.04 427.673 Q2627.04 420.447 2632.08 415.445 Q2637.12 410.442 2643.94 410.442 Q2649.72 410.442 2653.5 415.148 L2653.5 398.733 Q2653.5 395.917 2652.5 395.213 Q2651.53 394.509 2647.61 394.509 L2647.61 392.137 L2658.54 391.322 L2658.54 437.381 Q2658.54 440.198 2659.5 440.939 Q2660.5 441.643 2664.43 441.643 L2664.43 443.977 L2653.28 444.83 L2653.28 439.79 Q2649.35 444.792 2643.12 444.83 Q2636.6 444.83 2631.82 439.827 Q2627.04 434.825 2627.04 427.673 M2633.34 427.747 Q2633.34 434.788 2635.53 438.271 Q2638.56 443.125 2643.49 443.125 Q2649.13 443.125 2652.46 437.826 Q2653.31 436.529 2653.28 435.01 L2653.28 419.447 Q2653.28 417.928 2652.46 416.668 Q2649.35 412.11 2644.27 412.11 Q2638.97 412.11 2635.67 416.964 Q2633.34 420.596 2633.34 427.747 Z" fill="#000000" fill-rule="evenodd" fill-opacity="1" /><path clip-path="url(#clip860)" d="M2668.65 427.265 Q2668.65 420.114 2673.25 415.037 Q2677.84 409.961 2684.44 409.961 Q2691.11 409.961 2694.56 414.296 Q2698.04 418.632 2698.04 424.857 Q2698.04 426.006 2697.74 426.228 Q2697.45 426.45 2696.15 426.45 L2674.95 426.45 Q2674.95 434.195 2677.25 437.826 Q2680.44 442.903 2685.81 442.903 Q2686.55 442.903 2687.44 442.754 Q2688.33 442.606 2690.15 441.976 Q2691.96 441.309 2693.55 439.568 Q2695.15 437.826 2696.07 435.084 Q2696.3 434.009 2697.04 434.046 Q2698.04 434.046 2698.04 434.936 Q2698.04 435.603 2697.3 437.122 Q2696.59 438.604 2695.22 440.383 Q2693.85 442.162 2691.18 443.496 Q2688.55 444.83 2685.37 444.83 Q2678.7 444.83 2673.66 439.79 Q2668.65 434.713 2668.65 427.265 M2675.03 424.857 L2693.04 424.857 Q2693.04 423.263 2692.74 421.485 Q2692.48 419.706 2691.66 417.261 Q2690.89 414.778 2689.03 413.222 Q2687.18 411.665 2684.44 411.665 Q2683.22 411.665 2681.88 412.184 Q2680.59 412.703 2678.99 413.963 Q2677.4 415.223 2676.29 418.076 Q2675.18 420.929 2675.03 424.857 Z" fill="#000000" fill-rule="evenodd" fill-opacity="1" /><polyline clip-path="url(#clip860)" style="stroke:#ba3030; stroke-linecap:butt; stroke-linejoin:round; stroke-width:6; stroke-opacity:1; fill:none" points="
  2309.48,495.817 2493.06,495.817 
  "/>
<path clip-path="url(#clip860)" d="M2523.66 521.737 L2523.66 519.403 Q2527.7 519.403 2528.62 518.921 Q2529.55 518.402 2529.55 515.957 L2529.55 495.613 Q2529.55 492.797 2528.55 492.093 Q2527.59 491.389 2523.66 491.389 L2523.66 489.018 L2534.33 488.202 L2534.33 496.169 Q2537.89 488.202 2545.56 488.202 Q2554.45 488.202 2555.67 495.613 Q2556.97 492.723 2559.67 490.463 Q2562.42 488.202 2566.68 488.202 Q2572.38 488.202 2574.65 491.019 Q2576.31 492.908 2576.65 495.021 Q2576.98 497.133 2576.98 502.617 L2576.98 517.105 Q2577.05 518.699 2578.28 519.069 Q2579.5 519.403 2582.91 519.403 L2582.91 521.737 Q2575.16 521.515 2574.42 521.515 Q2573.83 521.515 2565.83 521.737 L2565.83 519.403 Q2569.86 519.403 2570.79 518.921 Q2571.75 518.402 2571.75 515.957 L2571.75 498.281 Q2571.75 494.428 2570.57 492.167 Q2569.38 489.87 2566.12 489.87 Q2562.19 489.87 2559.04 493.168 Q2555.9 496.466 2555.9 502.024 L2555.9 515.957 Q2555.9 518.402 2556.82 518.921 Q2557.78 519.403 2561.82 519.403 L2561.82 521.737 Q2554.08 521.515 2553.3 521.515 Q2552.71 521.515 2544.74 521.737 L2544.74 519.403 Q2548.78 519.403 2549.71 518.921 Q2550.67 518.402 2550.67 515.957 L2550.67 498.281 Q2550.67 494.428 2549.48 492.167 Q2548.3 489.87 2545.04 489.87 Q2541.11 489.87 2537.96 493.168 Q2534.81 496.466 2534.81 502.024 L2534.81 515.957 Q2534.81 518.402 2535.74 518.921 Q2536.7 519.403 2540.7 519.403 L2540.7 521.737 Q2532.96 521.515 2532.22 521.515 Q2531.62 521.515 2523.66 521.737 Z" fill="#000000" fill-rule="evenodd" fill-opacity="1" /><path clip-path="url(#clip860)" d="M2586.5 505.025 Q2586.5 497.874 2591.1 492.797 Q2595.69 487.721 2602.29 487.721 Q2608.96 487.721 2612.4 492.056 Q2615.89 496.392 2615.89 502.617 Q2615.89 503.766 2615.59 503.988 Q2615.29 504.21 2614 504.21 L2592.8 504.21 Q2592.8 511.955 2595.1 515.586 Q2598.29 520.663 2603.66 520.663 Q2604.4 520.663 2605.29 520.514 Q2606.18 520.366 2607.99 519.736 Q2609.81 519.069 2611.4 517.328 Q2613 515.586 2613.92 512.844 Q2614.15 511.769 2614.89 511.806 Q2615.89 511.806 2615.89 512.696 Q2615.89 513.363 2615.15 514.882 Q2614.44 516.364 2613.07 518.143 Q2611.7 519.922 2609.03 521.256 Q2606.4 522.59 2603.21 522.59 Q2596.54 522.59 2591.51 517.55 Q2586.5 512.473 2586.5 505.025 M2592.88 502.617 L2610.88 502.617 Q2610.88 501.023 2610.59 499.245 Q2610.33 497.466 2609.51 495.021 Q2608.74 492.538 2606.88 490.982 Q2605.03 489.425 2602.29 489.425 Q2601.07 489.425 2599.73 489.944 Q2598.43 490.463 2596.84 491.723 Q2595.25 492.983 2594.14 495.836 Q2593.02 498.689 2592.88 502.617 Z" fill="#000000" fill-rule="evenodd" fill-opacity="1" /><path clip-path="url(#clip860)" d="M2621.26 514.512 Q2621.26 508.064 2628.86 504.655 Q2633.41 502.469 2642.83 501.913 L2642.83 499.134 Q2642.83 494.428 2640.34 491.945 Q2637.9 489.425 2634.79 489.425 Q2629.23 489.425 2626.56 492.908 Q2628.82 492.983 2629.63 494.131 Q2630.45 495.243 2630.45 496.392 Q2630.45 497.911 2629.49 498.911 Q2628.56 499.875 2626.97 499.875 Q2625.45 499.875 2624.45 498.948 Q2623.45 497.985 2623.45 496.317 Q2623.45 492.612 2626.78 490.166 Q2630.15 487.721 2634.93 487.721 Q2641.16 487.721 2645.31 491.908 Q2646.61 493.205 2647.24 494.872 Q2647.9 496.54 2647.98 497.651 Q2648.05 498.726 2648.05 500.875 L2648.05 516.031 Q2648.05 516.475 2648.2 517.217 Q2648.35 517.958 2649.01 518.921 Q2649.72 519.847 2650.87 519.847 Q2653.61 519.847 2653.57 514.993 L2653.57 510.732 L2655.5 510.732 L2655.5 514.993 Q2655.5 519.032 2653.35 520.626 Q2651.24 522.182 2649.27 522.182 Q2646.75 522.182 2645.16 520.329 Q2643.57 518.476 2643.35 515.957 Q2642.2 518.847 2639.57 520.737 Q2636.97 522.59 2633.41 522.59 Q2630.67 522.59 2628.08 521.885 Q2625.52 521.218 2623.37 519.329 Q2621.26 517.402 2621.26 514.512 M2627.11 514.437 Q2627.11 517.254 2629.12 519.069 Q2631.12 520.885 2633.93 520.885 Q2637.12 520.885 2639.97 518.439 Q2642.83 515.957 2642.83 511.102 L2642.83 503.506 Q2634.41 503.803 2630.75 507.175 Q2627.11 510.51 2627.11 514.437 Z" fill="#000000" fill-rule="evenodd" fill-opacity="1" /><path clip-path="url(#clip860)" d="M2658.46 521.737 L2658.46 519.403 Q2662.5 519.403 2663.43 518.921 Q2664.36 518.402 2664.36 515.957 L2664.36 495.613 Q2664.36 492.797 2663.35 492.093 Q2662.39 491.389 2658.46 491.389 L2658.46 489.018 L2669.14 488.202 L2669.14 496.169 Q2672.69 488.202 2680.36 488.202 Q2686.07 488.202 2688.33 491.019 Q2690 492.908 2690.33 495.021 Q2690.7 497.133 2690.7 502.617 L2690.7 517.105 Q2690.78 518.699 2692 519.069 Q2693.22 519.403 2696.63 519.403 L2696.63 521.737 Q2688.89 521.515 2688.11 521.515 Q2687.51 521.515 2679.55 521.737 L2679.55 519.403 Q2683.59 519.403 2684.51 518.921 Q2685.48 518.402 2685.48 515.957 L2685.48 498.281 Q2685.48 494.428 2684.29 492.167 Q2683.11 489.87 2679.84 489.87 Q2675.92 489.87 2672.77 493.168 Q2669.62 496.466 2669.62 502.024 L2669.62 515.957 Q2669.62 518.402 2670.54 518.921 Q2671.51 519.403 2675.51 519.403 L2675.51 521.737 Q2667.76 521.515 2667.02 521.515 Q2666.43 521.515 2658.46 521.737 Z" fill="#000000" fill-rule="evenodd" fill-opacity="1" /></svg>
