<?xml version="1.0" encoding="utf-8"?>
<svg xmlns="http://www.w3.org/2000/svg" xmlns:xlink="http://www.w3.org/1999/xlink" width="800" height="600" viewBox="0 0 3200 2400">
<defs>
  <clipPath id="clip650">
    <rect x="0" y="0" width="3200" height="2400"/>
  </clipPath>
</defs>
<path clip-path="url(#clip650)" d="
M0 2400 L3200 2400 L3200 0 L0 0  Z
  " fill="#ffffff" fill-rule="evenodd" fill-opacity="1"/>
<defs>
  <clipPath id="clip651">
    <rect x="640" y="0" width="2241" height="2241"/>
  </clipPath>
</defs>
<path clip-path="url(#clip650)" d="
M297.102 2133.38 L3105.51 2133.38 L3105.51 94.4882 L297.102 94.4882  Z
  " fill="#ffffff" fill-rule="evenodd" fill-opacity="1"/>
<defs>
  <clipPath id="clip652">
    <rect x="297" y="94" width="2809" height="2040"/>
  </clipPath>
</defs>
<polyline clip-path="url(#clip652)" style="stroke:#222255; stroke-linecap:butt; stroke-linejoin:round; stroke-width:2; stroke-opacity:0.05; fill:none" points="
  376.586,2133.38 376.586,94.4882 
  "/>
<polyline clip-path="url(#clip652)" style="stroke:#222255; stroke-linecap:butt; stroke-linejoin:round; stroke-width:2; stroke-opacity:0.05; fill:none" points="
  1133.57,2133.38 1133.57,94.4882 
  "/>
<polyline clip-path="url(#clip652)" style="stroke:#222255; stroke-linecap:butt; stroke-linejoin:round; stroke-width:2; stroke-opacity:0.05; fill:none" points="
  1890.55,2133.38 1890.55,94.4882 
  "/>
<polyline clip-path="url(#clip652)" style="stroke:#222255; stroke-linecap:butt; stroke-linejoin:round; stroke-width:2; stroke-opacity:0.05; fill:none" points="
  2647.54,2133.38 2647.54,94.4882 
  "/>
<polyline clip-path="url(#clip652)" style="stroke:#222255; stroke-linecap:butt; stroke-linejoin:round; stroke-width:2; stroke-opacity:0.05; fill:none" points="
  527.982,2133.38 527.982,94.4882 
  "/>
<polyline clip-path="url(#clip652)" style="stroke:#222255; stroke-linecap:butt; stroke-linejoin:round; stroke-width:2; stroke-opacity:0.05; fill:none" points="
  679.379,2133.38 679.379,94.4882 
  "/>
<polyline clip-path="url(#clip652)" style="stroke:#222255; stroke-linecap:butt; stroke-linejoin:round; stroke-width:2; stroke-opacity:0.05; fill:none" points="
  830.776,2133.38 830.776,94.4882 
  "/>
<polyline clip-path="url(#clip652)" style="stroke:#222255; stroke-linecap:butt; stroke-linejoin:round; stroke-width:2; stroke-opacity:0.05; fill:none" points="
  982.173,2133.38 982.173,94.4882 
  "/>
<polyline clip-path="url(#clip652)" style="stroke:#222255; stroke-linecap:butt; stroke-linejoin:round; stroke-width:2; stroke-opacity:0.05; fill:none" points="
  1284.97,2133.38 1284.97,94.4882 
  "/>
<polyline clip-path="url(#clip652)" style="stroke:#222255; stroke-linecap:butt; stroke-linejoin:round; stroke-width:2; stroke-opacity:0.05; fill:none" points="
  1436.36,2133.38 1436.36,94.4882 
  "/>
<polyline clip-path="url(#clip652)" style="stroke:#222255; stroke-linecap:butt; stroke-linejoin:round; stroke-width:2; stroke-opacity:0.05; fill:none" points="
  1587.76,2133.38 1587.76,94.4882 
  "/>
<polyline clip-path="url(#clip652)" style="stroke:#222255; stroke-linecap:butt; stroke-linejoin:round; stroke-width:2; stroke-opacity:0.05; fill:none" points="
  1739.16,2133.38 1739.16,94.4882 
  "/>
<polyline clip-path="url(#clip652)" style="stroke:#222255; stroke-linecap:butt; stroke-linejoin:round; stroke-width:2; stroke-opacity:0.05; fill:none" points="
  2041.95,2133.38 2041.95,94.4882 
  "/>
<polyline clip-path="url(#clip652)" style="stroke:#222255; stroke-linecap:butt; stroke-linejoin:round; stroke-width:2; stroke-opacity:0.05; fill:none" points="
  2193.35,2133.38 2193.35,94.4882 
  "/>
<polyline clip-path="url(#clip652)" style="stroke:#222255; stroke-linecap:butt; stroke-linejoin:round; stroke-width:2; stroke-opacity:0.05; fill:none" points="
  2344.74,2133.38 2344.74,94.4882 
  "/>
<polyline clip-path="url(#clip652)" style="stroke:#222255; stroke-linecap:butt; stroke-linejoin:round; stroke-width:2; stroke-opacity:0.05; fill:none" points="
  2496.14,2133.38 2496.14,94.4882 
  "/>
<polyline clip-path="url(#clip652)" style="stroke:#222255; stroke-linecap:butt; stroke-linejoin:round; stroke-width:2; stroke-opacity:0.05; fill:none" points="
  2798.93,2133.38 2798.93,94.4882 
  "/>
<polyline clip-path="url(#clip652)" style="stroke:#222255; stroke-linecap:butt; stroke-linejoin:round; stroke-width:2; stroke-opacity:0.05; fill:none" points="
  2950.33,2133.38 2950.33,94.4882 
  "/>
<polyline clip-path="url(#clip652)" style="stroke:#222255; stroke-linecap:butt; stroke-linejoin:round; stroke-width:2; stroke-opacity:0.05; fill:none" points="
  3101.73,2133.38 3101.73,94.4882 
  "/>
<polyline clip-path="url(#clip650)" style="stroke:#000000; stroke-linecap:butt; stroke-linejoin:round; stroke-width:4; stroke-opacity:1; fill:none" points="
  297.102,2133.38 3105.51,2133.38 
  "/>
<polyline clip-path="url(#clip650)" style="stroke:#000000; stroke-linecap:butt; stroke-linejoin:round; stroke-width:4; stroke-opacity:1; fill:none" points="
  297.102,94.4882 3105.51,94.4882 
  "/>
<polyline clip-path="url(#clip650)" style="stroke:#000000; stroke-linecap:butt; stroke-linejoin:round; stroke-width:4; stroke-opacity:1; fill:none" points="
  376.586,2133.38 376.586,2114.48 
  "/>
<polyline clip-path="url(#clip650)" style="stroke:#000000; stroke-linecap:butt; stroke-linejoin:round; stroke-width:4; stroke-opacity:1; fill:none" points="
  1133.57,2133.38 1133.57,2114.48 
  "/>
<polyline clip-path="url(#clip650)" style="stroke:#000000; stroke-linecap:butt; stroke-linejoin:round; stroke-width:4; stroke-opacity:1; fill:none" points="
  1890.55,2133.38 1890.55,2114.48 
  "/>
<polyline clip-path="url(#clip650)" style="stroke:#000000; stroke-linecap:butt; stroke-linejoin:round; stroke-width:4; stroke-opacity:1; fill:none" points="
  2647.54,2133.38 2647.54,2114.48 
  "/>
<polyline clip-path="url(#clip650)" style="stroke:#000000; stroke-linecap:butt; stroke-linejoin:round; stroke-width:4; stroke-opacity:1; fill:none" points="
  527.982,2133.38 527.982,2123.93 
  "/>
<polyline clip-path="url(#clip650)" style="stroke:#000000; stroke-linecap:butt; stroke-linejoin:round; stroke-width:4; stroke-opacity:1; fill:none" points="
  679.379,2133.38 679.379,2123.93 
  "/>
<polyline clip-path="url(#clip650)" style="stroke:#000000; stroke-linecap:butt; stroke-linejoin:round; stroke-width:4; stroke-opacity:1; fill:none" points="
  830.776,2133.38 830.776,2123.93 
  "/>
<polyline clip-path="url(#clip650)" style="stroke:#000000; stroke-linecap:butt; stroke-linejoin:round; stroke-width:4; stroke-opacity:1; fill:none" points="
  982.173,2133.38 982.173,2123.93 
  "/>
<polyline clip-path="url(#clip650)" style="stroke:#000000; stroke-linecap:butt; stroke-linejoin:round; stroke-width:4; stroke-opacity:1; fill:none" points="
  1284.97,2133.38 1284.97,2123.93 
  "/>
<polyline clip-path="url(#clip650)" style="stroke:#000000; stroke-linecap:butt; stroke-linejoin:round; stroke-width:4; stroke-opacity:1; fill:none" points="
  1436.36,2133.38 1436.36,2123.93 
  "/>
<polyline clip-path="url(#clip650)" style="stroke:#000000; stroke-linecap:butt; stroke-linejoin:round; stroke-width:4; stroke-opacity:1; fill:none" points="
  1587.76,2133.38 1587.76,2123.93 
  "/>
<polyline clip-path="url(#clip650)" style="stroke:#000000; stroke-linecap:butt; stroke-linejoin:round; stroke-width:4; stroke-opacity:1; fill:none" points="
  1739.16,2133.38 1739.16,2123.93 
  "/>
<polyline clip-path="url(#clip650)" style="stroke:#000000; stroke-linecap:butt; stroke-linejoin:round; stroke-width:4; stroke-opacity:1; fill:none" points="
  2041.95,2133.38 2041.95,2123.93 
  "/>
<polyline clip-path="url(#clip650)" style="stroke:#000000; stroke-linecap:butt; stroke-linejoin:round; stroke-width:4; stroke-opacity:1; fill:none" points="
  2193.35,2133.38 2193.35,2123.93 
  "/>
<polyline clip-path="url(#clip650)" style="stroke:#000000; stroke-linecap:butt; stroke-linejoin:round; stroke-width:4; stroke-opacity:1; fill:none" points="
  2344.74,2133.38 2344.74,2123.93 
  "/>
<polyline clip-path="url(#clip650)" style="stroke:#000000; stroke-linecap:butt; stroke-linejoin:round; stroke-width:4; stroke-opacity:1; fill:none" points="
  2496.14,2133.38 2496.14,2123.93 
  "/>
<polyline clip-path="url(#clip650)" style="stroke:#000000; stroke-linecap:butt; stroke-linejoin:round; stroke-width:4; stroke-opacity:1; fill:none" points="
  2798.93,2133.38 2798.93,2123.93 
  "/>
<polyline clip-path="url(#clip650)" style="stroke:#000000; stroke-linecap:butt; stroke-linejoin:round; stroke-width:4; stroke-opacity:1; fill:none" points="
  2950.33,2133.38 2950.33,2123.93 
  "/>
<polyline clip-path="url(#clip650)" style="stroke:#000000; stroke-linecap:butt; stroke-linejoin:round; stroke-width:4; stroke-opacity:1; fill:none" points="
  3101.73,2133.38 3101.73,2123.93 
  "/>
<path clip-path="url(#clip650)" d="M376.586 2176.55 Q371.169 2176.55 368.426 2181.9 Q365.718 2187.21 365.718 2197.91 Q365.718 2208.57 368.426 2213.91 Q371.169 2219.23 376.586 2219.23 Q382.037 2219.23 384.745 2213.91 Q387.488 2208.57 387.488 2197.91 Q387.488 2187.21 384.745 2181.9 Q382.037 2176.55 376.586 2176.55 M376.586 2171 Q385.301 2171 389.884 2177.91 Q394.502 2184.78 394.502 2197.91 Q394.502 2211 389.884 2217.91 Q385.301 2224.78 376.586 2224.78 Q367.87 2224.78 363.252 2217.91 Q358.669 2211 358.669 2197.91 Q358.669 2184.78 363.252 2177.91 Q367.87 2171 376.586 2171 Z" fill="#000000" fill-rule="evenodd" fill-opacity="1" /><path clip-path="url(#clip650)" d="M1095.62 2171.94 L1123.15 2171.94 L1123.15 2177.84 L1102.04 2177.84 L1102.04 2190.55 Q1103.57 2190.03 1105.1 2189.78 Q1106.63 2189.51 1108.15 2189.51 Q1116.83 2189.51 1121.9 2194.26 Q1126.97 2199.02 1126.97 2207.14 Q1126.97 2215.51 1121.76 2220.16 Q1116.56 2224.78 1107.08 2224.78 Q1103.81 2224.78 1100.41 2224.23 Q1097.04 2223.67 1093.43 2222.56 L1093.43 2215.51 Q1096.56 2217.21 1099.89 2218.05 Q1103.22 2218.88 1106.94 2218.88 Q1112.94 2218.88 1116.45 2215.72 Q1119.96 2212.56 1119.96 2207.14 Q1119.96 2201.73 1116.45 2198.57 Q1112.94 2195.41 1106.94 2195.41 Q1104.13 2195.41 1101.31 2196.03 Q1098.53 2196.66 1095.62 2197.98 L1095.62 2171.94 Z" fill="#000000" fill-rule="evenodd" fill-opacity="1" /><path clip-path="url(#clip650)" d="M1155.79 2176.55 Q1150.37 2176.55 1147.63 2181.9 Q1144.92 2187.21 1144.92 2197.91 Q1144.92 2208.57 1147.63 2213.91 Q1150.37 2219.23 1155.79 2219.23 Q1161.24 2219.23 1163.95 2213.91 Q1166.69 2208.57 1166.69 2197.91 Q1166.69 2187.21 1163.95 2181.9 Q1161.24 2176.55 1155.79 2176.55 M1155.79 2171 Q1164.51 2171 1169.09 2177.91 Q1173.71 2184.78 1173.71 2197.91 Q1173.71 2211 1169.09 2217.91 Q1164.51 2224.78 1155.79 2224.78 Q1147.08 2224.78 1142.46 2217.91 Q1137.87 2211 1137.87 2197.91 Q1137.87 2184.78 1142.46 2177.91 Q1147.08 2171 1155.79 2171 Z" fill="#000000" fill-rule="evenodd" fill-opacity="1" /><path clip-path="url(#clip650)" d="M1829.96 2217.87 L1841.42 2217.87 L1841.42 2178.32 L1828.96 2180.82 L1828.96 2174.44 L1841.35 2171.94 L1848.37 2171.94 L1848.37 2217.87 L1859.82 2217.87 L1859.82 2223.78 L1829.96 2223.78 L1829.96 2217.87 Z" fill="#000000" fill-rule="evenodd" fill-opacity="1" /><path clip-path="url(#clip650)" d="M1888.99 2176.55 Q1883.57 2176.55 1880.83 2181.9 Q1878.12 2187.21 1878.12 2197.91 Q1878.12 2208.57 1880.83 2213.91 Q1883.57 2219.23 1888.99 2219.23 Q1894.44 2219.23 1897.15 2213.91 Q1899.89 2208.57 1899.89 2197.91 Q1899.89 2187.21 1897.15 2181.9 Q1894.44 2176.55 1888.99 2176.55 M1888.99 2171 Q1897.71 2171 1902.29 2177.91 Q1906.91 2184.78 1906.91 2197.91 Q1906.91 2211 1902.29 2217.91 Q1897.71 2224.78 1888.99 2224.78 Q1880.28 2224.78 1875.66 2217.91 Q1871.07 2211 1871.07 2197.91 Q1871.07 2184.78 1875.66 2177.91 Q1880.28 2171 1888.99 2171 Z" fill="#000000" fill-rule="evenodd" fill-opacity="1" /><path clip-path="url(#clip650)" d="M1934.23 2176.55 Q1928.82 2176.55 1926.07 2181.9 Q1923.37 2187.21 1923.37 2197.91 Q1923.37 2208.57 1926.07 2213.91 Q1928.82 2219.23 1934.23 2219.23 Q1939.68 2219.23 1942.39 2213.91 Q1945.14 2208.57 1945.14 2197.91 Q1945.14 2187.21 1942.39 2181.9 Q1939.68 2176.55 1934.23 2176.55 M1934.23 2171 Q1942.95 2171 1947.53 2177.91 Q1952.15 2184.78 1952.15 2197.91 Q1952.15 2211 1947.53 2217.91 Q1942.95 2224.78 1934.23 2224.78 Q1925.52 2224.78 1920.9 2217.91 Q1916.32 2211 1916.32 2197.91 Q1916.32 2184.78 1920.9 2177.91 Q1925.52 2171 1934.23 2171 Z" fill="#000000" fill-rule="evenodd" fill-opacity="1" /><path clip-path="url(#clip650)" d="M2586.95 2217.87 L2598.41 2217.87 L2598.41 2178.32 L2585.94 2180.82 L2585.94 2174.44 L2598.34 2171.94 L2605.35 2171.94 L2605.35 2217.87 L2616.81 2217.87 L2616.81 2223.78 L2586.95 2223.78 L2586.95 2217.87 Z" fill="#000000" fill-rule="evenodd" fill-opacity="1" /><path clip-path="url(#clip650)" d="M2631.04 2171.94 L2658.58 2171.94 L2658.58 2177.84 L2637.47 2177.84 L2637.47 2190.55 Q2639 2190.03 2640.52 2189.78 Q2642.05 2189.51 2643.58 2189.51 Q2652.26 2189.51 2657.33 2194.26 Q2662.4 2199.02 2662.4 2207.14 Q2662.4 2215.51 2657.19 2220.16 Q2651.98 2224.78 2642.5 2224.78 Q2639.24 2224.78 2635.84 2224.23 Q2632.47 2223.67 2628.86 2222.56 L2628.86 2215.51 Q2631.98 2217.21 2635.31 2218.05 Q2638.65 2218.88 2642.36 2218.88 Q2648.37 2218.88 2651.88 2215.72 Q2655.38 2212.56 2655.38 2207.14 Q2655.38 2201.73 2651.88 2198.57 Q2648.37 2195.41 2642.36 2195.41 Q2639.55 2195.41 2636.74 2196.03 Q2633.96 2196.66 2631.04 2197.98 L2631.04 2171.94 Z" fill="#000000" fill-rule="evenodd" fill-opacity="1" /><path clip-path="url(#clip650)" d="M2691.22 2176.55 Q2685.8 2176.55 2683.06 2181.9 Q2680.35 2187.21 2680.35 2197.91 Q2680.35 2208.57 2683.06 2213.91 Q2685.8 2219.23 2691.22 2219.23 Q2696.67 2219.23 2699.38 2213.91 Q2702.12 2208.57 2702.12 2197.91 Q2702.12 2187.21 2699.38 2181.9 Q2696.67 2176.55 2691.22 2176.55 M2691.22 2171 Q2699.93 2171 2704.52 2177.91 Q2709.13 2184.78 2709.13 2197.91 Q2709.13 2211 2704.52 2217.91 Q2699.93 2224.78 2691.22 2224.78 Q2682.5 2224.78 2677.88 2217.91 Q2673.3 2211 2673.3 2197.91 Q2673.3 2184.78 2677.88 2177.91 Q2682.5 2171 2691.22 2171 Z" fill="#000000" fill-rule="evenodd" fill-opacity="1" /><path clip-path="url(#clip650)" d="M1596.5 2288.36 L1596.5 2267.32 L1602.89 2267.32 L1602.89 2321.34 L1596.5 2321.34 L1596.5 2315.51 Q1594.48 2318.98 1591.39 2320.68 Q1588.34 2322.35 1584.03 2322.35 Q1576.98 2322.35 1572.54 2316.73 Q1568.13 2311.1 1568.13 2301.93 Q1568.13 2292.77 1572.54 2287.14 Q1576.98 2281.52 1584.03 2281.52 Q1588.34 2281.52 1591.39 2283.22 Q1594.48 2284.89 1596.5 2288.36 M1574.73 2301.93 Q1574.73 2308.98 1577.61 2313.01 Q1580.53 2317 1585.6 2317 Q1590.67 2317 1593.58 2313.01 Q1596.5 2308.98 1596.5 2301.93 Q1596.5 2294.89 1593.58 2290.89 Q1590.67 2286.86 1585.6 2286.86 Q1580.53 2286.86 1577.61 2290.89 Q1574.73 2294.89 1574.73 2301.93 Z" fill="#000000" fill-rule="evenodd" fill-opacity="1" /><path clip-path="url(#clip650)" d="M1635.87 2267.32 L1635.87 2281.66 Q1642.78 2281.66 1647.4 2286.97 Q1652.16 2292.39 1652.16 2301.93 Q1652.16 2311.48 1647.4 2316.9 Q1642.78 2322.21 1635.87 2322.21 L1635.87 2336.14 L1629.52 2336.14 L1629.52 2322.21 Q1622.61 2322.21 1617.96 2316.9 Q1613.23 2311.48 1613.23 2301.93 Q1613.23 2292.39 1617.96 2286.97 Q1622.61 2281.66 1629.52 2281.66 L1629.52 2267.32 L1635.87 2267.32 M1635.87 2316.52 Q1639.8 2316.52 1642.47 2312.94 Q1645.39 2308.95 1645.42 2301.93 Q1645.46 2294.99 1642.47 2290.93 Q1639.8 2287.35 1635.87 2287.35 L1635.87 2316.52 M1629.52 2316.52 L1629.52 2287.35 Q1625.6 2287.35 1622.96 2290.93 Q1619.94 2294.99 1619.97 2301.93 Q1620.01 2308.95 1622.96 2312.94 Q1625.6 2316.52 1629.52 2316.52 Z" fill="#000000" fill-rule="evenodd" fill-opacity="1" /><path clip-path="url(#clip650)" d="M1710.35 2283.6 L1710.35 2289.64 Q1707.64 2288.25 1704.73 2287.56 Q1701.81 2286.86 1698.69 2286.86 Q1693.93 2286.86 1691.53 2288.32 Q1689.17 2289.78 1689.17 2292.7 Q1689.17 2294.92 1690.87 2296.2 Q1692.57 2297.45 1697.71 2298.6 L1699.9 2299.09 Q1706.71 2300.55 1709.55 2303.22 Q1712.44 2305.86 1712.44 2310.61 Q1712.44 2316.03 1708.13 2319.19 Q1703.86 2322.35 1696.36 2322.35 Q1693.23 2322.35 1689.83 2321.73 Q1686.46 2321.14 1682.71 2319.92 L1682.71 2313.32 Q1686.26 2315.16 1689.69 2316.1 Q1693.13 2317 1696.5 2317 Q1701.01 2317 1703.44 2315.48 Q1705.87 2313.91 1705.87 2311.1 Q1705.87 2308.5 1704.1 2307.11 Q1702.37 2305.72 1696.43 2304.43 L1694.21 2303.91 Q1688.27 2302.66 1685.63 2300.09 Q1682.99 2297.49 1682.99 2292.98 Q1682.99 2287.49 1686.88 2284.5 Q1690.77 2281.52 1697.92 2281.52 Q1701.46 2281.52 1704.59 2282.04 Q1707.71 2282.56 1710.35 2283.6 Z" fill="#000000" fill-rule="evenodd" fill-opacity="1" /><path clip-path="url(#clip650)" d="M1722.61 2267.32 L1729 2267.32 L1729 2321.34 L1722.61 2321.34 L1722.61 2267.32 Z" fill="#000000" fill-rule="evenodd" fill-opacity="1" /><path clip-path="url(#clip650)" d="M1742.37 2282.46 L1748.75 2282.46 L1748.75 2321.34 L1742.37 2321.34 L1742.37 2282.46 M1742.37 2267.32 L1748.75 2267.32 L1748.75 2275.41 L1742.37 2275.41 L1742.37 2267.32 Z" fill="#000000" fill-rule="evenodd" fill-opacity="1" /><path clip-path="url(#clip650)" d="M1790.11 2283.95 L1790.11 2289.92 Q1787.4 2288.43 1784.66 2287.7 Q1781.95 2286.93 1779.17 2286.93 Q1772.96 2286.93 1769.52 2290.89 Q1766.08 2294.82 1766.08 2301.93 Q1766.08 2309.05 1769.52 2313.01 Q1772.96 2316.93 1779.17 2316.93 Q1781.95 2316.93 1784.66 2316.2 Q1787.4 2315.44 1790.11 2313.95 L1790.11 2319.85 Q1787.44 2321.1 1784.55 2321.73 Q1781.71 2322.35 1778.48 2322.35 Q1769.69 2322.35 1764.52 2316.83 Q1759.35 2311.31 1759.35 2301.93 Q1759.35 2292.42 1764.55 2286.97 Q1769.8 2281.52 1778.89 2281.52 Q1781.84 2281.52 1784.66 2282.14 Q1787.47 2282.73 1790.11 2283.95 Z" fill="#000000" fill-rule="evenodd" fill-opacity="1" /><path clip-path="url(#clip650)" d="M1834.48 2300.3 L1834.48 2303.43 L1805.11 2303.43 Q1805.53 2310.02 1809.07 2313.5 Q1812.64 2316.93 1819 2316.93 Q1822.68 2316.93 1826.12 2316.03 Q1829.59 2315.13 1832.99 2313.32 L1832.99 2319.36 Q1829.55 2320.82 1825.94 2321.59 Q1822.33 2322.35 1818.62 2322.35 Q1809.31 2322.35 1803.86 2316.93 Q1798.44 2311.52 1798.44 2302.28 Q1798.44 2292.73 1803.58 2287.14 Q1808.75 2281.52 1817.5 2281.52 Q1825.35 2281.52 1829.9 2286.59 Q1834.48 2291.62 1834.48 2300.3 M1828.09 2298.43 Q1828.03 2293.18 1825.14 2290.06 Q1822.3 2286.93 1817.57 2286.93 Q1812.23 2286.93 1809 2289.96 Q1805.8 2292.98 1805.32 2298.46 L1828.09 2298.43 Z" fill="#000000" fill-rule="evenodd" fill-opacity="1" /><polyline clip-path="url(#clip652)" style="stroke:#222255; stroke-linecap:butt; stroke-linejoin:round; stroke-width:2; stroke-opacity:0.05; fill:none" points="
  297.102,2095.61 3105.51,2095.61 
  "/>
<polyline clip-path="url(#clip652)" style="stroke:#222255; stroke-linecap:butt; stroke-linejoin:round; stroke-width:2; stroke-opacity:0.05; fill:none" points="
  297.102,1590.59 3105.51,1590.59 
  "/>
<polyline clip-path="url(#clip652)" style="stroke:#222255; stroke-linecap:butt; stroke-linejoin:round; stroke-width:2; stroke-opacity:0.05; fill:none" points="
  297.102,1085.57 3105.51,1085.57 
  "/>
<polyline clip-path="url(#clip652)" style="stroke:#222255; stroke-linecap:butt; stroke-linejoin:round; stroke-width:2; stroke-opacity:0.05; fill:none" points="
  297.102,580.547 3105.51,580.547 
  "/>
<polyline clip-path="url(#clip652)" style="stroke:#222255; stroke-linecap:butt; stroke-linejoin:round; stroke-width:2; stroke-opacity:0.05; fill:none" points="
  297.102,1994.61 3105.51,1994.61 
  "/>
<polyline clip-path="url(#clip652)" style="stroke:#222255; stroke-linecap:butt; stroke-linejoin:round; stroke-width:2; stroke-opacity:0.05; fill:none" points="
  297.102,1893.61 3105.51,1893.61 
  "/>
<polyline clip-path="url(#clip652)" style="stroke:#222255; stroke-linecap:butt; stroke-linejoin:round; stroke-width:2; stroke-opacity:0.05; fill:none" points="
  297.102,1792.6 3105.51,1792.6 
  "/>
<polyline clip-path="url(#clip652)" style="stroke:#222255; stroke-linecap:butt; stroke-linejoin:round; stroke-width:2; stroke-opacity:0.05; fill:none" points="
  297.102,1691.6 3105.51,1691.6 
  "/>
<polyline clip-path="url(#clip652)" style="stroke:#222255; stroke-linecap:butt; stroke-linejoin:round; stroke-width:2; stroke-opacity:0.05; fill:none" points="
  297.102,1489.59 3105.51,1489.59 
  "/>
<polyline clip-path="url(#clip652)" style="stroke:#222255; stroke-linecap:butt; stroke-linejoin:round; stroke-width:2; stroke-opacity:0.05; fill:none" points="
  297.102,1388.58 3105.51,1388.58 
  "/>
<polyline clip-path="url(#clip652)" style="stroke:#222255; stroke-linecap:butt; stroke-linejoin:round; stroke-width:2; stroke-opacity:0.05; fill:none" points="
  297.102,1287.58 3105.51,1287.58 
  "/>
<polyline clip-path="url(#clip652)" style="stroke:#222255; stroke-linecap:butt; stroke-linejoin:round; stroke-width:2; stroke-opacity:0.05; fill:none" points="
  297.102,1186.57 3105.51,1186.57 
  "/>
<polyline clip-path="url(#clip652)" style="stroke:#222255; stroke-linecap:butt; stroke-linejoin:round; stroke-width:2; stroke-opacity:0.05; fill:none" points="
  297.102,984.565 3105.51,984.565 
  "/>
<polyline clip-path="url(#clip652)" style="stroke:#222255; stroke-linecap:butt; stroke-linejoin:round; stroke-width:2; stroke-opacity:0.05; fill:none" points="
  297.102,883.56 3105.51,883.56 
  "/>
<polyline clip-path="url(#clip652)" style="stroke:#222255; stroke-linecap:butt; stroke-linejoin:round; stroke-width:2; stroke-opacity:0.05; fill:none" points="
  297.102,782.556 3105.51,782.556 
  "/>
<polyline clip-path="url(#clip652)" style="stroke:#222255; stroke-linecap:butt; stroke-linejoin:round; stroke-width:2; stroke-opacity:0.05; fill:none" points="
  297.102,681.551 3105.51,681.551 
  "/>
<polyline clip-path="url(#clip652)" style="stroke:#222255; stroke-linecap:butt; stroke-linejoin:round; stroke-width:2; stroke-opacity:0.05; fill:none" points="
  297.102,479.542 3105.51,479.542 
  "/>
<polyline clip-path="url(#clip652)" style="stroke:#222255; stroke-linecap:butt; stroke-linejoin:round; stroke-width:2; stroke-opacity:0.05; fill:none" points="
  297.102,378.538 3105.51,378.538 
  "/>
<polyline clip-path="url(#clip652)" style="stroke:#222255; stroke-linecap:butt; stroke-linejoin:round; stroke-width:2; stroke-opacity:0.05; fill:none" points="
  297.102,277.533 3105.51,277.533 
  "/>
<polyline clip-path="url(#clip652)" style="stroke:#222255; stroke-linecap:butt; stroke-linejoin:round; stroke-width:2; stroke-opacity:0.05; fill:none" points="
  297.102,176.529 3105.51,176.529 
  "/>
<polyline clip-path="url(#clip650)" style="stroke:#000000; stroke-linecap:butt; stroke-linejoin:round; stroke-width:4; stroke-opacity:1; fill:none" points="
  297.102,2133.38 297.102,94.4882 
  "/>
<polyline clip-path="url(#clip650)" style="stroke:#000000; stroke-linecap:butt; stroke-linejoin:round; stroke-width:4; stroke-opacity:1; fill:none" points="
  3105.51,2133.38 3105.51,94.4882 
  "/>
<polyline clip-path="url(#clip650)" style="stroke:#000000; stroke-linecap:butt; stroke-linejoin:round; stroke-width:4; stroke-opacity:1; fill:none" points="
  297.102,2095.61 316,2095.61 
  "/>
<polyline clip-path="url(#clip650)" style="stroke:#000000; stroke-linecap:butt; stroke-linejoin:round; stroke-width:4; stroke-opacity:1; fill:none" points="
  297.102,1590.59 316,1590.59 
  "/>
<polyline clip-path="url(#clip650)" style="stroke:#000000; stroke-linecap:butt; stroke-linejoin:round; stroke-width:4; stroke-opacity:1; fill:none" points="
  297.102,1085.57 316,1085.57 
  "/>
<polyline clip-path="url(#clip650)" style="stroke:#000000; stroke-linecap:butt; stroke-linejoin:round; stroke-width:4; stroke-opacity:1; fill:none" points="
  297.102,580.547 316,580.547 
  "/>
<polyline clip-path="url(#clip650)" style="stroke:#000000; stroke-linecap:butt; stroke-linejoin:round; stroke-width:4; stroke-opacity:1; fill:none" points="
  297.102,1994.61 306.551,1994.61 
  "/>
<polyline clip-path="url(#clip650)" style="stroke:#000000; stroke-linecap:butt; stroke-linejoin:round; stroke-width:4; stroke-opacity:1; fill:none" points="
  297.102,1893.61 306.551,1893.61 
  "/>
<polyline clip-path="url(#clip650)" style="stroke:#000000; stroke-linecap:butt; stroke-linejoin:round; stroke-width:4; stroke-opacity:1; fill:none" points="
  297.102,1792.6 306.551,1792.6 
  "/>
<polyline clip-path="url(#clip650)" style="stroke:#000000; stroke-linecap:butt; stroke-linejoin:round; stroke-width:4; stroke-opacity:1; fill:none" points="
  297.102,1691.6 306.551,1691.6 
  "/>
<polyline clip-path="url(#clip650)" style="stroke:#000000; stroke-linecap:butt; stroke-linejoin:round; stroke-width:4; stroke-opacity:1; fill:none" points="
  297.102,1489.59 306.551,1489.59 
  "/>
<polyline clip-path="url(#clip650)" style="stroke:#000000; stroke-linecap:butt; stroke-linejoin:round; stroke-width:4; stroke-opacity:1; fill:none" points="
  297.102,1388.58 306.551,1388.58 
  "/>
<polyline clip-path="url(#clip650)" style="stroke:#000000; stroke-linecap:butt; stroke-linejoin:round; stroke-width:4; stroke-opacity:1; fill:none" points="
  297.102,1287.58 306.551,1287.58 
  "/>
<polyline clip-path="url(#clip650)" style="stroke:#000000; stroke-linecap:butt; stroke-linejoin:round; stroke-width:4; stroke-opacity:1; fill:none" points="
  297.102,1186.57 306.551,1186.57 
  "/>
<polyline clip-path="url(#clip650)" style="stroke:#000000; stroke-linecap:butt; stroke-linejoin:round; stroke-width:4; stroke-opacity:1; fill:none" points="
  297.102,984.565 306.551,984.565 
  "/>
<polyline clip-path="url(#clip650)" style="stroke:#000000; stroke-linecap:butt; stroke-linejoin:round; stroke-width:4; stroke-opacity:1; fill:none" points="
  297.102,883.56 306.551,883.56 
  "/>
<polyline clip-path="url(#clip650)" style="stroke:#000000; stroke-linecap:butt; stroke-linejoin:round; stroke-width:4; stroke-opacity:1; fill:none" points="
  297.102,782.556 306.551,782.556 
  "/>
<polyline clip-path="url(#clip650)" style="stroke:#000000; stroke-linecap:butt; stroke-linejoin:round; stroke-width:4; stroke-opacity:1; fill:none" points="
  297.102,681.551 306.551,681.551 
  "/>
<polyline clip-path="url(#clip650)" style="stroke:#000000; stroke-linecap:butt; stroke-linejoin:round; stroke-width:4; stroke-opacity:1; fill:none" points="
  297.102,479.542 306.551,479.542 
  "/>
<polyline clip-path="url(#clip650)" style="stroke:#000000; stroke-linecap:butt; stroke-linejoin:round; stroke-width:4; stroke-opacity:1; fill:none" points="
  297.102,378.538 306.551,378.538 
  "/>
<polyline clip-path="url(#clip650)" style="stroke:#000000; stroke-linecap:butt; stroke-linejoin:round; stroke-width:4; stroke-opacity:1; fill:none" points="
  297.102,277.533 306.551,277.533 
  "/>
<polyline clip-path="url(#clip650)" style="stroke:#000000; stroke-linecap:butt; stroke-linejoin:round; stroke-width:4; stroke-opacity:1; fill:none" points="
  297.102,176.529 306.551,176.529 
  "/>
<path clip-path="url(#clip650)" d="M191.707 2075.81 L173.999 2103.48 L191.707 2103.48 L191.707 2075.81 M189.867 2069.69 L198.686 2069.69 L198.686 2103.48 L206.082 2103.48 L206.082 2109.31 L198.686 2109.31 L198.686 2121.53 L191.707 2121.53 L191.707 2109.31 L168.304 2109.31 L168.304 2102.54 L189.867 2069.69 Z" fill="#000000" fill-rule="evenodd" fill-opacity="1" /><path clip-path="url(#clip650)" d="M217.748 2069.69 L245.283 2069.69 L245.283 2075.6 L224.172 2075.6 L224.172 2088.31 Q225.7 2087.78 227.228 2087.54 Q228.755 2087.26 230.283 2087.26 Q238.964 2087.26 244.033 2092.02 Q249.102 2096.78 249.102 2104.9 Q249.102 2113.27 243.894 2117.92 Q238.686 2122.54 229.207 2122.54 Q225.943 2122.54 222.54 2121.99 Q219.172 2121.43 215.561 2120.32 L215.561 2113.27 Q218.686 2114.97 222.019 2115.81 Q225.353 2116.64 229.068 2116.64 Q235.075 2116.64 238.582 2113.48 Q242.089 2110.32 242.089 2104.9 Q242.089 2099.49 238.582 2096.33 Q235.075 2093.17 229.068 2093.17 Q226.255 2093.17 223.443 2093.79 Q220.665 2094.42 217.748 2095.74 L217.748 2069.69 Z" fill="#000000" fill-rule="evenodd" fill-opacity="1" /><path clip-path="url(#clip650)" d="M171.013 1564.67 L198.547 1564.67 L198.547 1570.57 L177.436 1570.57 L177.436 1583.28 Q178.964 1582.76 180.492 1582.52 Q182.019 1582.24 183.547 1582.24 Q192.228 1582.24 197.297 1587 Q202.367 1591.76 202.367 1599.88 Q202.367 1608.25 197.158 1612.9 Q191.95 1617.52 182.471 1617.52 Q179.207 1617.52 175.804 1616.96 Q172.436 1616.41 168.825 1615.3 L168.825 1608.25 Q171.95 1609.95 175.283 1610.78 Q178.617 1611.62 182.332 1611.62 Q188.339 1611.62 191.846 1608.46 Q195.353 1605.3 195.353 1599.88 Q195.353 1594.46 191.846 1591.3 Q188.339 1588.14 182.332 1588.14 Q179.519 1588.14 176.707 1588.77 Q173.929 1589.39 171.013 1590.71 L171.013 1564.67 Z" fill="#000000" fill-rule="evenodd" fill-opacity="1" /><path clip-path="url(#clip650)" d="M231.186 1569.29 Q225.769 1569.29 223.026 1574.64 Q220.318 1579.95 220.318 1590.64 Q220.318 1601.3 223.026 1606.65 Q225.769 1611.96 231.186 1611.96 Q236.637 1611.96 239.346 1606.65 Q242.089 1601.3 242.089 1590.64 Q242.089 1579.95 239.346 1574.64 Q236.637 1569.29 231.186 1569.29 M231.186 1563.73 Q239.901 1563.73 244.484 1570.64 Q249.102 1577.52 249.102 1590.64 Q249.102 1603.73 244.484 1610.64 Q239.901 1617.52 231.186 1617.52 Q222.471 1617.52 217.853 1610.64 Q213.269 1603.73 213.269 1590.64 Q213.269 1577.52 217.853 1570.64 Q222.471 1563.73 231.186 1563.73 Z" fill="#000000" fill-rule="evenodd" fill-opacity="1" /><path clip-path="url(#clip650)" d="M172.506 1059.65 L200.04 1059.65 L200.04 1065.55 L178.929 1065.55 L178.929 1078.26 Q180.457 1077.74 181.985 1077.5 Q183.513 1077.22 185.04 1077.22 Q193.721 1077.22 198.79 1081.98 Q203.86 1086.73 203.86 1094.86 Q203.86 1103.23 198.651 1107.88 Q193.443 1112.5 183.964 1112.5 Q180.7 1112.5 177.297 1111.94 Q173.929 1111.39 170.318 1110.27 L170.318 1103.23 Q173.443 1104.93 176.776 1105.76 Q180.11 1106.59 183.825 1106.59 Q189.832 1106.59 193.339 1103.43 Q196.846 1100.27 196.846 1094.86 Q196.846 1089.44 193.339 1086.28 Q189.832 1083.12 183.825 1083.12 Q181.013 1083.12 178.2 1083.75 Q175.422 1084.37 172.506 1085.69 L172.506 1059.65 Z" fill="#000000" fill-rule="evenodd" fill-opacity="1" /><path clip-path="url(#clip650)" d="M217.748 1059.65 L245.283 1059.65 L245.283 1065.55 L224.172 1065.55 L224.172 1078.26 Q225.7 1077.74 227.228 1077.5 Q228.755 1077.22 230.283 1077.22 Q238.964 1077.22 244.033 1081.98 Q249.102 1086.73 249.102 1094.86 Q249.102 1103.23 243.894 1107.88 Q238.686 1112.5 229.207 1112.5 Q225.943 1112.5 222.54 1111.94 Q219.172 1111.39 215.561 1110.27 L215.561 1103.23 Q218.686 1104.93 222.019 1105.76 Q225.353 1106.59 229.068 1106.59 Q235.075 1106.59 238.582 1103.43 Q242.089 1100.27 242.089 1094.86 Q242.089 1089.44 238.582 1086.28 Q235.075 1083.12 229.068 1083.12 Q226.255 1083.12 223.443 1083.75 Q220.665 1084.37 217.748 1085.69 L217.748 1059.65 Z" fill="#000000" fill-rule="evenodd" fill-opacity="1" /><path clip-path="url(#clip650)" d="M186.811 577.752 Q182.089 577.752 179.311 580.981 Q176.568 584.21 176.568 589.835 Q176.568 595.425 179.311 598.689 Q182.089 601.918 186.811 601.918 Q191.533 601.918 194.276 598.689 Q197.054 595.425 197.054 589.835 Q197.054 584.21 194.276 580.981 Q191.533 577.752 186.811 577.752 M200.735 555.773 L200.735 562.162 Q198.096 560.912 195.387 560.252 Q192.714 559.592 190.075 559.592 Q183.131 559.592 179.45 564.28 Q175.804 568.967 175.283 578.446 Q177.332 575.425 180.422 573.828 Q183.513 572.196 187.228 572.196 Q195.04 572.196 199.554 576.953 Q204.103 581.675 204.103 589.835 Q204.103 597.821 199.38 602.647 Q194.658 607.474 186.811 607.474 Q177.818 607.474 173.061 600.599 Q168.304 593.689 168.304 580.599 Q168.304 568.307 174.138 561.016 Q179.971 553.689 189.797 553.689 Q192.436 553.689 195.11 554.21 Q197.818 554.731 200.735 555.773 Z" fill="#000000" fill-rule="evenodd" fill-opacity="1" /><path clip-path="url(#clip650)" d="M231.186 559.245 Q225.769 559.245 223.026 564.592 Q220.318 569.905 220.318 580.599 Q220.318 591.259 223.026 596.606 Q225.769 601.918 231.186 601.918 Q236.637 601.918 239.346 596.606 Q242.089 591.259 242.089 580.599 Q242.089 569.905 239.346 564.592 Q236.637 559.245 231.186 559.245 M231.186 553.689 Q239.901 553.689 244.484 560.599 Q249.102 567.474 249.102 580.599 Q249.102 593.689 244.484 600.599 Q239.901 607.474 231.186 607.474 Q222.471 607.474 217.853 600.599 Q213.269 593.689 213.269 580.599 Q213.269 567.474 217.853 560.599 Q222.471 553.689 231.186 553.689 Z" fill="#000000" fill-rule="evenodd" fill-opacity="1" /><path clip-path="url(#clip650)" d="M71.8358 1153.34 Q71.2108 1154.42 70.933 1155.7 Q70.6205 1156.95 70.6205 1158.48 Q70.6205 1163.9 74.1621 1166.81 Q77.6691 1169.7 84.2663 1169.7 L104.752 1169.7 L104.752 1176.12 L65.8636 1176.12 L65.8636 1169.7 L71.9052 1169.7 Q68.3636 1167.68 66.6622 1164.45 Q64.9261 1161.22 64.9261 1156.61 Q64.9261 1155.95 65.0302 1155.15 Q65.0997 1154.35 65.2733 1153.38 L71.8358 1153.34 Z" fill="#000000" fill-rule="evenodd" fill-opacity="1" /><path clip-path="url(#clip650)" d="M73.3288 1117.61 Q69.0233 1115.22 66.9747 1111.88 Q64.9261 1108.55 64.9261 1104.04 Q64.9261 1097.96 69.1969 1094.66 Q73.433 1091.36 81.2802 1091.36 L104.752 1091.36 L104.752 1097.79 L81.4885 1097.79 Q75.8982 1097.79 73.1899 1099.77 Q70.4816 1101.74 70.4816 1105.81 Q70.4816 1110.77 73.7802 1113.65 Q77.0788 1116.54 82.7732 1116.54 L104.752 1116.54 L104.752 1122.96 L81.4885 1122.96 Q75.8635 1122.96 73.1899 1124.94 Q70.4816 1126.92 70.4816 1131.05 Q70.4816 1135.95 73.8149 1138.83 Q77.1135 1141.71 82.7732 1141.71 L104.752 1141.71 L104.752 1148.13 L65.8636 1148.13 L65.8636 1141.71 L71.9052 1141.71 Q68.3288 1139.52 66.6275 1136.47 Q64.9261 1133.41 64.9261 1129.21 Q64.9261 1124.97 67.0788 1122.02 Q69.2316 1119.04 73.3288 1117.61 Z" fill="#000000" fill-rule="evenodd" fill-opacity="1" /><path clip-path="url(#clip650)" d="M67.0094 1053.83 L73.051 1053.83 Q71.6622 1056.54 70.9677 1059.45 Q70.2733 1062.37 70.2733 1065.49 Q70.2733 1070.25 71.7316 1072.65 Q73.1899 1075.01 76.1066 1075.01 Q78.3288 1075.01 79.6135 1073.31 Q80.8635 1071.61 82.0093 1066.47 L82.4954 1064.28 Q83.9538 1057.47 86.6273 1054.63 Q89.2662 1051.74 94.0231 1051.74 Q99.4398 1051.74 102.599 1056.05 Q105.759 1060.32 105.759 1067.82 Q105.759 1070.95 105.134 1074.35 Q104.544 1077.72 103.329 1081.47 L96.7315 1081.47 Q98.5717 1077.93 99.5092 1074.49 Q100.412 1071.05 100.412 1067.68 Q100.412 1063.17 98.8842 1060.74 Q97.3217 1058.31 94.5093 1058.31 Q91.9051 1058.31 90.5162 1060.08 Q89.1273 1061.81 87.8426 1067.75 L87.3218 1069.97 Q86.0718 1075.91 83.5024 1078.55 Q80.8982 1081.19 76.3843 1081.19 Q70.8983 1081.19 67.9122 1077.3 Q64.9261 1073.41 64.9261 1066.26 Q64.9261 1062.72 65.4469 1059.59 Q65.9677 1056.47 67.0094 1053.83 Z" fill="#000000" fill-rule="evenodd" fill-opacity="1" /><circle clip-path="url(#clip652)" cx="376.586" cy="938.344" r="10.8" fill="#ee7733" fill-rule="evenodd" fill-opacity="1" stroke="#000000" stroke-opacity="1" stroke-width="0"/>
<circle clip-path="url(#clip652)" cx="452.284" cy="1468.02" r="10.8" fill="#ee7733" fill-rule="evenodd" fill-opacity="1" stroke="#000000" stroke-opacity="1" stroke-width="0"/>
<circle clip-path="url(#clip652)" cx="527.982" cy="1744.21" r="10.8" fill="#ee7733" fill-rule="evenodd" fill-opacity="1" stroke="#000000" stroke-opacity="1" stroke-width="0"/>
<circle clip-path="url(#clip652)" cx="603.681" cy="1871.63" r="10.8" fill="#ee7733" fill-rule="evenodd" fill-opacity="1" stroke="#000000" stroke-opacity="1" stroke-width="0"/>
<circle clip-path="url(#clip652)" cx="679.379" cy="1919.03" r="10.8" fill="#ee7733" fill-rule="evenodd" fill-opacity="1" stroke="#000000" stroke-opacity="1" stroke-width="0"/>
<circle clip-path="url(#clip652)" cx="755.078" cy="1957.42" r="10.8" fill="#ee7733" fill-rule="evenodd" fill-opacity="1" stroke="#000000" stroke-opacity="1" stroke-width="0"/>
<circle clip-path="url(#clip652)" cx="830.776" cy="1955.15" r="10.8" fill="#ee7733" fill-rule="evenodd" fill-opacity="1" stroke="#000000" stroke-opacity="1" stroke-width="0"/>
<circle clip-path="url(#clip652)" cx="906.474" cy="1957.81" r="10.8" fill="#ee7733" fill-rule="evenodd" fill-opacity="1" stroke="#000000" stroke-opacity="1" stroke-width="0"/>
<circle clip-path="url(#clip652)" cx="982.173" cy="1959.15" r="10.8" fill="#ee7733" fill-rule="evenodd" fill-opacity="1" stroke="#000000" stroke-opacity="1" stroke-width="0"/>
<circle clip-path="url(#clip652)" cx="1057.87" cy="1957.55" r="10.8" fill="#ee7733" fill-rule="evenodd" fill-opacity="1" stroke="#000000" stroke-opacity="1" stroke-width="0"/>
<circle clip-path="url(#clip652)" cx="1133.57" cy="1961.46" r="10.8" fill="#ee7733" fill-rule="evenodd" fill-opacity="1" stroke="#000000" stroke-opacity="1" stroke-width="0"/>
<circle clip-path="url(#clip652)" cx="1209.27" cy="1981.37" r="10.8" fill="#ee7733" fill-rule="evenodd" fill-opacity="1" stroke="#000000" stroke-opacity="1" stroke-width="0"/>
<circle clip-path="url(#clip652)" cx="1284.97" cy="2007.07" r="10.8" fill="#ee7733" fill-rule="evenodd" fill-opacity="1" stroke="#000000" stroke-opacity="1" stroke-width="0"/>
<circle clip-path="url(#clip652)" cx="1360.66" cy="2028.68" r="10.8" fill="#ee7733" fill-rule="evenodd" fill-opacity="1" stroke="#000000" stroke-opacity="1" stroke-width="0"/>
<circle clip-path="url(#clip652)" cx="1436.36" cy="2043.61" r="10.8" fill="#ee7733" fill-rule="evenodd" fill-opacity="1" stroke="#000000" stroke-opacity="1" stroke-width="0"/>
<circle clip-path="url(#clip652)" cx="1512.06" cy="2056.45" r="10.8" fill="#ee7733" fill-rule="evenodd" fill-opacity="1" stroke="#000000" stroke-opacity="1" stroke-width="0"/>
<circle clip-path="url(#clip652)" cx="1587.76" cy="2072.67" r="10.8" fill="#ee7733" fill-rule="evenodd" fill-opacity="1" stroke="#000000" stroke-opacity="1" stroke-width="0"/>
<circle clip-path="url(#clip652)" cx="1663.46" cy="2075.67" r="10.8" fill="#ee7733" fill-rule="evenodd" fill-opacity="1" stroke="#000000" stroke-opacity="1" stroke-width="0"/>
<circle clip-path="url(#clip652)" cx="1739.16" cy="2058.06" r="10.8" fill="#ee7733" fill-rule="evenodd" fill-opacity="1" stroke="#000000" stroke-opacity="1" stroke-width="0"/>
<circle clip-path="url(#clip652)" cx="1814.85" cy="2044.12" r="10.8" fill="#ee7733" fill-rule="evenodd" fill-opacity="1" stroke="#000000" stroke-opacity="1" stroke-width="0"/>
<circle clip-path="url(#clip652)" cx="1890.55" cy="2019.96" r="10.8" fill="#ee7733" fill-rule="evenodd" fill-opacity="1" stroke="#000000" stroke-opacity="1" stroke-width="0"/>
<circle clip-path="url(#clip652)" cx="1966.25" cy="1998.55" r="10.8" fill="#ee7733" fill-rule="evenodd" fill-opacity="1" stroke="#000000" stroke-opacity="1" stroke-width="0"/>
<circle clip-path="url(#clip652)" cx="2041.95" cy="1965.08" r="10.8" fill="#ee7733" fill-rule="evenodd" fill-opacity="1" stroke="#000000" stroke-opacity="1" stroke-width="0"/>
<circle clip-path="url(#clip652)" cx="2117.65" cy="1946.32" r="10.8" fill="#ee7733" fill-rule="evenodd" fill-opacity="1" stroke="#000000" stroke-opacity="1" stroke-width="0"/>
<circle clip-path="url(#clip652)" cx="2193.35" cy="1913.99" r="10.8" fill="#ee7733" fill-rule="evenodd" fill-opacity="1" stroke="#000000" stroke-opacity="1" stroke-width="0"/>
<circle clip-path="url(#clip652)" cx="2269.04" cy="1896.51" r="10.8" fill="#ee7733" fill-rule="evenodd" fill-opacity="1" stroke="#000000" stroke-opacity="1" stroke-width="0"/>
<circle clip-path="url(#clip652)" cx="2344.74" cy="1888.24" r="10.8" fill="#ee7733" fill-rule="evenodd" fill-opacity="1" stroke="#000000" stroke-opacity="1" stroke-width="0"/>
<circle clip-path="url(#clip652)" cx="2420.44" cy="1853.83" r="10.8" fill="#ee7733" fill-rule="evenodd" fill-opacity="1" stroke="#000000" stroke-opacity="1" stroke-width="0"/>
<circle clip-path="url(#clip652)" cx="2496.14" cy="1829.88" r="10.8" fill="#ee7733" fill-rule="evenodd" fill-opacity="1" stroke="#000000" stroke-opacity="1" stroke-width="0"/>
<circle clip-path="url(#clip652)" cx="2571.84" cy="1794.24" r="10.8" fill="#ee7733" fill-rule="evenodd" fill-opacity="1" stroke="#000000" stroke-opacity="1" stroke-width="0"/>
<circle clip-path="url(#clip652)" cx="2647.54" cy="1729.92" r="10.8" fill="#ee7733" fill-rule="evenodd" fill-opacity="1" stroke="#000000" stroke-opacity="1" stroke-width="0"/>
<circle clip-path="url(#clip652)" cx="2723.24" cy="1643.19" r="10.8" fill="#ee7733" fill-rule="evenodd" fill-opacity="1" stroke="#000000" stroke-opacity="1" stroke-width="0"/>
<circle clip-path="url(#clip652)" cx="2798.93" cy="1510.03" r="10.8" fill="#ee7733" fill-rule="evenodd" fill-opacity="1" stroke="#000000" stroke-opacity="1" stroke-width="0"/>
<circle clip-path="url(#clip652)" cx="2874.63" cy="1328.69" r="10.8" fill="#ee7733" fill-rule="evenodd" fill-opacity="1" stroke="#000000" stroke-opacity="1" stroke-width="0"/>
<circle clip-path="url(#clip652)" cx="2950.33" cy="1096.89" r="10.8" fill="#ee7733" fill-rule="evenodd" fill-opacity="1" stroke="#000000" stroke-opacity="1" stroke-width="0"/>
<circle clip-path="url(#clip652)" cx="3026.03" cy="810.873" r="10.8" fill="#ee7733" fill-rule="evenodd" fill-opacity="1" stroke="#000000" stroke-opacity="1" stroke-width="0"/>
<circle clip-path="url(#clip652)" cx="376.586" cy="535.214" r="10.8" fill="#0077bb" fill-rule="evenodd" fill-opacity="1" stroke="#000000" stroke-opacity="1" stroke-width="0"/>
<circle clip-path="url(#clip652)" cx="452.284" cy="718.391" r="10.8" fill="#0077bb" fill-rule="evenodd" fill-opacity="1" stroke="#000000" stroke-opacity="1" stroke-width="0"/>
<circle clip-path="url(#clip652)" cx="527.982" cy="793.667" r="10.8" fill="#0077bb" fill-rule="evenodd" fill-opacity="1" stroke="#000000" stroke-opacity="1" stroke-width="0"/>
<circle clip-path="url(#clip652)" cx="603.681" cy="894.061" r="10.8" fill="#0077bb" fill-rule="evenodd" fill-opacity="1" stroke="#000000" stroke-opacity="1" stroke-width="0"/>
<circle clip-path="url(#clip652)" cx="679.379" cy="1000.47" r="10.8" fill="#0077bb" fill-rule="evenodd" fill-opacity="1" stroke="#000000" stroke-opacity="1" stroke-width="0"/>
<circle clip-path="url(#clip652)" cx="755.078" cy="1104.51" r="10.8" fill="#0077bb" fill-rule="evenodd" fill-opacity="1" stroke="#000000" stroke-opacity="1" stroke-width="0"/>
<circle clip-path="url(#clip652)" cx="830.776" cy="1207.72" r="10.8" fill="#0077bb" fill-rule="evenodd" fill-opacity="1" stroke="#000000" stroke-opacity="1" stroke-width="0"/>
<circle clip-path="url(#clip652)" cx="906.474" cy="1276.07" r="10.8" fill="#0077bb" fill-rule="evenodd" fill-opacity="1" stroke="#000000" stroke-opacity="1" stroke-width="0"/>
<circle clip-path="url(#clip652)" cx="982.173" cy="1359.97" r="10.8" fill="#0077bb" fill-rule="evenodd" fill-opacity="1" stroke="#000000" stroke-opacity="1" stroke-width="0"/>
<circle clip-path="url(#clip652)" cx="1057.87" cy="1489.72" r="10.8" fill="#0077bb" fill-rule="evenodd" fill-opacity="1" stroke="#000000" stroke-opacity="1" stroke-width="0"/>
<circle clip-path="url(#clip652)" cx="1133.57" cy="1600.69" r="10.8" fill="#0077bb" fill-rule="evenodd" fill-opacity="1" stroke="#000000" stroke-opacity="1" stroke-width="0"/>
<circle clip-path="url(#clip652)" cx="1209.27" cy="1693.4" r="10.8" fill="#0077bb" fill-rule="evenodd" fill-opacity="1" stroke="#000000" stroke-opacity="1" stroke-width="0"/>
<circle clip-path="url(#clip652)" cx="1284.97" cy="1781.22" r="10.8" fill="#0077bb" fill-rule="evenodd" fill-opacity="1" stroke="#000000" stroke-opacity="1" stroke-width="0"/>
<circle clip-path="url(#clip652)" cx="1360.66" cy="1860.76" r="10.8" fill="#0077bb" fill-rule="evenodd" fill-opacity="1" stroke="#000000" stroke-opacity="1" stroke-width="0"/>
<circle clip-path="url(#clip652)" cx="1436.36" cy="1943.59" r="10.8" fill="#0077bb" fill-rule="evenodd" fill-opacity="1" stroke="#000000" stroke-opacity="1" stroke-width="0"/>
<circle clip-path="url(#clip652)" cx="1512.06" cy="2004.41" r="10.8" fill="#0077bb" fill-rule="evenodd" fill-opacity="1" stroke="#000000" stroke-opacity="1" stroke-width="0"/>
<circle clip-path="url(#clip652)" cx="1587.76" cy="2046.52" r="10.8" fill="#0077bb" fill-rule="evenodd" fill-opacity="1" stroke="#000000" stroke-opacity="1" stroke-width="0"/>
<circle clip-path="url(#clip652)" cx="1663.46" cy="2072.34" r="10.8" fill="#0077bb" fill-rule="evenodd" fill-opacity="1" stroke="#000000" stroke-opacity="1" stroke-width="0"/>
<circle clip-path="url(#clip652)" cx="1739.16" cy="2059.36" r="10.8" fill="#0077bb" fill-rule="evenodd" fill-opacity="1" stroke="#000000" stroke-opacity="1" stroke-width="0"/>
<circle clip-path="url(#clip652)" cx="1814.85" cy="2035.97" r="10.8" fill="#0077bb" fill-rule="evenodd" fill-opacity="1" stroke="#000000" stroke-opacity="1" stroke-width="0"/>
<circle clip-path="url(#clip652)" cx="1890.55" cy="1991.3" r="10.8" fill="#0077bb" fill-rule="evenodd" fill-opacity="1" stroke="#000000" stroke-opacity="1" stroke-width="0"/>
<circle clip-path="url(#clip652)" cx="1966.25" cy="1930.57" r="10.8" fill="#0077bb" fill-rule="evenodd" fill-opacity="1" stroke="#000000" stroke-opacity="1" stroke-width="0"/>
<circle clip-path="url(#clip652)" cx="2041.95" cy="1857.46" r="10.8" fill="#0077bb" fill-rule="evenodd" fill-opacity="1" stroke="#000000" stroke-opacity="1" stroke-width="0"/>
<circle clip-path="url(#clip652)" cx="2117.65" cy="1771.63" r="10.8" fill="#0077bb" fill-rule="evenodd" fill-opacity="1" stroke="#000000" stroke-opacity="1" stroke-width="0"/>
<circle clip-path="url(#clip652)" cx="2193.35" cy="1666.45" r="10.8" fill="#0077bb" fill-rule="evenodd" fill-opacity="1" stroke="#000000" stroke-opacity="1" stroke-width="0"/>
<circle clip-path="url(#clip652)" cx="2269.04" cy="1587.44" r="10.8" fill="#0077bb" fill-rule="evenodd" fill-opacity="1" stroke="#000000" stroke-opacity="1" stroke-width="0"/>
<circle clip-path="url(#clip652)" cx="2344.74" cy="1492.41" r="10.8" fill="#0077bb" fill-rule="evenodd" fill-opacity="1" stroke="#000000" stroke-opacity="1" stroke-width="0"/>
<circle clip-path="url(#clip652)" cx="2420.44" cy="1349.23" r="10.8" fill="#0077bb" fill-rule="evenodd" fill-opacity="1" stroke="#000000" stroke-opacity="1" stroke-width="0"/>
<circle clip-path="url(#clip652)" cx="2496.14" cy="1251.1" r="10.8" fill="#0077bb" fill-rule="evenodd" fill-opacity="1" stroke="#000000" stroke-opacity="1" stroke-width="0"/>
<circle clip-path="url(#clip652)" cx="2571.84" cy="1174.18" r="10.8" fill="#0077bb" fill-rule="evenodd" fill-opacity="1" stroke="#000000" stroke-opacity="1" stroke-width="0"/>
<circle clip-path="url(#clip652)" cx="2647.54" cy="1028.37" r="10.8" fill="#0077bb" fill-rule="evenodd" fill-opacity="1" stroke="#000000" stroke-opacity="1" stroke-width="0"/>
<circle clip-path="url(#clip652)" cx="2723.24" cy="880.077" r="10.8" fill="#0077bb" fill-rule="evenodd" fill-opacity="1" stroke="#000000" stroke-opacity="1" stroke-width="0"/>
<circle clip-path="url(#clip652)" cx="2798.93" cy="732.909" r="10.8" fill="#0077bb" fill-rule="evenodd" fill-opacity="1" stroke="#000000" stroke-opacity="1" stroke-width="0"/>
<circle clip-path="url(#clip652)" cx="2874.63" cy="585.671" r="10.8" fill="#0077bb" fill-rule="evenodd" fill-opacity="1" stroke="#000000" stroke-opacity="1" stroke-width="0"/>
<circle clip-path="url(#clip652)" cx="2950.33" cy="404.604" r="10.8" fill="#0077bb" fill-rule="evenodd" fill-opacity="1" stroke="#000000" stroke-opacity="1" stroke-width="0"/>
<circle clip-path="url(#clip652)" cx="3026.03" cy="152.193" r="10.8" fill="#0077bb" fill-rule="evenodd" fill-opacity="1" stroke="#000000" stroke-opacity="1" stroke-width="0"/>
<path clip-path="url(#clip650)" d="
M1203.52 356.851 L1763.72 356.851 L1763.72 162.451 L1203.52 162.451  Z
  " fill="#ffffff" fill-rule="evenodd" fill-opacity="0.9"/>
<polyline clip-path="url(#clip650)" style="stroke:#222255; stroke-linecap:butt; stroke-linejoin:round; stroke-width:4; stroke-opacity:0.1; fill:none" points="
  1203.52,356.851 1763.72,356.851 1763.72,162.451 1203.52,162.451 1203.52,356.851 
  "/>
<circle clip-path="url(#clip650)" cx="1328.34" cy="227.251" r="28.8" fill="#ee7733" fill-rule="evenodd" fill-opacity="1" stroke="#000000" stroke-opacity="1" stroke-width="0"/>
<path clip-path="url(#clip650)" d="M1472.14 221.421 Q1471.24 220.9 1470.17 220.668 Q1469.13 220.408 1467.86 220.408 Q1463.35 220.408 1460.91 223.359 Q1458.51 226.282 1458.51 231.779 L1458.51 248.851 L1453.16 248.851 L1453.16 216.444 L1458.51 216.444 L1458.51 221.479 Q1460.19 218.527 1462.88 217.109 Q1465.57 215.663 1469.42 215.663 Q1469.97 215.663 1470.64 215.749 Q1471.3 215.807 1472.11 215.952 L1472.14 221.421 Z" fill="#000000" fill-rule="evenodd" fill-opacity="1" /><path clip-path="url(#clip650)" d="M1501.92 222.665 Q1503.91 219.077 1506.69 217.37 Q1509.47 215.663 1513.23 215.663 Q1518.29 215.663 1521.04 219.222 Q1523.79 222.752 1523.79 229.291 L1523.79 248.851 L1518.44 248.851 L1518.44 229.465 Q1518.44 224.806 1516.79 222.549 Q1515.14 220.292 1511.75 220.292 Q1507.62 220.292 1505.21 223.041 Q1502.81 225.79 1502.81 230.535 L1502.81 248.851 L1497.46 248.851 L1497.46 229.465 Q1497.46 224.777 1495.81 222.549 Q1494.16 220.292 1490.72 220.292 Q1486.64 220.292 1484.24 223.07 Q1481.83 225.819 1481.83 230.535 L1481.83 248.851 L1476.48 248.851 L1476.48 216.444 L1481.83 216.444 L1481.83 221.479 Q1483.66 218.498 1486.2 217.08 Q1488.75 215.663 1492.25 215.663 Q1495.78 215.663 1498.24 217.457 Q1500.73 219.251 1501.92 222.665 Z" fill="#000000" fill-rule="evenodd" fill-opacity="1" /><path clip-path="url(#clip650)" d="M1555.07 217.399 L1555.07 222.433 Q1552.81 221.276 1550.38 220.697 Q1547.95 220.119 1545.35 220.119 Q1541.38 220.119 1539.39 221.334 Q1537.42 222.549 1537.42 224.98 Q1537.42 226.832 1538.84 227.902 Q1540.25 228.944 1544.54 229.899 L1546.36 230.304 Q1552.03 231.519 1554.4 233.747 Q1556.81 235.946 1556.81 239.91 Q1556.81 244.424 1553.22 247.057 Q1549.66 249.69 1543.41 249.69 Q1540.8 249.69 1537.97 249.169 Q1535.16 248.677 1532.04 247.665 L1532.04 242.167 Q1534.99 243.701 1537.85 244.482 Q1540.72 245.234 1543.52 245.234 Q1547.29 245.234 1549.31 243.961 Q1551.34 242.659 1551.34 240.315 Q1551.34 238.145 1549.86 236.988 Q1548.41 235.83 1543.47 234.76 L1541.61 234.326 Q1536.67 233.284 1534.47 231.143 Q1532.27 228.973 1532.27 225.211 Q1532.27 220.639 1535.51 218.151 Q1538.75 215.663 1544.71 215.663 Q1547.66 215.663 1550.27 216.097 Q1552.87 216.531 1555.07 217.399 Z" fill="#000000" fill-rule="evenodd" fill-opacity="1" /><path clip-path="url(#clip650)" d="M1564.21 245.668 L1570.12 245.668 L1570.12 227.989 L1563.66 229.175 L1563.66 225.819 L1570.32 224.69 L1574.28 224.69 L1574.28 245.668 L1580.21 245.668 L1580.21 248.851 L1564.21 248.851 L1564.21 245.668 Z" fill="#000000" fill-rule="evenodd" fill-opacity="1" /><path clip-path="url(#clip650)" d="M1601.83 203.886 Q1597.95 210.541 1596.07 217.052 Q1594.19 223.562 1594.19 230.246 Q1594.19 236.93 1596.07 243.498 Q1597.98 250.037 1601.83 256.664 L1597.2 256.664 Q1592.86 249.864 1590.69 243.296 Q1588.55 236.727 1588.55 230.246 Q1588.55 223.793 1590.69 217.254 Q1592.83 210.715 1597.2 203.886 L1601.83 203.886 Z" fill="#000000" fill-rule="evenodd" fill-opacity="1" /><path clip-path="url(#clip650)" d="M1633.48 221.363 L1633.48 203.828 L1638.81 203.828 L1638.81 248.851 L1633.48 248.851 L1633.48 243.99 Q1631.81 246.884 1629.23 248.301 Q1626.68 249.69 1623.1 249.69 Q1617.22 249.69 1613.52 245.003 Q1609.84 240.315 1609.84 232.676 Q1609.84 225.038 1613.52 220.35 Q1617.22 215.663 1623.1 215.663 Q1626.68 215.663 1629.23 217.08 Q1631.81 218.469 1633.48 221.363 M1615.34 232.676 Q1615.34 238.55 1617.74 241.907 Q1620.17 245.234 1624.4 245.234 Q1628.62 245.234 1631.05 241.907 Q1633.48 238.55 1633.48 232.676 Q1633.48 226.803 1631.05 223.475 Q1628.62 220.119 1624.4 220.119 Q1620.17 220.119 1617.74 223.475 Q1615.34 226.803 1615.34 232.676 Z" fill="#000000" fill-rule="evenodd" fill-opacity="1" /><path clip-path="url(#clip650)" d="M1666.3 203.828 L1666.3 215.778 Q1672.05 215.778 1675.9 220.205 Q1679.87 224.719 1679.87 232.676 Q1679.87 240.634 1675.9 245.147 Q1672.05 249.574 1666.3 249.574 L1666.3 261.177 L1661 261.177 L1661 249.574 Q1655.24 249.574 1651.37 245.147 Q1647.43 240.634 1647.43 232.676 Q1647.43 224.719 1651.37 220.205 Q1655.24 215.778 1661 215.778 L1661 203.828 L1666.3 203.828 M1666.3 244.829 Q1669.57 244.829 1671.79 241.849 Q1674.22 238.521 1674.25 232.676 Q1674.28 226.889 1671.79 223.504 Q1669.57 220.524 1666.3 220.524 L1666.3 244.829 M1661 244.829 L1661 220.524 Q1657.73 220.524 1655.53 223.504 Q1653.01 226.889 1653.04 232.676 Q1653.07 238.521 1655.53 241.849 Q1657.73 244.829 1661 244.829 Z" fill="#000000" fill-rule="evenodd" fill-opacity="1" /><path clip-path="url(#clip650)" d="M1688.03 203.886 L1692.66 203.886 Q1697 210.715 1699.14 217.254 Q1701.31 223.793 1701.31 230.246 Q1701.31 236.727 1699.14 243.296 Q1697 249.864 1692.66 256.664 L1688.03 256.664 Q1691.87 250.037 1693.76 243.498 Q1695.66 236.93 1695.66 230.246 Q1695.66 223.562 1693.76 217.052 Q1691.87 210.541 1688.03 203.886 Z" fill="#000000" fill-rule="evenodd" fill-opacity="1" /><circle clip-path="url(#clip650)" cx="1328.34" cy="292.051" r="28.8" fill="#0077bb" fill-rule="evenodd" fill-opacity="1" stroke="#000000" stroke-opacity="1" stroke-width="0"/>
<path clip-path="url(#clip650)" d="M1472.14 286.221 Q1471.24 285.7 1470.17 285.468 Q1469.13 285.208 1467.86 285.208 Q1463.35 285.208 1460.91 288.159 Q1458.51 291.082 1458.51 296.579 L1458.51 313.651 L1453.16 313.651 L1453.16 281.244 L1458.51 281.244 L1458.51 286.279 Q1460.19 283.327 1462.88 281.909 Q1465.57 280.463 1469.42 280.463 Q1469.97 280.463 1470.64 280.549 Q1471.3 280.607 1472.11 280.752 L1472.14 286.221 Z" fill="#000000" fill-rule="evenodd" fill-opacity="1" /><path clip-path="url(#clip650)" d="M1501.92 287.465 Q1503.91 283.877 1506.69 282.17 Q1509.47 280.463 1513.23 280.463 Q1518.29 280.463 1521.04 284.022 Q1523.79 287.552 1523.79 294.091 L1523.79 313.651 L1518.44 313.651 L1518.44 294.265 Q1518.44 289.606 1516.79 287.349 Q1515.14 285.092 1511.75 285.092 Q1507.62 285.092 1505.21 287.841 Q1502.81 290.59 1502.81 295.335 L1502.81 313.651 L1497.46 313.651 L1497.46 294.265 Q1497.46 289.577 1495.81 287.349 Q1494.16 285.092 1490.72 285.092 Q1486.64 285.092 1484.24 287.87 Q1481.83 290.619 1481.83 295.335 L1481.83 313.651 L1476.48 313.651 L1476.48 281.244 L1481.83 281.244 L1481.83 286.279 Q1483.66 283.298 1486.2 281.88 Q1488.75 280.463 1492.25 280.463 Q1495.78 280.463 1498.24 282.257 Q1500.73 284.051 1501.92 287.465 Z" fill="#000000" fill-rule="evenodd" fill-opacity="1" /><path clip-path="url(#clip650)" d="M1555.07 282.199 L1555.07 287.233 Q1552.81 286.076 1550.38 285.497 Q1547.95 284.919 1545.35 284.919 Q1541.38 284.919 1539.39 286.134 Q1537.42 287.349 1537.42 289.78 Q1537.42 291.632 1538.84 292.702 Q1540.25 293.744 1544.54 294.699 L1546.36 295.104 Q1552.03 296.319 1554.4 298.547 Q1556.81 300.746 1556.81 304.71 Q1556.81 309.224 1553.22 311.857 Q1549.66 314.49 1543.41 314.49 Q1540.8 314.49 1537.97 313.969 Q1535.16 313.477 1532.04 312.465 L1532.04 306.967 Q1534.99 308.501 1537.85 309.282 Q1540.72 310.034 1543.52 310.034 Q1547.29 310.034 1549.31 308.761 Q1551.34 307.459 1551.34 305.115 Q1551.34 302.945 1549.86 301.788 Q1548.41 300.63 1543.47 299.56 L1541.61 299.126 Q1536.67 298.084 1534.47 295.943 Q1532.27 293.773 1532.27 290.011 Q1532.27 285.439 1535.51 282.951 Q1538.75 280.463 1544.71 280.463 Q1547.66 280.463 1550.27 280.897 Q1552.87 281.331 1555.07 282.199 Z" fill="#000000" fill-rule="evenodd" fill-opacity="1" /><path clip-path="url(#clip650)" d="M1567.45 310.353 L1579.72 310.353 L1579.72 313.651 L1562.42 313.651 L1562.42 310.468 Q1563.4 309.571 1565.23 307.951 Q1575.18 299.126 1575.18 296.406 Q1575.18 294.496 1573.67 293.339 Q1572.17 292.152 1569.71 292.152 Q1568.21 292.152 1566.44 292.673 Q1564.68 293.165 1562.59 294.178 L1562.59 290.619 Q1564.82 289.809 1566.73 289.404 Q1568.67 288.998 1570.32 288.998 Q1574.51 288.998 1577.03 290.908 Q1579.55 292.818 1579.55 295.943 Q1579.55 299.965 1569.97 308.182 Q1568.35 309.571 1567.45 310.353 Z" fill="#000000" fill-rule="evenodd" fill-opacity="1" /><path clip-path="url(#clip650)" d="M1601.83 268.686 Q1597.95 275.341 1596.07 281.852 Q1594.19 288.362 1594.19 295.046 Q1594.19 301.73 1596.07 308.298 Q1597.98 314.837 1601.83 321.464 L1597.2 321.464 Q1592.86 314.664 1590.69 308.096 Q1588.55 301.527 1588.55 295.046 Q1588.55 288.593 1590.69 282.054 Q1592.83 275.515 1597.2 268.686 L1601.83 268.686 Z" fill="#000000" fill-rule="evenodd" fill-opacity="1" /><path clip-path="url(#clip650)" d="M1633.48 286.163 L1633.48 268.628 L1638.81 268.628 L1638.81 313.651 L1633.48 313.651 L1633.48 308.79 Q1631.81 311.684 1629.23 313.101 Q1626.68 314.49 1623.1 314.49 Q1617.22 314.49 1613.52 309.803 Q1609.84 305.115 1609.84 297.476 Q1609.84 289.838 1613.52 285.15 Q1617.22 280.463 1623.1 280.463 Q1626.68 280.463 1629.23 281.88 Q1631.81 283.269 1633.48 286.163 M1615.34 297.476 Q1615.34 303.35 1617.74 306.707 Q1620.17 310.034 1624.4 310.034 Q1628.62 310.034 1631.05 306.707 Q1633.48 303.35 1633.48 297.476 Q1633.48 291.603 1631.05 288.275 Q1628.62 284.919 1624.4 284.919 Q1620.17 284.919 1617.74 288.275 Q1615.34 291.603 1615.34 297.476 Z" fill="#000000" fill-rule="evenodd" fill-opacity="1" /><path clip-path="url(#clip650)" d="M1666.3 268.628 L1666.3 280.578 Q1672.05 280.578 1675.9 285.005 Q1679.87 289.519 1679.87 297.476 Q1679.87 305.434 1675.9 309.947 Q1672.05 314.374 1666.3 314.374 L1666.3 325.977 L1661 325.977 L1661 314.374 Q1655.24 314.374 1651.37 309.947 Q1647.43 305.434 1647.43 297.476 Q1647.43 289.519 1651.37 285.005 Q1655.24 280.578 1661 280.578 L1661 268.628 L1666.3 268.628 M1666.3 309.629 Q1669.57 309.629 1671.79 306.649 Q1674.22 303.321 1674.25 297.476 Q1674.28 291.689 1671.79 288.304 Q1669.57 285.324 1666.3 285.324 L1666.3 309.629 M1661 309.629 L1661 285.324 Q1657.73 285.324 1655.53 288.304 Q1653.01 291.689 1653.04 297.476 Q1653.07 303.321 1655.53 306.649 Q1657.73 309.629 1661 309.629 Z" fill="#000000" fill-rule="evenodd" fill-opacity="1" /><path clip-path="url(#clip650)" d="M1688.03 268.686 L1692.66 268.686 Q1697 275.515 1699.14 282.054 Q1701.31 288.593 1701.31 295.046 Q1701.31 301.527 1699.14 308.096 Q1697 314.664 1692.66 321.464 L1688.03 321.464 Q1691.87 314.837 1693.76 308.298 Q1695.66 301.73 1695.66 295.046 Q1695.66 288.362 1693.76 281.852 Q1691.87 275.341 1688.03 268.686 Z" fill="#000000" fill-rule="evenodd" fill-opacity="1" /></svg>
