<?xml version="1.0" encoding="utf-8"?>
<svg xmlns="http://www.w3.org/2000/svg" xmlns:xlink="http://www.w3.org/1999/xlink" width="800" height="600" viewBox="0 0 3200 2400">
<defs>
  <clipPath id="clip950">
    <rect x="0" y="0" width="3200" height="2400"/>
  </clipPath>
</defs>
<path clip-path="url(#clip950)" d="
M0 2400 L3200 2400 L3200 0 L0 0  Z
  " fill="#ffffff" fill-rule="evenodd" fill-opacity="1"/>
<defs>
  <clipPath id="clip951">
    <rect x="640" y="0" width="2241" height="2241"/>
  </clipPath>
</defs>
<path clip-path="url(#clip950)" d="
M949.15 2133.38 L3105.51 2133.38 L3105.51 94.4882 L949.15 94.4882  Z
  " fill="#ffffff" fill-rule="evenodd" fill-opacity="1"/>
<defs>
  <clipPath id="clip952">
    <rect x="949" y="94" width="2157" height="2040"/>
  </clipPath>
</defs>
<polyline clip-path="url(#clip952)" style="stroke:#222255; stroke-linecap:butt; stroke-linejoin:round; stroke-width:2; stroke-opacity:0.05; fill:none" points="
  1010.18,2133.38 1010.18,94.4882 
  "/>
<polyline clip-path="url(#clip952)" style="stroke:#222255; stroke-linecap:butt; stroke-linejoin:round; stroke-width:2; stroke-opacity:0.05; fill:none" points="
  1591.41,2133.38 1591.41,94.4882 
  "/>
<polyline clip-path="url(#clip952)" style="stroke:#222255; stroke-linecap:butt; stroke-linejoin:round; stroke-width:2; stroke-opacity:0.05; fill:none" points="
  2172.64,2133.38 2172.64,94.4882 
  "/>
<polyline clip-path="url(#clip952)" style="stroke:#222255; stroke-linecap:butt; stroke-linejoin:round; stroke-width:2; stroke-opacity:0.05; fill:none" points="
  2753.87,2133.38 2753.87,94.4882 
  "/>
<polyline clip-path="url(#clip952)" style="stroke:#222255; stroke-linecap:butt; stroke-linejoin:round; stroke-width:2; stroke-opacity:0.05; fill:none" points="
  1126.42,2133.38 1126.42,94.4882 
  "/>
<polyline clip-path="url(#clip952)" style="stroke:#222255; stroke-linecap:butt; stroke-linejoin:round; stroke-width:2; stroke-opacity:0.05; fill:none" points="
  1242.67,2133.38 1242.67,94.4882 
  "/>
<polyline clip-path="url(#clip952)" style="stroke:#222255; stroke-linecap:butt; stroke-linejoin:round; stroke-width:2; stroke-opacity:0.05; fill:none" points="
  1358.92,2133.38 1358.92,94.4882 
  "/>
<polyline clip-path="url(#clip952)" style="stroke:#222255; stroke-linecap:butt; stroke-linejoin:round; stroke-width:2; stroke-opacity:0.05; fill:none" points="
  1475.16,2133.38 1475.16,94.4882 
  "/>
<polyline clip-path="url(#clip952)" style="stroke:#222255; stroke-linecap:butt; stroke-linejoin:round; stroke-width:2; stroke-opacity:0.05; fill:none" points="
  1707.65,2133.38 1707.65,94.4882 
  "/>
<polyline clip-path="url(#clip952)" style="stroke:#222255; stroke-linecap:butt; stroke-linejoin:round; stroke-width:2; stroke-opacity:0.05; fill:none" points="
  1823.9,2133.38 1823.9,94.4882 
  "/>
<polyline clip-path="url(#clip952)" style="stroke:#222255; stroke-linecap:butt; stroke-linejoin:round; stroke-width:2; stroke-opacity:0.05; fill:none" points="
  1940.15,2133.38 1940.15,94.4882 
  "/>
<polyline clip-path="url(#clip952)" style="stroke:#222255; stroke-linecap:butt; stroke-linejoin:round; stroke-width:2; stroke-opacity:0.05; fill:none" points="
  2056.39,2133.38 2056.39,94.4882 
  "/>
<polyline clip-path="url(#clip952)" style="stroke:#222255; stroke-linecap:butt; stroke-linejoin:round; stroke-width:2; stroke-opacity:0.05; fill:none" points="
  2288.88,2133.38 2288.88,94.4882 
  "/>
<polyline clip-path="url(#clip952)" style="stroke:#222255; stroke-linecap:butt; stroke-linejoin:round; stroke-width:2; stroke-opacity:0.05; fill:none" points="
  2405.13,2133.38 2405.13,94.4882 
  "/>
<polyline clip-path="url(#clip952)" style="stroke:#222255; stroke-linecap:butt; stroke-linejoin:round; stroke-width:2; stroke-opacity:0.05; fill:none" points="
  2521.38,2133.38 2521.38,94.4882 
  "/>
<polyline clip-path="url(#clip952)" style="stroke:#222255; stroke-linecap:butt; stroke-linejoin:round; stroke-width:2; stroke-opacity:0.05; fill:none" points="
  2637.62,2133.38 2637.62,94.4882 
  "/>
<polyline clip-path="url(#clip952)" style="stroke:#222255; stroke-linecap:butt; stroke-linejoin:round; stroke-width:2; stroke-opacity:0.05; fill:none" points="
  2870.11,2133.38 2870.11,94.4882 
  "/>
<polyline clip-path="url(#clip952)" style="stroke:#222255; stroke-linecap:butt; stroke-linejoin:round; stroke-width:2; stroke-opacity:0.05; fill:none" points="
  2986.36,2133.38 2986.36,94.4882 
  "/>
<polyline clip-path="url(#clip952)" style="stroke:#222255; stroke-linecap:butt; stroke-linejoin:round; stroke-width:2; stroke-opacity:0.05; fill:none" points="
  3102.61,2133.38 3102.61,94.4882 
  "/>
<polyline clip-path="url(#clip950)" style="stroke:#000000; stroke-linecap:butt; stroke-linejoin:round; stroke-width:4; stroke-opacity:1; fill:none" points="
  949.15,2133.38 3105.51,2133.38 
  "/>
<polyline clip-path="url(#clip950)" style="stroke:#000000; stroke-linecap:butt; stroke-linejoin:round; stroke-width:4; stroke-opacity:1; fill:none" points="
  949.15,94.4882 3105.51,94.4882 
  "/>
<polyline clip-path="url(#clip950)" style="stroke:#000000; stroke-linecap:butt; stroke-linejoin:round; stroke-width:4; stroke-opacity:1; fill:none" points="
  1010.18,2133.38 1010.18,2114.48 
  "/>
<polyline clip-path="url(#clip950)" style="stroke:#000000; stroke-linecap:butt; stroke-linejoin:round; stroke-width:4; stroke-opacity:1; fill:none" points="
  1591.41,2133.38 1591.41,2114.48 
  "/>
<polyline clip-path="url(#clip950)" style="stroke:#000000; stroke-linecap:butt; stroke-linejoin:round; stroke-width:4; stroke-opacity:1; fill:none" points="
  2172.64,2133.38 2172.64,2114.48 
  "/>
<polyline clip-path="url(#clip950)" style="stroke:#000000; stroke-linecap:butt; stroke-linejoin:round; stroke-width:4; stroke-opacity:1; fill:none" points="
  2753.87,2133.38 2753.87,2114.48 
  "/>
<polyline clip-path="url(#clip950)" style="stroke:#000000; stroke-linecap:butt; stroke-linejoin:round; stroke-width:4; stroke-opacity:1; fill:none" points="
  1126.42,2133.38 1126.42,2123.93 
  "/>
<polyline clip-path="url(#clip950)" style="stroke:#000000; stroke-linecap:butt; stroke-linejoin:round; stroke-width:4; stroke-opacity:1; fill:none" points="
  1242.67,2133.38 1242.67,2123.93 
  "/>
<polyline clip-path="url(#clip950)" style="stroke:#000000; stroke-linecap:butt; stroke-linejoin:round; stroke-width:4; stroke-opacity:1; fill:none" points="
  1358.92,2133.38 1358.92,2123.93 
  "/>
<polyline clip-path="url(#clip950)" style="stroke:#000000; stroke-linecap:butt; stroke-linejoin:round; stroke-width:4; stroke-opacity:1; fill:none" points="
  1475.16,2133.38 1475.16,2123.93 
  "/>
<polyline clip-path="url(#clip950)" style="stroke:#000000; stroke-linecap:butt; stroke-linejoin:round; stroke-width:4; stroke-opacity:1; fill:none" points="
  1707.65,2133.38 1707.65,2123.93 
  "/>
<polyline clip-path="url(#clip950)" style="stroke:#000000; stroke-linecap:butt; stroke-linejoin:round; stroke-width:4; stroke-opacity:1; fill:none" points="
  1823.9,2133.38 1823.9,2123.93 
  "/>
<polyline clip-path="url(#clip950)" style="stroke:#000000; stroke-linecap:butt; stroke-linejoin:round; stroke-width:4; stroke-opacity:1; fill:none" points="
  1940.15,2133.38 1940.15,2123.93 
  "/>
<polyline clip-path="url(#clip950)" style="stroke:#000000; stroke-linecap:butt; stroke-linejoin:round; stroke-width:4; stroke-opacity:1; fill:none" points="
  2056.39,2133.38 2056.39,2123.93 
  "/>
<polyline clip-path="url(#clip950)" style="stroke:#000000; stroke-linecap:butt; stroke-linejoin:round; stroke-width:4; stroke-opacity:1; fill:none" points="
  2288.88,2133.38 2288.88,2123.93 
  "/>
<polyline clip-path="url(#clip950)" style="stroke:#000000; stroke-linecap:butt; stroke-linejoin:round; stroke-width:4; stroke-opacity:1; fill:none" points="
  2405.13,2133.38 2405.13,2123.93 
  "/>
<polyline clip-path="url(#clip950)" style="stroke:#000000; stroke-linecap:butt; stroke-linejoin:round; stroke-width:4; stroke-opacity:1; fill:none" points="
  2521.38,2133.38 2521.38,2123.93 
  "/>
<polyline clip-path="url(#clip950)" style="stroke:#000000; stroke-linecap:butt; stroke-linejoin:round; stroke-width:4; stroke-opacity:1; fill:none" points="
  2637.62,2133.38 2637.62,2123.93 
  "/>
<polyline clip-path="url(#clip950)" style="stroke:#000000; stroke-linecap:butt; stroke-linejoin:round; stroke-width:4; stroke-opacity:1; fill:none" points="
  2870.11,2133.38 2870.11,2123.93 
  "/>
<polyline clip-path="url(#clip950)" style="stroke:#000000; stroke-linecap:butt; stroke-linejoin:round; stroke-width:4; stroke-opacity:1; fill:none" points="
  2986.36,2133.38 2986.36,2123.93 
  "/>
<polyline clip-path="url(#clip950)" style="stroke:#000000; stroke-linecap:butt; stroke-linejoin:round; stroke-width:4; stroke-opacity:1; fill:none" points="
  3102.61,2133.38 3102.61,2123.93 
  "/>
<path clip-path="url(#clip950)" d="M1010.18 2176.55 Q1004.76 2176.55 1002.02 2181.9 Q999.311 2187.21 999.311 2197.91 Q999.311 2208.57 1002.02 2213.91 Q1004.76 2219.23 1010.18 2219.23 Q1015.63 2219.23 1018.34 2213.91 Q1021.08 2208.57 1021.08 2197.91 Q1021.08 2187.21 1018.34 2181.9 Q1015.63 2176.55 1010.18 2176.55 M1010.18 2171 Q1018.89 2171 1023.48 2177.91 Q1028.1 2184.78 1028.1 2197.91 Q1028.1 2211 1023.48 2217.91 Q1018.89 2224.78 1010.18 2224.78 Q1001.46 2224.78 996.846 2217.91 Q992.262 2211 992.262 2197.91 Q992.262 2184.78 996.846 2177.91 Q1001.46 2171 1010.18 2171 Z" fill="#000000" fill-rule="evenodd" fill-opacity="1" /><path clip-path="url(#clip950)" d="M1553.46 2171.94 L1580.99 2171.94 L1580.99 2177.84 L1559.88 2177.84 L1559.88 2190.55 Q1561.41 2190.03 1562.94 2189.78 Q1564.46 2189.51 1565.99 2189.51 Q1574.67 2189.51 1579.74 2194.26 Q1584.81 2199.02 1584.81 2207.14 Q1584.81 2215.51 1579.6 2220.16 Q1574.39 2224.78 1564.92 2224.78 Q1561.65 2224.78 1558.25 2224.23 Q1554.88 2223.67 1551.27 2222.56 L1551.27 2215.51 Q1554.39 2217.21 1557.73 2218.05 Q1561.06 2218.88 1564.78 2218.88 Q1570.78 2218.88 1574.29 2215.72 Q1577.8 2212.56 1577.8 2207.14 Q1577.8 2201.73 1574.29 2198.57 Q1570.78 2195.41 1564.78 2195.41 Q1561.96 2195.41 1559.15 2196.03 Q1556.37 2196.66 1553.46 2197.98 L1553.46 2171.94 Z" fill="#000000" fill-rule="evenodd" fill-opacity="1" /><path clip-path="url(#clip950)" d="M1613.63 2176.55 Q1608.21 2176.55 1605.47 2181.9 Q1602.76 2187.21 1602.76 2197.91 Q1602.76 2208.57 1605.47 2213.91 Q1608.21 2219.23 1613.63 2219.23 Q1619.08 2219.23 1621.79 2213.91 Q1624.53 2208.57 1624.53 2197.91 Q1624.53 2187.21 1621.79 2181.9 Q1619.08 2176.55 1613.63 2176.55 M1613.63 2171 Q1622.35 2171 1626.93 2177.91 Q1631.55 2184.78 1631.55 2197.91 Q1631.55 2211 1626.93 2217.91 Q1622.35 2224.78 1613.63 2224.78 Q1604.92 2224.78 1600.3 2217.91 Q1595.71 2211 1595.71 2197.91 Q1595.71 2184.78 1600.3 2177.91 Q1604.92 2171 1613.63 2171 Z" fill="#000000" fill-rule="evenodd" fill-opacity="1" /><path clip-path="url(#clip950)" d="M2112.05 2217.87 L2123.51 2217.87 L2123.51 2178.32 L2111.04 2180.82 L2111.04 2174.44 L2123.44 2171.94 L2130.45 2171.94 L2130.45 2217.87 L2141.91 2217.87 L2141.91 2223.78 L2112.05 2223.78 L2112.05 2217.87 Z" fill="#000000" fill-rule="evenodd" fill-opacity="1" /><path clip-path="url(#clip950)" d="M2171.08 2176.55 Q2165.66 2176.55 2162.92 2181.9 Q2160.21 2187.21 2160.21 2197.91 Q2160.21 2208.57 2162.92 2213.91 Q2165.66 2219.23 2171.08 2219.23 Q2176.53 2219.23 2179.24 2213.91 Q2181.98 2208.57 2181.98 2197.91 Q2181.98 2187.21 2179.24 2181.9 Q2176.53 2176.55 2171.08 2176.55 M2171.08 2171 Q2179.79 2171 2184.37 2177.91 Q2188.99 2184.78 2188.99 2197.91 Q2188.99 2211 2184.37 2217.91 Q2179.79 2224.78 2171.08 2224.78 Q2162.36 2224.78 2157.74 2217.91 Q2153.16 2211 2153.16 2197.91 Q2153.16 2184.78 2157.74 2177.91 Q2162.36 2171 2171.08 2171 Z" fill="#000000" fill-rule="evenodd" fill-opacity="1" /><path clip-path="url(#clip950)" d="M2216.32 2176.55 Q2210.9 2176.55 2208.16 2181.9 Q2205.45 2187.21 2205.45 2197.91 Q2205.45 2208.57 2208.16 2213.91 Q2210.9 2219.23 2216.32 2219.23 Q2221.77 2219.23 2224.48 2213.91 Q2227.22 2208.57 2227.22 2197.91 Q2227.22 2187.21 2224.48 2181.9 Q2221.77 2176.55 2216.32 2176.55 M2216.32 2171 Q2225.03 2171 2229.62 2177.91 Q2234.24 2184.78 2234.24 2197.91 Q2234.24 2211 2229.62 2217.91 Q2225.03 2224.78 2216.32 2224.78 Q2207.6 2224.78 2202.99 2217.91 Q2198.4 2211 2198.4 2197.91 Q2198.4 2184.78 2202.99 2177.91 Q2207.6 2171 2216.32 2171 Z" fill="#000000" fill-rule="evenodd" fill-opacity="1" /><path clip-path="url(#clip950)" d="M2693.28 2217.87 L2704.74 2217.87 L2704.74 2178.32 L2692.27 2180.82 L2692.27 2174.44 L2704.67 2171.94 L2711.68 2171.94 L2711.68 2217.87 L2723.14 2217.87 L2723.14 2223.78 L2693.28 2223.78 L2693.28 2217.87 Z" fill="#000000" fill-rule="evenodd" fill-opacity="1" /><path clip-path="url(#clip950)" d="M2737.37 2171.94 L2764.91 2171.94 L2764.91 2177.84 L2743.8 2177.84 L2743.8 2190.55 Q2745.33 2190.03 2746.85 2189.78 Q2748.38 2189.51 2749.91 2189.51 Q2758.59 2189.51 2763.66 2194.26 Q2768.73 2199.02 2768.73 2207.14 Q2768.73 2215.51 2763.52 2220.16 Q2758.31 2224.78 2748.83 2224.78 Q2745.57 2224.78 2742.17 2224.23 Q2738.8 2223.67 2735.19 2222.56 L2735.19 2215.51 Q2738.31 2217.21 2741.65 2218.05 Q2744.98 2218.88 2748.69 2218.88 Q2754.7 2218.88 2758.21 2215.72 Q2761.72 2212.56 2761.72 2207.14 Q2761.72 2201.73 2758.21 2198.57 Q2754.7 2195.41 2748.69 2195.41 Q2745.88 2195.41 2743.07 2196.03 Q2740.29 2196.66 2737.37 2197.98 L2737.37 2171.94 Z" fill="#000000" fill-rule="evenodd" fill-opacity="1" /><path clip-path="url(#clip950)" d="M2797.55 2176.55 Q2792.13 2176.55 2789.39 2181.9 Q2786.68 2187.21 2786.68 2197.91 Q2786.68 2208.57 2789.39 2213.91 Q2792.13 2219.23 2797.55 2219.23 Q2803 2219.23 2805.71 2213.91 Q2808.45 2208.57 2808.45 2197.91 Q2808.45 2187.21 2805.71 2181.9 Q2803 2176.55 2797.55 2176.55 M2797.55 2171 Q2806.26 2171 2810.85 2177.91 Q2815.46 2184.78 2815.46 2197.91 Q2815.46 2211 2810.85 2217.91 Q2806.26 2224.78 2797.55 2224.78 Q2788.83 2224.78 2784.21 2217.91 Q2779.63 2211 2779.63 2197.91 Q2779.63 2184.78 2784.21 2177.91 Q2788.83 2171 2797.55 2171 Z" fill="#000000" fill-rule="evenodd" fill-opacity="1" /><path clip-path="url(#clip950)" d="M2013.69 2288.36 L2013.69 2267.32 L2020.07 2267.32 L2020.07 2321.34 L2013.69 2321.34 L2013.69 2315.51 Q2011.67 2318.98 2008.58 2320.68 Q2005.53 2322.35 2001.22 2322.35 Q1994.17 2322.35 1989.73 2316.73 Q1985.32 2311.1 1985.32 2301.93 Q1985.32 2292.77 1989.73 2287.14 Q1994.17 2281.52 2001.22 2281.52 Q2005.53 2281.52 2008.58 2283.22 Q2011.67 2284.89 2013.69 2288.36 M1991.91 2301.93 Q1991.91 2308.98 1994.8 2313.01 Q1997.71 2317 2002.78 2317 Q2007.85 2317 2010.77 2313.01 Q2013.69 2308.98 2013.69 2301.93 Q2013.69 2294.89 2010.77 2290.89 Q2007.85 2286.86 2002.78 2286.86 Q1997.71 2286.86 1994.8 2290.89 Q1991.91 2294.89 1991.91 2301.93 Z" fill="#000000" fill-rule="evenodd" fill-opacity="1" /><path clip-path="url(#clip950)" d="M2053.06 2267.32 L2053.06 2281.66 Q2059.97 2281.66 2064.59 2286.97 Q2069.34 2292.39 2069.34 2301.93 Q2069.34 2311.48 2064.59 2316.9 Q2059.97 2322.21 2053.06 2322.21 L2053.06 2336.14 L2046.71 2336.14 L2046.71 2322.21 Q2039.8 2322.21 2035.14 2316.9 Q2030.42 2311.48 2030.42 2301.93 Q2030.42 2292.39 2035.14 2286.97 Q2039.8 2281.66 2046.71 2281.66 L2046.71 2267.32 L2053.06 2267.32 M2053.06 2316.52 Q2056.98 2316.52 2059.66 2312.94 Q2062.57 2308.95 2062.61 2301.93 Q2062.64 2294.99 2059.66 2290.93 Q2056.98 2287.35 2053.06 2287.35 L2053.06 2316.52 M2046.71 2316.52 L2046.71 2287.35 Q2042.78 2287.35 2040.14 2290.93 Q2037.12 2294.99 2037.16 2301.93 Q2037.19 2308.95 2040.14 2312.94 Q2042.78 2316.52 2046.71 2316.52 Z" fill="#000000" fill-rule="evenodd" fill-opacity="1" /><polyline clip-path="url(#clip952)" style="stroke:#222255; stroke-linecap:butt; stroke-linejoin:round; stroke-width:2; stroke-opacity:0.05; fill:none" points="
  949.15,1808.22 3105.51,1808.22 
  "/>
<polyline clip-path="url(#clip952)" style="stroke:#222255; stroke-linecap:butt; stroke-linejoin:round; stroke-width:2; stroke-opacity:0.05; fill:none" points="
  949.15,1442.26 3105.51,1442.26 
  "/>
<polyline clip-path="url(#clip952)" style="stroke:#222255; stroke-linecap:butt; stroke-linejoin:round; stroke-width:2; stroke-opacity:0.05; fill:none" points="
  949.15,1076.31 3105.51,1076.31 
  "/>
<polyline clip-path="url(#clip952)" style="stroke:#222255; stroke-linecap:butt; stroke-linejoin:round; stroke-width:2; stroke-opacity:0.05; fill:none" points="
  949.15,710.359 3105.51,710.359 
  "/>
<polyline clip-path="url(#clip952)" style="stroke:#222255; stroke-linecap:butt; stroke-linejoin:round; stroke-width:2; stroke-opacity:0.05; fill:none" points="
  949.15,344.406 3105.51,344.406 
  "/>
<polyline clip-path="url(#clip952)" style="stroke:#222255; stroke-linecap:butt; stroke-linejoin:round; stroke-width:2; stroke-opacity:0.05; fill:none" points="
  949.15,2100.98 3105.51,2100.98 
  "/>
<polyline clip-path="url(#clip952)" style="stroke:#222255; stroke-linecap:butt; stroke-linejoin:round; stroke-width:2; stroke-opacity:0.05; fill:none" points="
  949.15,2027.79 3105.51,2027.79 
  "/>
<polyline clip-path="url(#clip952)" style="stroke:#222255; stroke-linecap:butt; stroke-linejoin:round; stroke-width:2; stroke-opacity:0.05; fill:none" points="
  949.15,1954.6 3105.51,1954.6 
  "/>
<polyline clip-path="url(#clip952)" style="stroke:#222255; stroke-linecap:butt; stroke-linejoin:round; stroke-width:2; stroke-opacity:0.05; fill:none" points="
  949.15,1881.41 3105.51,1881.41 
  "/>
<polyline clip-path="url(#clip952)" style="stroke:#222255; stroke-linecap:butt; stroke-linejoin:round; stroke-width:2; stroke-opacity:0.05; fill:none" points="
  949.15,1735.03 3105.51,1735.03 
  "/>
<polyline clip-path="url(#clip952)" style="stroke:#222255; stroke-linecap:butt; stroke-linejoin:round; stroke-width:2; stroke-opacity:0.05; fill:none" points="
  949.15,1661.84 3105.51,1661.84 
  "/>
<polyline clip-path="url(#clip952)" style="stroke:#222255; stroke-linecap:butt; stroke-linejoin:round; stroke-width:2; stroke-opacity:0.05; fill:none" points="
  949.15,1588.65 3105.51,1588.65 
  "/>
<polyline clip-path="url(#clip952)" style="stroke:#222255; stroke-linecap:butt; stroke-linejoin:round; stroke-width:2; stroke-opacity:0.05; fill:none" points="
  949.15,1515.45 3105.51,1515.45 
  "/>
<polyline clip-path="url(#clip952)" style="stroke:#222255; stroke-linecap:butt; stroke-linejoin:round; stroke-width:2; stroke-opacity:0.05; fill:none" points="
  949.15,1369.07 3105.51,1369.07 
  "/>
<polyline clip-path="url(#clip952)" style="stroke:#222255; stroke-linecap:butt; stroke-linejoin:round; stroke-width:2; stroke-opacity:0.05; fill:none" points="
  949.15,1295.88 3105.51,1295.88 
  "/>
<polyline clip-path="url(#clip952)" style="stroke:#222255; stroke-linecap:butt; stroke-linejoin:round; stroke-width:2; stroke-opacity:0.05; fill:none" points="
  949.15,1222.69 3105.51,1222.69 
  "/>
<polyline clip-path="url(#clip952)" style="stroke:#222255; stroke-linecap:butt; stroke-linejoin:round; stroke-width:2; stroke-opacity:0.05; fill:none" points="
  949.15,1149.5 3105.51,1149.5 
  "/>
<polyline clip-path="url(#clip952)" style="stroke:#222255; stroke-linecap:butt; stroke-linejoin:round; stroke-width:2; stroke-opacity:0.05; fill:none" points="
  949.15,1003.12 3105.51,1003.12 
  "/>
<polyline clip-path="url(#clip952)" style="stroke:#222255; stroke-linecap:butt; stroke-linejoin:round; stroke-width:2; stroke-opacity:0.05; fill:none" points="
  949.15,929.931 3105.51,929.931 
  "/>
<polyline clip-path="url(#clip952)" style="stroke:#222255; stroke-linecap:butt; stroke-linejoin:round; stroke-width:2; stroke-opacity:0.05; fill:none" points="
  949.15,856.74 3105.51,856.74 
  "/>
<polyline clip-path="url(#clip952)" style="stroke:#222255; stroke-linecap:butt; stroke-linejoin:round; stroke-width:2; stroke-opacity:0.05; fill:none" points="
  949.15,783.549 3105.51,783.549 
  "/>
<polyline clip-path="url(#clip952)" style="stroke:#222255; stroke-linecap:butt; stroke-linejoin:round; stroke-width:2; stroke-opacity:0.05; fill:none" points="
  949.15,637.168 3105.51,637.168 
  "/>
<polyline clip-path="url(#clip952)" style="stroke:#222255; stroke-linecap:butt; stroke-linejoin:round; stroke-width:2; stroke-opacity:0.05; fill:none" points="
  949.15,563.978 3105.51,563.978 
  "/>
<polyline clip-path="url(#clip952)" style="stroke:#222255; stroke-linecap:butt; stroke-linejoin:round; stroke-width:2; stroke-opacity:0.05; fill:none" points="
  949.15,490.787 3105.51,490.787 
  "/>
<polyline clip-path="url(#clip952)" style="stroke:#222255; stroke-linecap:butt; stroke-linejoin:round; stroke-width:2; stroke-opacity:0.05; fill:none" points="
  949.15,417.597 3105.51,417.597 
  "/>
<polyline clip-path="url(#clip952)" style="stroke:#222255; stroke-linecap:butt; stroke-linejoin:round; stroke-width:2; stroke-opacity:0.05; fill:none" points="
  949.15,271.216 3105.51,271.216 
  "/>
<polyline clip-path="url(#clip952)" style="stroke:#222255; stroke-linecap:butt; stroke-linejoin:round; stroke-width:2; stroke-opacity:0.05; fill:none" points="
  949.15,198.025 3105.51,198.025 
  "/>
<polyline clip-path="url(#clip952)" style="stroke:#222255; stroke-linecap:butt; stroke-linejoin:round; stroke-width:2; stroke-opacity:0.05; fill:none" points="
  949.15,124.834 3105.51,124.834 
  "/>
<polyline clip-path="url(#clip950)" style="stroke:#000000; stroke-linecap:butt; stroke-linejoin:round; stroke-width:4; stroke-opacity:1; fill:none" points="
  949.15,2133.38 949.15,94.4882 
  "/>
<polyline clip-path="url(#clip950)" style="stroke:#000000; stroke-linecap:butt; stroke-linejoin:round; stroke-width:4; stroke-opacity:1; fill:none" points="
  3105.51,2133.38 3105.51,94.4882 
  "/>
<polyline clip-path="url(#clip950)" style="stroke:#000000; stroke-linecap:butt; stroke-linejoin:round; stroke-width:4; stroke-opacity:1; fill:none" points="
  949.15,1808.22 963.722,1808.22 
  "/>
<polyline clip-path="url(#clip950)" style="stroke:#000000; stroke-linecap:butt; stroke-linejoin:round; stroke-width:4; stroke-opacity:1; fill:none" points="
  949.15,1442.26 963.722,1442.26 
  "/>
<polyline clip-path="url(#clip950)" style="stroke:#000000; stroke-linecap:butt; stroke-linejoin:round; stroke-width:4; stroke-opacity:1; fill:none" points="
  949.15,1076.31 963.722,1076.31 
  "/>
<polyline clip-path="url(#clip950)" style="stroke:#000000; stroke-linecap:butt; stroke-linejoin:round; stroke-width:4; stroke-opacity:1; fill:none" points="
  949.15,710.359 963.722,710.359 
  "/>
<polyline clip-path="url(#clip950)" style="stroke:#000000; stroke-linecap:butt; stroke-linejoin:round; stroke-width:4; stroke-opacity:1; fill:none" points="
  949.15,344.406 963.722,344.406 
  "/>
<polyline clip-path="url(#clip950)" style="stroke:#000000; stroke-linecap:butt; stroke-linejoin:round; stroke-width:4; stroke-opacity:1; fill:none" points="
  949.15,2100.98 956.436,2100.98 
  "/>
<polyline clip-path="url(#clip950)" style="stroke:#000000; stroke-linecap:butt; stroke-linejoin:round; stroke-width:4; stroke-opacity:1; fill:none" points="
  949.15,2027.79 956.436,2027.79 
  "/>
<polyline clip-path="url(#clip950)" style="stroke:#000000; stroke-linecap:butt; stroke-linejoin:round; stroke-width:4; stroke-opacity:1; fill:none" points="
  949.15,1954.6 956.436,1954.6 
  "/>
<polyline clip-path="url(#clip950)" style="stroke:#000000; stroke-linecap:butt; stroke-linejoin:round; stroke-width:4; stroke-opacity:1; fill:none" points="
  949.15,1881.41 956.436,1881.41 
  "/>
<polyline clip-path="url(#clip950)" style="stroke:#000000; stroke-linecap:butt; stroke-linejoin:round; stroke-width:4; stroke-opacity:1; fill:none" points="
  949.15,1735.03 956.436,1735.03 
  "/>
<polyline clip-path="url(#clip950)" style="stroke:#000000; stroke-linecap:butt; stroke-linejoin:round; stroke-width:4; stroke-opacity:1; fill:none" points="
  949.15,1661.84 956.436,1661.84 
  "/>
<polyline clip-path="url(#clip950)" style="stroke:#000000; stroke-linecap:butt; stroke-linejoin:round; stroke-width:4; stroke-opacity:1; fill:none" points="
  949.15,1588.65 956.436,1588.65 
  "/>
<polyline clip-path="url(#clip950)" style="stroke:#000000; stroke-linecap:butt; stroke-linejoin:round; stroke-width:4; stroke-opacity:1; fill:none" points="
  949.15,1515.45 956.436,1515.45 
  "/>
<polyline clip-path="url(#clip950)" style="stroke:#000000; stroke-linecap:butt; stroke-linejoin:round; stroke-width:4; stroke-opacity:1; fill:none" points="
  949.15,1369.07 956.436,1369.07 
  "/>
<polyline clip-path="url(#clip950)" style="stroke:#000000; stroke-linecap:butt; stroke-linejoin:round; stroke-width:4; stroke-opacity:1; fill:none" points="
  949.15,1295.88 956.436,1295.88 
  "/>
<polyline clip-path="url(#clip950)" style="stroke:#000000; stroke-linecap:butt; stroke-linejoin:round; stroke-width:4; stroke-opacity:1; fill:none" points="
  949.15,1222.69 956.436,1222.69 
  "/>
<polyline clip-path="url(#clip950)" style="stroke:#000000; stroke-linecap:butt; stroke-linejoin:round; stroke-width:4; stroke-opacity:1; fill:none" points="
  949.15,1149.5 956.436,1149.5 
  "/>
<polyline clip-path="url(#clip950)" style="stroke:#000000; stroke-linecap:butt; stroke-linejoin:round; stroke-width:4; stroke-opacity:1; fill:none" points="
  949.15,1003.12 956.436,1003.12 
  "/>
<polyline clip-path="url(#clip950)" style="stroke:#000000; stroke-linecap:butt; stroke-linejoin:round; stroke-width:4; stroke-opacity:1; fill:none" points="
  949.15,929.931 956.436,929.931 
  "/>
<polyline clip-path="url(#clip950)" style="stroke:#000000; stroke-linecap:butt; stroke-linejoin:round; stroke-width:4; stroke-opacity:1; fill:none" points="
  949.15,856.74 956.436,856.74 
  "/>
<polyline clip-path="url(#clip950)" style="stroke:#000000; stroke-linecap:butt; stroke-linejoin:round; stroke-width:4; stroke-opacity:1; fill:none" points="
  949.15,783.549 956.436,783.549 
  "/>
<polyline clip-path="url(#clip950)" style="stroke:#000000; stroke-linecap:butt; stroke-linejoin:round; stroke-width:4; stroke-opacity:1; fill:none" points="
  949.15,637.168 956.436,637.168 
  "/>
<polyline clip-path="url(#clip950)" style="stroke:#000000; stroke-linecap:butt; stroke-linejoin:round; stroke-width:4; stroke-opacity:1; fill:none" points="
  949.15,563.978 956.436,563.978 
  "/>
<polyline clip-path="url(#clip950)" style="stroke:#000000; stroke-linecap:butt; stroke-linejoin:round; stroke-width:4; stroke-opacity:1; fill:none" points="
  949.15,490.787 956.436,490.787 
  "/>
<polyline clip-path="url(#clip950)" style="stroke:#000000; stroke-linecap:butt; stroke-linejoin:round; stroke-width:4; stroke-opacity:1; fill:none" points="
  949.15,417.597 956.436,417.597 
  "/>
<polyline clip-path="url(#clip950)" style="stroke:#000000; stroke-linecap:butt; stroke-linejoin:round; stroke-width:4; stroke-opacity:1; fill:none" points="
  949.15,271.216 956.436,271.216 
  "/>
<polyline clip-path="url(#clip950)" style="stroke:#000000; stroke-linecap:butt; stroke-linejoin:round; stroke-width:4; stroke-opacity:1; fill:none" points="
  949.15,198.025 956.436,198.025 
  "/>
<polyline clip-path="url(#clip950)" style="stroke:#000000; stroke-linecap:butt; stroke-linejoin:round; stroke-width:4; stroke-opacity:1; fill:none" points="
  949.15,124.834 956.436,124.834 
  "/>
<path clip-path="url(#clip950)" d="M808.338 1808.89 L852.852 1808.89 L852.852 1814.8 L808.338 1814.8 L808.338 1808.89 Z" fill="#000000" fill-rule="evenodd" fill-opacity="1" /><path clip-path="url(#clip950)" d="M883.858 1805.42 Q879.136 1805.42 876.358 1808.65 Q873.615 1811.88 873.615 1817.51 Q873.615 1823.1 876.358 1826.36 Q879.136 1829.59 883.858 1829.59 Q888.581 1829.59 891.324 1826.36 Q894.101 1823.1 894.101 1817.51 Q894.101 1811.88 891.324 1808.65 Q888.581 1805.42 883.858 1805.42 M897.782 1783.44 L897.782 1789.83 Q895.143 1788.58 892.435 1787.92 Q889.761 1787.26 887.122 1787.26 Q880.178 1787.26 876.497 1791.95 Q872.851 1796.64 872.331 1806.12 Q874.379 1803.1 877.469 1801.5 Q880.56 1799.87 884.275 1799.87 Q892.087 1799.87 896.601 1804.62 Q901.15 1809.35 901.15 1817.51 Q901.15 1825.49 896.428 1830.32 Q891.706 1835.14 883.858 1835.14 Q874.865 1835.14 870.108 1828.27 Q865.351 1821.36 865.351 1808.27 Q865.351 1795.98 871.185 1788.69 Q877.018 1781.36 886.844 1781.36 Q889.483 1781.36 892.157 1781.88 Q894.865 1782.4 897.782 1783.44 Z" fill="#000000" fill-rule="evenodd" fill-opacity="1" /><path clip-path="url(#clip950)" d="M809.553 1442.94 L854.067 1442.94 L854.067 1448.84 L809.553 1448.84 L809.553 1442.94 Z" fill="#000000" fill-rule="evenodd" fill-opacity="1" /><path clip-path="url(#clip950)" d="M890.456 1440.23 Q895.49 1441.31 898.303 1444.71 Q901.15 1448.12 901.15 1453.12 Q901.15 1460.79 895.872 1464.99 Q890.594 1469.19 880.872 1469.19 Q877.608 1469.19 874.136 1468.53 Q870.699 1467.91 867.018 1466.62 L867.018 1459.85 Q869.935 1461.55 873.407 1462.42 Q876.879 1463.29 880.664 1463.29 Q887.261 1463.29 890.699 1460.68 Q894.171 1458.08 894.171 1453.12 Q894.171 1448.53 890.942 1445.96 Q887.747 1443.36 882.018 1443.36 L875.976 1443.36 L875.976 1437.59 L882.296 1437.59 Q887.469 1437.59 890.212 1435.55 Q892.956 1433.46 892.956 1429.57 Q892.956 1425.58 890.108 1423.46 Q887.296 1421.31 882.018 1421.31 Q879.136 1421.31 875.838 1421.93 Q872.539 1422.56 868.581 1423.88 L868.581 1417.63 Q872.574 1416.52 876.046 1415.96 Q879.553 1415.41 882.643 1415.41 Q890.629 1415.41 895.282 1419.05 Q899.935 1422.66 899.935 1428.84 Q899.935 1433.15 897.469 1436.14 Q895.004 1439.09 890.456 1440.23 Z" fill="#000000" fill-rule="evenodd" fill-opacity="1" /><path clip-path="url(#clip950)" d="M883.233 1055.01 Q877.817 1055.01 875.074 1060.36 Q872.365 1065.67 872.365 1076.36 Q872.365 1087.02 875.074 1092.37 Q877.817 1097.68 883.233 1097.68 Q888.685 1097.68 891.393 1092.37 Q894.136 1087.02 894.136 1076.36 Q894.136 1065.67 891.393 1060.36 Q888.685 1055.01 883.233 1055.01 M883.233 1049.45 Q891.949 1049.45 896.532 1056.36 Q901.15 1063.24 901.15 1076.36 Q901.15 1089.45 896.532 1096.36 Q891.949 1103.24 883.233 1103.24 Q874.518 1103.24 869.9 1096.36 Q865.317 1089.45 865.317 1076.36 Q865.317 1063.24 869.9 1056.36 Q874.518 1049.45 883.233 1049.45 Z" fill="#000000" fill-rule="evenodd" fill-opacity="1" /><path clip-path="url(#clip950)" d="M890.456 708.328 Q895.49 709.404 898.303 712.807 Q901.15 716.21 901.15 721.209 Q901.15 728.883 895.872 733.084 Q890.594 737.286 880.872 737.286 Q877.608 737.286 874.136 736.626 Q870.699 736.001 867.018 734.716 L867.018 727.946 Q869.935 729.647 873.407 730.515 Q876.879 731.383 880.664 731.383 Q887.261 731.383 890.699 728.779 Q894.171 726.175 894.171 721.209 Q894.171 716.626 890.942 714.057 Q887.747 711.453 882.018 711.453 L875.976 711.453 L875.976 705.689 L882.296 705.689 Q887.469 705.689 890.212 703.64 Q892.956 701.557 892.956 697.668 Q892.956 693.675 890.108 691.557 Q887.296 689.404 882.018 689.404 Q879.136 689.404 875.838 690.029 Q872.539 690.654 868.581 691.974 L868.581 685.724 Q872.574 684.612 876.046 684.057 Q879.553 683.501 882.643 683.501 Q890.629 683.501 895.282 687.147 Q899.935 690.758 899.935 696.939 Q899.935 701.244 897.469 704.23 Q895.004 707.182 890.456 708.328 Z" fill="#000000" fill-rule="evenodd" fill-opacity="1" /><path clip-path="url(#clip950)" d="M883.858 341.611 Q879.136 341.611 876.358 344.84 Q873.615 348.069 873.615 353.694 Q873.615 359.284 876.358 362.548 Q879.136 365.777 883.858 365.777 Q888.581 365.777 891.324 362.548 Q894.101 359.284 894.101 353.694 Q894.101 348.069 891.324 344.84 Q888.581 341.611 883.858 341.611 M897.782 319.632 L897.782 326.021 Q895.143 324.771 892.435 324.111 Q889.761 323.451 887.122 323.451 Q880.178 323.451 876.497 328.139 Q872.851 332.826 872.331 342.305 Q874.379 339.285 877.469 337.687 Q880.56 336.055 884.275 336.055 Q892.087 336.055 896.601 340.812 Q901.15 345.535 901.15 353.694 Q901.15 361.68 896.428 366.507 Q891.706 371.333 883.858 371.333 Q874.865 371.333 870.108 364.458 Q865.351 357.548 865.351 344.458 Q865.351 332.167 871.185 324.875 Q877.018 317.549 886.844 317.549 Q889.483 317.549 892.157 318.069 Q894.865 318.59 897.782 319.632 Z" fill="#000000" fill-rule="evenodd" fill-opacity="1" /><path clip-path="url(#clip950)" d="M713.362 1177.99 Q709.057 1175.6 707.008 1172.26 Q704.96 1168.93 704.96 1164.42 Q704.96 1158.34 709.231 1155.04 Q713.467 1151.74 721.314 1151.74 L744.786 1151.74 L744.786 1158.17 L721.522 1158.17 Q715.932 1158.17 713.224 1160.15 Q710.515 1162.13 710.515 1166.19 Q710.515 1171.15 713.814 1174.04 Q717.112 1176.92 722.807 1176.92 L744.786 1176.92 L744.786 1183.34 L721.522 1183.34 Q715.897 1183.34 713.224 1185.32 Q710.515 1187.3 710.515 1191.43 Q710.515 1196.33 713.849 1199.21 Q717.147 1202.09 722.807 1202.09 L744.786 1202.09 L744.786 1208.51 L705.897 1208.51 L705.897 1202.09 L711.939 1202.09 Q708.362 1199.9 706.661 1196.85 Q704.96 1193.79 704.96 1189.59 Q704.96 1185.36 707.112 1182.4 Q709.265 1179.42 713.362 1177.99 Z" fill="#000000" fill-rule="evenodd" fill-opacity="1" /><path clip-path="url(#clip950)" d="M723.744 1105.74 L726.869 1105.74 L726.869 1135.11 Q733.467 1134.7 736.939 1131.15 Q740.376 1127.58 740.376 1121.22 Q740.376 1117.54 739.473 1114.11 Q738.571 1110.63 736.765 1107.23 L742.807 1107.23 Q744.265 1110.67 745.029 1114.28 Q745.793 1117.89 745.793 1121.61 Q745.793 1130.91 740.376 1136.36 Q734.96 1141.78 725.724 1141.78 Q716.175 1141.78 710.585 1136.64 Q704.96 1131.47 704.96 1122.72 Q704.96 1114.87 710.029 1110.32 Q715.064 1105.74 723.744 1105.74 M721.869 1112.13 Q716.626 1112.2 713.501 1115.08 Q710.376 1117.93 710.376 1122.65 Q710.376 1127.99 713.397 1131.22 Q716.418 1134.42 721.904 1134.9 L721.869 1112.13 Z" fill="#000000" fill-rule="evenodd" fill-opacity="1" /><path clip-path="url(#clip950)" d="M725.237 1077.58 Q725.237 1085.32 727.008 1088.31 Q728.779 1091.29 733.05 1091.29 Q736.453 1091.29 738.466 1089.07 Q740.446 1086.81 740.446 1082.96 Q740.446 1077.65 736.696 1074.45 Q732.911 1071.22 726.661 1071.22 L725.237 1071.22 L725.237 1077.58 M722.599 1064.84 L744.786 1064.84 L744.786 1071.22 L738.883 1071.22 Q742.425 1073.41 744.126 1076.68 Q745.793 1079.94 745.793 1084.66 Q745.793 1090.63 742.46 1094.18 Q739.091 1097.68 733.467 1097.68 Q726.904 1097.68 723.571 1093.31 Q720.237 1088.9 720.237 1080.18 L720.237 1071.22 L719.612 1071.22 Q715.203 1071.22 712.807 1074.14 Q710.376 1077.02 710.376 1082.27 Q710.376 1085.6 711.175 1088.76 Q711.974 1091.92 713.571 1094.83 L707.668 1094.83 Q706.314 1091.33 705.654 1088.03 Q704.96 1084.73 704.96 1081.61 Q704.96 1073.17 709.335 1069 Q713.71 1064.84 722.599 1064.84 Z" fill="#000000" fill-rule="evenodd" fill-opacity="1" /><path clip-path="url(#clip950)" d="M721.314 1019.35 L744.786 1019.35 L744.786 1025.74 L721.522 1025.74 Q716.001 1025.74 713.258 1027.89 Q710.515 1030.04 710.515 1034.35 Q710.515 1039.52 713.814 1042.51 Q717.112 1045.49 722.807 1045.49 L744.786 1045.49 L744.786 1051.92 L705.897 1051.92 L705.897 1045.49 L711.939 1045.49 Q708.432 1043.2 706.696 1040.11 Q704.96 1036.99 704.96 1032.93 Q704.96 1026.22 709.126 1022.79 Q713.258 1019.35 721.314 1019.35 Z" fill="#000000" fill-rule="evenodd" fill-opacity="1" /><circle clip-path="url(#clip952)" cx="1010.18" cy="152.193" r="21.6" fill="#ee7733" fill-rule="evenodd" fill-opacity="1" stroke="#000000" stroke-opacity="1" stroke-width="0"/>
<circle clip-path="url(#clip952)" cx="1068.3" cy="300.593" r="21.6" fill="#ee7733" fill-rule="evenodd" fill-opacity="1" stroke="#000000" stroke-opacity="1" stroke-width="0"/>
<circle clip-path="url(#clip952)" cx="1126.42" cy="398.634" r="21.6" fill="#ee7733" fill-rule="evenodd" fill-opacity="1" stroke="#000000" stroke-opacity="1" stroke-width="0"/>
<circle clip-path="url(#clip952)" cx="1184.55" cy="465.672" r="21.6" fill="#ee7733" fill-rule="evenodd" fill-opacity="1" stroke="#000000" stroke-opacity="1" stroke-width="0"/>
<circle clip-path="url(#clip952)" cx="1242.67" cy="513.109" r="21.6" fill="#ee7733" fill-rule="evenodd" fill-opacity="1" stroke="#000000" stroke-opacity="1" stroke-width="0"/>
<circle clip-path="url(#clip952)" cx="1300.79" cy="557.099" r="21.6" fill="#ee7733" fill-rule="evenodd" fill-opacity="1" stroke="#000000" stroke-opacity="1" stroke-width="0"/>
<circle clip-path="url(#clip952)" cx="1358.92" cy="588.643" r="21.6" fill="#ee7733" fill-rule="evenodd" fill-opacity="1" stroke="#000000" stroke-opacity="1" stroke-width="0"/>
<circle clip-path="url(#clip952)" cx="1417.04" cy="623.088" r="21.6" fill="#ee7733" fill-rule="evenodd" fill-opacity="1" stroke="#000000" stroke-opacity="1" stroke-width="0"/>
<circle clip-path="url(#clip952)" cx="1475.16" cy="651.509" r="21.6" fill="#ee7733" fill-rule="evenodd" fill-opacity="1" stroke="#000000" stroke-opacity="1" stroke-width="0"/>
<circle clip-path="url(#clip952)" cx="1533.29" cy="680.622" r="21.6" fill="#ee7733" fill-rule="evenodd" fill-opacity="1" stroke="#000000" stroke-opacity="1" stroke-width="0"/>
<circle clip-path="url(#clip952)" cx="1591.41" cy="710.519" r="21.6" fill="#ee7733" fill-rule="evenodd" fill-opacity="1" stroke="#000000" stroke-opacity="1" stroke-width="0"/>
<circle clip-path="url(#clip952)" cx="1649.53" cy="744.265" r="21.6" fill="#ee7733" fill-rule="evenodd" fill-opacity="1" stroke="#000000" stroke-opacity="1" stroke-width="0"/>
<circle clip-path="url(#clip952)" cx="1707.65" cy="781.326" r="21.6" fill="#ee7733" fill-rule="evenodd" fill-opacity="1" stroke="#000000" stroke-opacity="1" stroke-width="0"/>
<circle clip-path="url(#clip952)" cx="1765.78" cy="823.143" r="21.6" fill="#ee7733" fill-rule="evenodd" fill-opacity="1" stroke="#000000" stroke-opacity="1" stroke-width="0"/>
<circle clip-path="url(#clip952)" cx="1823.9" cy="868.598" r="21.6" fill="#ee7733" fill-rule="evenodd" fill-opacity="1" stroke="#000000" stroke-opacity="1" stroke-width="0"/>
<circle clip-path="url(#clip952)" cx="1882.02" cy="918.924" r="21.6" fill="#ee7733" fill-rule="evenodd" fill-opacity="1" stroke="#000000" stroke-opacity="1" stroke-width="0"/>
<circle clip-path="url(#clip952)" cx="1940.15" cy="974.082" r="21.6" fill="#ee7733" fill-rule="evenodd" fill-opacity="1" stroke="#000000" stroke-opacity="1" stroke-width="0"/>
<circle clip-path="url(#clip952)" cx="1998.27" cy="1032.12" r="21.6" fill="#ee7733" fill-rule="evenodd" fill-opacity="1" stroke="#000000" stroke-opacity="1" stroke-width="0"/>
<circle clip-path="url(#clip952)" cx="2056.39" cy="1092.79" r="21.6" fill="#ee7733" fill-rule="evenodd" fill-opacity="1" stroke="#000000" stroke-opacity="1" stroke-width="0"/>
<circle clip-path="url(#clip952)" cx="2114.52" cy="1152.17" r="21.6" fill="#ee7733" fill-rule="evenodd" fill-opacity="1" stroke="#000000" stroke-opacity="1" stroke-width="0"/>
<circle clip-path="url(#clip952)" cx="2172.64" cy="1208.61" r="21.6" fill="#ee7733" fill-rule="evenodd" fill-opacity="1" stroke="#000000" stroke-opacity="1" stroke-width="0"/>
<circle clip-path="url(#clip952)" cx="2230.76" cy="1259.43" r="21.6" fill="#ee7733" fill-rule="evenodd" fill-opacity="1" stroke="#000000" stroke-opacity="1" stroke-width="0"/>
<circle clip-path="url(#clip952)" cx="2288.88" cy="1306.6" r="21.6" fill="#ee7733" fill-rule="evenodd" fill-opacity="1" stroke="#000000" stroke-opacity="1" stroke-width="0"/>
<circle clip-path="url(#clip952)" cx="2347.01" cy="1347.11" r="21.6" fill="#ee7733" fill-rule="evenodd" fill-opacity="1" stroke="#000000" stroke-opacity="1" stroke-width="0"/>
<circle clip-path="url(#clip952)" cx="2405.13" cy="1387.49" r="21.6" fill="#ee7733" fill-rule="evenodd" fill-opacity="1" stroke="#000000" stroke-opacity="1" stroke-width="0"/>
<circle clip-path="url(#clip952)" cx="2463.25" cy="1426.37" r="21.6" fill="#ee7733" fill-rule="evenodd" fill-opacity="1" stroke="#000000" stroke-opacity="1" stroke-width="0"/>
<circle clip-path="url(#clip952)" cx="2521.38" cy="1461.35" r="21.6" fill="#ee7733" fill-rule="evenodd" fill-opacity="1" stroke="#000000" stroke-opacity="1" stroke-width="0"/>
<circle clip-path="url(#clip952)" cx="2579.5" cy="1505.3" r="21.6" fill="#ee7733" fill-rule="evenodd" fill-opacity="1" stroke="#000000" stroke-opacity="1" stroke-width="0"/>
<circle clip-path="url(#clip952)" cx="2637.62" cy="1547.02" r="21.6" fill="#ee7733" fill-rule="evenodd" fill-opacity="1" stroke="#000000" stroke-opacity="1" stroke-width="0"/>
<circle clip-path="url(#clip952)" cx="2695.74" cy="1594.96" r="21.6" fill="#ee7733" fill-rule="evenodd" fill-opacity="1" stroke="#000000" stroke-opacity="1" stroke-width="0"/>
<circle clip-path="url(#clip952)" cx="2753.87" cy="1649.42" r="21.6" fill="#ee7733" fill-rule="evenodd" fill-opacity="1" stroke="#000000" stroke-opacity="1" stroke-width="0"/>
<circle clip-path="url(#clip952)" cx="2811.99" cy="1713.89" r="21.6" fill="#ee7733" fill-rule="evenodd" fill-opacity="1" stroke="#000000" stroke-opacity="1" stroke-width="0"/>
<circle clip-path="url(#clip952)" cx="2870.11" cy="1786.97" r="21.6" fill="#ee7733" fill-rule="evenodd" fill-opacity="1" stroke="#000000" stroke-opacity="1" stroke-width="0"/>
<circle clip-path="url(#clip952)" cx="2928.24" cy="1873.64" r="21.6" fill="#ee7733" fill-rule="evenodd" fill-opacity="1" stroke="#000000" stroke-opacity="1" stroke-width="0"/>
<circle clip-path="url(#clip952)" cx="2986.36" cy="1968.46" r="21.6" fill="#ee7733" fill-rule="evenodd" fill-opacity="1" stroke="#000000" stroke-opacity="1" stroke-width="0"/>
<circle clip-path="url(#clip952)" cx="3044.48" cy="2075.67" r="21.6" fill="#ee7733" fill-rule="evenodd" fill-opacity="1" stroke="#000000" stroke-opacity="1" stroke-width="0"/>
<path clip-path="url(#clip950)" d="
M215.903 292.051 L592.152 292.051 L592.152 162.451 L215.903 162.451  Z
  " fill="#ffffff" fill-rule="evenodd" fill-opacity="0.9"/>
<polyline clip-path="url(#clip950)" style="stroke:#222255; stroke-linecap:butt; stroke-linejoin:round; stroke-width:4; stroke-opacity:0.1; fill:none" points="
  215.903,292.051 592.152,292.051 592.152,162.451 215.903,162.451 215.903,292.051 
  "/>
<circle clip-path="url(#clip950)" cx="340.187" cy="227.251" r="28.8" fill="#ee7733" fill-rule="evenodd" fill-opacity="1" stroke="#000000" stroke-opacity="1" stroke-width="0"/>
<path clip-path="url(#clip950)" d="M481.775 251.86 Q479.518 257.647 477.377 259.412 Q475.235 261.177 471.647 261.177 L467.394 261.177 L467.394 256.721 L470.519 256.721 Q472.718 256.721 473.933 255.68 Q475.149 254.638 476.624 250.761 L477.579 248.33 L464.472 216.444 L470.114 216.444 L480.241 241.791 L490.368 216.444 L496.011 216.444 L481.775 251.86 Z" fill="#000000" fill-rule="evenodd" fill-opacity="1" /><path clip-path="url(#clip950)" d="M505.125 243.932 L514.674 243.932 L514.674 210.975 L504.286 213.058 L504.286 207.734 L514.616 205.651 L520.461 205.651 L520.461 243.932 L530.009 243.932 L530.009 248.851 L505.125 248.851 L505.125 243.932 Z" fill="#000000" fill-rule="evenodd" fill-opacity="1" /></svg>
