<?xml version="1.0" encoding="utf-8"?>
<svg xmlns="http://www.w3.org/2000/svg" xmlns:xlink="http://www.w3.org/1999/xlink" width="800" height="600" viewBox="0 0 3200 2400">
<defs>
  <clipPath id="clip690">
    <rect x="0" y="0" width="3200" height="2400"/>
  </clipPath>
</defs>
<path clip-path="url(#clip690)" d="
M0 2400 L3200 2400 L3200 0 L0 0  Z
  " fill="#ffffff" fill-rule="evenodd" fill-opacity="1"/>
<defs>
  <clipPath id="clip691">
    <rect x="640" y="0" width="2241" height="2241"/>
  </clipPath>
</defs>
<path clip-path="url(#clip690)" d="
M298.595 2133.38 L3105.51 2133.38 L3105.51 94.4882 L298.595 94.4882  Z
  " fill="#ffffff" fill-rule="evenodd" fill-opacity="1"/>
<defs>
  <clipPath id="clip692">
    <rect x="298" y="94" width="2808" height="2040"/>
  </clipPath>
</defs>
<polyline clip-path="url(#clip692)" style="stroke:#222255; stroke-linecap:butt; stroke-linejoin:round; stroke-width:2; stroke-opacity:0.05; fill:none" points="
  378.037,2133.38 378.037,94.4882 
  "/>
<polyline clip-path="url(#clip692)" style="stroke:#222255; stroke-linecap:butt; stroke-linejoin:round; stroke-width:2; stroke-opacity:0.05; fill:none" points="
  1134.62,2133.38 1134.62,94.4882 
  "/>
<polyline clip-path="url(#clip692)" style="stroke:#222255; stroke-linecap:butt; stroke-linejoin:round; stroke-width:2; stroke-opacity:0.05; fill:none" points="
  1891.2,2133.38 1891.2,94.4882 
  "/>
<polyline clip-path="url(#clip692)" style="stroke:#222255; stroke-linecap:butt; stroke-linejoin:round; stroke-width:2; stroke-opacity:0.05; fill:none" points="
  2647.78,2133.38 2647.78,94.4882 
  "/>
<polyline clip-path="url(#clip692)" style="stroke:#222255; stroke-linecap:butt; stroke-linejoin:round; stroke-width:2; stroke-opacity:0.05; fill:none" points="
  529.353,2133.38 529.353,94.4882 
  "/>
<polyline clip-path="url(#clip692)" style="stroke:#222255; stroke-linecap:butt; stroke-linejoin:round; stroke-width:2; stroke-opacity:0.05; fill:none" points="
  680.669,2133.38 680.669,94.4882 
  "/>
<polyline clip-path="url(#clip692)" style="stroke:#222255; stroke-linecap:butt; stroke-linejoin:round; stroke-width:2; stroke-opacity:0.05; fill:none" points="
  831.985,2133.38 831.985,94.4882 
  "/>
<polyline clip-path="url(#clip692)" style="stroke:#222255; stroke-linecap:butt; stroke-linejoin:round; stroke-width:2; stroke-opacity:0.05; fill:none" points="
  983.301,2133.38 983.301,94.4882 
  "/>
<polyline clip-path="url(#clip692)" style="stroke:#222255; stroke-linecap:butt; stroke-linejoin:round; stroke-width:2; stroke-opacity:0.05; fill:none" points="
  1285.93,2133.38 1285.93,94.4882 
  "/>
<polyline clip-path="url(#clip692)" style="stroke:#222255; stroke-linecap:butt; stroke-linejoin:round; stroke-width:2; stroke-opacity:0.05; fill:none" points="
  1437.25,2133.38 1437.25,94.4882 
  "/>
<polyline clip-path="url(#clip692)" style="stroke:#222255; stroke-linecap:butt; stroke-linejoin:round; stroke-width:2; stroke-opacity:0.05; fill:none" points="
  1588.57,2133.38 1588.57,94.4882 
  "/>
<polyline clip-path="url(#clip692)" style="stroke:#222255; stroke-linecap:butt; stroke-linejoin:round; stroke-width:2; stroke-opacity:0.05; fill:none" points="
  1739.88,2133.38 1739.88,94.4882 
  "/>
<polyline clip-path="url(#clip692)" style="stroke:#222255; stroke-linecap:butt; stroke-linejoin:round; stroke-width:2; stroke-opacity:0.05; fill:none" points="
  2042.52,2133.38 2042.52,94.4882 
  "/>
<polyline clip-path="url(#clip692)" style="stroke:#222255; stroke-linecap:butt; stroke-linejoin:round; stroke-width:2; stroke-opacity:0.05; fill:none" points="
  2193.83,2133.38 2193.83,94.4882 
  "/>
<polyline clip-path="url(#clip692)" style="stroke:#222255; stroke-linecap:butt; stroke-linejoin:round; stroke-width:2; stroke-opacity:0.05; fill:none" points="
  2345.15,2133.38 2345.15,94.4882 
  "/>
<polyline clip-path="url(#clip692)" style="stroke:#222255; stroke-linecap:butt; stroke-linejoin:round; stroke-width:2; stroke-opacity:0.05; fill:none" points="
  2496.46,2133.38 2496.46,94.4882 
  "/>
<polyline clip-path="url(#clip692)" style="stroke:#222255; stroke-linecap:butt; stroke-linejoin:round; stroke-width:2; stroke-opacity:0.05; fill:none" points="
  2799.1,2133.38 2799.1,94.4882 
  "/>
<polyline clip-path="url(#clip692)" style="stroke:#222255; stroke-linecap:butt; stroke-linejoin:round; stroke-width:2; stroke-opacity:0.05; fill:none" points="
  2950.41,2133.38 2950.41,94.4882 
  "/>
<polyline clip-path="url(#clip692)" style="stroke:#222255; stroke-linecap:butt; stroke-linejoin:round; stroke-width:2; stroke-opacity:0.05; fill:none" points="
  3101.73,2133.38 3101.73,94.4882 
  "/>
<polyline clip-path="url(#clip690)" style="stroke:#000000; stroke-linecap:butt; stroke-linejoin:round; stroke-width:4; stroke-opacity:1; fill:none" points="
  298.595,2133.38 3105.51,2133.38 
  "/>
<polyline clip-path="url(#clip690)" style="stroke:#000000; stroke-linecap:butt; stroke-linejoin:round; stroke-width:4; stroke-opacity:1; fill:none" points="
  298.595,94.4882 3105.51,94.4882 
  "/>
<polyline clip-path="url(#clip690)" style="stroke:#000000; stroke-linecap:butt; stroke-linejoin:round; stroke-width:4; stroke-opacity:1; fill:none" points="
  378.037,2133.38 378.037,2114.48 
  "/>
<polyline clip-path="url(#clip690)" style="stroke:#000000; stroke-linecap:butt; stroke-linejoin:round; stroke-width:4; stroke-opacity:1; fill:none" points="
  1134.62,2133.38 1134.62,2114.48 
  "/>
<polyline clip-path="url(#clip690)" style="stroke:#000000; stroke-linecap:butt; stroke-linejoin:round; stroke-width:4; stroke-opacity:1; fill:none" points="
  1891.2,2133.38 1891.2,2114.48 
  "/>
<polyline clip-path="url(#clip690)" style="stroke:#000000; stroke-linecap:butt; stroke-linejoin:round; stroke-width:4; stroke-opacity:1; fill:none" points="
  2647.78,2133.38 2647.78,2114.48 
  "/>
<polyline clip-path="url(#clip690)" style="stroke:#000000; stroke-linecap:butt; stroke-linejoin:round; stroke-width:4; stroke-opacity:1; fill:none" points="
  529.353,2133.38 529.353,2123.93 
  "/>
<polyline clip-path="url(#clip690)" style="stroke:#000000; stroke-linecap:butt; stroke-linejoin:round; stroke-width:4; stroke-opacity:1; fill:none" points="
  680.669,2133.38 680.669,2123.93 
  "/>
<polyline clip-path="url(#clip690)" style="stroke:#000000; stroke-linecap:butt; stroke-linejoin:round; stroke-width:4; stroke-opacity:1; fill:none" points="
  831.985,2133.38 831.985,2123.93 
  "/>
<polyline clip-path="url(#clip690)" style="stroke:#000000; stroke-linecap:butt; stroke-linejoin:round; stroke-width:4; stroke-opacity:1; fill:none" points="
  983.301,2133.38 983.301,2123.93 
  "/>
<polyline clip-path="url(#clip690)" style="stroke:#000000; stroke-linecap:butt; stroke-linejoin:round; stroke-width:4; stroke-opacity:1; fill:none" points="
  1285.93,2133.38 1285.93,2123.93 
  "/>
<polyline clip-path="url(#clip690)" style="stroke:#000000; stroke-linecap:butt; stroke-linejoin:round; stroke-width:4; stroke-opacity:1; fill:none" points="
  1437.25,2133.38 1437.25,2123.93 
  "/>
<polyline clip-path="url(#clip690)" style="stroke:#000000; stroke-linecap:butt; stroke-linejoin:round; stroke-width:4; stroke-opacity:1; fill:none" points="
  1588.57,2133.38 1588.57,2123.93 
  "/>
<polyline clip-path="url(#clip690)" style="stroke:#000000; stroke-linecap:butt; stroke-linejoin:round; stroke-width:4; stroke-opacity:1; fill:none" points="
  1739.88,2133.38 1739.88,2123.93 
  "/>
<polyline clip-path="url(#clip690)" style="stroke:#000000; stroke-linecap:butt; stroke-linejoin:round; stroke-width:4; stroke-opacity:1; fill:none" points="
  2042.52,2133.38 2042.52,2123.93 
  "/>
<polyline clip-path="url(#clip690)" style="stroke:#000000; stroke-linecap:butt; stroke-linejoin:round; stroke-width:4; stroke-opacity:1; fill:none" points="
  2193.83,2133.38 2193.83,2123.93 
  "/>
<polyline clip-path="url(#clip690)" style="stroke:#000000; stroke-linecap:butt; stroke-linejoin:round; stroke-width:4; stroke-opacity:1; fill:none" points="
  2345.15,2133.38 2345.15,2123.93 
  "/>
<polyline clip-path="url(#clip690)" style="stroke:#000000; stroke-linecap:butt; stroke-linejoin:round; stroke-width:4; stroke-opacity:1; fill:none" points="
  2496.46,2133.38 2496.46,2123.93 
  "/>
<polyline clip-path="url(#clip690)" style="stroke:#000000; stroke-linecap:butt; stroke-linejoin:round; stroke-width:4; stroke-opacity:1; fill:none" points="
  2799.1,2133.38 2799.1,2123.93 
  "/>
<polyline clip-path="url(#clip690)" style="stroke:#000000; stroke-linecap:butt; stroke-linejoin:round; stroke-width:4; stroke-opacity:1; fill:none" points="
  2950.41,2133.38 2950.41,2123.93 
  "/>
<polyline clip-path="url(#clip690)" style="stroke:#000000; stroke-linecap:butt; stroke-linejoin:round; stroke-width:4; stroke-opacity:1; fill:none" points="
  3101.73,2133.38 3101.73,2123.93 
  "/>
<path clip-path="url(#clip690)" d="M378.037 2176.55 Q372.62 2176.55 369.877 2181.9 Q367.169 2187.21 367.169 2197.91 Q367.169 2208.57 369.877 2213.91 Q372.62 2219.23 378.037 2219.23 Q383.488 2219.23 386.196 2213.91 Q388.939 2208.57 388.939 2197.91 Q388.939 2187.21 386.196 2181.9 Q383.488 2176.55 378.037 2176.55 M378.037 2171 Q386.752 2171 391.335 2177.91 Q395.953 2184.78 395.953 2197.91 Q395.953 2211 391.335 2217.91 Q386.752 2224.78 378.037 2224.78 Q369.321 2224.78 364.703 2217.91 Q360.12 2211 360.12 2197.91 Q360.12 2184.78 364.703 2177.91 Q369.321 2171 378.037 2171 Z" fill="#000000" fill-rule="evenodd" fill-opacity="1" /><path clip-path="url(#clip690)" d="M1096.67 2171.94 L1124.2 2171.94 L1124.2 2177.84 L1103.09 2177.84 L1103.09 2190.55 Q1104.62 2190.03 1106.15 2189.78 Q1107.67 2189.51 1109.2 2189.51 Q1117.88 2189.51 1122.95 2194.26 Q1128.02 2199.02 1128.02 2207.14 Q1128.02 2215.51 1122.81 2220.16 Q1117.6 2224.78 1108.12 2224.78 Q1104.86 2224.78 1101.46 2224.23 Q1098.09 2223.67 1094.48 2222.56 L1094.48 2215.51 Q1097.6 2217.21 1100.94 2218.05 Q1104.27 2218.88 1107.99 2218.88 Q1113.99 2218.88 1117.5 2215.72 Q1121.01 2212.56 1121.01 2207.14 Q1121.01 2201.73 1117.5 2198.57 Q1113.99 2195.41 1107.99 2195.41 Q1105.17 2195.41 1102.36 2196.03 Q1099.58 2196.66 1096.67 2197.98 L1096.67 2171.94 Z" fill="#000000" fill-rule="evenodd" fill-opacity="1" /><path clip-path="url(#clip690)" d="M1156.84 2176.55 Q1151.42 2176.55 1148.68 2181.9 Q1145.97 2187.21 1145.97 2197.91 Q1145.97 2208.57 1148.68 2213.91 Q1151.42 2219.23 1156.84 2219.23 Q1162.29 2219.23 1165 2213.91 Q1167.74 2208.57 1167.74 2197.91 Q1167.74 2187.21 1165 2181.9 Q1162.29 2176.55 1156.84 2176.55 M1156.84 2171 Q1165.56 2171 1170.14 2177.91 Q1174.76 2184.78 1174.76 2197.91 Q1174.76 2211 1170.14 2217.91 Q1165.56 2224.78 1156.84 2224.78 Q1148.12 2224.78 1143.51 2217.91 Q1138.92 2211 1138.92 2197.91 Q1138.92 2184.78 1143.51 2177.91 Q1148.12 2171 1156.84 2171 Z" fill="#000000" fill-rule="evenodd" fill-opacity="1" /><path clip-path="url(#clip690)" d="M1830.61 2217.87 L1842.07 2217.87 L1842.07 2178.32 L1829.6 2180.82 L1829.6 2174.44 L1842 2171.94 L1849.01 2171.94 L1849.01 2217.87 L1860.47 2217.87 L1860.47 2223.78 L1830.61 2223.78 L1830.61 2217.87 Z" fill="#000000" fill-rule="evenodd" fill-opacity="1" /><path clip-path="url(#clip690)" d="M1889.64 2176.55 Q1884.22 2176.55 1881.48 2181.9 Q1878.77 2187.21 1878.77 2197.91 Q1878.77 2208.57 1881.48 2213.91 Q1884.22 2219.23 1889.64 2219.23 Q1895.09 2219.23 1897.8 2213.91 Q1900.54 2208.57 1900.54 2197.91 Q1900.54 2187.21 1897.8 2181.9 Q1895.09 2176.55 1889.64 2176.55 M1889.64 2171 Q1898.35 2171 1902.93 2177.91 Q1907.55 2184.78 1907.55 2197.91 Q1907.55 2211 1902.93 2217.91 Q1898.35 2224.78 1889.64 2224.78 Q1880.92 2224.78 1876.3 2217.91 Q1871.72 2211 1871.72 2197.91 Q1871.72 2184.78 1876.3 2177.91 Q1880.92 2171 1889.64 2171 Z" fill="#000000" fill-rule="evenodd" fill-opacity="1" /><path clip-path="url(#clip690)" d="M1934.88 2176.55 Q1929.46 2176.55 1926.72 2181.9 Q1924.01 2187.21 1924.01 2197.91 Q1924.01 2208.57 1926.72 2213.91 Q1929.46 2219.23 1934.88 2219.23 Q1940.33 2219.23 1943.04 2213.91 Q1945.78 2208.57 1945.78 2197.91 Q1945.78 2187.21 1943.04 2181.9 Q1940.33 2176.55 1934.88 2176.55 M1934.88 2171 Q1943.59 2171 1948.18 2177.91 Q1952.8 2184.78 1952.8 2197.91 Q1952.8 2211 1948.18 2217.91 Q1943.59 2224.78 1934.88 2224.78 Q1926.16 2224.78 1921.55 2217.91 Q1916.96 2211 1916.96 2197.91 Q1916.96 2184.78 1921.55 2177.91 Q1926.16 2171 1934.88 2171 Z" fill="#000000" fill-rule="evenodd" fill-opacity="1" /><path clip-path="url(#clip690)" d="M2587.19 2217.87 L2598.65 2217.87 L2598.65 2178.32 L2586.18 2180.82 L2586.18 2174.44 L2598.58 2171.94 L2605.59 2171.94 L2605.59 2217.87 L2617.05 2217.87 L2617.05 2223.78 L2587.19 2223.78 L2587.19 2217.87 Z" fill="#000000" fill-rule="evenodd" fill-opacity="1" /><path clip-path="url(#clip690)" d="M2631.29 2171.94 L2658.82 2171.94 L2658.82 2177.84 L2637.71 2177.84 L2637.71 2190.55 Q2639.24 2190.03 2640.77 2189.78 Q2642.29 2189.51 2643.82 2189.51 Q2652.5 2189.51 2657.57 2194.26 Q2662.64 2199.02 2662.64 2207.14 Q2662.64 2215.51 2657.43 2220.16 Q2652.22 2224.78 2642.75 2224.78 Q2639.48 2224.78 2636.08 2224.23 Q2632.71 2223.67 2629.1 2222.56 L2629.1 2215.51 Q2632.22 2217.21 2635.56 2218.05 Q2638.89 2218.88 2642.61 2218.88 Q2648.61 2218.88 2652.12 2215.72 Q2655.63 2212.56 2655.63 2207.14 Q2655.63 2201.73 2652.12 2198.57 Q2648.61 2195.41 2642.61 2195.41 Q2639.79 2195.41 2636.98 2196.03 Q2634.2 2196.66 2631.29 2197.98 L2631.29 2171.94 Z" fill="#000000" fill-rule="evenodd" fill-opacity="1" /><path clip-path="url(#clip690)" d="M2691.46 2176.55 Q2686.04 2176.55 2683.3 2181.9 Q2680.59 2187.21 2680.59 2197.91 Q2680.59 2208.57 2683.3 2213.91 Q2686.04 2219.23 2691.46 2219.23 Q2696.91 2219.23 2699.62 2213.91 Q2702.36 2208.57 2702.36 2197.91 Q2702.36 2187.21 2699.62 2181.9 Q2696.91 2176.55 2691.46 2176.55 M2691.46 2171 Q2700.18 2171 2704.76 2177.91 Q2709.38 2184.78 2709.38 2197.91 Q2709.38 2211 2704.76 2217.91 Q2700.18 2224.78 2691.46 2224.78 Q2682.75 2224.78 2678.13 2217.91 Q2673.54 2211 2673.54 2197.91 Q2673.54 2184.78 2678.13 2177.91 Q2682.75 2171 2691.46 2171 Z" fill="#000000" fill-rule="evenodd" fill-opacity="1" /><path clip-path="url(#clip690)" d="M1597.25 2288.36 L1597.25 2267.32 L1603.63 2267.32 L1603.63 2321.34 L1597.25 2321.34 L1597.25 2315.51 Q1595.23 2318.98 1592.14 2320.68 Q1589.09 2322.35 1584.78 2322.35 Q1577.73 2322.35 1573.29 2316.73 Q1568.88 2311.1 1568.88 2301.93 Q1568.88 2292.77 1573.29 2287.14 Q1577.73 2281.52 1584.78 2281.52 Q1589.09 2281.52 1592.14 2283.22 Q1595.23 2284.89 1597.25 2288.36 M1575.47 2301.93 Q1575.47 2308.98 1578.36 2313.01 Q1581.27 2317 1586.34 2317 Q1591.41 2317 1594.33 2313.01 Q1597.25 2308.98 1597.25 2301.93 Q1597.25 2294.89 1594.33 2290.89 Q1591.41 2286.86 1586.34 2286.86 Q1581.27 2286.86 1578.36 2290.89 Q1575.47 2294.89 1575.47 2301.93 Z" fill="#000000" fill-rule="evenodd" fill-opacity="1" /><path clip-path="url(#clip690)" d="M1636.62 2267.32 L1636.62 2281.66 Q1643.53 2281.66 1648.15 2286.97 Q1652.9 2292.39 1652.9 2301.93 Q1652.9 2311.48 1648.15 2316.9 Q1643.53 2322.21 1636.62 2322.21 L1636.62 2336.14 L1630.27 2336.14 L1630.27 2322.21 Q1623.36 2322.21 1618.7 2316.9 Q1613.98 2311.48 1613.98 2301.93 Q1613.98 2292.39 1618.7 2286.97 Q1623.36 2281.66 1630.27 2281.66 L1630.27 2267.32 L1636.62 2267.32 M1636.62 2316.52 Q1640.54 2316.52 1643.22 2312.94 Q1646.13 2308.95 1646.17 2301.93 Q1646.2 2294.99 1643.22 2290.93 Q1640.54 2287.35 1636.62 2287.35 L1636.62 2316.52 M1630.27 2316.52 L1630.27 2287.35 Q1626.34 2287.35 1623.7 2290.93 Q1620.68 2294.99 1620.72 2301.93 Q1620.75 2308.95 1623.7 2312.94 Q1626.34 2316.52 1630.27 2316.52 Z" fill="#000000" fill-rule="evenodd" fill-opacity="1" /><path clip-path="url(#clip690)" d="M1711.1 2283.6 L1711.1 2289.64 Q1708.39 2288.25 1705.47 2287.56 Q1702.56 2286.86 1699.43 2286.86 Q1694.68 2286.86 1692.28 2288.32 Q1689.92 2289.78 1689.92 2292.7 Q1689.92 2294.92 1691.62 2296.2 Q1693.32 2297.45 1698.46 2298.6 L1700.65 2299.09 Q1707.45 2300.55 1710.3 2303.22 Q1713.18 2305.86 1713.18 2310.61 Q1713.18 2316.03 1708.88 2319.19 Q1704.61 2322.35 1697.11 2322.35 Q1693.98 2322.35 1690.58 2321.73 Q1687.21 2321.14 1683.46 2319.92 L1683.46 2313.32 Q1687 2315.16 1690.44 2316.1 Q1693.88 2317 1697.24 2317 Q1701.76 2317 1704.19 2315.48 Q1706.62 2313.91 1706.62 2311.1 Q1706.62 2308.5 1704.85 2307.11 Q1703.11 2305.72 1697.18 2304.43 L1694.95 2303.91 Q1689.02 2302.66 1686.38 2300.09 Q1683.74 2297.49 1683.74 2292.98 Q1683.74 2287.49 1687.63 2284.5 Q1691.52 2281.52 1698.67 2281.52 Q1702.21 2281.52 1705.33 2282.04 Q1708.46 2282.56 1711.1 2283.6 Z" fill="#000000" fill-rule="evenodd" fill-opacity="1" /><path clip-path="url(#clip690)" d="M1723.36 2267.32 L1729.74 2267.32 L1729.74 2321.34 L1723.36 2321.34 L1723.36 2267.32 Z" fill="#000000" fill-rule="evenodd" fill-opacity="1" /><path clip-path="url(#clip690)" d="M1743.11 2282.46 L1749.5 2282.46 L1749.5 2321.34 L1743.11 2321.34 L1743.11 2282.46 M1743.11 2267.32 L1749.5 2267.32 L1749.5 2275.41 L1743.11 2275.41 L1743.11 2267.32 Z" fill="#000000" fill-rule="evenodd" fill-opacity="1" /><path clip-path="url(#clip690)" d="M1790.86 2283.95 L1790.86 2289.92 Q1788.15 2288.43 1785.4 2287.7 Q1782.7 2286.93 1779.92 2286.93 Q1773.7 2286.93 1770.27 2290.89 Q1766.83 2294.82 1766.83 2301.93 Q1766.83 2309.05 1770.27 2313.01 Q1773.7 2316.93 1779.92 2316.93 Q1782.7 2316.93 1785.4 2316.2 Q1788.15 2315.44 1790.86 2313.95 L1790.86 2319.85 Q1788.18 2321.1 1785.3 2321.73 Q1782.45 2322.35 1779.22 2322.35 Q1770.44 2322.35 1765.27 2316.83 Q1760.09 2311.31 1760.09 2301.93 Q1760.09 2292.42 1765.3 2286.97 Q1770.54 2281.52 1779.64 2281.52 Q1782.59 2281.52 1785.4 2282.14 Q1788.22 2282.73 1790.86 2283.95 Z" fill="#000000" fill-rule="evenodd" fill-opacity="1" /><path clip-path="url(#clip690)" d="M1835.23 2300.3 L1835.23 2303.43 L1805.86 2303.43 Q1806.27 2310.02 1809.81 2313.5 Q1813.39 2316.93 1819.74 2316.93 Q1823.42 2316.93 1826.86 2316.03 Q1830.33 2315.13 1833.74 2313.32 L1833.74 2319.36 Q1830.3 2320.82 1826.69 2321.59 Q1823.08 2322.35 1819.36 2322.35 Q1810.06 2322.35 1804.61 2316.93 Q1799.19 2311.52 1799.19 2302.28 Q1799.19 2292.73 1804.33 2287.14 Q1809.5 2281.52 1818.25 2281.52 Q1826.1 2281.52 1830.65 2286.59 Q1835.23 2291.62 1835.23 2300.3 M1828.84 2298.43 Q1828.77 2293.18 1825.89 2290.06 Q1823.04 2286.93 1818.32 2286.93 Q1812.97 2286.93 1809.74 2289.96 Q1806.55 2292.98 1806.06 2298.46 L1828.84 2298.43 Z" fill="#000000" fill-rule="evenodd" fill-opacity="1" /><polyline clip-path="url(#clip692)" style="stroke:#222255; stroke-linecap:butt; stroke-linejoin:round; stroke-width:2; stroke-opacity:0.05; fill:none" points="
  298.595,2053.37 3105.51,2053.37 
  "/>
<polyline clip-path="url(#clip692)" style="stroke:#222255; stroke-linecap:butt; stroke-linejoin:round; stroke-width:2; stroke-opacity:0.05; fill:none" points="
  298.595,1516.91 3105.51,1516.91 
  "/>
<polyline clip-path="url(#clip692)" style="stroke:#222255; stroke-linecap:butt; stroke-linejoin:round; stroke-width:2; stroke-opacity:0.05; fill:none" points="
  298.595,980.449 3105.51,980.449 
  "/>
<polyline clip-path="url(#clip692)" style="stroke:#222255; stroke-linecap:butt; stroke-linejoin:round; stroke-width:2; stroke-opacity:0.05; fill:none" points="
  298.595,443.989 3105.51,443.989 
  "/>
<polyline clip-path="url(#clip692)" style="stroke:#222255; stroke-linecap:butt; stroke-linejoin:round; stroke-width:2; stroke-opacity:0.05; fill:none" points="
  298.595,1946.08 3105.51,1946.08 
  "/>
<polyline clip-path="url(#clip692)" style="stroke:#222255; stroke-linecap:butt; stroke-linejoin:round; stroke-width:2; stroke-opacity:0.05; fill:none" points="
  298.595,1838.79 3105.51,1838.79 
  "/>
<polyline clip-path="url(#clip692)" style="stroke:#222255; stroke-linecap:butt; stroke-linejoin:round; stroke-width:2; stroke-opacity:0.05; fill:none" points="
  298.595,1731.49 3105.51,1731.49 
  "/>
<polyline clip-path="url(#clip692)" style="stroke:#222255; stroke-linecap:butt; stroke-linejoin:round; stroke-width:2; stroke-opacity:0.05; fill:none" points="
  298.595,1624.2 3105.51,1624.2 
  "/>
<polyline clip-path="url(#clip692)" style="stroke:#222255; stroke-linecap:butt; stroke-linejoin:round; stroke-width:2; stroke-opacity:0.05; fill:none" points="
  298.595,1409.62 3105.51,1409.62 
  "/>
<polyline clip-path="url(#clip692)" style="stroke:#222255; stroke-linecap:butt; stroke-linejoin:round; stroke-width:2; stroke-opacity:0.05; fill:none" points="
  298.595,1302.32 3105.51,1302.32 
  "/>
<polyline clip-path="url(#clip692)" style="stroke:#222255; stroke-linecap:butt; stroke-linejoin:round; stroke-width:2; stroke-opacity:0.05; fill:none" points="
  298.595,1195.03 3105.51,1195.03 
  "/>
<polyline clip-path="url(#clip692)" style="stroke:#222255; stroke-linecap:butt; stroke-linejoin:round; stroke-width:2; stroke-opacity:0.05; fill:none" points="
  298.595,1087.74 3105.51,1087.74 
  "/>
<polyline clip-path="url(#clip692)" style="stroke:#222255; stroke-linecap:butt; stroke-linejoin:round; stroke-width:2; stroke-opacity:0.05; fill:none" points="
  298.595,873.157 3105.51,873.157 
  "/>
<polyline clip-path="url(#clip692)" style="stroke:#222255; stroke-linecap:butt; stroke-linejoin:round; stroke-width:2; stroke-opacity:0.05; fill:none" points="
  298.595,765.865 3105.51,765.865 
  "/>
<polyline clip-path="url(#clip692)" style="stroke:#222255; stroke-linecap:butt; stroke-linejoin:round; stroke-width:2; stroke-opacity:0.05; fill:none" points="
  298.595,658.573 3105.51,658.573 
  "/>
<polyline clip-path="url(#clip692)" style="stroke:#222255; stroke-linecap:butt; stroke-linejoin:round; stroke-width:2; stroke-opacity:0.05; fill:none" points="
  298.595,551.281 3105.51,551.281 
  "/>
<polyline clip-path="url(#clip692)" style="stroke:#222255; stroke-linecap:butt; stroke-linejoin:round; stroke-width:2; stroke-opacity:0.05; fill:none" points="
  298.595,336.697 3105.51,336.697 
  "/>
<polyline clip-path="url(#clip692)" style="stroke:#222255; stroke-linecap:butt; stroke-linejoin:round; stroke-width:2; stroke-opacity:0.05; fill:none" points="
  298.595,229.405 3105.51,229.405 
  "/>
<polyline clip-path="url(#clip692)" style="stroke:#222255; stroke-linecap:butt; stroke-linejoin:round; stroke-width:2; stroke-opacity:0.05; fill:none" points="
  298.595,122.113 3105.51,122.113 
  "/>
<polyline clip-path="url(#clip690)" style="stroke:#000000; stroke-linecap:butt; stroke-linejoin:round; stroke-width:4; stroke-opacity:1; fill:none" points="
  298.595,2133.38 298.595,94.4882 
  "/>
<polyline clip-path="url(#clip690)" style="stroke:#000000; stroke-linecap:butt; stroke-linejoin:round; stroke-width:4; stroke-opacity:1; fill:none" points="
  3105.51,2133.38 3105.51,94.4882 
  "/>
<polyline clip-path="url(#clip690)" style="stroke:#000000; stroke-linecap:butt; stroke-linejoin:round; stroke-width:4; stroke-opacity:1; fill:none" points="
  298.595,2053.37 317.493,2053.37 
  "/>
<polyline clip-path="url(#clip690)" style="stroke:#000000; stroke-linecap:butt; stroke-linejoin:round; stroke-width:4; stroke-opacity:1; fill:none" points="
  298.595,1516.91 317.493,1516.91 
  "/>
<polyline clip-path="url(#clip690)" style="stroke:#000000; stroke-linecap:butt; stroke-linejoin:round; stroke-width:4; stroke-opacity:1; fill:none" points="
  298.595,980.449 317.493,980.449 
  "/>
<polyline clip-path="url(#clip690)" style="stroke:#000000; stroke-linecap:butt; stroke-linejoin:round; stroke-width:4; stroke-opacity:1; fill:none" points="
  298.595,443.989 317.493,443.989 
  "/>
<polyline clip-path="url(#clip690)" style="stroke:#000000; stroke-linecap:butt; stroke-linejoin:round; stroke-width:4; stroke-opacity:1; fill:none" points="
  298.595,1946.08 308.044,1946.08 
  "/>
<polyline clip-path="url(#clip690)" style="stroke:#000000; stroke-linecap:butt; stroke-linejoin:round; stroke-width:4; stroke-opacity:1; fill:none" points="
  298.595,1838.79 308.044,1838.79 
  "/>
<polyline clip-path="url(#clip690)" style="stroke:#000000; stroke-linecap:butt; stroke-linejoin:round; stroke-width:4; stroke-opacity:1; fill:none" points="
  298.595,1731.49 308.044,1731.49 
  "/>
<polyline clip-path="url(#clip690)" style="stroke:#000000; stroke-linecap:butt; stroke-linejoin:round; stroke-width:4; stroke-opacity:1; fill:none" points="
  298.595,1624.2 308.044,1624.2 
  "/>
<polyline clip-path="url(#clip690)" style="stroke:#000000; stroke-linecap:butt; stroke-linejoin:round; stroke-width:4; stroke-opacity:1; fill:none" points="
  298.595,1409.62 308.044,1409.62 
  "/>
<polyline clip-path="url(#clip690)" style="stroke:#000000; stroke-linecap:butt; stroke-linejoin:round; stroke-width:4; stroke-opacity:1; fill:none" points="
  298.595,1302.32 308.044,1302.32 
  "/>
<polyline clip-path="url(#clip690)" style="stroke:#000000; stroke-linecap:butt; stroke-linejoin:round; stroke-width:4; stroke-opacity:1; fill:none" points="
  298.595,1195.03 308.044,1195.03 
  "/>
<polyline clip-path="url(#clip690)" style="stroke:#000000; stroke-linecap:butt; stroke-linejoin:round; stroke-width:4; stroke-opacity:1; fill:none" points="
  298.595,1087.74 308.044,1087.74 
  "/>
<polyline clip-path="url(#clip690)" style="stroke:#000000; stroke-linecap:butt; stroke-linejoin:round; stroke-width:4; stroke-opacity:1; fill:none" points="
  298.595,873.157 308.044,873.157 
  "/>
<polyline clip-path="url(#clip690)" style="stroke:#000000; stroke-linecap:butt; stroke-linejoin:round; stroke-width:4; stroke-opacity:1; fill:none" points="
  298.595,765.865 308.044,765.865 
  "/>
<polyline clip-path="url(#clip690)" style="stroke:#000000; stroke-linecap:butt; stroke-linejoin:round; stroke-width:4; stroke-opacity:1; fill:none" points="
  298.595,658.573 308.044,658.573 
  "/>
<polyline clip-path="url(#clip690)" style="stroke:#000000; stroke-linecap:butt; stroke-linejoin:round; stroke-width:4; stroke-opacity:1; fill:none" points="
  298.595,551.281 308.044,551.281 
  "/>
<polyline clip-path="url(#clip690)" style="stroke:#000000; stroke-linecap:butt; stroke-linejoin:round; stroke-width:4; stroke-opacity:1; fill:none" points="
  298.595,336.697 308.044,336.697 
  "/>
<polyline clip-path="url(#clip690)" style="stroke:#000000; stroke-linecap:butt; stroke-linejoin:round; stroke-width:4; stroke-opacity:1; fill:none" points="
  298.595,229.405 308.044,229.405 
  "/>
<polyline clip-path="url(#clip690)" style="stroke:#000000; stroke-linecap:butt; stroke-linejoin:round; stroke-width:4; stroke-opacity:1; fill:none" points="
  298.595,122.113 308.044,122.113 
  "/>
<path clip-path="url(#clip690)" d="M191.707 2033.56 L173.999 2061.23 L191.707 2061.23 L191.707 2033.56 M189.867 2027.45 L198.686 2027.45 L198.686 2061.23 L206.082 2061.23 L206.082 2067.07 L198.686 2067.07 L198.686 2079.29 L191.707 2079.29 L191.707 2067.07 L168.304 2067.07 L168.304 2060.3 L189.867 2027.45 Z" fill="#000000" fill-rule="evenodd" fill-opacity="1" /><path clip-path="url(#clip690)" d="M232.679 2032.07 Q227.262 2032.07 224.519 2037.41 Q221.811 2042.73 221.811 2053.42 Q221.811 2064.08 224.519 2069.43 Q227.262 2074.74 232.679 2074.74 Q238.13 2074.74 240.839 2069.43 Q243.582 2064.08 243.582 2053.42 Q243.582 2042.73 240.839 2037.41 Q238.13 2032.07 232.679 2032.07 M232.679 2026.51 Q241.394 2026.51 245.977 2033.42 Q250.595 2040.3 250.595 2053.42 Q250.595 2066.51 245.977 2073.42 Q241.394 2080.3 232.679 2080.3 Q223.964 2080.3 219.346 2073.42 Q214.762 2066.51 214.762 2053.42 Q214.762 2040.3 219.346 2033.42 Q223.964 2026.51 232.679 2026.51 Z" fill="#000000" fill-rule="evenodd" fill-opacity="1" /><path clip-path="url(#clip690)" d="M193.2 1497.1 L175.492 1524.77 L193.2 1524.77 L193.2 1497.1 M191.36 1490.99 L200.179 1490.99 L200.179 1524.77 L207.575 1524.77 L207.575 1530.61 L200.179 1530.61 L200.179 1542.83 L193.2 1542.83 L193.2 1530.61 L169.797 1530.61 L169.797 1523.84 L191.36 1490.99 Z" fill="#000000" fill-rule="evenodd" fill-opacity="1" /><path clip-path="url(#clip690)" d="M219.241 1490.99 L246.776 1490.99 L246.776 1496.89 L225.665 1496.89 L225.665 1509.6 Q227.193 1509.08 228.721 1508.84 Q230.248 1508.56 231.776 1508.56 Q240.457 1508.56 245.526 1513.32 Q250.595 1518.07 250.595 1526.2 Q250.595 1534.57 245.387 1539.22 Q240.179 1543.84 230.7 1543.84 Q227.436 1543.84 224.033 1543.28 Q220.665 1542.72 217.054 1541.61 L217.054 1534.57 Q220.179 1536.27 223.512 1537.1 Q226.846 1537.93 230.561 1537.93 Q236.568 1537.93 240.075 1534.77 Q243.582 1531.61 243.582 1526.2 Q243.582 1520.78 240.075 1517.62 Q236.568 1514.46 230.561 1514.46 Q227.748 1514.46 224.936 1515.09 Q222.158 1515.71 219.241 1517.03 L219.241 1490.99 Z" fill="#000000" fill-rule="evenodd" fill-opacity="1" /><path clip-path="url(#clip690)" d="M172.506 954.529 L200.04 954.529 L200.04 960.432 L178.929 960.432 L178.929 973.14 Q180.457 972.619 181.985 972.376 Q183.513 972.098 185.04 972.098 Q193.721 972.098 198.79 976.855 Q203.86 981.612 203.86 989.737 Q203.86 998.105 198.651 1002.76 Q193.443 1007.38 183.964 1007.38 Q180.7 1007.38 177.297 1006.82 Q173.929 1006.26 170.318 1005.15 L170.318 998.105 Q173.443 999.807 176.776 1000.64 Q180.11 1001.47 183.825 1001.47 Q189.832 1001.47 193.339 998.313 Q196.846 995.154 196.846 989.737 Q196.846 984.321 193.339 981.161 Q189.832 978.001 183.825 978.001 Q181.013 978.001 178.2 978.626 Q175.422 979.251 172.506 980.571 L172.506 954.529 Z" fill="#000000" fill-rule="evenodd" fill-opacity="1" /><path clip-path="url(#clip690)" d="M232.679 959.147 Q227.262 959.147 224.519 964.494 Q221.811 969.807 221.811 980.501 Q221.811 991.161 224.519 996.508 Q227.262 1001.82 232.679 1001.82 Q238.13 1001.82 240.839 996.508 Q243.582 991.161 243.582 980.501 Q243.582 969.807 240.839 964.494 Q238.13 959.147 232.679 959.147 M232.679 953.592 Q241.394 953.592 245.977 960.501 Q250.595 967.376 250.595 980.501 Q250.595 993.591 245.977 1000.5 Q241.394 1007.38 232.679 1007.38 Q223.964 1007.38 219.346 1000.5 Q214.762 993.591 214.762 980.501 Q214.762 967.376 219.346 960.501 Q223.964 953.592 232.679 953.592 Z" fill="#000000" fill-rule="evenodd" fill-opacity="1" /><path clip-path="url(#clip690)" d="M173.999 418.069 L201.533 418.069 L201.533 423.972 L180.422 423.972 L180.422 436.68 Q181.95 436.159 183.478 435.916 Q185.006 435.638 186.533 435.638 Q195.214 435.638 200.283 440.395 Q205.353 445.152 205.353 453.277 Q205.353 461.645 200.144 466.298 Q194.936 470.916 185.457 470.916 Q182.193 470.916 178.79 470.36 Q175.422 469.805 171.811 468.694 L171.811 461.645 Q174.936 463.347 178.269 464.18 Q181.603 465.013 185.318 465.013 Q191.325 465.013 194.832 461.853 Q198.339 458.694 198.339 453.277 Q198.339 447.86 194.832 444.701 Q191.325 441.541 185.318 441.541 Q182.506 441.541 179.693 442.166 Q176.915 442.791 173.999 444.111 L173.999 418.069 Z" fill="#000000" fill-rule="evenodd" fill-opacity="1" /><path clip-path="url(#clip690)" d="M219.241 418.069 L246.776 418.069 L246.776 423.972 L225.665 423.972 L225.665 436.68 Q227.193 436.159 228.721 435.916 Q230.248 435.638 231.776 435.638 Q240.457 435.638 245.526 440.395 Q250.595 445.152 250.595 453.277 Q250.595 461.645 245.387 466.298 Q240.179 470.916 230.7 470.916 Q227.436 470.916 224.033 470.36 Q220.665 469.805 217.054 468.694 L217.054 461.645 Q220.179 463.347 223.512 464.18 Q226.846 465.013 230.561 465.013 Q236.568 465.013 240.075 461.853 Q243.582 458.694 243.582 453.277 Q243.582 447.86 240.075 444.701 Q236.568 441.541 230.561 441.541 Q227.748 441.541 224.936 442.166 Q222.158 442.791 219.241 444.111 L219.241 418.069 Z" fill="#000000" fill-rule="evenodd" fill-opacity="1" /><path clip-path="url(#clip690)" d="M71.8358 1153.34 Q71.2108 1154.42 70.933 1155.7 Q70.6205 1156.95 70.6205 1158.48 Q70.6205 1163.9 74.1621 1166.81 Q77.6691 1169.7 84.2663 1169.7 L104.752 1169.7 L104.752 1176.12 L65.8636 1176.12 L65.8636 1169.7 L71.9052 1169.7 Q68.3636 1167.68 66.6622 1164.45 Q64.9261 1161.22 64.9261 1156.61 Q64.9261 1155.95 65.0302 1155.15 Q65.0997 1154.35 65.2733 1153.38 L71.8358 1153.34 Z" fill="#000000" fill-rule="evenodd" fill-opacity="1" /><path clip-path="url(#clip690)" d="M73.3288 1117.61 Q69.0233 1115.22 66.9747 1111.88 Q64.9261 1108.55 64.9261 1104.04 Q64.9261 1097.96 69.1969 1094.66 Q73.433 1091.36 81.2802 1091.36 L104.752 1091.36 L104.752 1097.79 L81.4885 1097.79 Q75.8982 1097.79 73.1899 1099.77 Q70.4816 1101.74 70.4816 1105.81 Q70.4816 1110.77 73.7802 1113.65 Q77.0788 1116.54 82.7732 1116.54 L104.752 1116.54 L104.752 1122.96 L81.4885 1122.96 Q75.8635 1122.96 73.1899 1124.94 Q70.4816 1126.92 70.4816 1131.05 Q70.4816 1135.95 73.8149 1138.83 Q77.1135 1141.71 82.7732 1141.71 L104.752 1141.71 L104.752 1148.13 L65.8636 1148.13 L65.8636 1141.71 L71.9052 1141.71 Q68.3288 1139.52 66.6275 1136.47 Q64.9261 1133.41 64.9261 1129.21 Q64.9261 1124.97 67.0788 1122.02 Q69.2316 1119.04 73.3288 1117.61 Z" fill="#000000" fill-rule="evenodd" fill-opacity="1" /><path clip-path="url(#clip690)" d="M67.0094 1053.83 L73.051 1053.83 Q71.6622 1056.54 70.9677 1059.45 Q70.2733 1062.37 70.2733 1065.49 Q70.2733 1070.25 71.7316 1072.65 Q73.1899 1075.01 76.1066 1075.01 Q78.3288 1075.01 79.6135 1073.31 Q80.8635 1071.61 82.0093 1066.47 L82.4954 1064.28 Q83.9538 1057.47 86.6273 1054.63 Q89.2662 1051.74 94.0231 1051.74 Q99.4398 1051.74 102.599 1056.05 Q105.759 1060.32 105.759 1067.82 Q105.759 1070.95 105.134 1074.35 Q104.544 1077.72 103.329 1081.47 L96.7315 1081.47 Q98.5717 1077.93 99.5092 1074.49 Q100.412 1071.05 100.412 1067.68 Q100.412 1063.17 98.8842 1060.74 Q97.3217 1058.31 94.5093 1058.31 Q91.9051 1058.31 90.5162 1060.08 Q89.1273 1061.81 87.8426 1067.75 L87.3218 1069.97 Q86.0718 1075.91 83.5024 1078.55 Q80.8982 1081.19 76.3843 1081.19 Q70.8983 1081.19 67.9122 1077.3 Q64.9261 1073.41 64.9261 1066.26 Q64.9261 1062.72 65.4469 1059.59 Q65.9677 1056.47 67.0094 1053.83 Z" fill="#000000" fill-rule="evenodd" fill-opacity="1" /><circle clip-path="url(#clip692)" cx="378.037" cy="287.598" r="10.8" fill="#ee7733" fill-rule="evenodd" fill-opacity="1" stroke="#000000" stroke-opacity="1" stroke-width="0"/>
<circle clip-path="url(#clip692)" cx="453.695" cy="850.252" r="10.8" fill="#ee7733" fill-rule="evenodd" fill-opacity="1" stroke="#000000" stroke-opacity="1" stroke-width="0"/>
<circle clip-path="url(#clip692)" cx="529.353" cy="1143.63" r="10.8" fill="#ee7733" fill-rule="evenodd" fill-opacity="1" stroke="#000000" stroke-opacity="1" stroke-width="0"/>
<circle clip-path="url(#clip692)" cx="605.011" cy="1278.98" r="10.8" fill="#ee7733" fill-rule="evenodd" fill-opacity="1" stroke="#000000" stroke-opacity="1" stroke-width="0"/>
<circle clip-path="url(#clip692)" cx="680.669" cy="1329.33" r="10.8" fill="#ee7733" fill-rule="evenodd" fill-opacity="1" stroke="#000000" stroke-opacity="1" stroke-width="0"/>
<circle clip-path="url(#clip692)" cx="756.327" cy="1370.11" r="10.8" fill="#ee7733" fill-rule="evenodd" fill-opacity="1" stroke="#000000" stroke-opacity="1" stroke-width="0"/>
<circle clip-path="url(#clip692)" cx="831.985" cy="1367.7" r="10.8" fill="#ee7733" fill-rule="evenodd" fill-opacity="1" stroke="#000000" stroke-opacity="1" stroke-width="0"/>
<circle clip-path="url(#clip692)" cx="907.643" cy="1370.53" r="10.8" fill="#ee7733" fill-rule="evenodd" fill-opacity="1" stroke="#000000" stroke-opacity="1" stroke-width="0"/>
<circle clip-path="url(#clip692)" cx="983.301" cy="1371.95" r="10.8" fill="#ee7733" fill-rule="evenodd" fill-opacity="1" stroke="#000000" stroke-opacity="1" stroke-width="0"/>
<circle clip-path="url(#clip692)" cx="1058.96" cy="1370.25" r="10.8" fill="#ee7733" fill-rule="evenodd" fill-opacity="1" stroke="#000000" stroke-opacity="1" stroke-width="0"/>
<circle clip-path="url(#clip692)" cx="1134.62" cy="1374.41" r="10.8" fill="#ee7733" fill-rule="evenodd" fill-opacity="1" stroke="#000000" stroke-opacity="1" stroke-width="0"/>
<circle clip-path="url(#clip692)" cx="1210.28" cy="1395.56" r="10.8" fill="#ee7733" fill-rule="evenodd" fill-opacity="1" stroke="#000000" stroke-opacity="1" stroke-width="0"/>
<circle clip-path="url(#clip692)" cx="1285.93" cy="1422.86" r="10.8" fill="#ee7733" fill-rule="evenodd" fill-opacity="1" stroke="#000000" stroke-opacity="1" stroke-width="0"/>
<circle clip-path="url(#clip692)" cx="1361.59" cy="1445.81" r="10.8" fill="#ee7733" fill-rule="evenodd" fill-opacity="1" stroke="#000000" stroke-opacity="1" stroke-width="0"/>
<circle clip-path="url(#clip692)" cx="1437.25" cy="1461.67" r="10.8" fill="#ee7733" fill-rule="evenodd" fill-opacity="1" stroke="#000000" stroke-opacity="1" stroke-width="0"/>
<circle clip-path="url(#clip692)" cx="1512.91" cy="1475.31" r="10.8" fill="#ee7733" fill-rule="evenodd" fill-opacity="1" stroke="#000000" stroke-opacity="1" stroke-width="0"/>
<circle clip-path="url(#clip692)" cx="1588.57" cy="1492.54" r="10.8" fill="#ee7733" fill-rule="evenodd" fill-opacity="1" stroke="#000000" stroke-opacity="1" stroke-width="0"/>
<circle clip-path="url(#clip692)" cx="1664.22" cy="1495.72" r="10.8" fill="#ee7733" fill-rule="evenodd" fill-opacity="1" stroke="#000000" stroke-opacity="1" stroke-width="0"/>
<circle clip-path="url(#clip692)" cx="1739.88" cy="1477.02" r="10.8" fill="#ee7733" fill-rule="evenodd" fill-opacity="1" stroke="#000000" stroke-opacity="1" stroke-width="0"/>
<circle clip-path="url(#clip692)" cx="1815.54" cy="1462.21" r="10.8" fill="#ee7733" fill-rule="evenodd" fill-opacity="1" stroke="#000000" stroke-opacity="1" stroke-width="0"/>
<circle clip-path="url(#clip692)" cx="1891.2" cy="1436.54" r="10.8" fill="#ee7733" fill-rule="evenodd" fill-opacity="1" stroke="#000000" stroke-opacity="1" stroke-width="0"/>
<circle clip-path="url(#clip692)" cx="1966.86" cy="1413.81" r="10.8" fill="#ee7733" fill-rule="evenodd" fill-opacity="1" stroke="#000000" stroke-opacity="1" stroke-width="0"/>
<circle clip-path="url(#clip692)" cx="2042.52" cy="1378.25" r="10.8" fill="#ee7733" fill-rule="evenodd" fill-opacity="1" stroke="#000000" stroke-opacity="1" stroke-width="0"/>
<circle clip-path="url(#clip692)" cx="2118.17" cy="1358.32" r="10.8" fill="#ee7733" fill-rule="evenodd" fill-opacity="1" stroke="#000000" stroke-opacity="1" stroke-width="0"/>
<circle clip-path="url(#clip692)" cx="2193.83" cy="1323.98" r="10.8" fill="#ee7733" fill-rule="evenodd" fill-opacity="1" stroke="#000000" stroke-opacity="1" stroke-width="0"/>
<circle clip-path="url(#clip692)" cx="2269.49" cy="1305.42" r="10.8" fill="#ee7733" fill-rule="evenodd" fill-opacity="1" stroke="#000000" stroke-opacity="1" stroke-width="0"/>
<circle clip-path="url(#clip692)" cx="2345.15" cy="1296.63" r="10.8" fill="#ee7733" fill-rule="evenodd" fill-opacity="1" stroke="#000000" stroke-opacity="1" stroke-width="0"/>
<circle clip-path="url(#clip692)" cx="2420.81" cy="1260.07" r="10.8" fill="#ee7733" fill-rule="evenodd" fill-opacity="1" stroke="#000000" stroke-opacity="1" stroke-width="0"/>
<circle clip-path="url(#clip692)" cx="2496.46" cy="1234.64" r="10.8" fill="#ee7733" fill-rule="evenodd" fill-opacity="1" stroke="#000000" stroke-opacity="1" stroke-width="0"/>
<circle clip-path="url(#clip692)" cx="2572.12" cy="1196.77" r="10.8" fill="#ee7733" fill-rule="evenodd" fill-opacity="1" stroke="#000000" stroke-opacity="1" stroke-width="0"/>
<circle clip-path="url(#clip692)" cx="2647.78" cy="1128.45" r="10.8" fill="#ee7733" fill-rule="evenodd" fill-opacity="1" stroke="#000000" stroke-opacity="1" stroke-width="0"/>
<circle clip-path="url(#clip692)" cx="2723.44" cy="1036.32" r="10.8" fill="#ee7733" fill-rule="evenodd" fill-opacity="1" stroke="#000000" stroke-opacity="1" stroke-width="0"/>
<circle clip-path="url(#clip692)" cx="2799.1" cy="894.87" r="10.8" fill="#ee7733" fill-rule="evenodd" fill-opacity="1" stroke="#000000" stroke-opacity="1" stroke-width="0"/>
<circle clip-path="url(#clip692)" cx="2874.75" cy="702.248" r="10.8" fill="#ee7733" fill-rule="evenodd" fill-opacity="1" stroke="#000000" stroke-opacity="1" stroke-width="0"/>
<circle clip-path="url(#clip692)" cx="2950.41" cy="456.013" r="10.8" fill="#ee7733" fill-rule="evenodd" fill-opacity="1" stroke="#000000" stroke-opacity="1" stroke-width="0"/>
<circle clip-path="url(#clip692)" cx="3026.07" cy="152.193" r="10.8" fill="#ee7733" fill-rule="evenodd" fill-opacity="1" stroke="#000000" stroke-opacity="1" stroke-width="0"/>
<circle clip-path="url(#clip692)" cx="378.037" cy="1850.11" r="10.8" fill="#0077bb" fill-rule="evenodd" fill-opacity="1" stroke="#000000" stroke-opacity="1" stroke-width="0"/>
<circle clip-path="url(#clip692)" cx="453.695" cy="2033.21" r="10.8" fill="#0077bb" fill-rule="evenodd" fill-opacity="1" stroke="#000000" stroke-opacity="1" stroke-width="0"/>
<circle clip-path="url(#clip692)" cx="529.353" cy="2075.67" r="10.8" fill="#0077bb" fill-rule="evenodd" fill-opacity="1" stroke="#000000" stroke-opacity="1" stroke-width="0"/>
<circle clip-path="url(#clip692)" cx="605.011" cy="2049.32" r="10.8" fill="#0077bb" fill-rule="evenodd" fill-opacity="1" stroke="#000000" stroke-opacity="1" stroke-width="0"/>
<circle clip-path="url(#clip692)" cx="680.669" cy="1981.66" r="10.8" fill="#0077bb" fill-rule="evenodd" fill-opacity="1" stroke="#000000" stroke-opacity="1" stroke-width="0"/>
<circle clip-path="url(#clip692)" cx="756.327" cy="1922.93" r="10.8" fill="#0077bb" fill-rule="evenodd" fill-opacity="1" stroke="#000000" stroke-opacity="1" stroke-width="0"/>
<circle clip-path="url(#clip692)" cx="831.985" cy="1853.46" r="10.8" fill="#0077bb" fill-rule="evenodd" fill-opacity="1" stroke="#000000" stroke-opacity="1" stroke-width="0"/>
<circle clip-path="url(#clip692)" cx="907.643" cy="1785.75" r="10.8" fill="#0077bb" fill-rule="evenodd" fill-opacity="1" stroke="#000000" stroke-opacity="1" stroke-width="0"/>
<circle clip-path="url(#clip692)" cx="983.301" cy="1733.87" r="10.8" fill="#0077bb" fill-rule="evenodd" fill-opacity="1" stroke="#000000" stroke-opacity="1" stroke-width="0"/>
<circle clip-path="url(#clip692)" cx="1058.96" cy="1683.33" r="10.8" fill="#0077bb" fill-rule="evenodd" fill-opacity="1" stroke="#000000" stroke-opacity="1" stroke-width="0"/>
<circle clip-path="url(#clip692)" cx="1134.62" cy="1641.92" r="10.8" fill="#0077bb" fill-rule="evenodd" fill-opacity="1" stroke="#000000" stroke-opacity="1" stroke-width="0"/>
<circle clip-path="url(#clip692)" cx="1210.28" cy="1614.1" r="10.8" fill="#0077bb" fill-rule="evenodd" fill-opacity="1" stroke="#000000" stroke-opacity="1" stroke-width="0"/>
<circle clip-path="url(#clip692)" cx="1285.93" cy="1594.43" r="10.8" fill="#0077bb" fill-rule="evenodd" fill-opacity="1" stroke="#000000" stroke-opacity="1" stroke-width="0"/>
<circle clip-path="url(#clip692)" cx="1361.59" cy="1573.83" r="10.8" fill="#0077bb" fill-rule="evenodd" fill-opacity="1" stroke="#000000" stroke-opacity="1" stroke-width="0"/>
<circle clip-path="url(#clip692)" cx="1437.25" cy="1545.65" r="10.8" fill="#0077bb" fill-rule="evenodd" fill-opacity="1" stroke="#000000" stroke-opacity="1" stroke-width="0"/>
<circle clip-path="url(#clip692)" cx="1512.91" cy="1522.24" r="10.8" fill="#0077bb" fill-rule="evenodd" fill-opacity="1" stroke="#000000" stroke-opacity="1" stroke-width="0"/>
<circle clip-path="url(#clip692)" cx="1588.57" cy="1512.63" r="10.8" fill="#0077bb" fill-rule="evenodd" fill-opacity="1" stroke="#000000" stroke-opacity="1" stroke-width="0"/>
<circle clip-path="url(#clip692)" cx="1664.22" cy="1496.5" r="10.8" fill="#0077bb" fill-rule="evenodd" fill-opacity="1" stroke="#000000" stroke-opacity="1" stroke-width="0"/>
<circle clip-path="url(#clip692)" cx="1739.88" cy="1477.02" r="10.8" fill="#0077bb" fill-rule="evenodd" fill-opacity="1" stroke="#000000" stroke-opacity="1" stroke-width="0"/>
<circle clip-path="url(#clip692)" cx="1815.54" cy="1470.97" r="10.8" fill="#0077bb" fill-rule="evenodd" fill-opacity="1" stroke="#000000" stroke-opacity="1" stroke-width="0"/>
<circle clip-path="url(#clip692)" cx="1891.2" cy="1470.93" r="10.8" fill="#0077bb" fill-rule="evenodd" fill-opacity="1" stroke="#000000" stroke-opacity="1" stroke-width="0"/>
<circle clip-path="url(#clip692)" cx="1966.86" cy="1476.92" r="10.8" fill="#0077bb" fill-rule="evenodd" fill-opacity="1" stroke="#000000" stroke-opacity="1" stroke-width="0"/>
<circle clip-path="url(#clip692)" cx="2042.52" cy="1482.23" r="10.8" fill="#0077bb" fill-rule="evenodd" fill-opacity="1" stroke="#000000" stroke-opacity="1" stroke-width="0"/>
<circle clip-path="url(#clip692)" cx="2118.17" cy="1501.17" r="10.8" fill="#0077bb" fill-rule="evenodd" fill-opacity="1" stroke="#000000" stroke-opacity="1" stroke-width="0"/>
<circle clip-path="url(#clip692)" cx="2193.83" cy="1511.27" r="10.8" fill="#0077bb" fill-rule="evenodd" fill-opacity="1" stroke="#000000" stroke-opacity="1" stroke-width="0"/>
<circle clip-path="url(#clip692)" cx="2269.49" cy="1545.8" r="10.8" fill="#0077bb" fill-rule="evenodd" fill-opacity="1" stroke="#000000" stroke-opacity="1" stroke-width="0"/>
<circle clip-path="url(#clip692)" cx="2345.15" cy="1588.33" r="10.8" fill="#0077bb" fill-rule="evenodd" fill-opacity="1" stroke="#000000" stroke-opacity="1" stroke-width="0"/>
<circle clip-path="url(#clip692)" cx="2420.81" cy="1620.61" r="10.8" fill="#0077bb" fill-rule="evenodd" fill-opacity="1" stroke="#000000" stroke-opacity="1" stroke-width="0"/>
<circle clip-path="url(#clip692)" cx="2496.46" cy="1672.07" r="10.8" fill="#0077bb" fill-rule="evenodd" fill-opacity="1" stroke="#000000" stroke-opacity="1" stroke-width="0"/>
<circle clip-path="url(#clip692)" cx="2572.12" cy="1727.82" r="10.8" fill="#0077bb" fill-rule="evenodd" fill-opacity="1" stroke="#000000" stroke-opacity="1" stroke-width="0"/>
<circle clip-path="url(#clip692)" cx="2647.78" cy="1774.84" r="10.8" fill="#0077bb" fill-rule="evenodd" fill-opacity="1" stroke="#000000" stroke-opacity="1" stroke-width="0"/>
<circle clip-path="url(#clip692)" cx="2723.44" cy="1835.58" r="10.8" fill="#0077bb" fill-rule="evenodd" fill-opacity="1" stroke="#000000" stroke-opacity="1" stroke-width="0"/>
<circle clip-path="url(#clip692)" cx="2799.1" cy="1879.01" r="10.8" fill="#0077bb" fill-rule="evenodd" fill-opacity="1" stroke="#000000" stroke-opacity="1" stroke-width="0"/>
<circle clip-path="url(#clip692)" cx="2874.75" cy="1918.42" r="10.8" fill="#0077bb" fill-rule="evenodd" fill-opacity="1" stroke="#000000" stroke-opacity="1" stroke-width="0"/>
<circle clip-path="url(#clip692)" cx="2950.41" cy="1950.14" r="10.8" fill="#0077bb" fill-rule="evenodd" fill-opacity="1" stroke="#000000" stroke-opacity="1" stroke-width="0"/>
<circle clip-path="url(#clip692)" cx="3026.07" cy="1980.83" r="10.8" fill="#0077bb" fill-rule="evenodd" fill-opacity="1" stroke="#000000" stroke-opacity="1" stroke-width="0"/>
<path clip-path="url(#clip690)" d="
M1188.11 356.851 L1764.43 356.851 L1764.43 162.451 L1188.11 162.451  Z
  " fill="#ffffff" fill-rule="evenodd" fill-opacity="0.9"/>
<polyline clip-path="url(#clip690)" style="stroke:#222255; stroke-linecap:butt; stroke-linejoin:round; stroke-width:4; stroke-opacity:0.1; fill:none" points="
  1188.11,356.851 1764.43,356.851 1764.43,162.451 1188.11,162.451 1188.11,356.851 
  "/>
<circle clip-path="url(#clip690)" cx="1312.86" cy="227.251" r="28.8" fill="#ee7733" fill-rule="evenodd" fill-opacity="1" stroke="#000000" stroke-opacity="1" stroke-width="0"/>
<path clip-path="url(#clip690)" d="M1456.6 221.421 Q1455.7 220.9 1454.63 220.668 Q1453.59 220.408 1452.32 220.408 Q1447.8 220.408 1445.37 223.359 Q1442.97 226.282 1442.97 231.779 L1442.97 248.851 L1437.62 248.851 L1437.62 216.444 L1442.97 216.444 L1442.97 221.479 Q1444.65 218.527 1447.34 217.109 Q1450.03 215.663 1453.88 215.663 Q1454.43 215.663 1455.09 215.749 Q1455.76 215.807 1456.57 215.952 L1456.6 221.421 Z" fill="#000000" fill-rule="evenodd" fill-opacity="1" /><path clip-path="url(#clip690)" d="M1486.37 222.665 Q1488.37 219.077 1491.15 217.37 Q1493.92 215.663 1497.69 215.663 Q1502.75 215.663 1505.5 219.222 Q1508.25 222.752 1508.25 229.291 L1508.25 248.851 L1502.89 248.851 L1502.89 229.465 Q1502.89 224.806 1501.24 222.549 Q1499.6 220.292 1496.21 220.292 Q1492.07 220.292 1489.67 223.041 Q1487.27 225.79 1487.27 230.535 L1487.27 248.851 L1481.92 248.851 L1481.92 229.465 Q1481.92 224.777 1480.27 222.549 Q1478.62 220.292 1475.17 220.292 Q1471.09 220.292 1468.69 223.07 Q1466.29 225.819 1466.29 230.535 L1466.29 248.851 L1460.94 248.851 L1460.94 216.444 L1466.29 216.444 L1466.29 221.479 Q1468.11 218.498 1470.66 217.08 Q1473.21 215.663 1476.71 215.663 Q1480.24 215.663 1482.7 217.457 Q1485.19 219.251 1486.37 222.665 Z" fill="#000000" fill-rule="evenodd" fill-opacity="1" /><path clip-path="url(#clip690)" d="M1539.53 217.399 L1539.53 222.433 Q1537.27 221.276 1534.84 220.697 Q1532.41 220.119 1529.8 220.119 Q1525.84 220.119 1523.84 221.334 Q1521.88 222.549 1521.88 224.98 Q1521.88 226.832 1523.29 227.902 Q1524.71 228.944 1528.99 229.899 L1530.82 230.304 Q1536.49 231.519 1538.86 233.747 Q1541.26 235.946 1541.26 239.91 Q1541.26 244.424 1537.67 247.057 Q1534.11 249.69 1527.86 249.69 Q1525.26 249.69 1522.42 249.169 Q1519.62 248.677 1516.49 247.665 L1516.49 242.167 Q1519.44 243.701 1522.31 244.482 Q1525.17 245.234 1527.98 245.234 Q1531.74 245.234 1533.77 243.961 Q1535.79 242.659 1535.79 240.315 Q1535.79 238.145 1534.32 236.988 Q1532.87 235.83 1527.92 234.76 L1526.07 234.326 Q1521.12 233.284 1518.92 231.143 Q1516.72 228.973 1516.72 225.211 Q1516.72 220.639 1519.97 218.151 Q1523.21 215.663 1529.17 215.663 Q1532.12 215.663 1534.72 216.097 Q1537.33 216.531 1539.53 217.399 Z" fill="#000000" fill-rule="evenodd" fill-opacity="1" /><path clip-path="url(#clip690)" d="M1548.67 245.668 L1554.57 245.668 L1554.57 227.989 L1548.12 229.175 L1548.12 225.819 L1554.77 224.69 L1558.74 224.69 L1558.74 245.668 L1564.67 245.668 L1564.67 248.851 L1548.67 248.851 L1548.67 245.668 Z" fill="#000000" fill-rule="evenodd" fill-opacity="1" /><path clip-path="url(#clip690)" d="M1586.28 203.886 Q1582.41 210.541 1580.53 217.052 Q1578.65 223.562 1578.65 230.246 Q1578.65 236.93 1580.53 243.498 Q1582.44 250.037 1586.28 256.664 L1581.65 256.664 Q1577.31 249.864 1575.14 243.296 Q1573 236.727 1573 230.246 Q1573 223.793 1575.14 217.254 Q1577.29 210.715 1581.65 203.886 L1586.28 203.886 Z" fill="#000000" fill-rule="evenodd" fill-opacity="1" /><path clip-path="url(#clip690)" d="M1617.94 221.363 L1617.94 203.828 L1623.26 203.828 L1623.26 248.851 L1617.94 248.851 L1617.94 243.99 Q1616.26 246.884 1613.69 248.301 Q1611.14 249.69 1607.55 249.69 Q1601.68 249.69 1597.97 245.003 Q1594.3 240.315 1594.3 232.676 Q1594.3 225.038 1597.97 220.35 Q1601.68 215.663 1607.55 215.663 Q1611.14 215.663 1613.69 217.08 Q1616.26 218.469 1617.94 221.363 M1599.8 232.676 Q1599.8 238.55 1602.2 241.907 Q1604.63 245.234 1608.85 245.234 Q1613.08 245.234 1615.51 241.907 Q1617.94 238.55 1617.94 232.676 Q1617.94 226.803 1615.51 223.475 Q1613.08 220.119 1608.85 220.119 Q1604.63 220.119 1602.2 223.475 Q1599.8 226.803 1599.8 232.676 Z" fill="#000000" fill-rule="evenodd" fill-opacity="1" /><path clip-path="url(#clip690)" d="M1650.75 203.828 L1650.75 215.778 Q1656.51 215.778 1660.36 220.205 Q1664.32 224.719 1664.32 232.676 Q1664.32 240.634 1660.36 245.147 Q1656.51 249.574 1650.75 249.574 L1650.75 261.177 L1645.46 261.177 L1645.46 249.574 Q1639.7 249.574 1635.82 245.147 Q1631.89 240.634 1631.89 232.676 Q1631.89 224.719 1635.82 220.205 Q1639.7 215.778 1645.46 215.778 L1645.46 203.828 L1650.75 203.828 M1650.75 244.829 Q1654.02 244.829 1656.25 241.849 Q1658.68 238.521 1658.71 232.676 Q1658.74 226.889 1656.25 223.504 Q1654.02 220.524 1650.75 220.524 L1650.75 244.829 M1645.46 244.829 L1645.46 220.524 Q1642.19 220.524 1639.99 223.504 Q1637.47 226.889 1637.5 232.676 Q1637.53 238.521 1639.99 241.849 Q1642.19 244.829 1645.46 244.829 Z" fill="#000000" fill-rule="evenodd" fill-opacity="1" /><path clip-path="url(#clip690)" d="M1672.48 203.886 L1677.11 203.886 Q1681.45 210.715 1683.59 217.254 Q1685.76 223.793 1685.76 230.246 Q1685.76 236.727 1683.59 243.296 Q1681.45 249.864 1677.11 256.664 L1672.48 256.664 Q1676.33 250.037 1678.21 243.498 Q1680.12 236.93 1680.12 230.246 Q1680.12 223.562 1678.21 217.052 Q1676.33 210.541 1672.48 203.886 Z" fill="#000000" fill-rule="evenodd" fill-opacity="1" /><circle clip-path="url(#clip690)" cx="1312.86" cy="292.051" r="28.8" fill="#0077bb" fill-rule="evenodd" fill-opacity="1" stroke="#000000" stroke-opacity="1" stroke-width="0"/>
<path clip-path="url(#clip690)" d="M1456.6 286.221 Q1455.7 285.7 1454.63 285.468 Q1453.59 285.208 1452.32 285.208 Q1447.8 285.208 1445.37 288.159 Q1442.97 291.082 1442.97 296.579 L1442.97 313.651 L1437.62 313.651 L1437.62 281.244 L1442.97 281.244 L1442.97 286.279 Q1444.65 283.327 1447.34 281.909 Q1450.03 280.463 1453.88 280.463 Q1454.43 280.463 1455.09 280.549 Q1455.76 280.607 1456.57 280.752 L1456.6 286.221 Z" fill="#000000" fill-rule="evenodd" fill-opacity="1" /><path clip-path="url(#clip690)" d="M1486.37 287.465 Q1488.37 283.877 1491.15 282.17 Q1493.92 280.463 1497.69 280.463 Q1502.75 280.463 1505.5 284.022 Q1508.25 287.552 1508.25 294.091 L1508.25 313.651 L1502.89 313.651 L1502.89 294.265 Q1502.89 289.606 1501.24 287.349 Q1499.6 285.092 1496.21 285.092 Q1492.07 285.092 1489.67 287.841 Q1487.27 290.59 1487.27 295.335 L1487.27 313.651 L1481.92 313.651 L1481.92 294.265 Q1481.92 289.577 1480.27 287.349 Q1478.62 285.092 1475.17 285.092 Q1471.09 285.092 1468.69 287.87 Q1466.29 290.619 1466.29 295.335 L1466.29 313.651 L1460.94 313.651 L1460.94 281.244 L1466.29 281.244 L1466.29 286.279 Q1468.11 283.298 1470.66 281.88 Q1473.21 280.463 1476.71 280.463 Q1480.24 280.463 1482.7 282.257 Q1485.19 284.051 1486.37 287.465 Z" fill="#000000" fill-rule="evenodd" fill-opacity="1" /><path clip-path="url(#clip690)" d="M1539.53 282.199 L1539.53 287.233 Q1537.27 286.076 1534.84 285.497 Q1532.41 284.919 1529.8 284.919 Q1525.84 284.919 1523.84 286.134 Q1521.88 287.349 1521.88 289.78 Q1521.88 291.632 1523.29 292.702 Q1524.71 293.744 1528.99 294.699 L1530.82 295.104 Q1536.49 296.319 1538.86 298.547 Q1541.26 300.746 1541.26 304.71 Q1541.26 309.224 1537.67 311.857 Q1534.11 314.49 1527.86 314.49 Q1525.26 314.49 1522.42 313.969 Q1519.62 313.477 1516.49 312.465 L1516.49 306.967 Q1519.44 308.501 1522.31 309.282 Q1525.17 310.034 1527.98 310.034 Q1531.74 310.034 1533.77 308.761 Q1535.79 307.459 1535.79 305.115 Q1535.79 302.945 1534.32 301.788 Q1532.87 300.63 1527.92 299.56 L1526.07 299.126 Q1521.12 298.084 1518.92 295.943 Q1516.72 293.773 1516.72 290.011 Q1516.72 285.439 1519.97 282.951 Q1523.21 280.463 1529.17 280.463 Q1532.12 280.463 1534.72 280.897 Q1537.33 281.331 1539.53 282.199 Z" fill="#000000" fill-rule="evenodd" fill-opacity="1" /><path clip-path="url(#clip690)" d="M1559.32 300.572 Q1561.98 301.093 1563.43 302.685 Q1564.9 304.247 1564.9 306.62 Q1564.9 310.208 1562.15 312.146 Q1559.4 314.085 1554.28 314.085 Q1552.63 314.085 1550.81 313.767 Q1549.02 313.477 1546.99 312.899 L1546.99 309.398 Q1548.5 310.179 1550.2 310.555 Q1551.94 310.931 1553.88 310.931 Q1557.03 310.931 1558.77 309.803 Q1560.5 308.645 1560.5 306.62 Q1560.5 304.479 1558.88 303.379 Q1557.29 302.28 1554.17 302.28 L1551.68 302.28 L1551.68 299.155 L1554.4 299.155 Q1557.12 299.155 1558.51 298.258 Q1559.92 297.332 1559.92 295.596 Q1559.92 293.917 1558.48 293.049 Q1557.03 292.152 1554.28 292.152 Q1553.13 292.152 1551.65 292.413 Q1550.17 292.673 1547.83 293.339 L1547.83 290.011 Q1549.94 289.519 1551.79 289.259 Q1553.65 288.998 1555.24 288.998 Q1559.4 288.998 1561.83 290.706 Q1564.29 292.413 1564.29 295.277 Q1564.29 297.274 1562.99 298.663 Q1561.69 300.052 1559.32 300.572 Z" fill="#000000" fill-rule="evenodd" fill-opacity="1" /><path clip-path="url(#clip690)" d="M1586.28 268.686 Q1582.41 275.341 1580.53 281.852 Q1578.65 288.362 1578.65 295.046 Q1578.65 301.73 1580.53 308.298 Q1582.44 314.837 1586.28 321.464 L1581.65 321.464 Q1577.31 314.664 1575.14 308.096 Q1573 301.527 1573 295.046 Q1573 288.593 1575.14 282.054 Q1577.29 275.515 1581.65 268.686 L1586.28 268.686 Z" fill="#000000" fill-rule="evenodd" fill-opacity="1" /><path clip-path="url(#clip690)" d="M1617.94 286.163 L1617.94 268.628 L1623.26 268.628 L1623.26 313.651 L1617.94 313.651 L1617.94 308.79 Q1616.26 311.684 1613.69 313.101 Q1611.14 314.49 1607.55 314.49 Q1601.68 314.49 1597.97 309.803 Q1594.3 305.115 1594.3 297.476 Q1594.3 289.838 1597.97 285.15 Q1601.68 280.463 1607.55 280.463 Q1611.14 280.463 1613.69 281.88 Q1616.26 283.269 1617.94 286.163 M1599.8 297.476 Q1599.8 303.35 1602.2 306.707 Q1604.63 310.034 1608.85 310.034 Q1613.08 310.034 1615.51 306.707 Q1617.94 303.35 1617.94 297.476 Q1617.94 291.603 1615.51 288.275 Q1613.08 284.919 1608.85 284.919 Q1604.63 284.919 1602.2 288.275 Q1599.8 291.603 1599.8 297.476 Z" fill="#000000" fill-rule="evenodd" fill-opacity="1" /><path clip-path="url(#clip690)" d="M1650.75 268.628 L1650.75 280.578 Q1656.51 280.578 1660.36 285.005 Q1664.32 289.519 1664.32 297.476 Q1664.32 305.434 1660.36 309.947 Q1656.51 314.374 1650.75 314.374 L1650.75 325.977 L1645.46 325.977 L1645.46 314.374 Q1639.7 314.374 1635.82 309.947 Q1631.89 305.434 1631.89 297.476 Q1631.89 289.519 1635.82 285.005 Q1639.7 280.578 1645.46 280.578 L1645.46 268.628 L1650.75 268.628 M1650.75 309.629 Q1654.02 309.629 1656.25 306.649 Q1658.68 303.321 1658.71 297.476 Q1658.74 291.689 1656.25 288.304 Q1654.02 285.324 1650.75 285.324 L1650.75 309.629 M1645.46 309.629 L1645.46 285.324 Q1642.19 285.324 1639.99 288.304 Q1637.47 291.689 1637.5 297.476 Q1637.53 303.321 1639.99 306.649 Q1642.19 309.629 1645.46 309.629 Z" fill="#000000" fill-rule="evenodd" fill-opacity="1" /><path clip-path="url(#clip690)" d="M1678.36 270.451 L1678.36 286.51 L1673.44 286.51 L1673.44 270.451 L1678.36 270.451 Z" fill="#000000" fill-rule="evenodd" fill-opacity="1" /><path clip-path="url(#clip690)" d="M1688.77 268.686 L1693.4 268.686 Q1697.74 275.515 1699.88 282.054 Q1702.05 288.593 1702.05 295.046 Q1702.05 301.527 1699.88 308.096 Q1697.74 314.664 1693.4 321.464 L1688.77 321.464 Q1692.62 314.837 1694.5 308.298 Q1696.41 301.73 1696.41 295.046 Q1696.41 288.362 1694.5 281.852 Q1692.62 275.341 1688.77 268.686 Z" fill="#000000" fill-rule="evenodd" fill-opacity="1" /></svg>
