<?xml version="1.0" encoding="utf-8"?>
<svg xmlns="http://www.w3.org/2000/svg" xmlns:xlink="http://www.w3.org/1999/xlink" width="800" height="600" viewBox="0 0 3200 2400">
<defs>
  <clipPath id="clip490">
    <rect x="0" y="0" width="3200" height="2400"/>
  </clipPath>
</defs>
<path clip-path="url(#clip490)" d="
M0 2400 L3200 2400 L3200 0 L0 0  Z
  " fill="#ffffff" fill-rule="evenodd" fill-opacity="1"/>
<defs>
  <clipPath id="clip491">
    <rect x="640" y="0" width="2241" height="2241"/>
  </clipPath>
</defs>
<path clip-path="url(#clip490)" d="
M354.116 2133.38 L3105.51 2133.38 L3105.51 94.4882 L354.116 94.4882  Z
  " fill="#ffffff" fill-rule="evenodd" fill-opacity="1"/>
<defs>
  <clipPath id="clip492">
    <rect x="354" y="94" width="2752" height="2040"/>
  </clipPath>
</defs>
<polyline clip-path="url(#clip492)" style="stroke:#222255; stroke-linecap:butt; stroke-linejoin:round; stroke-width:2; stroke-opacity:0.05; fill:none" points="
  431.986,2133.38 431.986,94.4882 
  "/>
<polyline clip-path="url(#clip492)" style="stroke:#222255; stroke-linecap:butt; stroke-linejoin:round; stroke-width:2; stroke-opacity:0.05; fill:none" points="
  1173.6,2133.38 1173.6,94.4882 
  "/>
<polyline clip-path="url(#clip492)" style="stroke:#222255; stroke-linecap:butt; stroke-linejoin:round; stroke-width:2; stroke-opacity:0.05; fill:none" points="
  1915.22,2133.38 1915.22,94.4882 
  "/>
<polyline clip-path="url(#clip492)" style="stroke:#222255; stroke-linecap:butt; stroke-linejoin:round; stroke-width:2; stroke-opacity:0.05; fill:none" points="
  2656.83,2133.38 2656.83,94.4882 
  "/>
<polyline clip-path="url(#clip492)" style="stroke:#222255; stroke-linecap:butt; stroke-linejoin:round; stroke-width:2; stroke-opacity:0.05; fill:none" points="
  580.309,2133.38 580.309,94.4882 
  "/>
<polyline clip-path="url(#clip492)" style="stroke:#222255; stroke-linecap:butt; stroke-linejoin:round; stroke-width:2; stroke-opacity:0.05; fill:none" points="
  728.632,2133.38 728.632,94.4882 
  "/>
<polyline clip-path="url(#clip492)" style="stroke:#222255; stroke-linecap:butt; stroke-linejoin:round; stroke-width:2; stroke-opacity:0.05; fill:none" points="
  876.955,2133.38 876.955,94.4882 
  "/>
<polyline clip-path="url(#clip492)" style="stroke:#222255; stroke-linecap:butt; stroke-linejoin:round; stroke-width:2; stroke-opacity:0.05; fill:none" points="
  1025.28,2133.38 1025.28,94.4882 
  "/>
<polyline clip-path="url(#clip492)" style="stroke:#222255; stroke-linecap:butt; stroke-linejoin:round; stroke-width:2; stroke-opacity:0.05; fill:none" points="
  1321.93,2133.38 1321.93,94.4882 
  "/>
<polyline clip-path="url(#clip492)" style="stroke:#222255; stroke-linecap:butt; stroke-linejoin:round; stroke-width:2; stroke-opacity:0.05; fill:none" points="
  1470.25,2133.38 1470.25,94.4882 
  "/>
<polyline clip-path="url(#clip492)" style="stroke:#222255; stroke-linecap:butt; stroke-linejoin:round; stroke-width:2; stroke-opacity:0.05; fill:none" points="
  1618.57,2133.38 1618.57,94.4882 
  "/>
<polyline clip-path="url(#clip492)" style="stroke:#222255; stroke-linecap:butt; stroke-linejoin:round; stroke-width:2; stroke-opacity:0.05; fill:none" points="
  1766.89,2133.38 1766.89,94.4882 
  "/>
<polyline clip-path="url(#clip492)" style="stroke:#222255; stroke-linecap:butt; stroke-linejoin:round; stroke-width:2; stroke-opacity:0.05; fill:none" points="
  2063.54,2133.38 2063.54,94.4882 
  "/>
<polyline clip-path="url(#clip492)" style="stroke:#222255; stroke-linecap:butt; stroke-linejoin:round; stroke-width:2; stroke-opacity:0.05; fill:none" points="
  2211.86,2133.38 2211.86,94.4882 
  "/>
<polyline clip-path="url(#clip492)" style="stroke:#222255; stroke-linecap:butt; stroke-linejoin:round; stroke-width:2; stroke-opacity:0.05; fill:none" points="
  2360.19,2133.38 2360.19,94.4882 
  "/>
<polyline clip-path="url(#clip492)" style="stroke:#222255; stroke-linecap:butt; stroke-linejoin:round; stroke-width:2; stroke-opacity:0.05; fill:none" points="
  2508.51,2133.38 2508.51,94.4882 
  "/>
<polyline clip-path="url(#clip492)" style="stroke:#222255; stroke-linecap:butt; stroke-linejoin:round; stroke-width:2; stroke-opacity:0.05; fill:none" points="
  2805.16,2133.38 2805.16,94.4882 
  "/>
<polyline clip-path="url(#clip492)" style="stroke:#222255; stroke-linecap:butt; stroke-linejoin:round; stroke-width:2; stroke-opacity:0.05; fill:none" points="
  2953.48,2133.38 2953.48,94.4882 
  "/>
<polyline clip-path="url(#clip492)" style="stroke:#222255; stroke-linecap:butt; stroke-linejoin:round; stroke-width:2; stroke-opacity:0.05; fill:none" points="
  3101.8,2133.38 3101.8,94.4882 
  "/>
<polyline clip-path="url(#clip490)" style="stroke:#000000; stroke-linecap:butt; stroke-linejoin:round; stroke-width:4; stroke-opacity:1; fill:none" points="
  354.116,2133.38 3105.51,2133.38 
  "/>
<polyline clip-path="url(#clip490)" style="stroke:#000000; stroke-linecap:butt; stroke-linejoin:round; stroke-width:4; stroke-opacity:1; fill:none" points="
  354.116,94.4882 3105.51,94.4882 
  "/>
<polyline clip-path="url(#clip490)" style="stroke:#000000; stroke-linecap:butt; stroke-linejoin:round; stroke-width:4; stroke-opacity:1; fill:none" points="
  431.986,2133.38 431.986,2114.48 
  "/>
<polyline clip-path="url(#clip490)" style="stroke:#000000; stroke-linecap:butt; stroke-linejoin:round; stroke-width:4; stroke-opacity:1; fill:none" points="
  1173.6,2133.38 1173.6,2114.48 
  "/>
<polyline clip-path="url(#clip490)" style="stroke:#000000; stroke-linecap:butt; stroke-linejoin:round; stroke-width:4; stroke-opacity:1; fill:none" points="
  1915.22,2133.38 1915.22,2114.48 
  "/>
<polyline clip-path="url(#clip490)" style="stroke:#000000; stroke-linecap:butt; stroke-linejoin:round; stroke-width:4; stroke-opacity:1; fill:none" points="
  2656.83,2133.38 2656.83,2114.48 
  "/>
<polyline clip-path="url(#clip490)" style="stroke:#000000; stroke-linecap:butt; stroke-linejoin:round; stroke-width:4; stroke-opacity:1; fill:none" points="
  580.309,2133.38 580.309,2123.93 
  "/>
<polyline clip-path="url(#clip490)" style="stroke:#000000; stroke-linecap:butt; stroke-linejoin:round; stroke-width:4; stroke-opacity:1; fill:none" points="
  728.632,2133.38 728.632,2123.93 
  "/>
<polyline clip-path="url(#clip490)" style="stroke:#000000; stroke-linecap:butt; stroke-linejoin:round; stroke-width:4; stroke-opacity:1; fill:none" points="
  876.955,2133.38 876.955,2123.93 
  "/>
<polyline clip-path="url(#clip490)" style="stroke:#000000; stroke-linecap:butt; stroke-linejoin:round; stroke-width:4; stroke-opacity:1; fill:none" points="
  1025.28,2133.38 1025.28,2123.93 
  "/>
<polyline clip-path="url(#clip490)" style="stroke:#000000; stroke-linecap:butt; stroke-linejoin:round; stroke-width:4; stroke-opacity:1; fill:none" points="
  1321.93,2133.38 1321.93,2123.93 
  "/>
<polyline clip-path="url(#clip490)" style="stroke:#000000; stroke-linecap:butt; stroke-linejoin:round; stroke-width:4; stroke-opacity:1; fill:none" points="
  1470.25,2133.38 1470.25,2123.93 
  "/>
<polyline clip-path="url(#clip490)" style="stroke:#000000; stroke-linecap:butt; stroke-linejoin:round; stroke-width:4; stroke-opacity:1; fill:none" points="
  1618.57,2133.38 1618.57,2123.93 
  "/>
<polyline clip-path="url(#clip490)" style="stroke:#000000; stroke-linecap:butt; stroke-linejoin:round; stroke-width:4; stroke-opacity:1; fill:none" points="
  1766.89,2133.38 1766.89,2123.93 
  "/>
<polyline clip-path="url(#clip490)" style="stroke:#000000; stroke-linecap:butt; stroke-linejoin:round; stroke-width:4; stroke-opacity:1; fill:none" points="
  2063.54,2133.38 2063.54,2123.93 
  "/>
<polyline clip-path="url(#clip490)" style="stroke:#000000; stroke-linecap:butt; stroke-linejoin:round; stroke-width:4; stroke-opacity:1; fill:none" points="
  2211.86,2133.38 2211.86,2123.93 
  "/>
<polyline clip-path="url(#clip490)" style="stroke:#000000; stroke-linecap:butt; stroke-linejoin:round; stroke-width:4; stroke-opacity:1; fill:none" points="
  2360.19,2133.38 2360.19,2123.93 
  "/>
<polyline clip-path="url(#clip490)" style="stroke:#000000; stroke-linecap:butt; stroke-linejoin:round; stroke-width:4; stroke-opacity:1; fill:none" points="
  2508.51,2133.38 2508.51,2123.93 
  "/>
<polyline clip-path="url(#clip490)" style="stroke:#000000; stroke-linecap:butt; stroke-linejoin:round; stroke-width:4; stroke-opacity:1; fill:none" points="
  2805.16,2133.38 2805.16,2123.93 
  "/>
<polyline clip-path="url(#clip490)" style="stroke:#000000; stroke-linecap:butt; stroke-linejoin:round; stroke-width:4; stroke-opacity:1; fill:none" points="
  2953.48,2133.38 2953.48,2123.93 
  "/>
<polyline clip-path="url(#clip490)" style="stroke:#000000; stroke-linecap:butt; stroke-linejoin:round; stroke-width:4; stroke-opacity:1; fill:none" points="
  3101.8,2133.38 3101.8,2123.93 
  "/>
<path clip-path="url(#clip490)" d="M431.986 2176.55 Q426.569 2176.55 423.826 2181.9 Q421.118 2187.21 421.118 2197.91 Q421.118 2208.57 423.826 2213.91 Q426.569 2219.23 431.986 2219.23 Q437.437 2219.23 440.145 2213.91 Q442.888 2208.57 442.888 2197.91 Q442.888 2187.21 440.145 2181.9 Q437.437 2176.55 431.986 2176.55 M431.986 2171 Q440.701 2171 445.284 2177.91 Q449.902 2184.78 449.902 2197.91 Q449.902 2211 445.284 2217.91 Q440.701 2224.78 431.986 2224.78 Q423.27 2224.78 418.652 2217.91 Q414.069 2211 414.069 2197.91 Q414.069 2184.78 418.652 2177.91 Q423.27 2171 431.986 2171 Z" fill="#000000" fill-rule="evenodd" fill-opacity="1" /><path clip-path="url(#clip490)" d="M1135.65 2171.94 L1163.19 2171.94 L1163.19 2177.84 L1142.07 2177.84 L1142.07 2190.55 Q1143.6 2190.03 1145.13 2189.78 Q1146.66 2189.51 1148.19 2189.51 Q1156.87 2189.51 1161.94 2194.26 Q1167 2199.02 1167 2207.14 Q1167 2215.51 1161.8 2220.16 Q1156.59 2224.78 1147.11 2224.78 Q1143.85 2224.78 1140.44 2224.23 Q1137.07 2223.67 1133.46 2222.56 L1133.46 2215.51 Q1136.59 2217.21 1139.92 2218.05 Q1143.25 2218.88 1146.97 2218.88 Q1152.98 2218.88 1156.48 2215.72 Q1159.99 2212.56 1159.99 2207.14 Q1159.99 2201.73 1156.48 2198.57 Q1152.98 2195.41 1146.97 2195.41 Q1144.16 2195.41 1141.35 2196.03 Q1138.57 2196.66 1135.65 2197.98 L1135.65 2171.94 Z" fill="#000000" fill-rule="evenodd" fill-opacity="1" /><path clip-path="url(#clip490)" d="M1195.82 2176.55 Q1190.41 2176.55 1187.66 2181.9 Q1184.96 2187.21 1184.96 2197.91 Q1184.96 2208.57 1187.66 2213.91 Q1190.41 2219.23 1195.82 2219.23 Q1201.28 2219.23 1203.98 2213.91 Q1206.73 2208.57 1206.73 2197.91 Q1206.73 2187.21 1203.98 2181.9 Q1201.28 2176.55 1195.82 2176.55 M1195.82 2171 Q1204.54 2171 1209.12 2177.91 Q1213.74 2184.78 1213.74 2197.91 Q1213.74 2211 1209.12 2217.91 Q1204.54 2224.78 1195.82 2224.78 Q1187.11 2224.78 1182.49 2217.91 Q1177.91 2211 1177.91 2197.91 Q1177.91 2184.78 1182.49 2177.91 Q1187.11 2171 1195.82 2171 Z" fill="#000000" fill-rule="evenodd" fill-opacity="1" /><path clip-path="url(#clip490)" d="M1854.63 2217.87 L1866.09 2217.87 L1866.09 2178.32 L1853.62 2180.82 L1853.62 2174.44 L1866.02 2171.94 L1873.03 2171.94 L1873.03 2217.87 L1884.49 2217.87 L1884.49 2223.78 L1854.63 2223.78 L1854.63 2217.87 Z" fill="#000000" fill-rule="evenodd" fill-opacity="1" /><path clip-path="url(#clip490)" d="M1913.66 2176.55 Q1908.24 2176.55 1905.5 2181.9 Q1902.79 2187.21 1902.79 2197.91 Q1902.79 2208.57 1905.5 2213.91 Q1908.24 2219.23 1913.66 2219.23 Q1919.11 2219.23 1921.82 2213.91 Q1924.56 2208.57 1924.56 2197.91 Q1924.56 2187.21 1921.82 2181.9 Q1919.11 2176.55 1913.66 2176.55 M1913.66 2171 Q1922.37 2171 1926.95 2177.91 Q1931.57 2184.78 1931.57 2197.91 Q1931.57 2211 1926.95 2217.91 Q1922.37 2224.78 1913.66 2224.78 Q1904.94 2224.78 1900.32 2217.91 Q1895.74 2211 1895.74 2197.91 Q1895.74 2184.78 1900.32 2177.91 Q1904.94 2171 1913.66 2171 Z" fill="#000000" fill-rule="evenodd" fill-opacity="1" /><path clip-path="url(#clip490)" d="M1958.9 2176.55 Q1953.48 2176.55 1950.74 2181.9 Q1948.03 2187.21 1948.03 2197.91 Q1948.03 2208.57 1950.74 2213.91 Q1953.48 2219.23 1958.9 2219.23 Q1964.35 2219.23 1967.06 2213.91 Q1969.8 2208.57 1969.8 2197.91 Q1969.8 2187.21 1967.06 2181.9 Q1964.35 2176.55 1958.9 2176.55 M1958.9 2171 Q1967.61 2171 1972.2 2177.91 Q1976.81 2184.78 1976.81 2197.91 Q1976.81 2211 1972.2 2217.91 Q1967.61 2224.78 1958.9 2224.78 Q1950.18 2224.78 1945.57 2217.91 Q1940.98 2211 1940.98 2197.91 Q1940.98 2184.78 1945.57 2177.91 Q1950.18 2171 1958.9 2171 Z" fill="#000000" fill-rule="evenodd" fill-opacity="1" /><path clip-path="url(#clip490)" d="M2596.24 2217.87 L2607.7 2217.87 L2607.7 2178.32 L2595.24 2180.82 L2595.24 2174.44 L2607.63 2171.94 L2614.65 2171.94 L2614.65 2217.87 L2626.11 2217.87 L2626.11 2223.78 L2596.24 2223.78 L2596.24 2217.87 Z" fill="#000000" fill-rule="evenodd" fill-opacity="1" /><path clip-path="url(#clip490)" d="M2640.34 2171.94 L2667.88 2171.94 L2667.88 2177.84 L2646.76 2177.84 L2646.76 2190.55 Q2648.29 2190.03 2649.82 2189.78 Q2651.35 2189.51 2652.88 2189.51 Q2661.56 2189.51 2666.63 2194.26 Q2671.7 2199.02 2671.7 2207.14 Q2671.7 2215.51 2666.49 2220.16 Q2661.28 2224.78 2651.8 2224.78 Q2648.54 2224.78 2645.13 2224.23 Q2641.76 2223.67 2638.15 2222.56 L2638.15 2215.51 Q2641.28 2217.21 2644.61 2218.05 Q2647.95 2218.88 2651.66 2218.88 Q2657.67 2218.88 2661.17 2215.72 Q2664.68 2212.56 2664.68 2207.14 Q2664.68 2201.73 2661.17 2198.57 Q2657.67 2195.41 2651.66 2195.41 Q2648.85 2195.41 2646.04 2196.03 Q2643.26 2196.66 2640.34 2197.98 L2640.34 2171.94 Z" fill="#000000" fill-rule="evenodd" fill-opacity="1" /><path clip-path="url(#clip490)" d="M2700.51 2176.55 Q2695.1 2176.55 2692.35 2181.9 Q2689.65 2187.21 2689.65 2197.91 Q2689.65 2208.57 2692.35 2213.91 Q2695.1 2219.23 2700.51 2219.23 Q2705.97 2219.23 2708.67 2213.91 Q2711.42 2208.57 2711.42 2197.91 Q2711.42 2187.21 2708.67 2181.9 Q2705.97 2176.55 2700.51 2176.55 M2700.51 2171 Q2709.23 2171 2713.81 2177.91 Q2718.43 2184.78 2718.43 2197.91 Q2718.43 2211 2713.81 2217.91 Q2709.23 2224.78 2700.51 2224.78 Q2691.8 2224.78 2687.18 2217.91 Q2682.6 2211 2682.6 2197.91 Q2682.6 2184.78 2687.18 2177.91 Q2691.8 2171 2700.51 2171 Z" fill="#000000" fill-rule="evenodd" fill-opacity="1" /><path clip-path="url(#clip490)" d="M1716.17 2288.36 L1716.17 2267.32 L1722.56 2267.32 L1722.56 2321.34 L1716.17 2321.34 L1716.17 2315.51 Q1714.15 2318.98 1711.06 2320.68 Q1708.01 2322.35 1703.7 2322.35 Q1696.65 2322.35 1692.21 2316.73 Q1687.8 2311.1 1687.8 2301.93 Q1687.8 2292.77 1692.21 2287.14 Q1696.65 2281.52 1703.7 2281.52 Q1708.01 2281.52 1711.06 2283.22 Q1714.15 2284.89 1716.17 2288.36 M1694.4 2301.93 Q1694.4 2308.98 1697.28 2313.01 Q1700.2 2317 1705.27 2317 Q1710.33 2317 1713.25 2313.01 Q1716.17 2308.98 1716.17 2301.93 Q1716.17 2294.89 1713.25 2290.89 Q1710.33 2286.86 1705.27 2286.86 Q1700.2 2286.86 1697.28 2290.89 Q1694.4 2294.89 1694.4 2301.93 Z" fill="#000000" fill-rule="evenodd" fill-opacity="1" /><path clip-path="url(#clip490)" d="M1755.54 2267.32 L1755.54 2281.66 Q1762.45 2281.66 1767.07 2286.97 Q1771.83 2292.39 1771.83 2301.93 Q1771.83 2311.48 1767.07 2316.9 Q1762.45 2322.21 1755.54 2322.21 L1755.54 2336.14 L1749.19 2336.14 L1749.19 2322.21 Q1742.28 2322.21 1737.63 2316.9 Q1732.9 2311.48 1732.9 2301.93 Q1732.9 2292.39 1737.63 2286.97 Q1742.28 2281.66 1749.19 2281.66 L1749.19 2267.32 L1755.54 2267.32 M1755.54 2316.52 Q1759.47 2316.52 1762.14 2312.94 Q1765.06 2308.95 1765.09 2301.93 Q1765.13 2294.99 1762.14 2290.93 Q1759.47 2287.35 1755.54 2287.35 L1755.54 2316.52 M1749.19 2316.52 L1749.19 2287.35 Q1745.27 2287.35 1742.63 2290.93 Q1739.61 2294.99 1739.64 2301.93 Q1739.67 2308.95 1742.63 2312.94 Q1745.27 2316.52 1749.19 2316.52 Z" fill="#000000" fill-rule="evenodd" fill-opacity="1" /><polyline clip-path="url(#clip492)" style="stroke:#222255; stroke-linecap:butt; stroke-linejoin:round; stroke-width:2; stroke-opacity:0.05; fill:none" points="
  354.116,2127.43 3105.51,2127.43 
  "/>
<polyline clip-path="url(#clip492)" style="stroke:#222255; stroke-linecap:butt; stroke-linejoin:round; stroke-width:2; stroke-opacity:0.05; fill:none" points="
  354.116,1639.49 3105.51,1639.49 
  "/>
<polyline clip-path="url(#clip492)" style="stroke:#222255; stroke-linecap:butt; stroke-linejoin:round; stroke-width:2; stroke-opacity:0.05; fill:none" points="
  354.116,1151.55 3105.51,1151.55 
  "/>
<polyline clip-path="url(#clip492)" style="stroke:#222255; stroke-linecap:butt; stroke-linejoin:round; stroke-width:2; stroke-opacity:0.05; fill:none" points="
  354.116,663.615 3105.51,663.615 
  "/>
<polyline clip-path="url(#clip492)" style="stroke:#222255; stroke-linecap:butt; stroke-linejoin:round; stroke-width:2; stroke-opacity:0.05; fill:none" points="
  354.116,175.678 3105.51,175.678 
  "/>
<polyline clip-path="url(#clip492)" style="stroke:#222255; stroke-linecap:butt; stroke-linejoin:round; stroke-width:2; stroke-opacity:0.05; fill:none" points="
  354.116,2029.84 3105.51,2029.84 
  "/>
<polyline clip-path="url(#clip492)" style="stroke:#222255; stroke-linecap:butt; stroke-linejoin:round; stroke-width:2; stroke-opacity:0.05; fill:none" points="
  354.116,1932.25 3105.51,1932.25 
  "/>
<polyline clip-path="url(#clip492)" style="stroke:#222255; stroke-linecap:butt; stroke-linejoin:round; stroke-width:2; stroke-opacity:0.05; fill:none" points="
  354.116,1834.66 3105.51,1834.66 
  "/>
<polyline clip-path="url(#clip492)" style="stroke:#222255; stroke-linecap:butt; stroke-linejoin:round; stroke-width:2; stroke-opacity:0.05; fill:none" points="
  354.116,1737.08 3105.51,1737.08 
  "/>
<polyline clip-path="url(#clip492)" style="stroke:#222255; stroke-linecap:butt; stroke-linejoin:round; stroke-width:2; stroke-opacity:0.05; fill:none" points="
  354.116,1541.9 3105.51,1541.9 
  "/>
<polyline clip-path="url(#clip492)" style="stroke:#222255; stroke-linecap:butt; stroke-linejoin:round; stroke-width:2; stroke-opacity:0.05; fill:none" points="
  354.116,1444.31 3105.51,1444.31 
  "/>
<polyline clip-path="url(#clip492)" style="stroke:#222255; stroke-linecap:butt; stroke-linejoin:round; stroke-width:2; stroke-opacity:0.05; fill:none" points="
  354.116,1346.73 3105.51,1346.73 
  "/>
<polyline clip-path="url(#clip492)" style="stroke:#222255; stroke-linecap:butt; stroke-linejoin:round; stroke-width:2; stroke-opacity:0.05; fill:none" points="
  354.116,1249.14 3105.51,1249.14 
  "/>
<polyline clip-path="url(#clip492)" style="stroke:#222255; stroke-linecap:butt; stroke-linejoin:round; stroke-width:2; stroke-opacity:0.05; fill:none" points="
  354.116,1053.96 3105.51,1053.96 
  "/>
<polyline clip-path="url(#clip492)" style="stroke:#222255; stroke-linecap:butt; stroke-linejoin:round; stroke-width:2; stroke-opacity:0.05; fill:none" points="
  354.116,956.378 3105.51,956.378 
  "/>
<polyline clip-path="url(#clip492)" style="stroke:#222255; stroke-linecap:butt; stroke-linejoin:round; stroke-width:2; stroke-opacity:0.05; fill:none" points="
  354.116,858.79 3105.51,858.79 
  "/>
<polyline clip-path="url(#clip492)" style="stroke:#222255; stroke-linecap:butt; stroke-linejoin:round; stroke-width:2; stroke-opacity:0.05; fill:none" points="
  354.116,761.203 3105.51,761.203 
  "/>
<polyline clip-path="url(#clip492)" style="stroke:#222255; stroke-linecap:butt; stroke-linejoin:round; stroke-width:2; stroke-opacity:0.05; fill:none" points="
  354.116,566.028 3105.51,566.028 
  "/>
<polyline clip-path="url(#clip492)" style="stroke:#222255; stroke-linecap:butt; stroke-linejoin:round; stroke-width:2; stroke-opacity:0.05; fill:none" points="
  354.116,468.44 3105.51,468.44 
  "/>
<polyline clip-path="url(#clip492)" style="stroke:#222255; stroke-linecap:butt; stroke-linejoin:round; stroke-width:2; stroke-opacity:0.05; fill:none" points="
  354.116,370.853 3105.51,370.853 
  "/>
<polyline clip-path="url(#clip492)" style="stroke:#222255; stroke-linecap:butt; stroke-linejoin:round; stroke-width:2; stroke-opacity:0.05; fill:none" points="
  354.116,273.266 3105.51,273.266 
  "/>
<polyline clip-path="url(#clip490)" style="stroke:#000000; stroke-linecap:butt; stroke-linejoin:round; stroke-width:4; stroke-opacity:1; fill:none" points="
  354.116,2133.38 354.116,94.4882 
  "/>
<polyline clip-path="url(#clip490)" style="stroke:#000000; stroke-linecap:butt; stroke-linejoin:round; stroke-width:4; stroke-opacity:1; fill:none" points="
  3105.51,2133.38 3105.51,94.4882 
  "/>
<polyline clip-path="url(#clip490)" style="stroke:#000000; stroke-linecap:butt; stroke-linejoin:round; stroke-width:4; stroke-opacity:1; fill:none" points="
  354.116,2127.43 373.014,2127.43 
  "/>
<polyline clip-path="url(#clip490)" style="stroke:#000000; stroke-linecap:butt; stroke-linejoin:round; stroke-width:4; stroke-opacity:1; fill:none" points="
  354.116,1639.49 373.014,1639.49 
  "/>
<polyline clip-path="url(#clip490)" style="stroke:#000000; stroke-linecap:butt; stroke-linejoin:round; stroke-width:4; stroke-opacity:1; fill:none" points="
  354.116,1151.55 373.014,1151.55 
  "/>
<polyline clip-path="url(#clip490)" style="stroke:#000000; stroke-linecap:butt; stroke-linejoin:round; stroke-width:4; stroke-opacity:1; fill:none" points="
  354.116,663.615 373.014,663.615 
  "/>
<polyline clip-path="url(#clip490)" style="stroke:#000000; stroke-linecap:butt; stroke-linejoin:round; stroke-width:4; stroke-opacity:1; fill:none" points="
  354.116,175.678 373.014,175.678 
  "/>
<polyline clip-path="url(#clip490)" style="stroke:#000000; stroke-linecap:butt; stroke-linejoin:round; stroke-width:4; stroke-opacity:1; fill:none" points="
  354.116,2029.84 363.565,2029.84 
  "/>
<polyline clip-path="url(#clip490)" style="stroke:#000000; stroke-linecap:butt; stroke-linejoin:round; stroke-width:4; stroke-opacity:1; fill:none" points="
  354.116,1932.25 363.565,1932.25 
  "/>
<polyline clip-path="url(#clip490)" style="stroke:#000000; stroke-linecap:butt; stroke-linejoin:round; stroke-width:4; stroke-opacity:1; fill:none" points="
  354.116,1834.66 363.565,1834.66 
  "/>
<polyline clip-path="url(#clip490)" style="stroke:#000000; stroke-linecap:butt; stroke-linejoin:round; stroke-width:4; stroke-opacity:1; fill:none" points="
  354.116,1737.08 363.565,1737.08 
  "/>
<polyline clip-path="url(#clip490)" style="stroke:#000000; stroke-linecap:butt; stroke-linejoin:round; stroke-width:4; stroke-opacity:1; fill:none" points="
  354.116,1541.9 363.565,1541.9 
  "/>
<polyline clip-path="url(#clip490)" style="stroke:#000000; stroke-linecap:butt; stroke-linejoin:round; stroke-width:4; stroke-opacity:1; fill:none" points="
  354.116,1444.31 363.565,1444.31 
  "/>
<polyline clip-path="url(#clip490)" style="stroke:#000000; stroke-linecap:butt; stroke-linejoin:round; stroke-width:4; stroke-opacity:1; fill:none" points="
  354.116,1346.73 363.565,1346.73 
  "/>
<polyline clip-path="url(#clip490)" style="stroke:#000000; stroke-linecap:butt; stroke-linejoin:round; stroke-width:4; stroke-opacity:1; fill:none" points="
  354.116,1249.14 363.565,1249.14 
  "/>
<polyline clip-path="url(#clip490)" style="stroke:#000000; stroke-linecap:butt; stroke-linejoin:round; stroke-width:4; stroke-opacity:1; fill:none" points="
  354.116,1053.96 363.565,1053.96 
  "/>
<polyline clip-path="url(#clip490)" style="stroke:#000000; stroke-linecap:butt; stroke-linejoin:round; stroke-width:4; stroke-opacity:1; fill:none" points="
  354.116,956.378 363.565,956.378 
  "/>
<polyline clip-path="url(#clip490)" style="stroke:#000000; stroke-linecap:butt; stroke-linejoin:round; stroke-width:4; stroke-opacity:1; fill:none" points="
  354.116,858.79 363.565,858.79 
  "/>
<polyline clip-path="url(#clip490)" style="stroke:#000000; stroke-linecap:butt; stroke-linejoin:round; stroke-width:4; stroke-opacity:1; fill:none" points="
  354.116,761.203 363.565,761.203 
  "/>
<polyline clip-path="url(#clip490)" style="stroke:#000000; stroke-linecap:butt; stroke-linejoin:round; stroke-width:4; stroke-opacity:1; fill:none" points="
  354.116,566.028 363.565,566.028 
  "/>
<polyline clip-path="url(#clip490)" style="stroke:#000000; stroke-linecap:butt; stroke-linejoin:round; stroke-width:4; stroke-opacity:1; fill:none" points="
  354.116,468.44 363.565,468.44 
  "/>
<polyline clip-path="url(#clip490)" style="stroke:#000000; stroke-linecap:butt; stroke-linejoin:round; stroke-width:4; stroke-opacity:1; fill:none" points="
  354.116,370.853 363.565,370.853 
  "/>
<polyline clip-path="url(#clip490)" style="stroke:#000000; stroke-linecap:butt; stroke-linejoin:round; stroke-width:4; stroke-opacity:1; fill:none" points="
  354.116,273.266 363.565,273.266 
  "/>
<path clip-path="url(#clip490)" d="M168.304 2128.1 L212.818 2128.1 L212.818 2134.01 L168.304 2134.01 L168.304 2128.1 Z" fill="#000000" fill-rule="evenodd" fill-opacity="1" /><path clip-path="url(#clip490)" d="M247.227 2107.62 L229.519 2135.29 L247.227 2135.29 L247.227 2107.62 M245.387 2101.51 L254.207 2101.51 L254.207 2135.29 L261.602 2135.29 L261.602 2141.12 L254.207 2141.12 L254.207 2153.35 L247.227 2153.35 L247.227 2141.12 L223.825 2141.12 L223.825 2134.35 L245.387 2101.51 Z" fill="#000000" fill-rule="evenodd" fill-opacity="1" /><path clip-path="url(#clip490)" d="M288.199 2106.12 Q282.783 2106.12 280.04 2111.47 Q277.331 2116.78 277.331 2127.48 Q277.331 2138.14 280.04 2143.49 Q282.783 2148.8 288.199 2148.8 Q293.651 2148.8 296.359 2143.49 Q299.102 2138.14 299.102 2127.48 Q299.102 2116.78 296.359 2111.47 Q293.651 2106.12 288.199 2106.12 M288.199 2100.57 Q296.915 2100.57 301.498 2107.48 Q306.116 2114.35 306.116 2127.48 Q306.116 2140.57 301.498 2147.48 Q296.915 2154.35 288.199 2154.35 Q279.484 2154.35 274.866 2147.48 Q270.283 2140.57 270.283 2127.48 Q270.283 2114.35 274.866 2107.48 Q279.484 2100.57 288.199 2100.57 Z" fill="#000000" fill-rule="evenodd" fill-opacity="1" /><path clip-path="url(#clip490)" d="M168.304 1640.17 L212.818 1640.17 L212.818 1646.07 L168.304 1646.07 L168.304 1640.17 Z" fill="#000000" fill-rule="evenodd" fill-opacity="1" /><path clip-path="url(#clip490)" d="M233.998 1659.51 L258.477 1659.51 L258.477 1665.41 L225.561 1665.41 L225.561 1659.51 Q229.554 1655.37 236.429 1648.43 Q243.339 1641.45 245.109 1639.44 Q248.477 1635.65 249.797 1633.05 Q251.151 1630.41 251.151 1627.87 Q251.151 1623.74 248.234 1621.14 Q245.352 1618.53 240.7 1618.53 Q237.401 1618.53 233.721 1619.68 Q230.075 1620.83 225.908 1623.15 L225.908 1616.07 Q230.144 1614.37 233.825 1613.5 Q237.505 1612.63 240.561 1612.63 Q248.616 1612.63 253.408 1616.66 Q258.2 1620.69 258.2 1627.42 Q258.2 1630.62 256.984 1633.5 Q255.804 1636.35 252.644 1640.24 Q251.776 1641.24 247.123 1646.07 Q242.471 1650.86 233.998 1659.51 Z" fill="#000000" fill-rule="evenodd" fill-opacity="1" /><path clip-path="url(#clip490)" d="M288.199 1618.19 Q282.783 1618.19 280.04 1623.53 Q277.331 1628.85 277.331 1639.54 Q277.331 1650.2 280.04 1655.55 Q282.783 1660.86 288.199 1660.86 Q293.651 1660.86 296.359 1655.55 Q299.102 1650.2 299.102 1639.54 Q299.102 1628.85 296.359 1623.53 Q293.651 1618.19 288.199 1618.19 M288.199 1612.63 Q296.915 1612.63 301.498 1619.54 Q306.116 1626.42 306.116 1639.54 Q306.116 1652.63 301.498 1659.54 Q296.915 1666.42 288.199 1666.42 Q279.484 1666.42 274.866 1659.54 Q270.283 1652.63 270.283 1639.54 Q270.283 1626.42 274.866 1619.54 Q279.484 1612.63 288.199 1612.63 Z" fill="#000000" fill-rule="evenodd" fill-opacity="1" /><path clip-path="url(#clip490)" d="M288.199 1130.25 Q282.783 1130.25 280.04 1135.6 Q277.331 1140.91 277.331 1151.6 Q277.331 1162.26 280.04 1167.61 Q282.783 1172.92 288.199 1172.92 Q293.651 1172.92 296.359 1167.61 Q299.102 1162.26 299.102 1151.6 Q299.102 1140.91 296.359 1135.6 Q293.651 1130.25 288.199 1130.25 M288.199 1124.69 Q296.915 1124.69 301.498 1131.6 Q306.116 1138.48 306.116 1151.6 Q306.116 1164.69 301.498 1171.6 Q296.915 1178.48 288.199 1178.48 Q279.484 1178.48 274.866 1171.6 Q270.283 1164.69 270.283 1151.6 Q270.283 1138.48 274.866 1131.6 Q279.484 1124.69 288.199 1124.69 Z" fill="#000000" fill-rule="evenodd" fill-opacity="1" /><path clip-path="url(#clip490)" d="M233.998 683.633 L258.477 683.633 L258.477 689.535 L225.561 689.535 L225.561 683.633 Q229.554 679.501 236.429 672.556 Q243.339 665.577 245.109 663.563 Q248.477 659.779 249.797 657.174 Q251.151 654.535 251.151 652.001 Q251.151 647.869 248.234 645.265 Q245.352 642.661 240.7 642.661 Q237.401 642.661 233.721 643.806 Q230.075 644.952 225.908 647.279 L225.908 640.195 Q230.144 638.494 233.825 637.626 Q237.505 636.758 240.561 636.758 Q248.616 636.758 253.408 640.786 Q258.2 644.813 258.2 651.549 Q258.2 654.744 256.984 657.626 Q255.804 660.473 252.644 664.362 Q251.776 665.369 247.123 670.195 Q242.471 674.987 233.998 683.633 Z" fill="#000000" fill-rule="evenodd" fill-opacity="1" /><path clip-path="url(#clip490)" d="M288.199 642.313 Q282.783 642.313 280.04 647.661 Q277.331 652.973 277.331 663.667 Q277.331 674.327 280.04 679.674 Q282.783 684.987 288.199 684.987 Q293.651 684.987 296.359 679.674 Q299.102 674.327 299.102 663.667 Q299.102 652.973 296.359 647.661 Q293.651 642.313 288.199 642.313 M288.199 636.758 Q296.915 636.758 301.498 643.667 Q306.116 650.542 306.116 663.667 Q306.116 676.758 301.498 683.667 Q296.915 690.542 288.199 690.542 Q279.484 690.542 274.866 683.667 Q270.283 676.758 270.283 663.667 Q270.283 650.542 274.866 643.667 Q279.484 636.758 288.199 636.758 Z" fill="#000000" fill-rule="evenodd" fill-opacity="1" /><path clip-path="url(#clip490)" d="M247.227 155.869 L229.519 183.543 L247.227 183.543 L247.227 155.869 M245.387 149.758 L254.207 149.758 L254.207 183.543 L261.602 183.543 L261.602 189.376 L254.207 189.376 L254.207 201.598 L247.227 201.598 L247.227 189.376 L223.825 189.376 L223.825 182.605 L245.387 149.758 Z" fill="#000000" fill-rule="evenodd" fill-opacity="1" /><path clip-path="url(#clip490)" d="M288.199 154.376 Q282.783 154.376 280.04 159.724 Q277.331 165.036 277.331 175.73 Q277.331 186.39 280.04 191.737 Q282.783 197.05 288.199 197.05 Q293.651 197.05 296.359 191.737 Q299.102 186.39 299.102 175.73 Q299.102 165.036 296.359 159.724 Q293.651 154.376 288.199 154.376 M288.199 148.821 Q296.915 148.821 301.498 155.73 Q306.116 162.605 306.116 175.73 Q306.116 188.821 301.498 195.73 Q296.915 202.605 288.199 202.605 Q279.484 202.605 274.866 195.73 Q270.283 188.821 270.283 175.73 Q270.283 162.605 274.866 155.73 Q279.484 148.821 288.199 148.821 Z" fill="#000000" fill-rule="evenodd" fill-opacity="1" /><path clip-path="url(#clip490)" d="M73.3288 1177.99 Q69.0233 1175.6 66.9747 1172.26 Q64.9261 1168.93 64.9261 1164.42 Q64.9261 1158.34 69.1969 1155.04 Q73.433 1151.74 81.2802 1151.74 L104.752 1151.74 L104.752 1158.17 L81.4885 1158.17 Q75.8982 1158.17 73.1899 1160.15 Q70.4816 1162.13 70.4816 1166.19 Q70.4816 1171.15 73.7802 1174.04 Q77.0788 1176.92 82.7732 1176.92 L104.752 1176.92 L104.752 1183.34 L81.4885 1183.34 Q75.8635 1183.34 73.1899 1185.32 Q70.4816 1187.3 70.4816 1191.43 Q70.4816 1196.33 73.8149 1199.21 Q77.1135 1202.09 82.7732 1202.09 L104.752 1202.09 L104.752 1208.51 L65.8636 1208.51 L65.8636 1202.09 L71.9052 1202.09 Q68.3288 1199.9 66.6275 1196.85 Q64.9261 1193.79 64.9261 1189.59 Q64.9261 1185.36 67.0788 1182.4 Q69.2316 1179.42 73.3288 1177.99 Z" fill="#000000" fill-rule="evenodd" fill-opacity="1" /><path clip-path="url(#clip490)" d="M83.7107 1105.74 L86.8357 1105.74 L86.8357 1135.11 Q93.4329 1134.7 96.9051 1131.15 Q100.343 1127.58 100.343 1121.22 Q100.343 1117.54 99.4398 1114.11 Q98.537 1110.63 96.7315 1107.23 L102.773 1107.23 Q104.231 1110.67 104.995 1114.28 Q105.759 1117.89 105.759 1121.61 Q105.759 1130.91 100.343 1136.36 Q94.9259 1141.78 85.6899 1141.78 Q76.1413 1141.78 70.551 1136.64 Q64.9261 1131.47 64.9261 1122.72 Q64.9261 1114.87 69.9955 1110.32 Q75.0302 1105.74 83.7107 1105.74 M81.8357 1112.13 Q76.5927 1112.2 73.4677 1115.08 Q70.3427 1117.93 70.3427 1122.65 Q70.3427 1127.99 73.3635 1131.22 Q76.3843 1134.42 81.8704 1134.9 L81.8357 1112.13 Z" fill="#000000" fill-rule="evenodd" fill-opacity="1" /><path clip-path="url(#clip490)" d="M85.2037 1077.58 Q85.2037 1085.32 86.9746 1088.31 Q88.7454 1091.29 93.0162 1091.29 Q96.419 1091.29 98.4328 1089.07 Q100.412 1086.81 100.412 1082.96 Q100.412 1077.65 96.662 1074.45 Q92.8773 1071.22 86.6273 1071.22 L85.2037 1071.22 L85.2037 1077.58 M82.5649 1064.84 L104.752 1064.84 L104.752 1071.22 L98.8495 1071.22 Q102.391 1073.41 104.093 1076.68 Q105.759 1079.94 105.759 1084.66 Q105.759 1090.63 102.426 1094.18 Q99.0578 1097.68 93.4329 1097.68 Q86.8704 1097.68 83.5371 1093.31 Q80.2038 1088.9 80.2038 1080.18 L80.2038 1071.22 L79.5788 1071.22 Q75.1691 1071.22 72.7733 1074.14 Q70.3427 1077.02 70.3427 1082.27 Q70.3427 1085.6 71.1413 1088.76 Q71.9399 1091.92 73.5371 1094.83 L67.6344 1094.83 Q66.2802 1091.33 65.6205 1088.03 Q64.9261 1084.73 64.9261 1081.61 Q64.9261 1073.17 69.3011 1069 Q73.676 1064.84 82.5649 1064.84 Z" fill="#000000" fill-rule="evenodd" fill-opacity="1" /><path clip-path="url(#clip490)" d="M81.2802 1019.35 L104.752 1019.35 L104.752 1025.74 L81.4885 1025.74 Q75.9677 1025.74 73.2246 1027.89 Q70.4816 1030.04 70.4816 1034.35 Q70.4816 1039.52 73.7802 1042.51 Q77.0788 1045.49 82.7732 1045.49 L104.752 1045.49 L104.752 1051.92 L65.8636 1051.92 L65.8636 1045.49 L71.9052 1045.49 Q68.3983 1043.2 66.6622 1040.11 Q64.9261 1036.99 64.9261 1032.93 Q64.9261 1026.22 69.0927 1022.79 Q73.2246 1019.35 81.2802 1019.35 Z" fill="#000000" fill-rule="evenodd" fill-opacity="1" /><circle clip-path="url(#clip492)" cx="431.986" cy="2075.67" r="21.6" fill="#ee7733" fill-rule="evenodd" fill-opacity="1" stroke="#000000" stroke-opacity="1" stroke-width="0"/>
<circle clip-path="url(#clip492)" cx="506.147" cy="1927.27" r="21.6" fill="#ee7733" fill-rule="evenodd" fill-opacity="1" stroke="#000000" stroke-opacity="1" stroke-width="0"/>
<circle clip-path="url(#clip492)" cx="580.309" cy="1829.23" r="21.6" fill="#ee7733" fill-rule="evenodd" fill-opacity="1" stroke="#000000" stroke-opacity="1" stroke-width="0"/>
<circle clip-path="url(#clip492)" cx="654.471" cy="1762.19" r="21.6" fill="#ee7733" fill-rule="evenodd" fill-opacity="1" stroke="#000000" stroke-opacity="1" stroke-width="0"/>
<circle clip-path="url(#clip492)" cx="728.632" cy="1714.75" r="21.6" fill="#ee7733" fill-rule="evenodd" fill-opacity="1" stroke="#000000" stroke-opacity="1" stroke-width="0"/>
<circle clip-path="url(#clip492)" cx="802.794" cy="1670.77" r="21.6" fill="#ee7733" fill-rule="evenodd" fill-opacity="1" stroke="#000000" stroke-opacity="1" stroke-width="0"/>
<circle clip-path="url(#clip492)" cx="876.955" cy="1639.22" r="21.6" fill="#ee7733" fill-rule="evenodd" fill-opacity="1" stroke="#000000" stroke-opacity="1" stroke-width="0"/>
<circle clip-path="url(#clip492)" cx="951.117" cy="1604.78" r="21.6" fill="#ee7733" fill-rule="evenodd" fill-opacity="1" stroke="#000000" stroke-opacity="1" stroke-width="0"/>
<circle clip-path="url(#clip492)" cx="1025.28" cy="1576.36" r="21.6" fill="#ee7733" fill-rule="evenodd" fill-opacity="1" stroke="#000000" stroke-opacity="1" stroke-width="0"/>
<circle clip-path="url(#clip492)" cx="1099.44" cy="1547.24" r="21.6" fill="#ee7733" fill-rule="evenodd" fill-opacity="1" stroke="#000000" stroke-opacity="1" stroke-width="0"/>
<circle clip-path="url(#clip492)" cx="1173.6" cy="1517.34" r="21.6" fill="#ee7733" fill-rule="evenodd" fill-opacity="1" stroke="#000000" stroke-opacity="1" stroke-width="0"/>
<circle clip-path="url(#clip492)" cx="1247.76" cy="1483.6" r="21.6" fill="#ee7733" fill-rule="evenodd" fill-opacity="1" stroke="#000000" stroke-opacity="1" stroke-width="0"/>
<circle clip-path="url(#clip492)" cx="1321.93" cy="1446.54" r="21.6" fill="#ee7733" fill-rule="evenodd" fill-opacity="1" stroke="#000000" stroke-opacity="1" stroke-width="0"/>
<circle clip-path="url(#clip492)" cx="1396.09" cy="1404.72" r="21.6" fill="#ee7733" fill-rule="evenodd" fill-opacity="1" stroke="#000000" stroke-opacity="1" stroke-width="0"/>
<circle clip-path="url(#clip492)" cx="1470.25" cy="1359.27" r="21.6" fill="#ee7733" fill-rule="evenodd" fill-opacity="1" stroke="#000000" stroke-opacity="1" stroke-width="0"/>
<circle clip-path="url(#clip492)" cx="1544.41" cy="1308.94" r="21.6" fill="#ee7733" fill-rule="evenodd" fill-opacity="1" stroke="#000000" stroke-opacity="1" stroke-width="0"/>
<circle clip-path="url(#clip492)" cx="1618.57" cy="1253.78" r="21.6" fill="#ee7733" fill-rule="evenodd" fill-opacity="1" stroke="#000000" stroke-opacity="1" stroke-width="0"/>
<circle clip-path="url(#clip492)" cx="1692.73" cy="1195.75" r="21.6" fill="#ee7733" fill-rule="evenodd" fill-opacity="1" stroke="#000000" stroke-opacity="1" stroke-width="0"/>
<circle clip-path="url(#clip492)" cx="1766.89" cy="1135.08" r="21.6" fill="#ee7733" fill-rule="evenodd" fill-opacity="1" stroke="#000000" stroke-opacity="1" stroke-width="0"/>
<circle clip-path="url(#clip492)" cx="1841.06" cy="1075.69" r="21.6" fill="#ee7733" fill-rule="evenodd" fill-opacity="1" stroke="#000000" stroke-opacity="1" stroke-width="0"/>
<circle clip-path="url(#clip492)" cx="1915.22" cy="1019.26" r="21.6" fill="#ee7733" fill-rule="evenodd" fill-opacity="1" stroke="#000000" stroke-opacity="1" stroke-width="0"/>
<circle clip-path="url(#clip492)" cx="1989.38" cy="968.434" r="21.6" fill="#ee7733" fill-rule="evenodd" fill-opacity="1" stroke="#000000" stroke-opacity="1" stroke-width="0"/>
<circle clip-path="url(#clip492)" cx="2063.54" cy="921.266" r="21.6" fill="#ee7733" fill-rule="evenodd" fill-opacity="1" stroke="#000000" stroke-opacity="1" stroke-width="0"/>
<circle clip-path="url(#clip492)" cx="2137.7" cy="880.756" r="21.6" fill="#ee7733" fill-rule="evenodd" fill-opacity="1" stroke="#000000" stroke-opacity="1" stroke-width="0"/>
<circle clip-path="url(#clip492)" cx="2211.86" cy="840.378" r="21.6" fill="#ee7733" fill-rule="evenodd" fill-opacity="1" stroke="#000000" stroke-opacity="1" stroke-width="0"/>
<circle clip-path="url(#clip492)" cx="2286.03" cy="801.493" r="21.6" fill="#ee7733" fill-rule="evenodd" fill-opacity="1" stroke="#000000" stroke-opacity="1" stroke-width="0"/>
<circle clip-path="url(#clip492)" cx="2360.19" cy="766.517" r="21.6" fill="#ee7733" fill-rule="evenodd" fill-opacity="1" stroke="#000000" stroke-opacity="1" stroke-width="0"/>
<circle clip-path="url(#clip492)" cx="2434.35" cy="722.567" r="21.6" fill="#ee7733" fill-rule="evenodd" fill-opacity="1" stroke="#000000" stroke-opacity="1" stroke-width="0"/>
<circle clip-path="url(#clip492)" cx="2508.51" cy="680.839" r="21.6" fill="#ee7733" fill-rule="evenodd" fill-opacity="1" stroke="#000000" stroke-opacity="1" stroke-width="0"/>
<circle clip-path="url(#clip492)" cx="2582.67" cy="632.906" r="21.6" fill="#ee7733" fill-rule="evenodd" fill-opacity="1" stroke="#000000" stroke-opacity="1" stroke-width="0"/>
<circle clip-path="url(#clip492)" cx="2656.83" cy="578.448" r="21.6" fill="#ee7733" fill-rule="evenodd" fill-opacity="1" stroke="#000000" stroke-opacity="1" stroke-width="0"/>
<circle clip-path="url(#clip492)" cx="2731" cy="513.969" r="21.6" fill="#ee7733" fill-rule="evenodd" fill-opacity="1" stroke="#000000" stroke-opacity="1" stroke-width="0"/>
<circle clip-path="url(#clip492)" cx="2805.16" cy="440.893" r="21.6" fill="#ee7733" fill-rule="evenodd" fill-opacity="1" stroke="#000000" stroke-opacity="1" stroke-width="0"/>
<circle clip-path="url(#clip492)" cx="2879.32" cy="354.225" r="21.6" fill="#ee7733" fill-rule="evenodd" fill-opacity="1" stroke="#000000" stroke-opacity="1" stroke-width="0"/>
<circle clip-path="url(#clip492)" cx="2953.48" cy="259.399" r="21.6" fill="#ee7733" fill-rule="evenodd" fill-opacity="1" stroke="#000000" stroke-opacity="1" stroke-width="0"/>
<circle clip-path="url(#clip492)" cx="3027.64" cy="152.193" r="21.6" fill="#ee7733" fill-rule="evenodd" fill-opacity="1" stroke="#000000" stroke-opacity="1" stroke-width="0"/>
<path clip-path="url(#clip490)" d="
M445.829 292.051 L1093.49 292.051 L1093.49 162.451 L445.829 162.451  Z
  " fill="#ffffff" fill-rule="evenodd" fill-opacity="0.9"/>
<polyline clip-path="url(#clip490)" style="stroke:#222255; stroke-linecap:butt; stroke-linejoin:round; stroke-width:4; stroke-opacity:0.1; fill:none" points="
  445.829,292.051 1093.49,292.051 1093.49,162.451 445.829,162.451 445.829,292.051 
  "/>
<circle clip-path="url(#clip490)" cx="568.113" cy="227.251" r="28.8" fill="#ee7733" fill-rule="evenodd" fill-opacity="1" stroke="#000000" stroke-opacity="1" stroke-width="0"/>
<path clip-path="url(#clip490)" d="M713.43 217.399 L713.43 222.433 Q711.173 221.276 708.743 220.697 Q706.312 220.119 703.708 220.119 Q699.744 220.119 697.747 221.334 Q695.78 222.549 695.78 224.98 Q695.78 226.832 697.197 227.902 Q698.615 228.944 702.898 229.899 L704.721 230.304 Q710.392 231.519 712.765 233.747 Q715.166 235.946 715.166 239.91 Q715.166 244.424 711.578 247.057 Q708.019 249.69 701.769 249.69 Q699.165 249.69 696.329 249.169 Q693.523 248.677 690.398 247.665 L690.398 242.167 Q693.349 243.701 696.214 244.482 Q699.078 245.234 701.885 245.234 Q705.646 245.234 707.672 243.961 Q709.697 242.659 709.697 240.315 Q709.697 238.145 708.222 236.988 Q706.775 235.83 701.827 234.76 L699.975 234.326 Q695.027 233.284 692.828 231.143 Q690.629 228.973 690.629 225.211 Q690.629 220.639 693.87 218.151 Q697.111 215.663 703.071 215.663 Q706.023 215.663 708.627 216.097 Q711.231 216.531 713.43 217.399 Z" fill="#000000" fill-rule="evenodd" fill-opacity="1" /><path clip-path="url(#clip490)" d="M743.175 221.942 L780.27 221.942 L780.27 226.803 L743.175 226.803 L743.175 221.942 M743.175 233.747 L780.27 233.747 L780.27 238.666 L743.175 238.666 L743.175 233.747 Z" fill="#000000" fill-rule="evenodd" fill-opacity="1" /><path clip-path="url(#clip490)" d="M810.767 203.828 L816.12 203.828 L816.12 230.419 L832.006 216.444 L838.805 216.444 L821.618 231.606 L839.529 248.851 L832.584 248.851 L816.12 233.024 L816.12 248.851 L810.767 248.851 L810.767 203.828 Z" fill="#000000" fill-rule="evenodd" fill-opacity="1" /><path clip-path="url(#clip490)" d="M869.911 258.689 L869.911 262.827 L839.124 262.827 L839.124 258.689 L869.911 258.689 Z" fill="#000000" fill-rule="evenodd" fill-opacity="1" /><path clip-path="url(#clip490)" d="M900.148 222.665 Q902.144 219.077 904.922 217.37 Q907.7 215.663 911.461 215.663 Q916.525 215.663 919.274 219.222 Q922.023 222.752 922.023 229.291 L922.023 248.851 L916.67 248.851 L916.67 229.465 Q916.67 224.806 915.02 222.549 Q913.371 220.292 909.986 220.292 Q905.848 220.292 903.446 223.041 Q901.045 225.79 901.045 230.535 L901.045 248.851 L895.692 248.851 L895.692 229.465 Q895.692 224.777 894.042 222.549 Q892.393 220.292 888.95 220.292 Q884.87 220.292 882.468 223.07 Q880.067 225.819 880.067 230.535 L880.067 248.851 L874.714 248.851 L874.714 216.444 L880.067 216.444 L880.067 221.479 Q881.89 218.498 884.436 217.08 Q886.982 215.663 890.483 215.663 Q894.014 215.663 896.473 217.457 Q898.961 219.251 900.148 222.665 Z" fill="#000000" fill-rule="evenodd" fill-opacity="1" /><path clip-path="url(#clip490)" d="M960.362 231.316 L960.362 233.921 L935.883 233.921 Q936.23 239.418 939.181 242.312 Q942.161 245.176 947.457 245.176 Q950.524 245.176 953.388 244.424 Q956.282 243.672 959.117 242.167 L959.117 247.202 Q956.253 248.417 953.244 249.054 Q950.234 249.69 947.138 249.69 Q939.384 249.69 934.841 245.176 Q930.327 240.662 930.327 232.966 Q930.327 225.009 934.609 220.35 Q938.921 215.663 946.212 215.663 Q952.752 215.663 956.542 219.887 Q960.362 224.083 960.362 231.316 M955.038 229.754 Q954.98 225.385 952.578 222.781 Q950.205 220.176 946.27 220.176 Q941.814 220.176 939.123 222.694 Q936.461 225.211 936.056 229.783 L955.038 229.754 Z" fill="#000000" fill-rule="evenodd" fill-opacity="1" /><path clip-path="url(#clip490)" d="M983.828 232.561 Q977.375 232.561 974.887 234.036 Q972.399 235.512 972.399 239.071 Q972.399 241.907 974.25 243.585 Q976.131 245.234 979.343 245.234 Q983.77 245.234 986.432 242.109 Q989.123 238.955 989.123 233.747 L989.123 232.561 L983.828 232.561 M994.447 230.362 L994.447 248.851 L989.123 248.851 L989.123 243.932 Q987.3 246.884 984.58 248.301 Q981.86 249.69 977.925 249.69 Q972.948 249.69 969.997 246.912 Q967.074 244.106 967.074 239.418 Q967.074 233.95 970.72 231.172 Q974.395 228.394 981.658 228.394 L989.123 228.394 L989.123 227.873 Q989.123 224.198 986.692 222.202 Q984.291 220.176 979.922 220.176 Q977.144 220.176 974.511 220.842 Q971.878 221.508 969.447 222.839 L969.447 217.92 Q972.37 216.791 975.118 216.241 Q977.867 215.663 980.471 215.663 Q987.503 215.663 990.975 219.308 Q994.447 222.954 994.447 230.362 Z" fill="#000000" fill-rule="evenodd" fill-opacity="1" /><path clip-path="url(#clip490)" d="M1032.35 229.291 L1032.35 248.851 L1027.03 248.851 L1027.03 229.465 Q1027.03 224.864 1025.23 222.578 Q1023.44 220.292 1019.85 220.292 Q1015.54 220.292 1013.05 223.041 Q1010.56 225.79 1010.56 230.535 L1010.56 248.851 L1005.21 248.851 L1005.21 216.444 L1010.56 216.444 L1010.56 221.479 Q1012.47 218.556 1015.05 217.109 Q1017.65 215.663 1021.04 215.663 Q1026.62 215.663 1029.49 219.135 Q1032.35 222.578 1032.35 229.291 Z" fill="#000000" fill-rule="evenodd" fill-opacity="1" /></svg>
