<?xml version="1.0" encoding="utf-8"?>
<svg xmlns="http://www.w3.org/2000/svg" xmlns:xlink="http://www.w3.org/1999/xlink" width="800" height="600" viewBox="0 0 3200 2400">
<defs>
  <clipPath id="clip330">
    <rect x="0" y="0" width="3200" height="2400"/>
  </clipPath>
</defs>
<path clip-path="url(#clip330)" d="
M0 2400 L3200 2400 L3200 0 L0 0  Z
  " fill="#ffffff" fill-rule="evenodd" fill-opacity="1"/>
<defs>
  <clipPath id="clip331">
    <rect x="640" y="0" width="2241" height="2241"/>
  </clipPath>
</defs>
<path clip-path="url(#clip330)" d="
M365.227 2133.38 L3105.51 2133.38 L3105.51 94.4882 L365.227 94.4882  Z
  " fill="#ffffff" fill-rule="evenodd" fill-opacity="1"/>
<defs>
  <clipPath id="clip332">
    <rect x="365" y="94" width="2741" height="2040"/>
  </clipPath>
</defs>
<polyline clip-path="url(#clip332)" style="stroke:#222255; stroke-linecap:butt; stroke-linejoin:round; stroke-width:2; stroke-opacity:0.05; fill:none" points="
  587.205,2133.38 587.205,94.4882 
  "/>
<polyline clip-path="url(#clip332)" style="stroke:#222255; stroke-linecap:butt; stroke-linejoin:round; stroke-width:2; stroke-opacity:0.05; fill:none" points="
  969.927,2133.38 969.927,94.4882 
  "/>
<polyline clip-path="url(#clip332)" style="stroke:#222255; stroke-linecap:butt; stroke-linejoin:round; stroke-width:2; stroke-opacity:0.05; fill:none" points="
  1352.65,2133.38 1352.65,94.4882 
  "/>
<polyline clip-path="url(#clip332)" style="stroke:#222255; stroke-linecap:butt; stroke-linejoin:round; stroke-width:2; stroke-opacity:0.05; fill:none" points="
  1735.37,2133.38 1735.37,94.4882 
  "/>
<polyline clip-path="url(#clip332)" style="stroke:#222255; stroke-linecap:butt; stroke-linejoin:round; stroke-width:2; stroke-opacity:0.05; fill:none" points="
  2118.09,2133.38 2118.09,94.4882 
  "/>
<polyline clip-path="url(#clip332)" style="stroke:#222255; stroke-linecap:butt; stroke-linejoin:round; stroke-width:2; stroke-opacity:0.05; fill:none" points="
  2500.81,2133.38 2500.81,94.4882 
  "/>
<polyline clip-path="url(#clip332)" style="stroke:#222255; stroke-linecap:butt; stroke-linejoin:round; stroke-width:2; stroke-opacity:0.05; fill:none" points="
  2883.53,2133.38 2883.53,94.4882 
  "/>
<polyline clip-path="url(#clip332)" style="stroke:#222255; stroke-linecap:butt; stroke-linejoin:round; stroke-width:2; stroke-opacity:0.05; fill:none" points="
  434.117,2133.38 434.117,94.4882 
  "/>
<polyline clip-path="url(#clip332)" style="stroke:#222255; stroke-linecap:butt; stroke-linejoin:round; stroke-width:2; stroke-opacity:0.05; fill:none" points="
  510.661,2133.38 510.661,94.4882 
  "/>
<polyline clip-path="url(#clip332)" style="stroke:#222255; stroke-linecap:butt; stroke-linejoin:round; stroke-width:2; stroke-opacity:0.05; fill:none" points="
  663.75,2133.38 663.75,94.4882 
  "/>
<polyline clip-path="url(#clip332)" style="stroke:#222255; stroke-linecap:butt; stroke-linejoin:round; stroke-width:2; stroke-opacity:0.05; fill:none" points="
  740.294,2133.38 740.294,94.4882 
  "/>
<polyline clip-path="url(#clip332)" style="stroke:#222255; stroke-linecap:butt; stroke-linejoin:round; stroke-width:2; stroke-opacity:0.05; fill:none" points="
  816.838,2133.38 816.838,94.4882 
  "/>
<polyline clip-path="url(#clip332)" style="stroke:#222255; stroke-linecap:butt; stroke-linejoin:round; stroke-width:2; stroke-opacity:0.05; fill:none" points="
  893.383,2133.38 893.383,94.4882 
  "/>
<polyline clip-path="url(#clip332)" style="stroke:#222255; stroke-linecap:butt; stroke-linejoin:round; stroke-width:2; stroke-opacity:0.05; fill:none" points="
  1046.47,2133.38 1046.47,94.4882 
  "/>
<polyline clip-path="url(#clip332)" style="stroke:#222255; stroke-linecap:butt; stroke-linejoin:round; stroke-width:2; stroke-opacity:0.05; fill:none" points="
  1123.02,2133.38 1123.02,94.4882 
  "/>
<polyline clip-path="url(#clip332)" style="stroke:#222255; stroke-linecap:butt; stroke-linejoin:round; stroke-width:2; stroke-opacity:0.05; fill:none" points="
  1199.56,2133.38 1199.56,94.4882 
  "/>
<polyline clip-path="url(#clip332)" style="stroke:#222255; stroke-linecap:butt; stroke-linejoin:round; stroke-width:2; stroke-opacity:0.05; fill:none" points="
  1276.1,2133.38 1276.1,94.4882 
  "/>
<polyline clip-path="url(#clip332)" style="stroke:#222255; stroke-linecap:butt; stroke-linejoin:round; stroke-width:2; stroke-opacity:0.05; fill:none" points="
  1429.19,2133.38 1429.19,94.4882 
  "/>
<polyline clip-path="url(#clip332)" style="stroke:#222255; stroke-linecap:butt; stroke-linejoin:round; stroke-width:2; stroke-opacity:0.05; fill:none" points="
  1505.74,2133.38 1505.74,94.4882 
  "/>
<polyline clip-path="url(#clip332)" style="stroke:#222255; stroke-linecap:butt; stroke-linejoin:round; stroke-width:2; stroke-opacity:0.05; fill:none" points="
  1582.28,2133.38 1582.28,94.4882 
  "/>
<polyline clip-path="url(#clip332)" style="stroke:#222255; stroke-linecap:butt; stroke-linejoin:round; stroke-width:2; stroke-opacity:0.05; fill:none" points="
  1658.83,2133.38 1658.83,94.4882 
  "/>
<polyline clip-path="url(#clip332)" style="stroke:#222255; stroke-linecap:butt; stroke-linejoin:round; stroke-width:2; stroke-opacity:0.05; fill:none" points="
  1811.91,2133.38 1811.91,94.4882 
  "/>
<polyline clip-path="url(#clip332)" style="stroke:#222255; stroke-linecap:butt; stroke-linejoin:round; stroke-width:2; stroke-opacity:0.05; fill:none" points="
  1888.46,2133.38 1888.46,94.4882 
  "/>
<polyline clip-path="url(#clip332)" style="stroke:#222255; stroke-linecap:butt; stroke-linejoin:round; stroke-width:2; stroke-opacity:0.05; fill:none" points="
  1965,2133.38 1965,94.4882 
  "/>
<polyline clip-path="url(#clip332)" style="stroke:#222255; stroke-linecap:butt; stroke-linejoin:round; stroke-width:2; stroke-opacity:0.05; fill:none" points="
  2041.55,2133.38 2041.55,94.4882 
  "/>
<polyline clip-path="url(#clip332)" style="stroke:#222255; stroke-linecap:butt; stroke-linejoin:round; stroke-width:2; stroke-opacity:0.05; fill:none" points="
  2194.64,2133.38 2194.64,94.4882 
  "/>
<polyline clip-path="url(#clip332)" style="stroke:#222255; stroke-linecap:butt; stroke-linejoin:round; stroke-width:2; stroke-opacity:0.05; fill:none" points="
  2271.18,2133.38 2271.18,94.4882 
  "/>
<polyline clip-path="url(#clip332)" style="stroke:#222255; stroke-linecap:butt; stroke-linejoin:round; stroke-width:2; stroke-opacity:0.05; fill:none" points="
  2347.72,2133.38 2347.72,94.4882 
  "/>
<polyline clip-path="url(#clip332)" style="stroke:#222255; stroke-linecap:butt; stroke-linejoin:round; stroke-width:2; stroke-opacity:0.05; fill:none" points="
  2424.27,2133.38 2424.27,94.4882 
  "/>
<polyline clip-path="url(#clip332)" style="stroke:#222255; stroke-linecap:butt; stroke-linejoin:round; stroke-width:2; stroke-opacity:0.05; fill:none" points="
  2577.36,2133.38 2577.36,94.4882 
  "/>
<polyline clip-path="url(#clip332)" style="stroke:#222255; stroke-linecap:butt; stroke-linejoin:round; stroke-width:2; stroke-opacity:0.05; fill:none" points="
  2653.9,2133.38 2653.9,94.4882 
  "/>
<polyline clip-path="url(#clip332)" style="stroke:#222255; stroke-linecap:butt; stroke-linejoin:round; stroke-width:2; stroke-opacity:0.05; fill:none" points="
  2730.44,2133.38 2730.44,94.4882 
  "/>
<polyline clip-path="url(#clip332)" style="stroke:#222255; stroke-linecap:butt; stroke-linejoin:round; stroke-width:2; stroke-opacity:0.05; fill:none" points="
  2806.99,2133.38 2806.99,94.4882 
  "/>
<polyline clip-path="url(#clip332)" style="stroke:#222255; stroke-linecap:butt; stroke-linejoin:round; stroke-width:2; stroke-opacity:0.05; fill:none" points="
  2960.08,2133.38 2960.08,94.4882 
  "/>
<polyline clip-path="url(#clip332)" style="stroke:#222255; stroke-linecap:butt; stroke-linejoin:round; stroke-width:2; stroke-opacity:0.05; fill:none" points="
  3036.62,2133.38 3036.62,94.4882 
  "/>
<polyline clip-path="url(#clip330)" style="stroke:#000000; stroke-linecap:butt; stroke-linejoin:round; stroke-width:4; stroke-opacity:1; fill:none" points="
  365.227,2133.38 3105.51,2133.38 
  "/>
<polyline clip-path="url(#clip330)" style="stroke:#000000; stroke-linecap:butt; stroke-linejoin:round; stroke-width:4; stroke-opacity:1; fill:none" points="
  365.227,94.4882 3105.51,94.4882 
  "/>
<polyline clip-path="url(#clip330)" style="stroke:#000000; stroke-linecap:butt; stroke-linejoin:round; stroke-width:4; stroke-opacity:1; fill:none" points="
  587.205,2133.38 587.205,2114.48 
  "/>
<polyline clip-path="url(#clip330)" style="stroke:#000000; stroke-linecap:butt; stroke-linejoin:round; stroke-width:4; stroke-opacity:1; fill:none" points="
  969.927,2133.38 969.927,2114.48 
  "/>
<polyline clip-path="url(#clip330)" style="stroke:#000000; stroke-linecap:butt; stroke-linejoin:round; stroke-width:4; stroke-opacity:1; fill:none" points="
  1352.65,2133.38 1352.65,2114.48 
  "/>
<polyline clip-path="url(#clip330)" style="stroke:#000000; stroke-linecap:butt; stroke-linejoin:round; stroke-width:4; stroke-opacity:1; fill:none" points="
  1735.37,2133.38 1735.37,2114.48 
  "/>
<polyline clip-path="url(#clip330)" style="stroke:#000000; stroke-linecap:butt; stroke-linejoin:round; stroke-width:4; stroke-opacity:1; fill:none" points="
  2118.09,2133.38 2118.09,2114.48 
  "/>
<polyline clip-path="url(#clip330)" style="stroke:#000000; stroke-linecap:butt; stroke-linejoin:round; stroke-width:4; stroke-opacity:1; fill:none" points="
  2500.81,2133.38 2500.81,2114.48 
  "/>
<polyline clip-path="url(#clip330)" style="stroke:#000000; stroke-linecap:butt; stroke-linejoin:round; stroke-width:4; stroke-opacity:1; fill:none" points="
  2883.53,2133.38 2883.53,2114.48 
  "/>
<polyline clip-path="url(#clip330)" style="stroke:#000000; stroke-linecap:butt; stroke-linejoin:round; stroke-width:4; stroke-opacity:1; fill:none" points="
  434.117,2133.38 434.117,2123.93 
  "/>
<polyline clip-path="url(#clip330)" style="stroke:#000000; stroke-linecap:butt; stroke-linejoin:round; stroke-width:4; stroke-opacity:1; fill:none" points="
  510.661,2133.38 510.661,2123.93 
  "/>
<polyline clip-path="url(#clip330)" style="stroke:#000000; stroke-linecap:butt; stroke-linejoin:round; stroke-width:4; stroke-opacity:1; fill:none" points="
  663.75,2133.38 663.75,2123.93 
  "/>
<polyline clip-path="url(#clip330)" style="stroke:#000000; stroke-linecap:butt; stroke-linejoin:round; stroke-width:4; stroke-opacity:1; fill:none" points="
  740.294,2133.38 740.294,2123.93 
  "/>
<polyline clip-path="url(#clip330)" style="stroke:#000000; stroke-linecap:butt; stroke-linejoin:round; stroke-width:4; stroke-opacity:1; fill:none" points="
  816.838,2133.38 816.838,2123.93 
  "/>
<polyline clip-path="url(#clip330)" style="stroke:#000000; stroke-linecap:butt; stroke-linejoin:round; stroke-width:4; stroke-opacity:1; fill:none" points="
  893.383,2133.38 893.383,2123.93 
  "/>
<polyline clip-path="url(#clip330)" style="stroke:#000000; stroke-linecap:butt; stroke-linejoin:round; stroke-width:4; stroke-opacity:1; fill:none" points="
  1046.47,2133.38 1046.47,2123.93 
  "/>
<polyline clip-path="url(#clip330)" style="stroke:#000000; stroke-linecap:butt; stroke-linejoin:round; stroke-width:4; stroke-opacity:1; fill:none" points="
  1123.02,2133.38 1123.02,2123.93 
  "/>
<polyline clip-path="url(#clip330)" style="stroke:#000000; stroke-linecap:butt; stroke-linejoin:round; stroke-width:4; stroke-opacity:1; fill:none" points="
  1199.56,2133.38 1199.56,2123.93 
  "/>
<polyline clip-path="url(#clip330)" style="stroke:#000000; stroke-linecap:butt; stroke-linejoin:round; stroke-width:4; stroke-opacity:1; fill:none" points="
  1276.1,2133.38 1276.1,2123.93 
  "/>
<polyline clip-path="url(#clip330)" style="stroke:#000000; stroke-linecap:butt; stroke-linejoin:round; stroke-width:4; stroke-opacity:1; fill:none" points="
  1429.19,2133.38 1429.19,2123.93 
  "/>
<polyline clip-path="url(#clip330)" style="stroke:#000000; stroke-linecap:butt; stroke-linejoin:round; stroke-width:4; stroke-opacity:1; fill:none" points="
  1505.74,2133.38 1505.74,2123.93 
  "/>
<polyline clip-path="url(#clip330)" style="stroke:#000000; stroke-linecap:butt; stroke-linejoin:round; stroke-width:4; stroke-opacity:1; fill:none" points="
  1582.28,2133.38 1582.28,2123.93 
  "/>
<polyline clip-path="url(#clip330)" style="stroke:#000000; stroke-linecap:butt; stroke-linejoin:round; stroke-width:4; stroke-opacity:1; fill:none" points="
  1658.83,2133.38 1658.83,2123.93 
  "/>
<polyline clip-path="url(#clip330)" style="stroke:#000000; stroke-linecap:butt; stroke-linejoin:round; stroke-width:4; stroke-opacity:1; fill:none" points="
  1811.91,2133.38 1811.91,2123.93 
  "/>
<polyline clip-path="url(#clip330)" style="stroke:#000000; stroke-linecap:butt; stroke-linejoin:round; stroke-width:4; stroke-opacity:1; fill:none" points="
  1888.46,2133.38 1888.46,2123.93 
  "/>
<polyline clip-path="url(#clip330)" style="stroke:#000000; stroke-linecap:butt; stroke-linejoin:round; stroke-width:4; stroke-opacity:1; fill:none" points="
  1965,2133.38 1965,2123.93 
  "/>
<polyline clip-path="url(#clip330)" style="stroke:#000000; stroke-linecap:butt; stroke-linejoin:round; stroke-width:4; stroke-opacity:1; fill:none" points="
  2041.55,2133.38 2041.55,2123.93 
  "/>
<polyline clip-path="url(#clip330)" style="stroke:#000000; stroke-linecap:butt; stroke-linejoin:round; stroke-width:4; stroke-opacity:1; fill:none" points="
  2194.64,2133.38 2194.64,2123.93 
  "/>
<polyline clip-path="url(#clip330)" style="stroke:#000000; stroke-linecap:butt; stroke-linejoin:round; stroke-width:4; stroke-opacity:1; fill:none" points="
  2271.18,2133.38 2271.18,2123.93 
  "/>
<polyline clip-path="url(#clip330)" style="stroke:#000000; stroke-linecap:butt; stroke-linejoin:round; stroke-width:4; stroke-opacity:1; fill:none" points="
  2347.72,2133.38 2347.72,2123.93 
  "/>
<polyline clip-path="url(#clip330)" style="stroke:#000000; stroke-linecap:butt; stroke-linejoin:round; stroke-width:4; stroke-opacity:1; fill:none" points="
  2424.27,2133.38 2424.27,2123.93 
  "/>
<polyline clip-path="url(#clip330)" style="stroke:#000000; stroke-linecap:butt; stroke-linejoin:round; stroke-width:4; stroke-opacity:1; fill:none" points="
  2577.36,2133.38 2577.36,2123.93 
  "/>
<polyline clip-path="url(#clip330)" style="stroke:#000000; stroke-linecap:butt; stroke-linejoin:round; stroke-width:4; stroke-opacity:1; fill:none" points="
  2653.9,2133.38 2653.9,2123.93 
  "/>
<polyline clip-path="url(#clip330)" style="stroke:#000000; stroke-linecap:butt; stroke-linejoin:round; stroke-width:4; stroke-opacity:1; fill:none" points="
  2730.44,2133.38 2730.44,2123.93 
  "/>
<polyline clip-path="url(#clip330)" style="stroke:#000000; stroke-linecap:butt; stroke-linejoin:round; stroke-width:4; stroke-opacity:1; fill:none" points="
  2806.99,2133.38 2806.99,2123.93 
  "/>
<polyline clip-path="url(#clip330)" style="stroke:#000000; stroke-linecap:butt; stroke-linejoin:round; stroke-width:4; stroke-opacity:1; fill:none" points="
  2960.08,2133.38 2960.08,2123.93 
  "/>
<polyline clip-path="url(#clip330)" style="stroke:#000000; stroke-linecap:butt; stroke-linejoin:round; stroke-width:4; stroke-opacity:1; fill:none" points="
  3036.62,2133.38 3036.62,2123.93 
  "/>
<path clip-path="url(#clip330)" d="M495.678 2198.53 L540.192 2198.53 L540.192 2204.44 L495.678 2204.44 L495.678 2198.53 Z" fill="#000000" fill-rule="evenodd" fill-opacity="1" /><path clip-path="url(#clip330)" d="M556.546 2217.87 L568.004 2217.87 L568.004 2178.32 L555.539 2180.82 L555.539 2174.44 L567.935 2171.94 L574.949 2171.94 L574.949 2217.87 L586.407 2217.87 L586.407 2223.78 L556.546 2223.78 L556.546 2217.87 Z" fill="#000000" fill-rule="evenodd" fill-opacity="1" /><path clip-path="url(#clip330)" d="M600.643 2171.94 L628.177 2171.94 L628.177 2177.84 L607.066 2177.84 L607.066 2190.55 Q608.594 2190.03 610.122 2189.78 Q611.65 2189.51 613.178 2189.51 Q621.858 2189.51 626.927 2194.26 Q631.997 2199.02 631.997 2207.14 Q631.997 2215.51 626.789 2220.16 Q621.58 2224.78 612.101 2224.78 Q608.837 2224.78 605.435 2224.23 Q602.066 2223.67 598.455 2222.56 L598.455 2215.51 Q601.58 2217.21 604.914 2218.05 Q608.247 2218.88 611.962 2218.88 Q617.969 2218.88 621.476 2215.72 Q624.983 2212.56 624.983 2207.14 Q624.983 2201.73 621.476 2198.57 Q617.969 2195.41 611.962 2195.41 Q609.15 2195.41 606.337 2196.03 Q603.56 2196.66 600.643 2197.98 L600.643 2171.94 Z" fill="#000000" fill-rule="evenodd" fill-opacity="1" /><path clip-path="url(#clip330)" d="M660.816 2176.55 Q655.4 2176.55 652.656 2181.9 Q649.948 2187.21 649.948 2197.91 Q649.948 2208.57 652.656 2213.91 Q655.4 2219.23 660.816 2219.23 Q666.268 2219.23 668.976 2213.91 Q671.719 2208.57 671.719 2197.91 Q671.719 2187.21 668.976 2181.9 Q666.268 2176.55 660.816 2176.55 M660.816 2171 Q669.531 2171 674.115 2177.91 Q678.733 2184.78 678.733 2197.91 Q678.733 2211 674.115 2217.91 Q669.531 2224.78 660.816 2224.78 Q652.101 2224.78 647.483 2217.91 Q642.9 2211 642.9 2197.91 Q642.9 2184.78 647.483 2177.91 Q652.101 2171 660.816 2171 Z" fill="#000000" fill-rule="evenodd" fill-opacity="1" /><path clip-path="url(#clip330)" d="M878.399 2198.53 L922.913 2198.53 L922.913 2204.44 L878.399 2204.44 L878.399 2198.53 Z" fill="#000000" fill-rule="evenodd" fill-opacity="1" /><path clip-path="url(#clip330)" d="M939.267 2217.87 L950.725 2217.87 L950.725 2178.32 L938.26 2180.82 L938.26 2174.44 L950.656 2171.94 L957.67 2171.94 L957.67 2217.87 L969.128 2217.87 L969.128 2223.78 L939.267 2223.78 L939.267 2217.87 Z" fill="#000000" fill-rule="evenodd" fill-opacity="1" /><path clip-path="url(#clip330)" d="M998.295 2176.55 Q992.878 2176.55 990.135 2181.9 Q987.427 2187.21 987.427 2197.91 Q987.427 2208.57 990.135 2213.91 Q992.878 2219.23 998.295 2219.23 Q1003.75 2219.23 1006.45 2213.91 Q1009.2 2208.57 1009.2 2197.91 Q1009.2 2187.21 1006.45 2181.9 Q1003.75 2176.55 998.295 2176.55 M998.295 2171 Q1007.01 2171 1011.59 2177.91 Q1016.21 2184.78 1016.21 2197.91 Q1016.21 2211 1011.59 2217.91 Q1007.01 2224.78 998.295 2224.78 Q989.579 2224.78 984.961 2217.91 Q980.378 2211 980.378 2197.91 Q980.378 2184.78 984.961 2177.91 Q989.579 2171 998.295 2171 Z" fill="#000000" fill-rule="evenodd" fill-opacity="1" /><path clip-path="url(#clip330)" d="M1043.54 2176.55 Q1038.12 2176.55 1035.38 2181.9 Q1032.67 2187.21 1032.67 2197.91 Q1032.67 2208.57 1035.38 2213.91 Q1038.12 2219.23 1043.54 2219.23 Q1048.99 2219.23 1051.7 2213.91 Q1054.44 2208.57 1054.44 2197.91 Q1054.44 2187.21 1051.7 2181.9 Q1048.99 2176.55 1043.54 2176.55 M1043.54 2171 Q1052.25 2171 1056.84 2177.91 Q1061.45 2184.78 1061.45 2197.91 Q1061.45 2211 1056.84 2217.91 Q1052.25 2224.78 1043.54 2224.78 Q1034.82 2224.78 1030.2 2217.91 Q1025.62 2211 1025.62 2197.91 Q1025.62 2184.78 1030.2 2177.91 Q1034.82 2171 1043.54 2171 Z" fill="#000000" fill-rule="evenodd" fill-opacity="1" /><path clip-path="url(#clip330)" d="M1283.74 2198.53 L1328.26 2198.53 L1328.26 2204.44 L1283.74 2204.44 L1283.74 2198.53 Z" fill="#000000" fill-rule="evenodd" fill-opacity="1" /><path clip-path="url(#clip330)" d="M1343.46 2171.94 L1371 2171.94 L1371 2177.84 L1349.89 2177.84 L1349.89 2190.55 Q1351.42 2190.03 1352.94 2189.78 Q1354.47 2189.51 1356 2189.51 Q1364.68 2189.51 1369.75 2194.26 Q1374.82 2199.02 1374.82 2207.14 Q1374.82 2215.51 1369.61 2220.16 Q1364.4 2224.78 1354.92 2224.78 Q1351.66 2224.78 1348.26 2224.23 Q1344.89 2223.67 1341.28 2222.56 L1341.28 2215.51 Q1344.4 2217.21 1347.73 2218.05 Q1351.07 2218.88 1354.78 2218.88 Q1360.79 2218.88 1364.3 2215.72 Q1367.8 2212.56 1367.8 2207.14 Q1367.8 2201.73 1364.3 2198.57 Q1360.79 2195.41 1354.78 2195.41 Q1351.97 2195.41 1349.16 2196.03 Q1346.38 2196.66 1343.46 2197.98 L1343.46 2171.94 Z" fill="#000000" fill-rule="evenodd" fill-opacity="1" /><path clip-path="url(#clip330)" d="M1403.64 2176.55 Q1398.22 2176.55 1395.48 2181.9 Q1392.77 2187.21 1392.77 2197.91 Q1392.77 2208.57 1395.48 2213.91 Q1398.22 2219.23 1403.64 2219.23 Q1409.09 2219.23 1411.8 2213.91 Q1414.54 2208.57 1414.54 2197.91 Q1414.54 2187.21 1411.8 2181.9 Q1409.09 2176.55 1403.64 2176.55 M1403.64 2171 Q1412.35 2171 1416.94 2177.91 Q1421.55 2184.78 1421.55 2197.91 Q1421.55 2211 1416.94 2217.91 Q1412.35 2224.78 1403.64 2224.78 Q1394.92 2224.78 1390.3 2217.91 Q1385.72 2211 1385.72 2197.91 Q1385.72 2184.78 1390.3 2177.91 Q1394.92 2171 1403.64 2171 Z" fill="#000000" fill-rule="evenodd" fill-opacity="1" /><path clip-path="url(#clip330)" d="M1735.37 2176.55 Q1729.95 2176.55 1727.21 2181.9 Q1724.5 2187.21 1724.5 2197.91 Q1724.5 2208.57 1727.21 2213.91 Q1729.95 2219.23 1735.37 2219.23 Q1740.82 2219.23 1743.53 2213.91 Q1746.27 2208.57 1746.27 2197.91 Q1746.27 2187.21 1743.53 2181.9 Q1740.82 2176.55 1735.37 2176.55 M1735.37 2171 Q1744.08 2171 1748.67 2177.91 Q1753.29 2184.78 1753.29 2197.91 Q1753.29 2211 1748.67 2217.91 Q1744.08 2224.78 1735.37 2224.78 Q1726.65 2224.78 1722.04 2217.91 Q1717.45 2211 1717.45 2197.91 Q1717.45 2184.78 1722.04 2177.91 Q1726.65 2171 1735.37 2171 Z" fill="#000000" fill-rule="evenodd" fill-opacity="1" /><path clip-path="url(#clip330)" d="M2080.14 2171.94 L2107.67 2171.94 L2107.67 2177.84 L2086.56 2177.84 L2086.56 2190.55 Q2088.09 2190.03 2089.62 2189.78 Q2091.15 2189.51 2092.67 2189.51 Q2101.35 2189.51 2106.42 2194.26 Q2111.49 2199.02 2111.49 2207.14 Q2111.49 2215.51 2106.29 2220.16 Q2101.08 2224.78 2091.6 2224.78 Q2088.33 2224.78 2084.93 2224.23 Q2081.56 2223.67 2077.95 2222.56 L2077.95 2215.51 Q2081.08 2217.21 2084.41 2218.05 Q2087.74 2218.88 2091.46 2218.88 Q2097.47 2218.88 2100.97 2215.72 Q2104.48 2212.56 2104.48 2207.14 Q2104.48 2201.73 2100.97 2198.57 Q2097.47 2195.41 2091.46 2195.41 Q2088.65 2195.41 2085.83 2196.03 Q2083.06 2196.66 2080.14 2197.98 L2080.14 2171.94 Z" fill="#000000" fill-rule="evenodd" fill-opacity="1" /><path clip-path="url(#clip330)" d="M2140.31 2176.55 Q2134.9 2176.55 2132.15 2181.9 Q2129.44 2187.21 2129.44 2197.91 Q2129.44 2208.57 2132.15 2213.91 Q2134.9 2219.23 2140.31 2219.23 Q2145.76 2219.23 2148.47 2213.91 Q2151.22 2208.57 2151.22 2197.91 Q2151.22 2187.21 2148.47 2181.9 Q2145.76 2176.55 2140.31 2176.55 M2140.31 2171 Q2149.03 2171 2153.61 2177.91 Q2158.23 2184.78 2158.23 2197.91 Q2158.23 2211 2153.61 2217.91 Q2149.03 2224.78 2140.31 2224.78 Q2131.6 2224.78 2126.98 2217.91 Q2122.4 2211 2122.4 2197.91 Q2122.4 2184.78 2126.98 2177.91 Q2131.6 2171 2140.31 2171 Z" fill="#000000" fill-rule="evenodd" fill-opacity="1" /><path clip-path="url(#clip330)" d="M2440.22 2217.87 L2451.68 2217.87 L2451.68 2178.32 L2439.22 2180.82 L2439.22 2174.44 L2451.61 2171.94 L2458.62 2171.94 L2458.62 2217.87 L2470.08 2217.87 L2470.08 2223.78 L2440.22 2223.78 L2440.22 2217.87 Z" fill="#000000" fill-rule="evenodd" fill-opacity="1" /><path clip-path="url(#clip330)" d="M2499.25 2176.55 Q2493.83 2176.55 2491.09 2181.9 Q2488.38 2187.21 2488.38 2197.91 Q2488.38 2208.57 2491.09 2213.91 Q2493.83 2219.23 2499.25 2219.23 Q2504.7 2219.23 2507.41 2213.91 Q2510.15 2208.57 2510.15 2197.91 Q2510.15 2187.21 2507.41 2181.9 Q2504.7 2176.55 2499.25 2176.55 M2499.25 2171 Q2507.96 2171 2512.55 2177.91 Q2517.17 2184.78 2517.17 2197.91 Q2517.17 2211 2512.55 2217.91 Q2507.96 2224.78 2499.25 2224.78 Q2490.53 2224.78 2485.92 2217.91 Q2481.33 2211 2481.33 2197.91 Q2481.33 2184.78 2485.92 2177.91 Q2490.53 2171 2499.25 2171 Z" fill="#000000" fill-rule="evenodd" fill-opacity="1" /><path clip-path="url(#clip330)" d="M2544.49 2176.55 Q2539.08 2176.55 2536.33 2181.9 Q2533.62 2187.21 2533.62 2197.91 Q2533.62 2208.57 2536.33 2213.91 Q2539.08 2219.23 2544.49 2219.23 Q2549.94 2219.23 2552.65 2213.91 Q2555.4 2208.57 2555.4 2197.91 Q2555.4 2187.21 2552.65 2181.9 Q2549.94 2176.55 2544.49 2176.55 M2544.49 2171 Q2553.21 2171 2557.79 2177.91 Q2562.41 2184.78 2562.41 2197.91 Q2562.41 2211 2557.79 2217.91 Q2553.21 2224.78 2544.49 2224.78 Q2535.78 2224.78 2531.16 2217.91 Q2526.58 2211 2526.58 2197.91 Q2526.58 2184.78 2531.16 2177.91 Q2535.78 2171 2544.49 2171 Z" fill="#000000" fill-rule="evenodd" fill-opacity="1" /><path clip-path="url(#clip330)" d="M2822.94 2217.87 L2834.4 2217.87 L2834.4 2178.32 L2821.94 2180.82 L2821.94 2174.44 L2834.33 2171.94 L2841.35 2171.94 L2841.35 2217.87 L2852.8 2217.87 L2852.8 2223.78 L2822.94 2223.78 L2822.94 2217.87 Z" fill="#000000" fill-rule="evenodd" fill-opacity="1" /><path clip-path="url(#clip330)" d="M2867.04 2171.94 L2894.58 2171.94 L2894.58 2177.84 L2873.46 2177.84 L2873.46 2190.55 Q2874.99 2190.03 2876.52 2189.78 Q2878.05 2189.51 2879.58 2189.51 Q2888.26 2189.51 2893.33 2194.26 Q2898.39 2199.02 2898.39 2207.14 Q2898.39 2215.51 2893.19 2220.16 Q2887.98 2224.78 2878.5 2224.78 Q2875.23 2224.78 2871.83 2224.23 Q2868.46 2223.67 2864.85 2222.56 L2864.85 2215.51 Q2867.98 2217.21 2871.31 2218.05 Q2874.64 2218.88 2878.36 2218.88 Q2884.37 2218.88 2887.87 2215.72 Q2891.38 2212.56 2891.38 2207.14 Q2891.38 2201.73 2887.87 2198.57 Q2884.37 2195.41 2878.36 2195.41 Q2875.55 2195.41 2872.73 2196.03 Q2869.96 2196.66 2867.04 2197.98 L2867.04 2171.94 Z" fill="#000000" fill-rule="evenodd" fill-opacity="1" /><path clip-path="url(#clip330)" d="M2927.21 2176.55 Q2921.8 2176.55 2919.05 2181.9 Q2916.35 2187.21 2916.35 2197.91 Q2916.35 2208.57 2919.05 2213.91 Q2921.8 2219.23 2927.21 2219.23 Q2932.67 2219.23 2935.37 2213.91 Q2938.12 2208.57 2938.12 2197.91 Q2938.12 2187.21 2935.37 2181.9 Q2932.67 2176.55 2927.21 2176.55 M2927.21 2171 Q2935.93 2171 2940.51 2177.91 Q2945.13 2184.78 2945.13 2197.91 Q2945.13 2211 2940.51 2217.91 Q2935.93 2224.78 2927.21 2224.78 Q2918.5 2224.78 2913.88 2217.91 Q2909.3 2211 2909.3 2197.91 Q2909.3 2184.78 2913.88 2177.91 Q2918.5 2171 2927.21 2171 Z" fill="#000000" fill-rule="evenodd" fill-opacity="1" /><path clip-path="url(#clip330)" d="M1601.01 2267.32 L1607.44 2267.32 L1607.44 2299.23 L1626.5 2282.46 L1634.66 2282.46 L1614.03 2300.65 L1635.53 2321.34 L1627.19 2321.34 L1607.44 2302.35 L1607.44 2321.34 L1601.01 2321.34 L1601.01 2267.32 Z" fill="#000000" fill-rule="evenodd" fill-opacity="1" /><path clip-path="url(#clip330)" d="M1639.21 2299.02 L1657.92 2299.02 L1657.92 2304.71 L1639.21 2304.71 L1639.21 2299.02 Z" fill="#000000" fill-rule="evenodd" fill-opacity="1" /><path clip-path="url(#clip330)" d="M1687.78 2267.32 L1687.78 2272.63 L1681.67 2272.63 Q1678.23 2272.63 1676.88 2274.02 Q1675.56 2275.41 1675.56 2279.02 L1675.56 2282.46 L1686.08 2282.46 L1686.08 2287.42 L1675.56 2287.42 L1675.56 2321.34 L1669.14 2321.34 L1669.14 2287.42 L1663.03 2287.42 L1663.03 2282.46 L1669.14 2282.46 L1669.14 2279.75 Q1669.14 2273.25 1672.16 2270.3 Q1675.18 2267.32 1681.74 2267.32 L1687.78 2267.32 Z" fill="#000000" fill-rule="evenodd" fill-opacity="1" /><path clip-path="url(#clip330)" d="M1710.8 2301.8 Q1703.06 2301.8 1700.07 2303.57 Q1697.09 2305.34 1697.09 2309.61 Q1697.09 2313.01 1699.31 2315.02 Q1701.57 2317 1705.42 2317 Q1710.73 2317 1713.93 2313.25 Q1717.16 2309.47 1717.16 2303.22 L1717.16 2301.8 L1710.8 2301.8 M1723.55 2299.16 L1723.55 2321.34 L1717.16 2321.34 L1717.16 2315.44 Q1714.97 2318.98 1711.71 2320.68 Q1708.44 2322.35 1703.72 2322.35 Q1697.75 2322.35 1694.21 2319.02 Q1690.7 2315.65 1690.7 2310.02 Q1690.7 2303.46 1695.07 2300.13 Q1699.48 2296.8 1708.2 2296.8 L1717.16 2296.8 L1717.16 2296.17 Q1717.16 2291.76 1714.24 2289.36 Q1711.36 2286.93 1706.12 2286.93 Q1702.78 2286.93 1699.62 2287.73 Q1696.46 2288.53 1693.55 2290.13 L1693.55 2284.23 Q1697.05 2282.87 1700.35 2282.21 Q1703.65 2281.52 1706.78 2281.52 Q1715.21 2281.52 1719.38 2285.89 Q1723.55 2290.27 1723.55 2299.16 Z" fill="#000000" fill-rule="evenodd" fill-opacity="1" /><path clip-path="url(#clip330)" d="M1764.69 2283.95 L1764.69 2289.92 Q1761.98 2288.43 1759.24 2287.7 Q1756.53 2286.93 1753.75 2286.93 Q1747.54 2286.93 1744.1 2290.89 Q1740.66 2294.82 1740.66 2301.93 Q1740.66 2309.05 1744.1 2313.01 Q1747.54 2316.93 1753.75 2316.93 Q1756.53 2316.93 1759.24 2316.2 Q1761.98 2315.44 1764.69 2313.95 L1764.69 2319.85 Q1762.02 2321.1 1759.14 2321.73 Q1756.29 2322.35 1753.06 2322.35 Q1744.28 2322.35 1739.1 2316.83 Q1733.93 2311.31 1733.93 2301.93 Q1733.93 2292.42 1739.14 2286.97 Q1744.38 2281.52 1753.48 2281.52 Q1756.43 2281.52 1759.24 2282.14 Q1762.05 2282.73 1764.69 2283.95 Z" fill="#000000" fill-rule="evenodd" fill-opacity="1" /><path clip-path="url(#clip330)" d="M1782.12 2271.41 L1782.12 2282.46 L1795.28 2282.46 L1795.28 2287.42 L1782.12 2287.42 L1782.12 2308.53 Q1782.12 2313.29 1783.41 2314.64 Q1784.73 2316 1788.72 2316 L1795.28 2316 L1795.28 2321.34 L1788.72 2321.34 Q1781.32 2321.34 1778.51 2318.6 Q1775.7 2315.82 1775.7 2308.53 L1775.7 2287.42 L1771.01 2287.42 L1771.01 2282.46 L1775.7 2282.46 L1775.7 2271.41 L1782.12 2271.41 Z" fill="#000000" fill-rule="evenodd" fill-opacity="1" /><path clip-path="url(#clip330)" d="M1818.75 2286.93 Q1813.62 2286.93 1810.63 2290.96 Q1807.64 2294.96 1807.64 2301.93 Q1807.64 2308.91 1810.59 2312.94 Q1813.58 2316.93 1818.75 2316.93 Q1823.86 2316.93 1826.84 2312.91 Q1829.83 2308.88 1829.83 2301.93 Q1829.83 2295.02 1826.84 2291 Q1823.86 2286.93 1818.75 2286.93 M1818.75 2281.52 Q1827.09 2281.52 1831.84 2286.93 Q1836.6 2292.35 1836.6 2301.93 Q1836.6 2311.48 1831.84 2316.93 Q1827.09 2322.35 1818.75 2322.35 Q1810.39 2322.35 1805.63 2316.93 Q1800.91 2311.48 1800.91 2301.93 Q1800.91 2292.35 1805.63 2286.93 Q1810.39 2281.52 1818.75 2281.52 Z" fill="#000000" fill-rule="evenodd" fill-opacity="1" /><path clip-path="url(#clip330)" d="M1869.73 2288.43 Q1868.65 2287.8 1867.37 2287.52 Q1866.12 2287.21 1864.59 2287.21 Q1859.17 2287.21 1856.25 2290.75 Q1853.37 2294.26 1853.37 2300.86 L1853.37 2321.34 L1846.95 2321.34 L1846.95 2282.46 L1853.37 2282.46 L1853.37 2288.5 Q1855.39 2284.96 1858.62 2283.25 Q1861.84 2281.52 1866.46 2281.52 Q1867.12 2281.52 1867.92 2281.62 Q1868.72 2281.69 1869.69 2281.86 L1869.73 2288.43 Z" fill="#000000" fill-rule="evenodd" fill-opacity="1" /><polyline clip-path="url(#clip332)" style="stroke:#222255; stroke-linecap:butt; stroke-linejoin:round; stroke-width:2; stroke-opacity:0.05; fill:none" points="
  365.227,2075.71 3105.51,2075.71 
  "/>
<polyline clip-path="url(#clip332)" style="stroke:#222255; stroke-linecap:butt; stroke-linejoin:round; stroke-width:2; stroke-opacity:0.05; fill:none" points="
  365.227,1594.83 3105.51,1594.83 
  "/>
<polyline clip-path="url(#clip332)" style="stroke:#222255; stroke-linecap:butt; stroke-linejoin:round; stroke-width:2; stroke-opacity:0.05; fill:none" points="
  365.227,1113.95 3105.51,1113.95 
  "/>
<polyline clip-path="url(#clip332)" style="stroke:#222255; stroke-linecap:butt; stroke-linejoin:round; stroke-width:2; stroke-opacity:0.05; fill:none" points="
  365.227,633.072 3105.51,633.072 
  "/>
<polyline clip-path="url(#clip332)" style="stroke:#222255; stroke-linecap:butt; stroke-linejoin:round; stroke-width:2; stroke-opacity:0.05; fill:none" points="
  365.227,152.193 3105.51,152.193 
  "/>
<polyline clip-path="url(#clip332)" style="stroke:#222255; stroke-linecap:butt; stroke-linejoin:round; stroke-width:2; stroke-opacity:0.05; fill:none" points="
  365.227,1979.53 3105.51,1979.53 
  "/>
<polyline clip-path="url(#clip332)" style="stroke:#222255; stroke-linecap:butt; stroke-linejoin:round; stroke-width:2; stroke-opacity:0.05; fill:none" points="
  365.227,1883.36 3105.51,1883.36 
  "/>
<polyline clip-path="url(#clip332)" style="stroke:#222255; stroke-linecap:butt; stroke-linejoin:round; stroke-width:2; stroke-opacity:0.05; fill:none" points="
  365.227,1787.18 3105.51,1787.18 
  "/>
<polyline clip-path="url(#clip332)" style="stroke:#222255; stroke-linecap:butt; stroke-linejoin:round; stroke-width:2; stroke-opacity:0.05; fill:none" points="
  365.227,1691.01 3105.51,1691.01 
  "/>
<polyline clip-path="url(#clip332)" style="stroke:#222255; stroke-linecap:butt; stroke-linejoin:round; stroke-width:2; stroke-opacity:0.05; fill:none" points="
  365.227,1498.66 3105.51,1498.66 
  "/>
<polyline clip-path="url(#clip332)" style="stroke:#222255; stroke-linecap:butt; stroke-linejoin:round; stroke-width:2; stroke-opacity:0.05; fill:none" points="
  365.227,1402.48 3105.51,1402.48 
  "/>
<polyline clip-path="url(#clip332)" style="stroke:#222255; stroke-linecap:butt; stroke-linejoin:round; stroke-width:2; stroke-opacity:0.05; fill:none" points="
  365.227,1306.3 3105.51,1306.3 
  "/>
<polyline clip-path="url(#clip332)" style="stroke:#222255; stroke-linecap:butt; stroke-linejoin:round; stroke-width:2; stroke-opacity:0.05; fill:none" points="
  365.227,1210.13 3105.51,1210.13 
  "/>
<polyline clip-path="url(#clip332)" style="stroke:#222255; stroke-linecap:butt; stroke-linejoin:round; stroke-width:2; stroke-opacity:0.05; fill:none" points="
  365.227,1017.78 3105.51,1017.78 
  "/>
<polyline clip-path="url(#clip332)" style="stroke:#222255; stroke-linecap:butt; stroke-linejoin:round; stroke-width:2; stroke-opacity:0.05; fill:none" points="
  365.227,921.6 3105.51,921.6 
  "/>
<polyline clip-path="url(#clip332)" style="stroke:#222255; stroke-linecap:butt; stroke-linejoin:round; stroke-width:2; stroke-opacity:0.05; fill:none" points="
  365.227,825.424 3105.51,825.424 
  "/>
<polyline clip-path="url(#clip332)" style="stroke:#222255; stroke-linecap:butt; stroke-linejoin:round; stroke-width:2; stroke-opacity:0.05; fill:none" points="
  365.227,729.248 3105.51,729.248 
  "/>
<polyline clip-path="url(#clip332)" style="stroke:#222255; stroke-linecap:butt; stroke-linejoin:round; stroke-width:2; stroke-opacity:0.05; fill:none" points="
  365.227,536.896 3105.51,536.896 
  "/>
<polyline clip-path="url(#clip332)" style="stroke:#222255; stroke-linecap:butt; stroke-linejoin:round; stroke-width:2; stroke-opacity:0.05; fill:none" points="
  365.227,440.72 3105.51,440.72 
  "/>
<polyline clip-path="url(#clip332)" style="stroke:#222255; stroke-linecap:butt; stroke-linejoin:round; stroke-width:2; stroke-opacity:0.05; fill:none" points="
  365.227,344.544 3105.51,344.544 
  "/>
<polyline clip-path="url(#clip332)" style="stroke:#222255; stroke-linecap:butt; stroke-linejoin:round; stroke-width:2; stroke-opacity:0.05; fill:none" points="
  365.227,248.368 3105.51,248.368 
  "/>
<polyline clip-path="url(#clip330)" style="stroke:#000000; stroke-linecap:butt; stroke-linejoin:round; stroke-width:4; stroke-opacity:1; fill:none" points="
  365.227,2133.38 365.227,94.4882 
  "/>
<polyline clip-path="url(#clip330)" style="stroke:#000000; stroke-linecap:butt; stroke-linejoin:round; stroke-width:4; stroke-opacity:1; fill:none" points="
  3105.51,2133.38 3105.51,94.4882 
  "/>
<polyline clip-path="url(#clip330)" style="stroke:#000000; stroke-linecap:butt; stroke-linejoin:round; stroke-width:4; stroke-opacity:1; fill:none" points="
  365.227,2075.71 384.125,2075.71 
  "/>
<polyline clip-path="url(#clip330)" style="stroke:#000000; stroke-linecap:butt; stroke-linejoin:round; stroke-width:4; stroke-opacity:1; fill:none" points="
  365.227,1594.83 384.125,1594.83 
  "/>
<polyline clip-path="url(#clip330)" style="stroke:#000000; stroke-linecap:butt; stroke-linejoin:round; stroke-width:4; stroke-opacity:1; fill:none" points="
  365.227,1113.95 384.125,1113.95 
  "/>
<polyline clip-path="url(#clip330)" style="stroke:#000000; stroke-linecap:butt; stroke-linejoin:round; stroke-width:4; stroke-opacity:1; fill:none" points="
  365.227,633.072 384.125,633.072 
  "/>
<polyline clip-path="url(#clip330)" style="stroke:#000000; stroke-linecap:butt; stroke-linejoin:round; stroke-width:4; stroke-opacity:1; fill:none" points="
  365.227,152.193 384.125,152.193 
  "/>
<polyline clip-path="url(#clip330)" style="stroke:#000000; stroke-linecap:butt; stroke-linejoin:round; stroke-width:4; stroke-opacity:1; fill:none" points="
  365.227,1979.53 374.676,1979.53 
  "/>
<polyline clip-path="url(#clip330)" style="stroke:#000000; stroke-linecap:butt; stroke-linejoin:round; stroke-width:4; stroke-opacity:1; fill:none" points="
  365.227,1883.36 374.676,1883.36 
  "/>
<polyline clip-path="url(#clip330)" style="stroke:#000000; stroke-linecap:butt; stroke-linejoin:round; stroke-width:4; stroke-opacity:1; fill:none" points="
  365.227,1787.18 374.676,1787.18 
  "/>
<polyline clip-path="url(#clip330)" style="stroke:#000000; stroke-linecap:butt; stroke-linejoin:round; stroke-width:4; stroke-opacity:1; fill:none" points="
  365.227,1691.01 374.676,1691.01 
  "/>
<polyline clip-path="url(#clip330)" style="stroke:#000000; stroke-linecap:butt; stroke-linejoin:round; stroke-width:4; stroke-opacity:1; fill:none" points="
  365.227,1498.66 374.676,1498.66 
  "/>
<polyline clip-path="url(#clip330)" style="stroke:#000000; stroke-linecap:butt; stroke-linejoin:round; stroke-width:4; stroke-opacity:1; fill:none" points="
  365.227,1402.48 374.676,1402.48 
  "/>
<polyline clip-path="url(#clip330)" style="stroke:#000000; stroke-linecap:butt; stroke-linejoin:round; stroke-width:4; stroke-opacity:1; fill:none" points="
  365.227,1306.3 374.676,1306.3 
  "/>
<polyline clip-path="url(#clip330)" style="stroke:#000000; stroke-linecap:butt; stroke-linejoin:round; stroke-width:4; stroke-opacity:1; fill:none" points="
  365.227,1210.13 374.676,1210.13 
  "/>
<polyline clip-path="url(#clip330)" style="stroke:#000000; stroke-linecap:butt; stroke-linejoin:round; stroke-width:4; stroke-opacity:1; fill:none" points="
  365.227,1017.78 374.676,1017.78 
  "/>
<polyline clip-path="url(#clip330)" style="stroke:#000000; stroke-linecap:butt; stroke-linejoin:round; stroke-width:4; stroke-opacity:1; fill:none" points="
  365.227,921.6 374.676,921.6 
  "/>
<polyline clip-path="url(#clip330)" style="stroke:#000000; stroke-linecap:butt; stroke-linejoin:round; stroke-width:4; stroke-opacity:1; fill:none" points="
  365.227,825.424 374.676,825.424 
  "/>
<polyline clip-path="url(#clip330)" style="stroke:#000000; stroke-linecap:butt; stroke-linejoin:round; stroke-width:4; stroke-opacity:1; fill:none" points="
  365.227,729.248 374.676,729.248 
  "/>
<polyline clip-path="url(#clip330)" style="stroke:#000000; stroke-linecap:butt; stroke-linejoin:round; stroke-width:4; stroke-opacity:1; fill:none" points="
  365.227,536.896 374.676,536.896 
  "/>
<polyline clip-path="url(#clip330)" style="stroke:#000000; stroke-linecap:butt; stroke-linejoin:round; stroke-width:4; stroke-opacity:1; fill:none" points="
  365.227,440.72 374.676,440.72 
  "/>
<polyline clip-path="url(#clip330)" style="stroke:#000000; stroke-linecap:butt; stroke-linejoin:round; stroke-width:4; stroke-opacity:1; fill:none" points="
  365.227,344.544 374.676,344.544 
  "/>
<polyline clip-path="url(#clip330)" style="stroke:#000000; stroke-linecap:butt; stroke-linejoin:round; stroke-width:4; stroke-opacity:1; fill:none" points="
  365.227,248.368 374.676,248.368 
  "/>
<path clip-path="url(#clip330)" d="M186.221 2054.41 Q180.804 2054.41 178.061 2059.76 Q175.353 2065.07 175.353 2075.76 Q175.353 2086.42 178.061 2091.77 Q180.804 2097.08 186.221 2097.08 Q191.672 2097.08 194.381 2091.77 Q197.124 2086.42 197.124 2075.76 Q197.124 2065.07 194.381 2059.76 Q191.672 2054.41 186.221 2054.41 M186.221 2048.85 Q194.936 2048.85 199.519 2055.76 Q204.137 2062.64 204.137 2075.76 Q204.137 2088.85 199.519 2095.76 Q194.936 2102.64 186.221 2102.64 Q177.506 2102.64 172.888 2095.76 Q168.304 2088.85 168.304 2075.76 Q168.304 2062.64 172.888 2055.76 Q177.506 2048.85 186.221 2048.85 Z" fill="#000000" fill-rule="evenodd" fill-opacity="1" /><path clip-path="url(#clip330)" d="M216.464 2092.81 L223.79 2092.81 L223.79 2101.63 L216.464 2101.63 L216.464 2092.81 Z" fill="#000000" fill-rule="evenodd" fill-opacity="1" /><path clip-path="url(#clip330)" d="M254.068 2054.41 Q248.651 2054.41 245.908 2059.76 Q243.2 2065.07 243.2 2075.76 Q243.2 2086.42 245.908 2091.77 Q248.651 2097.08 254.068 2097.08 Q259.519 2097.08 262.227 2091.77 Q264.97 2086.42 264.97 2075.76 Q264.97 2065.07 262.227 2059.76 Q259.519 2054.41 254.068 2054.41 M254.068 2048.85 Q262.783 2048.85 267.366 2055.76 Q271.984 2062.64 271.984 2075.76 Q271.984 2088.85 267.366 2095.76 Q262.783 2102.64 254.068 2102.64 Q245.352 2102.64 240.734 2095.76 Q236.151 2088.85 236.151 2075.76 Q236.151 2062.64 240.734 2055.76 Q245.352 2048.85 254.068 2048.85 Z" fill="#000000" fill-rule="evenodd" fill-opacity="1" /><path clip-path="url(#clip330)" d="M299.31 2054.41 Q293.894 2054.41 291.151 2059.76 Q288.442 2065.07 288.442 2075.76 Q288.442 2086.42 291.151 2091.77 Q293.894 2097.08 299.31 2097.08 Q304.762 2097.08 307.47 2091.77 Q310.213 2086.42 310.213 2075.76 Q310.213 2065.07 307.47 2059.76 Q304.762 2054.41 299.31 2054.41 M299.31 2048.85 Q308.026 2048.85 312.609 2055.76 Q317.227 2062.64 317.227 2075.76 Q317.227 2088.85 312.609 2095.76 Q308.026 2102.64 299.31 2102.64 Q290.595 2102.64 285.977 2095.76 Q281.394 2088.85 281.394 2075.76 Q281.394 2062.64 285.977 2055.76 Q290.595 2048.85 299.31 2048.85 Z" fill="#000000" fill-rule="evenodd" fill-opacity="1" /><path clip-path="url(#clip330)" d="M187.714 1573.53 Q182.297 1573.53 179.554 1578.88 Q176.846 1584.19 176.846 1594.88 Q176.846 1605.54 179.554 1610.89 Q182.297 1616.2 187.714 1616.2 Q193.165 1616.2 195.874 1610.89 Q198.617 1605.54 198.617 1594.88 Q198.617 1584.19 195.874 1578.88 Q193.165 1573.53 187.714 1573.53 M187.714 1567.97 Q196.429 1567.97 201.012 1574.88 Q205.63 1581.76 205.63 1594.88 Q205.63 1607.97 201.012 1614.88 Q196.429 1621.76 187.714 1621.76 Q178.999 1621.76 174.381 1614.88 Q169.797 1607.97 169.797 1594.88 Q169.797 1581.76 174.381 1574.88 Q178.999 1567.97 187.714 1567.97 Z" fill="#000000" fill-rule="evenodd" fill-opacity="1" /><path clip-path="url(#clip330)" d="M217.957 1611.93 L225.283 1611.93 L225.283 1620.75 L217.957 1620.75 L217.957 1611.93 Z" fill="#000000" fill-rule="evenodd" fill-opacity="1" /><path clip-path="url(#clip330)" d="M246.602 1614.85 L271.081 1614.85 L271.081 1620.75 L238.165 1620.75 L238.165 1614.85 Q242.158 1610.72 249.033 1603.77 Q255.943 1596.79 257.713 1594.78 Q261.082 1590.99 262.401 1588.39 Q263.755 1585.75 263.755 1583.22 Q263.755 1579.08 260.838 1576.48 Q257.957 1573.88 253.304 1573.88 Q250.005 1573.88 246.325 1575.02 Q242.679 1576.17 238.512 1578.49 L238.512 1571.41 Q242.748 1569.71 246.429 1568.84 Q250.109 1567.97 253.165 1567.97 Q261.22 1567.97 266.012 1572 Q270.804 1576.03 270.804 1582.77 Q270.804 1585.96 269.588 1588.84 Q268.408 1591.69 265.248 1595.58 Q264.38 1596.58 259.727 1601.41 Q255.075 1606.2 246.602 1614.85 Z" fill="#000000" fill-rule="evenodd" fill-opacity="1" /><path clip-path="url(#clip330)" d="M285.873 1568.91 L313.408 1568.91 L313.408 1574.81 L292.297 1574.81 L292.297 1587.52 Q293.824 1587 295.352 1586.76 Q296.88 1586.48 298.408 1586.48 Q307.088 1586.48 312.158 1591.24 Q317.227 1595.99 317.227 1604.12 Q317.227 1612.49 312.019 1617.14 Q306.81 1621.76 297.331 1621.76 Q294.067 1621.76 290.665 1621.2 Q287.297 1620.65 283.686 1619.54 L283.686 1612.49 Q286.811 1614.19 290.144 1615.02 Q293.477 1615.86 297.192 1615.86 Q303.199 1615.86 306.706 1612.7 Q310.213 1609.54 310.213 1604.12 Q310.213 1598.7 306.706 1595.54 Q303.199 1592.38 297.192 1592.38 Q294.38 1592.38 291.567 1593.01 Q288.79 1593.63 285.873 1594.95 L285.873 1568.91 Z" fill="#000000" fill-rule="evenodd" fill-opacity="1" /><path clip-path="url(#clip330)" d="M186.221 1092.65 Q180.804 1092.65 178.061 1098 Q175.353 1103.31 175.353 1114 Q175.353 1124.66 178.061 1130.01 Q180.804 1135.32 186.221 1135.32 Q191.672 1135.32 194.381 1130.01 Q197.124 1124.66 197.124 1114 Q197.124 1103.31 194.381 1098 Q191.672 1092.65 186.221 1092.65 M186.221 1087.09 Q194.936 1087.09 199.519 1094 Q204.137 1100.88 204.137 1114 Q204.137 1127.09 199.519 1134 Q194.936 1140.88 186.221 1140.88 Q177.506 1140.88 172.888 1134 Q168.304 1127.09 168.304 1114 Q168.304 1100.88 172.888 1094 Q177.506 1087.09 186.221 1087.09 Z" fill="#000000" fill-rule="evenodd" fill-opacity="1" /><path clip-path="url(#clip330)" d="M216.464 1131.05 L223.79 1131.05 L223.79 1139.87 L216.464 1139.87 L216.464 1131.05 Z" fill="#000000" fill-rule="evenodd" fill-opacity="1" /><path clip-path="url(#clip330)" d="M239.137 1088.03 L266.672 1088.03 L266.672 1093.93 L245.561 1093.93 L245.561 1106.64 Q247.089 1106.12 248.616 1105.88 Q250.144 1105.6 251.672 1105.6 Q260.352 1105.6 265.422 1110.36 Q270.491 1115.11 270.491 1123.24 Q270.491 1131.61 265.283 1136.26 Q260.075 1140.88 250.595 1140.88 Q247.332 1140.88 243.929 1140.32 Q240.561 1139.77 236.95 1138.66 L236.95 1131.61 Q240.075 1133.31 243.408 1134.14 Q246.741 1134.98 250.457 1134.98 Q256.464 1134.98 259.97 1131.82 Q263.477 1128.66 263.477 1123.24 Q263.477 1117.82 259.97 1114.66 Q256.464 1111.5 250.457 1111.5 Q247.644 1111.5 244.832 1112.13 Q242.054 1112.75 239.137 1114.07 L239.137 1088.03 Z" fill="#000000" fill-rule="evenodd" fill-opacity="1" /><path clip-path="url(#clip330)" d="M299.31 1092.65 Q293.894 1092.65 291.151 1098 Q288.442 1103.31 288.442 1114 Q288.442 1124.66 291.151 1130.01 Q293.894 1135.32 299.31 1135.32 Q304.762 1135.32 307.47 1130.01 Q310.213 1124.66 310.213 1114 Q310.213 1103.31 307.47 1098 Q304.762 1092.65 299.31 1092.65 M299.31 1087.09 Q308.026 1087.09 312.609 1094 Q317.227 1100.88 317.227 1114 Q317.227 1127.09 312.609 1134 Q308.026 1140.88 299.31 1140.88 Q290.595 1140.88 285.977 1134 Q281.394 1127.09 281.394 1114 Q281.394 1100.88 285.977 1094 Q290.595 1087.09 299.31 1087.09 Z" fill="#000000" fill-rule="evenodd" fill-opacity="1" /><path clip-path="url(#clip330)" d="M187.714 611.77 Q182.297 611.77 179.554 617.117 Q176.846 622.43 176.846 633.124 Q176.846 643.784 179.554 649.131 Q182.297 654.444 187.714 654.444 Q193.165 654.444 195.874 649.131 Q198.617 643.784 198.617 633.124 Q198.617 622.43 195.874 617.117 Q193.165 611.77 187.714 611.77 M187.714 606.215 Q196.429 606.215 201.012 613.124 Q205.63 619.999 205.63 633.124 Q205.63 646.214 201.012 653.124 Q196.429 659.999 187.714 659.999 Q178.999 659.999 174.381 653.124 Q169.797 646.214 169.797 633.124 Q169.797 619.999 174.381 613.124 Q178.999 606.215 187.714 606.215 Z" fill="#000000" fill-rule="evenodd" fill-opacity="1" /><path clip-path="url(#clip330)" d="M217.957 650.173 L225.283 650.173 L225.283 658.992 L217.957 658.992 L217.957 650.173 Z" fill="#000000" fill-rule="evenodd" fill-opacity="1" /><path clip-path="url(#clip330)" d="M238.79 607.152 L272.123 607.152 L272.123 610.138 L253.304 658.992 L245.977 658.992 L263.686 613.055 L238.79 613.055 L238.79 607.152 Z" fill="#000000" fill-rule="evenodd" fill-opacity="1" /><path clip-path="url(#clip330)" d="M285.873 607.152 L313.408 607.152 L313.408 613.055 L292.297 613.055 L292.297 625.763 Q293.824 625.242 295.352 624.999 Q296.88 624.721 298.408 624.721 Q307.088 624.721 312.158 629.478 Q317.227 634.235 317.227 642.36 Q317.227 650.728 312.019 655.381 Q306.81 659.999 297.331 659.999 Q294.067 659.999 290.665 659.444 Q287.297 658.888 283.686 657.777 L283.686 650.728 Q286.811 652.43 290.144 653.263 Q293.477 654.096 297.192 654.096 Q303.199 654.096 306.706 650.937 Q310.213 647.777 310.213 642.36 Q310.213 636.944 306.706 633.784 Q303.199 630.624 297.192 630.624 Q294.38 630.624 291.567 631.249 Q288.79 631.874 285.873 633.194 L285.873 607.152 Z" fill="#000000" fill-rule="evenodd" fill-opacity="1" /><path clip-path="url(#clip330)" d="M172.436 172.21 L183.894 172.21 L183.894 132.661 L171.429 135.161 L171.429 128.773 L183.825 126.273 L190.839 126.273 L190.839 172.21 L202.297 172.21 L202.297 178.113 L172.436 178.113 L172.436 172.21 Z" fill="#000000" fill-rule="evenodd" fill-opacity="1" /><path clip-path="url(#clip330)" d="M216.464 169.293 L223.79 169.293 L223.79 178.113 L216.464 178.113 L216.464 169.293 Z" fill="#000000" fill-rule="evenodd" fill-opacity="1" /><path clip-path="url(#clip330)" d="M254.068 130.891 Q248.651 130.891 245.908 136.238 Q243.2 141.55 243.2 152.245 Q243.2 162.904 245.908 168.251 Q248.651 173.564 254.068 173.564 Q259.519 173.564 262.227 168.251 Q264.97 162.904 264.97 152.245 Q264.97 141.55 262.227 136.238 Q259.519 130.891 254.068 130.891 M254.068 125.335 Q262.783 125.335 267.366 132.245 Q271.984 139.12 271.984 152.245 Q271.984 165.335 267.366 172.245 Q262.783 179.119 254.068 179.119 Q245.352 179.119 240.734 172.245 Q236.151 165.335 236.151 152.245 Q236.151 139.12 240.734 132.245 Q245.352 125.335 254.068 125.335 Z" fill="#000000" fill-rule="evenodd" fill-opacity="1" /><path clip-path="url(#clip330)" d="M299.31 130.891 Q293.894 130.891 291.151 136.238 Q288.442 141.55 288.442 152.245 Q288.442 162.904 291.151 168.251 Q293.894 173.564 299.31 173.564 Q304.762 173.564 307.47 168.251 Q310.213 162.904 310.213 152.245 Q310.213 141.55 307.47 136.238 Q304.762 130.891 299.31 130.891 M299.31 125.335 Q308.026 125.335 312.609 132.245 Q317.227 139.12 317.227 152.245 Q317.227 165.335 312.609 172.245 Q308.026 179.119 299.31 179.119 Q290.595 179.119 285.977 172.245 Q281.394 165.335 281.394 152.245 Q281.394 139.12 285.977 132.245 Q290.595 125.335 299.31 125.335 Z" fill="#000000" fill-rule="evenodd" fill-opacity="1" /><path clip-path="url(#clip330)" d="M84.8565 1151.45 Q77.9121 1151.45 74.0927 1154.33 Q70.2733 1157.18 70.2733 1162.35 Q70.2733 1167.49 74.0927 1170.37 Q77.9121 1173.22 84.8565 1173.22 Q91.7662 1173.22 95.5856 1170.37 Q99.4051 1167.49 99.4051 1162.35 Q99.4051 1157.18 95.5856 1154.33 Q91.7662 1151.45 84.8565 1151.45 M99.9259 1145.06 Q109.856 1145.06 114.683 1149.47 Q119.544 1153.88 119.544 1162.98 Q119.544 1166.34 119.023 1169.33 Q118.537 1172.32 117.495 1175.13 L111.28 1175.13 Q112.808 1172.32 113.537 1169.57 Q114.266 1166.83 114.266 1163.98 Q114.266 1157.7 110.967 1154.57 Q107.704 1151.45 101.072 1151.45 L97.912 1151.45 Q101.349 1153.43 103.051 1156.52 Q104.752 1159.61 104.752 1163.91 Q104.752 1171.07 99.3009 1175.44 Q93.8495 1179.82 84.8565 1179.82 Q75.8288 1179.82 70.3774 1175.44 Q64.9261 1171.07 64.9261 1163.91 Q64.9261 1159.61 66.6275 1156.52 Q68.3288 1153.43 71.7663 1151.45 L65.8636 1151.45 L65.8636 1145.06 L99.9259 1145.06 Z" fill="#000000" fill-rule="evenodd" fill-opacity="1" /><path clip-path="url(#clip330)" d="M50.7942 1116.55 Q58.7803 1121.21 66.5927 1123.46 Q74.4052 1125.72 82.426 1125.72 Q90.4468 1125.72 98.3287 1123.46 Q106.176 1121.17 114.127 1116.55 L114.127 1122.11 Q105.968 1127.32 98.0856 1129.92 Q90.2037 1132.49 82.426 1132.49 Q74.683 1132.49 66.8358 1129.92 Q58.9886 1127.35 50.7942 1122.11 L50.7942 1116.55 Z" fill="#000000" fill-rule="evenodd" fill-opacity="1" /><path clip-path="url(#clip330)" d="M50.7248 1104.4 L50.7248 1097.98 L82.6343 1097.98 L65.8636 1078.91 L65.8636 1070.76 L84.0579 1091.38 L104.752 1069.89 L104.752 1078.22 L85.7593 1097.98 L104.752 1097.98 L104.752 1104.4 L50.7248 1104.4 Z" fill="#000000" fill-rule="evenodd" fill-opacity="1" /><path clip-path="url(#clip330)" d="M50.7942 1063.98 L50.7942 1058.43 Q58.9886 1053.22 66.8358 1050.65 Q74.683 1048.05 82.426 1048.05 Q90.2037 1048.05 98.0856 1050.65 Q105.968 1053.22 114.127 1058.43 L114.127 1063.98 Q106.176 1059.37 98.3287 1057.11 Q90.4468 1054.82 82.426 1054.82 Q74.4052 1054.82 66.5927 1057.11 Q58.7803 1059.37 50.7942 1063.98 Z" fill="#000000" fill-rule="evenodd" fill-opacity="1" /><polyline clip-path="url(#clip332)" style="stroke:#ee7733; stroke-linecap:butt; stroke-linejoin:round; stroke-width:4.8; stroke-opacity:1; fill:none" points="
  3074.89,2074.87 3036.62,2072.45 2998.35,2068.58 2960.08,2062.94 2921.81,2055.69 2883.53,2046.92 2845.26,2037.25 2806.99,2025.64 2768.72,2012.04 2730.44,1997.21 
  2692.17,1980.23 2653.9,1961.61 2615.63,1941.35 2577.36,1919.29 2539.08,1896.09 2500.81,1869.64 2462.54,1841.28 2424.27,1808.98 2386,1775.45 2347.72,1736.04 
  2309.45,1693.64 2271.18,1645.03 2232.91,1589.72 2194.64,1527.13 2156.36,1457.88 2118.09,1376.42 2079.82,1281.39 2041.55,1172.57 2003.27,1049.27 1965,919.709 
  1926.73,777.277 1888.46,633.4 1850.19,485.65 1811.91,350.844 1773.64,220.567 1735.37,152.193 1697.1,199.202 1658.83,324.351 1620.55,471.355 1582.28,631.386 
  1544.01,796.51 1505.74,961.022 1467.46,1110.01 1429.19,1243.72 1390.92,1361.7 1352.65,1460.18 1314.38,1545.01 1276.1,1616.95 1237.83,1682.24 1199.56,1732.41 
  1161.29,1779.13 1123.02,1819.31 1084.74,1853.69 1046.47,1884.32 1008.2,1910.77 969.927,1935.87 931.655,1956.99 893.383,1976.72 855.11,1992.03 816.838,2007.47 
  778.566,2021.33 740.294,2032.8 702.022,2043.04 663.75,2051.92 625.478,2059.1 587.205,2065.04 548.933,2069.57 510.661,2072.43 472.389,2074.45 434.117,2075.27 
  395.845,2075.64 
  "/>
<polyline clip-path="url(#clip332)" style="stroke:#0077bb; stroke-linecap:butt; stroke-linejoin:round; stroke-width:4.8; stroke-opacity:1; fill:none" points="
  3074.89,2075.36 3036.62,2074.18 2998.35,2072.22 2960.08,2069.29 2921.81,2065.4 2883.53,2060.67 2845.26,2055.32 2806.99,2049.5 2768.72,2041.16 2730.44,2032.02 
  2692.17,2021.28 2653.9,2008.27 2615.63,1994.71 2577.36,1978.76 2539.08,1960.73 2500.81,1940.16 2462.54,1915.56 2424.27,1888.41 2386,1860.8 2347.72,1826.16 
  2309.45,1789.93 2271.18,1747.35 2232.91,1699.89 2194.64,1643.74 2156.36,1579.64 2118.09,1506.79 2079.82,1413.89 2041.55,1308.94 2003.27,1180.3 1965,1043.28 
  1926.73,889.555 1888.46,724.18 1850.19,555.559 1811.91,396.838 1773.64,239.08 1735.37,152.193 1697.1,207.034 1658.83,364.262 1620.55,541.542 1582.28,724.552 
  1544.01,907.668 1505.74,1079.95 1467.46,1242.86 1429.19,1373.22 1390.92,1486.98 1352.65,1575.95 1314.38,1652.27 1276.1,1712.68 1237.83,1768.85 1199.56,1809.85 
  1161.29,1851.51 1123.02,1884.09 1084.74,1912.32 1046.47,1937.78 1008.2,1959.81 969.927,1980.47 931.655,1995.41 893.383,2010.46 855.11,2022.69 816.838,2033.48 
  778.566,2042.98 740.294,2051.01 702.022,2055.76 663.75,2062.42 625.478,2065.94 587.205,2069.9 548.933,2072.2 510.661,2073.76 472.389,2074.94 434.117,2075.41 
  395.845,2075.67 
  "/>
<path clip-path="url(#clip330)" d="
M2321.04 356.851 L3014.17 356.851 L3014.17 162.451 L2321.04 162.451  Z
  " fill="#ffffff" fill-rule="evenodd" fill-opacity="0.9"/>
<polyline clip-path="url(#clip330)" style="stroke:#222255; stroke-linecap:butt; stroke-linejoin:round; stroke-width:4; stroke-opacity:0.1; fill:none" points="
  2321.04,356.851 3014.17,356.851 3014.17,162.451 2321.04,162.451 2321.04,356.851 
  "/>
<polyline clip-path="url(#clip330)" style="stroke:#ee7733; stroke-linecap:butt; stroke-linejoin:round; stroke-width:5; stroke-opacity:1; fill:none" points="
  2351.49,227.251 2534.17,227.251 
  "/>
<path clip-path="url(#clip330)" d="M2588.26 232.271 Q2588.26 226.484 2585.86 223.301 Q2583.48 220.119 2579.17 220.119 Q2574.89 220.119 2572.49 223.301 Q2570.12 226.484 2570.12 232.271 Q2570.12 238.029 2572.49 241.212 Q2574.89 244.395 2579.17 244.395 Q2583.48 244.395 2585.86 241.212 Q2588.26 238.029 2588.26 232.271 M2593.58 244.829 Q2593.58 253.105 2589.91 257.127 Q2586.23 261.177 2578.65 261.177 Q2575.85 261.177 2573.36 260.743 Q2570.87 260.338 2568.52 259.47 L2568.52 254.291 Q2570.87 255.564 2573.15 256.172 Q2575.44 256.779 2577.81 256.779 Q2583.05 256.779 2585.65 254.03 Q2588.26 251.311 2588.26 245.784 L2588.26 243.151 Q2586.61 246.015 2584.03 247.433 Q2581.46 248.851 2577.87 248.851 Q2571.91 248.851 2568.26 244.308 Q2564.62 239.766 2564.62 232.271 Q2564.62 224.748 2568.26 220.205 Q2571.91 215.663 2577.87 215.663 Q2581.46 215.663 2584.03 217.08 Q2586.61 218.498 2588.26 221.363 L2588.26 216.444 L2593.58 216.444 L2593.58 244.829 Z" fill="#000000" fill-rule="evenodd" fill-opacity="1" /><path clip-path="url(#clip330)" d="M2603.48 245.668 L2609.38 245.668 L2609.38 227.989 L2602.93 229.175 L2602.93 225.819 L2609.58 224.69 L2613.55 224.69 L2613.55 245.668 L2619.48 245.668 L2619.48 248.851 L2603.48 248.851 L2603.48 245.668 Z" fill="#000000" fill-rule="evenodd" fill-opacity="1" /><path clip-path="url(#clip330)" d="M2641.09 203.886 Q2637.22 210.541 2635.34 217.052 Q2633.45 223.562 2633.45 230.246 Q2633.45 236.93 2635.34 243.498 Q2637.25 250.037 2641.09 256.664 L2636.46 256.664 Q2632.12 249.864 2629.95 243.296 Q2627.81 236.727 2627.81 230.246 Q2627.81 223.793 2629.95 217.254 Q2632.09 210.715 2636.46 203.886 L2641.09 203.886 Z" fill="#000000" fill-rule="evenodd" fill-opacity="1" /><path clip-path="url(#clip330)" d="M2651.22 203.828 L2656.57 203.828 L2656.57 230.419 L2672.46 216.444 L2679.26 216.444 L2662.07 231.606 L2679.98 248.851 L2673.04 248.851 L2656.57 233.024 L2656.57 248.851 L2651.22 248.851 L2651.22 203.828 Z" fill="#000000" fill-rule="evenodd" fill-opacity="1" /><path clip-path="url(#clip330)" d="M2684.9 203.886 L2689.53 203.886 Q2693.87 210.715 2696.01 217.254 Q2698.18 223.793 2698.18 230.246 Q2698.18 236.727 2696.01 243.296 Q2693.87 249.864 2689.53 256.664 L2684.9 256.664 Q2688.75 250.037 2690.63 243.498 Q2692.54 236.93 2692.54 230.246 Q2692.54 223.562 2690.63 217.052 Q2688.75 210.541 2684.9 203.886 Z" fill="#000000" fill-rule="evenodd" fill-opacity="1" /><path clip-path="url(#clip330)" d="M2733.48 258.689 L2733.48 262.827 L2702.7 262.827 L2702.7 258.689 L2733.48 258.689 Z" fill="#000000" fill-rule="evenodd" fill-opacity="1" /><path clip-path="url(#clip330)" d="M2757.27 221.421 Q2756.37 220.9 2755.3 220.668 Q2754.26 220.408 2752.99 220.408 Q2748.47 220.408 2746.04 223.359 Q2743.64 226.282 2743.64 231.779 L2743.64 248.851 L2738.29 248.851 L2738.29 216.444 L2743.64 216.444 L2743.64 221.479 Q2745.32 218.527 2748.01 217.109 Q2750.7 215.663 2754.55 215.663 Q2755.1 215.663 2755.76 215.749 Q2756.43 215.807 2757.24 215.952 L2757.27 221.421 Z" fill="#000000" fill-rule="evenodd" fill-opacity="1" /><path clip-path="url(#clip330)" d="M2789.27 231.316 L2789.27 233.921 L2764.79 233.921 Q2765.14 239.418 2768.09 242.312 Q2771.07 245.176 2776.36 245.176 Q2779.43 245.176 2782.3 244.424 Q2785.19 243.672 2788.03 242.167 L2788.03 247.202 Q2785.16 248.417 2782.15 249.054 Q2779.14 249.69 2776.05 249.69 Q2768.29 249.69 2763.75 245.176 Q2759.24 240.662 2759.24 232.966 Q2759.24 225.009 2763.52 220.35 Q2767.83 215.663 2775.12 215.663 Q2781.66 215.663 2785.45 219.887 Q2789.27 224.083 2789.27 231.316 M2783.95 229.754 Q2783.89 225.385 2781.49 222.781 Q2779.11 220.176 2775.18 220.176 Q2770.72 220.176 2768.03 222.694 Q2765.37 225.211 2764.96 229.783 L2783.95 229.754 Z" fill="#000000" fill-rule="evenodd" fill-opacity="1" /><path clip-path="url(#clip330)" d="M2798.01 203.828 L2803.33 203.828 L2803.33 248.851 L2798.01 248.851 L2798.01 203.828 Z" fill="#000000" fill-rule="evenodd" fill-opacity="1" /><path clip-path="url(#clip330)" d="M2829.2 232.561 Q2822.75 232.561 2820.26 234.036 Q2817.77 235.512 2817.77 239.071 Q2817.77 241.907 2819.62 243.585 Q2821.5 245.234 2824.72 245.234 Q2829.14 245.234 2831.8 242.109 Q2834.5 238.955 2834.5 233.747 L2834.5 232.561 L2829.2 232.561 M2839.82 230.362 L2839.82 248.851 L2834.5 248.851 L2834.5 243.932 Q2832.67 246.884 2829.95 248.301 Q2827.23 249.69 2823.3 249.69 Q2818.32 249.69 2815.37 246.912 Q2812.45 244.106 2812.45 239.418 Q2812.45 233.95 2816.09 231.172 Q2819.77 228.394 2827.03 228.394 L2834.5 228.394 L2834.5 227.873 Q2834.5 224.198 2832.06 222.202 Q2829.66 220.176 2825.29 220.176 Q2822.52 220.176 2819.88 220.842 Q2817.25 221.508 2814.82 222.839 L2814.82 217.92 Q2817.74 216.791 2820.49 216.241 Q2823.24 215.663 2825.84 215.663 Q2832.88 215.663 2836.35 219.308 Q2839.82 222.954 2839.82 230.362 Z" fill="#000000" fill-rule="evenodd" fill-opacity="1" /><path clip-path="url(#clip330)" d="M2856.05 207.243 L2856.05 216.444 L2867.02 216.444 L2867.02 220.582 L2856.05 220.582 L2856.05 238.174 Q2856.05 242.138 2857.12 243.267 Q2858.22 244.395 2861.55 244.395 L2867.02 244.395 L2867.02 248.851 L2861.55 248.851 Q2855.39 248.851 2853.04 246.565 Q2850.7 244.25 2850.7 238.174 L2850.7 220.582 L2846.79 220.582 L2846.79 216.444 L2850.7 216.444 L2850.7 207.243 L2856.05 207.243 Z" fill="#000000" fill-rule="evenodd" fill-opacity="1" /><path clip-path="url(#clip330)" d="M2874.02 216.444 L2879.34 216.444 L2879.34 248.851 L2874.02 248.851 L2874.02 216.444 M2874.02 203.828 L2879.34 203.828 L2879.34 210.57 L2874.02 210.57 L2874.02 203.828 Z" fill="#000000" fill-rule="evenodd" fill-opacity="1" /><path clip-path="url(#clip330)" d="M2886.67 216.444 L2892.31 216.444 L2902.43 243.643 L2912.56 216.444 L2918.2 216.444 L2906.05 248.851 L2898.82 248.851 L2886.67 216.444 Z" fill="#000000" fill-rule="evenodd" fill-opacity="1" /><path clip-path="url(#clip330)" d="M2953.27 231.316 L2953.27 233.921 L2928.79 233.921 Q2929.14 239.418 2932.09 242.312 Q2935.07 245.176 2940.37 245.176 Q2943.44 245.176 2946.3 244.424 Q2949.19 243.672 2952.03 242.167 L2952.03 247.202 Q2949.16 248.417 2946.16 249.054 Q2943.15 249.69 2940.05 249.69 Q2932.3 249.69 2927.75 245.176 Q2923.24 240.662 2923.24 232.966 Q2923.24 225.009 2927.52 220.35 Q2931.83 215.663 2939.12 215.663 Q2945.66 215.663 2949.45 219.887 Q2953.27 224.083 2953.27 231.316 M2947.95 229.754 Q2947.89 225.385 2945.49 222.781 Q2943.12 220.176 2939.18 220.176 Q2934.73 220.176 2932.04 222.694 Q2929.37 225.211 2928.97 229.783 L2947.95 229.754 Z" fill="#000000" fill-rule="evenodd" fill-opacity="1" /><polyline clip-path="url(#clip330)" style="stroke:#0077bb; stroke-linecap:butt; stroke-linejoin:round; stroke-width:5; stroke-opacity:1; fill:none" points="
  2351.49,292.051 2534.17,292.051 
  "/>
<path clip-path="url(#clip330)" d="M2588.26 297.071 Q2588.26 291.284 2585.86 288.101 Q2583.48 284.919 2579.17 284.919 Q2574.89 284.919 2572.49 288.101 Q2570.12 291.284 2570.12 297.071 Q2570.12 302.829 2572.49 306.012 Q2574.89 309.195 2579.17 309.195 Q2583.48 309.195 2585.86 306.012 Q2588.26 302.829 2588.26 297.071 M2593.58 309.629 Q2593.58 317.905 2589.91 321.927 Q2586.23 325.977 2578.65 325.977 Q2575.85 325.977 2573.36 325.543 Q2570.87 325.138 2568.52 324.27 L2568.52 319.091 Q2570.87 320.364 2573.15 320.972 Q2575.44 321.579 2577.81 321.579 Q2583.05 321.579 2585.65 318.83 Q2588.26 316.111 2588.26 310.584 L2588.26 307.951 Q2586.61 310.815 2584.03 312.233 Q2581.46 313.651 2577.87 313.651 Q2571.91 313.651 2568.26 309.108 Q2564.62 304.566 2564.62 297.071 Q2564.62 289.548 2568.26 285.005 Q2571.91 280.463 2577.87 280.463 Q2581.46 280.463 2584.03 281.88 Q2586.61 283.298 2588.26 286.163 L2588.26 281.244 L2593.58 281.244 L2593.58 309.629 Z" fill="#000000" fill-rule="evenodd" fill-opacity="1" /><path clip-path="url(#clip330)" d="M2606.72 310.353 L2618.99 310.353 L2618.99 313.651 L2601.68 313.651 L2601.68 310.468 Q2602.67 309.571 2604.49 307.951 Q2614.44 299.126 2614.44 296.406 Q2614.44 294.496 2612.94 293.339 Q2611.44 292.152 2608.98 292.152 Q2607.47 292.152 2605.71 292.673 Q2603.94 293.165 2601.86 294.178 L2601.86 290.619 Q2604.09 289.809 2606 289.404 Q2607.93 288.998 2609.58 288.998 Q2613.78 288.998 2616.3 290.908 Q2618.81 292.818 2618.81 295.943 Q2618.81 299.965 2609.24 308.182 Q2607.62 309.571 2606.72 310.353 Z" fill="#000000" fill-rule="evenodd" fill-opacity="1" /><path clip-path="url(#clip330)" d="M2641.09 268.686 Q2637.22 275.341 2635.34 281.852 Q2633.45 288.362 2633.45 295.046 Q2633.45 301.73 2635.34 308.298 Q2637.25 314.837 2641.09 321.464 L2636.46 321.464 Q2632.12 314.664 2629.95 308.096 Q2627.81 301.527 2627.81 295.046 Q2627.81 288.593 2629.95 282.054 Q2632.09 275.515 2636.46 268.686 L2641.09 268.686 Z" fill="#000000" fill-rule="evenodd" fill-opacity="1" /><path clip-path="url(#clip330)" d="M2651.22 268.628 L2656.57 268.628 L2656.57 295.219 L2672.46 281.244 L2679.26 281.244 L2662.07 296.406 L2679.98 313.651 L2673.04 313.651 L2656.57 297.824 L2656.57 313.651 L2651.22 313.651 L2651.22 268.628 Z" fill="#000000" fill-rule="evenodd" fill-opacity="1" /><path clip-path="url(#clip330)" d="M2684.9 268.686 L2689.53 268.686 Q2693.87 275.515 2696.01 282.054 Q2698.18 288.593 2698.18 295.046 Q2698.18 301.527 2696.01 308.096 Q2693.87 314.664 2689.53 321.464 L2684.9 321.464 Q2688.75 314.837 2690.63 308.298 Q2692.54 301.73 2692.54 295.046 Q2692.54 288.362 2690.63 281.852 Q2688.75 275.341 2684.9 268.686 Z" fill="#000000" fill-rule="evenodd" fill-opacity="1" /><path clip-path="url(#clip330)" d="M2733.48 323.489 L2733.48 327.627 L2702.7 327.627 L2702.7 323.489 L2733.48 323.489 Z" fill="#000000" fill-rule="evenodd" fill-opacity="1" /><path clip-path="url(#clip330)" d="M2757.27 286.221 Q2756.37 285.7 2755.3 285.468 Q2754.26 285.208 2752.99 285.208 Q2748.47 285.208 2746.04 288.159 Q2743.64 291.082 2743.64 296.579 L2743.64 313.651 L2738.29 313.651 L2738.29 281.244 L2743.64 281.244 L2743.64 286.279 Q2745.32 283.327 2748.01 281.909 Q2750.7 280.463 2754.55 280.463 Q2755.1 280.463 2755.76 280.549 Q2756.43 280.607 2757.24 280.752 L2757.27 286.221 Z" fill="#000000" fill-rule="evenodd" fill-opacity="1" /><path clip-path="url(#clip330)" d="M2789.27 296.116 L2789.27 298.721 L2764.79 298.721 Q2765.14 304.218 2768.09 307.112 Q2771.07 309.976 2776.36 309.976 Q2779.43 309.976 2782.3 309.224 Q2785.19 308.472 2788.03 306.967 L2788.03 312.002 Q2785.16 313.217 2782.15 313.854 Q2779.14 314.49 2776.05 314.49 Q2768.29 314.49 2763.75 309.976 Q2759.24 305.462 2759.24 297.766 Q2759.24 289.809 2763.52 285.15 Q2767.83 280.463 2775.12 280.463 Q2781.66 280.463 2785.45 284.687 Q2789.27 288.883 2789.27 296.116 M2783.95 294.554 Q2783.89 290.185 2781.49 287.581 Q2779.11 284.976 2775.18 284.976 Q2770.72 284.976 2768.03 287.494 Q2765.37 290.011 2764.96 294.583 L2783.95 294.554 Z" fill="#000000" fill-rule="evenodd" fill-opacity="1" /><path clip-path="url(#clip330)" d="M2798.01 268.628 L2803.33 268.628 L2803.33 313.651 L2798.01 313.651 L2798.01 268.628 Z" fill="#000000" fill-rule="evenodd" fill-opacity="1" /><path clip-path="url(#clip330)" d="M2829.2 297.361 Q2822.75 297.361 2820.26 298.836 Q2817.77 300.312 2817.77 303.871 Q2817.77 306.707 2819.62 308.385 Q2821.5 310.034 2824.72 310.034 Q2829.14 310.034 2831.8 306.909 Q2834.5 303.755 2834.5 298.547 L2834.5 297.361 L2829.2 297.361 M2839.82 295.162 L2839.82 313.651 L2834.5 313.651 L2834.5 308.732 Q2832.67 311.684 2829.95 313.101 Q2827.23 314.49 2823.3 314.49 Q2818.32 314.49 2815.37 311.712 Q2812.45 308.906 2812.45 304.218 Q2812.45 298.75 2816.09 295.972 Q2819.77 293.194 2827.03 293.194 L2834.5 293.194 L2834.5 292.673 Q2834.5 288.998 2832.06 287.002 Q2829.66 284.976 2825.29 284.976 Q2822.52 284.976 2819.88 285.642 Q2817.25 286.308 2814.82 287.639 L2814.82 282.72 Q2817.74 281.591 2820.49 281.041 Q2823.24 280.463 2825.84 280.463 Q2832.88 280.463 2836.35 284.108 Q2839.82 287.754 2839.82 295.162 Z" fill="#000000" fill-rule="evenodd" fill-opacity="1" /><path clip-path="url(#clip330)" d="M2856.05 272.043 L2856.05 281.244 L2867.02 281.244 L2867.02 285.382 L2856.05 285.382 L2856.05 302.974 Q2856.05 306.938 2857.12 308.067 Q2858.22 309.195 2861.55 309.195 L2867.02 309.195 L2867.02 313.651 L2861.55 313.651 Q2855.39 313.651 2853.04 311.365 Q2850.7 309.05 2850.7 302.974 L2850.7 285.382 L2846.79 285.382 L2846.79 281.244 L2850.7 281.244 L2850.7 272.043 L2856.05 272.043 Z" fill="#000000" fill-rule="evenodd" fill-opacity="1" /><path clip-path="url(#clip330)" d="M2874.02 281.244 L2879.34 281.244 L2879.34 313.651 L2874.02 313.651 L2874.02 281.244 M2874.02 268.628 L2879.34 268.628 L2879.34 275.37 L2874.02 275.37 L2874.02 268.628 Z" fill="#000000" fill-rule="evenodd" fill-opacity="1" /><path clip-path="url(#clip330)" d="M2886.67 281.244 L2892.31 281.244 L2902.43 308.443 L2912.56 281.244 L2918.2 281.244 L2906.05 313.651 L2898.82 313.651 L2886.67 281.244 Z" fill="#000000" fill-rule="evenodd" fill-opacity="1" /><path clip-path="url(#clip330)" d="M2953.27 296.116 L2953.27 298.721 L2928.79 298.721 Q2929.14 304.218 2932.09 307.112 Q2935.07 309.976 2940.37 309.976 Q2943.44 309.976 2946.3 309.224 Q2949.19 308.472 2952.03 306.967 L2952.03 312.002 Q2949.16 313.217 2946.16 313.854 Q2943.15 314.49 2940.05 314.49 Q2932.3 314.49 2927.75 309.976 Q2923.24 305.462 2923.24 297.766 Q2923.24 289.809 2927.52 285.15 Q2931.83 280.463 2939.12 280.463 Q2945.66 280.463 2949.45 284.687 Q2953.27 288.883 2953.27 296.116 M2947.95 294.554 Q2947.89 290.185 2945.49 287.581 Q2943.12 284.976 2939.18 284.976 Q2934.73 284.976 2932.04 287.494 Q2929.37 290.011 2928.97 294.583 L2947.95 294.554 Z" fill="#000000" fill-rule="evenodd" fill-opacity="1" /></svg>
