<?xml version="1.0" encoding="utf-8"?>
<svg xmlns="http://www.w3.org/2000/svg" xmlns:xlink="http://www.w3.org/1999/xlink" width="800" height="600" viewBox="0 0 3200 2400">
<defs>
  <clipPath id="clip770">
    <rect x="0" y="0" width="3200" height="2400"/>
  </clipPath>
</defs>
<path clip-path="url(#clip770)" d="
M0 2400 L3200 2400 L3200 0 L0 0  Z
  " fill="#ffffff" fill-rule="evenodd" fill-opacity="1"/>
<defs>
  <clipPath id="clip771">
    <rect x="640" y="0" width="2241" height="2241"/>
  </clipPath>
</defs>
<path clip-path="url(#clip770)" d="
M978.373 2207.44 L3105.51 2207.44 L3105.51 94.4882 L978.373 94.4882  Z
  " fill="#ffffff" fill-rule="evenodd" fill-opacity="1"/>
<defs>
  <clipPath id="clip772">
    <rect x="978" y="94" width="2128" height="2114"/>
  </clipPath>
</defs>
<polyline clip-path="url(#clip772)" style="stroke:#222255; stroke-linecap:butt; stroke-linejoin:round; stroke-width:2; stroke-opacity:0.05; fill:none" points="
  1110.24,2207.44 1110.24,94.4882 
  "/>
<polyline clip-path="url(#clip772)" style="stroke:#222255; stroke-linecap:butt; stroke-linejoin:round; stroke-width:2; stroke-opacity:0.05; fill:none" points="
  1627.85,2207.44 1627.85,94.4882 
  "/>
<polyline clip-path="url(#clip772)" style="stroke:#222255; stroke-linecap:butt; stroke-linejoin:round; stroke-width:2; stroke-opacity:0.05; fill:none" points="
  2145.46,2207.44 2145.46,94.4882 
  "/>
<polyline clip-path="url(#clip772)" style="stroke:#222255; stroke-linecap:butt; stroke-linejoin:round; stroke-width:2; stroke-opacity:0.05; fill:none" points="
  2663.08,2207.44 2663.08,94.4882 
  "/>
<polyline clip-path="url(#clip772)" style="stroke:#222255; stroke-linecap:butt; stroke-linejoin:round; stroke-width:2; stroke-opacity:0.05; fill:none" points="
  1006.72,2207.44 1006.72,94.4882 
  "/>
<polyline clip-path="url(#clip772)" style="stroke:#222255; stroke-linecap:butt; stroke-linejoin:round; stroke-width:2; stroke-opacity:0.05; fill:none" points="
  1213.76,2207.44 1213.76,94.4882 
  "/>
<polyline clip-path="url(#clip772)" style="stroke:#222255; stroke-linecap:butt; stroke-linejoin:round; stroke-width:2; stroke-opacity:0.05; fill:none" points="
  1317.28,2207.44 1317.28,94.4882 
  "/>
<polyline clip-path="url(#clip772)" style="stroke:#222255; stroke-linecap:butt; stroke-linejoin:round; stroke-width:2; stroke-opacity:0.05; fill:none" points="
  1420.81,2207.44 1420.81,94.4882 
  "/>
<polyline clip-path="url(#clip772)" style="stroke:#222255; stroke-linecap:butt; stroke-linejoin:round; stroke-width:2; stroke-opacity:0.05; fill:none" points="
  1524.33,2207.44 1524.33,94.4882 
  "/>
<polyline clip-path="url(#clip772)" style="stroke:#222255; stroke-linecap:butt; stroke-linejoin:round; stroke-width:2; stroke-opacity:0.05; fill:none" points="
  1731.37,2207.44 1731.37,94.4882 
  "/>
<polyline clip-path="url(#clip772)" style="stroke:#222255; stroke-linecap:butt; stroke-linejoin:round; stroke-width:2; stroke-opacity:0.05; fill:none" points="
  1834.9,2207.44 1834.9,94.4882 
  "/>
<polyline clip-path="url(#clip772)" style="stroke:#222255; stroke-linecap:butt; stroke-linejoin:round; stroke-width:2; stroke-opacity:0.05; fill:none" points="
  1938.42,2207.44 1938.42,94.4882 
  "/>
<polyline clip-path="url(#clip772)" style="stroke:#222255; stroke-linecap:butt; stroke-linejoin:round; stroke-width:2; stroke-opacity:0.05; fill:none" points="
  2041.94,2207.44 2041.94,94.4882 
  "/>
<polyline clip-path="url(#clip772)" style="stroke:#222255; stroke-linecap:butt; stroke-linejoin:round; stroke-width:2; stroke-opacity:0.05; fill:none" points="
  2248.99,2207.44 2248.99,94.4882 
  "/>
<polyline clip-path="url(#clip772)" style="stroke:#222255; stroke-linecap:butt; stroke-linejoin:round; stroke-width:2; stroke-opacity:0.05; fill:none" points="
  2352.51,2207.44 2352.51,94.4882 
  "/>
<polyline clip-path="url(#clip772)" style="stroke:#222255; stroke-linecap:butt; stroke-linejoin:round; stroke-width:2; stroke-opacity:0.05; fill:none" points="
  2456.03,2207.44 2456.03,94.4882 
  "/>
<polyline clip-path="url(#clip772)" style="stroke:#222255; stroke-linecap:butt; stroke-linejoin:round; stroke-width:2; stroke-opacity:0.05; fill:none" points="
  2559.56,2207.44 2559.56,94.4882 
  "/>
<polyline clip-path="url(#clip772)" style="stroke:#222255; stroke-linecap:butt; stroke-linejoin:round; stroke-width:2; stroke-opacity:0.05; fill:none" points="
  2766.6,2207.44 2766.6,94.4882 
  "/>
<polyline clip-path="url(#clip772)" style="stroke:#222255; stroke-linecap:butt; stroke-linejoin:round; stroke-width:2; stroke-opacity:0.05; fill:none" points="
  2870.12,2207.44 2870.12,94.4882 
  "/>
<polyline clip-path="url(#clip772)" style="stroke:#222255; stroke-linecap:butt; stroke-linejoin:round; stroke-width:2; stroke-opacity:0.05; fill:none" points="
  2973.65,2207.44 2973.65,94.4882 
  "/>
<polyline clip-path="url(#clip772)" style="stroke:#222255; stroke-linecap:butt; stroke-linejoin:round; stroke-width:2; stroke-opacity:0.05; fill:none" points="
  3077.17,2207.44 3077.17,94.4882 
  "/>
<polyline clip-path="url(#clip770)" style="stroke:#000000; stroke-linecap:butt; stroke-linejoin:round; stroke-width:4; stroke-opacity:1; fill:none" points="
  978.373,2207.44 3105.51,2207.44 
  "/>
<polyline clip-path="url(#clip770)" style="stroke:#000000; stroke-linecap:butt; stroke-linejoin:round; stroke-width:4; stroke-opacity:1; fill:none" points="
  978.373,94.4882 3105.51,94.4882 
  "/>
<polyline clip-path="url(#clip770)" style="stroke:#000000; stroke-linecap:butt; stroke-linejoin:round; stroke-width:4; stroke-opacity:1; fill:none" points="
  1110.24,2207.44 1110.24,2188.55 
  "/>
<polyline clip-path="url(#clip770)" style="stroke:#000000; stroke-linecap:butt; stroke-linejoin:round; stroke-width:4; stroke-opacity:1; fill:none" points="
  1627.85,2207.44 1627.85,2188.55 
  "/>
<polyline clip-path="url(#clip770)" style="stroke:#000000; stroke-linecap:butt; stroke-linejoin:round; stroke-width:4; stroke-opacity:1; fill:none" points="
  2145.46,2207.44 2145.46,2188.55 
  "/>
<polyline clip-path="url(#clip770)" style="stroke:#000000; stroke-linecap:butt; stroke-linejoin:round; stroke-width:4; stroke-opacity:1; fill:none" points="
  2663.08,2207.44 2663.08,2188.55 
  "/>
<polyline clip-path="url(#clip770)" style="stroke:#000000; stroke-linecap:butt; stroke-linejoin:round; stroke-width:4; stroke-opacity:1; fill:none" points="
  1006.72,2207.44 1006.72,2197.99 
  "/>
<polyline clip-path="url(#clip770)" style="stroke:#000000; stroke-linecap:butt; stroke-linejoin:round; stroke-width:4; stroke-opacity:1; fill:none" points="
  1213.76,2207.44 1213.76,2197.99 
  "/>
<polyline clip-path="url(#clip770)" style="stroke:#000000; stroke-linecap:butt; stroke-linejoin:round; stroke-width:4; stroke-opacity:1; fill:none" points="
  1317.28,2207.44 1317.28,2197.99 
  "/>
<polyline clip-path="url(#clip770)" style="stroke:#000000; stroke-linecap:butt; stroke-linejoin:round; stroke-width:4; stroke-opacity:1; fill:none" points="
  1420.81,2207.44 1420.81,2197.99 
  "/>
<polyline clip-path="url(#clip770)" style="stroke:#000000; stroke-linecap:butt; stroke-linejoin:round; stroke-width:4; stroke-opacity:1; fill:none" points="
  1524.33,2207.44 1524.33,2197.99 
  "/>
<polyline clip-path="url(#clip770)" style="stroke:#000000; stroke-linecap:butt; stroke-linejoin:round; stroke-width:4; stroke-opacity:1; fill:none" points="
  1731.37,2207.44 1731.37,2197.99 
  "/>
<polyline clip-path="url(#clip770)" style="stroke:#000000; stroke-linecap:butt; stroke-linejoin:round; stroke-width:4; stroke-opacity:1; fill:none" points="
  1834.9,2207.44 1834.9,2197.99 
  "/>
<polyline clip-path="url(#clip770)" style="stroke:#000000; stroke-linecap:butt; stroke-linejoin:round; stroke-width:4; stroke-opacity:1; fill:none" points="
  1938.42,2207.44 1938.42,2197.99 
  "/>
<polyline clip-path="url(#clip770)" style="stroke:#000000; stroke-linecap:butt; stroke-linejoin:round; stroke-width:4; stroke-opacity:1; fill:none" points="
  2041.94,2207.44 2041.94,2197.99 
  "/>
<polyline clip-path="url(#clip770)" style="stroke:#000000; stroke-linecap:butt; stroke-linejoin:round; stroke-width:4; stroke-opacity:1; fill:none" points="
  2248.99,2207.44 2248.99,2197.99 
  "/>
<polyline clip-path="url(#clip770)" style="stroke:#000000; stroke-linecap:butt; stroke-linejoin:round; stroke-width:4; stroke-opacity:1; fill:none" points="
  2352.51,2207.44 2352.51,2197.99 
  "/>
<polyline clip-path="url(#clip770)" style="stroke:#000000; stroke-linecap:butt; stroke-linejoin:round; stroke-width:4; stroke-opacity:1; fill:none" points="
  2456.03,2207.44 2456.03,2197.99 
  "/>
<polyline clip-path="url(#clip770)" style="stroke:#000000; stroke-linecap:butt; stroke-linejoin:round; stroke-width:4; stroke-opacity:1; fill:none" points="
  2559.56,2207.44 2559.56,2197.99 
  "/>
<polyline clip-path="url(#clip770)" style="stroke:#000000; stroke-linecap:butt; stroke-linejoin:round; stroke-width:4; stroke-opacity:1; fill:none" points="
  2766.6,2207.44 2766.6,2197.99 
  "/>
<polyline clip-path="url(#clip770)" style="stroke:#000000; stroke-linecap:butt; stroke-linejoin:round; stroke-width:4; stroke-opacity:1; fill:none" points="
  2870.12,2207.44 2870.12,2197.99 
  "/>
<polyline clip-path="url(#clip770)" style="stroke:#000000; stroke-linecap:butt; stroke-linejoin:round; stroke-width:4; stroke-opacity:1; fill:none" points="
  2973.65,2207.44 2973.65,2197.99 
  "/>
<polyline clip-path="url(#clip770)" style="stroke:#000000; stroke-linecap:butt; stroke-linejoin:round; stroke-width:4; stroke-opacity:1; fill:none" points="
  3077.17,2207.44 3077.17,2197.99 
  "/>
<path clip-path="url(#clip770)" d="M1110.24 2250.62 Q1104.82 2250.62 1102.08 2255.97 Q1099.37 2261.28 1099.37 2271.98 Q1099.37 2282.64 1102.08 2287.98 Q1104.82 2293.3 1110.24 2293.3 Q1115.69 2293.3 1118.4 2287.98 Q1121.14 2282.64 1121.14 2271.98 Q1121.14 2261.28 1118.4 2255.97 Q1115.69 2250.62 1110.24 2250.62 M1110.24 2245.07 Q1118.95 2245.07 1123.54 2251.98 Q1128.15 2258.85 1128.15 2271.98 Q1128.15 2285.07 1123.54 2291.98 Q1118.95 2298.85 1110.24 2298.85 Q1101.52 2298.85 1096.9 2291.98 Q1092.32 2285.07 1092.32 2271.98 Q1092.32 2258.85 1096.9 2251.98 Q1101.52 2245.07 1110.24 2245.07 Z" fill="#000000" fill-rule="evenodd" fill-opacity="1" /><path clip-path="url(#clip770)" d="M1589.9 2246 L1617.43 2246 L1617.43 2251.91 L1596.32 2251.91 L1596.32 2264.61 Q1597.85 2264.09 1599.38 2263.85 Q1600.91 2263.57 1602.43 2263.57 Q1611.12 2263.57 1616.18 2268.33 Q1621.25 2273.09 1621.25 2281.21 Q1621.25 2289.58 1616.05 2294.23 Q1610.84 2298.85 1601.36 2298.85 Q1598.09 2298.85 1594.69 2298.3 Q1591.32 2297.74 1587.71 2296.63 L1587.71 2289.58 Q1590.84 2291.28 1594.17 2292.11 Q1597.5 2292.95 1601.22 2292.95 Q1607.23 2292.95 1610.73 2289.79 Q1614.24 2286.63 1614.24 2281.21 Q1614.24 2275.8 1610.73 2272.64 Q1607.23 2269.48 1601.22 2269.48 Q1598.41 2269.48 1595.59 2270.1 Q1592.82 2270.73 1589.9 2272.05 L1589.9 2246 Z" fill="#000000" fill-rule="evenodd" fill-opacity="1" /><path clip-path="url(#clip770)" d="M1650.07 2250.62 Q1644.66 2250.62 1641.91 2255.97 Q1639.21 2261.28 1639.21 2271.98 Q1639.21 2282.64 1641.91 2287.98 Q1644.66 2293.3 1650.07 2293.3 Q1655.52 2293.3 1658.23 2287.98 Q1660.98 2282.64 1660.98 2271.98 Q1660.98 2261.28 1658.23 2255.97 Q1655.52 2250.62 1650.07 2250.62 M1650.07 2245.07 Q1658.79 2245.07 1663.37 2251.98 Q1667.99 2258.85 1667.99 2271.98 Q1667.99 2285.07 1663.37 2291.98 Q1658.79 2298.85 1650.07 2298.85 Q1641.36 2298.85 1636.74 2291.98 Q1632.16 2285.07 1632.16 2271.98 Q1632.16 2258.85 1636.74 2251.98 Q1641.36 2245.07 1650.07 2245.07 Z" fill="#000000" fill-rule="evenodd" fill-opacity="1" /><path clip-path="url(#clip770)" d="M2084.87 2291.94 L2096.33 2291.94 L2096.33 2252.39 L2083.87 2254.89 L2083.87 2248.5 L2096.26 2246 L2103.28 2246 L2103.28 2291.94 L2114.74 2291.94 L2114.74 2297.84 L2084.87 2297.84 L2084.87 2291.94 Z" fill="#000000" fill-rule="evenodd" fill-opacity="1" /><path clip-path="url(#clip770)" d="M2143.9 2250.62 Q2138.49 2250.62 2135.74 2255.97 Q2133.03 2261.28 2133.03 2271.98 Q2133.03 2282.64 2135.74 2287.98 Q2138.49 2293.3 2143.9 2293.3 Q2149.35 2293.3 2152.06 2287.98 Q2154.8 2282.64 2154.8 2271.98 Q2154.8 2261.28 2152.06 2255.97 Q2149.35 2250.62 2143.9 2250.62 M2143.9 2245.07 Q2152.62 2245.07 2157.2 2251.98 Q2161.82 2258.85 2161.82 2271.98 Q2161.82 2285.07 2157.2 2291.98 Q2152.62 2298.85 2143.9 2298.85 Q2135.19 2298.85 2130.57 2291.98 Q2125.99 2285.07 2125.99 2271.98 Q2125.99 2258.85 2130.57 2251.98 Q2135.19 2245.07 2143.9 2245.07 Z" fill="#000000" fill-rule="evenodd" fill-opacity="1" /><path clip-path="url(#clip770)" d="M2189.14 2250.62 Q2183.73 2250.62 2180.99 2255.97 Q2178.28 2261.28 2178.28 2271.98 Q2178.28 2282.64 2180.99 2287.98 Q2183.73 2293.3 2189.14 2293.3 Q2194.6 2293.3 2197.3 2287.98 Q2200.05 2282.64 2200.05 2271.98 Q2200.05 2261.28 2197.3 2255.97 Q2194.6 2250.62 2189.14 2250.62 M2189.14 2245.07 Q2197.86 2245.07 2202.44 2251.98 Q2207.06 2258.85 2207.06 2271.98 Q2207.06 2285.07 2202.44 2291.98 Q2197.86 2298.85 2189.14 2298.85 Q2180.43 2298.85 2175.81 2291.98 Q2171.23 2285.07 2171.23 2271.98 Q2171.23 2258.85 2175.81 2251.98 Q2180.43 2245.07 2189.14 2245.07 Z" fill="#000000" fill-rule="evenodd" fill-opacity="1" /><path clip-path="url(#clip770)" d="M2602.49 2291.94 L2613.95 2291.94 L2613.95 2252.39 L2601.48 2254.89 L2601.48 2248.5 L2613.88 2246 L2620.89 2246 L2620.89 2291.94 L2632.35 2291.94 L2632.35 2297.84 L2602.49 2297.84 L2602.49 2291.94 Z" fill="#000000" fill-rule="evenodd" fill-opacity="1" /><path clip-path="url(#clip770)" d="M2646.58 2246 L2674.12 2246 L2674.12 2251.91 L2653.01 2251.91 L2653.01 2264.61 Q2654.54 2264.09 2656.06 2263.85 Q2657.59 2263.57 2659.12 2263.57 Q2667.8 2263.57 2672.87 2268.33 Q2677.94 2273.09 2677.94 2281.21 Q2677.94 2289.58 2672.73 2294.23 Q2667.52 2298.85 2658.04 2298.85 Q2654.78 2298.85 2651.38 2298.3 Q2648.01 2297.74 2644.4 2296.63 L2644.4 2289.58 Q2647.52 2291.28 2650.86 2292.11 Q2654.19 2292.95 2657.9 2292.95 Q2663.91 2292.95 2667.42 2289.79 Q2670.93 2286.63 2670.93 2281.21 Q2670.93 2275.8 2667.42 2272.64 Q2663.91 2269.48 2657.9 2269.48 Q2655.09 2269.48 2652.28 2270.1 Q2649.5 2270.73 2646.58 2272.05 L2646.58 2246 Z" fill="#000000" fill-rule="evenodd" fill-opacity="1" /><path clip-path="url(#clip770)" d="M2706.76 2250.62 Q2701.34 2250.62 2698.6 2255.97 Q2695.89 2261.28 2695.89 2271.98 Q2695.89 2282.64 2698.6 2287.98 Q2701.34 2293.3 2706.76 2293.3 Q2712.21 2293.3 2714.92 2287.98 Q2717.66 2282.64 2717.66 2271.98 Q2717.66 2261.28 2714.92 2255.97 Q2712.21 2250.62 2706.76 2250.62 M2706.76 2245.07 Q2715.47 2245.07 2720.06 2251.98 Q2724.67 2258.85 2724.67 2271.98 Q2724.67 2285.07 2720.06 2291.98 Q2715.47 2298.85 2706.76 2298.85 Q2698.04 2298.85 2693.42 2291.98 Q2688.84 2285.07 2688.84 2271.98 Q2688.84 2258.85 2693.42 2251.98 Q2698.04 2245.07 2706.76 2245.07 Z" fill="#000000" fill-rule="evenodd" fill-opacity="1" /><polyline clip-path="url(#clip772)" style="stroke:#222255; stroke-linecap:butt; stroke-linejoin:round; stroke-width:2; stroke-opacity:0.05; fill:none" points="
  978.373,2147.69 3105.51,2147.69 
  "/>
<polyline clip-path="url(#clip772)" style="stroke:#222255; stroke-linecap:butt; stroke-linejoin:round; stroke-width:2; stroke-opacity:0.05; fill:none" points="
  978.373,1721.9 3105.51,1721.9 
  "/>
<polyline clip-path="url(#clip772)" style="stroke:#222255; stroke-linecap:butt; stroke-linejoin:round; stroke-width:2; stroke-opacity:0.05; fill:none" points="
  978.373,1296.11 3105.51,1296.11 
  "/>
<polyline clip-path="url(#clip772)" style="stroke:#222255; stroke-linecap:butt; stroke-linejoin:round; stroke-width:2; stroke-opacity:0.05; fill:none" points="
  978.373,870.322 3105.51,870.322 
  "/>
<polyline clip-path="url(#clip772)" style="stroke:#222255; stroke-linecap:butt; stroke-linejoin:round; stroke-width:2; stroke-opacity:0.05; fill:none" points="
  978.373,444.534 3105.51,444.534 
  "/>
<polyline clip-path="url(#clip772)" style="stroke:#222255; stroke-linecap:butt; stroke-linejoin:round; stroke-width:2; stroke-opacity:0.05; fill:none" points="
  978.373,2062.53 3105.51,2062.53 
  "/>
<polyline clip-path="url(#clip772)" style="stroke:#222255; stroke-linecap:butt; stroke-linejoin:round; stroke-width:2; stroke-opacity:0.05; fill:none" points="
  978.373,1977.37 3105.51,1977.37 
  "/>
<polyline clip-path="url(#clip772)" style="stroke:#222255; stroke-linecap:butt; stroke-linejoin:round; stroke-width:2; stroke-opacity:0.05; fill:none" points="
  978.373,1892.21 3105.51,1892.21 
  "/>
<polyline clip-path="url(#clip772)" style="stroke:#222255; stroke-linecap:butt; stroke-linejoin:round; stroke-width:2; stroke-opacity:0.05; fill:none" points="
  978.373,1807.06 3105.51,1807.06 
  "/>
<polyline clip-path="url(#clip772)" style="stroke:#222255; stroke-linecap:butt; stroke-linejoin:round; stroke-width:2; stroke-opacity:0.05; fill:none" points="
  978.373,1636.74 3105.51,1636.74 
  "/>
<polyline clip-path="url(#clip772)" style="stroke:#222255; stroke-linecap:butt; stroke-linejoin:round; stroke-width:2; stroke-opacity:0.05; fill:none" points="
  978.373,1551.58 3105.51,1551.58 
  "/>
<polyline clip-path="url(#clip772)" style="stroke:#222255; stroke-linecap:butt; stroke-linejoin:round; stroke-width:2; stroke-opacity:0.05; fill:none" points="
  978.373,1466.43 3105.51,1466.43 
  "/>
<polyline clip-path="url(#clip772)" style="stroke:#222255; stroke-linecap:butt; stroke-linejoin:round; stroke-width:2; stroke-opacity:0.05; fill:none" points="
  978.373,1381.27 3105.51,1381.27 
  "/>
<polyline clip-path="url(#clip772)" style="stroke:#222255; stroke-linecap:butt; stroke-linejoin:round; stroke-width:2; stroke-opacity:0.05; fill:none" points="
  978.373,1210.95 3105.51,1210.95 
  "/>
<polyline clip-path="url(#clip772)" style="stroke:#222255; stroke-linecap:butt; stroke-linejoin:round; stroke-width:2; stroke-opacity:0.05; fill:none" points="
  978.373,1125.79 3105.51,1125.79 
  "/>
<polyline clip-path="url(#clip772)" style="stroke:#222255; stroke-linecap:butt; stroke-linejoin:round; stroke-width:2; stroke-opacity:0.05; fill:none" points="
  978.373,1040.64 3105.51,1040.64 
  "/>
<polyline clip-path="url(#clip772)" style="stroke:#222255; stroke-linecap:butt; stroke-linejoin:round; stroke-width:2; stroke-opacity:0.05; fill:none" points="
  978.373,955.479 3105.51,955.479 
  "/>
<polyline clip-path="url(#clip772)" style="stroke:#222255; stroke-linecap:butt; stroke-linejoin:round; stroke-width:2; stroke-opacity:0.05; fill:none" points="
  978.373,785.164 3105.51,785.164 
  "/>
<polyline clip-path="url(#clip772)" style="stroke:#222255; stroke-linecap:butt; stroke-linejoin:round; stroke-width:2; stroke-opacity:0.05; fill:none" points="
  978.373,700.007 3105.51,700.007 
  "/>
<polyline clip-path="url(#clip772)" style="stroke:#222255; stroke-linecap:butt; stroke-linejoin:round; stroke-width:2; stroke-opacity:0.05; fill:none" points="
  978.373,614.849 3105.51,614.849 
  "/>
<polyline clip-path="url(#clip772)" style="stroke:#222255; stroke-linecap:butt; stroke-linejoin:round; stroke-width:2; stroke-opacity:0.05; fill:none" points="
  978.373,529.691 3105.51,529.691 
  "/>
<polyline clip-path="url(#clip772)" style="stroke:#222255; stroke-linecap:butt; stroke-linejoin:round; stroke-width:2; stroke-opacity:0.05; fill:none" points="
  978.373,359.376 3105.51,359.376 
  "/>
<polyline clip-path="url(#clip772)" style="stroke:#222255; stroke-linecap:butt; stroke-linejoin:round; stroke-width:2; stroke-opacity:0.05; fill:none" points="
  978.373,274.218 3105.51,274.218 
  "/>
<polyline clip-path="url(#clip772)" style="stroke:#222255; stroke-linecap:butt; stroke-linejoin:round; stroke-width:2; stroke-opacity:0.05; fill:none" points="
  978.373,189.061 3105.51,189.061 
  "/>
<polyline clip-path="url(#clip772)" style="stroke:#222255; stroke-linecap:butt; stroke-linejoin:round; stroke-width:2; stroke-opacity:0.05; fill:none" points="
  978.373,103.903 3105.51,103.903 
  "/>
<polyline clip-path="url(#clip770)" style="stroke:#000000; stroke-linecap:butt; stroke-linejoin:round; stroke-width:4; stroke-opacity:1; fill:none" points="
  978.373,2207.44 978.373,94.4882 
  "/>
<polyline clip-path="url(#clip770)" style="stroke:#000000; stroke-linecap:butt; stroke-linejoin:round; stroke-width:4; stroke-opacity:1; fill:none" points="
  3105.51,2207.44 3105.51,94.4882 
  "/>
<polyline clip-path="url(#clip770)" style="stroke:#000000; stroke-linecap:butt; stroke-linejoin:round; stroke-width:4; stroke-opacity:1; fill:none" points="
  978.373,2147.69 992.893,2147.69 
  "/>
<polyline clip-path="url(#clip770)" style="stroke:#000000; stroke-linecap:butt; stroke-linejoin:round; stroke-width:4; stroke-opacity:1; fill:none" points="
  978.373,1721.9 992.893,1721.9 
  "/>
<polyline clip-path="url(#clip770)" style="stroke:#000000; stroke-linecap:butt; stroke-linejoin:round; stroke-width:4; stroke-opacity:1; fill:none" points="
  978.373,1296.11 992.893,1296.11 
  "/>
<polyline clip-path="url(#clip770)" style="stroke:#000000; stroke-linecap:butt; stroke-linejoin:round; stroke-width:4; stroke-opacity:1; fill:none" points="
  978.373,870.322 992.893,870.322 
  "/>
<polyline clip-path="url(#clip770)" style="stroke:#000000; stroke-linecap:butt; stroke-linejoin:round; stroke-width:4; stroke-opacity:1; fill:none" points="
  978.373,444.534 992.893,444.534 
  "/>
<polyline clip-path="url(#clip770)" style="stroke:#000000; stroke-linecap:butt; stroke-linejoin:round; stroke-width:4; stroke-opacity:1; fill:none" points="
  978.373,2062.53 985.633,2062.53 
  "/>
<polyline clip-path="url(#clip770)" style="stroke:#000000; stroke-linecap:butt; stroke-linejoin:round; stroke-width:4; stroke-opacity:1; fill:none" points="
  978.373,1977.37 985.633,1977.37 
  "/>
<polyline clip-path="url(#clip770)" style="stroke:#000000; stroke-linecap:butt; stroke-linejoin:round; stroke-width:4; stroke-opacity:1; fill:none" points="
  978.373,1892.21 985.633,1892.21 
  "/>
<polyline clip-path="url(#clip770)" style="stroke:#000000; stroke-linecap:butt; stroke-linejoin:round; stroke-width:4; stroke-opacity:1; fill:none" points="
  978.373,1807.06 985.633,1807.06 
  "/>
<polyline clip-path="url(#clip770)" style="stroke:#000000; stroke-linecap:butt; stroke-linejoin:round; stroke-width:4; stroke-opacity:1; fill:none" points="
  978.373,1636.74 985.633,1636.74 
  "/>
<polyline clip-path="url(#clip770)" style="stroke:#000000; stroke-linecap:butt; stroke-linejoin:round; stroke-width:4; stroke-opacity:1; fill:none" points="
  978.373,1551.58 985.633,1551.58 
  "/>
<polyline clip-path="url(#clip770)" style="stroke:#000000; stroke-linecap:butt; stroke-linejoin:round; stroke-width:4; stroke-opacity:1; fill:none" points="
  978.373,1466.43 985.633,1466.43 
  "/>
<polyline clip-path="url(#clip770)" style="stroke:#000000; stroke-linecap:butt; stroke-linejoin:round; stroke-width:4; stroke-opacity:1; fill:none" points="
  978.373,1381.27 985.633,1381.27 
  "/>
<polyline clip-path="url(#clip770)" style="stroke:#000000; stroke-linecap:butt; stroke-linejoin:round; stroke-width:4; stroke-opacity:1; fill:none" points="
  978.373,1210.95 985.633,1210.95 
  "/>
<polyline clip-path="url(#clip770)" style="stroke:#000000; stroke-linecap:butt; stroke-linejoin:round; stroke-width:4; stroke-opacity:1; fill:none" points="
  978.373,1125.79 985.633,1125.79 
  "/>
<polyline clip-path="url(#clip770)" style="stroke:#000000; stroke-linecap:butt; stroke-linejoin:round; stroke-width:4; stroke-opacity:1; fill:none" points="
  978.373,1040.64 985.633,1040.64 
  "/>
<polyline clip-path="url(#clip770)" style="stroke:#000000; stroke-linecap:butt; stroke-linejoin:round; stroke-width:4; stroke-opacity:1; fill:none" points="
  978.373,955.479 985.633,955.479 
  "/>
<polyline clip-path="url(#clip770)" style="stroke:#000000; stroke-linecap:butt; stroke-linejoin:round; stroke-width:4; stroke-opacity:1; fill:none" points="
  978.373,785.164 985.633,785.164 
  "/>
<polyline clip-path="url(#clip770)" style="stroke:#000000; stroke-linecap:butt; stroke-linejoin:round; stroke-width:4; stroke-opacity:1; fill:none" points="
  978.373,700.007 985.633,700.007 
  "/>
<polyline clip-path="url(#clip770)" style="stroke:#000000; stroke-linecap:butt; stroke-linejoin:round; stroke-width:4; stroke-opacity:1; fill:none" points="
  978.373,614.849 985.633,614.849 
  "/>
<polyline clip-path="url(#clip770)" style="stroke:#000000; stroke-linecap:butt; stroke-linejoin:round; stroke-width:4; stroke-opacity:1; fill:none" points="
  978.373,529.691 985.633,529.691 
  "/>
<polyline clip-path="url(#clip770)" style="stroke:#000000; stroke-linecap:butt; stroke-linejoin:round; stroke-width:4; stroke-opacity:1; fill:none" points="
  978.373,359.376 985.633,359.376 
  "/>
<polyline clip-path="url(#clip770)" style="stroke:#000000; stroke-linecap:butt; stroke-linejoin:round; stroke-width:4; stroke-opacity:1; fill:none" points="
  978.373,274.218 985.633,274.218 
  "/>
<polyline clip-path="url(#clip770)" style="stroke:#000000; stroke-linecap:butt; stroke-linejoin:round; stroke-width:4; stroke-opacity:1; fill:none" points="
  978.373,189.061 985.633,189.061 
  "/>
<polyline clip-path="url(#clip770)" style="stroke:#000000; stroke-linecap:butt; stroke-linejoin:round; stroke-width:4; stroke-opacity:1; fill:none" points="
  978.373,103.903 985.633,103.903 
  "/>
<path clip-path="url(#clip770)" d="M754.124 2126.38 Q748.707 2126.38 745.964 2131.73 Q743.256 2137.04 743.256 2147.74 Q743.256 2158.4 745.964 2163.75 Q748.707 2169.06 754.124 2169.06 Q759.575 2169.06 762.283 2163.75 Q765.026 2158.4 765.026 2147.74 Q765.026 2137.04 762.283 2131.73 Q759.575 2126.38 754.124 2126.38 M754.124 2120.83 Q762.839 2120.83 767.422 2127.74 Q772.04 2134.61 772.04 2147.74 Q772.04 2160.83 767.422 2167.74 Q762.839 2174.61 754.124 2174.61 Q745.408 2174.61 740.79 2167.74 Q736.207 2160.83 736.207 2147.74 Q736.207 2134.61 740.79 2127.74 Q745.408 2120.83 754.124 2120.83 Z" fill="#000000" fill-rule="evenodd" fill-opacity="1" /><path clip-path="url(#clip770)" d="M784.367 2164.79 L791.693 2164.79 L791.693 2173.61 L784.367 2173.61 L784.367 2164.79 Z" fill="#000000" fill-rule="evenodd" fill-opacity="1" /><path clip-path="url(#clip770)" d="M821.97 2126.38 Q816.554 2126.38 813.811 2131.73 Q811.102 2137.04 811.102 2147.74 Q811.102 2158.4 813.811 2163.75 Q816.554 2169.06 821.97 2169.06 Q827.422 2169.06 830.13 2163.75 Q832.873 2158.4 832.873 2147.74 Q832.873 2137.04 830.13 2131.73 Q827.422 2126.38 821.97 2126.38 M821.97 2120.83 Q830.686 2120.83 835.269 2127.74 Q839.887 2134.61 839.887 2147.74 Q839.887 2160.83 835.269 2167.74 Q830.686 2174.61 821.97 2174.61 Q813.255 2174.61 808.637 2167.74 Q804.054 2160.83 804.054 2147.74 Q804.054 2134.61 808.637 2127.74 Q813.255 2120.83 821.97 2120.83 Z" fill="#000000" fill-rule="evenodd" fill-opacity="1" /><path clip-path="url(#clip770)" d="M867.213 2126.38 Q861.797 2126.38 859.054 2131.73 Q856.345 2137.04 856.345 2147.74 Q856.345 2158.4 859.054 2163.75 Q861.797 2169.06 867.213 2169.06 Q872.665 2169.06 875.373 2163.75 Q878.116 2158.4 878.116 2147.74 Q878.116 2137.04 875.373 2131.73 Q872.665 2126.38 867.213 2126.38 M867.213 2120.83 Q875.929 2120.83 880.512 2127.74 Q885.13 2134.61 885.13 2147.74 Q885.13 2160.83 880.512 2167.74 Q875.929 2174.61 867.213 2174.61 Q858.498 2174.61 853.88 2167.74 Q849.297 2160.83 849.297 2147.74 Q849.297 2134.61 853.88 2127.74 Q858.498 2120.83 867.213 2120.83 Z" fill="#000000" fill-rule="evenodd" fill-opacity="1" /><path clip-path="url(#clip770)" d="M912.456 2126.38 Q907.039 2126.38 904.296 2131.73 Q901.588 2137.04 901.588 2147.74 Q901.588 2158.4 904.296 2163.75 Q907.039 2169.06 912.456 2169.06 Q917.907 2169.06 920.616 2163.75 Q923.359 2158.4 923.359 2147.74 Q923.359 2137.04 920.616 2131.73 Q917.907 2126.38 912.456 2126.38 M912.456 2120.83 Q921.171 2120.83 925.755 2127.74 Q930.373 2134.61 930.373 2147.74 Q930.373 2160.83 925.755 2167.74 Q921.171 2174.61 912.456 2174.61 Q903.741 2174.61 899.123 2167.74 Q894.54 2160.83 894.54 2147.74 Q894.54 2134.61 899.123 2127.74 Q903.741 2120.83 912.456 2120.83 Z" fill="#000000" fill-rule="evenodd" fill-opacity="1" /><path clip-path="url(#clip770)" d="M756.519 1700.6 Q751.103 1700.6 748.36 1705.94 Q745.651 1711.26 745.651 1721.95 Q745.651 1732.61 748.36 1737.96 Q751.103 1743.27 756.519 1743.27 Q761.971 1743.27 764.679 1737.96 Q767.422 1732.61 767.422 1721.95 Q767.422 1711.26 764.679 1705.94 Q761.971 1700.6 756.519 1700.6 M756.519 1695.04 Q765.235 1695.04 769.818 1701.95 Q774.436 1708.83 774.436 1721.95 Q774.436 1735.04 769.818 1741.95 Q765.235 1748.83 756.519 1748.83 Q747.804 1748.83 743.186 1741.95 Q738.603 1735.04 738.603 1721.95 Q738.603 1708.83 743.186 1701.95 Q747.804 1695.04 756.519 1695.04 Z" fill="#000000" fill-rule="evenodd" fill-opacity="1" /><path clip-path="url(#clip770)" d="M786.762 1739 L794.089 1739 L794.089 1747.82 L786.762 1747.82 L786.762 1739 Z" fill="#000000" fill-rule="evenodd" fill-opacity="1" /><path clip-path="url(#clip770)" d="M824.366 1700.6 Q818.95 1700.6 816.207 1705.94 Q813.498 1711.26 813.498 1721.95 Q813.498 1732.61 816.207 1737.96 Q818.95 1743.27 824.366 1743.27 Q829.818 1743.27 832.526 1737.96 Q835.269 1732.61 835.269 1721.95 Q835.269 1711.26 832.526 1705.94 Q829.818 1700.6 824.366 1700.6 M824.366 1695.04 Q833.082 1695.04 837.665 1701.95 Q842.283 1708.83 842.283 1721.95 Q842.283 1735.04 837.665 1741.95 Q833.082 1748.83 824.366 1748.83 Q815.651 1748.83 811.033 1741.95 Q806.45 1735.04 806.45 1721.95 Q806.45 1708.83 811.033 1701.95 Q815.651 1695.04 824.366 1695.04 Z" fill="#000000" fill-rule="evenodd" fill-opacity="1" /><path clip-path="url(#clip770)" d="M869.609 1700.6 Q864.192 1700.6 861.449 1705.94 Q858.741 1711.26 858.741 1721.95 Q858.741 1732.61 861.449 1737.96 Q864.192 1743.27 869.609 1743.27 Q875.06 1743.27 877.769 1737.96 Q880.512 1732.61 880.512 1721.95 Q880.512 1711.26 877.769 1705.94 Q875.06 1700.6 869.609 1700.6 M869.609 1695.04 Q878.324 1695.04 882.908 1701.95 Q887.526 1708.83 887.526 1721.95 Q887.526 1735.04 882.908 1741.95 Q878.324 1748.83 869.609 1748.83 Q860.894 1748.83 856.276 1741.95 Q851.693 1735.04 851.693 1721.95 Q851.693 1708.83 856.276 1701.95 Q860.894 1695.04 869.609 1695.04 Z" fill="#000000" fill-rule="evenodd" fill-opacity="1" /><path clip-path="url(#clip770)" d="M905.894 1741.92 L930.373 1741.92 L930.373 1747.82 L897.456 1747.82 L897.456 1741.92 Q901.449 1737.78 908.324 1730.84 Q915.234 1723.86 917.005 1721.85 Q920.373 1718.06 921.692 1715.46 Q923.046 1712.82 923.046 1710.28 Q923.046 1706.15 920.13 1703.55 Q917.248 1700.94 912.595 1700.94 Q909.296 1700.94 905.616 1702.09 Q901.97 1703.24 897.803 1705.56 L897.803 1698.48 Q902.04 1696.78 905.72 1695.91 Q909.401 1695.04 912.456 1695.04 Q920.512 1695.04 925.303 1699.07 Q930.095 1703.1 930.095 1709.83 Q930.095 1713.03 928.88 1715.91 Q927.699 1718.76 924.539 1722.64 Q923.671 1723.65 919.019 1728.48 Q914.366 1733.27 905.894 1741.92 Z" fill="#000000" fill-rule="evenodd" fill-opacity="1" /><path clip-path="url(#clip770)" d="M753.394 1274.81 Q747.978 1274.81 745.235 1280.16 Q742.526 1285.47 742.526 1296.16 Q742.526 1306.82 745.235 1312.17 Q747.978 1317.48 753.394 1317.48 Q758.846 1317.48 761.554 1312.17 Q764.297 1306.82 764.297 1296.16 Q764.297 1285.47 761.554 1280.16 Q758.846 1274.81 753.394 1274.81 M753.394 1269.25 Q762.11 1269.25 766.693 1276.16 Q771.311 1283.04 771.311 1296.16 Q771.311 1309.25 766.693 1316.16 Q762.11 1323.04 753.394 1323.04 Q744.679 1323.04 740.061 1316.16 Q735.478 1309.25 735.478 1296.16 Q735.478 1283.04 740.061 1276.16 Q744.679 1269.25 753.394 1269.25 Z" fill="#000000" fill-rule="evenodd" fill-opacity="1" /><path clip-path="url(#clip770)" d="M783.637 1313.21 L790.964 1313.21 L790.964 1322.03 L783.637 1322.03 L783.637 1313.21 Z" fill="#000000" fill-rule="evenodd" fill-opacity="1" /><path clip-path="url(#clip770)" d="M821.241 1274.81 Q815.825 1274.81 813.082 1280.16 Q810.373 1285.47 810.373 1296.16 Q810.373 1306.82 813.082 1312.17 Q815.825 1317.48 821.241 1317.48 Q826.693 1317.48 829.401 1312.17 Q832.144 1306.82 832.144 1296.16 Q832.144 1285.47 829.401 1280.16 Q826.693 1274.81 821.241 1274.81 M821.241 1269.25 Q829.957 1269.25 834.54 1276.16 Q839.158 1283.04 839.158 1296.16 Q839.158 1309.25 834.54 1316.16 Q829.957 1323.04 821.241 1323.04 Q812.526 1323.04 807.908 1316.16 Q803.325 1309.25 803.325 1296.16 Q803.325 1283.04 807.908 1276.16 Q812.526 1269.25 821.241 1269.25 Z" fill="#000000" fill-rule="evenodd" fill-opacity="1" /><path clip-path="url(#clip770)" d="M866.484 1274.81 Q861.067 1274.81 858.324 1280.16 Q855.616 1285.47 855.616 1296.16 Q855.616 1306.82 858.324 1312.17 Q861.067 1317.48 866.484 1317.48 Q871.935 1317.48 874.644 1312.17 Q877.387 1306.82 877.387 1296.16 Q877.387 1285.47 874.644 1280.16 Q871.935 1274.81 866.484 1274.81 M866.484 1269.25 Q875.199 1269.25 879.783 1276.16 Q884.401 1283.04 884.401 1296.16 Q884.401 1309.25 879.783 1316.16 Q875.199 1323.04 866.484 1323.04 Q857.769 1323.04 853.151 1316.16 Q848.568 1309.25 848.568 1296.16 Q848.568 1283.04 853.151 1276.16 Q857.769 1269.25 866.484 1269.25 Z" fill="#000000" fill-rule="evenodd" fill-opacity="1" /><path clip-path="url(#clip770)" d="M915.998 1276.3 L898.29 1303.97 L915.998 1303.97 L915.998 1276.3 M914.157 1270.19 L922.977 1270.19 L922.977 1303.97 L930.373 1303.97 L930.373 1309.81 L922.977 1309.81 L922.977 1322.03 L915.998 1322.03 L915.998 1309.81 L892.595 1309.81 L892.595 1303.04 L914.157 1270.19 Z" fill="#000000" fill-rule="evenodd" fill-opacity="1" /><path clip-path="url(#clip770)" d="M753.881 849.02 Q748.464 849.02 745.721 854.367 Q743.013 859.68 743.013 870.374 Q743.013 881.034 745.721 886.381 Q748.464 891.693 753.881 891.693 Q759.332 891.693 762.04 886.381 Q764.783 881.034 764.783 870.374 Q764.783 859.68 762.04 854.367 Q759.332 849.02 753.881 849.02 M753.881 843.464 Q762.596 843.464 767.179 850.374 Q771.797 857.249 771.797 870.374 Q771.797 883.464 767.179 890.374 Q762.596 897.249 753.881 897.249 Q745.165 897.249 740.547 890.374 Q735.964 883.464 735.964 870.374 Q735.964 857.249 740.547 850.374 Q745.165 843.464 753.881 843.464 Z" fill="#000000" fill-rule="evenodd" fill-opacity="1" /><path clip-path="url(#clip770)" d="M784.123 887.422 L791.45 887.422 L791.45 896.242 L784.123 896.242 L784.123 887.422 Z" fill="#000000" fill-rule="evenodd" fill-opacity="1" /><path clip-path="url(#clip770)" d="M821.727 849.02 Q816.311 849.02 813.568 854.367 Q810.859 859.68 810.859 870.374 Q810.859 881.034 813.568 886.381 Q816.311 891.693 821.727 891.693 Q827.179 891.693 829.887 886.381 Q832.63 881.034 832.63 870.374 Q832.63 859.68 829.887 854.367 Q827.179 849.02 821.727 849.02 M821.727 843.464 Q830.443 843.464 835.026 850.374 Q839.644 857.249 839.644 870.374 Q839.644 883.464 835.026 890.374 Q830.443 897.249 821.727 897.249 Q813.012 897.249 808.394 890.374 Q803.811 883.464 803.811 870.374 Q803.811 857.249 808.394 850.374 Q813.012 843.464 821.727 843.464 Z" fill="#000000" fill-rule="evenodd" fill-opacity="1" /><path clip-path="url(#clip770)" d="M866.97 849.02 Q861.554 849.02 858.811 854.367 Q856.102 859.68 856.102 870.374 Q856.102 881.034 858.811 886.381 Q861.554 891.693 866.97 891.693 Q872.422 891.693 875.13 886.381 Q877.873 881.034 877.873 870.374 Q877.873 859.68 875.13 854.367 Q872.422 849.02 866.97 849.02 M866.97 843.464 Q875.685 843.464 880.269 850.374 Q884.887 857.249 884.887 870.374 Q884.887 883.464 880.269 890.374 Q875.685 897.249 866.97 897.249 Q858.255 897.249 853.637 890.374 Q849.054 883.464 849.054 870.374 Q849.054 857.249 853.637 850.374 Q858.255 843.464 866.97 843.464 Z" fill="#000000" fill-rule="evenodd" fill-opacity="1" /><path clip-path="url(#clip770)" d="M913.081 867.527 Q908.359 867.527 905.581 870.756 Q902.838 873.985 902.838 879.61 Q902.838 885.2 905.581 888.464 Q908.359 891.693 913.081 891.693 Q917.803 891.693 920.546 888.464 Q923.324 885.2 923.324 879.61 Q923.324 873.985 920.546 870.756 Q917.803 867.527 913.081 867.527 M927.005 845.548 L927.005 851.937 Q924.366 850.687 921.657 850.027 Q918.984 849.367 916.345 849.367 Q909.401 849.367 905.72 854.055 Q902.074 858.742 901.553 868.221 Q903.602 865.2 906.692 863.603 Q909.783 861.971 913.498 861.971 Q921.31 861.971 925.824 866.728 Q930.373 871.45 930.373 879.61 Q930.373 887.596 925.65 892.422 Q920.928 897.249 913.081 897.249 Q904.088 897.249 899.331 890.374 Q894.574 883.464 894.574 870.374 Q894.574 858.082 900.408 850.791 Q906.241 843.464 916.067 843.464 Q918.706 843.464 921.38 843.985 Q924.088 844.506 927.005 845.548 Z" fill="#000000" fill-rule="evenodd" fill-opacity="1" /><path clip-path="url(#clip770)" d="M754.263 423.232 Q748.846 423.232 746.103 428.579 Q743.395 433.891 743.395 444.586 Q743.395 455.245 746.103 460.593 Q748.846 465.905 754.263 465.905 Q759.714 465.905 762.422 460.593 Q765.165 455.245 765.165 444.586 Q765.165 433.891 762.422 428.579 Q759.714 423.232 754.263 423.232 M754.263 417.676 Q762.978 417.676 767.561 424.586 Q772.179 431.461 772.179 444.586 Q772.179 457.676 767.561 464.586 Q762.978 471.461 754.263 471.461 Q745.547 471.461 740.929 464.586 Q736.346 457.676 736.346 444.586 Q736.346 431.461 740.929 424.586 Q745.547 417.676 754.263 417.676 Z" fill="#000000" fill-rule="evenodd" fill-opacity="1" /><path clip-path="url(#clip770)" d="M784.505 461.634 L791.832 461.634 L791.832 470.454 L784.505 470.454 L784.505 461.634 Z" fill="#000000" fill-rule="evenodd" fill-opacity="1" /><path clip-path="url(#clip770)" d="M822.109 423.232 Q816.693 423.232 813.95 428.579 Q811.241 433.891 811.241 444.586 Q811.241 455.245 813.95 460.593 Q816.693 465.905 822.109 465.905 Q827.561 465.905 830.269 460.593 Q833.012 455.245 833.012 444.586 Q833.012 433.891 830.269 428.579 Q827.561 423.232 822.109 423.232 M822.109 417.676 Q830.825 417.676 835.408 424.586 Q840.026 431.461 840.026 444.586 Q840.026 457.676 835.408 464.586 Q830.825 471.461 822.109 471.461 Q813.394 471.461 808.776 464.586 Q804.193 457.676 804.193 444.586 Q804.193 431.461 808.776 424.586 Q813.394 417.676 822.109 417.676 Z" fill="#000000" fill-rule="evenodd" fill-opacity="1" /><path clip-path="url(#clip770)" d="M867.352 423.232 Q861.936 423.232 859.193 428.579 Q856.484 433.891 856.484 444.586 Q856.484 455.245 859.193 460.593 Q861.936 465.905 867.352 465.905 Q872.804 465.905 875.512 460.593 Q878.255 455.245 878.255 444.586 Q878.255 433.891 875.512 428.579 Q872.804 423.232 867.352 423.232 M867.352 417.676 Q876.067 417.676 880.651 424.586 Q885.269 431.461 885.269 444.586 Q885.269 457.676 880.651 464.586 Q876.067 471.461 867.352 471.461 Q858.637 471.461 854.019 464.586 Q849.436 457.676 849.436 444.586 Q849.436 431.461 854.019 424.586 Q858.637 417.676 867.352 417.676 Z" fill="#000000" fill-rule="evenodd" fill-opacity="1" /><path clip-path="url(#clip770)" d="M912.595 445.836 Q907.595 445.836 904.713 448.509 Q901.866 451.183 901.866 455.87 Q901.866 460.558 904.713 463.231 Q907.595 465.905 912.595 465.905 Q917.595 465.905 920.477 463.231 Q923.359 460.523 923.359 455.87 Q923.359 451.183 920.477 448.509 Q917.63 445.836 912.595 445.836 M905.581 442.85 Q901.067 441.738 898.533 438.648 Q896.033 435.558 896.033 431.114 Q896.033 424.898 900.442 421.287 Q904.887 417.676 912.595 417.676 Q920.338 417.676 924.748 421.287 Q929.157 424.898 929.157 431.114 Q929.157 435.558 926.623 438.648 Q924.123 441.738 919.644 442.85 Q924.713 444.03 927.525 447.468 Q930.373 450.905 930.373 455.87 Q930.373 463.405 925.755 467.433 Q921.171 471.461 912.595 471.461 Q904.019 471.461 899.401 467.433 Q894.817 463.405 894.817 455.87 Q894.817 450.905 897.665 447.468 Q900.512 444.03 905.581 442.85 M903.012 431.773 Q903.012 435.801 905.512 438.058 Q908.046 440.315 912.595 440.315 Q917.109 440.315 919.644 438.058 Q922.213 435.801 922.213 431.773 Q922.213 427.746 919.644 425.489 Q917.109 423.232 912.595 423.232 Q908.046 423.232 905.512 425.489 Q903.012 427.746 903.012 431.773 Z" fill="#000000" fill-rule="evenodd" fill-opacity="1" /><polyline clip-path="url(#clip772)" style="stroke:#ee7733; stroke-linecap:butt; stroke-linejoin:round; stroke-width:4.8; stroke-opacity:1; fill:none" points="
  1040.75,2147.64 1050.81,2147.33 1060.87,2145.27 1070.94,2135.69 1081,2103.26 1091.06,2023.27 1101.12,1879.13 1111.18,1688.72 1121.25,1503.77 1131.31,1371.33 
  1141.37,1301.18 1151.43,1273.35 1161.5,1264.44 1171.56,1261.13 1181.62,1258.87 1191.68,1256.73 1201.74,1254.4 1211.81,1251.55 1221.87,1248.03 1231.93,1243.93 
  1241.99,1239.32 1252.06,1234.25 1262.12,1228.92 1272.18,1223.46 1282.24,1217.73 1292.31,1211.57 1302.37,1204.97 1312.43,1198.02 1322.49,1190.58 1332.55,1182.39 
  1342.62,1173.42 1352.68,1164.03 1362.74,1154.91 1372.8,1146.59 1382.87,1138.98 1392.93,1131.4 1402.99,1123.41 1413.05,1115.25 1423.11,1107.41 1433.18,1099.8 
  1443.24,1091.99 1453.3,1083.97 1463.36,1076.29 1473.43,1069.21 1483.49,1062.5 1493.55,1055.92 1503.61,1049.56 1513.67,1043.59 1523.74,1037.91 1533.8,1032.3 
  1543.86,1026.55 1553.92,1020.6 1563.99,1014.58 1574.05,1008.72 1584.11,1003.35 1594.17,998.69 1604.23,994.812 1614.3,991.421 1624.36,987.957 1634.42,984.031 
  1644.48,979.727 1654.55,975.346 1664.61,970.998 1674.67,966.648 1684.73,962.39 1694.79,958.391 1704.86,954.633 1714.92,951.009 1724.98,947.586 1735.04,944.415 
  1745.11,941.265 1755.17,937.814 1765.23,933.994 1775.29,930.161 1785.35,926.948 1795.42,924.64 1805.48,922.754 1815.54,920.583 1825.6,917.876 1835.67,914.667 
  1845.73,911.028 1855.79,907.3 1865.85,903.968 1875.91,901.205 1885.98,898.911 1896.04,897.031 1906.1,895.507 1916.16,894.154 1926.23,892.812 1936.29,891.407 
  1946.35,889.796 1956.41,887.823 1966.48,885.552 1976.54,883.189 1986.6,880.753 1996.66,878.087 2006.72,875.244 2016.79,872.55 2026.85,870.135 2036.91,867.692 
  2046.97,864.958 2057.04,862.301 2067.1,860.517 2077.16,860.044 2087.22,860.526 2097.28,861.187 2107.35,861.493 2117.41,861.28 2127.47,860.414 2137.53,858.767 
  2147.6,856.511 2157.66,854.083 2167.72,851.826 2177.78,849.768 2187.84,847.748 2197.91,845.848 2207.97,844.503 2218.03,843.873 2228.09,843.421 2238.16,842.531 
  2248.22,841.234 2258.28,839.985 2268.34,838.999 2278.4,838.162 2288.47,837.476 2298.53,837.242 2308.59,837.567 2318.65,838.001 2328.72,838.036 2338.78,837.786 
  2348.84,837.83 2358.9,838.492 2368.96,839.54 2379.03,840.601 2389.09,841.472 2399.15,842.008 2409.21,842.206 2419.28,842.487 2429.34,843.419 2439.4,845.088 
  2449.46,847.087 2459.52,848.998 2469.59,850.59 2479.65,851.769 2489.71,852.645 2499.77,853.553 2509.84,854.856 2519.9,856.677 2529.96,858.814 2540.02,861.041 
  2550.09,863.435 2560.15,866.188 2570.21,869.264 2580.27,872.444 2590.33,875.592 2600.4,878.733 2610.46,881.942 2620.52,885.291 2630.58,888.902 2640.65,892.863 
  2650.71,896.962 2660.77,900.753 2670.83,904.03 2680.89,907.077 2690.96,910.377 2701.02,914.13 2711.08,918.01 2721.14,921.506 2731.21,924.481 2741.27,927.291 
  2751.33,930.398 2761.39,933.911 2771.45,937.503 2781.52,940.797 2791.58,943.817 2801.64,947.045 2811.7,950.901 2821.77,955.132 2831.83,959.011 2841.89,962.128 
  2851.95,964.625 2862.01,966.805 2872.08,968.848 2882.14,970.779 2892.2,972.515 2902.26,974.11 2912.33,976.068 2922.39,979.984 2932.45,991.667 2942.51,1027.97 
  2952.57,1119.64 2962.64,1293.69 2972.7,1537.96 2982.76,1790.36 2992.82,1981.92 3002.89,2088.42 3012.95,2131.67 3023.01,2144.46 3033.07,2147.21 3043.13,2147.63 
  
  "/>
<polyline clip-path="url(#clip772)" style="stroke:#0077bb; stroke-linecap:butt; stroke-linejoin:round; stroke-width:4.8; stroke-opacity:1; fill:none" points="
  1316.91,2147.64 1324.3,2147.31 1331.69,2145.25 1339.09,2135.91 1346.48,2104.49 1353.87,2026.16 1361.26,1880.58 1368.65,1677.94 1376.04,1464.92 1383.43,1292.82 
  1390.82,1181.03 1398.21,1115.93 1405.6,1074.91 1412.99,1043.22 1420.38,1015.13 1427.77,989.319 1435.17,965.264 1442.56,942.119 1449.95,919.178 1457.34,896.422 
  1464.73,874.305 1472.12,853.343 1479.51,833.966 1486.9,816.223 1494.29,799.711 1501.68,784.261 1509.07,770.267 1516.46,757.812 1523.85,746.095 1531.25,734.371 
  1538.64,722.926 1546.03,712.592 1553.42,703.754 1560.81,696.306 1568.2,690.088 1575.59,684.806 1582.98,679.811 1590.37,674.575 1597.76,669.341 1605.15,664.877 
  1612.54,661.627 1619.93,659.442 1627.33,658.009 1634.72,657.171 1642.11,656.916 1649.5,657.216 1656.89,657.83 1664.28,658.246 1671.67,658.094 1679.06,657.663 
  1686.45,657.687 1693.84,658.583 1701.23,660.113 1708.62,661.781 1716.01,663.374 1723.41,665.01 1730.8,666.787 1738.19,668.603 1745.58,670.364 1752.97,672.121 
  1760.36,673.837 1767.75,675.115 1775.14,675.569 1782.53,675.386 1789.92,675.035 1797.31,674.655 1804.7,674.306 1812.09,674.386 1819.49,675.184 1826.88,676.318 
  1834.27,677.041 1841.66,676.964 1849.05,676.309 1856.44,675.5 1863.83,674.622 1871.22,673.492 1878.61,672.18 1886,671.12 1893.39,670.675 1900.78,670.793 
  1908.17,671.029 1915.57,670.765 1922.96,669.467 1930.35,666.955 1937.74,663.57 1945.13,659.927 1952.52,656.455 1959.91,653.272 1967.3,650.412 1974.69,647.911 
  1982.08,645.677 1989.47,643.402 1996.86,640.724 2004.25,637.455 2011.65,633.487 2019.04,628.63 2026.43,622.943 2033.82,617.009 2041.21,611.498 2048.6,606.709 
  2055.99,602.698 2063.38,599.415 2070.77,596.438 2078.16,592.926 2085.55,588.13 2092.94,581.934 2100.33,574.878 2107.73,567.678 2115.12,560.683 2122.51,553.82 
  2129.9,546.938 2137.29,539.891 2144.68,532.429 2152.07,524.399 2159.46,516.018 2166.85,507.788 2174.24,500.104 2181.63,492.92 2189.02,485.815 2196.41,478.372 
  2203.81,470.538 2211.2,462.662 2218.59,455.063 2225.98,447.542 2233.37,439.641 2240.76,431.259 2248.15,422.618 2255.54,413.843 2262.93,405.014 2270.32,396.326 
  2277.71,387.725 2285.1,378.602 2292.49,368.368 2299.89,357.313 2307.28,346.537 2314.67,336.912 2322.06,328.3 2329.45,319.821 2336.84,310.766 2344.23,301.261 
  2351.62,292.066 2359.01,283.718 2366.4,275.989 2373.79,268.239 2381.18,260.043 2388.57,251.264 2395.97,241.962 2403.36,232.684 2410.75,224.397 2418.14,217.64 
  2425.53,212.032 2432.92,206.78 2440.31,201.295 2447.7,195.31 2455.09,188.842 2462.48,182.12 2469.87,175.472 2477.26,169.331 2484.65,164.134 2492.05,160.035 
  2499.44,156.955 2506.83,154.967 2514.22,154.289 2521.61,154.872 2529,156.29 2536.39,158.103 2543.78,160.038 2551.17,161.895 2558.56,163.709 2565.95,165.965 
  2573.34,169.245 2580.73,173.739 2588.13,179.328 2595.52,186.017 2602.91,194.147 2610.3,204.148 2617.69,215.913 2625.08,228.604 2632.47,241.448 2639.86,254.502 
  2647.25,268.401 2654.64,283.667 2662.03,300.458 2669.42,318.67 2676.81,337.996 2684.21,358.268 2691.6,380.256 2698.99,407.253 2706.38,449.902 2713.77,534.736 
  2721.16,703.397 2728.55,982.666 2735.94,1340.39 2743.33,1686.43 2750.72,1937.16 2758.11,2072.71 2765.5,2127.21 2772.89,2143.45 2780.29,2147.03 2787.68,2147.61 
  
  "/>
<polyline clip-path="url(#clip772)" style="stroke:#33bbee; stroke-linecap:butt; stroke-linejoin:round; stroke-width:4.8; stroke-opacity:1; fill:none" points="
  1038.57,2147.64 1048.66,2147.31 1058.74,2145.28 1068.83,2136.15 1078.91,2105.56 1089,2028.99 1099.08,1885.41 1109.16,1683.62 1119.25,1473.45 1129.33,1322.55 
  1139.42,1281.94 1149.5,1367.1 1159.58,1546.86 1169.67,1740.64 1179.75,1848.39 1189.84,1806.46 1199.92,1626.29 1210,1386.94 1220.09,1186.29 1230.17,1085.98 
  1240.26,1085.82 1250.34,1130.1 1260.42,1142.77 1270.51,1087.47 1280.59,1002.28 1290.68,966.053 1300.76,1032.36 1310.85,1181.7 1320.93,1317.65 1331.01,1332.95 
  1341.1,1208.17 1351.18,1033.55 1361.27,931.299 1371.35,975.245 1381.43,1160.37 1391.52,1398.89 1401.6,1552.65 1411.69,1521.21 1421.77,1319.78 1431.85,1059.49 
  1441.94,850.001 1452.02,730.347 1462.11,679.945 1472.19,666.131 1482.27,674.586 1492.36,715.984 1502.44,816.96 1512.53,988.204 1522.61,1180.59 1532.7,1289.93 
  1542.78,1243.54 1552.86,1081.46 1562.95,927.778 1573.03,893.58 1583.12,1017.11 1593.2,1251.8 1603.28,1477.03 1613.37,1557.47 1623.45,1440.38 1633.54,1196.55 
  1643.62,952.468 1653.7,789.446 1663.79,711.624 1673.87,685.267 1683.96,683.685 1694.04,704.762 1704.13,769.799 1714.21,904.618 1724.29,1096.09 1734.38,1261.78 
  1744.46,1298.67 1754.55,1184.9 1764.63,1011.13 1774.71,904.627 1784.8,944.395 1794.88,1129.13 1804.97,1374.07 1815.05,1541.23 1825.13,1525.22 1835.22,1336.03 
  1845.3,1088.92 1855.39,911.171 1865.47,861.251 1875.55,912.188 1885.64,980.761 1895.72,987.325 1905.81,921.639 1915.89,853.118 1925.98,873.399 1936.06,1032.13 
  1946.14,1303.02 1956.23,1584.25 1966.31,1746.03 1976.4,1707.37 1986.48,1486.47 1996.56,1189.37 2006.65,944.626 2016.73,830.877 2026.82,845.822 2036.9,918.615 
  2046.98,955.329 2057.07,910.473 2067.15,827.898 2077.24,802.775 2087.32,909.6 2097.4,1153.99 2107.49,1457.47 2117.57,1687.25 2127.66,1730.34 2137.74,1562.63 
  2147.83,1261.93 2157.91,954.268 2167.99,731.401 2178.08,609.893 2188.16,557.008 2198.25,538.012 2208.33,542.312 2218.41,589.262 2228.5,720.04 2238.58,964.102 
  2248.67,1288.21 2258.75,1581.41 2268.83,1712.14 2278.92,1615.03 2289,1335.96 2299.09,1005.41 2309.17,759.511 2319.25,666.812 2329.34,705.246 2339.42,784.21 
  2349.51,803.551 2359.59,732.759 2369.68,638.669 2379.76,624.679 2389.84,744.057 2399.93,949.12 2410.01,1104.76 2420.1,1088.58 2430.18,907.141 2440.26,693.491 
  2450.35,592.643 2460.43,666.485 2470.52,865.456 2480.6,1047.64 2490.68,1068.69 2500.77,905.257 2510.85,674.414 2520.94,521.669 2531.02,509.458 2541.1,591.347 
  2551.19,657.893 2561.27,627.951 2571.36,521.257 2581.44,433.309 2591.53,440.432 2601.61,531.361 2611.69,615.836 2621.78,606.712 2631.86,509.521 2641.95,423.711 
  2652.03,456.643 2662.11,635.739 2672.2,871.604 2682.28,1003.53 2692.37,929.724 2702.45,706.007 2712.53,491.4 2722.62,408.316 2732.7,464.438 2742.79,568.47 
  2752.87,606.417 2762.96,538.995 2773.04,434.551 2783.12,395.842 2793.21,462.674 2803.29,578.458 2813.38,639.155 2823.46,589.545 2833.54,470.839 2843.63,363.7 
  2853.71,309.797 2863.8,302.41 2873.88,323.43 2883.96,372.226 2894.05,474.464 2904.13,668.796 2914.22,961.196 2924.3,1276.65 2934.38,1484.85 2944.47,1515.02 
  2954.55,1442.7 2964.64,1426.94 2974.72,1553.61 2984.81,1768.48 2994.89,1962.48 3004.97,2078.87 3015.06,2128.33 3025.14,2143.58 3035.23,2147.03 3045.31,2147.61 
  
  "/>
<path clip-path="url(#clip770)" d="
M244.852 424.12 L598.919 424.12 L598.919 164.92 L244.852 164.92  Z
  " fill="#ffffff" fill-rule="evenodd" fill-opacity="0.9"/>
<polyline clip-path="url(#clip770)" style="stroke:#222255; stroke-linecap:butt; stroke-linejoin:round; stroke-width:4; stroke-opacity:0.1; fill:none" points="
  244.852,424.12 598.919,424.12 598.919,164.92 244.852,164.92 244.852,424.12 
  "/>
<polyline clip-path="url(#clip770)" style="stroke:#ee7733; stroke-linecap:butt; stroke-linejoin:round; stroke-width:5; stroke-opacity:1; fill:none" points="
  275.611,229.72 460.17,229.72 
  "/>
<path clip-path="url(#clip770)" d="M515.004 230.776 L496.572 230.776 Q497.006 239.428 499.003 243.102 Q501.491 247.616 505.803 247.616 Q510.143 247.616 512.544 243.074 Q514.657 239.081 515.004 230.776 M514.917 225.857 Q514.107 217.64 512.544 214.746 Q510.056 210.174 505.803 210.174 Q501.375 210.174 499.032 214.688 Q497.18 218.334 496.63 225.857 L514.917 225.857 M505.803 205.834 Q512.747 205.834 516.711 211.968 Q520.675 218.074 520.675 228.895 Q520.675 239.688 516.711 245.822 Q512.747 251.986 505.803 251.986 Q498.829 251.986 494.894 245.822 Q490.93 239.688 490.93 228.895 Q490.93 218.074 494.894 211.968 Q498.829 205.834 505.803 205.834 Z" fill="#000000" fill-rule="evenodd" fill-opacity="1" /><polyline clip-path="url(#clip770)" style="stroke:#0077bb; stroke-linecap:butt; stroke-linejoin:round; stroke-width:5; stroke-opacity:1; fill:none" points="
  275.611,294.52 460.17,294.52 
  "/>
<path clip-path="url(#clip770)" d="M509.796 271.097 L509.796 283.047 Q515.554 283.047 519.402 287.474 Q523.366 291.988 523.366 299.945 Q523.366 307.902 519.402 312.416 Q515.554 316.843 509.796 316.843 L509.796 328.446 L504.5 328.446 L504.5 316.843 Q498.742 316.843 494.865 312.416 Q490.93 307.902 490.93 299.945 Q490.93 291.988 494.865 287.474 Q498.742 283.047 504.5 283.047 L504.5 271.097 L509.796 271.097 M509.796 312.098 Q513.065 312.098 515.293 309.118 Q517.724 305.79 517.753 299.945 Q517.782 294.158 515.293 290.773 Q513.065 287.793 509.796 287.793 L509.796 312.098 M504.5 312.098 L504.5 287.793 Q501.231 287.793 499.032 290.773 Q496.514 294.158 496.543 299.945 Q496.572 305.79 499.032 309.118 Q501.231 312.098 504.5 312.098 Z" fill="#000000" fill-rule="evenodd" fill-opacity="1" /><polyline clip-path="url(#clip770)" style="stroke:#33bbee; stroke-linecap:butt; stroke-linejoin:round; stroke-width:5; stroke-opacity:1; fill:none" points="
  275.611,359.32 460.17,359.32 
  "/>
<path clip-path="url(#clip770)" d="M509.796 335.897 L509.796 347.847 Q515.554 347.847 519.402 352.274 Q523.366 356.788 523.366 364.745 Q523.366 372.702 519.402 377.216 Q515.554 381.643 509.796 381.643 L509.796 393.246 L504.5 393.246 L504.5 381.643 Q498.742 381.643 494.865 377.216 Q490.93 372.702 490.93 364.745 Q490.93 356.788 494.865 352.274 Q498.742 347.847 504.5 347.847 L504.5 335.897 L509.796 335.897 M509.796 376.898 Q513.065 376.898 515.293 373.918 Q517.724 370.59 517.753 364.745 Q517.782 358.958 515.293 355.573 Q513.065 352.593 509.796 352.593 L509.796 376.898 M504.5 376.898 L504.5 352.593 Q501.231 352.593 499.032 355.573 Q496.514 358.958 496.543 364.745 Q496.572 370.59 499.032 373.918 Q501.231 376.898 504.5 376.898 Z" fill="#000000" fill-rule="evenodd" fill-opacity="1" /><path clip-path="url(#clip770)" d="M537.4 337.72 L537.4 353.779 L532.481 353.779 L532.481 337.72 L537.4 337.72 Z" fill="#000000" fill-rule="evenodd" fill-opacity="1" /></svg>
